<?xml version="1.0" encoding="UTF-8"?>
<!-- Generator: Adobe Illustrator 25.2.3, SVG Export Plug-In . SVG Version: 6.00 Build 0)  -->
<svg xmlns="http://www.w3.org/2000/svg" xmlns:xlink="http://www.w3.org/1999/xlink" version="1.1" id="Capa_1" x="0px" y="0px" viewBox="0 0 512 512" style="enable-background:new 0 0 512 512;" xml:space="preserve" width="512" height="512">
<g>
	
		<ellipse transform="matrix(0.2319 -0.9727 0.9727 0.2319 -148.443 198.7188)" style="fill:#FF9D3D;" cx="51.611" cy="193.357" rx="43.565" ry="43.565"/>
	<g>
		<path style="fill:#9CF0E7;" d="M274.025,112.729c0,0,6.845-39.306,51.547-39.531c44.703-0.224,53.996,42.177,53.996,42.177    s3.926-12.441,13.87-12.319c9.944,0.122,14.01,19.271,14.01,19.271s11.036-11.598,35.431-5.79    c24.395,5.808,69.12,15.31,69.12,15.31H223.844L274.025,112.729z"/>
		<path style="fill:#9CF0E7;" d="M50.181,223.556c0,0,6.844-39.307,51.547-39.531c44.703-0.224,53.996,42.177,53.996,42.177    s3.926-12.441,13.87-12.319c9.944,0.122,14.01,19.27,14.01,19.27s11.036-11.598,35.431-5.79c24.395,5.808,69.12,15.31,69.12,15.31    H0L50.181,223.556z"/>
		<g>
			<path style="fill:#FF5555;" d="M282.476,30.397c0,0-9.663-15.282-8.356-25.742c0,0,10.749-8.048,20.119-2.205     c0,0-2.371,22.942-10.046,30.224L282.476,30.397z"/>
			<path style="fill:#FF5555;" d="M280.657,32.674c-1.161-0.275,4.503-19.739,27.638-25.84c0,0,8.535,6.538,7.664,14.382     C315.959,21.217,295.911,36.287,280.657,32.674z"/>
			<path style="fill:#AE312F;" d="M285.205,29.99c0,0.349,7.733-17.897,6.297-25.741C291.503,4.249,285.205,6.834,285.205,29.99z"/>
			<path style="fill:#FFC893;" d="M495.255,417.072c0,19.132-29.775,36.353-77.288,48.332c-8.129-5.271-23.426-8.833-40.949-8.833     c-26.04,0-47.154,7.871-47.154,17.566c0,1.81,0.732,3.548,2.083,5.2c-23.67,2.155-48.993,3.332-75.306,3.332     c-131.796,0-238.629-29.358-238.629-65.596c0-36.224,106.833-65.582,238.629-65.582     C388.422,351.49,495.255,380.848,495.255,417.072z"/>
			<g>
				<g>
					<path style="fill:#FFC893;" d="M296.512,43.286l-148.242,23.9c0,0,0.088-2.355,0.679-6.178c0.23-1.487,4.517-3.3,4.924-5.178       c0.345-1.591-3.219-3.2-2.716-5.003c4.697-16.834,16.934-41.481,48.777-48.203c31.499-6.65,61.905,11.519,79.931,25.681       c1.298,1.02-0.516,1.832,0.649,2.799c1.165,0.967,5.309,2.09,6.333,2.983C292.99,39.448,296.512,43.286,296.512,43.286z"/>
					<path style="opacity:0.2;fill:#AE312F;" d="M296.512,43.286l-148.242,23.9c0,0,0.088-2.355,0.679-6.178       c0.227-1.465,4.525-3.331,4.924-5.178c0.348-1.614-3.228-3.169-2.716-5.003c4.697-16.834,16.934-41.481,48.777-48.203       c31.499-6.65,61.905,11.519,79.931,25.681c1.267,0.995-0.491,1.854,0.649,2.799c1.197,0.992,5.284,2.068,6.333,2.984       C292.99,39.448,296.512,43.286,296.512,43.286z"/>
				</g>
				<path style="fill:#FF5555;" d="M296.512,43.286l-148.242,23.9c0,0,0.258-6.952,2.887-16.36      c14.162-12.381,64.208-29.092,128.708-22.522C290.25,36.463,296.512,43.286,296.512,43.286z"/>
			</g>
			<g>
				<g>
					<path style="fill:#FF9D3D;" d="M162.45,370.965c-13.938,10.558-25.009,13.883-33.253,14.077c-0.54,0.014-1.053,0.014-1.552,0       c-9.782-0.222-15.213-4.836-16.377-5.944c-0.152-0.152-0.236-0.236-0.236-0.236s-6.579,17.81-17.084,22.931       c-9.51,4.635-30.718,14.895-38.989,15.047c-2.009,0.056-3.242-0.665-3.339-2.494c-0.526-9.408,23.513-20.381,23.513-20.381       s-16.724-14.119-9.921-56.073c6.789-41.954,42.453-50.545,42.453-50.545c-0.277-8.494,0.513-16.89,2.092-25.037       c1.399-7.343,3.436-14.479,5.888-21.31c1.441-4.046,3.021-7.981,4.711-11.791c2.12-4.808,4.392-9.408,6.72-13.745       c11.195-20.853,23.776-35.983,27.642-40.43c0.249-0.291,0.471-0.54,0.651-0.734c0.346-0.402,0.54-0.61,0.54-0.61       c1.621,0.208,3.173,0.582,4.669,1.136c0.582,0.194,1.136,0.429,1.691,0.693c0.72,0.318,1.413,0.679,2.106,1.094       c0.291,0.167,0.582,0.346,0.859,0.527c1.344,0.859,2.619,1.857,3.838,3.007c0.305,0.263,0.596,0.554,0.873,0.845       c0.873,0.859,1.704,1.801,2.508,2.799c0.513,0.651,1.011,1.316,1.51,2.009C202.063,225.454,191.824,348.672,162.45,370.965z"/>
					<path style="opacity:0.2;fill:#AE312F;" d="M155.91,173.69c0,0-49.914,54.611-47.948,113.663c0,0-35.66,8.579-42.454,50.538       c-6.794,41.96,9.929,56.069,9.929,56.069s-24.039,10.974-23.516,20.381c0.523,9.406,30.746-7.504,42.329-12.542       c10.595-4.607,17.083-22.941,17.083-22.941s16.967,18.238,51.417-7.891C197.199,344.838,205.033,179.978,155.91,173.69z"/>
				</g>
				<path style="fill:#AE312F;" d="M64.83,413.96c-0.218-0.829-0.213-1.684-0.105-2.521c0.107-0.841,0.356-1.666,0.723-2.45      c0.396-0.77,0.915-1.496,1.59-2.064c0.678-0.564,1.515-0.93,2.358-1.01c-0.642,0.575-1.184,1.102-1.645,1.703      c-0.438,0.617-0.829,1.248-1.159,1.931C65.922,410.916,65.442,412.386,64.83,413.96z"/>
				<path style="opacity:0.48;fill:#AE312F;" d="M91.999,315.519c-0.431,3.531-1.256,8.117,1.027,11.064      c0.597,0.711,1.34,0.711,1.988,0.073c2.217-2.527,2.951-6.197,3.878-9.375c0.897,2.13,2.571,7.846,5.003,8.172      c3.85-1.573,4.476-11.678,4.955-15.489c1.108,3.986,3.148,8.664,7.373,10.114c3.034-0.047,2.697-6.964,2.788-9.198      c0.155,2.607,1.009,9.893-2.875,9.914c-3.71-1.036-6.284-4.497-7.536-8.019l1.081-0.106c-0.483,9.198-5.475,22.601-11.234,6.627      l1.075-0.041C95.29,334.562,88.596,327.178,91.999,315.519z"/>
			</g>
			<path style="fill:#FFC893;" d="M139.825,158.916c0,0-39.098-6.751-39.098-40.705c0-30.273,31.42-55.042,66.943-64.109     c35.523-9.067,110.176-23.768,142.626-19.041c40.168,5.851,55.64,62.762,27.854,85.673     C310.364,143.645,139.825,158.916,139.825,158.916z"/>
			<path style="fill:#FF9D3D;" d="M309.177,161.211c-10.174,7.771-116.492,55.877-165.472,5.015     c-9.502-10.001-15.162-23.072-16.647-36.555c-1.968-16.257,2.22-34.331,11.819-47.143c8.911-11.922,25.115-20.527,44.057-26.247     c29.086-8.517,61.483-11.053,91.332-7.585c27.855,3.997,45.998,16.657,55.923,39.034     C343.001,119.588,331.287,152.665,309.177,161.211z"/>
			<g>
				<path style="fill:#FF9D3D;" d="M455.314,435.698c0,0-9.865,6.166-16.031,0c-6.166-6.165-11.916-28.958-27.24-34.528      c-15.324-5.556-25.189-26.519-25.189-26.519s-30.011,14.798-69.278-0.623c-39.266-15.421,32.893-128.649,32.893-128.649      s39.156-7.703,62.003,40.597c1.87,3.921,3.616,8.202,5.223,12.899c0.818,2.397,1.566,4.725,2.245,6.997      c1.552,5.113,2.757,9.934,3.699,14.451c1.289,6.235,2.078,11.902,2.48,17.029c1.871,23.554-4.115,35.442-4.115,35.442      S462.103,420.9,455.314,435.698z"/>
				<path style="opacity:0.2;fill:#AE312F;" d="M455.314,435.698c0,0-9.865,6.166-16.031,0c-6.166-6.165-11.916-28.958-27.24-34.528      c-15.324-5.556-25.189-26.519-25.189-26.519s-30.011,14.798-69.278-0.623c-39.266-15.421,32.893-128.649,32.893-128.649      s39.156-7.703,62.003,40.597c1.87,3.921,3.616,8.202,5.223,12.899c0.818,2.397,1.566,4.725,2.245,6.997      c1.552,5.113,2.757,9.934,3.699,14.451c1.289,6.235,2.078,11.902,2.48,17.029c1.871,23.554-4.115,35.442-4.115,35.442      S462.103,420.9,455.314,435.698z"/>
			</g>
			<g>
				<path style="fill:#FF9D3D;" d="M388.808,265.837c0,0,22.998-18.304,14.55-45.057c-8.448-26.753-57.794-85.066-29.633-117.312      c12.32-14.108,22.01-16.27,25.976-13.213c5.099,3.93,3.006,13.17-3.33,19.985c-11.265,12.115-20.05,29.415-6.438,54.723      c8.347,15.521,26.887,43.373,29.209,67.279c1.465,15.076-3.478,28.606-12.931,36.411      C381.767,288.835,388.808,265.837,388.808,265.837z"/>
				<path style="opacity:0.2;fill:#AE312F;" d="M406.214,268.654c-24.446,20.18-17.408-2.815-17.408-2.815      s9.307-7.411,13.903-19.692c1.637-4.366,2.672-9.336,2.485-14.808c-0.1-3.332-0.675-6.866-1.839-10.557      c-4.596-14.535-21.258-38.393-31.01-62.322c-1.723-4.251-3.246-8.503-4.424-12.711c-3.62-12.783-4.223-25.107,1.177-35.52      c1.221-2.37,2.758-4.625,4.625-6.765c12.324-14.105,22.004-16.259,25.969-13.214c5.099,3.936,3.016,13.171-3.318,19.993      c-0.129,0.144-0.259,0.288-0.402,0.431c-11.074,12.08-19.491,29.286-6.047,54.293c2.973,5.53,7.253,12.625,11.62,20.554      c3.217,5.831,6.478,12.122,9.336,18.557c4.137,9.365,7.368,19.046,8.259,28.166      C420.606,247.324,415.665,260.855,406.214,268.654z"/>
				<path style="fill:#AE312F;" d="M396.375,110.242c-0.129,0.144-0.259,0.288-0.402,0.431c-5.76,2.916-5.357-2.628-5.357-2.628      c-9.609,5.286-17.207,3.921-21.516,2.183c1.221-2.37,2.758-4.625,4.625-6.765c12.324-14.105,22.004-16.259,25.969-13.214      C404.792,94.185,402.709,103.42,396.375,110.242z"/>
				<path style="fill:#AE312F;" d="M402.709,246.146c1.637-4.366,2.672-9.336,2.485-14.808c2.801,1.422,6.104,3.878,6.679,7.684      C412.562,243.59,407.492,245.931,402.709,246.146z"/>
				<path style="fill:#AE312F;" d="M410.882,204.077c-3.476,0.704-8.69,0.718-11.548-4.338c-3.031-5.371-0.072-11.045,2.212-14.219      C404.763,191.351,408.024,197.642,410.882,204.077z"/>
				<path style="fill:#AE312F;" d="M372.346,158.46c-1.723-4.251-3.246-8.503-4.424-12.711c2.686-2.011,6.061-3.648,8.575-1.968      C379.929,146.064,375.42,153.892,372.346,158.46z"/>
			</g>
			<path style="fill:#FF9D3D;" d="M157.86,100.088c-0.353,0.014-0.705,0.029-1.052,0.019c-25.273,0.204-37.211-29.981-32.628-35.569     c0.076-0.096,0.167-0.202,0.255-0.295c4.773-5.361,15.783-5.472,27.731-2.342c12.169,3.172,25.097-3.651,25.097-3.651     S183.838,99.023,157.86,100.088z"/>
			<path style="fill:#FF9D3D;" d="M310.119,57.297c0,0,0.001,0.013-0.012,0.025c-0.712,1.568-1.525,3.088-2.477,4.549     c0.001,0.012-0.012,0.013-0.024,0.025c-1.892,2.922-4.317,5.619-7.341,7.943c-20.513,15.757-38.784-21.202-38.784-21.202     s14.323-3.042,21.531-13.219c6.53-9.255,14.268-15.901,21.058-16.017c0.689-0.014,1.355,0.047,2.022,0.169     C311.721,20.635,317.481,40.93,310.119,57.297z"/>
			<path style="fill:#FF9D3D;" d="M367.138,372.268c-9.491,9.228-22.917,16.377-38.643,21.448     c-36.301,11.708-84.782,12.29-125.323,1.385c-5.681-1.538-5.199,15.759-10.087,13.953c-19.775-7.306-44.356-83.511-48.18-141.053     c-4.932-73.822,11.006-94.31,11.006-94.31s90.587-59.08,159.477-23.942c7.371,3.755,14.119,8.909,20.229,15.144     c4.739,4.808,9.089,10.253,13.08,16.211C388.059,239.74,392.618,347.549,367.138,372.268z"/>
			<path style="fill:#AE312F;" d="M310.121,57.301c0,0-0.003,0.012-0.018,0.021c-0.077,0.262-0.833,2.39-2.474,4.543     c-0.003,0.012-0.018,0.021-0.021,0.033c-0.917,1.207-2.492,2.468-4.413,3.453c-4.927,0.5-6.482,1.655-10.243-0.114     c-9.253-4.374,8.929-15.308,11.905-32.563c1.583-4.648,1.786-9.2-0.789-13.273c0.687-0.01,1.356,0.052,2.025,0.166     C311.719,20.632,317.48,40.932,310.121,57.301z"/>
			<path style="fill:#AE312F;" d="M156.81,100.108c-25.278,0.198-37.22-29.984-32.631-35.567c0.075-0.096,0.166-0.202,0.253-0.296     c0.856,1.822,2.464,4.314,5.488,6.822c3.287,3.374,7.428,6.825,14.037,8.669c12.159,3.375,12.383,10.159,14.175,15.839     C157.936,97.368,157.432,98.945,156.81,100.108z"/>
			<path style="fill:#FFFFFF;" d="M301.743,54.831c0,0,2.973,5.181,1.453,10.521c-3.387,1.749-7.828,2.638-11.589,0.869     c-9.253-4.374,8.42-19.368,13.251-33.546c0.686,3.876,0.858,9.684-2.195,15.376c0,0,4.864-2.766,5.83-1.864     c0.917,0.89-4.674,5.038-4.989,5.267c0.258-0.103,3.238-1.3,3.881-0.03C308.051,52.752,301.743,54.831,301.743,54.831z"/>
			<path style="fill:#FFFFFF;" d="M158.132,95.576c-14.828,3.537-17.221-10.719-17.221-10.719s-1.48,3.024-3.303,1.987     c-1.741-1.004,0.699-3.522,0.907-3.74c-0.164,0.036-3.52,0.872-4.568,0.04c-1.081-0.854,2.323-2.356,2.323-2.356     c-4.793-2.56-6.034-7.327-6.35-9.719c3.06,2.517,7.552,5.042,14.161,6.885C156.241,81.329,158.823,89.622,158.132,95.576z"/>
			<path style="fill:#AE312F;" d="M237.722,78.25c-1.004,2.348-3.167,4.373-5.741,4.545c-3.481,0.243-6.277-2.721-8.215-5.601     c-3.373-5.024-5.844-10.566-8.857-15.795c-2.101-3.636-4.508-7.182-7.544-10.115c-0.177-0.172-0.364-0.358-0.55-0.545     c8.914-1.54,18.006-2.55,26.89-3.074c2.99,7.319,4.693,15.141,4.999,23.027C238.798,73.248,238.741,75.893,237.722,78.25z"/>
			<path style="fill:#AE312F;" d="M251.177,59.303c-1.271,1.439-3.488,2.21-5.222,1.336c-1.747-0.877-2.392-2.979-2.968-4.834     c-0.824-2.683-1.846-5.3-3.059-7.822c-0.092-0.202-0.212-0.398-0.329-0.605c4.81-0.184,9.52-0.227,14.079-0.128     c0.102,2.262-0.018,4.534-0.387,6.77C252.98,55.911,252.463,57.855,251.177,59.303z"/>
			<path style="fill:#AE312F;" d="M201.601,66c-0.622,1.586-2.24,2.913-3.938,2.675c-0.836-0.116-1.587-0.582-2.283-1.06     c-4.034-2.706-9.463-6.777-12.447-11.334c5.497-1.665,11.232-3.092,17.087-4.272c0.814,2.936,1.434,5.927,1.829,8.939     C202.067,62.637,202.211,64.412,201.601,66z"/>
			<path style="fill:#AE312F;" d="M335.192,109.059c-2.745,1.344-5.641,2.409-8.534,3.41c-4.143,1.41-8.892,2.658-12.764,0.606     c-1.305-0.679-2.427-1.735-3.045-3.051c-1.299-2.749-0.159-6.124,1.9-8.354c2.05-2.244,4.856-3.625,7.518-5.105     c2.896-1.589,5.762-3.427,8.036-5.847c0.855-0.902,1.395-1.945,1.884-2.988C332.981,94.376,334.66,101.565,335.192,109.059z"/>
			<path style="fill:#AE312F;" d="M328.906,84.859c-2.043,1.325-4.28,2.335-6.773,2.757c-2.893,0.477-6.957,0.883-8.423-2.341     c-0.397-0.852-0.406-1.813-0.178-2.741c0.913-3.764,4.723-5.447,6.961-8.298c0.305-0.398,0.591-0.826,0.88-1.267     C324.355,76.643,326.862,80.623,328.906,84.859z"/>
			<path style="fill:#AE312F;" d="M333.895,129.234c-2.639-0.189-5.241-0.842-7.658-1.935c-1.606-0.715-3.195-1.707-4.019-3.239     c-0.833-1.547-0.6-3.753,0.889-4.665c0.73-0.447,1.629-0.532,2.485-0.654c3.13-0.444,6.151-1.593,8.772-3.326     c0.354-0.232,0.696-0.519,1.026-0.809c-0.004,1.328-0.036,2.663-0.106,4.001C335.082,122.469,334.599,126.006,333.895,129.234z"/>
			<g>
				<g>
					<path style="fill:#FFFFFF;" d="M304.08,148.133c-6.49,4.998-17.03,7.15-24.92,4.63c-1.685-0.54-3.27-1.317-4.715-2.367       c-6.256-4.594-10.168-13.074-10.682-20.701c-0.025-0.175-0.036-0.352-0.048-0.529c-0.376-7.706,3.627-14.934,10.161-19.015       c7.649-4.772,19.36-6.924,27.09-1.179c3.049,2.271,5.552,5.527,7.328,9.255l0.015-0.002       C313.079,128.148,312.768,141.429,304.08,148.133z"/>
					<path style="fill:#AE312F;" d="M304.08,148.133c-7.413,5.422-17.716,7.512-26.497,4.453       c-8.884-3.78-13.845-13.557-14.888-22.82l0.009,0.083c-2.332-24.853,36.658-36.193,46.048-11.841l-0.525-0.284       c0.013-0.001,0.379-0.043,0.393-0.044C313.084,127.386,313.153,141.067,304.08,148.133z M304.08,148.133       c8.906-6.965,8.595-20.396,3.775-29.69l0.524,0.282c-0.011,0.002-0.353,0.058-0.366,0.06       c-2.326-4.651-5.955-9.069-10.884-10.936c-11.69-3.97-27.282,2.307-31.294,14.355c-2.24,6.71-0.61,14.117,2.643,20.266       C274.883,156.147,293.108,156.295,304.08,148.133z"/>
				</g>
				<path style="fill:#AE312F;" d="M288.017,147.399c6.208,0.036,12.663-3.21,15.582-8.765c4.651-8.851,0.335-21.065-8.95-24.9      c-4.985-2.059-11.343-1.769-16.003,0.956c-12.454,7.282-8.478,27.178,4.363,31.849      C284.59,147.114,286.289,147.389,288.017,147.399z"/>
				<path style="opacity:0.21;fill:#AE312F;" d="M308.295,118.226c-28.602-8.856-42.832,9.133-44.532,11.469      c-0.025-0.175-0.036-0.352-0.048-0.529c-0.376-7.706,3.627-14.934,10.161-19.015c7.649-4.772,19.36-6.924,27.09-1.179      C304.017,111.242,306.519,114.497,308.295,118.226z"/>
			</g>
			<g>
				<g>
					<path style="fill:#FFFFFF;" d="M208.059,170.405c-6.49,4.998-17.03,7.15-24.919,4.63c-1.685-0.54-3.27-1.317-4.715-2.367       c-6.256-4.594-10.168-13.074-10.682-20.701c-0.026-0.175-0.036-0.352-0.048-0.53c-0.376-7.706,3.627-14.934,10.161-19.015       c7.649-4.772,19.36-6.923,27.09-1.179c3.049,2.271,5.552,5.526,7.328,9.255l0.015-0.002       C217.057,150.419,216.747,163.701,208.059,170.405z"/>
					<path style="fill:#AE312F;" d="M208.059,170.405c-7.413,5.422-17.716,7.512-26.497,4.453       c-8.884-3.78-13.845-13.557-14.888-22.82l0.009,0.083c-2.332-24.853,36.658-36.192,46.048-11.841l-0.529-0.283       c0.013-0.002,0.382-0.046,0.396-0.048C217.063,149.655,217.133,163.338,208.059,170.405z M208.059,170.405       c8.907-6.965,8.595-20.396,3.775-29.69l0.528,0.281c-0.013,0.002-0.354,0.061-0.368,0.063       c-2.326-4.652-5.956-9.072-10.886-10.939c-11.69-3.969-27.283,2.307-31.294,14.355c-2.241,6.709-0.61,14.117,2.643,20.266       C178.862,178.418,197.087,178.566,208.059,170.405z"/>
				</g>
				<path style="fill:#AE312F;" d="M191.996,169.671c6.208,0.036,12.663-3.21,15.582-8.765c4.651-8.851,0.334-21.065-8.951-24.9      c-4.985-2.059-11.343-1.769-16.003,0.956c-12.454,7.282-8.478,27.179,4.364,31.849      C188.569,169.385,190.268,169.66,191.996,169.671z"/>
				<path style="opacity:0.21;fill:#AE312F;" d="M212.274,140.498c-28.602-8.856-42.831,9.133-44.532,11.469      c-0.026-0.175-0.036-0.352-0.048-0.53c-0.376-7.706,3.627-14.934,10.161-19.015c7.649-4.772,19.36-6.923,27.09-1.179      C207.996,133.513,210.498,136.769,212.274,140.498z"/>
			</g>
			<path style="fill:#AE312F;" d="M233.584,129.219c0,0-6.12-3.875-8.435-2.076c-2.315,1.799,4.128,6.475,9.685,6.297     c0,0,7.108-6.903,3.906-9.957C235.539,120.431,233.584,129.219,233.584,129.219z"/>
			<path style="fill:#AE312F;" d="M233.651,172.116c-0.234-13.614-0.057-28.43,0.279-42.037     c8.472,10.464,16.324,21.689,21.326,34.253c-5.626-11.586-13.153-22.187-21.234-32.164l1.101-0.387     C234.843,144.8,234.438,159.117,233.651,172.116z"/>
			<path style="opacity:0.48;fill:#AE312F;" d="M225.429,137.044c-2.882,1.932-5.166,5.249-5.808,9.426     c-0.93,6.054,0.701,12.7,5.614,16.24c3.049,2.197,6.513,2.779,9.786,2.733c6.273-0.087,12.461-0.678,17.646-4.532     c1.881-1.398,3.608-3.164,4.737-5.521c1.731-3.612,1.893-8.536,0.424-12.909c-1.469-4.373-4.534-8.092-8.035-9.75     c-4.307-2.038-9.521-1.38-13.5,0.032C232.749,134.02,228.598,134.919,225.429,137.044z"/>
			<path style="opacity:0.48;fill:#EB4949;" d="M290.995,156.87c-3.042,2.898-2.753,7.801,1.591,9.595     c5.817,2.402,15.669,0.204,19.66-4.679c3.369-4.123-0.131-10.077-4.631-10.517c-3.804-0.371-7.613,0.577-11.013,2.139     C295.022,154.134,292.7,155.246,290.995,156.87z"/>
			<path style="opacity:0.48;fill:#EB4949;" d="M183.496,179.079c-3.534,2.286-4.168,7.153-0.232,9.713     c5.271,3.428,15.372,3.083,20.211-0.978c4.085-3.428,1.757-9.917-2.586-11.176c-3.671-1.065-7.596-0.834-11.231,0.074     C187.968,177.134,185.476,177.798,183.496,179.079z"/>
			<path style="fill:#AE312F;" d="M151.746,144.567c-1.922,1.828-4.555,2.663-7.131,3.321c-3.936,0.988-7.977,1.668-12.027,1.861     c-2.951-6.428-4.764-13.228-5.532-20.077c0.149,0.075,0.29,0.135,0.442,0.198c6.221,2.579,13.086,2.964,19.631,4.28     c2.328,0.458,4.876,1.225,6.095,3.251C154.592,139.667,153.653,142.748,151.746,144.567z"/>
			<path style="fill:#AE312F;" d="M151.132,158.453c-1.213,3.357-3.997,6.009-7.193,7.665c-0.076,0.045-0.148,0.078-0.233,0.109     c-3.667-3.881-6.696-8.104-9.136-12.565c2.565-0.085,5.098-0.305,7.695-1.047c1.405-0.408,2.803-0.895,4.273-0.994     c1.458-0.101,3.044,0.276,4.032,1.35C151.882,154.406,151.774,156.63,151.132,158.453z"/>
			<path style="fill:#AE312F;" d="M137.196,127.665c-1.296,0.333-2.674,0.109-3.965-0.26c-2.35-0.68-4.527-1.804-6.592-3.118     c-0.218-5.832,0.291-11.626,1.464-17.18c0.298,0.469,0.553,0.954,0.802,1.412c2.416,4.506,5.386,8.702,8.85,12.469     c1.049,1.14,2.212,2.449,2.057,3.971C139.667,126.279,138.495,127.32,137.196,127.665z"/>
			<path style="opacity:0.48;fill:#AE312F;" d="M279.637,176.779c3.741-1.469,7.527-2.93,11.078-4.796     c-0.474,1.459-1.411,4.615,0.708,4.998c0.936-0.63,1.104-2.078,1.429-3.233c0.335-1.503,0.488-3.179,0.627-4.715     c1.273,1.682,2.955,4.278,5.001,4.708c0.174-1.576-0.8-3.346-1.374-4.84c5.934-2.276,11.931-5.645,15.515-11.043     c-0.015,1.71-0.246,3.965,0.81,5.301c-0.003-0.013-0.005,0.008,0.04-0.011c2.654-2.051,4.197-5.407,6.087-8.171     c-1.465,2.829-2.892,5.753-4.99,8.199c-0.301,0.29-0.76,0.79-1.339,0.668c-0.163-0.058-0.312-0.177-0.347-0.231     c-1.061-1.213-1.125-2.897-1.189-4.353l0.822,0.265c-3.412,4.991-8.905,8.008-14.361,10.314l0.353-0.848     c3.589,7.728-1.378,7.372-5.068,1.912l1.034-0.276c-0.345,2.327-0.485,4.583-1.875,6.642c-0.208,0.253-0.494,0.53-0.924,0.645     c-2.804,0.161-2.671-3.579-1.905-5.338l0.509,0.453C286.837,174.607,283.248,175.709,279.637,176.779z"/>
			<path style="fill:#AE312F;" d="M261.845,98.331c0,0-0.905-1.253,0.136-1.885c3.361-2.041,11.593-5.687,14.823-3.032     C282.429,98.04,275.303,106.095,261.845,98.331z"/>
			<path style="fill:#AE312F;" d="M188.035,116.009c0,0-0.068-1.544-1.276-1.394c-3.903,0.486-12.62,2.735-13.505,6.822     C171.714,128.556,182.3,130.45,188.035,116.009z"/>
			<path style="opacity:0.48;fill:#AE312F;" d="M155.769,176.093c0.225,2.623,0.026,7.817,2.796,8.978     c2.052,0.335,3.005-1.869,3.309-3.608l0.903-5.055c0.138,2.082-0.008,6.225,0.653,8.186c1.348,4.617,4.668,2.102,6.258-0.798     c6.404,6.447,15.733,9.402,24.697,9.523c-8.964,0.823-18.406-1.847-25.048-8.093l1.001-0.112     c-4.046,6.259-8.668,2.747-8.471-3.566l1.08,0.084c-0.379,2.147-2.006,4.801-4.526,4.215     C155.038,184.552,155.682,179.016,155.769,176.093z"/>
			<path style="fill:#AE312F;" d="M301.283,313.231c-1.237-3.244-1.422-6.9-0.612-10.351c0.404-1.73,1.182-3.378,2.202-4.826     c0.983-1.493,2.438-2.591,3.902-3.479c-0.54,0.697-1.223,1.208-1.673,1.94l-0.753,1.003l-0.638,1.072     c-0.783,1.455-1.447,2.974-1.803,4.595c-0.4,1.605-0.608,3.263-0.703,4.941C301.136,309.805,301.132,311.508,301.283,313.231z"/>
			<path style="fill:#AE312F;" d="M285.993,311.357c-0.06-0.777-0.411-1.524-0.634-2.292c-0.231-0.769-0.446-1.548-0.609-2.341     c-0.344-1.582-0.511-3.213-0.497-4.852c0.042-1.637,0.272-3.289,0.812-4.849c0.518-1.564,1.372-3.013,2.475-4.191     c-1.39,2.915-1.974,5.956-2.013,9.063c-0.037,1.551,0.067,3.11,0.203,4.68l0.238,2.368l0.095,1.203     C286.077,310.541,286.158,310.971,285.993,311.357z"/>
			<path style="fill:#FFC893;" d="M158.235,62.727c0,0,7.818,17.232,33.283,19.451c63.738,5.553,78.891-33.051,86.173-41.231     c7.283-8.18-33.237,0-33.237,0l-86.219,20.134"/>
			<path style="fill:#FFC893;" d="M326.474,393.718c-26.471,8.532-59.435,11.16-91.048,7.727c3.217-1.537,6.966-4.467,6.435-9.724     c-0.919-8.991-6.966-6.104-13.487-33.983c-6.507-27.893-11.031-53.833-11.031-53.833s3.303,5.444,7.325,4.409     c4.007-1.034-7.325-13.745-7.325-13.745s5.214,3.102,7.325,2.6c1.982-0.488-17.71-44.712-19.06-71.758     c8.704-6.506,19.591-11.16,33.121-13.3c35.003-5.544,60.825,3.028,80.114,22.203L295.8,259.546     c-12.611,11.979-26.477,32.093-23.231,42.549c3.232,10.456,13.43,9.264,13.43,9.264c6.679,5.731,15.282,1.867,15.282,1.867     c20.152,3.835,36.755-13.875,46.623-28.209C356.952,320.207,350.719,361.458,326.474,393.718z"/>
			<path style="opacity:0.48;fill:#AE312F;" d="M359.115,204.574c12.545,27.98,5.21,60.805-13.053,84.52     c-10.354,13.651-26.282,29.245-44.993,24.682l0.507-0.039c-5.086,2.774-11.202,0.833-15.876-1.911l0.324,0.087     c-17.832-0.358-15.601-18.082-8.914-29.428c6.223-11.093,15.587-19.868,24.436-28.821c-8.633,9.078-17.737,18.108-23.794,29.171     c-6.132,10.776-8.641,27.814,8.405,27.969c4.394,2.593,10.315,4.542,15.063,1.792c18.089,4.463,33.778-10.991,43.913-24.199     C363.269,265.005,370.909,232.503,359.115,204.574z"/>
			<path style="opacity:0.48;fill:#AE312F;" d="M217.374,294.607c1.924,1.146,4.201,2.76,6.47,2.61l0.344-0.118     c0.076-0.067,0.217-0.144,0.245-0.184c0.091-1.911-0.954-3.919-1.533-5.755c0,0-5.207-13.563-5.207-13.563     c-3.375-9.094-6.535-18.335-8.231-27.909c2.692,9.314,5.926,18.421,9.423,27.462c2.027,5.709,4.413,11.325,5.954,17.215     c0.152,1.004,0.637,1.927,0.112,2.977c-0.172,0.183-0.322,0.232-0.487,0.345c-0.17,0.066-0.349,0.102-0.523,0.145     C221.308,297.785,219.337,296.074,217.374,294.607z"/>
			<path style="fill:#FFC893;" d="M255.378,210.872c0,0,3.427-8.084,6.663-7.564c3.237,0.52-1.349,6.452-1.349,6.452     s6.044-4.218,9.027-3.647c2.983,0.571,0,4.76,0,4.76l-3.49,12.262l-10.852-8.073V210.872z"/>
			<path style="opacity:0.48;fill:#AE312F;" d="M399.609,373.167c3.618-0.545,7.378-0.891,10.788-2.175     c-0.486,1.145-1.149,2.663-1.003,3.849c0.425,1.911,2.907,0.685,3.656-0.541c0.859-1.095,1.411-2.582,1.867-3.894     c1.438,4,3.639,6.39,7.093,2.389l-0.666,0.999c-2.333,3.239-5.57,1.358-6.9-1.676l1.03-0.044c-0.745,2.11-1.835,4.416-4.307,4.96     c-3.506,0.467-3.443-3.157-2.253-5.362l0.679,0.764C406.329,373.275,402.949,373.288,399.609,373.167z"/>
			<path style="opacity:0.48;fill:#AE312F;" d="M310.521,243.623c5.803-5.442,9.557-12.688,11.219-20.489     C321.935,231.131,317.516,239.606,310.521,243.623z"/>
			<path style="opacity:0.48;fill:#AE312F;" d="M258.826,234.386c2.172-2.841,4.471-6.376,8.132-7.337     c1.521-0.23,2.46,0.941,1.897,2.35c-1.43,3.476-4.232,6.131-6.76,8.824l-0.588-0.861c3.101-1.292,11.411-4.962,12.894-0.137     c-0.202,5.969-8.439,14.135-12.263,18.699l-0.655-0.873c2.18-0.945,5.642-2.23,7.319,0.203c1.349,3.727-9.49,14.864-12.167,18     c3.026-3.745,5.991-7.547,8.665-11.522c0.976-1.738,2.929-3.976,2.689-5.979c-2.005-2.276-6.328,0.577-8.547,1.504     c8.006-9,26.344-29.503-0.214-17.784c3.191-3.135,7-6.204,8.947-10.302c0.436-1.018-0.122-1.609-1.156-1.52     C263.497,228.459,261.13,231.798,258.826,234.386z"/>
			<path style="fill:#AE312F;" d="M448.56,438.443c0.181-1.24,0.255-2.442,0.234-3.634c-0.034-1.188-0.131-2.365-0.4-3.509     c-0.248-1.143-0.577-2.279-1.053-3.371c-0.437-1.115-1.031-2.16-1.593-3.293c0.968,0.791,1.84,1.738,2.48,2.842     c0.695,1.076,1.121,2.31,1.413,3.56c0.268,1.259,0.317,2.564,0.142,3.83C449.614,436.13,449.241,437.377,448.56,438.443z"/>
			<path style="opacity:0.48;fill:#AE312F;" d="M151.21,218.011c-0.832,8.533,2.239,12.03,5.04,1.762     c0.366,2.328,0.504,5.685,2.833,6.85c0.137,0.034,0.333,0.123,0.417,0.124c2.762-1.231,3.859-11.728,4.508-14.799l0.429,4.183     c1.103,9.169,4.184,8.536,6.081,0.054c-0.945,9.977-5.934,9.633-7.21,0.055l1.125,0.026c-0.51,2.616-1.673,13.223-5.837,11.489     c-2.117-0.992-2.839-3.506-3.092-5.538l1.064,0.112c-0.589,2.134-3.41,6.911-5.405,3.249     C150.269,223.081,150.776,220.507,151.21,218.011z"/>
			<path style="opacity:0.48;fill:#AE312F;" d="M339.604,224.713c-0.139,2.558-0.543,5.345,0.254,7.8     c0.119,0.256,0.283,0.446,0.419,0.45c0.056,0.028,0.196-0.029,0.293-0.027c1.993-1.258,2.302-4.466,2.901-6.61     c1.008,1.667,3.099,5.237,5.272,4.482c1.157-1.72,1.023-4.36,1.185-6.459c0.081-2.531-0.06-5.709-0.119-8.264l1.049,3.369     c1.843,5.507,4.728,5.514,4.929-0.588c0.638,7.087-3.703,6.711-5.86,0.886l0.952-0.184c0.099,2.642,1.3,13.014-2.846,12.628     c-2.269-0.313-3.8-2.314-4.822-4.084l1.074-0.148c-0.639,1.972-1.528,5.972-4.212,5.791c-0.539-0.15-0.773-0.608-0.912-0.944     C338.417,230.047,339.115,227.399,339.604,224.713z"/>
			<ellipse style="fill:#FFC893;" cx="113.393" cy="482.668" rx="77.899" ry="29.009"/>
			<ellipse style="fill:#FFC893;" cx="361.388" cy="472.348" rx="19.823" ry="7.382"/>
			<path style="fill:#AE312F;" d="M183.233,305.913c-0.194,1.787-1.579,3.215-3.021,4.282c-4.115,3.007-9.228,4.267-14.257,5.057     c-4.641,0.72-9.325,1.108-14.022,1.15c-1.496-7.551-2.757-15.269-3.838-22.695c4.711,1.746,9.685,2.785,14.7,3.062     c3.367,0.18,6.775,0.028,10.115,0.568c3.339,0.554,6.706,1.898,8.84,4.517C182.693,302.99,183.386,304.445,183.233,305.913z"/>
			<path style="fill:#AE312F;" d="M217.069,274.101c-5.542,3.325-11.874,5.348-18.261,4.85c-1.926-0.152-4.115-0.748-4.863-2.522     c-0.541-1.302-0.083-2.813,0.624-4.046c2.535-4.378,7.717-6.318,11.722-9.408c1.953-1.51,3.478-3.783,5.029-5.999     C212.953,262.629,215.032,268.573,217.069,274.101z"/>
			<path style="fill:#AE312F;" d="M223.775,338.806c-3.797,1.386-7.898,2.078-11.943,2.425c-5.736,0.485-11.639,0.333-17.084-1.552     c-1.912-0.651-3.796-1.552-5.182-3.02c-1.372-1.469-2.189-3.589-1.677-5.542c0.471-1.787,1.967-3.159,3.63-3.977     c1.677-0.803,3.519-1.164,5.32-1.579c7.358-1.746,14.368-4.974,20.492-9.408c0.61-0.443,1.164-0.901,1.704-1.344     C220.214,321.653,221.849,330.105,223.775,338.806z"/>
			<path style="opacity:0.48;fill:#AE312F;" d="M143.08,247.623c2.788,31.669,6.694,63.479,15.654,94.055     c2.206,7.641,4.927,15.118,7.57,22.632c5.347,14.733,11.04,30.211,22.426,41.392c5.743,5.479,16.162,4.355,20.525-2.248     c6.557,2.292,15.5,5.286,21.436,0.262c5.692-2.237,12.949-7.725,9.982-14.613c-0.827-2.108-2.467-3.75-3.548-5.744     c-2.288-4.028-3.823-8.357-5.312-12.673c-1.453-4.333-2.72-8.721-3.899-13.129c-4.6-17.531-8.243-36.291-10.837-54.243     c1.93,2.102,4.223,5.042,7.335,4.915c3.056-0.861-5.9-11.983-7.065-13.649c1.189,1.689,10.714,13.007,7.107,13.882     c-3.01,0.231-5.34-2.464-7.246-4.443l0.318-0.138c2.877,17.667,6.553,36.191,11.172,53.464c1.198,4.39,2.483,8.757,3.949,13.058     c1.498,4.277,3.057,8.583,5.298,12.479c1.109,2,2.779,3.674,3.637,5.849c3.245,7.352-4.215,13.523-10.394,15.951l0.192-0.125     c-6.187,5.292-15.251,2.494-22.142,0.172l0.725-0.227c-4.881,6.979-15.998,7.991-22.062,2.118     c-11.546-11.45-17.2-27.025-22.542-41.976c-2.605-7.523-5.297-15.038-7.474-22.717     C148.996,311.257,145.335,279.38,143.08,247.623z"/>
			<path style="fill:#AE312F;" d="M361.388,258.361c-1.856,5.986-4.337,11.708-7.26,17.098c-2.051-1.178-4.032-2.536-5.986-3.797     c-7.648-4.919-15.934-8.701-24.109-12.678c-0.984-0.485-2.051-1.039-2.535-2.023c-0.707-1.469,0.235-3.326,1.649-4.157     c1.413-0.831,3.132-0.887,4.78-0.887c9.339,0.041,18.663,1.566,27.545,4.489C357.314,257.017,359.365,257.641,361.388,258.361z"/>
			<path style="fill:#AE312F;" d="M348.696,181.103c-6.734,4.891-14.437,9.186-22.654,8.438c-2.272-0.194-4.78-1.011-5.736-3.076     c-0.79-1.691-0.277-3.741,0.776-5.265c1.067-1.538,2.591-2.66,4.032-3.838c4.046-3.312,7.634-7.274,10.17-11.86     c0.111-0.194,0.222-0.402,0.333-0.61C340.355,169.7,344.706,175.145,348.696,181.103z"/>
			<path style="fill:#FFC893;" d="M255.378,317.921c0,0-14.945,76.378-16.124,104.658c0,0,57.503,35.351,119.71-3.142     l-19.823-99.768L255.378,317.921z"/>
			<path style="opacity:0.2;fill:#AE312F;" d="M255.438,318.689c0,0-15.005,75.609-16.183,103.89c0,0,57.503,35.351,119.71-3.142     l-19.823-99.768L255.438,318.689z"/>
			<path style="fill:#FFC893;" d="M339.141,319.141c0,4.653-18.751,8.425-41.881,8.425c-23.13,0-41.881-3.772-41.881-8.425     c0-4.653,18.751-8.425,41.881-8.425C320.39,310.716,339.141,314.488,339.141,319.141z"/>
			<path style="opacity:0.4;fill:#AE312F;" d="M339.141,319.141c0,4.653-18.751,8.425-41.881,8.425     c-23.13,0-41.881-3.772-41.881-8.425c0-4.653,18.751-8.425,41.881-8.425C320.39,310.716,339.141,314.488,339.141,319.141z"/>
			<path style="fill:#FFC893;" d="M349.262,393.902c5.189-4.071,12.082-5.491,19.042-2.014c9.994,4.991,8.567,17.95,8.567,17.95     s5.711-5.248,13.135-1.251c7.424,3.998,7.424,11.708,7.424,11.708s11.91,0,13.379,7.139c1.47,7.138-69.495,16.535-89.552,7.411     c0,0-2.353-12.265,4.214-16.548c6.565-4.282,13.664,2.564,13.669,2.57C338.783,404.142,345.07,397.19,349.262,393.902z"/>
			<path style="opacity:0.2;fill:#AE312F;" d="M349.262,393.902c5.189-4.071,12.082-5.491,19.042-2.014     c9.994,4.991,8.567,17.95,8.567,17.95s5.711-5.248,13.135-1.251c7.424,3.998,7.424,11.708,7.424,11.708s11.91,0,13.379,7.139     c1.47,7.138-69.495,16.535-89.552,7.411c0,0-2.353-12.265,4.214-16.548c6.565-4.282,13.664,2.564,13.669,2.57     C338.783,404.142,345.07,397.19,349.262,393.902z"/>
			<path style="opacity:0.48;fill:#AE312F;" d="M318.844,421.121c0.955-5.508,3.422-11.298,8.439-14.319     c5.257-3.195,12.762-1.617,14.883,4.607l-1.174,0.25c-0.563-8.473,3.632-18.001,12.403-20.253     c-9.754,3.683-12.222,14.443-10.943,23.825l-1.431-3.43c-2.034-5.418-8.424-6.839-13.216-4.058     C322.928,410.37,320.327,415.949,318.844,421.121z"/>
			<path style="opacity:0.4;fill:#AE312F;" d="M320.847,355.482c0,0,8.777,0.684,13.46-0.937c0,0-2.134-18.257-6.73-18.258     C320.847,336.287,320.847,355.482,320.847,355.482z"/>
			<path style="opacity:0.4;fill:#AE312F;" d="M272.56,378.823c0,0,8.81,3.12,13.652,0.663c0,0-0.374-18.41-4.965-18.619     C274.524,360.561,272.56,378.823,272.56,378.823z"/>
			<path style="fill:#FFC893;" d="M256.636,430.376c0,0,5.828-64.841-9.321-68.131c-15.149-3.29-26.566,15.08-30.246,29.162     c0,0-18.986-8.313-29.334,4.711c-10.347,13.023-10.347,25.004-10.347,25.004s-24.469-4.437-29.291,4.748     C143.274,435.053,215.832,448.66,256.636,430.376z"/>
			<path style="opacity:0.2;fill:#AE312F;" d="M256.636,430.376c0,0,5.828-64.841-9.321-68.131     c-15.149-3.29-26.566,15.08-30.246,29.162c0,0-18.986-8.313-29.334,4.711c-10.347,13.023-10.347,25.004-10.347,25.004     s-24.469-4.437-29.291,4.748C143.274,435.053,215.832,448.66,256.636,430.376z"/>
			<path style="opacity:0.48;fill:#AE312F;" d="M263.862,400.638c-1.623-10.149-4.981-38.343-18.53-37.94     c-9.357-0.503-17.501,5.864-21.905,13.749c4.107-9.275,13.876-16.344,24.306-14.74     C260.477,364.279,263.198,389.88,263.862,400.638z"/>
			<path style="opacity:0.48;fill:#AE312F;" d="M225.146,403.972c-2.761-9.199-11.422-14.945-20.892-14.521     c-17.196-0.855-24.684,17.312-26.866,31.67c0.996-15.08,9.042-33.938,26.864-32.827     C213.897,387.869,223.169,394.376,225.146,403.972z"/>
			<path style="fill:#AE312F;" d="M419.941,305.872c-1.829,1.233-3.685,2.411-5.556,3.575c-5.473,3.422-11.237,6.914-17.68,7.399     c-1.871,0.152-3.824,0.014-5.487-0.845c-1.663-0.859-2.993-2.563-2.979-4.448c0.014-1.399,0.735-2.688,1.524-3.838     c2.702-3.977,6.332-7.191,9.935-10.35c3.893-3.422,7.787-6.858,11.68-10.281c0.402-0.346,0.762-0.721,1.094-1.108     c1.87,3.921,3.616,8.202,5.223,12.899C418.514,301.272,419.262,303.599,419.941,305.872z"/>
			<path style="fill:#AE312F;" d="M426.121,337.352c-0.111,0.027-0.222,0.041-0.333,0.069c-6.235,1.178-12.65,1.261-18.926,0.388     c-2.286-0.305-4.947-1.095-5.639-3.298c-0.485-1.579,0.346-3.339,1.607-4.42c1.261-1.081,2.868-1.635,4.448-2.148     c5.667-1.898,11.611-3.893,16.363-7.621C424.929,326.558,425.719,332.225,426.121,337.352z"/>
			<path style="fill:#AE312F;" d="M138.827,235.999c-0.734,0.859-1.967,1.108-3.104,1.081c-3.242-0.055-6.166-1.815-8.868-3.616     c-1.954-1.303-4.226-2.646-6.332-4.143c-0.056-0.041-0.111-0.083-0.166-0.111c2.12-4.808,4.392-9.408,6.72-13.745     c0.041,0.041,0.083,0.083,0.111,0.125c4.226,4.559,7.939,9.574,11.043,14.95C139.214,232.23,140.101,234.502,138.827,235.999z"/>
			<path style="fill:#AE312F;" d="M136.596,270.43c-1.302,1.372-3.547,1.025-5.362,0.526c-7.371-2.037-14.507-4.891-21.227-8.507     c-0.083-0.028-0.166-0.069-0.249-0.138c1.399-7.343,3.436-14.479,5.888-21.31c0.055,0.069,0.111,0.125,0.166,0.194     c6.374,7.413,12.761,14.826,19.135,22.252C136.679,265.442,138.411,268.517,136.596,270.43z"/>
			<path style="opacity:0.48;fill:#AE312F;" d="M107.962,287.354c11.412-1.964,23.453,4.415,28.56,14.741     C129.956,292.953,119.261,287.254,107.962,287.354z"/>
			<path style="opacity:0.48;fill:#AE312F;" d="M326.038,428.144c-3.142-4.157-7.837-7.339-13.16-7.143     c-0.469,0.045-1.659,0.159-2.112,0.199c-1.645,0.304-3.292,0.815-4.89,1.331c0.831-0.513,1.69-1.014,2.581-1.456     c0.938-0.314,1.846-0.796,2.854-0.921C317.339,418.616,323.767,422.552,326.038,428.144z"/>
			<path style="fill:#FFC893;" d="M263.862,325.533c0,0,1.396-9.659,3.957-10.124c2.56-0.466,8.877-0.978,10.083,1.082     c1.206,2.06,1.322,11.076,3.067,12.329c1.746,1.252,13.932,2.3,15.462,1.369c1.529-0.931,0.831-12.382,2.809-13.697     c1.979-1.315,10.823-1.897,12.336-0.617c1.513,1.28,2.793,10.739,5.004,12.352c2.211,1.613,9.133-0.801,9.659-1.995     c0.526-1.194-0.466-11.906,2.443-12.376c2.909-0.471,8.554-1.441,9.631,0.755c1.076,2.195,1.569,13.046,1.569,13.046     l-65.778,10.912L263.862,325.533z"/>
			<path style="opacity:0.2;fill:#AE312F;" d="M263.862,325.533c0,0,1.396-9.659,3.957-10.124c2.56-0.466,8.877-0.978,10.083,1.082     c1.206,2.06,1.322,11.076,3.067,12.329c1.746,1.252,13.932,2.3,15.462,1.369c1.529-0.931,0.831-12.382,2.809-13.697     c1.979-1.315,10.823-1.897,12.336-0.617c1.513,1.28,2.793,10.739,5.004,12.352c2.211,1.613,9.133-0.801,9.659-1.995     c0.526-1.194-0.466-11.906,2.443-12.376c2.909-0.471,8.554-1.441,9.631,0.755c1.076,2.195,1.569,13.046,1.569,13.046     l-65.778,10.912L263.862,325.533z"/>
			<g style="opacity:0.2;">
				<path style="fill:#AE312F;" d="M70.115,438.81c0,0.779-1.536,1.41-3.43,1.41c-1.894,0-3.43-0.631-3.43-1.41      c0-0.779,1.535-1.41,3.43-1.41C68.579,437.4,70.115,438.031,70.115,438.81z"/>
				<path style="fill:#AE312F;" d="M78.234,433.386c0,0.377-0.742,0.682-1.658,0.682c-0.916,0-1.658-0.305-1.658-0.682      c0-0.377,0.742-0.682,1.658-0.682C77.491,432.704,78.234,433.01,78.234,433.386z"/>
				<ellipse style="fill:#AE312F;" cx="414.239" cy="441.766" rx="3.43" ry="1.41"/>
				<path style="fill:#AE312F;" d="M425.788,436.342c0,0.376-0.742,0.682-1.658,0.682c-0.916,0-1.659-0.305-1.659-0.682      c0-0.377,0.743-0.682,1.659-0.682C425.046,435.66,425.788,435.965,425.788,436.342z"/>
				<path style="fill:#AE312F;" d="M137.273,407.867c0,0.568-1.121,1.03-2.504,1.03c-1.383,0-2.504-0.461-2.504-1.03      c0-0.569,1.121-1.03,2.504-1.03C136.152,406.837,137.273,407.298,137.273,407.867z"/>
				<path style="fill:#AE312F;" d="M149.716,410.216c0,0.739-1.457,1.338-3.254,1.338c-1.797,0-3.254-0.599-3.254-1.338      c0-0.739,1.457-1.338,3.254-1.338C148.259,408.878,149.716,409.477,149.716,410.216z"/>
				<path style="fill:#AE312F;" d="M302.16,452.331c0,0.569-1.121,1.03-2.504,1.03c-1.383,0-2.504-0.461-2.504-1.03      c0-0.569,1.121-1.03,2.504-1.03C301.039,451.301,302.16,451.762,302.16,452.331z"/>
				<path style="fill:#AE312F;" d="M314.602,454.681c0,0.739-1.457,1.338-3.254,1.338c-1.797,0-3.254-0.599-3.254-1.338      c0-0.739,1.457-1.338,3.254-1.338C313.146,453.342,314.602,453.941,314.602,454.681z"/>
				<path style="fill:#AE312F;" d="M87.024,464.613c0,0.739-1.457,1.338-3.254,1.338c-1.797,0-3.254-0.599-3.254-1.338      c0-0.739,1.457-1.338,3.254-1.338C85.567,463.275,87.024,463.874,87.024,464.613z"/>
				<path style="fill:#AE312F;" d="M98.509,470.125c0,1.228-2.421,2.224-5.408,2.224c-2.986,0-5.408-0.995-5.408-2.224      c0-1.228,2.421-2.224,5.408-2.224C96.088,467.901,98.509,468.897,98.509,470.125z"/>
				<path style="fill:#AE312F;" d="M191.292,451.436c0,1.228-2.421,2.224-5.408,2.224c-2.986,0-5.408-0.996-5.408-2.224      c0-1.228,2.421-2.224,5.408-2.224C188.871,449.212,191.292,450.208,191.292,451.436z"/>
				<path style="fill:#AE312F;" d="M213.844,463.124c0,2.124-4.186,3.845-9.351,3.845c-5.164,0-9.351-1.722-9.351-3.845      s4.187-3.845,9.351-3.845C209.657,459.279,213.844,461.001,213.844,463.124z"/>
			</g>
		</g>
	</g>
	<path style="fill:#AE312F;" d="M171.875,197.563c3.831-2.262,7.821-4.171,11.848-5.994c4.044-1.788,8.127-3.487,12.368-4.831   c-3.83,2.264-7.819,4.173-11.848,5.993C180.199,194.517,176.116,196.216,171.875,197.563z"/>
	<path style="fill:#AE312F;" d="M167.67,187.367c4.112-1.251,8.293-2.122,12.491-2.9c4.204-0.74,8.426-1.385,12.716-1.646   c-4.112,1.254-8.292,2.124-12.491,2.899C176.182,186.458,171.961,187.103,167.67,187.367z"/>
	<path style="fill:#AE312F;" d="M168.335,173.69c4.243,0.685,8.381,1.741,12.493,2.888c4.101,1.184,8.176,2.462,12.145,4.114   c-4.244-0.682-8.382-1.739-12.493-2.888C176.379,176.617,172.305,175.339,168.335,173.69z"/>
	<path style="fill:#AE312F;" d="M302.616,161.4c4.43-0.41,8.852-0.434,13.273-0.364c4.419,0.109,8.837,0.315,13.247,0.91   c-4.43,0.413-8.853,0.437-13.273,0.364C311.443,162.198,307.025,161.992,302.616,161.4z"/>
	<path style="fill:#AE312F;" d="M329.04,150.917c-4.055,1.426-8.194,2.476-12.354,3.433c-4.169,0.92-8.359,1.745-12.634,2.19   c4.054-1.429,8.194-2.478,12.354-3.433C320.575,152.191,324.766,151.366,329.04,150.917z"/>
	<path style="fill:#AE312F;" d="M323.105,138.578c-3.015,3.064-6.271,5.827-9.586,8.516c-3.339,2.659-6.74,5.243-10.384,7.523   c3.013-3.066,6.269-5.829,9.586-8.516C316.062,143.444,319.463,140.86,323.105,138.578z"/>
</g>















</svg>
