<?xml version="1.0" encoding="UTF-8"?>
<!-- Generator: Adobe Illustrator 25.2.3, SVG Export Plug-In . SVG Version: 6.00 Build 0)  -->
<svg xmlns="http://www.w3.org/2000/svg" xmlns:xlink="http://www.w3.org/1999/xlink" version="1.1" id="Capa_1" x="0px" y="0px" viewBox="0 0 512 512" style="enable-background:new 0 0 512 512;" xml:space="preserve" width="512" height="512">
<g>
	<g>
		<path style="fill:#6CE1C1;" d="M502.061,201.778c6.166-1.806,9.811-15.239,9.721-24.063c-0.046-4.837,3.679-12.321-17.931-13.752    c0,0-23.324-3.543-29.615,6.7c-6.291,10.231-3.702,35.736-13.831,37.382c-10.118,1.635-8.085-13.297-0.159-26.175    c7.938-12.877,8.755-20.77-2.192-21.746c-10.935-0.977-21.383-3.974-24.914,0.806c-3.532,4.781-2.725,34.112-5.962,42.209    c-2.01,5.042-7.143,4.974-9.062-2.679c-1.908-7.665,9.016-35.612,3.009-39.007c-6.007-3.395-19.986-2.748-28.048,1.579    c-8.051,4.326-23.324,34.68-27.719,62.308c-4.406,27.628,44.56,66.396,59.333,71.359c14.762,4.962,44.491-0.579,52.065-3.827    c7.563-3.248,19.6-24.857,14.944-29.502c-4.645-4.656-33.647-3.838-35.009-11.492c-1.374-7.665,14.66-13.286,29.434-9.039    c14.774,4.236,17.578,1.204,20.872-2.952c3.304-4.145,13.15-24.664,7.131-28.764c-6.007-4.111-25.709,9.164-29.536,4.576    C467.483,207.183,495.884,203.584,502.061,201.778z M502.731,174.74c1.215,0,2.191,0.988,2.191,2.192    c0,1.215-0.976,2.192-2.191,2.192c-1.204,0-2.18-0.977-2.18-2.192C500.551,175.728,501.528,174.74,502.731,174.74z     M497.769,182.916c2.124,0,3.838,1.726,3.838,3.838c0,2.123-1.715,3.838-3.838,3.838c-2.112,0-3.827-1.715-3.827-3.838    C493.942,184.642,495.657,182.916,497.769,182.916z"/>
		<circle style="fill:#6CE1C1;" cx="472.593" cy="149.723" r="7.673"/>
		<path style="fill:#6CE1C1;" d="M461.113,134.659c0,1.809-1.466,3.275-3.275,3.275s-3.275-1.466-3.275-3.275    c0-1.809,1.466-3.275,3.275-3.275S461.113,132.851,461.113,134.659z"/>
	</g>
	<path style="fill:#FFC893;" d="M469.767,354.116c0,6.62-1.76,13.082-5.099,19.305c-0.204,0.409-0.431,0.818-0.67,1.226   l-56.611,25.125l-84.271-7.144l-46.748,50.538c-0.568,0.034-1.136,0.068-1.715,0.091c-7.801,0.341-15.739,0.522-23.778,0.522   c-120.892,0-218.891-40.142-218.891-89.664c0-49.522,97.999-89.676,218.891-89.676c85.894,0,160.228,20.27,196.078,49.76   c-21.485,0.67-38.45,8.687-38.45,18.487c0,10.231,18.51,18.533,41.357,18.533c7.075,0,13.729-0.795,19.554-2.203   C469.653,350.698,469.767,352.401,469.767,354.116z"/>
	<ellipse style="fill:#FFC893;" cx="69.669" cy="432.728" rx="69.669" ry="31.224"/>
	<path style="fill:#6CE1C1;" d="M238.585,151.854c-10.674-9.641-21.678,41.618-31.739,46.763   c-10.061,5.155-2.43-18.249,4.167-27.617c6.598-9.357,11.628-27.412,1.862-32.08c-9.777-4.656-27.322-9.618-28.73,0   c-1.408,9.618-4.917,36.258-12.866,36.043c-7.96-0.216,12.696-41.187,3.066-44.344c-9.63-3.146-51.339-6.098-56.108-2.987   c-0.579,0.375-1.147,1.204-1.692,2.385c2.464,2.101,4.031,5.235,4.031,8.732c0,0.602-0.046,1.204-0.137,1.783   c0.545-0.227,1.136-0.352,1.749-0.352c2.476,0,4.474,2.01,4.474,4.486c0,2.475-1.998,4.485-4.474,4.485   c-1.987,0-3.668-1.295-4.259-3.089c-1.544,1.874-3.679,3.248-6.109,3.827c-1.351,9.278-1.987,18.612-1.351,21.826   c1.363,6.779,17.192,1.624,33.658,6.723c8.994,2.794,13.184,8.085,10.39,10.391c-2.793,2.316-31.943-8.403-38.904-7.472   c-6.95,0.931-3.293,17.976-2.646,22.484c0.647,4.497-1.987,15.614,19.736,19.589c21.723,3.974,35.532,2.078,37.871,6.541   c2.339,4.463-54.212-7.54-51.452,2.09c2.771,9.63,3.906,14.433,28.843,17.068c24.948,2.623,77.252,8.585,77.252,8.585l25.653-60.73   C250.769,195.596,249.248,161.484,238.585,151.854z M130.615,209.126c-3.27,0-5.916-2.646-5.916-5.905   c0-3.27,2.646-5.916,5.916-5.916c3.27,0,5.916,2.646,5.916,5.916C136.532,206.48,133.886,209.126,130.615,209.126z M122.19,191.088   c-1.386,0-2.51-1.124-2.51-2.51c0-1.386,1.124-2.51,2.51-2.51c1.385,0,2.509,1.124,2.509,2.51   C124.699,189.964,123.575,191.088,122.19,191.088z"/>
	<g>
		<g>
			<path style="fill:#FF9D3D;" d="M367.607,203.521c0,0,16.372-20.769,3.252-42.285c-13.12-21.516-57.83-36.433-55.206-76.317     c2.624-39.884,45.657-41.983,51.429-31.487c5.773,10.496-14.694,10.496-25.19,25.19c-10.496,14.694-3.149,40.409,29.913,57.202     c33.062,16.793,24.921,58.776,4.064,75.57L367.607,203.521z"/>
			<g>
				<path style="fill:#AE312F;" d="M354.833,67.633c-1.329-3.078-0.023-6.564-0.023-6.564c-12.991,3.055-21.405-0.511-26.243-4.122      c13.967-11.935,34.635-10.561,38.518-3.52C370.867,60.309,363.384,62.682,354.833,67.633z"/>
				<path style="fill:#AE312F;" d="M322.878,113.283c-4.633-7.426-7.551-15.943-7.324-26.129      c4.258,1.476,11.833,4.849,14.944,10.924C333.484,103.926,327.261,109.967,322.878,113.283z"/>
				<path style="fill:#AE312F;" d="M364.882,131.952c-2.396,1.646-7.506,4.315-12.162,1.056c-4.122-2.896-3.872-9.266-3.191-13.366      C353.549,123.957,358.648,128.125,364.882,131.952z"/>
				<path style="fill:#AE312F;" d="M373.955,191.08c1.385-4.224,2.328-9.278,1.885-14.751c3.429-0.272,8.596,0.114,10.107,4.508      C387.696,185.925,378.611,189.57,373.955,191.08z"/>
			</g>
		</g>
		<g>
			<g>
				<path style="fill:#FF9D3D;" d="M152.85,350.116c-1.885,3.997-5.394,8.278-9.857,12.571      c-17.42,16.749-49.34,33.715-55.472,35.112c-7.699,1.76-11.867-2.419-11.867-2.419s-3.952,1.317-9.005,0      c-5.065-1.317-5.939-5.712-5.939-5.712s-5.496-1.101-7.699-5.064c-2.203-3.952-0.454-13.195,18.033-20.883      c3.713-1.556,8.153-4.179,12.73-7.256c4.667-3.123,9.459-6.7,13.729-10.027c-0.08-0.147-0.148-0.307-0.182-0.488      c-0.125-0.659,0.295-1.351,0.954-1.987c1.215-1.192,3.248-2.237,4.054-2.623c-0.897,0.363-3.259,1.17-4.156-0.17      c-1.124-1.669,6.007-4.883,6.007-4.883h5.735c0.977-0.84,1.533-1.328,1.533-1.328s40.88-3.588,42.47,9.914      C154.099,346.391,153.781,348.129,152.85,350.116z"/>
				<g>
					<path style="fill:#AE312F;" d="M75.659,395.379c-0.028-1.248,0.241-2.493,0.667-3.675c0.425-1.186,1.062-2.301,1.844-3.306       c0.387-0.507,0.849-0.95,1.301-1.398c0.51-0.384,0.974-0.827,1.545-1.118c1.068-0.69,2.303-1.07,3.519-1.273       c-1.067,0.653-2.111,1.225-3.013,2c-0.918,0.737-1.755,1.561-2.463,2.494C77.592,390.934,76.53,393.068,75.659,395.379z"/>
					<path style="fill:#AE312F;" d="M60.707,389.663c-0.262-1.065-0.271-2.175-0.143-3.267c0.127-1.095,0.442-2.175,0.915-3.195       c0.498-1.009,1.205-1.931,2.081-2.646c0.864-0.738,1.953-1.149,3.015-1.333c-0.9,0.631-1.746,1.206-2.41,1.98       c-0.66,0.762-1.234,1.582-1.666,2.496C61.621,385.523,61.128,387.536,60.707,389.663z"/>
					<path style="opacity:0.2;fill:#AE312F;" d="M152.85,350.116c-1.885,3.997-5.394,8.278-9.857,12.571       c-17.42,16.749-49.34,33.715-55.472,35.112c-7.699,1.76-11.867-2.419-11.867-2.419s-3.952,1.317-9.005,0       c-5.065-1.317-5.939-5.712-5.939-5.712s-5.496-1.101-7.699-5.064c-2.203-3.952-0.454-13.195,18.033-20.883       c3.713-1.556,8.153-4.179,12.73-7.256c4.667-3.123,9.459-6.7,13.729-10.027c-0.08-0.147-0.148-0.307-0.182-0.488       c-0.125-0.659,0.295-1.351,0.954-1.987c1.215-1.192,3.248-2.237,4.054-2.623c-0.897,0.363-3.259,1.17-4.156-0.17       c-1.124-1.669,6.007-4.883,6.007-4.883h5.735c0.977-0.84,1.533-1.328,1.533-1.328s40.88-3.588,42.47,9.914       C154.099,346.391,153.781,348.129,152.85,350.116z"/>
				</g>
			</g>
			<path style="opacity:0.48;fill:#AE312F;" d="M75.659,364.923c1.92-0.101,3.905,0.175,5.61,1.156l-0.545,0.345     c-0.268-1.278,0.563-2.882,2.075-2.601c1.856,0.797,2.331,2.943,2.957,4.651l-1.097,0.158c-0.134-1.51,1.031-4.071,2.922-3.135     c1.356,1.259,1.226,3.07,1.347,4.697l-0.32-0.421c2.605,1.062,4.624,3.303,5.414,5.983c-1.235-2.42-3.351-4.459-5.971-5.2     c-0.138-1.276-0.23-3.049-0.97-4.05c-0.967-0.436-1.298,1.341-1.305,2.105c0,0-0.076,3.775-0.076,3.775     c-0.83-2.28-1.146-6.075-3.139-7.633c-1.175-0.21-1.214,1.445-1.088,2.331C79.817,365.808,77.741,365.168,75.659,364.923z"/>
			<path style="fill:#AE312F;" d="M113.332,363.879c-0.92,0.613-2.021,0.852-3.123,0.943c-6.007,0.522-11.503-2.964-16.999-5.451     c-3.1-1.397-6.257-2.124-9.436-2.907c4.667-3.123,9.459-6.7,13.729-10.027c-0.08-0.147-0.148-0.307-0.182-0.488     c-0.125-0.659,0.295-1.351,0.954-1.987c5.076,1.318,9.652,4.281,13.343,8.029c1.624,1.635,3.123,3.498,3.691,5.723     C115.865,359.95,115.251,362.607,113.332,363.879z"/>
			<path style="fill:#AE312F;" d="M152.85,350.116c-1.885,3.997-5.394,8.278-9.857,12.571c-5.099-2.589-10.686-4.167-15.069-8.006     c-2.09-1.828-3.906-4.644-2.953-7.256c0.545-1.476,1.908-2.544,3.373-3.1c1.476-0.568,3.066-0.704,4.645-0.829     c4.304-0.352,8.63-0.704,12.945-0.341c2.714,0.227,5.439,0.761,7.983,1.715C154.099,346.391,153.781,348.129,152.85,350.116z"/>
		</g>
		<g>
			<path style="fill:#FF9D3D;" d="M405.377,260.52c-0.5,23.415-14.41,42.697-28.378,50.351c0,0-1.533,13.434-12.116,20.304     c-10.583,6.87-46.763,35.963-56.699,36.667c-5.473,0.397-9.118-3.52-11.276-7.12c0,0,0,0,0-0.012     c-1.772-2.93-2.555-5.644-2.555-5.644s-20.792,11.753-41.959,23.211c-4.451,2.419-8.914,4.815-13.206,7.086     c-10.777,5.701-20.463,10.618-26.073,12.991c-18.442,7.801-19.736,2.123-19.736,2.123s-8.494,4.611-14.421-0.704     c0,0-5.928,2.487-9.823-2.839c-3.293-4.486-5.496-14.104,26.924-33.578c4.894-2.93,11.753-6.768,18.794-10.368     c1.704-0.874,3.418-1.726,5.122-2.555c2.634-1.283,4.951-2.702,6.972-4.236c40.506-30.535-35.486-106.709-35.486-106.709     s6.382-14.024,19.554-29.775c4.645-5.564,10.141-11.344,16.5-16.795c4.122-3.543,8.608-6.938,13.468-10.05     c4.644-2.986,9.618-5.7,14.933-8.017c7.381-3.248,15.432-5.723,24.142-7.109c0.647-0.102,1.295-0.193,1.93-0.284     c9.084-1.295,17.794-1.476,26.061-0.727c5.19,0.466,10.22,1.306,15.069,2.453v0.011c5.723,1.352,11.197,3.157,16.409,5.348     c3.236,1.34,6.359,2.839,9.391,4.463c5.689,3.043,11.015,6.529,15.932,10.334c8.596,6.643,15.989,14.274,22.042,22.268     c3.759,4.94,7.006,10.038,9.698,15.115c1.136,2.135,2.18,4.258,3.123,6.382c1.397,3.146,2.51,6.28,3.373,9.368     C404.809,248.676,405.502,254.729,405.377,260.52z"/>
			<path style="opacity:0.2;fill:#AE312F;" d="M405.377,260.52c-0.5,23.415-14.41,42.697-28.378,50.351     c0,0-1.533,13.434-12.116,20.304c-10.583,6.87-46.763,35.963-56.699,36.667c-5.473,0.397-9.118-3.52-11.276-7.12c0,0,0,0,0-0.012     c-1.772-2.93-2.555-5.644-2.555-5.644c1.452-0.74-40.285,22.545-55.166,30.297c-12.453,6.903-43.217,22.85-45.809,15.114     c0,0-8.494,4.611-14.421-0.704c0,0-5.928,2.487-9.823-2.839c-3.293-4.486-5.496-14.104,26.924-33.578     c4.894-2.93,11.753-6.768,18.794-10.368c63.394-21.794-19.681-111.192-23.393-113.5c22.859-46.672,72.526-84.678,131.657-70.303     v0.011C363.447,178.568,405.118,217.726,405.377,260.52z"/>
			<path style="opacity:0.48;fill:#AE312F;" d="M343.001,230.535c-13.571,3.9-26.601,12.544-32.249,25.875     c-2.969,6.456-4.799,13.436-5.366,20.513c-0.543,5.656-0.01,25.489,6.692,10.698c-0.692,3.316-6.412,23.058,1.708,12.946     c3.056,10.2,8.658,22.839,20.324,24.863l-0.064,0.001c5.004-0.565,10.268,0.159,14.603,2.801     c-4.389-2.459-9.674-3.037-14.593-2.353c-11.663-1.684-17.714-14-20.961-24.129l0.869,0.174     c-8.098,8.651-5.068-6.471-3.891-10.596l1.01,0.375c-7.163,9.487-7.393-10.884-6.765-14.867     C305.836,254.02,320.429,235.547,343.001,230.535z"/>
			<path style="fill:#AE312F;" d="M193.379,400.482c-0.403-1.297-0.521-2.668-0.477-4.032c0.045-1.368,0.309-2.738,0.789-4.049     c0.521-1.296,1.302-2.509,2.334-3.459c1.018-0.98,2.347-1.54,3.647-1.844c-1.134,0.749-2.207,1.466-3.014,2.463     c-0.805,0.978-1.451,2.065-1.91,3.25C193.851,395.197,193.524,397.798,193.379,400.482z"/>
			<path style="fill:#AE312F;" d="M178.955,399.772c-0.601-1.042-0.961-2.205-1.179-3.394c-0.216-1.192-0.247-2.428-0.067-3.654     c0.216-1.219,0.669-2.42,1.404-3.431c0.723-1.028,1.789-1.744,2.883-2.197c-0.846,0.859-1.625,1.676-2.136,2.674     c-0.505,0.987-0.852,2.035-1.031,3.135c-0.182,1.1-0.204,2.233-0.175,3.378C178.699,397.43,178.802,398.587,178.955,399.772z"/>
			<path style="opacity:0.48;fill:#AE312F;" d="M294.351,355.064c-0.58-13.572,28.819-25.339,39.732-29.408     C323.932,331.031,294.846,342.443,294.351,355.064z"/>
			<path style="fill:#AE312F;" d="M308.185,367.846c-0.273-1.312-0.248-2.674-0.053-4.009c0.195-1.338,0.619-2.651,1.239-3.877     c0.617-1.228,1.528-2.315,2.593-3.175c1.043-0.904,2.36-1.41,3.64-1.722c-1.109,0.755-2.196,1.429-3.046,2.38     c-0.857,0.917-1.633,1.909-2.182,3.043C309.215,362.721,308.59,365.225,308.185,367.846z"/>
			<path style="fill:#AE312F;" d="M296.907,360.722c-0.044-1.176,0.217-2.357,0.65-3.464c0.426-1.115,1.079-2.145,1.873-3.05     c0.806-0.892,1.755-1.674,2.837-2.194c1.052-0.572,2.229-0.861,3.387-0.978c-1.03,0.573-2.036,1.068-2.928,1.737     c-0.911,0.629-1.728,1.368-2.446,2.189C298.806,356.588,297.746,358.553,296.907,360.722z"/>
		</g>
		<path style="opacity:0.48;fill:#AE312F;" d="M227.415,379.164c-2.476-1.504-4.947-3.245-7.725-4.098    c-0.136-1.305-2.441-7.149-2.897-3.141c-0.078,1.538,0.483,3.924,0.722,5.461c-2.025-2.964-3.752-7.372-6.977-9.033    c-0.027,0.045-0.091,0.043-0.092,0.098c-0.048,0.009-0.024,0.146-0.05,0.223c0.372,2.22,2.151,4.13,3.42,5.955    c-4.693-2.094-9.766-3.955-14.986-3.809c4.662-0.679,9.356,0.639,13.728,2.217l-0.562,0.734c-1.079-1.393-4.808-6.254-1.1-6.501    c2.97,1.314,4.327,4.509,6.049,7.039l-1.007,0.373c-1.193-7.419,3.599-6.169,4.369,0.034l-0.241-0.259    C222.855,375.529,225.096,377.374,227.415,379.164z"/>
		<path style="opacity:0.48;fill:#AE312F;" d="M359.512,267.339c-2.53,9.165,2.03,10.998,3.616,1.014    c0.55,4.211,4.068,11.23,4.783,2.501c3.111,1.08,6.651,0.284,9.37-1.492c-2.434,2.193-5.861,3.221-9.103,2.526l0.589-0.42    c-0.077,7.391-5.269,4.936-6.171-0.583l1.079-0.002c-0.287,2.233-2.761,7.346-5.171,4.046    C357.525,272.299,358.635,269.755,359.512,267.339z"/>
		<path style="fill:#AE312F;" d="M252.393,378.278c-4.451,2.419-8.914,4.815-13.206,7.086c0.079-2.805-1.885-5.553-3.611-7.608    c-1.919-2.283-4.043-4.383-6.348-6.28c-0.84-0.693-1.771-1.476-1.862-2.566c-0.08-1.09,0.806-2.078,1.851-2.441    c1.033-0.352,2.169-0.216,3.248,0.011c3.622,0.761,6.961,2.464,10.22,4.224c3.043,1.646,6.109,3.384,8.437,5.95    C251.587,377.154,252.007,377.699,252.393,378.278z"/>
		<path style="fill:#AE312F;" d="M241.038,359.042c-1.215,1.192-3.202,0.977-4.86,0.556c-4.497-1.158-8.676-3.259-13.025-4.883    c-2.873-1.056-5.519-1.431-8.301-1.726c1.704-0.874,3.418-1.726,5.122-2.555c2.634-1.283,4.951-2.702,6.972-4.236    c4.974,0.806,9.732,2.794,13.059,6.496c0.795,0.874,1.522,1.874,1.806,3.032C242.094,356.873,241.889,358.213,241.038,359.042z"/>
		<path style="fill:#AE312F;" d="M313.418,212.736c-3.27,0.215-4.849-3.838-5.655-7.018c-2.43-9.561-7.041-18.533-13.252-26.186    c-3.214-3.941-6.848-7.54-10.833-10.697c-0.534-0.42-1.101-0.886-1.692-1.374c9.084-1.295,17.794-1.476,26.061-0.727    c2.953,6.314,5.212,12.923,6.961,19.68C316.133,190.728,323.037,212.134,313.418,212.736z"/>
		<path style="fill:#AE312F;" d="M328.033,185.618c-1.033-7.586-3.338-13.229-4.917-16.42c5.723,1.352,11.197,3.157,16.409,5.348    C341.399,188.945,329.555,196.803,328.033,185.618z"/>
		<path style="fill:#AE312F;" d="M348.644,212.747c-4.633-1.283-4.065-6.166-0.659-16.397c2.1-6.291,1.613-13.059,0.931-17.34    c5.689,3.043,11.015,6.529,15.932,10.334C365.246,204.878,352.766,213.882,348.644,212.747z"/>
		<path style="fill:#AE312F;" d="M270.279,207.432c-9.243-11.969-21.78-20.27-29.298-24.562c4.644-2.986,9.618-5.7,14.933-8.017    C286.256,193.681,283.849,225.011,270.279,207.432z"/>
		<path style="fill:#AE312F;" d="M260.717,229.303c-2.43,4.145-30.603-16.216-49.704-19.589c4.645-5.564,10.141-11.344,16.5-16.795    c5.905,3.043,14.07,8.676,24.119,19.066C255.244,215.722,263.533,224.488,260.717,229.303z"/>
		<path style="fill:#FF9D3D;" d="M268.079,296.225c0.275,13.348-3.699,26.393-12.733,36.434c-1.066,1.198-5.256,3.11-5.256,3.11    s-0.035,4.301-1.593,4.629c-1.558,0.328-2.737-2.948-3.505-2.398c-0.52,0.373-0.765,7.551-2.181,7.622    c-1.416,0.071-0.712-2.042-1.13-1.789c-6.334,3.823-13.926,7.043-22.899,9.544c-34.726,9.685-87.19-6.304-107.754-13.47    c-0.74-0.258,0.907,1.944-0.699,2.559c-1.606,0.616-3.821-4.172-4.759-4.519c-0.698-0.259-0.369,3.914-1.915,3.475    c-1.545-0.439-1.331-4.711-1.331-4.711c-22.037-26.596-14.785-80.249,22.79-94.426c20.153-8.722,49.731-7.575,71.731-5.255    C237.884,242.078,268.495,255.735,268.079,296.225z"/>
		<g>
			<path style="fill:#FFFFFF;" d="M217.109,323.682c-6.242,3.967-15.855,5.032-22.687,2.104c-1.459-0.626-2.808-1.459-4.007-2.525     c-5.189-4.662-7.941-12.632-7.73-19.55c-0.008-0.16-0.002-0.321,0.004-0.481c0.342-6.979,4.556-13.163,10.757-16.299     c7.259-3.667,17.918-4.634,24.324,1.187c2.527,2.301,4.478,5.443,5.738,8.953l0.013-0.001     C226.912,306.411,225.466,318.36,217.109,323.682z"/>
			<path style="fill:#AE312F;" d="M217.109,323.682c-7.081,4.262-16.512,5.315-24.112,1.79     c-7.618-4.188-11.146-13.409-11.264-21.791l0.001,0.073c-0.027-7.743,4.819-14.932,11.779-18.095     c6.723-3.09,14.942-3.994,21.67-0.321c4.407,2.457,7.182,6.947,8.751,11.577l-0.446-0.299l0.013,0l0.343-0.006     C226.986,305.755,225.844,318.051,217.109,323.682z M217.109,323.682c8.578-5.554,9.478-17.648,5.986-26.459l0.445,0.298     l-0.013,0.001l-0.32,0.022c-1.668-4.379-4.521-8.68-8.785-10.779c-9.061-4.161-21.94-0.807-27.604,7.431     c-1.244,1.884-2.229,3.958-2.726,6.171c-0.152,0.547-0.213,1.112-0.319,1.669c-0.048,0.576-0.147,1.207-0.137,1.703     c-0.291,7.838,2.686,16.865,9.681,21.138C200.597,328.766,210.102,327.87,217.109,323.682z"/>
		</g>
		<path style="fill:#AE312F;" d="M158.416,305.9c0,0-3.362-4.412-5.177-3.674c-1.815,0.738,3.24,7.417,5.23,8.085    c1.99,0.668,6.611-6.137,5.568-7.503C162.994,301.443,158.416,305.9,158.416,305.9z"/>
		<path style="fill:#AE312F;" d="M164.07,334.492c-0.614-2.035-1.147-4.09-1.712-6.138l-1.547-6.18    c-0.516-2.061-0.963-4.137-1.419-6.214c-0.425-2.088-0.856-4.159-1.133-6.314l1.106,0.102c-1.168,3.932-2.238,7.906-3.277,11.881    c-0.512,1.99-1.005,3.986-1.435,5.996c-0.464,2.003-0.85,4.022-1.181,6.058c0.079-2.063,0.357-4.113,0.641-6.16    c0.316-2.042,0.721-4.067,1.133-6.091c0.841-4.045,1.884-8.037,3.034-12.01l0.767-2.649l0.339,2.751    c0.253,2.055,0.667,4.148,1.064,6.222l1.219,6.24l1.236,6.243C163.284,330.318,163.709,332.397,164.07,334.492z"/>
		<path style="fill:#AE312F;" d="M202.812,321.686c5.547,0.548,11.604-1.843,14.702-6.608c4.937-7.593,2.151-18.963-5.813-23.192    c-4.276-2.27-9.986-2.537-14.392-0.467c-11.775,5.531-9.969,23.799,1.101,29.076C199.774,321.144,201.268,321.533,202.812,321.686    z"/>
		<g>
			<path style="fill:#FFFFFF;" d="M137.515,308.577c-2.817,5.758-9.758,8.221-15.769,8.289c-0.828-0.001-1.647-0.07-2.442-0.22     c-9.625-1.781-15.829-14.414-12.719-23.62c0.303-0.95,0.728-1.865,1.249-2.731c4.591-7.565,17.089-10.93,24.692-6.1     c1.833,1.183,3.074,3.143,3.979,5.079c0.623,1.32,1.16,2.806,1.581,4.376C139.439,298.571,139.614,304.296,137.515,308.577z"/>
			<path style="fill:#AE312F;" d="M137.515,308.577c-3.137,6.23-10.788,8.816-17.41,8.549c-9.648-1.083-15.97-11.41-15.345-20.636     l0.25-1.791c0.122-0.59,0.296-1.17,0.445-1.755c3.337-10.516,17.591-14.86,26.779-9.559     C138.938,287.514,140.883,301.895,137.515,308.577z M137.515,308.577c3.343-6.641,0.894-20.472-5.846-24.201     c-8.364-4.141-21.051,0.138-24.088,9.229c-0.132,0.508-0.294,1.009-0.408,1.522l-0.239,1.56     c-0.746,8.391,4.398,18.205,13.253,19.735C126.696,317.152,134.379,314.73,137.515,308.577z"/>
		</g>
		<path style="fill:#AE312F;" d="M116.031,308.848c0.395,0.316,4.122,4.677,12.056,2.039c7.934-2.637,6.824-12.909,5.535-16.248    c-1.289-3.339-5.639-10.185-14.703-7.495C109.853,289.834,109.23,303.415,116.031,308.848z"/>
		<path style="fill:#FF9D3D;" d="M144.955,237.053c-0.402,0.259-6.915,4.453-13.764,7.433c-2.345,1.005-4.723,1.878-6.917,2.396    c-3.555,0.848-6.619,0.777-8.191-1.113c-0.68-0.824-1.279-1.905-1.793-3.19c-0.06-0.131-0.12-0.275-0.166-0.406    c-2.482-6.499-2.857-17.36-0.919-23.344c0.537-1.669,1.252-2.945,2.141-3.655c0.347-0.283,0.713-0.461,1.123-0.56    c6.505-1.507,12.146,1.958,15.89,6.861c2.576,3.367,4.416,7.544,7.328,10.655c0.225,0.23,2.111,2.28,3.58,3.668l0.349,0.318    C144.258,236.711,144.784,237.101,144.955,237.053z"/>
		<path style="fill:#FF9D3D;" d="M261.287,265.276c-0.634-0.117-42.145-8.171-42.205-20.877c-0.003-1.216,0.1-2.437,0.298-3.635    c1.828-11.471,11.995-21.823,16.664-21.721l0.013-0.001c5.151,0.12,7.461,11.224,10.882,19.777    C250.3,247.254,260.968,264.729,261.287,265.276z"/>
		<path style="fill:#AE312F;" d="M226.208,243.072c-4.499-1.62-7.884-2.264-8.06-2.309c1.829-11.471,11.995-21.823,16.664-21.721    l0.013-0.001c0.777,2.61,1.685,5.734,0.016,12.615c-0.169,0.676-0.285,1.336-0.375,1.982    C233.083,243.205,230.49,244.623,226.208,243.072z"/>
		<path style="fill:#AE312F;" d="M126.364,237.293c0,0-2.451,1.064-7.492,3.52c-1.782,0.484-3.456,0.964-4.748,1.358    c-2.482-6.499-2.857-17.36-0.919-23.344c0.537-1.669,1.252-2.945,2.141-3.655c0,0,2.416,1.076,4.339,6.773    c0.699,2.079,1.313,4.068,2.04,5.905C121.749,232.387,120.428,235.526,126.364,237.293z"/>
		<path style="opacity:0.48;fill:#EB4949;" d="M195.895,329.993c-3.033,1.987-3.583,6.199-0.211,8.404    c4.516,2.952,13.179,2.626,17.334-0.9c3.508-2.977,1.52-8.585-2.203-9.663c-3.147-0.911-6.512-0.701-9.632,0.094    C199.733,328.298,197.595,328.879,195.895,329.993z"/>
		<path style="opacity:0.48;fill:#EB4949;" d="M122.022,320.213c2.707,2.413,2.629,6.66-1.032,8.343    c-4.902,2.253-13.422,0.652-17.011-3.449c-3.03-3.462-0.236-8.715,3.606-9.231c3.247-0.436,6.545,0.268,9.513,1.515    C118.477,317.97,120.505,318.86,122.022,320.213z"/>
		<path style="fill:#AE312F;" d="M191.461,236.48c-5.534,4.549-9.786,11.63-13.158,16.96c-1.854,2.92-3.557,5.94-5.151,9.008    c-1.202,2.301-3.314,4.565-6.067,4.855c-3.458,0.362-6.466-1.943-8.11-4.819c-2.066-3.592-2.008-7.791-1.272-11.754    c1.047-5.608,3.753-10.893,7.434-15.329c0.281,0,0.575,0,0.869-0.001C175.093,235.402,183.583,235.766,191.461,236.48z"/>
		<path style="fill:#AE312F;" d="M101.319,292.965c-3.706,0.481-7.498-0.879-10.836-2.821c0.05-0.35,0.101-0.699,0.164-1.063    c0.051-0.336,0.101-0.686,0.165-1.037c0.549-3.113,1.245-6.232,2.143-9.321C99.855,285.376,108.266,292.052,101.319,292.965z"/>
		<path style="fill:#AE312F;" d="M99.64,302.478c-2.476,1.359-6.187,1.439-9.68,1.054c-0.052-0.826-0.091-1.666-0.118-2.52    c-0.048-1.868-0.017-3.794,0.117-5.778c0.009-0.081,0.006-0.148,0.016-0.228C97.109,297.238,104.004,300.082,99.64,302.478z"/>
		<path style="fill:#AE312F;" d="M100.993,276.302c-2.035-0.359-4.14-1.664-6.089-3.31c0.034-0.122,0.082-0.244,0.13-0.367    c1.017-2.547,2.195-5.06,3.578-7.491C102.568,271.11,105.71,277.137,100.993,276.302z"/>
		<path style="fill:#AE312F;" d="M209.159,238.859c-1.469,1.445-3.117,3.059-4.303,4.277c-3.748,3.864-7.73,9.302-10.527,9.794    c-5.845,1.035-7.945-4.72-3.932-10.333c1.831-2.558,4.3-4.357,6.448-5.567l0.013-0.001    C201.158,237.523,205.249,238.133,209.159,238.859z"/>
		<path style="fill:#AE312F;" d="M162.145,235.447c-3.167,3.729-6.679,10.068-9.777,10.961c-4.668,1.341-8.091-2.401-6.002-4.878    c2.026-2.407,4.331-4.252,6.328-5.575C155.702,235.695,158.848,235.521,162.145,235.447z"/>
		<path style="opacity:0.21;fill:#AE312F;" d="M223.508,297.069c-24.794-10.359-39.097,4.676-40.823,6.641    c-0.008-0.16-0.002-0.321,0.004-0.481c0.342-6.979,4.556-13.163,10.757-16.299c7.259-3.667,17.918-4.634,24.324,1.187    C220.296,290.417,222.248,293.56,223.508,297.069z"/>
		<path style="opacity:0.21;fill:#AE312F;" d="M138.086,293.65c-10.903-5.958-24.525-2.901-31.501-0.624    c0.303-0.95,0.728-1.865,1.249-2.731c4.591-7.565,17.089-10.93,24.692-6.1c1.833,1.183,3.074,3.143,3.979,5.079    C137.128,290.594,137.665,292.08,138.086,293.65z"/>
		<path style="fill:#AE312F;" d="M265.428,276.998c-22.224,13.709-30.058-1.199-20.916-4.032c6.125-1.904,11.717-5.48,15.4-7.897    C262.449,268.745,264.293,272.722,265.428,276.998z"/>
		<path style="fill:#AE312F;" d="M268.079,296.225l0.004,0.093c-0.033,0.442-0.039,0.871-0.06,1.299    c-8.175,3.497-18.232,5.624-26.279,2.459c-3.036-1.194-5.694-4.023-4.753-7.047c0.384-1.207,1.324-2.267,2.476-3.056    c3.405-2.351,8.176-2.922,12.329-3.544c4.724-0.716,10.284-2.994,14.62-5.134C267.445,286.392,268.013,291.391,268.079,296.225z"/>
		<path style="fill:#AE312F;" d="M267.772,303.656c-0.563,5.679-1.926,11.089-4.161,16.164c-5.637,1.186-11.794,0.138-16.811-2.554    c-2.234-1.205-4.253-3.209-3.82-5.955c0.565-3.635,5.361-4.233,8.285-4.303C259.193,306.824,264.812,304.944,267.772,303.656z"/>
		<path style="fill:#AE312F;" d="M87.406,331.18c3.47-1.413,7.031-2.494,10.614-3.494c3.592-0.967,7.207-1.85,10.913-2.4    c-3.469,1.416-7.03,2.496-10.614,3.494C94.727,329.745,91.112,330.628,87.406,331.18z"/>
		<path style="fill:#AE312F;" d="M85.218,322.161c3.58-0.537,7.168-0.731,10.758-0.84c3.591-0.075,7.185-0.063,10.787,0.295    c-3.58,0.54-7.168,0.733-10.759,0.84C92.414,322.528,88.821,322.516,85.218,322.161z"/>
		<path style="fill:#AE312F;" d="M87.526,310.873c3.451,1.091,6.759,2.496,10.032,3.976c3.258,1.512,6.481,3.103,9.559,5.008    c-3.452-1.089-6.76-2.493-10.032-3.976C93.827,314.367,90.605,312.776,87.526,310.873z"/>
		<path style="fill:#FFFFFF;" d="M229.252,239.883c0,0-2.595-0.052-3.316-0.62c-0.735-0.567,3.248-0.847,3.248-0.847    c-2.027-0.761-3.763-3.018-3.085-3.089c0.691-0.086,3.092,1.539,3.092,1.539c-2.579-3.421-1.108-8.835,1.588-8.614    c1.154,0.093,2.513,2.582,3.686,5.387c-1.383,9.566,4.637,16.274,5.719,17.105c-4.421-3.656-9.695-6.121-13.977-7.672    C226.785,241.121,229.252,239.883,229.252,239.883z"/>
		<path style="fill:#FFFFFF;" d="M118.871,240.813c0.273-2.164,2.387-5.243,2.575-5.506c-0.17,0.075-1.974,0.947-2.85,0.508    c-0.917-0.465,2.093-1.822,2.093-1.822s-2.352,0.297-2.571-0.401c-0.232-0.684,2.176-0.61,2.176-0.61    c-1.741-0.947-5.024-5.404-2.974-6.717c1.337-0.851,3.231,0.517,4.404,1.585c1.727,4.343,4.121,7.812,10.057,9.579    C131.783,237.429,124.676,239.205,118.871,240.813z"/>
		<path style="opacity:0.48;fill:#AE312F;" d="M149.543,310.673c-3.379,0.675-6.662,2.651-8.685,5.827    c-2.933,4.604-3.648,10.472-0.209,14.841c2.134,2.712,5.208,4.246,8.316,5.216c5.954,1.858,11.999,3.283,18.205,1.764    c2.251-0.551,4.481-1.446,6.348-3.003c2.861-2.384,4.685-6.312,4.782-10.295c0.097-3.983-1.536-7.929-4.28-10.343    c-3.376-2.97-8.524-4.041-12.761-4.124C157.483,310.481,153.257,309.931,149.543,310.673z"/>
		<path style="fill:#AE312F;" d="M221.92,329.512c3.741,0.203,7.423,0.745,11.09,1.37c3.661,0.659,7.308,1.402,10.894,2.488    c-3.742-0.2-7.423-0.743-11.09-1.37C229.153,331.338,225.507,330.595,221.92,329.512z"/>
		<path style="fill:#AE312F;" d="M245.24,324.185c-3.553,0.691-7.13,1.038-10.712,1.301c-3.585,0.229-7.176,0.372-10.79,0.168    c3.553-0.693,7.13-1.04,10.713-1.301C238.035,324.128,241.626,323.985,245.24,324.185z"/>
		<path style="fill:#AE312F;" d="M241.888,313.162c-2.888,2.183-5.947,4.067-9.049,5.879c-3.119,1.782-6.281,3.49-9.617,4.896    c2.886-2.185,5.946-4.069,9.049-5.879C235.392,316.279,238.554,314.571,241.888,313.162z"/>
		<path style="opacity:0.48;fill:#AE312F;" d="M233.256,348.829c3.438-1.794,6.876-3.791,9.577-6.587    c-0.082,0.528-1.5,3.219-0.203,2.849c1.855-2.471,1.667-6.403,1.671-9.403c2.57,4.127,5.235,6.525,5.354-0.332    c3.877-0.916,7.061-3.841,9.201-7.124c-1.764,3.593-4.793,6.651-8.669,7.903l0.341-0.444c0.343,5.481-2.952,7.027-6.095,2.194    l1.037-0.34c-0.281,2.882-0.033,6.513-2.49,8.484c-1.753,0.588-2.143-1.329-1.472-2.481l0.657,0.464    C239.516,346.192,236.427,347.634,233.256,348.829z"/>
		<path style="fill:#AE312F;" d="M186.794,280.028c0.392,0.065,0.805,0.171,1.076,0.462c0.337,0.363,0.361,0.911,0.329,1.405    c-0.154,2.329-1.189,4.59-2.851,6.229c-0.405,0.399-0.859,0.77-1.397,0.951c-0.658,0.221-1.377,0.138-2.057-0.001    c-1.075-0.219-2.139-0.578-3.03-1.218C173.382,283.917,183.199,279.429,186.794,280.028z"/>
		<path style="fill:#AE312F;" d="M126.586,276.186c-0.155-0.366-0.288-0.771-0.187-1.156c0.126-0.479,0.576-0.793,1.01-1.031    c2.049-1.118,4.512-1.457,6.786-0.932c0.554,0.128,1.111,0.312,1.552,0.67c0.539,0.437,0.854,1.089,1.102,1.737    c0.391,1.024,0.658,2.116,0.595,3.211C137.057,285.424,128.007,279.543,126.586,276.186z"/>
		<path style="opacity:0.48;fill:#AE312F;" d="M96.136,326.833c2.035,3.285,3.744,7.094,6.664,9.661    c-0.367,1.364,0.571,6.966,1.775,3.169c0.331-1.354,0.28-3.364,0.348-4.771c1.071,2.21,2.174,4.841,3.983,6.526    c2.601,2.002,1.692-1.904,1.066-3.249c2.864,1.995,5.912,3.858,9.27,4.914c-3.122-0.538-6.012-1.963-8.728-3.568l0.591-0.481    c0.691,1.357,0.906,4.183-1.367,3.91c-2.558-0.691-3.638-3.401-4.836-5.482l1.075-0.238c0.087,7.086-5.098,5.835-4.115-0.561    l0.176,0.413C99.238,334.195,97.738,330.436,96.136,326.833z"/>
		<path style="fill:#AE312F;" d="M396.587,226.726c-10.288,8.482-23.915,12.934-37.224,11.787c-2.294-0.204-5.178-1.17-5.258-3.475    c-0.045-1.124,0.659-2.124,1.431-2.93c2.419-2.521,5.746-3.94,8.96-5.314c5.7-2.453,11.424-5.019,16.295-8.857    c2.294-1.806,4.383-3.929,6.098-6.325C390.648,216.551,393.896,221.65,396.587,226.726z"/>
		<path style="fill:#AE312F;" d="M405.377,260.52c-0.057,0.023-0.114,0.045-0.17,0.068c-6.28,2.237-13.161,2.055-19.781,1.272    c-3.237-0.386-6.564-0.942-9.277-2.725c-0.931-0.613-1.84-1.51-1.783-2.612c0.068-1.26,1.317-2.078,2.464-2.612    c4.985-2.328,10.492-3.282,15.614-5.281c3.827-1.499,7.427-3.577,10.64-6.155C404.809,248.676,405.502,254.729,405.377,260.52z"/>
	</g>
	<circle style="fill:#6CE1C1;" cx="182.586" cy="125.31" r="3.764"/>
	<circle style="fill:#6CE1C1;" cx="173.087" cy="118.679" r="1.261"/>
	<path style="fill:#6CE1C1;" d="M204.988,115.632c0,2.177-1.765,3.943-3.943,3.943c-2.178,0-3.943-1.766-3.943-3.943   s1.765-3.943,3.943-3.943C203.223,111.69,204.988,113.455,204.988,115.632z"/>
	<circle style="fill:#6CE1C1;" cx="99.133" cy="179.435" r="2.087"/>
	<path style="fill:#6CE1C1;" d="M93.692,187.141c0,0.792-0.642,1.434-1.434,1.434c-0.792,0-1.434-0.642-1.434-1.434   c0-0.792,0.642-1.434,1.434-1.434C93.05,185.708,93.692,186.35,93.692,187.141z"/>
	<circle style="fill:#6CE1C1;" cx="101.219" cy="201.658" r="3.853"/>
	<g>
		<path style="fill:#FF5555;" d="M94.937,263.193c0,0,2.531-9.582,9.584-10.955c7.054-1.373,11.136,6.364,11.136,6.364    S104.224,251.665,94.937,263.193z"/>
		<path style="fill:#FF5555;" d="M92.054,235.474c0,0,8.095,5.716,6.92,12.806c-1.175,7.09-9.851,8.214-9.851,8.214    S99.614,248.2,92.054,235.474z"/>
		<path style="fill:#FF5555;" d="M100.974,234.85c0,0-0.331,9.904,6.03,13.248c6.361,3.344,12.495-2.893,12.495-2.893    S106.554,248.561,100.974,234.85z"/>
	</g>
	<g>
		<path style="fill:#AE312F;" d="M24.763,371.089c0,0-9.979-8.509-7.602-10.985C19.539,357.628,24.106,365.778,24.763,371.089z"/>
		<path style="fill:#AE312F;" d="M28.334,369.957c0,0-3.429-12.621-0.086-13.401C31.59,355.776,31.281,367.469,28.334,369.957z"/>
		<path style="fill:#AE312F;" d="M21.992,374.03c0,0-13.078-0.069-12.936-3.498C9.198,367.102,18.415,371.031,21.992,374.03z"/>
	</g>
	<g>
		<path style="fill:#AE312F;" d="M103.735,433.225c0,0-2.087-2.471-0.715-4.485c1.372-2.014,11.417-2.7,15.199,1.758    c3.783,4.458-0.434,5.269-1.297,4.622C116.058,434.473,112.828,429.395,103.735,433.225z"/>
		<path style="fill:#AE312F;" d="M15.842,426.718c-0.991,0.427-4.9-1.349-0.178-4.797c4.721-3.448,14.326-0.428,15.188,1.851    c0.861,2.279-1.746,4.193-1.746,4.193C21.162,422.111,16.832,426.291,15.842,426.718z"/>
		<path style="fill:#FF5555;" d="M105.005,435c-0.541,11.661-18.88,17.073-38.662,16.156c-19.782-0.917-38.636-11.264-38.096-22.924    c0.541-11.66,19.831-24.151,39.612-23.234C87.642,405.914,105.546,423.339,105.005,435z"/>
		<path style="fill:#AE312F;" d="M35.137,440.507c0,0,1.242-2.986-0.674-4.491c-1.916-1.505-11.699,0.878-13.956,6.271    c-2.257,5.393,2.007,4.891,2.634,4.013C23.767,445.422,25.311,439.605,35.137,440.507z"/>
		<path style="fill:#AE312F;" d="M29.63,434.153c0,0,2.087-2.471,0.715-4.485c-1.372-2.014-11.417-2.7-15.199,1.758    c-3.782,4.458,0.434,5.269,1.297,4.621C17.306,435.4,20.537,430.322,29.63,434.153z"/>
		<path style="fill:#AE312F;" d="M95.877,446.883c0,0-1.242-2.986,0.674-4.492c1.916-1.505,11.699,0.878,13.956,6.271    c2.258,5.393-2.007,4.891-2.634,4.013C107.246,451.798,105.702,445.982,95.877,446.883z"/>
		<path style="fill:#AE312F;" d="M101.384,440.529c0,0-2.087-2.471-0.715-4.485c1.372-2.014,11.417-2.7,15.199,1.758    c3.782,4.458-0.434,5.269-1.297,4.622C113.707,441.777,110.477,436.699,101.384,440.529z"/>
		<path style="fill:#AE312F;" d="M38.152,414.785c0,0-6.149-2.409-7.592-8.885c-1.443-6.475,0.41-10.914,3.218-11.193    c2.808-0.279-3.719,11.193,7.229,17.74C41.007,412.446,40.689,416.473,38.152,414.785z"/>
		<path style="fill:#FF5555;" d="M33.258,397.918c0,0-8.926-3.525-8.499-12.284c0.428-8.759,8.016-16.447,11.196-15.752    c3.18,0.695-4.613,18.201-2.473,18.798c2.14,0.598,2.909-15.554,5.172-16.2C40.917,371.835,49.091,392.636,33.258,397.918z"/>
		<path style="fill:#AE312F;" d="M101.317,425.478c0,0,6.149-2.409,7.592-8.885c1.443-6.475-0.41-10.915-3.218-11.193    c-2.808-0.279,3.719,11.193-7.229,17.74C98.462,423.139,98.779,427.166,101.317,425.478z"/>
		<path style="fill:#FF5555;" d="M106.211,408.611c0,0,8.926-3.525,8.499-12.284c-0.428-8.759-8.016-16.447-11.196-15.752    c-3.18,0.696,4.613,18.201,2.473,18.799c-2.14,0.598-2.909-15.554-5.172-16.2C98.552,382.528,90.378,403.329,106.211,408.611z"/>
		<path style="fill:#FFFFFF;" d="M53.167,412.128c-0.654,0.514-1.071,1.318-1.113,2.149c-0.012,0.242,0.007,0.492,0.111,0.711    c0.097,0.206,0.261,0.372,0.432,0.522c0.836,0.734,1.955,1.201,3.059,1.065c1.104-0.136,2.144-0.963,2.342-2.057    c0.122-0.674-0.079-1.39-0.495-1.935C56.47,411.229,54.49,411.089,53.167,412.128z"/>
		<path style="fill:#FFFFFF;" d="M61.261,408.749c0.233,0.552,0.141,1.111-0.426,1.398c-0.346,0.175-0.755,0.184-1.137,0.115    c-0.364-0.066-0.729-0.209-0.977-0.484c-0.249-0.275-0.352-0.7-0.178-1.027c0.27-0.505,0.835-0.625,1.347-0.615    C59.891,408.136,60.991,408.11,61.261,408.749z"/>
	</g>
	<path style="fill:#6CE1C1;" d="M382.997,429.561c0,6.656-12.039,12.052-26.891,12.052c-14.851,0-26.891-5.396-26.891-12.052   c0-6.656,12.039-12.051,26.891-12.051C370.958,417.51,382.997,422.905,382.997,429.561z"/>
	<path style="fill:#6CE1C1;" d="M341.26,451.091c0,3.615-6.54,6.546-14.607,6.546c-8.067,0-14.607-2.931-14.607-6.546   c0-3.616,6.54-6.546,14.607-6.546C334.721,444.545,341.26,447.476,341.26,451.091z"/>
	<ellipse style="fill:#FFC893;" cx="152.59" cy="451.091" rx="16.41" ry="7.354"/>
	<path style="opacity:0.2;fill:#AE312F;" d="M223.306,417.51c0,1.276-2.309,2.311-5.158,2.311c-2.848,0-5.157-1.035-5.157-2.311   c0-1.277,2.309-2.312,5.157-2.312C220.997,415.198,223.306,416.233,223.306,417.51z"/>
	<path style="opacity:0.2;fill:#AE312F;" d="M379.113,348.939c0,1.277-2.309,2.311-5.158,2.311c-2.848,0-5.158-1.035-5.158-2.311   c0-1.276,2.309-2.311,5.158-2.311C376.804,346.628,379.113,347.663,379.113,348.939z"/>
	<path style="opacity:0.2;fill:#AE312F;" d="M208.252,427.965c0,3.863-6.988,6.995-15.607,6.995c-8.62,0-15.607-3.132-15.607-6.995   c0-3.863,6.988-6.995,15.607-6.995C201.264,420.97,208.252,424.102,208.252,427.965z"/>
	<path style="opacity:0.2;fill:#AE312F;" d="M401.455,358.094c0,2.866-5.184,5.189-11.579,5.189c-6.395,0-11.579-2.323-11.579-5.189   c0-2.866,5.184-5.189,11.579-5.189C396.271,352.905,401.455,355.229,401.455,358.094z"/>
	<path style="fill:#FFC893;" d="M478.462,338.96c0,3.414-6.176,6.182-13.794,6.182c-7.618,0-13.794-2.768-13.794-6.182   c0-3.414,6.176-6.182,13.794-6.182C472.286,332.778,478.462,335.546,478.462,338.96z"/>
	<path style="fill:#6CE1C1;" d="M440.821,398.698c-0.023,0.023-0.045,0.046-0.068,0.057c-8.051,5.735-17.612,11.072-28.457,15.909   c-1.522,0.693-3.066,1.363-4.633,2.021c-9.323-7.529-27.231-12.616-47.785-12.616c-30.172,0-54.632,10.958-54.632,24.483   c0,4.236,2.396,8.21,6.62,11.696c-11.469,1.363-23.336,2.35-35.498,2.918c-2.85-4.951-4.383-10.232-4.383-15.716   c0-28.457,41.3-51.532,92.253-51.532c19.668,0,37.905,3.441,52.872,9.3C426.422,388.853,434.473,393.44,440.821,398.698z"/>
	<path style="fill:#6CE1C1;" d="M464.668,373.421c-0.204,0.409-0.431,0.818-0.67,1.226c-4.883,8.551-12.775,16.636-23.177,24.051   c-0.023,0.023-0.045,0.046-0.068,0.057c-6.802,4.849-14.694,9.414-23.517,13.627c-4.781-4.02-7.563-8.846-7.563-14.035   c0-6.427,4.259-12.298,11.288-16.772c8.358-5.337,20.622-8.698,34.306-8.698C458.49,372.875,461.636,373.057,464.668,373.421z"/>
	<g>
		<path style="fill:#AE312F;" d="M169.001,229.839c0,13.478-9.901,24.403-22.115,24.403c-12.214,0-22.115-10.926-22.115-24.403    c0-13.477,9.901-24.403,22.115-24.403C159.099,205.436,169.001,216.361,169.001,229.839z"/>
		<ellipse style="fill:#FF5555;" cx="143.864" cy="229.839" rx="22.115" ry="24.403"/>
		<path style="fill:#FFFFFF;" d="M158.357,229.857c0,9.4-4.654,17.095-12.975,17.948c-0.502,0.05-1.004,0.075-1.519,0.075    c-9.024,0-16.353-8.082-16.353-18.047c0-9.953,7.33-18.035,16.353-18.035c0.514,0,1.016,0.025,1.519,0.075    C153.703,212.727,158.357,220.47,158.357,229.857z"/>
		<path style="fill:#9CF0E7;" d="M160.217,229.834c0,9.4-6.514,17.118-14.835,17.972c-8.333-0.841-14.847-8.572-14.847-17.972    c0-9.388,6.514-17.119,14.847-17.96C153.703,212.727,160.217,220.446,160.217,229.834z"/>
		<path style="fill:#FF5555;" d="M164.928,237.293c0,0,5.935-3.424,12.921,0l1.052-4.597c0,0-7.959-4.201-13.972,0V237.293z"/>
		
			<ellipse transform="matrix(0.2298 -0.9732 0.9732 0.2298 -71.9408 381.58)" style="fill:#AE312F;" cx="205.103" cy="236.241" rx="24.77" ry="24.77"/>
		
			<ellipse transform="matrix(0.2298 -0.9732 0.9732 0.2298 -73.8726 379.139)" style="fill:#FF5555;" cx="202.595" cy="236.241" rx="24.77" ry="24.77"/>
		<path style="fill:#FFFFFF;" d="M219.299,236.241c0,9.538-5.706,17.401-15.043,18.229c-0.54,0.063-1.092,0.088-1.656,0.088    c-10.116,0-18.311-8.208-18.311-18.311c0-10.116,8.195-18.323,18.311-18.323c0.565,0,1.117,0.025,1.656,0.088    C213.593,218.84,219.299,226.69,219.299,236.241z"/>
		<path style="fill:#9CF0E7;" d="M220.91,236.247c0,9.538-7.317,17.395-16.654,18.223c-9.337-0.828-16.667-8.685-16.667-18.223    c0-9.551,7.33-17.407,16.667-18.236C213.593,218.84,220.91,226.696,220.91,236.247z"/>
	</g>
</g>















</svg>
