<?xml version="1.0" encoding="UTF-8"?>
<!-- Generator: Adobe Illustrator 25.2.3, SVG Export Plug-In . SVG Version: 6.00 Build 0)  -->
<svg xmlns="http://www.w3.org/2000/svg" xmlns:xlink="http://www.w3.org/1999/xlink" version="1.1" id="Capa_1" x="0px" y="0px" viewBox="0 0 512 512" style="enable-background:new 0 0 512 512;" xml:space="preserve" width="512" height="512">
<g>
	<path style="fill:#FFC893;" d="M512,258.566c0,115.115-95.052,208.436-212.301,208.436c-20.64,0-40.588-2.885-59.439-8.279   c24.621-8.582,42.276-31.992,42.276-59.526c0-34.819-28.227-63.046-63.046-63.046c-34.804,0-63.031,28.227-63.031,63.046   c0,5.077,0.606,10.01,1.745,14.741c-43.444-38.151-70.791-93.624-70.791-155.372c0-115.115,95.037-208.436,212.286-208.436   C416.948,50.13,512,143.451,512,258.566z"/>
	<g>
		<path style="fill:#FFFFFF;" d="M278.717,39.132l-2.013,2.506c30.434,14.059,36.441,42.447,37.35,57.834    c0.149,2.549,0.157,4.75,0.123,6.459c0.053-0.21,0.076-0.338,0.076-0.338c0.033,0.299,0.084,0.587,0.136,0.861    c0.277-2.398,0.423-4.717,0.469-6.967C315.776,56.252,278.717,39.132,278.717,39.132z"/>
		<path style="fill:#9CF0E7;" d="M314.641,99.388c-0.195,0.023-0.389,0.046-0.587,0.083c-9.299,1.377-10.611,15.918-10.611,15.918    c7.789,1.425,10.304-7.587,10.734-9.458c0.053-0.21,0.076-0.338,0.076-0.338c0.033,0.299,0.084,0.587,0.136,0.861    c2.117,11.986,13.132,9.808,13.132,9.808c-2.688-11.915-11.196-16.14-12.663-16.775C314.724,99.418,314.641,99.388,314.641,99.388    z"/>
		<path style="fill:#6CE1C1;" d="M325.345,100.653c0,0-5.811-7.16-10.823-9.83c0,0-7,3.243-10.535,10.447    c0,0,2.756-8.499,9.543-12.27C313.529,89.001,321.52,91.27,325.345,100.653z"/>
		<path style="fill:#FFFFFF;" d="M301.29,94.633c0,0,0.869-9.909,8.722-19.061c0,0,11.451,1.495,16.439,9.528    c0,0-9.171-6.053-15.888-6.553C310.564,78.547,304.294,86.025,301.29,94.633z"/>
		<path style="fill:#FFFFFF;" d="M298,85.218c0,0,0.042-9.826,6.525-19.995c0,0,12.358-0.692,18.432,6.555    c0,0-10.746-4.142-17.466-3.688C305.491,68.09,299.759,76.272,298,85.218z"/>
		<path style="fill:#FFFFFF;" d="M293.385,76.929c0,0-0.079-10.613,4.404-21.808c0,0,12.792-3.525,20.105,2.47    c1.662,0.286-11.873-1.485-18.623,0.169C299.27,57.759,295.292,66.814,293.385,76.929z"/>
		<path style="fill:#FFFFFF;" d="M287.778,68.241c0,0-2.607-10.288-0.924-22.23c0,0,11.583-6.474,20.114-2.396    c1.682-0.119-11.885,1.389-18.046,4.605C288.922,48.22,287.218,57.963,287.778,68.241z"/>
		<path style="fill:#6CE1C1;" d="M257.814,20.028c0,0-0.186,1.432-0.579,1.628c-0.348,0.174-1.647-0.525-1.647-0.525    c-1.93,1.172-3.204,2.845-3.578,5.049c-2.606,15.521,16.445,51.002,22.866,45.96c6.405-5.03,2.999-30.728,2.999-30.728    s23.712-3.051,24.001-11.122C302.102,23.763,271.087,14.964,257.814,20.028z"/>
		<path style="fill:#FFFFFF;" d="M271.973,28.9c-2.098-0.384-4.109,1.005-4.493,3.103c-0.384,2.097,1.005,4.109,3.103,4.492    c2.097,0.384,4.109-1.005,4.493-3.103C275.459,31.295,274.07,29.283,271.973,28.9z"/>
		<path style="fill:#FFFFFF;" d="M257.814,20.028c-0.804,0.307-1.559,0.668-2.225,1.103c0.362,0.506,3.228,9.286,3.228,9.286    S259.266,24.033,257.814,20.028z"/>
	</g>
	<g>
		<path style="fill:#FFFFFF;" d="M164.968,320.203l2.21,2.356c18.275-28.308,47.37-30.291,62.81-29.029    c2.558,0.21,4.75,0.512,6.446,0.787c-0.202-0.083-0.325-0.124-0.325-0.124c0.302,0.009,0.596,0,0.876-0.014    c-2.347-0.614-4.635-1.085-6.868-1.447C187.22,285.733,164.968,320.203,164.968,320.203z"/>
		<path style="fill:#9CF0E7;" d="M229.988,292.934c-0.005,0.197-0.009,0.394,0,0.596c0.062,9.448,14.347,12.8,14.347,12.8    c2.515-7.551-6.1-11.321-7.902-12.013c-0.202-0.083-0.325-0.124-0.325-0.124c0.302,0.009,0.596,0,0.876-0.014    c12.226-0.421,11.609-11.688,11.609-11.688c-12.235,0.998-17.638,8.87-18.477,10.241    C230.029,292.855,229.988,292.934,229.988,292.934z"/>
		<path style="fill:#6CE1C1;" d="M232.754,282.46c0,0-7.943,4.775-11.306,9.387c0,0,2.242,7.422,8.914,11.955    c0,0-8.07-3.939-10.867-11.223C219.495,292.579,222.878,284.946,232.754,282.46z"/>
		<path style="fill:#FFFFFF;" d="M223.377,305.551c0,0-9.739-2.259-17.741-11.363c0,0,3.099-11.185,11.795-15.018    c0,0-7.315,8.274-8.757,14.888C208.674,294.058,215.234,301.35,223.377,305.551z"/>
		<path style="fill:#FFFFFF;" d="M213.544,307.499c0,0-9.772-1.425-18.98-9.307c0,0,1.05-12.396,9.118-17.42    c0,0-5.635,10.111-6.128,16.862C197.554,297.635,204.889,304.491,213.544,307.499z"/>
		<path style="fill:#FFFFFF;" d="M204.646,310.926c0,0-10.572-1.416-21.083-7.452c0,0-1.707-13.227,5.288-19.66    c0.518-1.614-3.149,11.606-2.453,18.557C186.397,302.371,194.849,307.604,204.646,310.926z"/>
		<path style="fill:#FFFFFF;" d="M195.211,315.283c0,0-10.605,1.147-22.252-2.209c0,0-4.812-12.437,0.446-20.353    c0.118-1.691-0.29,12.023,2.043,18.607C175.448,311.327,184.904,314.393,195.211,315.283z"/>
		<path style="fill:#6CE1C1;" d="M143.014,338.316l1.465,1.035l-0.68,1.334c0.894,2.086,2.38,3.589,4.521,4.271    c15.079,4.777,53.069-9.186,48.955-16.286c-4.105-7.082-30.157-7.309-30.157-7.309s0.301-24.026-7.689-25.45    C152.965,294.768,139.843,324.395,143.014,338.316z"/>
		<path style="fill:#FFFFFF;" d="M153.836,325.474c-0.677,2.033,0.422,4.231,2.455,4.908c2.033,0.677,4.23-0.422,4.908-2.455    c0.677-2.033-0.422-4.23-2.455-4.908C156.71,322.342,154.513,323.441,153.836,325.474z"/>
		<path style="fill:#FFFFFF;" d="M143.014,338.316c0.193,0.844,0.445,1.646,0.785,2.37c0.555-0.289,9.695-1.905,9.695-1.905    S147.204,337.435,143.014,338.316z"/>
	</g>
	<g>
		<g>
			<path style="fill:#FF9D3D;" d="M321.733,381.545c0,0-2.755,18.996-24.809,25.025c-1.241,0.346-2.539,0.577-3.851,0.721     c-22.082,2.395-54.175-21.116-71.512-14.294c-18.376,7.241-27.261,8.755-35.525,3.317c-2.914-1.904-4.673-6.476-4.817-12.015     c-0.289-10.255,4.976-23.813,18.909-29.871c5.842-2.553,13.385-2.711,21.275-1.615l-0.015-0.014     c-0.404-0.043-12.909-24.347-3.62-60.392c9.289-36.044,76.272,52.271,76.272,52.271l-27.362,23.179L321.733,381.545z"/>
			<path style="opacity:0.2;fill:#AE312F;" d="M321.733,381.545c0,0-2.755,18.996-24.809,25.025     c-1.241,0.346-2.539,0.577-3.851,0.721c-22.082,2.395-54.175-21.116-71.512-14.294c-18.376,7.241-27.261,8.755-35.525,3.317     c-2.914-1.904-4.673-6.476-4.817-12.015c-0.289-10.255,4.976-23.813,18.909-29.871c5.842-2.553,13.385-2.711,21.275-1.615     l-0.015-0.014c-0.404-0.043-12.909-24.347-3.62-60.392c9.289-36.044,76.272,52.271,76.272,52.271l-27.362,23.179L321.733,381.545     z"/>
		</g>
		<path style="opacity:0.48;fill:#AE312F;" d="M221.392,352.802c0.443,2.885,3.879,9.38,4.953,2.981c0,0,0.374-3.719,0.374-3.719    c0.54,2.381,0.714,6.352,2.966,7.731c3.576,1.761,1.367-2.267,0.865-3.784c3.934,3.926,9.13,7.458,14.951,6.885    c-4.977,1.272-10.156-1.048-13.903-4.288l0.968-0.664c0.844,1.689,0.187,4.011-2.076,3.436c-2.588-0.454-3.822-3.149-4.141-5.487    l1.079-0.026c-0.129,1.445-1.054,3.741-2.933,3.386C221.936,358.381,221.77,355.053,221.392,352.802z"/>
		<path style="opacity:0.2;fill:#AE312F;" d="M293.073,407.291c-22.082,2.395-54.175-21.116-71.512-14.294    c-18.376,7.241-27.261,8.755-35.525,3.317c-2.914-1.904-4.673-6.476-4.817-12.015c1.154,0.346,2.769,0.62,4.904,0.62    c5.539,0,7.947-6.62,7.947-6.62s5.77,2.769,13.472-1.327c7.702-4.096,40.184-4.327,68.094,9.144    C296.549,396.213,298.006,403.613,293.073,407.291z"/>
		<path style="fill:#FFC893;" d="M241.919,379.661c-3.208-0.291-6.427-0.349-9.596-0.108c-3.187,0.242-6.381,1.052-9.087,2.753    c-0.854,0.537-1.708,1.238-1.941,2.22c-1.233,5.208,8.625,3.927,11.166,3.809c5.612-0.26,11.202,0.888,16.485,2.719    c4.947,1.715,9.648,4.441,14.917,5.069c2.229,0.266,4.846-0.05,6.099-1.913c1.187-1.767,0.586-4.277-0.812-5.882    c-3.281-3.768-9.745-5.136-14.363-6.349C250.622,380.884,246.281,380.057,241.919,379.661z"/>
		<path style="fill:#FFC893;" d="M193.378,392.251c-0.528,0.245-1.032,0.626-1.233,1.172c-0.272,0.741,0.103,1.599,0.708,2.104    c0.605,0.506,1.394,0.729,2.165,0.895c1.801,0.386,3.752,0.727,5.632,0.547c0.987-0.095,2.108-0.356,2.956-0.878    c1.66-1.023,1.221-3.046-0.464-3.682C200.362,391.36,196.147,390.966,193.378,392.251z"/>
		<path style="fill:#FFC893;" d="M195.772,382.512c-0.954,0.233-1.97,0.701-2.319,1.618c-0.463,1.217,0.502,2.534,1.612,3.215    c1.067,0.654,2.295,0.991,3.516,1.261c1.635,0.362,3.306,0.619,4.979,0.554c0.905-0.035,1.837-0.176,2.601-0.662    c0.764-0.486,1.32-1.385,1.174-2.279c-0.167-1.024-1.14-1.7-2.068-2.164C202.434,382.638,198.91,381.745,195.772,382.512z"/>
		<path style="fill:#FFC893;" d="M207.642,379.732c0.029,0.881,0.911,1.463,1.718,1.818c1.304,0.574,2.703,0.971,4.127,1.003    c1.227,0.028,2.678-0.188,3.773-0.772c0.462-0.247,0.873-0.633,1.037-1.131c0.811-2.461-4.665-2.82-6.054-3.057    C210.834,377.352,207.576,377.72,207.642,379.732z"/>
	</g>
	<g>
		<g>
			<path style="fill:#FF9D3D;" d="M488.625,236.108c-1.068,3.966-2.582,7.774-4.442,11.409c-0.173,0.346-0.361,0.693-0.548,1.039     c-0.807,1.5-1.659,2.971-2.582,4.399c-0.303,0.476-0.62,0.967-0.938,1.443c-0.159,0.245-0.332,0.49-0.505,0.75     c-0.606,0.88-1.24,1.745-1.889,2.611c-0.375,0.476-0.75,0.952-1.125,1.428c-0.188,0.231-0.375,0.462-0.562,0.692     c-0.072,0.086-0.144,0.159-0.216,0.245c-0.13,0.159-0.26,0.317-0.39,0.476c-3.115,3.707-6.577,7.082-10.255,10.226     c-0.057,0.058-0.13,0.115-0.202,0.187c-0.519,0.447-1.053,0.894-1.572,1.327c-4.111,3.375-34.256,24.967-39.463,26.309     c0,0,0-0.058-0.014-0.188c0-0.043,0-0.087-0.014-0.144c0-0.072,0-0.144-0.014-0.231c-0.188-2.178-0.418-10.803,4.702-25.27     c0,0,0.058-0.029,0.159-0.115c1.471-1.039,13.241-9.664,21.78-25.097c0.288-0.519,0.577-1.039,0.866-1.572     c0.332-0.62,0.663-1.255,0.966-1.904c2.596-5.323,4.745-11.337,6-18.029c0.793-4.255,1.226-8.784,1.183-13.573     c-0.043-4.991-0.779-9.678-2.063-14.121c-0.202-0.635-0.389-1.269-0.577-1.889c-6.433-19.76-23.525-34.617-38.756-48.319     c-0.231-0.217-0.447-0.418-0.678-0.62c-0.39-0.346-0.779-0.707-1.154-1.067c-5.409-5.106-10.226-10.673-14.323-16.616     c-0.317-0.447-0.62-0.909-0.923-1.37c-0.23-0.332-0.447-0.664-0.663-1.009c-1.284-1.976-2.481-3.996-3.592-6.044     c-0.721-1.284-1.384-2.582-2.019-3.894c-0.043-0.087-0.087-0.188-0.13-0.274c-0.404-0.822-0.793-1.659-1.154-2.495     c-0.736-1.659-1.413-3.332-2.034-5.02c-0.462-1.197-0.865-2.409-1.255-3.635c-1.226-3.793-2.163-7.644-2.812-11.568     c-0.923-5.553-1.255-11.207-0.937-16.905c0.058-0.966,0.13-1.932,0.231-2.899c0.837-8.957,3.303-17.986,7.616-26.857     c0.187-0.389,0.375-0.764,0.562-1.154h0.015c0.101-0.187,0.187-0.361,0.274-0.548c3.577-6.822,8.409-12.996,14.538-17.726     c9.794-7.573,16.602-7.486,19.487-5.813c5.207,3.015,5.12,8.755,1.774,15.549c-0.029,0.101-0.087,0.187-0.13,0.274     c-1.125,2.25-2.611,4.63-4.356,7.053c-1.861,2.538-3.996,5.135-6.361,7.731c-2.005,2.192-3.678,4.644-5.034,7.27     c-5.611,10.803-5.943,24.577-2.452,35.871c2.986,9.65,9.159,18.145,15.837,25.761c0.303,0.361,0.606,0.707,0.923,1.067     c0.548,0.62,1.082,1.212,1.63,1.817c1.082,1.183,2.164,2.351,3.245,3.505c0.736,0.779,1.486,1.543,2.236,2.308     c0.909,0.908,1.832,1.832,2.712,2.682c0.057,0.058,0.115,0.116,0.173,0.173c6.115,5.957,12.563,11.553,18.549,17.553     c0.866,0.851,1.702,1.717,2.538,2.596c1.312,1.385,2.64,2.827,3.923,4.298c2.12,2.437,4.125,4.99,5.986,7.688     c2.38,3.461,4.688,7.082,6.837,10.818c0.029,0.029,0.043,0.072,0.058,0.115c0.591,1.053,1.183,2.12,1.774,3.202     c0.894,1.673,1.745,3.375,2.567,5.077c4.63,9.678,7.948,19.977,8.799,30.477c0.029,0.491,0.072,0.995,0.101,1.5     C490.889,223.386,490.342,229.762,488.625,236.108z"/>
			<path style="opacity:0.2;fill:#AE312F;" d="M489.014,235.344c-1.024,4.298-2.784,8.323-4.832,12.173     c-0.173,0.346-0.361,0.693-0.548,1.039c-0.822,1.485-1.673,2.957-2.582,4.399c-0.303,0.476-0.62,0.967-0.938,1.443     c-0.159,0.245-0.332,0.49-0.505,0.75c-0.606,0.88-1.24,1.745-1.889,2.611c-0.375,0.476-0.75,0.952-1.125,1.428     c-0.188,0.231-0.375,0.462-0.562,0.692c-0.072,0.086-0.144,0.159-0.216,0.245c-3.087,3.635-6.938,7.443-10.645,10.703     c-0.591,0.519-1.183,1.024-1.774,1.514c-4.111,3.375-34.256,24.967-39.463,26.309c0,0,0-0.058-0.014-0.188     c0-0.043,0-0.087-0.014-0.144c0-0.072,0-0.144-0.014-0.231c-0.072-2.25-0.058-11.222,4.861-25.385     c0.072-0.216,0.158-0.433,0.231-0.649c0,0,12.433-8.466,21.549-24.448c0.288-0.519,0.577-1.039,0.866-1.572     c0.332-0.62,0.663-1.255,0.966-1.904c2.683-5.308,4.918-11.337,6.26-18.073c0.879-4.457,1.37-9.231,1.312-14.294     c-0.043-4.616-1.211-9.159-2.452-13.356c-0.202-0.635-0.389-1.269-0.577-1.889c-6.101-19.962-23.453-34.574-38.756-48.319     c-0.231-0.217-0.447-0.418-0.678-0.62c-0.39-0.346-0.779-0.707-1.154-1.067c-5.51-5.091-10.27-10.659-14.323-16.616     c-0.317-0.447-0.62-0.909-0.923-1.37c-0.23-0.332-0.447-0.664-0.663-1.009c-1.269-1.976-2.466-3.996-3.592-6.044     c-0.692-1.284-1.37-2.582-2.019-3.894c-0.043-0.087-0.087-0.188-0.13-0.274c-0.404-0.822-0.793-1.659-1.154-2.495     c-0.75-1.644-1.428-3.317-2.034-5.02c-0.462-1.197-0.865-2.409-1.255-3.635c-1.197-3.808-2.135-7.673-2.812-11.568     c-0.981-5.553-1.298-11.207-0.937-16.905c0.058-0.966,0.13-1.932,0.231-2.899c0.923-9.202,3.577-18.505,8.005-27.621     c0.058-0.13,0.13-0.259,0.188-0.39c0.101-0.187,0.187-0.361,0.274-0.548c3.606-7.125,8.582-13.587,14.928-18.491     c9.794-7.573,16.602-7.486,19.486-5.813c5.409,3.13,5.106,9.188,1.385,16.313c-0.029,0.101-0.087,0.187-0.13,0.274     c-1.183,2.221-2.683,4.543-4.428,6.894c-1.745,2.351-3.721,4.731-5.899,7.111c-2.192,2.409-3.995,5.135-5.423,8.048     c-5.236,10.688-5.957,24.116-2.553,35.136c3.043,9.837,9.202,18.679,15.938,26.496c0.303,0.361,0.606,0.707,0.923,1.067     c0.533,0.606,1.067,1.212,1.63,1.817c0.923,1.038,1.875,2.062,2.813,3.072c0.851,0.894,1.745,1.817,2.668,2.741     c0.909,0.908,1.832,1.832,2.712,2.682c0.057,0.058,0.115,0.116,0.173,0.173c6.188,5.986,12.563,11.495,18.549,17.553     c0.866,0.851,1.702,1.717,2.538,2.596c1.312,1.385,2.64,2.827,3.923,4.298c2.077,2.351,4.067,4.832,5.827,7.385     c2.452,3.563,4.817,7.284,6.995,11.121c0.029,0.029,0.043,0.072,0.058,0.115c0.591,1.053,1.183,2.12,1.774,3.202     c0.894,1.673,1.745,3.375,2.567,5.077c4.616,9.693,7.904,19.991,8.799,30.477c0.029,0.491,0.072,0.995,0.101,1.5     C490.904,223.127,490.471,229.242,489.014,235.344z"/>
		</g>
		<path style="fill:#AE312F;" d="M430.974,38.231c-0.029,0.101-0.087,0.187-0.13,0.274c-1.125,2.25-2.611,4.63-4.356,7.053    c-0.029-0.058-0.044-0.101-0.073-0.159c-2.091-5.308,0.101-11.755,0.101-11.755c-11.943,10.14-23.54,12.808-31.617,13.125    c0.101-0.187,0.187-0.361,0.274-0.548c3.606-7.125,8.582-13.587,14.928-18.491c9.794-7.573,16.602-7.486,19.486-5.813    C434.998,25.047,434.695,31.105,430.974,38.231z"/>
		<path style="fill:#AE312F;" d="M395.333,117.085c-0.187,0.173-0.361,0.346-0.533,0.491c-3.563-7.342-6.073-15.058-7.385-22.991    c0.173-0.014,0.346-0.014,0.519-0.029c5.38-0.245,12.029,0.404,15.433,4.399C407.752,104.103,400.28,112.484,395.333,117.085z"/>
		<path style="fill:#AE312F;" d="M460.484,153.894c-7.01,3.274-16.14,5.625-21.607-0.389c-5.726-6.303-2.87-14.236,0.519-19.76    c6.188,5.986,12.563,11.495,18.549,17.553C458.811,152.148,459.648,153.014,460.484,153.894z"/>
		<path style="fill:#AE312F;" d="M458.624,226.055l-0.26,0.043c0.793-4.255,1.226-8.784,1.183-13.573    c-0.058-5.697-1.01-11.005-2.64-16.01c0.231,0.058,0.462,0.13,0.707,0.202c5.048,1.399,12.678,5.048,14.842,14.453    C474.908,221.901,464.249,225.103,458.624,226.055z"/>
	</g>
	<g>
		<g>
			<path style="fill:#FF9D3D;" d="M408.454,260.668c0,0,31.037,11.227,33.353,19.565c2.316,8.338-6.022,1.853-6.022,1.853     s15.287,12.971,12.508,16.677c-2.78,3.706-6.485,0-6.485,0s22.191,45.702,12.422,85.619c-9.76,39.877-39.29,60.302-39.29,60.302     s6.022,14.824,19.919,25.015c13.897,10.191,6.949,25.478-2.316,23.625c-9.265-1.853-23.625-20.382-33.354-35.67     c-9.728-15.287-16.213-40.765-17.603-45.861c0,0-60.684-9.683-65.317-34.721C311.637,352.036,408.454,260.668,408.454,260.668z"/>
			<path style="opacity:0.2;fill:#AE312F;" d="M408.454,260.668c0,0,31.037,11.227,33.353,19.565     c2.316,8.338-6.022,1.853-6.022,1.853s15.287,12.971,12.508,16.677c-2.78,3.706-6.485,0-6.485,0s22.191,45.702,12.422,85.619     c-9.76,39.877-39.29,60.302-39.29,60.302s6.022,14.824,19.919,25.015c13.897,10.191,6.949,25.478-2.316,23.625     c-9.265-1.853-23.625-20.382-33.354-35.67c-9.728-15.287-16.213-40.765-17.603-45.861c0,0-60.684-9.683-65.317-34.721     C311.637,352.036,408.454,260.668,408.454,260.668z"/>
		</g>
		<path style="opacity:0.48;fill:#AE312F;" d="M395.894,433.237c1.294,2.247,3.568,3.576,5.997,3.896    c-0.793,0.746-3.738,3.178-3.069,4.079c2.001,0.455,4.369-1.815,5.977-2.915c-1.627,3.964-1.949,10.345,2.106,3.059    c2.503,1.671,5.588,2.325,8.589,2.368c-2.94,0.449-6.006,0.057-8.668-1.334l0.656-0.188c-2.924,6.67-6.555,3.209-4.434-2.464    l0.958,0.694c-5.247,4.147-9.554,1.181-3.193-3.372l0.154,0.678C398.683,437.153,396.725,435.418,395.894,433.237z"/>
		<path style="opacity:0.48;fill:#AE312F;" d="M388.12,361.872c-1.604,2.496-3.45,5.166-3.972,8.101    c-0.018,4.328,4.484-0.022,5.411-1.723l0.791,0.519c-0.684,1.288-1.49,3.073-1.054,4.483c0.725,1.745,2.149,0.752,3.006-0.461    c2.457-3.318,3.938-7.444,5.495-11.258c0.418,7.672,4.572,14.203,7.583,2.889c5.856,3.11,12.717-0.266,16.319-5.267    c-3.279,5.401-10.026,9.04-16.22,6.367l0.68-0.32c-2.133,9.782-8.245,7.506-9.28-1.183l1.177,0.148    c-1.849,3.924-3.09,8.903-7.161,11.121c-3.963,0.217-2.896-4.951-1.35-7.017l0.79,0.519c-1.335,1.588-2.968,3.856-5.313,3.733    C380.768,370.882,386.585,364.021,388.12,361.872z"/>
		<path style="fill:#AE312F;" d="M422.706,487.349c4.599-4.836,1.945-11.219-1.007-16.069    C426.399,475.056,428.887,483.772,422.706,487.349z"/>
	</g>
	<path style="fill:#FF9D3D;" d="M83.022,86.135c97.07-12.263,86.083,150.01,79.673,176.162   c-13.349,11.233-23.189,23.506-47.671,28.127c-29.434,4.371-59.417-3.649-75.233-32.4c-12.718-22.069-15.312-56.306-15.552-81.965   C23.9,129.402,37.547,89.875,83.022,86.135z"/>
	<path style="fill:#FF9D3D;" d="M29.365,223.417c0.352,0.429,6.047,7.378,10.388,14.877c1.469,2.569,2.79,5.194,3.676,7.654   c1.448,3.985,1.772,7.524-0.199,9.586c-0.859,0.893-2.025,1.725-3.439,2.489c-0.143,0.086-0.301,0.174-0.446,0.245   c-7.16,3.721-19.626,5.59-26.778,4.149c-1.994-0.397-3.56-1.053-4.495-1.983c-0.373-0.363-0.626-0.761-0.795-1.22   c-2.598-7.296,0.648-14.255,5.802-19.219c3.539-3.415,8.109-6.088,11.309-9.855c0.235-0.289,2.347-2.735,3.753-4.61l0.32-0.444   C29.064,224.266,29.443,223.608,29.365,223.417z"/>
	<path style="fill:#FF9D3D;" d="M433.269,266.042c0.605,58.055-50.291,111.182-106.937,116.168   c-47.032,3.188-103.901-28.826-107.067-78.233c-0.273-7.227-0.086-14.482,0.434-21.694c0.058-0.75,0-8.971,0.851-9.448   c-102.827,27.691-85.517-138.277-87.984-168.598l12.895-8.87c-3.152-32.739,44.526-57.275,78.681-21.015   c20.549-4.714,85.92-0.591,122.226,24.031c11.29,7.314,21.187,16.14,30.318,26.264   C410.495,163.257,431.875,214.559,433.269,266.042z"/>
	<path style="fill:#FF9D3D;" d="M29.8,159.171c0.284-0.691,18.555-46.209,6.211-54.262c-1.183-0.768-2.437-1.436-3.73-1.997   c-12.329-5.436-28.813-2.043-31.651,2.571l-0.009,0.013c-3.124,5.094,6.243,14.332,12.425,23.047   C19.151,137.126,29.469,158.516,29.8,159.171z"/>
	<path style="fill:#AE312F;" d="M29.46,112.218c1.252-5.404,2.754-9.107,2.821-9.306c-12.329-5.436-28.813-2.043-31.651,2.571   l-0.009,0.013c2.054,2.399,4.528,5.25,12.282,7.952c0.765,0.261,1.482,0.563,2.168,0.882   C25.263,119.001,28.276,117.366,29.46,112.218z"/>
	<path style="fill:#AE312F;" d="M37.151,252.977c0.794,1.989,1.568,3.855,2.194,5.291c-7.16,3.721-19.626,5.59-26.778,4.149   c-1.994-0.397-3.56-1.053-4.495-1.983c0,0,0.92-2.926,7.23-5.897c2.303-1.08,4.514-2.051,6.535-3.133   C26.611,248.839,34.53,246.5,37.151,252.977z"/>
	<path style="opacity:0.48;fill:#EB4949;" d="M103.547,158.802c1.816,4.735,7.41,6.736,11.424,2.781   c5.374-5.296,7.498-17.233,3.911-23.958c-3.028-5.677-11.282-4.623-13.859,0.146c-2.179,4.031-2.89,8.693-2.728,13.192   C102.369,153.054,102.529,156.148,103.547,158.802z"/>
	<path style="opacity:0.48;fill:#EB4949;" d="M108.409,239.544c2.468-4.613,8.451-5.943,12.05-1.378   c4.819,6.112,5.459,18.603,0.923,25.025c-3.829,5.422-12.142,3.282-14.167-1.931c-1.712-4.406-1.84-9.269-1.097-13.854   C106.465,245.275,107.026,242.129,108.409,239.544z"/>
	<path style="fill:#AE312F;" d="M24.318,182.335c5.975,5.775,14.698,9.737,21.286,12.918c3.61,1.75,7.315,3.313,11.062,4.743   c2.811,1.08,5.699,3.215,6.398,6.349c0.875,3.936-1.383,7.708-4.48,9.984c-3.865,2.856-8.711,3.346-13.376,3.022   c-6.602-0.464-13.05-2.883-18.649-6.538c-0.037-0.323-0.076-0.662-0.116-1.001C25.243,201.34,24.539,191.508,24.318,182.335z"/>
	<path style="fill:#AE312F;" d="M101.343,278.732c1.045,4.207-0.02,8.757-1.816,12.861c-0.41-0.012-0.82-0.024-1.247-0.048   c-0.394-0.015-0.804-0.026-1.217-0.053c-3.66-0.221-7.347-0.61-11.025-1.236C92.792,281.425,99.371,270.848,101.343,278.732z"/>
	<path style="fill:#AE312F;" d="M112.528,279.409c1.893,2.673,2.477,6.939,2.496,11.015c-0.945,0.169-1.908,0.326-2.889,0.47   c-2.147,0.302-4.37,0.522-6.674,0.63c-0.094,0-0.171,0.012-0.265,0.012C106.825,283.018,109.189,274.696,112.528,279.409z"/>
	<path style="fill:#AE312F;" d="M82.185,281.314c-0.145,2.393-1.369,4.992-3.008,7.454c-0.145-0.023-0.293-0.062-0.44-0.101   c-3.069-0.835-6.122-1.86-9.106-3.132C75.993,280.186,82.522,275.768,82.185,281.314z"/>
	<path style="fill:#AE312F;" d="M24.717,161.626c1.86,1.501,3.938,3.187,5.499,4.393c4.949,3.808,11.743,7.676,12.68,10.834   c1.967,6.599-4.387,9.781-11.387,5.899c-3.19-1.772-5.59-4.378-7.269-6.693l-0.002-0.015   C24.236,171.023,24.398,166.227,24.717,161.626z"/>
	<path style="fill:#AE312F;" d="M27.009,216.254c4.717,3.155,12.486,6.363,13.926,9.815c2.163,5.202-1.696,9.641-4.826,7.562   c-3.042-2.016-5.473-4.428-7.262-6.553C28.147,223.646,27.531,220.044,27.009,216.254z"/>
	<g>
		<g>
			<path style="fill:#FFFFFF;" d="M93.864,133.495c5.398,6.668,7.897,17.604,5.428,25.865c-0.529,1.764-1.309,3.429-2.379,4.952     c-4.685,6.598-13.504,10.824-21.505,11.497c-0.183,0.03-0.369,0.044-0.555,0.059c-8.087,0.531-15.771-3.507-20.207-10.237     c-5.187-7.879-7.712-20.034-1.853-28.188c2.317-3.216,5.68-5.88,9.557-7.797l-0.003-0.016     C72.664,124.485,86.624,124.569,93.864,133.495z"/>
			<path style="fill:#AE312F;" d="M93.864,133.495c3.045,3.773,4.912,8.38,5.909,13.106c0.485,2.374,0.71,4.806,0.628,7.239     c-0.072,2.43-0.449,4.876-1.302,7.196c-0.845,2.325-2.27,4.431-3.954,6.224c-1.682,1.811-3.622,3.372-5.71,4.692     c-4.187,2.629-8.963,4.32-13.94,4.897l0.08-0.01c-5.936,0.659-11.867-1.076-16.513-4.677c-2.306-1.786-4.336-3.98-5.826-6.479     c-1.514-2.461-2.705-5.1-3.549-7.85c-1.641-5.465-1.316-11.912,0.297-17.022c1.102-2.716,2.942-5.064,5.055-6.962     c2.116-1.922,4.54-3.451,7.092-4.649l-0.27,0.523l-0.002-0.015l-0.05-0.372l0.319-0.15c2.621-1.229,5.392-2.104,8.22-2.621     c2.829-0.506,5.716-0.673,8.568-0.432c2.851,0.247,5.663,0.956,8.254,2.155C89.754,129.49,92.083,131.265,93.864,133.495z      M93.864,133.495c-1.802-2.213-4.143-3.959-6.731-5.133c-2.586-1.193-5.415-1.784-8.24-1.957     c-2.83-0.178-5.678,0.099-8.428,0.741c-2.751,0.636-5.416,1.619-7.898,2.928l0.269-0.521l0.002,0.015l0.063,0.347l-0.334,0.176     c-2.416,1.274-4.669,2.854-6.58,4.761c-1.922,1.902-3.484,4.118-4.359,6.61c-0.909,2.483-1.214,5.158-1.125,7.812     c0.088,2.659,0.598,5.313,1.442,7.853c1.666,5.088,4.449,9.874,8.608,13.105c1.038,0.808,2.151,1.514,3.309,2.137     c1.178,0.581,2.382,1.12,3.64,1.506c1.257,0.38,2.545,0.69,3.857,0.82c0.652,0.103,1.314,0.097,1.972,0.145     c0.633-0.021,1.369,0.004,1.906-0.06l0.08-0.01c4.642-0.319,9.281-1.705,13.389-4.031c2.051-1.167,3.974-2.572,5.661-4.227     c1.697-1.649,3.126-3.562,4.041-5.751c1.831-4.393,2-9.402,1.169-14.123C98.747,141.9,96.847,137.301,93.864,133.495z"/>
		</g>
		<path style="fill:#AE312F;" d="M93.457,150.234c-0.102-6.465-3.66-13.127-9.561-16.067c-9.404-4.683-22.137,0.032-25.956,9.769    c-2.05,5.228-1.601,11.843,1.367,16.646c7.932,12.837,28.744,8.338,33.36-5.118C93.235,153.807,93.485,152.033,93.457,150.234z"/>
		<path style="opacity:0.21;fill:#AE312F;" d="M62.349,129.645c-8.655,29.942,10.565,44.435,13.058,46.163    c-0.183,0.03-0.369,0.044-0.555,0.059c-8.087,0.531-15.771-3.507-20.207-10.237c-5.187-7.879-7.712-20.034-1.853-28.188    C55.109,134.226,58.472,131.561,62.349,129.645z"/>
	</g>
	<g>
		<g>
			<path style="fill:#FFFFFF;" d="M82.071,226.84c7.008,2.484,10.765,10.157,11.639,17.074c0.108,0.955,0.138,1.907,0.07,2.844     c-0.778,11.327-14.514,20.149-25.535,17.784c-1.134-0.224-2.245-0.592-3.313-1.077c-9.325-4.288-14.857-18.245-10.298-27.646     c1.121-2.269,3.216-3.958,5.326-5.258c1.439-0.893,3.079-1.709,4.833-2.402C70.286,225.948,76.859,224.989,82.071,226.84z"/>
			<path style="fill:#AE312F;" d="M82.071,226.84c1.225,0.461,2.41,1.041,3.483,1.799c1.057,0.773,2.055,1.639,2.906,2.642     c1.721,1.983,3.066,4.293,3.998,6.759c0.474,1.23,0.878,2.491,1.174,3.781c0.305,1.283,0.545,2.603,0.573,3.951     c0.002,2.687-0.615,5.392-1.856,7.805c-2.461,4.862-6.87,8.547-11.864,10.697c-2.519,1.048-5.225,1.733-8.007,1.842l-2.09-0.051     c-0.693-0.063-1.382-0.186-2.074-0.28c-1.378-0.216-2.76-0.662-4.031-1.26c-5.14-2.499-8.696-7.202-10.583-12.29     c-1.858-5.09-2.195-10.941,0.074-15.959c0.493-1.276,1.383-2.431,2.347-3.369c0.979-0.95,2.079-1.732,3.218-2.419     c2.277-1.381,4.743-2.376,7.249-3.172c2.511-0.79,5.109-1.303,7.731-1.443C76.931,225.722,79.598,225.954,82.071,226.84z      M82.071,226.84c-5.017-1.68-10.502-0.921-15.372,0.805c-2.451,0.884-4.805,2.045-6.935,3.503     c-2.107,1.454-4.054,3.252-4.841,5.618c-1.822,4.724-1.152,10.092,0.773,14.68c0.955,2.318,2.282,4.479,3.901,6.352     c1.611,1.877,3.56,3.457,5.74,4.474c1.09,0.527,2.223,0.914,3.43,1.115c0.605,0.085,1.207,0.205,1.815,0.269l1.837,0.068     c2.461-0.048,4.937-0.549,7.277-1.436c4.668-1.737,9.019-4.898,11.565-9.303c1.289-2.182,2.013-4.669,2.167-7.217     c0.05-1.276-0.106-2.56-0.331-3.839c-0.22-1.277-0.525-2.547-0.963-3.772c-0.842-2.457-2.064-4.812-3.745-6.815     c-0.835-1.007-1.817-1.882-2.862-2.665C84.465,227.909,83.291,227.316,82.071,226.84z"/>
		</g>
		<path style="fill:#AE312F;" d="M85.227,251.562c0.312-0.497,4.844-5.369,0.754-14.162c-4.09-8.794-15.779-6.155-19.456-4.227    c-3.677,1.928-10.991,7.846-6.69,17.936C64.134,261.198,79.867,260.119,85.227,251.562z"/>
		<path style="opacity:0.21;fill:#AE312F;" d="M65.044,228.409c-5.422,13.353-0.096,28.645,3.452,36.383    c-1.134-0.224-2.245-0.592-3.313-1.077c-9.325-4.288-14.857-18.245-10.298-27.646c1.121-2.269,3.215-3.958,5.326-5.258    C61.65,229.918,63.29,229.102,65.044,228.409z"/>
	</g>
	<path style="fill:#AE312F;" d="M61.217,91.734c18.74,23.795,2.597,34.796-1.878,24.637c-3.005-6.806-7.866-12.778-11.139-16.701   C52.101,96.26,56.439,93.609,61.217,91.734z"/>
	<path style="fill:#AE312F;" d="M83.022,86.135l0.107-0.017c0.514-0.021,1.008-0.07,1.505-0.103   c5.112,8.958,8.895,20.265,6.313,29.956c-0.974,3.657-3.882,7.095-7.492,6.41c-1.442-0.283-2.788-1.225-3.85-2.449   c-3.16-3.612-4.449-9.035-5.716-13.739c-1.45-5.349-4.811-11.454-7.852-16.168C71.776,88.167,77.46,86.851,83.022,86.135z"/>
	<path style="fill:#AE312F;" d="M91.627,85.505c6.619-0.104,13.033,0.752,19.178,2.655c2.113,6.339,1.72,13.572-0.718,19.71   c-1.093,2.735-3.134,5.325-6.357,5.191c-4.263-0.17-5.588-5.618-6.055-8.977C96.413,94.97,93.502,88.745,91.627,85.505z"/>
	<path style="fill:#AE312F;" d="M131.942,286.324c-2.061-3.822-3.772-7.785-5.398-11.782c-1.591-4.011-3.094-8.057-4.244-12.245   c2.064,3.821,3.774,7.784,5.398,11.782C129.286,278.091,130.789,282.137,131.942,286.324z"/>
	<path style="fill:#AE312F;" d="M121.839,290.039c-1.064-4.058-1.756-8.168-2.356-12.292c-0.563-4.128-1.032-8.27-1.125-12.464   c1.068,4.057,1.758,8.168,2.356,12.292C121.274,281.703,121.743,285.845,121.839,290.039z"/>
	<path style="fill:#AE312F;" d="M108.525,288.874c0.829-4.113,2.015-8.108,3.289-12.075c1.31-3.955,2.71-7.881,4.471-11.689   c-0.825,4.113-2.012,8.109-3.289,12.075C111.684,281.139,110.283,285.065,108.525,288.874z"/>
	<path style="fill:#FFFFFF;" d="M24.436,113.178c0,0,1.582-2.562,1.483-3.622c-0.09-1.073-2.869,2.632-2.869,2.632   c0.534-2.454-0.573-5.566-1.07-4.95c-0.518,0.619-0.446,3.982-0.446,3.982c-1.711-4.666-7.912-6.639-9.393-3.872   c-0.635,1.183,0.935,4.073,2.93,6.982c10.192,4.671,12.941,14.758,13.07,16.335c-0.78-6.608,0.135-13.299,1.318-18.447   C27.195,111.552,24.436,113.178,24.436,113.178z"/>
	<path style="fill:#FFFFFF;" d="M37.151,252.977c-2.53-0.028-6.358-2.057-6.686-2.239c0.109,0.186,1.353,2.149,0.962,3.216   c-0.415,1.118-2.377-2.171-2.377-2.171s0.654,2.671-0.121,3.016c-0.757,0.358-0.991-2.427-0.991-2.427   c-0.861,2.132-5.563,6.505-7.346,4.316c-1.157-1.428,0.168-3.792,1.243-5.285c4.776-2.565,8.457-5.783,9.707-12.857   C31.542,238.546,34.53,246.5,37.151,252.977z"/>
	<g>
		<path style="fill:#AE312F;" d="M79.37,194.592c0,0-4.639,4.458-3.549,6.452c1.09,1.994,8.118-4.716,8.625-7.097    c0.507-2.381-7.948-6.806-9.383-5.423C73.628,189.906,79.37,194.592,79.37,194.592z"/>
		<path style="fill:#AE312F;" d="M111.571,184.291c-9.004,3.678-18.487,7.356-27.871,9.948l-0.027-1.214    c9.387,1.607,18.842,3.101,28.368,3.585c-10.587,0.542-21.161-1.151-31.581-2.865C90.623,191.385,101.531,187.223,111.571,184.291    z"/>
		<path style="opacity:0.48;fill:#AE312F;" d="M86.046,204.185c1.225,3.804,3.937,7.326,7.864,9.236    c5.693,2.77,12.55,2.817,17.13-1.724c2.842-2.819,4.203-6.564,4.909-10.273c1.353-7.107,2.194-14.262-0.378-21.212    c-0.933-2.521-2.26-4.972-4.3-6.918c-3.127-2.981-7.894-4.563-12.497-4.147c-4.603,0.416-8.933,2.82-11.353,6.301    c-2.976,4.283-3.528,10.358-3.063,15.251C84.774,195.061,84.699,200.003,86.046,204.185z"/>
	</g>
	<path style="fill:#AE312F;" d="M112.212,131.537c-0.233-4.336-0.089-8.651,0.146-12.959c0.273-4.306,0.641-8.607,1.388-12.885   c0.235,4.337,0.092,8.65-0.146,12.959C113.324,122.958,112.956,127.259,112.212,131.537z"/>
	<path style="fill:#AE312F;" d="M102.987,105.369c1.237,4.008,2.105,8.086,2.881,12.179c0.739,4.1,1.386,8.218,1.659,12.405   c-1.241-4.008-2.107-8.085-2.881-12.179C103.909,113.673,103.262,109.555,102.987,105.369z"/>
	<path style="fill:#AE312F;" d="M90.727,110.692c2.874,3.056,5.446,6.336,7.943,9.671c2.468,3.358,4.859,6.772,6.945,10.412   c-2.877-3.054-5.448-6.334-7.943-9.671C95.207,117.744,92.816,114.33,90.727,110.692z"/>
	<path style="opacity:0.48;fill:#AE312F;" d="M156.284,254.368c2.366-3.807,5.428-7.549,6.588-11.908   c0.95-0.291,5.793-2.856,3.61-3.675c-2.093-0.044-4.38,1.392-6.281,2.19c1.717-2.23,3.817-4.698,4.614-7.418   c0.699-3.818-2.79-0.861-3.917,0.498c0.57-3.983,0.905-8.087,0.245-12.09c1.049,3.519,1.064,7.255,0.805,10.903l-0.761-0.344   c1.04-1.399,3.829-3.093,4.716-0.619c0.602,2.995-1.644,5.517-3.173,7.829l-0.76-0.937c7.317-3.724,8.635,2.154,1.528,4.499   l0.318-0.375C162.289,247.316,159.174,250.829,156.284,254.368z"/>
	<path style="opacity:0.48;fill:#AE312F;" d="M158.997,148.729c-1.941-3.939-3.838-7.937-6.197-11.635   c0.859,0.272,1.941,0.676,2.836,0.739c2.469,0.186,1.039-1.457-0.236-2.02c-2.61-1.416-5.673-2.285-8.586-2.745   c5.332-1.988,8.486-4.391,0.806-6.161c-0.399-4.389-1.765-8.807-4.133-12.561c2.801,3.448,4.384,7.736,5.063,12.124l-0.398-0.43   c6.307,0.974,7.275,4.886,1.043,7.377l-0.133-1.188c2.92,0.864,7.8,1.79,9.027,4.867c0.035,2.439-3.011,1.83-4.413,1.229   l0.547-0.652C156.149,141.221,157.66,144.936,158.997,148.729z"/>
	<path style="opacity:0.48;fill:#AE312F;" d="M208.743,82.587c1.011,12.614,1.292,26.955-6.214,37.797   c-11.039,12.233-27.065,4.799-27.84-11.05c0.897,9.395,9.215,18.897,19.24,15.297c3.084-0.797,5.741-2.491,7.624-5.017   C208.947,109.023,208.746,95.035,208.743,82.587z"/>
	<path style="opacity:0.48;fill:#AE312F;" d="M182.958,124.121c-5.654,4.07-14.077,2.023-18.404-3.097   c-4.288-5.285-5.639-12.295-5.557-18.908c0.816,6.343,2.376,13.098,6.498,18.106C169.696,125.023,177.061,127.087,182.958,124.121z   "/>
	<path style="opacity:0.48;fill:#AE312F;" d="M167.122,122.653c-23.601,5.369-26.108-26.629-20.626-42.444   c6.466-19.268,29.434-26.217,47.95-23.846c12.615,2.736,22.991,11.248,31.908,20.126c-9.142-8.406-19.667-16.726-32.07-19.195   c-18.016-1.998-40.283,4.633-46.716,23.3C142.269,96.055,143.903,127.126,167.122,122.653z"/>
	<g>
		<g>
			<path style="fill:#FF5555;" d="M106.544,251.48c-4.846,18.505-24.131,18.058-24.131,18.058     c-14.424,1.067-24.102-3.707-28.646-14.9c-0.793-1.919,0.561-5.058,0.085-7.351c-0.533-2.51-2.898-4.159-3.128-6.914     c-0.072-0.736-0.13-1.471-0.159-2.207c-0.084-1.211,1-2.791,0.976-4.012c-0.021-1.091-1.155-1.822-1.135-2.911     c0.188-11.452,2.539-22.068,6.361-24.491c2.019-1.269,4.255-2.091,6.606-2.539c10.126-1.919,22.429,3.144,29.28,9.318     c1.313,1.182,2.582,2.452,3.779,3.808c0.621,0.705-0.134,1.537,0.447,2.281c0.619,0.793,2.572,1.501,3.145,2.334     c0.664,0.967,1.298,1.947,1.89,2.957c1.185,2.029,0.939,4.524,1.781,6.706c0.767,1.99,2.653,3.656,3.08,5.727     C107.741,242.003,107.77,246.806,106.544,251.48z"/>
			<path style="fill:#FF5555;" d="M103.904,151.279c-2.106,7.76-6.649,15.03-12.188,20.496c-8.106,7.991-24.535,14.654-35.54,8.395     c-2.366-1.356-4.342-5.698-5.683-11.453c-0.59-2.54,0.379-5.41,0.048-8.361c-0.235-2.093-1.839-4.201-1.923-6.38     c-0.029-0.707-0.043-1.428-0.058-2.135c-0.023-1.274,1.534-2.85,1.57-4.114c0.032-1.125-1.464-1.94-1.382-3.04     c0.144-2.005,0.361-3.966,0.664-5.827c2.553-15.837,12.621-23.063,29.554-22.573c0,0,15.808-1.067,22.977,12.318     c0.327,0.604,0.042,1.837,0.329,2.502c0.372,0.86,1.303,1.174,1.604,2.142c0.043,0.13,0.087,0.274,0.115,0.404     c0.332,1.11,0.591,2.221,0.779,3.346c0.349,2.087-1.129,4.23-1.212,6.336C103.452,146.017,104.615,148.661,103.904,151.279z"/>
			<path style="fill:#FF5555;" d="M63.369,204.212c-1.904-0.888-3.501-2.422-4.631-4.269c-1.127-1.845-1.841-4.062-1.793-6.305     c0.042-2.228,0.637-4.429,1.729-6.279c0.478-0.961,1.222-1.752,1.846-2.582c0.753-0.741,1.529-1.443,2.366-2.054     c-0.34,1.015-0.784,1.909-1.173,2.816l-0.504,1.379c-0.165,0.454-0.384,0.878-0.475,1.348c-0.606,1.798-0.844,3.601-0.905,5.375     C59.769,197.226,61.183,200.705,63.369,204.212z"/>
		</g>
		<path style="fill:#FFFFFF;" d="M103.991,133.653l-55.43,18.188c-0.043-2.408,0.014-4.818,0.187-7.154l53.194-16.082    c0.75,1.384,1.399,2.928,1.933,4.644C103.919,133.379,103.962,133.523,103.991,133.653z"/>
		<path style="fill:#FFFFFF;" d="M103.904,151.279l-53.411,17.438c-1.009-4.341-1.673-9.491-1.875-14.741l56.151-16.977    C105.563,141.745,105.174,146.606,103.904,151.279z"/>
		<path style="fill:#FFFFFF;" d="M100.024,221.954l-49.458,16.212c-0.159-2.293-0.202-4.615-0.159-6.923l46.026-13.905    C97.716,218.796,98.914,220.339,100.024,221.954z"/>
		<path style="fill:#FFFFFF;" d="M106.774,237.345l-53.007,17.294c-0.793-1.919-1.428-4.024-1.904-6.317    c-0.534-2.51-0.909-5.193-1.139-7.948l51.189-15.462C104.178,228.791,105.881,233.003,106.774,237.345z"/>
	</g>
	<path style="fill:#FFC893;" d="M384.546,359.088c-17.481,13.068-37.905,21.318-58.214,23.121   c-26.02,2.322-52.329-7.414-71.945-21.044c-4.904-3.418-9.448-7.197-13.5-11.279c-0.015-0.014-0.043-0.043-0.058-0.057   c-0.793-0.793-1.558-1.601-2.322-2.423c-12.332-42.348-4.37-85.748,2.264-107.398c11.611-1.962,9.275-14.351,9.275-14.351   s4.731-8.352,2.365-16.674c-2.034-7.14-23.929-24.116-43.242-27.347c-1.716-10.818-0.678-28.213,18.664-40.256   c30.001-18.664,80.801-23.496,127.765,36.074C384.892,214.578,400.239,309.601,384.546,359.088z"/>
	<g>
		<path style="opacity:0.48;fill:#AE312F;" d="M178.62,216.28c0.944-24.491,11.402-42.659,38.408-33.234    c12.235,4.204,23.776,11.063,32.645,20.555c5.912,5.965,4.37,15.466,0.832,22.314l0.059-0.357    c1.147,6.928-2.34,13.872-9.729,14.822l0.029-0.006l-0.188,0.027l0.286-0.365c-0.002,0.146-0.096,0.296-0.223,0.365    c0.004,0.02,0.006,0.026-0.005,0.027c-9.03,9.344-19.696,1.613-24.886-7.519c5.342,8.592,15.661,16.188,24.322,7.023l-0.023,0.026    c0.075-0.085,0.164-0.165,0.254-0.232c-0.107,0.06-0.21,0.176-0.194,0.307l0.286-0.365c7.095-0.895,10.235-7.538,9.007-14.099    c3.32-6.515,4.962-15.546-0.71-21.196c-8.779-9.219-20.121-16.081-32.108-20.272C190.073,174.687,180.446,192.419,178.62,216.28z"/>
		<path style="fill:#AE312F;" d="M240.438,240.193c-0.02-1.646-0.178-3.26-0.383-4.848c-0.23-1.585-0.545-3.148-1.049-4.642    c-0.957-3.011-2.675-5.706-5.211-7.829c1.517,0.649,2.907,1.685,3.98,2.998c1.094,1.301,1.878,2.843,2.412,4.443    c0.515,1.61,0.793,3.282,0.831,4.95C241.067,236.931,240.896,238.603,240.438,240.193z"/>
		<path style="fill:#AE312F;" d="M250.046,225.655c-1.293-2.112-2.502-4.159-3.974-6.003c-0.723-0.93-1.519-1.787-2.386-2.575    c-0.879-0.777-1.844-1.451-2.943-2.038c1.247,0.087,2.467,0.571,3.53,1.265c1.07,0.693,1.984,1.596,2.773,2.576    c0.769,0.994,1.434,2.073,1.932,3.213C249.484,223.23,249.882,224.417,250.046,225.655z"/>
		<path style="opacity:0.48;fill:#AE312F;" d="M203.011,275.388c19.97,1.869,30.646-19.891,37.574-35.352l-0.013,0.03l0,0    C235.406,256.281,223.219,279.168,203.011,275.388z"/>
	</g>
	<path style="opacity:0.48;fill:#AE312F;" d="M302.378,265.833c7.994,0.171,15.48,5.352,19.355,12.209   C316.477,272.325,309.98,267.744,302.378,265.833z"/>
	<path style="opacity:0.48;fill:#AE312F;" d="M305.896,275.733c3.426-6.306,10.431-11.573,17.884-10.942   C316.596,265.973,310.746,270.528,305.896,275.733z"/>
	<path style="fill:#FF9D3D;" d="M226.969,73.934c0,0,3.114-5.774,6.139-6.379c3.024-0.605,0,5.739,0,5.739s4.369-6.426,7.629-5.78   c3.26,0.646-1.172,5.375-1.172,5.375s10.682-6.288,19.756,1.045c9.074,7.333-9.279,14.591-9.279,14.591L226.969,73.934z"/>
	<path style="fill:#FFC893;" d="M354.175,175.674c0,0,2.007-12.324,0-12.997c-2.007-0.673-3.077,9.28-3.077,9.28   s0.061-8.84-1.958-9.312c-2.019-0.472-0.468,6.514-0.468,6.514s-1.55-10.183-10.467-7.491c-8.917,2.692,8.431,21.03,8.431,21.03   L354.175,175.674z"/>
	<path style="fill:#FFC893;" d="M209.506,170.809c0,0-8.129-5.85-7.804-7.638c0.325-1.787,4.714,2.6,4.714,2.6   s-2.445-4.385-0.816-5.524c1.628-1.139,5.076,4.599,5.076,4.599s-4.161-7.525,2.046-8.663c6.207-1.138,0,15.773,0,15.773   L209.506,170.809z"/>
	<path style="opacity:0.48;fill:#AE312F;" d="M178.633,210.693c0.159-1.587,0.003-5.338-2.309-4.679   c-3.078,3.643-3.714,9.227-5.053,13.725c-0.078-1.342-0.826-12.692-2.954-11.31c-0.751,2.386-0.141,5.074,0.038,7.548   c-3.691-12.128,3.281-11.053,3.844-0.055l-1.222-0.102c1.193-3.357,2.036-9.218,5.644-10.703   C179.265,205.35,179.158,208.792,178.633,210.693z"/>
	<path style="fill:#FFFFFF;" d="M246.678,167.036c0.038-13.923,8.211-14.995,4.997,0.11l-0.989-0.457   c6.764-9.239,14-10.36,4.846,1.878l-0.717-0.779c6.065-3.14,13.439-2.455,19.428,0.46c-6.802-2.648-14.81-2.498-20.969,1.633   c1.99-2.694,4.544-6.444,5.54-9.111c0.024-0.015-0.191,0.05-0.289,0.052c-3.419,1.804-5.887,5.403-8.386,8.302   c0.665-3.421,1.469-7.033,1.227-10.52c-0.096-0.881-0.388-1.815-1.044-1.575C247.294,158.973,247.33,163.767,246.678,167.036z"/>
	<path style="opacity:0.48;fill:#AE312F;" d="M363.181,277.8c-1.79-1.189-4.356-2.867-6.46-1.945   c-1.49,1.242,3.684,4.795,4.706,5.648c-1.972,0.282-6.688,0.573-6.525,3.235c1.446,1.192,4.272,0.057,6.011-0.102   c-3.706,1.941-5.65,5.944-5.71,10.057c-0.397-3.454,0.486-7.223,3.231-9.571l0.407,0.916c-2.045,0.691-6.421,0.511-4.904-2.768   c1.204-2.052,3.755-2.47,5.905-2.781l-0.307,1.071C351.613,275.692,357.137,271.924,363.181,277.8z"/>
	<path style="opacity:0.48;fill:#AE312F;" d="M209.011,99.281c0.956,1.441,4.672,6.936,6.489,5.391   c0.197-3.204-1.91-6.383-3.097-9.286c2.833,2.231,6.006,5.598,9.642,6.097c0.002-0.012-0.028,0.039,0.001-0.009   c-0.285-2.648-2.279-5.079-3.638-7.342c5.343-1.078,11.735-3.123,13.942-8.635c-1.536,5.644-7.736,8.23-12.933,9.551l0.348-0.85   c7.74,10.841,1.151,10.387-6.154,3.678l0.881-0.653C219.456,107.863,213.465,108.428,209.011,99.281z"/>
	<path style="fill:#AE312F;" d="M322.366,86.453c-0.995,1.543-2.091,3.015-3.188,4.471c-3.663,4.832-7.5,9.65-12.448,13.183   c-4.933,3.519-11.149,5.668-17.106,4.514c-1.962-0.375-3.909-1.125-5.293-2.553c-2.755-2.827-2.568-7.501-0.967-11.106   c1.601-3.606,4.342-6.563,6.419-9.923c1.414-2.293,2.51-4.803,3.26-7.399C302.36,79.703,312.226,82.544,322.366,86.453z"/>
	<path style="fill:#AE312F;" d="M360.502,108.896c-0.548,0.375-1.096,0.736-1.644,1.096c-3.635,2.365-20.684,12.087-21.678,2.899   c-0.418-3.895,3.303-8.351,5.856-10.875c1.197-1.169,2.279-2.409,3.332-3.635c3.303,2.135,6.548,4.442,9.721,6.923   C357.574,106.458,359.045,107.656,360.502,108.896z"/>
	<path style="fill:#AE312F;" d="M416.235,188.644c-6.592,2.77-13.63,4.385-20.77,4.226c-4.197-0.087-8.943-1.125-11.092-4.746   c-1.803-3-1.14-7.053,0.88-9.909c2.005-2.885,5.135-4.788,8.351-6.231c3.202-1.442,6.563-2.51,9.664-4.183   c0.865-0.462,1.644-0.966,2.38-1.5c1.471,2.755,2.899,5.539,4.284,8.365C412.182,179.254,414.288,183.913,416.235,188.644z"/>
	<path style="fill:#AE312F;" d="M429.389,231.367c-17.9,12.693-34.242,3.865-36.996,0.173c-3.072-4.125-0.563-12.649,12.303-13.486   c8.351-0.548,15.505-4.5,19.487-7.212C426.259,217.664,428.005,224.53,429.389,231.367z"/>
	<path style="fill:#AE312F;" d="M432.49,278.662c-5.106,0.981-10.471,0.837-15.318-0.837c-10.01-3.462-7.313-15.779,4.341-17.15   c3.765-0.447,7.76-1.745,11.452-3.289L432.49,278.662z"/>
	<path style="fill:#AE312F;" d="M391.744,143.671c-8.871,6.88-29.064,15.462-31.804,7.385c-2.236-6.563,9.52-19.357,16.746-26.41   C382.008,130.56,387.042,136.936,391.744,143.671z"/>
	<path style="fill:#AE312F;" d="M231.843,258.036c-3.822,5.986-8.899,11.928-15.145,15.174c-3.303-1.327-6.476-3-9.462-4.875   c-3.476-2.163-6.822-4.63-9.447-7.774c-2.64-3.144-4.515-7.024-4.717-11.121c-0.043-1.024,0.014-2.106,0.519-3   c0.462-0.822,1.255-1.414,2.092-1.818c2.409-1.125,5.279-0.779,7.702,0.26c2.437,1.039,4.543,2.697,6.693,4.241   c5.423,3.894,11.481,7.226,18.058,8.625C229.363,258.007,230.603,258.051,231.843,258.036z"/>
	<path style="fill:#FFC893;" d="M362.421,372.321c0,0-4.904,5.756-2.802,7.082c2.102,1.326,6.726-7.082,6.726-7.082   s-2.732,3.477,0,5.207c2.733,1.73,4.624-7.099,4.624-7.099s1.051,2.312,2.943,2.522c1.892,0.21,1.261-9.859,1.261-9.859   L362.421,372.321z"/>
	<g>
		<path style="fill:#FFFFFF;" d="M349.445,227.374l-2.827,1.529c-8.352-32.467-35.194-43.487-50.165-47.151    c-2.481-0.605-4.644-1.009-6.332-1.284c0.216-0.014,0.346-0.014,0.346-0.014c-0.288-0.087-0.562-0.188-0.822-0.289    c2.409,0.159,4.717,0.433,6.938,0.793C339.276,187.838,349.445,227.374,349.445,227.374z"/>
		<path style="fill:#9CF0E7;" d="M296.64,181.189c-0.058,0.187-0.115,0.375-0.188,0.562c-3.029,8.9-17.568,7.572-17.568,7.572    c0-7.918,9.318-8.769,11.236-8.856c0.216-0.014,0.346-0.014,0.346-0.014c-0.288-0.087-0.562-0.188-0.822-0.289    c-11.409-4.241-7.284-14.683-7.284-14.683c11.236,4.789,13.861,13.919,14.222,15.477    C296.625,181.103,296.64,181.189,296.64,181.189z"/>
		<path style="fill:#FFFFFF;" d="M297.322,170.433c0,0,5.997,7.005,7.721,12.416c0,0-4.45,6.302-12.173,8.482    c0,0,8.856-1.181,13.787-7.178C306.657,184.153,305.863,175.885,297.322,170.433z"/>
		<path style="fill:#FFFFFF;" d="M298.914,195.179c0,0,9.904,0.929,20.32-5.149c0,0,0.591-11.533-6.413-17.886    c0,0,4.304,10.111,3.586,16.808C316.406,188.952,307.922,193.773,298.914,195.179z"/>
		<path style="fill:#FFFFFF;" d="M307.583,200.11c0,0,9.673,1.727,20.843-2.818c0,0,2.906-12.032-3.13-19.311    c0,0,2.14,11.316,0.484,17.844C325.78,195.825,316.699,199.99,307.583,200.11z"/>
		<path style="fill:#FFFFFF;" d="M314.906,206.142c0,0,10.425,1.988,22.245-0.406c0,0,5.77-11.949,1.19-20.221    c0.018-1.687-0.676,11.946-3.518,18.289C334.823,203.804,325.199,206.086,314.906,206.142z"/>
		<path style="fill:#FFFFFF;" d="M322.443,213.221c0,0,9.65,4.417,21.7,4.911c0,0,8.453-10.228,5.978-19.354    c0.42-1.633-3.506,11.44-7.778,16.922C342.342,215.7,332.452,215.621,322.443,213.221z"/>
		<path style="fill:#6CE1C1;" d="M364.474,251.375c0,0-1.424,0.052-1.634,0.344c-0.277,0.386,0.148,1.646,0.148,1.646    c-1.5,1.688-3.375,2.639-5.611,2.611c-15.736-0.231-47.208-25.357-41.093-30.766c6.101-5.395,30.766,2.582,30.766,2.582    s7.27-22.775,15.26-21.607C368.773,207.137,371.845,239.23,364.474,251.375z"/>
		<path style="fill:#FFFFFF;" d="M358.296,235.85c0,2.132-1.728,3.861-3.861,3.861c-2.132,0-3.861-1.728-3.861-3.861    c0-2.132,1.728-3.861,3.861-3.861C356.568,231.989,358.296,233.718,358.296,235.85z"/>
		<path style="fill:#FFFFFF;" d="M364.474,251.375c-0.447,0.735-0.938,1.413-1.486,1.99c-0.433-0.447-8.553-4.846-8.553-4.846    S360.796,249.225,364.474,251.375z"/>
	</g>
	<g>
		<path style="fill:#FFFFFF;" d="M408.158,393.772l0.478,3.178c-33.374-3.166-52.851,18.342-61.38,31.181    c-1.412,2.128-2.526,4.026-3.357,5.52c0.06-0.208,0.104-0.331,0.104-0.331c-0.179,0.242-0.367,0.465-0.55,0.676    c0.967-2.212,2.008-4.29,3.101-6.257C367.519,389.916,408.158,393.772,408.158,393.772z"/>
		<path style="fill:#9CF0E7;" d="M346.792,427.764c0.156,0.118,0.313,0.236,0.465,0.367c7.343,5.87,1.159,19.095,1.159,19.095    c-7.448-2.688-5.086-11.741-4.516-13.575c0.06-0.208,0.104-0.331,0.104-0.331c-0.179,0.242-0.367,0.465-0.55,0.676    c-7.862,9.292-16.284,1.867-16.284,1.867c8.318-8.944,17.797-8.313,19.385-8.124C346.705,427.748,346.792,427.764,346.792,427.764    z"/>
		<path style="fill:#FFFFFF;" d="M336.906,423.47c0,0,8.625-3.263,14.3-3.048c0,0,4.417,6.325,3.846,14.33    c0,0,1.895-8.731-2.072-15.405C352.98,419.347,344.933,417.287,336.906,423.47z"/>
		<path style="fill:#FFFFFF;" d="M360.722,430.373c0,0,4.236-9,2.055-20.861c0,0-10.647-4.47-19.001-0.039    c0,0,10.971-0.616,17.027,2.333C360.803,411.806,362.458,421.423,360.722,430.373z"/>
		<path style="fill:#FFFFFF;" d="M368.303,423.893c0,0,4.908-8.512,4.424-20.562c0,0-10.331-6.818-19.227-3.611    c0,0,11.37,1.828,16.949,5.603C370.45,405.322,371.285,415.277,368.303,423.893z"/>
		<path style="fill:#FFFFFF;" d="M376.463,419.052c0,0,5.409-9.131,7.169-21.062c0,0-9.281-9.483-18.616-7.983    c-1.58-0.59,11.007,4.691,16.008,9.517C381.024,399.525,379.905,409.352,376.463,419.052z"/>
		<path style="fill:#FFFFFF;" d="M387.675,414.238c0,0,6.498-8.391,9.723-20.011c0,0-8.034-10.56-17.484-10.228    c-1.495-0.781,10.341,6.019,14.706,11.428C394.621,395.426,392.292,405.039,387.675,414.238z"/>
		<path style="fill:#6CE1C1;" d="M435.836,387.782c0,0-0.41,1.464-0.187,1.796c0.24,0.358,1.555,0.277,1.555,0.277    c1.078,1.984,1.337,4.071,0.551,6.164c-5.559,14.723-39.876,35.798-42.888,28.21c-3.003-7.57,12.872-28.062,12.872-28.062    s-18.955-14.569-15.144-21.689C395.685,368.722,426.914,376.726,435.836,387.782z"/>
		<path style="fill:#FFFFFF;" d="M419.136,388.323c2.006,0.724,3.045,2.937,2.321,4.942c-0.724,2.006-2.936,3.045-4.942,2.321    c-2.006-0.724-3.045-2.936-2.321-4.942C414.918,388.638,417.13,387.599,419.136,388.323z"/>
		<path style="fill:#FFFFFF;" d="M435.836,387.782c0.54,0.671,1.011,1.362,1.368,2.073c-0.568,0.255-7.462,6.4-7.462,6.4    S432.566,390.512,435.836,387.782z"/>
	</g>
	<circle style="fill:#FFC893;" cx="445.255" cy="88.526" r="25.743"/>
	<path style="fill:#FFC893;" d="M480.353,118.373c0,4.162-3.374,7.537-7.537,7.537c-4.163,0-7.537-3.374-7.537-7.537   c0-4.163,3.374-7.537,7.537-7.537C476.979,110.835,480.353,114.21,480.353,118.373z"/>
	
		<ellipse transform="matrix(0.9871 -0.1602 0.1602 0.9871 -70.7437 52.9204)" style="fill:#FFC893;" cx="292.87" cy="465.252" rx="22.097" ry="22.097"/>
	<path style="fill:#FFC893;" d="M226.928,447.226c0,4.722-3.827,8.549-8.549,8.549c-4.722,0-8.549-3.828-8.549-8.549   c0-4.721,3.828-8.549,8.549-8.549C223.101,438.677,226.928,442.505,226.928,447.226z"/>
	
		<ellipse transform="matrix(0.9239 -0.3827 0.3827 0.9239 -130.0414 58.5671)" style="fill:#FFC893;" cx="82.197" cy="356.164" rx="15.478" ry="15.478"/>
	<path style="fill:#FFC893;" d="M89.647,330.582c0,3.001-2.433,5.434-5.434,5.434c-3.002,0-5.435-2.433-5.435-5.434   c0-3.001,2.433-5.435,5.435-5.435C87.214,325.147,89.647,327.58,89.647,330.582z"/>
</g>















</svg>
