<?xml version="1.0" encoding="UTF-8"?>
<!-- Generator: Adobe Illustrator 25.2.3, SVG Export Plug-In . SVG Version: 6.00 Build 0)  -->
<svg xmlns="http://www.w3.org/2000/svg" xmlns:xlink="http://www.w3.org/1999/xlink" version="1.1" id="Capa_1" x="0px" y="0px" viewBox="0 0 512 512" style="enable-background:new 0 0 512 512;" xml:space="preserve" width="512" height="512">
<g>
	<path style="fill:#9CF0E7;" d="M149.234,298.625c0,0,11.007-28.853-104.913-14.291c-63.179,7.937-43.932-42.131,19.724-51.819   c63.657-9.688-4.042-10.032,4.255-25.484c8.297-15.453,154.329-10.292,153.334-21.574c-0.703-7.97-11.401-8.918-33.385-7.487   c0,0,66.854-19.465,73.822,6.467c7.885,29.349-142.439,13.456-148.715,21.634c-6.276,8.178,59.174,10.629,44.829,22.884   c-14.345,12.254-99.097,16.203-99.52,30.023C58.161,275.474,175.161,259.519,149.234,298.625z"/>
	<path style="fill:#9CF0E7;" d="M299,118.649c0,0,6.126-35.182,46.137-35.382s48.33,37.751,48.33,37.751s3.514-11.135,12.415-11.026   c8.901,0.109,12.54,17.248,12.54,17.248s9.878-10.381,31.713-5.182C471.969,127.256,512,135.76,512,135.76H254.085L299,118.649z"/>
	<ellipse style="fill:#FFC893;" cx="78.901" cy="431.218" rx="77.325" ry="35.904"/>
	<path style="fill:#FFC893;" d="M477.122,375.756c0,17.654-14.964,34.039-40.608,47.648c-9.903-12.256-34.897-20.953-64.143-20.953   c-37.932,0-68.683,14.629-68.683,32.675c0,7.973,5.988,15.258,15.937,20.929c-25.307,3.275-52.607,5.054-81.065,5.054   C106.812,461.109,0,422.894,0,375.756c0-47.137,106.812-85.353,238.561-85.353C370.322,290.403,477.122,328.619,477.122,375.756z"/>
	<ellipse style="opacity:0.2;fill:#AE312F;" cx="258.406" cy="356.462" rx="161.993" ry="49.677"/>
	<ellipse style="opacity:0.4;fill:#FFFFFF;" cx="109.409" cy="406.139" rx="70.947" ry="30.342"/>
	<polygon style="fill:#FF9D3D;" points="170.226,423.59 145.49,392.124 188.278,369.724 212.468,399.199  "/>
	<polygon style="opacity:0.4;fill:#AE312F;" points="170.226,423.59 145.49,392.124 188.278,369.724 212.468,399.199  "/>
	<path style="opacity:0.4;fill:#FFFFFF;" d="M47.881,378.565c0,3.66-6.937,6.627-15.495,6.627c-8.558,0-15.496-2.967-15.496-6.627   c0-3.66,6.938-6.627,15.496-6.627C40.944,371.939,47.881,374.905,47.881,378.565z"/>
	<path style="opacity:0.4;fill:#FFFFFF;" d="M44.536,363.073c0,1.435-2.72,2.598-6.075,2.598s-6.076-1.163-6.076-2.598   c0-1.435,2.72-2.598,6.076-2.598S44.536,361.638,44.536,363.073z"/>
	<path style="opacity:0.4;fill:#FFFFFF;" d="M140.741,443.822c0,1.435-2.72,2.598-6.075,2.598s-6.075-1.163-6.075-2.598   c0-1.435,2.72-2.598,6.075-2.598S140.741,442.387,140.741,443.822z"/>
	<path style="opacity:0.4;fill:#FFFFFF;" d="M170.072,437.342c0,2.407-4.562,4.358-10.189,4.358c-5.627,0-10.189-1.951-10.189-4.358   c0-2.407,4.562-4.357,10.189-4.357C165.51,432.984,170.072,434.935,170.072,437.342z"/>
	<ellipse style="opacity:0.2;fill:#AE312F;" cx="431.907" cy="383.615" rx="6.075" ry="2.598"/>
	<path style="opacity:0.2;fill:#AE312F;" d="M461.238,374.537c0,2.407-4.562,4.358-10.189,4.358s-10.189-1.951-10.189-4.358   c0-2.407,4.562-4.358,10.189-4.358S461.238,372.13,461.238,374.537z"/>
	<path style="fill:#AE312F;" d="M179.081,398.657c-5.837,4.46-10.226,11.162-10.219,18.713c0.006,6.71,4.179,12.144,10.842,13.434   c13.485,2.61,34.819-7.352,35.232-22.825c0.323-12.075-11.515-17.298-21.903-15.513   C188.186,393.298,183.23,395.486,179.081,398.657z"/>
	<polygon style="fill:#FF9D3D;" points="86.657,422.377 118.629,403.832 88.507,378.565 62.359,387.651  "/>
	<polygon style="opacity:0.4;fill:#AE312F;" points="87.139,422.211 119.111,403.666 88.989,378.4 62.841,387.486  "/>
	<path style="fill:#AE312F;" d="M61.28,388.152c-4.721,2.375-7.698,7.542-8.13,12.809c-0.432,5.267,1.451,10.551,4.495,14.871   c4.471,6.344,11.965,10.927,19.706,10.368c7.741-0.559,15.025-7.239,14.832-14.998c-0.146-5.888-3.538-12.624-7.016-17.253   C79.44,386.324,69.901,383.816,61.28,388.152z"/>
	<g>
		<g>
			<path style="fill:#FF9D3D;" d="M475.319,166.243c-1.065,4.181-7.644,6.555-15.358,9.254     c-10.737,3.753-23.663,8.131-26.987,18.798c-2.965,9.486-0.428,21.358,2.803,34.272c1.76,7.135,3.741,14.57,5.119,22.11     c1.274,6.984,2.027,14.049,1.61,20.999c-1.598,26.639-32.048,52.225-62.915,53.51c-30.879,1.286,3.857-16.076,3.857-16.076     s22.111-3.359,34.62-18.729c3.463-4.25,6.185-9.416,7.505-15.683c0.093-0.428,0.173-0.857,0.243-1.285     c2.861-16.783-6.266-38.859-9.104-59.754c-0.984-7.216-1.216-14.292,0.058-20.964c1.402-7.366,4.645-14.246,10.737-20.269     c3.22-3.185,6.347-5.803,9.37-7.945C460.146,147.954,476.94,159.861,475.319,166.243z"/>
			<path style="opacity:0.2;fill:#AE312F;" d="M475.319,166.243c-1.065,4.181-7.644,6.555-15.358,9.254     c-10.737,3.753-23.663,8.131-26.987,18.798c-2.965,9.486-0.428,21.358,2.803,34.272c1.76,7.135,3.741,14.57,5.119,22.11     c1.274,6.984,2.027,14.049,1.61,20.999c-1.598,26.639-32.048,52.225-62.915,53.51c-30.879,1.286,3.857-16.076,3.857-16.076     s22.111-3.359,34.62-18.729c3.463-4.25,6.185-9.416,7.505-15.683c0.093-0.428,0.173-0.857,0.243-1.285     c2.861-16.783-6.266-38.859-9.104-59.754c-0.984-7.216-1.216-14.292,0.058-20.964c1.402-7.366,4.645-14.246,10.737-20.269     c3.22-3.185,6.347-5.803,9.37-7.945C460.146,147.954,476.94,159.861,475.319,166.243z"/>
		</g>
		<path style="fill:#AE312F;" d="M475.319,166.243c-1.065,4.181-7.644,6.555-15.358,9.254c2.814-3.996,6.359-6.764,6.359-6.764    c-17.628,3.035-25.805-1.448-29.442-4.251C460.146,147.954,476.94,159.861,475.319,166.243z"/>
		<path style="fill:#AE312F;" d="M424.658,206.572c-0.927,4.818-4.691,6.533-7.945,7.088c-0.984-7.216-1.216-14.292,0.058-20.964    C420.859,196.056,425.689,201.268,424.658,206.572z"/>
		<path style="fill:#AE312F;" d="M440.896,250.678c-3.521,0.023-7.447-1.425-10.285-6.66c-3.996-7.378,0.892-12.578,5.166-15.451    C437.537,235.702,439.518,243.138,440.896,250.678z"/>
		<path style="fill:#AE312F;" d="M431.364,289.398c-3.417,4.309-9.949,2.374-13.296,0.984c3.463-4.25,6.185-9.416,7.505-15.683    c0.093-0.428,0.173-0.857,0.243-1.285C429.499,277.977,434.491,285.448,431.364,289.398z"/>
	</g>
	<g>
		<path style="fill:#FF9D3D;" d="M173.151,228.119c0,0-6.618-7.028-18.93-9.242l0.006-0.003c0,0-5.736-6.638-7.472-6.018    c-1.736,0.62,1.743,5.393,1.743,5.393s-4.966-4.277-7.074-3.409c-0.911,0.375-0.127,1.933,1.056,3.58    c-1.925,0.179-3.93,0.479-6.022,0.935c-23.618,5.145-13.042,46.592-13.042,46.592s-23.211-1.774-25.142,3.83    c-1.932,5.604,29.144,7.484,40.006,20.978c10.862,13.494,25.738,22.641,32.449,20.64    C177.439,309.395,173.151,228.119,173.151,228.119z"/>
		<path style="opacity:0.2;fill:#AE312F;" d="M173.151,228.119c0,0-6.618-7.028-18.93-9.242l0.006-0.003    c0,0-5.736-6.638-7.472-6.018c-1.736,0.62,1.743,5.393,1.743,5.393s-4.966-4.277-7.074-3.409c-0.911,0.375-0.127,1.933,1.056,3.58    c-1.925,0.179-3.93,0.479-6.022,0.935c-23.618,5.145-13.042,46.592-13.042,46.592s-23.211-1.774-25.142,3.83    c-1.932,5.604,29.144,7.484,40.006,20.978c10.862,13.494,25.738,22.641,32.449,20.64    C177.439,309.395,173.151,228.119,173.151,228.119z"/>
	</g>
	<path style="fill:#FF9D3D;" d="M370.406,126.133c-1.685,26.431-15.591,42.344-46.526,53.893   c-43.944,15.439-119.634-9.15-119.634-9.15c-16.784-17.743-20.388-50.257-7.621-74.509c9.155-17.958,29.862-28.312,52.12-31.41   c33.97-4.595,87.962-3.943,109.488,20.558C367.943,96.397,370.44,112.149,370.406,126.133z"/>
	<path style="fill:#FF9D3D;" d="M401.505,275.557c-2.219,48.916-24.766,104.921-78.749,113.993   c-2.19,0.824-11.262,1.338-12.786,0.14c0,0-19.423-32.929-19.423-32.929c-29.988-10.01-91.208-28.996-121.51-37.237   c0,0-28.052-84.412,38.708-151.647c28.782-28.979,68.058-40.168,107.38-28.748c18.757,5.637,37.066,15.153,51.739,28.087   C396.866,194.413,403.809,236.708,401.505,275.557z"/>
	<path style="fill:#FFC893;" d="M187.052,339.212c15.533,12.655,35.435,22.998,55.037,27.414   c11.911,2.683,26.799,3.123,37.541-3.583c10.432-6.513,16.247-20.598,19.021-31.973c5.267-21.605,11.185-48.378,7.619-70.295   c-2.741-16.849-10.561-33.957-21.979-46.706c-7.663-8.556-17.387-15.989-29.371-17.114c-1.454-3.053-1.295-6.305-5.5-5.844   c-2.87,0.315-1.389,5.999-1.389,5.999s-2.572-5.664-5.686-5.593c-3.113,0.071-0.002,6.325,0,6.33   c-1.52-3.055-25.037,4.882-27.185,5.742c-20.227,8.103-30.474,27.649-36.435,47.408c-6.676,22.131-10.028,45.021-2.122,67.34   C179.209,325.693,182.809,332.67,187.052,339.212z"/>
	<g>
		<path style="fill:#FFFFFF;" d="M320.192,149.915c-6.087,4.456-15.799,6.184-22.949,3.663c-1.527-0.54-2.956-1.296-4.248-2.301    c-5.594-4.396-8.929-12.323-9.178-19.379c-0.018-0.162-0.023-0.326-0.028-0.49c-0.12-7.125,3.754-13.702,9.855-17.31    c7.142-4.219,17.925-5.918,24.836-0.423c2.726,2.172,4.922,5.24,6.44,8.727l0.013-0.002    C329.01,131.681,328.34,143.938,320.192,149.915z"/>
		<path style="fill:#AE312F;" d="M320.192,149.915c-6.921,4.812-16.449,6.516-24.421,3.439c-8.035-3.751-12.242-12.9-12.925-21.422    l0.006,0.075c-1.366-22.888,34.385-32.616,42.492-9.79l-0.474-0.275c0.012-0.001,0.35-0.029,0.363-0.031    C329.041,131.008,328.703,143.598,320.192,149.915z M320.192,149.915c8.357-6.228,8.464-18.597,4.318-27.33l0.473,0.273    c-0.009,0.001-0.327,0.044-0.338,0.045c-1.99-4.346-5.184-8.531-9.664-10.381c-10.669-3.976-25.107,1.561-29.07,12.536    c-2.798,8.046-0.151,17.489,5.282,23.871C298.368,157.122,311.877,155.638,320.192,149.915z"/>
	</g>
	<path style="fill:#AE312F;" d="M259.264,135.753c0,0-3.717-4.265-5.515-3.393c-1.798,0.873,3.795,7.332,5.865,7.878   c2.07,0.547,6.317-6.689,5.164-8.01C263.625,130.909,259.264,135.753,259.264,135.753z"/>
	<path style="fill:#AE312F;" d="M266.935,164.474c-0.761-2.03-1.441-4.086-2.154-6.133l-1.989-6.186   c-0.663-2.063-1.257-4.146-1.861-6.229c-0.572-2.096-1.15-4.175-1.576-6.35l1.133,0.03c-0.925,4.08-1.748,8.197-2.539,12.312   c-0.388,2.059-0.756,4.124-1.058,6.198c-0.338,2.07-0.595,4.15-0.795,6.245c-0.058-2.105,0.088-4.21,0.239-6.312   c0.185-2.099,0.461-4.188,0.744-6.275c0.585-4.174,1.378-8.306,2.282-12.426l0.603-2.748l0.53,2.777   c0.396,2.075,0.957,4.177,1.5,6.261l1.659,6.269l1.676,6.271C265.856,160.278,266.427,162.366,266.935,164.474z"/>
	<path style="fill:#AE312F;" d="M305.507,148.843c5.683,0.186,11.686-2.654,14.52-7.711c4.515-8.059,0.918-19.444-7.471-23.214   c-4.504-2.024-10.333-1.912-14.679,0.49c-11.613,6.418-8.551,24.89,3.07,29.518C302.378,148.495,303.925,148.791,305.507,148.843z"/>
	<g>
		<path style="fill:#FFFFFF;" d="M238.172,139.879c-2.482,6.049-9.381,9.021-15.493,9.493c-0.843,0.054-1.681,0.039-2.501-0.06    c-9.915-1.168-17.077-13.608-14.528-23.187c0.245-0.987,0.616-1.947,1.087-2.863c4.165-8.007,16.659-12.269,24.721-7.864    c1.945,1.082,3.339,2.993,4.391,4.902c0.723,1.302,1.369,2.778,1.903,4.348C239.459,129.567,240.02,135.381,238.172,139.879z"/>
		<path style="fill:#AE312F;" d="M238.172,139.879c-2.775,6.55-10.388,9.697-17.146,9.868c-7.358-0.263-13.273-6.187-15.715-12.843    c-1.691-4.526-1.834-9.921,0.467-14.288c4.853-8.533,16.562-12.275,25.331-8.023C238.353,118.677,241.089,132.533,238.172,139.879    z M238.172,139.879c2.427-6.526,0.584-13.969-2.848-19.766c-4.748-8.397-16.854-6.365-23.345-1.246    c-5.482,3.931-6.934,11.227-4.787,17.394c1.9,6.241,7.043,12.114,13.871,12.764C227.736,149.333,235.392,146.351,238.172,139.879z    "/>
	</g>
	<path style="fill:#AE312F;" d="M216.324,141.595c0.424,0.295,4.508,4.483,12.406,1.267c7.898-3.216,6.08-13.596,4.543-16.907   c-1.536-3.312-6.421-9.989-15.467-6.642C208.762,122.658,209.038,136.522,216.324,141.595z"/>
	<path style="fill:#FF9D3D;" d="M251.944,65.562c-0.392,0.291-6.739,4.996-13.51,8.488c-2.32,1.181-4.681,2.229-6.88,2.902   c-3.561,1.101-6.684,1.235-8.411-0.584c-0.747-0.793-1.429-1.853-2.039-3.127c-0.069-0.129-0.14-0.272-0.196-0.403   c-2.962-6.448-4.072-17.476-2.5-23.696c0.434-1.735,1.077-3.082,1.934-3.864c0.335-0.312,0.695-0.517,1.106-0.646   c6.519-1.97,12.492,1.178,16.632,5.917c2.848,3.255,5,7.382,8.172,10.353c0.244,0.219,2.302,2.179,3.889,3.493l0.377,0.3   C251.212,65.261,251.773,65.623,251.944,65.562z"/>
	<path style="fill:#FF9D3D;" d="M359.996,87.589c-0.653-0.077-43.44-5.49-44.354-18.418c-0.085-1.237-0.062-2.487,0.059-3.72   c1.092-11.798,10.745-23.015,15.503-23.224l0.014-0.001c5.25-0.223,8.346,10.923,12.401,19.399   C347.606,69.984,359.635,87.055,359.996,87.589z"/>
	<path style="fill:#AE312F;" d="M324.047,67.264c-4.688-1.347-8.175-1.775-8.357-1.809c1.092-11.798,10.745-23.015,15.503-23.224   l0.014-0.002c0.966,2.604,2.099,5.723,0.862,12.838c-0.127,0.699-0.201,1.379-0.249,2.043   C331.053,66.938,328.336,66.41,324.047,67.264z"/>
	<path style="fill:#AE312F;" d="M231.404,66.828c0,0-0.866,1.235-5.755,4.31c-1.781,0.612-3.453,1.212-4.741,1.7   c-2.962-6.448-4.072-17.476-2.5-23.696c0.434-1.735,1.077-3.082,1.934-3.864c0,0,2.531,0.934,4.871,6.602   c0.85,2.069,1.609,4.052,2.473,5.873C229.734,62.057,231.404,66.828,231.404,66.828z"/>
	<path style="opacity:0.48;fill:#EB4949;" d="M299.024,157.761c-2.954,2.226-3.231,6.55,0.349,8.567   c4.794,2.702,13.589,1.789,17.581-2.078c3.371-3.265,0.971-8.839-2.89-9.686c-3.264-0.716-6.675-0.277-9.797,0.742   C302.816,155.779,300.68,156.513,299.024,157.761z"/>
	<path style="opacity:0.48;fill:#EB4949;" d="M223.184,152.76c2.917,2.275,3.122,6.602-0.491,8.561   c-4.838,2.622-13.617,1.563-17.545-2.37c-3.316-3.32-0.824-8.854,3.051-9.637c3.275-0.662,6.679-0.166,9.783,0.904   C219.425,150.715,221.549,151.485,223.184,152.76z"/>
	<path style="fill:#AE312F;" d="M288.241,62.885c-5.327,5-9.18,12.493-12.255,18.143c-1.691,3.096-3.222,6.284-4.639,9.513   c-1.069,2.423-3.067,4.868-5.849,5.348c-3.495,0.6-6.711-1.544-8.577-4.361c-2.343-3.517-2.566-7.794-2.083-11.877   c0.69-5.778,3.09-11.339,6.539-16.099c0.286-0.019,0.585-0.039,0.884-0.059C271.51,62.885,280.175,62.686,288.241,62.885z"/>
	<path style="fill:#AE312F;" d="M200.286,126.416c-3.74,0.738-7.69-0.391-11.218-2.144c0.028-0.359,0.056-0.719,0.096-1.093   c0.029-0.346,0.057-0.705,0.099-1.066c0.35-3.205,0.849-6.426,1.556-9.63C198.287,118.791,207.295,125.021,200.286,126.416z"/>
	<path style="fill:#AE312F;" d="M199.406,136.337c-2.428,1.549-6.2,1.879-9.781,1.722c-0.108-0.837-0.205-1.69-0.289-2.557   c-0.174-1.899-0.384-3.861-0.38-5.889c0.004-0.083-0.003-0.15,0.001-0.233C196.368,131.173,203.688,133.606,199.406,136.337z"/>
	<path style="fill:#AE312F;" d="M198.838,109.48c-2.095-0.229-4.326-1.416-6.419-2.961c0.027-0.126,0.067-0.254,0.108-0.382   c0.864-2.66,1.895-5.298,3.14-7.864C200.092,104.09,203.694,110.013,198.838,109.48z"/>
	<path style="fill:#AE312F;" d="M306.413,64.119c-1.398,1.569-2.968,3.323-4.093,4.642c-3.556,4.184-7.243,9.986-10.057,10.674   c-5.879,1.446-8.403-4.271-4.694-10.253c1.692-2.726,4.084-4.723,6.189-6.098l0.013-0.001   C298.181,63.296,302.385,63.643,306.413,64.119z"/>
	<path style="fill:#AE312F;" d="M258.336,63.798c-2.972,4.008-6.122,10.695-9.216,11.812c-4.661,1.678-8.395-1.901-6.435-4.562   c1.9-2.585,4.123-4.618,6.066-6.098C251.795,64.483,254.985,64.095,258.336,63.798z"/>
	<path style="opacity:0.21;fill:#AE312F;" d="M324.919,122.401c-25.929-8.881-39.478,7.381-41.103,9.496   c-0.018-0.162-0.023-0.326-0.028-0.49c-0.12-7.125,3.754-13.702,9.855-17.31c7.142-4.219,17.925-5.918,24.836-0.423   C321.205,115.846,323.402,118.914,324.919,122.401z"/>
	<path style="opacity:0.21;fill:#AE312F;" d="M237.752,124.648c-11.496-5.332-25.155-1.308-32.102,1.477   c0.245-0.987,0.616-1.947,1.087-2.863c4.165-8.007,16.659-12.269,24.721-7.864c1.945,1.082,3.339,2.993,4.391,4.902   C236.572,121.603,237.218,123.078,237.752,124.648z"/>
	<path style="fill:#AE312F;" d="M365.322,96.714c-20.628,13.737-28.979-0.325-20.072-3.741c4.98-1.911,9.532-4.934,12.984-7.459   c0.556,0.614,1.089,1.239,1.587,1.876C362.102,90.263,363.944,93.378,365.322,96.714z"/>
	<path style="fill:#AE312F;" d="M370.225,118.553l0.011,0.095c-0.003,0.452,0.018,0.888,0.026,1.326   c-8.086,4.107-18.179,6.947-26.58,4.265c-3.17-1.012-6.065-3.713-5.31-6.854c0.31-1.255,1.195-2.396,2.315-3.276   c3.308-2.621,8.125-3.522,12.311-4.434c4.76-1.045,10.266-3.736,14.536-6.206C368.921,108.589,369.834,113.637,370.225,118.553z"/>
	<path style="fill:#AE312F;" d="M370.411,126.137c-0.192,5.818-1.217,11.415-3.151,16.73c-5.658,1.585-11.994,0.931-17.281-1.472   c-2.355-1.076-4.544-2.98-4.287-5.805c0.331-3.737,5.172-4.668,8.143-4.935C361.893,129.937,367.485,127.647,370.411,126.137z"/>
	<path style="fill:#AE312F;" d="M188.688,166.242c3.437-1.671,6.988-3.01,10.568-4.268c3.591-1.225,7.211-2.367,10.947-3.174   c-3.436,1.673-6.988,3.013-10.568,4.268C196.043,164.291,192.423,165.432,188.688,166.242z"/>
	<path style="fill:#AE312F;" d="M185.857,158.394c3.607-0.787,7.246-1.225,10.893-1.576c3.65-0.317,7.308-0.546,10.998-0.423   c-3.607,0.79-7.246,1.227-10.893,1.576C193.205,158.285,189.547,158.514,185.857,158.394z"/>
	<path style="fill:#AE312F;" d="M186.985,146.751c3.586,0.879,7.047,2.087,10.477,3.375c3.418,1.32,6.804,2.723,10.064,4.456   c-3.587-0.877-7.047-2.084-10.477-3.374C193.632,149.884,190.246,148.481,186.985,146.751z"/>
	<path style="fill:#FFFFFF;" d="M326.932,63.814c0,0-2.645,0.121-3.417-0.408c-0.786-0.528,3.249-1.08,3.249-1.08   c-2.114-0.638-4.032-2.819-3.347-2.938c0.697-0.134,3.25,1.359,3.25,1.359c-2.854-3.309-1.721-8.918,1.039-8.873   c1.18,0.017,2.731,2.459,4.113,5.235c-0.766,9.829,5.811,16.252,6.967,17.026c-4.745-3.424-10.277-5.58-14.739-6.871   C324.503,65.24,326.932,63.814,326.932,63.814z"/>
	<path style="fill:#FFFFFF;" d="M225.649,71.138c0.133-2.221,2.078-5.496,2.252-5.777c-0.168,0.087-1.945,1.096-2.866,0.707   c-0.964-0.412,2.008-1.994,2.008-1.994s-2.373,0.46-2.644-0.236c-0.282-0.681,2.174-0.767,2.174-0.767   c-1.836-0.847-5.475-5.163-3.477-6.636c1.303-0.956,3.323,0.31,4.589,1.318c2.049,4.304,4.718,7.674,10.878,9.075   C238.563,66.828,231.449,69.112,225.649,71.138z"/>
	<path style="opacity:0.48;fill:#AE312F;" d="M250.553,141.206c-3.393,0.913-6.602,3.145-8.448,6.513   c-2.676,4.882-3.01,10.902,0.783,15.118c2.354,2.617,5.586,3.972,8.813,4.751c6.184,1.492,12.432,2.536,18.646,0.574   c2.254-0.712,4.464-1.772,6.259-3.482c2.752-2.619,4.345-6.738,4.176-10.799c-0.169-4.06-2.095-7.967-5.049-10.24   c-3.635-2.797-8.946-3.542-13.264-3.341C258.621,140.478,254.284,140.202,250.553,141.206z"/>
	<path style="fill:#AE312F;" d="M324.694,155.262c3.821-0.044,7.605,0.26,11.379,0.65c3.77,0.425,7.531,0.937,11.254,1.801   c-3.822,0.047-7.605-0.258-11.379-0.65C332.178,156.636,328.417,156.123,324.694,155.262z"/>
	<path style="fill:#AE312F;" d="M348.36,148.277c-3.57,0.941-7.187,1.534-10.815,2.042c-3.633,0.473-7.278,0.86-10.97,0.895   c3.57-0.944,7.187-1.537,10.815-2.042C341.023,148.701,344.668,148.315,348.36,148.277z"/>
	<path style="fill:#AE312F;" d="M343.921,138.731c-2.792,2.415-5.78,4.538-8.816,6.59c-3.055,2.023-6.159,3.973-9.459,5.628   c2.791-2.417,5.779-4.54,8.816-6.59C337.518,142.338,340.622,140.388,343.921,138.731z"/>
	<path style="opacity:0.48;fill:#AE312F;" d="M323.194,176.081c3.825-1.008,7.695-2.217,11.013-4.388   c-0.192,0.46-2.225,2.941-0.845,2.788c0.584-0.187,1.144-1.225,1.471-1.832c1.155-2.183,1.89-4.729,2.315-7.143   c1.66,4.693,3.688,7.716,5.401,0.879c4.063-0.036,7.891-2.225,10.761-5.007c-2.565,3.175-6.27,5.533-10.408,5.902l0.44-0.364   c-0.954,5.563-4.458,6.351-6.557,0.805l1.108-0.103c-0.76,2.5-1.762,6.838-4.393,7.876c-1.94,0.125-1.818-1.734-0.904-2.8   l0.548,0.609C330.016,174.871,326.617,175.609,323.194,176.081z"/>
	<path style="opacity:0.48;fill:#AE312F;" d="M197.281,161.233c2.292,3.207,4.286,6.969,7.431,9.386   c-0.103,0.815,0.373,5.658,1.694,4.178c0.754-1.701,0.353-4.117,0.359-5.951c1.238,2.177,2.537,4.781,4.491,6.375   c2.854,1.872,1.557-2.038,0.866-3.378c3.048,1.839,6.275,3.531,9.764,4.38c-3.214-0.338-6.25-1.595-9.122-3.046l0.57-0.529   c0.794,1.335,1.202,4.197-1.129,4.072c-2.649-0.532-3.93-3.217-5.289-5.255l1.079-0.314c0.529,7.241-4.762,6.311-4.226-0.295   l0.207,0.409C200.932,168.518,199.154,164.793,197.281,161.233z"/>
	<path style="fill:#FF5555;" d="M96.917,398.33c36.997,13.806,85.368,6.803,105.704-30.679c2.652-4.887,10.454-18.935,6.963-24.872   c-2.693-4.581-9.911-0.982-11.865,3.272c0,0,10.624-28.141-11.862-41.884c-9.77-5.971-20.716-10.803-30.661-16.835   c-10.398-6.308-17.693-14.691-24.534-24.659c-5.518-8.04-13.937-17.088-24.624-12.014c-11.804,5.603-9.535,23.976-9.514,34.647   c0.018,8.794,0.453,17.641,1.402,26.388c0,0-23.232-2.618-22.578,20.942c0,0-23.232-2.29-18.324,25.196   C60.594,377.816,77.419,391.054,96.917,398.33z"/>
	<path style="fill:#FF5555;" d="M72.638,322.691c0,2.061-1.671,3.732-3.732,3.732c-2.061,0-3.732-1.671-3.732-3.732   c0-2.061,1.671-3.732,3.732-3.732C70.967,318.959,72.638,320.629,72.638,322.691z"/>
	<path style="fill:#FF5555;" d="M98.273,244.593c0,3.36-2.724,6.085-6.085,6.085c-3.36,0-6.085-2.724-6.085-6.085   c0-3.361,2.724-6.085,6.085-6.085C95.548,238.508,98.273,241.233,98.273,244.593z"/>
	<path style="fill:#FF5555;" d="M146.532,261.345c0,1.855-1.504,3.358-3.359,3.358c-1.855,0-3.358-1.504-3.358-3.358   c0-1.855,1.503-3.358,3.358-3.358C145.028,257.987,146.532,259.49,146.532,261.345z"/>
	<path style="fill:#FF5555;" d="M149.89,250.678c0,1.18-0.957,2.137-2.137,2.137c-1.18,0-2.137-0.957-2.137-2.137   c0-1.18,0.957-2.137,2.137-2.137C148.934,248.541,149.89,249.498,149.89,250.678z"/>
	<path style="fill:#FF5555;" d="M214.496,321.225c0,2.713-2.199,4.912-4.912,4.912c-2.713,0-4.912-2.199-4.912-4.912   c0-2.713,2.199-4.912,4.912-4.912C212.297,316.313,214.496,318.512,214.496,321.225z"/>
	<path style="fill:#FF9D3D;" d="M105.68,383.095c13.698,9.922,36.487,12.238,51.135,2.839c16.792-10.775,16.357-35.398,5.807-49.858   c-3.877-5.314-9.289-9.786-15.81-12.028c-2.835-0.974-5.874-1.59-8.876-1.273c-3.845,0.406-7.044,2.456-8.847,5.635   c-3.087,5.443-1.792,12.563-6.025,17.511c-2.01,2.35-4.96,2.768-7.998,2.943c-8.17,0.471-14.504,7.63-16.501,14.576   C96.377,371.054,99.019,378.27,105.68,383.095z"/>
	<path style="fill:#AE312F;" d="M309.72,306.286c-41.183-19.316-119.75-55.986-122.345-56.529l0.106-0.511l-0.467-0.467   c0.424-0.426,0.664-0.672,62.154,27.941c30.21,14.058,60.738,28.375,61.042,28.517L309.72,306.286z"/>
	<path style="fill:#FF9D3D;" d="M333.281,383.288c-18.207,17.338-46.897,0-46.897,0c-22.342,22.643-43.19,19.319-44.511,4.922   c-0.209-2.131,0.035-4.517,0.753-7.1c5.594-19.933,6.984-68.057,9.567-72.934c0-0.012,0.012-0.012,0.012-0.023   c2.583-4.876,11.547-7.424,17.825,3.753c6.614,11.744,3.73,33.982,3.544,35.326c12.254-47.638,35.442-66.691,49.827-67.305   c14.408-0.614,22.018,28.25,22.018,28.25S351.488,365.938,333.281,383.288z"/>
	<path style="opacity:0.48;fill:#AE312F;" d="M273.392,347.715c0.889,0.843,1.705,1.76,2.479,2.718   c0.776,0.958,1.475,1.986,2.006,3.147c0.224,0.601,0.494,1.211,0.419,1.975c-0.113,0.792-0.564,1.438-1.294,1.791   c-0.738,0.311-1.51,0.218-2.146,0.019c-0.654-0.209-1.222-0.493-1.794-0.88l0.839-0.664c0.99,2.368,1.912,4.739,2.39,7.333   c0.084,0.667,0.213,1.313,0.038,2.103c-0.142,0.411-0.291,0.874-0.899,1.103c-0.633,0.184-1.084-0.169-1.355-0.39   c-1.051-1.034-1.532-2.207-2.08-3.395l0.757-0.12c-0.222,1.354-0.5,2.669-0.906,3.963c-0.401,1.289-0.866,2.561-1.47,3.762   c0.398-1.283,0.751-2.57,0.995-3.881c0.244-1.305,0.481-2.625,0.59-3.929l0.114-1.359l0.644,1.239   c0.556,1.071,1.229,2.222,2.014,2.949c0.201,0.167,0.373,0.194,0.357,0.171c-0.003,0.02,0.046-0.055,0.095-0.103l0.09-0.251   c0.092-0.461-0.003-1.093-0.09-1.671c-0.22-1.192-0.598-2.387-0.99-3.57c-0.394-1.184-0.839-2.366-1.313-3.514l-0.749-1.812   l1.587,1.148c0.86,0.622,2.066,1.167,2.892,0.85c0.39-0.137,0.753-0.595,0.824-1.001c0.094-0.467-0.083-1.049-0.251-1.588   c-0.408-1.095-1.043-2.134-1.679-3.162C274.857,349.669,274.131,348.689,273.392,347.715z"/>
	<path style="opacity:0.48;fill:#AE312F;" d="M286.379,383.283c1.225-2.273,2.578-4.398,3.885-6.553l1.947-3.235l1.884-3.316   c-0.389,2.572-1.528,4.956-2.844,7.154c-0.684,1.089-1.411,2.15-2.222,3.148C288.225,381.48,287.363,382.439,286.379,383.283z"/>
	<path style="opacity:0.48;fill:#AE312F;" d="M256.096,224.286c-1.157-2.156-3.163-6.586-6.11-5.662   c-1.704,2.467,1.69,9.446,2.721,12.182c-2.184-0.579-4.54-1.178-6.796-0.958c-0.581,0.046-1.132,0.355-1.208,0.56   c-0.113,0.142,0.282,0.753,0.728,1.134c1.872,1.648,4.306,2.736,6.53,3.85c-1.678,0.132-3.558,0.24-5.153,0.79   c-1.578,0.373-3.305,1.967-1.838,3.315c1.49,0.917,3.486,0.448,5.14,0.126c-1.695,0.542-3.705,1.168-5.415,0.266   c-1.305-0.802-0.984-2.779,0.169-3.529c1.544-1.141,3.441-1.503,5.294-1.781l-0.159,0.912c-9.394-3.906-8.011-8.774,1.919-6.016   l-0.648,0.738c-0.996-3.004-4.185-9.553-1.688-12.179C253.162,216.757,255.084,221.694,256.096,224.286z"/>
	<path style="fill:#FF9D3D;" d="M308.334,246.154c-0.539,0.181-25.91,7.86-40.103,23.553c-14.192,15.693-7.412,25.823-1.297,25.831   c0,0,3.149,4.597,9.465,3.267c0,0,5.807,5.991,14.149,4.665c8.341-1.326,17.105-11.429,17.105-11.429L325,293.754l5.585-27.889   L308.334,246.154z"/>
	<g>
		<path style="opacity:0.48;fill:#AE312F;" d="M333.656,239.628c-20.958,4.56-42.829,10.792-59.518,24.818    c-6.064,5.743-12.63,12.611-13.364,21.286c-0.33,4.163,2.098,8.809,6.52,9.316c1.655,3.386,6.344,3.406,9.64,3.155    c9.389,10.16,23.762,2.765,30.492-6.758c34.455,6.46,74.654-2.975,88.971-38.3c-13.938,35.946-53.957,45.705-88.857,39.423    l0.551-0.211c-7.078,9.938-22.016,17.222-31.845,6.754l0.496,0.224c-3.624,0.248-8.382,0.018-10.318-3.611l0.426,0.346    c-4.844-0.746-7.485-5.866-7.111-10.39c0.811-9.092,7.459-16.029,13.802-21.904C290.46,249.769,312.499,243.799,333.656,239.628z"/>
		<path style="opacity:0.48;fill:#AE312F;" d="M276.69,298.783c-0.305-1.762-0.203-3.611,0.25-5.372    c0.437-1.768,1.219-3.469,2.316-4.945c1.117-1.448,2.428-2.785,4.011-3.698c0.735-0.539,1.605-0.846,2.408-1.244    c0.844-0.313,1.709-0.566,2.565-0.796c-0.766,0.476-1.573,0.828-2.311,1.303c-0.717,0.507-1.495,0.903-2.146,1.478l-1.012,0.801    l-0.922,0.896c-0.323,0.282-0.589,0.617-0.866,0.941c-0.273,0.327-0.57,0.635-0.793,1.001c-1.036,1.355-1.803,2.902-2.389,4.521    C277.233,295.296,276.834,297.007,276.69,298.783z"/>
		<path style="opacity:0.48;fill:#AE312F;" d="M266.935,295.538c-1.044-2.919-1.178-6.155-0.535-9.237    c0.332-1.543,0.945-3.032,1.776-4.374c0.808-1.366,2.004-2.456,3.259-3.335c-0.958,1.221-1.841,2.425-2.47,3.776    c-0.62,1.344-1.142,2.728-1.435,4.184c-0.323,1.445-0.498,2.928-0.591,4.428C266.87,292.479,266.842,293.997,266.935,295.538z"/>
	</g>
	<path style="fill:#AE312F;" d="M379.858,181.925c-4.957,5.027-11.142,8.663-17.559,11.605c-6.44,2.953-13.262,5.721-20.362,6.521   c-4.204,0.475-12.382,0.382-14.571-4.251c-3.671-7.818,11.988-11.339,16.458-13.296c6.892-3.012,13.389-6.892,19.319-11.525   c1.39-1.089,2.571-2.409,3.718-3.764C371.715,171.663,376.058,176.609,379.858,181.925z"/>
	<path style="fill:#AE312F;" d="M336.54,293.393c-6.671,0.567-12.764,0.428-17.605,0.081c0.533-2.572,0.568-5.316,0.023-7.784   c-0.799-3.625-2.803-6.915-3.544-10.551c-0.185-0.869-0.289-1.784-0.035-2.641c1.726-5.78,8.733-0.903,11.409,1.367   C332.521,278.73,336.088,285.969,336.54,293.393z"/>
	<path style="fill:#AE312F;" d="M339.539,255.577c-1.343,2.467-4.806,2.803-7.505,2.062c-5.073-1.401-9.046-5.258-13.609-7.876   c-3.44-1.98-6.938-3.011-10.54-3.451c7.807-2.617,14.941-4.401,19.713-5.455c3.614,1.657,6.903,4.031,9.602,6.938   C339.169,249.925,340.906,253.029,339.539,255.577z"/>
	<path style="fill:#AE312F;" d="M395.505,213.834c-6.255,5.212-15.161,8.768-22.365,5.699c-6.741-2.872,1.61-12.706,4.726-15.497   c2.571-2.293,5.061-4.679,7.459-7.146c0.718-0.741,1.344-1.853,1.969-2.988C390.652,200.237,393.397,206.92,395.505,213.834z"/>
	<path style="fill:#AE312F;" d="M401.273,247.076c-0.417,0.231-0.845,0.463-1.262,0.672c-5.93,3.046-12.625,5.351-19.18,4.135   c-1.077-0.209-2.189-0.533-2.977-1.298c-1.992-1.934-0.799-5.397,1.112-7.412c3.892-4.123,9.555-6.95,14.049-10.424   c1.749-1.367,3.736-3.043,5.994-3.946c0.186,1.066,0.457,2.256,0.619,3.321C400.347,236.953,400.891,241.957,401.273,247.076z"/>
	<path style="opacity:0.48;fill:#AE312F;" d="M344.705,343.986c2.364-15.554,6.113-37.146-4.678-50.208   C352.18,305.702,348.677,329.025,344.705,343.986z"/>
	<path style="fill:#AE312F;" d="M401.505,275.557c-0.336,5.942-0.827,11.9-1.696,17.818c-3.637,1.436-7.512,2.602-11.404,2.567   c-1.876-0.011-3.81-0.336-5.397-1.355c-1.587-1.02-2.745-2.826-2.594-4.702c0.185-2.317,2.189-4.031,4.123-5.316   C389.899,281.024,395.922,278.695,401.505,275.557z"/>
	<path style="fill:#AE312F;" d="M395.169,315.099c-2.189,7.934-4.969,15.613-8.397,22.84c-3.59-0.266-7.123-1.147-10.389-2.629   c-2.317-1.054-4.587-2.455-5.988-4.575c-1.402-2.131-1.714-5.131-0.186-7.169c1.795-2.386,5.212-2.618,8.177-2.931   C384.757,319.963,389.969,317.786,395.169,315.099z"/>
	<path style="fill:#AE312F;" d="M372.375,360.721c-4.019,4.807-8.501,9.185-13.482,13.007c-4.505-2.293-8.223-6.208-9.972-10.957   c-0.742-1.992-1.124-4.204-0.556-6.254c0.579-2.038,2.293-3.868,4.413-4.077c1.61-0.162,3.162,0.591,4.598,1.355   c3.509,1.876,6.903,4.007,10.586,5.513C369.387,359.887,370.858,360.386,372.375,360.721z"/>
	<path style="opacity:0.48;fill:#AE312F;" d="M302.641,212.677c0.952,2.217,2.572,4.748,5.048,5.183   c3.297-1.407,3.116-13.561,3.598-17.058c0.353,2.312,0.748,6.643,1.471,8.827c1.434,4.848,3.879,4.748,4.624-0.293l0.876,0.06   c-0.086,3.439,1.049,7.944,4.934,8.743c-4.191-0.368-5.738-5.138-5.813-8.765l0.876,0.06c-0.073,2.527-1.962,6.894-4.859,3.94   c-1.688-2.05-2.111-4.528-2.502-7.03l1.126-0.029c-0.432,3.042-0.755,11.424-4.329,12.191   C304.881,217.94,303.409,215.128,302.641,212.677z"/>
	<g>
		<g>
			<path style="fill:#FF9D3D;" d="M156.691,197.05c0,0-3.606,19.771,9.274,21.135c0,0,3.263,9.607,14.082,8.576     c10.82-1.031,8.641-12.022,8.641-12.022s6.112,1.374,10.757-5.839c4.645-7.213-6.586-23.781-6.586-23.781l6.586-8.242     C199.446,176.876,170.258,170.258,156.691,197.05z"/>
			<path style="opacity:0.2;fill:#AE312F;" d="M156.52,197.05c0,0-3.606,19.771,9.274,21.135c0,0,3.263,9.607,14.083,8.576     c10.82-1.031,8.641-12.022,8.641-12.022s6.113,1.374,10.757-5.839c4.645-7.213-6.587-23.781-6.587-23.781l6.587-8.242     C199.275,176.876,170.087,170.258,156.52,197.05z"/>
		</g>
		<path style="opacity:0.48;fill:#AE312F;" d="M188.688,214.739c-2.774-2.432-4.124-6.484-3.485-10.103    C186.204,208.135,187.251,211.356,188.688,214.739z"/>
		<path style="opacity:0.48;fill:#AE312F;" d="M165.965,218.184c-1.862-3.688-2.604-8.246-1.172-12.205    C164.978,210.053,165.65,214.098,165.965,218.184z"/>
	</g>
	<path style="opacity:0.48;fill:#AE312F;" d="M192.392,184.57c3.834,5.233,7.85,10.916,8.218,17.643   c0.919,7.191-4.816,13.551-12.115,13.062l0.559-0.549c0.218,4.318-0.943,9.828-5.464,11.707c-6.437,2.893-15.736-0.422-17.79-7.313   c0.029,0.036,0.007,0.018,0.013,0.02c-14.256-4.869-10.937-21.012-3.488-30.536c-6.275,8.956-9.988,24.563,3.036,29.218   c0.406,0.146,1.284,0.41,1.432,1.049c2.305,7.448,14.593,10.409,19.413,3.971c1.633-2.441,1.847-5.674,1.765-8.665   c6.944,0.787,12.646-5.016,11.926-11.931C199.679,195.679,195.902,189.916,192.392,184.57z"/>
	<g>
		<path style="fill:#FF9D3D;" d="M216.926,255.476c0,0-9.049-24.393-29.29-26.476c-18.395-1.893-21.186,23.627-10.009,30.497    c11.177,6.87,30.914,7.23,30.914,7.23s3.879,15.143,12.351,15.683c8.473,0.541,19.357-21.545,17.486-26.935    C236.215,249.242,216.926,255.476,216.926,255.476z"/>
		<g>
			<path style="opacity:0.4;fill:#AE312F;" d="M238.064,260.486c-0.208,0.846-0.485,1.733-0.818,2.677     c-1.525,4.368-4.257,9.514-7.378,13.383c-0.583,0.735-1.193,1.428-1.803,2.053h-0.014c-2.358,2.427-4.84,3.967-7.156,3.814     c-8.474-0.541-12.357-15.685-12.357-15.685s-19.735-0.361-30.914-7.226c-4.05-2.497-6.269-7.434-6.56-12.635     c-0.056-0.874-0.056-1.761,0-2.649c0.555-8.294,5.977-16.31,16.573-15.215c20.235,2.08,29.291,26.476,29.291,26.476     s19.291-6.241,21.455,0C238.757,256.575,238.618,258.35,238.064,260.486z"/>
			<path style="fill:#AE312F;" d="M178.201,236.634c0.967,0.13,1.878,0.484,2.739,0.911c0.865,0.426,1.673,0.959,2.432,1.551     c1.492,1.21,2.805,2.673,3.634,4.425c-0.788-0.572-1.488-1.187-2.209-1.773c-0.711-0.595-1.426-1.174-2.145-1.745     C181.214,238.853,179.752,237.773,178.201,236.634z"/>
			<path style="fill:#AE312F;" d="M178.904,243.773c0.385-0.896,0.971-1.68,1.613-2.394c0.643-0.719,1.373-1.354,2.146-1.927     c1.566-1.112,3.328-1.984,5.239-2.312c-0.763,0.606-1.543,1.115-2.301,1.652c-0.764,0.525-1.514,1.058-2.257,1.597     C181.85,241.466,180.417,242.584,178.904,243.773z"/>
			<path style="fill:#AE312F;" d="M178.206,248.587c0,0-3.648-2.025-7.142-1.72c-0.056-0.874-0.056-1.761,0-2.649     c0.042-0.028,0.055-0.042,0.055-0.042S175.196,244.482,178.206,248.587z"/>
			<path style="fill:#AE312F;" d="M188.218,258.189c6.592-2.815,11.008-9.029,11.376-16.198     C201.009,249.364,195.544,256.981,188.218,258.189z"/>
			<path style="fill:#AE312F;" d="M229.867,276.546c-0.583,0.735-1.193,1.428-1.803,2.053h-0.014l-5.131-7.156L229.867,276.546z"/>
			<path style="fill:#AE312F;" d="M238.064,260.486c-0.208,0.846-0.485,1.733-0.818,2.677l-9.819-2.677H238.064z"/>
		</g>
	</g>
	<path style="fill:#FFC893;" d="M507.319,342.481c0,8.178-14.279,14.809-31.893,14.809c-17.613,0-31.892-6.63-31.892-14.809   s14.279-14.809,31.892-14.809C493.04,327.672,507.319,334.302,507.319,342.481z"/>
	<path style="fill:#FFC893;" d="M428.289,428.305c0,4.787-8.358,8.668-18.668,8.668s-18.668-3.881-18.668-8.668   c0-4.788,8.358-8.668,18.668-8.668S428.289,423.518,428.289,428.305z"/>
	<path style="fill:#FFC893;" d="M169.217,465.443c0,2.394-4.179,4.334-9.334,4.334c-5.155,0-9.334-1.94-9.334-4.334   c0-2.394,4.179-4.334,9.334-4.334C165.038,461.109,169.217,463.05,169.217,465.443z"/>
	<path style="opacity:0.2;fill:#AE312F;" d="M266.485,354.911c-6.822,26.523-11.269,39.693-24.612,33.299   c-0.209-2.131,0.035-4.517,0.753-7.1c5.594-19.933,6.984-68.057,9.567-72.934c0-0.012,0.012-0.012,0.012-0.023   c2.27-1.042,5.386-1.691,8.582,0.116C266.995,311.767,273.446,327.855,266.485,354.911z"/>
	<g>
		<path style="fill:#FFC893;" d="M254.268,331.262c-0.613,1.274-0.778,2.711-0.923,4.118c-0.984,9.506-1.493,19.079-3.216,28.479    c-0.696,3.8-1.59,7.561-2.255,11.366c-0.159,0.91-0.271,1.954,0.329,2.656c0.485,0.568,1.331,0.728,2.056,0.546    c0.725-0.181,1.345-0.649,1.882-1.168c1.337-1.293,2.275-2.946,3.026-4.648c0.887-2.01,1.539-4.115,2.177-6.218    c2.781-9.156,5.371-18.491,5.654-28.056c0.087-2.942-0.283-6.652-2.518-8.859C258.498,327.524,255.318,329.078,254.268,331.262z"/>
		<path style="fill:#FFC893;" d="M262.642,322.612c0.077,0.581,0.269,1.173,0.688,1.582c0.357,0.349,0.841,0.532,1.31,0.704    c0.765,0.282,1.649,0.557,2.36,0.159c1.693-0.949,1.106-4.562-0.24-5.583C264.567,317.811,262.35,320.403,262.642,322.612z"/>
		<path style="fill:#FFC893;" d="M255.382,315.505c0.032,0.814,0.189,1.657,0.674,2.312c0.763,1.029,2.25,1.37,3.463,0.958    c1.213-0.411,2.139-1.466,2.602-2.66c0.314-0.809,0.432-1.741,0.082-2.535c-0.539-1.225-2.593-2.456-3.932-2.317    C256.133,311.484,255.308,313.644,255.382,315.505z"/>
		<path style="fill:#FFC893;" d="M252.055,323.692c0.198,0.178,0.459,0.272,0.72,0.324c2.06,0.412,4.852-2.554,2.262-3.716    C253.213,319.482,250.332,322.145,252.055,323.692z"/>
	</g>
	<path style="fill:#FF9D3D;" d="M175.407,416.682c-0.343-10.728,10.797-17.516,20.597-17.231c4.796,0.069,11.288,1.416,12.674,6.794   c1.421,9.65-10.535,19.472-19.669,19.428c-6.77,0.287-7.545-6.946-4.835-11.664c2.142-4.418,6.472-8.717,11.754-8.184   c2.552,0.124,5.236,2.132,4.801,4.912c-0.291,2.582-2.388,4.574-4.698,5.341c2.27-0.88,4.205-2.944,4.393-5.367   c0.04-5.764-8.096-5.05-11.142-2.041c-4.707,3.443-9.696,15.851-0.261,15.948c8.335,0.012,19.79-9.287,18.633-18.132   c-1.234-4.832-7.305-5.947-11.665-6.149C186.435,399.88,175.537,406.24,175.407,416.682z"/>
	<path style="fill:#FF9D3D;" d="M72.638,419.535c10.225,0.919,16.563-5.344,10.528-14.936c-3.138-5.154-7.637-10.24-13.596-11.915   c-7.743-1.705-9.937,5.531-6.783,11.461c1.525,3.259,6.785,11.212,10.56,6.635c1.99-3.291,1.217-8.592-1.702-11.128   c-4.366-1.984-2.837,4.007-1.668,6.094c-0.853-1.847-2.153-4.013-1.2-6.085c0.709-0.961,2.162-0.976,3.101-0.379   c3.355,2.649,4.25,8.28,2.134,11.962c-4.407,5.413-10.31-2.618-12.182-6.655c-3.684-6.74-0.651-15.004,8.002-12.978   C83.893,395.67,96.665,421.824,72.638,419.535z"/>
</g>















</svg>
