<?xml version="1.0" encoding="UTF-8"?>
<!-- Generator: Adobe Illustrator 25.2.3, SVG Export Plug-In . SVG Version: 6.00 Build 0)  -->
<svg xmlns="http://www.w3.org/2000/svg" xmlns:xlink="http://www.w3.org/1999/xlink" version="1.1" id="Capa_1" x="0px" y="0px" viewBox="0 0 512 512" style="enable-background:new 0 0 512 512;" xml:space="preserve" width="512" height="512">
<g>
	
		<ellipse transform="matrix(0.9546 -0.2979 0.2979 0.9546 -93.3591 92.2784)" style="fill:#6CE1C1;" cx="256" cy="352.363" rx="264.267" ry="101.473"/>
	<path style="fill:#6CE1C1;" d="M351.229,497.035c-0.612,0.194-1.224,0.388-1.836,0.567c5.716-3.985,8.79-8.343,8.089-12.402   c-1.612-9.283-22.536-13.418-46.728-9.224c-24.208,4.194-42.52,15.119-40.908,24.417c0.895,5.179,7.76,8.746,17.849,10.178   c-46.191,4.985-81.398-3.149-87.666-23.237c-8.94-28.625,44.266-70.712,118.829-93.979c74.577-23.282,142.26-18.939,151.2,9.701   C478.997,431.681,425.792,473.768,351.229,497.035z"/>
	<path style="fill:#6CE1C1;" d="M191.243,484.441c0.873,5.036-9.051,10.96-22.166,13.233c-13.115,2.273-24.455,0.033-25.328-5.002   c-0.873-5.036,9.051-10.961,22.166-13.233C179.03,477.166,190.37,479.406,191.243,484.441z"/>
	<path style="fill:#6CE1C1;" d="M474.524,372.982c0.437,2.518-4.525,5.48-11.083,6.616c-6.557,1.137-12.227,0.017-12.664-2.501   c-0.437-2.518,4.525-5.48,11.082-6.616C468.418,369.344,474.088,370.464,474.524,372.982z"/>
	<path style="fill:#6CE1C1;" d="M313.067,495.423c0.581,3.349-6.018,7.288-14.739,8.799c-8.721,1.511-16.261,0.022-16.841-3.326   s6.018-7.288,14.739-8.799C304.947,490.586,312.487,492.075,313.067,495.423z"/>
	<path style="fill:#6CE1C1;" d="M10.307,370.214c-1.127-6.499,11.682-14.146,28.609-17.079c16.927-2.933,31.563-0.043,32.69,6.457   c1.127,6.499-11.682,14.146-28.609,17.079C26.07,379.604,11.434,376.713,10.307,370.214z"/>
	<path style="fill:#6CE1C1;" d="M17.814,347.366c-0.389-2.245,4.036-4.887,9.883-5.9c5.847-1.013,10.903-0.015,11.293,2.23   c0.389,2.245-4.036,4.887-9.883,5.9C23.26,350.61,18.204,349.611,17.814,347.366z"/>
	
		<ellipse transform="matrix(0.9546 -0.2979 0.2979 0.9546 -75.0383 56.9881)" style="fill:#6CE1C1;" cx="149.407" cy="274.626" rx="141.439" ry="54.31"/>
	<g>
		<path style="fill:#FF9D3D;" d="M167.671,223.362c0,0-21.85-2.839-42.648,16.749c-20.798,19.588-9.626,64.989-9.626,64.989    s-47.146-17.323-54.396-14.022c-5.85,4.536-5.721,9.095,1.874,14.197c7.596,5.102,50.173,23.737,72.946,20.349    c22.772-3.388,36.104-10.163,36.104-10.163l18.461-79.34L167.671,223.362z"/>
		<path style="opacity:0.2;fill:#AE312F;" d="M167.671,223.362c0,0-21.85-2.839-42.648,16.749    c-20.798,19.588-9.626,64.989-9.626,64.989s-47.146-17.323-54.396-14.022c-5.85,4.536-5.721,9.095,1.874,14.197    c7.596,5.102,50.173,23.737,72.946,20.349c22.772-3.388,36.104-10.163,36.104-10.163l18.461-79.34L167.671,223.362z"/>
	</g>
	<path style="fill:#FF5555;" d="M495.406,277.126c-0.014,0.45-0.056,0.901-0.098,1.351c-1.126,11.05-8.896,25.746-28.758,37.894   c-23.029,14.105-54.518,16.568-72.536,16.652c-8.643,0.07-14.161-0.422-14.161-0.422s-1.943,0.099-4.927,0   c-12.528-0.422-43.567-4.49-27.886-35.416c1.154-2.309,2.59-4.73,4.293-7.348c6.151-9.389,13.331-17.075,20.974-23.311   c29.814-24.324,66.441-26.379,74.619-19.932c8.714,6.87-21.241,33.291-23.705,35.43c11.346-8.418,56.686-23.888,66.286-19.383   C493.295,264.429,495.8,269.891,495.406,277.126z"/>
	<path style="fill:#FF5555;" d="M394.018,333.03c-1.209,4.074-3.388,8.581-6.701,13.582   c-38.475,57.996-158.139,96.934-231.284,98.501c-26.521,0.567-47.072-1.896-62.757-5.836c-9.82-2.463-17.73-5.492-23.999-8.746   c-11.357-5.866-17.342-12.403-19.581-17.357c-1.015-2.239-1.851-5.253-2.373-8.82c-2.298-15.671,1.776-42.087,26.506-60.474   c30.371-22.581,95.009-47.504,95.009-47.504c86.428-18.297,141.708,0,141.708,0s17.432-1.179,36.49,0.806   c17.73,1.836,36.848,6.403,44.579,17.208C395.107,319.24,396.286,325.344,394.018,333.03z"/>
	<g>
		<g>
			<path style="fill:#FF9D3D;" d="M460.118,247.453c-7.179,16.342-23.999,21.491-38.639,22.685c-0.463,0.045-0.94,0.09-1.403,0.104     c-1,0.06-1.985,0.104-2.955,0.134c-1.612,0.06-3.179,0.06-4.686,0.03c-1.806-0.03-3.522-0.119-5.104-0.209     c-0.433-0.03-0.851-0.06-1.268-0.09c-6.194-0.463-10.298-1.314-10.298-1.314l6.492-26.804c0,0,0.075,0.06,0.239,0.15     c1.403,0.925,8.939,5.567,17.67,6.388c0.627,0.075,1.284,0.119,1.925,0.149c0.612,0.015,1.239,0.015,1.851-0.015     c1.06-0.045,2.119-0.149,3.194-0.358c4.522-0.821,9.029-3.119,12.88-7.835c0.269-0.328,0.508-0.657,0.746-1     c6.746-9.835-0.866-24.879-9.298-44.908c-1.806-4.298-3.657-8.82-5.403-13.581c-0.746-2.015-1.463-4.075-2.164-6.164     c-10.701-32.207-17.506-65.324-8.94-88.935c2.522-6.94,6.358-13.044,11.82-18.074c0,0,3.552-2.835,7.821-2.761     c0.134,0,0.268,0,0.388,0.015c2.761,0.164,5.791,1.597,8.313,5.821c2.254,3.791,0.552,7.298-2.179,11.641     c-2.06,3.299-4.701,7.074-6.641,11.82c-2.925,7.164-4.567,17.163-3.686,27.909c0.612,7.567,4.328,23.595,8.925,38.55     c4.567,14.88,10.551,29.819,15.193,43.445c2.328,6.85,4.313,13.372,5.596,19.387     C462.551,233.051,462.864,241.215,460.118,247.453z"/>
			<path style="opacity:0.2;fill:#AE312F;" d="M460.387,247.453c-7.208,16.432-24.208,21.566-38.908,22.685     c-0.463,0.045-0.94,0.09-1.403,0.104c-1,0.06-1.985,0.104-2.955,0.134c-1.612,0.06-3.179,0.06-4.686,0.03     c-1.806-0.03-3.522-0.119-5.104-0.209c-6.746-0.463-11.283-1.403-11.283-1.403l6.448-26.655l0.03-0.15     c0,0,8.074,5.522,17.641,6.537c0.627,0.075,1.284,0.119,1.925,0.149c0.612,0.015,1.239,0.015,1.851-0.015     c1.075-0.015,2.149-0.119,3.224-0.313c4.611-0.791,9.208-3.089,13.134-7.88c0.179-0.224,0.358-0.463,0.522-0.686     c7.134-9.865-0.612-25.058-9.149-45.37v-0.015c-1.791-4.268-3.612-8.746-5.343-13.462c-0.746-2-1.463-4.044-2.149-6.119     c-10.716-32.222-17.506-65.354-8.94-88.965c2.522-6.925,6.358-13.029,11.805-18.044c0,0,3.403-2.716,7.552-2.761     c0.134,0,0.268,0,0.388,0.015c2.836,0.075,5.985,1.463,8.581,5.821c2.254,3.776,0.582,7.253-2.104,11.567     c-2.074,3.313-4.746,7.104-6.701,11.895c-2.94,7.164-4.567,17.163-3.701,27.909c0.627,7.567,4.328,23.595,8.925,38.55     c4.552,14.805,10.507,29.67,15.133,43.251v0.015c2.358,6.924,4.373,13.521,5.671,19.596     C462.819,233.066,463.133,241.215,460.387,247.453z"/>
		</g>
		<path style="fill:#AE312F;" d="M441.462,82.449c-0.119,0.045-0.224,0.06-0.343,0.075c-4.552,0.925-4.671-5.045-4.671-5.045    c-7.507,5.85-15.76,7.776-21.208,8.373c-0.09,0.015-0.194,0.03-0.283,0.03c2.522-6.94,6.358-13.044,11.82-18.074    c0,0,3.552-2.835,7.821-2.761c0.134,0,0.268,0,0.388,0.015c2.836,0.075,5.985,1.463,8.581,5.821    C445.82,74.658,444.149,78.135,441.462,82.449z"/>
		<path style="fill:#AE312F;" d="M431.672,194.397v0.015c-0.074,0.06-0.134,0.104-0.209,0.149c-1.806-4.298-3.657-8.82-5.403-13.581    l0.269-0.045c3.835-0.806,11.283-1.761,13.969,1.955C442.298,185.651,436.97,190.531,431.672,194.397z"/>
		<path style="fill:#AE312F;" d="M460.789,223.664c-0.09,0-0.179-0.015-0.283-0.03c-3.597-0.373-11.119-1.821-11.79-7.403    c-0.537-4.522,3.224-9.104,6.194-11.984c0.074-0.06,0.149-0.134,0.209-0.179C457.476,210.993,459.491,217.589,460.789,223.664z"/>
		<path style="fill:#AE312F;" d="M437.403,253.498c-5.059,1.448-8.447-2.239-10.238-5.149c-0.015-0.015-0.015-0.03-0.03-0.045    c4.522-0.821,9.029-3.119,12.88-7.835c0.269-0.328,0.508-0.657,0.746-1c0.015,0.105,0.045,0.209,0.06,0.314    C441.85,245.2,442.149,252.154,437.403,253.498z"/>
	</g>
	<g>
		<path style="fill:#FF9D3D;" d="M206.775,145.833c0,0-5.716,42.311-29.461,50.206c-3.567,1.194-8.134,1.537-13.313,1.253    l0.03,0.821c0,0-5.806,12.387-8.641,11.193c-2.851-1.194,0.328-10.596,0.328-10.596s-4.851,5.686-6.313,4.895    c-1.448-0.776,2.552-6.209,2.552-6.209s-8,2.447-8.94,0.716c-0.538-1,2.119-2.298,4.432-3.194    c-11.895-2.522-24.939-6.656-36.475-10.776c-5.612-2-10.865-3.984-15.462-5.805c-8.582-3.373-14.909-6.089-17.029-7    c-9.581-4.015-18.864-8.089-14.969-23.775c-0.94-3.821-10.193-5.552-13.954-7.119c-1.836-0.761-2.806-2.91-1.985-4.731    c2.164-4.865,12.298-6.791,38.774-6.746c14.671,0.015,39.684,3.269,63.13,6.925c7.298,1.134,14.447,2.314,21.088,3.433    C191.134,142.803,206.775,145.833,206.775,145.833z"/>
		<path style="opacity:0.2;fill:#AE312F;" d="M206.775,145.833c0,0-5.716,42.311-29.461,50.206    c-3.567,1.194-8.134,1.537-13.313,1.253l0.03,0.821c0,0-5.806,12.387-8.641,11.193c-2.851-1.194,0.328-10.596,0.328-10.596    s-4.851,5.686-6.313,4.895c-1.448-0.776,2.552-6.209,2.552-6.209s-8,2.447-8.94,0.716c-0.538-1,2.119-2.298,4.432-3.194    c-11.895-2.522-24.939-6.656-36.475-10.776c-5.612-2-10.865-3.984-15.462-5.805c-8.582-3.373-14.909-6.089-17.029-7    c-9.581-4.015-18.864-8.089-14.969-23.775c-0.94-3.821-10.193-5.552-13.954-7.119c-1.836-0.761-2.806-2.91-1.985-4.731    c2.164-4.865,12.298-6.791,38.774-6.746c14.671,0.015,39.684,3.269,63.13,6.925c7.298,1.134,14.447,2.314,21.088,3.433    C191.134,142.803,206.775,145.833,206.775,145.833z"/>
		<path style="fill:#AE312F;" d="M77.044,170.391c4.647-0.997,7.889-3.616,8.132-8.436    C87.284,167.075,82.031,171.699,77.044,170.391z"/>
		<path style="fill:#AE312F;" d="M77.54,162.921c5.057-0.093,11.612-1.878,12.376-7.568c0.174-1.205-0.266-2.359-1.091-3.29    c-2.84-2.874-7.111-3.818-11.002-4.763C97.642,147.283,94.013,165.24,77.54,162.921z"/>
		<path style="fill:#AE312F;" d="M88.975,151.268c2.108-6.647-0.511-11.184-6.535-14.121    C89.521,137.809,93.428,145.465,88.975,151.268z"/>
	</g>
	<path style="fill:#FF9D3D;" d="M498.668,100.074c-1.284,4.612-12.925,15.223-25.745,25.506c-6.104,4.91-12.492,9.746-18.133,13.82   c-6.059,4.373-11.283,7.88-14.447,9.671c0,0,3.119,5.208,3.433,8.089c0.314,2.881-7.477-1.612-7.477-1.612s2.537,8.522,0,8.671   c-2.522,0.164-7.089-4.03-7.089-4.03s-3.179,2.866-8.149,7.015c-3.881,3.239-8.85,7.268-14.268,11.342   c-12.194,9.134-26.64,18.507-35.924,19.611c-18.715,2.209-16.447-68.339-16.447-68.339s29.446-14.626,55.609-27.715   c4.627-2.328,9.164-4.597,13.417-6.731c5.403-2.701,10.343-5.194,14.447-7.268c25.566-12.94,30.103-17.835,38.475-12.746   c0,0,10.94-5.716,16.596,0.97c5.089,6.015,1.746,12.805,1.746,12.805S501.101,91.299,498.668,100.074z"/>
	<path style="fill:#FF9D3D;" d="M390.949,82.844l0.02,0.105c0.141,0.906,0.266,1.814,0.376,2.725   c0.219,1.899,0.367,3.764,0.437,5.626c0.257,6.507-0.456,12.818-2.229,18.872c-5.188,17.767-19.636,33.211-46.477,44.141   c-48.914,19.925-137.334-2.897-137.334-2.897s-1.589-1.378-3.895-4.031c-4.732-5.441-12.45-16.288-15.705-31.837   c-0.192-0.928-0.372-1.874-0.539-2.837c-0.354-2.109-0.626-4.294-0.788-6.558c-0.002-0.093-0.016-0.168-0.018-0.26   c-0.137-1.804-0.207-3.666-0.19-5.574c0.002-0.403,0.005-0.806,0.02-1.226c0.006-0.388,0.008-0.791,0.026-1.197   c0.138-3.6,0.444-7.227,0.988-10.848c0.102-0.713,0.221-1.415,0.353-2.133c0.275-1.548,0.599-3.087,0.986-4.622   c0.02-0.143,0.056-0.288,0.091-0.434c0.769-3.022,1.73-6.031,2.941-8.971c0.303-0.732,0.607-1.463,0.944-2.185   c4.773-10.39,12.833-19.946,26.049-27.32c8.167-4.588,18.31-8.341,30.883-10.948c0.153-0.026,0.304-0.066,0.457-0.091   c0.5-0.113,1.018-0.215,1.539-0.301c2.835-0.547,5.774-1.048,8.852-1.481c1.121-0.17,2.279-0.315,3.452-0.463   c0.324-0.038,0.664-0.079,1.004-0.12c10.509-1.244,20.385-1.996,29.609-2.268c2.138-0.059,4.248-0.099,6.315-0.116l0.015-0.003   c5.051-0.031,9.879,0.099,14.516,0.385c0.492,0.011,0.99,0.053,1.469,0.082c28.901,1.906,49.488,9.709,61.409,22.631   c3.522,3.815,6.289,8.064,8.285,12.75c0.193,0.432,0.37,0.868,0.548,1.302c0.28,0.728,0.561,1.456,0.823,2.171   c0.159,0.423,0.3,0.833,0.46,1.256C388.645,71.799,390.1,77.38,390.949,82.844z"/>
	<path style="fill:#FF9D3D;" d="M390.949,83.563c4.45,33.419-10.559,55.636-47.873,71.469   c-48.915,19.924-137.334-2.898-137.334-2.898C185.398,133.55,178.2,97.772,190.957,69.42c9.077-20.819,32.03-33.472,56.931-38.268   c39.111-7.42,103.368-9.809,128.638,18.256C385.157,58.57,388.837,71.693,390.949,83.563z"/>
	
		<ellipse transform="matrix(0.9853 -0.1707 0.1707 0.9853 -51.0435 48.145)" style="opacity:0.2;fill:#AE312F;" cx="254.4" cy="320.846" rx="128.641" ry="49.393"/>
	<path style="fill:#FF9D3D;" d="M381.455,244.284c0,0,10.118,32.189,9.483,57.794c-0.235,9.428-1.933,17.958-6.129,23.659   c-4.113,5.59-13.541,12.202-26.875,18.248c-14.921,6.75-34.756,12.782-57.601,15.86c0,0-56.719-2.79-97.7-18.775   c-12.064-4.707-39.352-5.851-46.267-13.718c0,0,0-0.014-0.014-0.027c-0.635-0.732-1.256-1.477-1.863-2.237   c-20.47-25.715-17.668-64.35-5.204-100.156c1.491-4.306,3.12-8.572,4.886-12.768c1.85-4.445,3.823-8.793,5.908-13.044   c8.958-18.275,19.794-34.549,30.284-46.227l0.014-0.014c2.319-2.595,4.61-4.955,6.874-7.067h0.014   c3.271-3.064,6.474-5.59,9.497-7.495c42.086-26.475,122.628,4.997,122.628,4.997l39.491-4.79l1.67-0.207L381.455,244.284z"/>
	<path style="fill:#FF9D3D;" d="M251.584,30.921c-0.424,0.349-7.284,5.99-14.729,10.303c-2.551,1.46-5.161,2.774-7.616,3.661   c-3.976,1.447-7.53,1.788-9.65-0.138c-0.918-0.839-1.783-1.981-2.584-3.366c-0.089-0.14-0.182-0.295-0.257-0.437   c-3.909-7.018-6.078-19.262-4.793-26.303c0.354-1.963,0.977-3.506,1.891-4.432c0.357-0.369,0.751-0.62,1.209-0.789   c7.281-2.598,14.358,0.55,19.471,5.588c3.517,3.459,6.312,7.936,10.176,11.059c0.296,0.229,2.806,2.292,4.726,3.662l0.454,0.312   C250.723,30.63,251.393,30.999,251.584,30.921z"/>
	<path style="fill:#FF9D3D;" d="M376.725,48.904c-0.751-0.046-50.041-3.47-52.141-17.848c-0.198-1.376-0.274-2.773-0.237-4.157   c0.281-13.238,10.383-26.353,15.799-26.878l0.015-0.003c5.975-0.571,10.422,11.684,15.744,20.899   C361.14,30.008,376.268,48.33,376.725,48.904z"/>
	<path style="fill:#AE312F;" d="M334.036,28.408c-5.462-1.217-9.479-1.482-9.689-1.509c0.281-13.238,10.383-26.353,15.799-26.878   l0.015-0.003c1.315,2.848,2.865,6.261,2.034,14.28c-0.087,0.789-0.116,1.552-0.117,2.296   C342.008,27.615,339.236,29.576,334.036,28.408z"/>
	<path style="fill:#AE312F;" d="M222.022,38.756c-1.983,0.792-3.843,1.565-5.273,2.189c-3.909-7.018-6.078-19.262-4.793-26.303   c0.354-1.963,0.977-3.506,1.891-4.432c0,0,2.966,0.887,6.101,7.073c1.14,2.257,2.169,4.426,3.303,6.405   C225.942,28.368,228.477,36.139,222.022,38.756z"/>
	<path style="opacity:0.48;fill:#EB4949;" d="M315.923,115.932c-3.19,2.666-3.153,7.51,1.099,9.544   c5.694,2.723,15.659,1.166,19.901-3.396c3.581-3.851,0.386-9.928-4.092-10.637c-3.785-0.6-7.643,0.1-11.123,1.427   C320.09,113.487,317.711,114.438,315.923,115.932z"/>
	<path style="opacity:0.48;fill:#EB4949;" d="M228.934,114.991c3.516,2.361,4.105,7.18,0.14,9.588   c-5.309,3.223-15.417,2.579-20.223-1.572c-4.057-3.504-1.665-9.835,2.694-10.946c3.685-0.94,7.611-0.594,11.242,0.41   C224.476,112.938,226.964,113.668,228.934,114.991z"/>
	<path style="fill:#AE312F;" d="M292.801,25.71c-5.672,5.909-9.458,14.51-12.506,21.006c-1.678,3.56-3.165,7.213-4.517,10.905   c-1.022,2.771-3.103,5.623-6.24,6.328c-3.94,0.884-7.787-1.313-10.149-4.344c-2.963-3.783-3.568-8.545-3.349-13.134   c0.315-6.493,2.599-12.848,6.148-18.374c0.324-0.038,0.664-0.079,1.004-0.12C273.701,26.734,283.577,25.983,292.801,25.71z"/>
	<path style="fill:#AE312F;" d="M197.589,102.025c-4.209,1.053-8.811,0.034-12.982-1.707c0.002-0.403,0.005-0.806,0.02-1.226   c0.006-0.388,0.008-0.791,0.026-1.197c0.138-3.6,0.444-7.227,0.988-10.848C194.683,93.633,205.476,100.038,197.589,102.025z"/>
	<path style="fill:#AE312F;" d="M197.167,113.026c-2.646,1.878-6.925,2.478-11.025,2.521c-0.192-0.928-0.372-1.874-0.539-2.837   c-0.354-2.109-0.626-4.294-0.788-6.558c-0.002-0.093-0.016-0.168-0.018-0.26C193.403,107.44,201.832,109.715,197.167,113.026z"/>
	<path style="fill:#AE312F;" d="M194.55,83.204c-2.411-0.128-5.054-1.316-7.57-2.912c0.02-0.143,0.056-0.288,0.091-0.434   c0.769-3.022,1.73-6.031,2.941-8.971C195.541,77.11,200.137,83.502,194.55,83.204z"/>
	<path style="fill:#AE312F;" d="M313.647,25.976c-1.468,1.838-3.116,3.891-4.293,5.433c-3.717,4.889-7.452,11.592-10.608,12.532   c-6.594,1.974-9.942-4.254-6.198-11.16c1.709-3.147,4.276-5.523,6.567-7.187l0.015-0.003   C304.182,25.561,309.01,25.691,313.647,25.976z"/>
	<path style="fill:#AE312F;" d="M258.736,28.561c-3.066,4.657-6.114,12.315-9.555,13.752c-5.184,2.159-9.74-1.609-7.72-4.699   c1.958-3.003,4.329-5.408,6.426-7.179C251.325,29.726,254.935,29.097,258.736,28.561z"/>
	<g>
		<g>
			<path style="fill:#FFFFFF;" d="M332.231,98.619c-6.585,5.348-17.53,7.871-25.899,5.494c-1.788-0.509-3.48-1.267-5.038-2.309     c-6.746-4.566-11.202-13.212-12.063-21.074c-0.035-0.18-0.053-0.363-0.072-0.546c-0.72-7.948,3.165-15.527,9.834-19.929     c7.808-5.148,19.979-7.704,28.318-1.993c3.289,2.258,6.048,5.549,8.066,9.349l0.016-0.002     C340.806,77.721,341.044,91.446,332.231,98.619z"/>
			<path style="fill:#AE312F;" d="M332.23,98.619c-7.603,5.86-18.288,8.251-27.554,5.391c-9.42-3.597-15.112-13.502-16.626-23.151     l0.014,0.093c-2.886-18.766,19.628-31.864,35.956-25.508c5.395,2.2,9.291,6.861,11.845,11.907l-0.578-0.286     c0.014-0.002,0.407-0.056,0.422-0.058C340.753,76.829,341.467,91.049,332.23,98.619z M332.23,98.619     c9.063-7.445,8.084-21.43,2.675-30.75l0.577,0.284c-0.014,0.003-0.375,0.072-0.389,0.075c-2.637-4.729-6.606-9.142-11.784-10.929     c-12.194-3.739-28.345,2.932-32.141,15.588c-2.105,7.05-0.042,14.681,3.614,20.915C302.149,107.7,320.895,107.39,332.23,98.619z"/>
		</g>
		<path style="fill:#AE312F;" d="M315.379,98.32c6.503-0.14,13.124-3.678,15.945-9.498c4.495-9.274-0.543-21.765-10.428-25.46    c-5.307-1.984-11.953-1.503-16.717,1.445c-12.733,7.877-7.726,28.312,5.919,32.769C311.778,98.123,313.569,98.359,315.379,98.32z"/>
		<path style="opacity:0.21;fill:#AE312F;" d="M335.377,67.61c-30.326-8.328-44.465,10.657-46.146,13.118    c-0.035-0.18-0.053-0.363-0.072-0.546c-0.72-7.948,3.165-15.527,9.834-19.929c7.808-5.148,19.979-7.704,28.318-1.993    C330.6,60.519,333.359,63.81,335.377,67.61z"/>
	</g>
	<g>
		<g>
			<path style="fill:#FFFFFF;" d="M241.193,88.722c-2.338,6.906-9.971,10.646-16.911,11.547c-0.959,0.112-1.916,0.147-2.86,0.086     c-11.415-0.696-20.608-14.148-18.482-24.998c0.199-1.117,0.544-2.211,1.007-3.263c4.1-9.195,18.015-14.718,27.579-10.293     c2.308,1.089,4.057,3.138,5.413,5.205c0.932,1.41,1.79,3.017,2.528,4.738C241.819,77.13,242.936,83.588,241.193,88.722z"/>
			<path style="fill:#AE312F;" d="M241.193,88.723c-2.702,7.605-11.213,11.492-18.816,12.102     c-8.321,0.155-15.494-5.898-18.935-13.186c-5.6-11.24,0.092-22.918,11.595-26.84c7.391-2.743,17.684-2.073,21.912,5.428     C240.923,72.819,243.515,81.143,241.193,88.723z M241.193,88.723c2.259-7.552-0.555-15.802-4.974-21.989     c-4.427-6.714-13.639-6.516-20.297-3.673c-9.815,3.799-14.777,13.658-10.267,23.606c2.736,6.843,9.007,12.936,16.721,13.278     C229.906,99.925,238.483,96.229,241.193,88.723z"/>
		</g>
		<path style="fill:#AE312F;" d="M216.392,91.975c0.508,0.303,5.514,4.73,14.267,0.655c8.753-4.074,5.828-15.552,3.803-19.155    c-2.025-3.603-8.148-10.759-18.2-6.469C206.209,71.295,207.659,86.757,216.392,91.975z"/>
		<path style="opacity:0.21;fill:#AE312F;" d="M239.468,71.744c-13.561-5.25-28.824,0.079-36.527,3.614    c0.199-1.117,0.544-2.211,1.007-3.263c4.1-9.195,18.015-14.718,27.579-10.293c2.308,1.089,4.057,3.138,5.413,5.205    C237.872,68.416,238.73,70.023,239.468,71.744z"/>
	</g>
	<path style="fill:#AE312F;" d="M384.811,61.44c-23.509,18.569-34.95,2.765-24.832-1.697c6.779-2.995,12.674-7.811,16.546-11.053   C380.048,52.504,382.815,56.753,384.811,61.44z"/>
	<path style="fill:#AE312F;" d="M390.949,82.844l0.02,0.105c0.033,0.506,0.094,0.991,0.139,1.479   c-8.895,5.08-20.185,8.868-29.995,6.389c-3.702-0.936-7.228-3.774-6.623-7.327c0.252-1.42,1.168-2.748,2.375-3.799   c3.561-3.129,8.987-4.429,13.691-5.703c5.349-1.458,11.413-4.8,16.086-7.818C388.645,71.799,390.1,77.38,390.949,82.844z"/>
	<path style="fill:#AE312F;" d="M391.782,91.3c0.257,6.507-0.456,12.818-2.229,18.872c-6.329,2.116-13.616,1.774-19.848-0.586   c-2.777-1.058-5.431-3.05-5.369-6.219c0.073-4.192,5.523-5.528,8.893-6.008C382.368,96.063,388.564,93.164,391.782,91.3z"/>
	<path style="fill:#AE312F;" d="M190.657,132.155c3.786-2.118,7.73-3.84,11.714-5.465c4-1.586,8.039-3.073,12.239-4.16   c-3.785,2.121-7.73,3.842-11.714,5.465C198.895,129.578,194.856,131.064,190.657,132.155z"/>
	<path style="fill:#AE312F;" d="M186.686,122.245c4.059-1.143,8.179-1.865,12.314-2.482c4.141-0.576,8.297-1.046,12.514-1.09   c-4.059,1.147-8.178,1.868-12.314,2.482C195.059,121.727,190.902,122.197,186.686,122.245z"/>
	<path style="fill:#AE312F;" d="M187.551,109.148c4.179,0.719,8.232,1.845,12.254,3.071c4.009,1.267,7.986,2.635,11.836,4.414   c-4.18-0.716-8.233-1.842-12.254-3.071C195.379,112.293,191.402,110.924,187.551,109.148z"/>
	<path style="fill:#FFFFFF;" d="M337.047,24.38c0,0-3.009,0.297-3.934-0.247c-0.94-0.541,3.62-1.404,3.62-1.404   c-2.465-0.583-4.834-2.9-4.061-3.075c0.785-0.192,3.822,1.319,3.822,1.319c-3.529-3.519-2.694-9.851,0.46-9.97   c1.349-0.053,3.318,2.578,5.124,5.593c-0.07,11.021,7.963,17.789,9.347,18.582c-5.696-3.532-12.189-5.601-17.389-6.768   C334.391,26.12,337.047,24.38,337.047,24.38z"/>
	<path style="fill:#FFFFFF;" d="M222.022,38.756c-0.03-2.488,1.923-6.264,2.098-6.587c-0.185,0.108-2.131,1.344-3.214,0.965   c-1.135-0.401,2.129-2.35,2.129-2.35s-2.672,0.659-3.037-0.101c-0.378-0.743,2.419-0.989,2.419-0.989   c-2.165-0.834-6.673-5.43-4.512-7.197c1.41-1.147,3.819,0.142,5.346,1.19c2.691,4.68,6.014,8.279,13.161,9.466   C236.412,33.154,228.477,36.139,222.022,38.756z"/>
	<g>
		<path style="fill:#AE312F;" d="M262.921,79.447c0,0-4.593-4.534-6.573-3.45c-1.981,1.084,4.932,7.953,7.34,8.437    c2.408,0.484,6.664-7.855,5.24-9.258C267.503,73.773,262.921,79.447,262.921,79.447z"/>
		<path style="fill:#AE312F;" d="M274.028,111.044c-3.949-8.799-7.932-18.063-10.728-27.307l1.373-0.062    c-1.364,9.249-2.727,18.545-3.029,27.906c-0.846-10.495,0.587-21.053,2.135-31.427    C266.475,90.374,270.845,100.957,274.028,111.044z"/>
		<path style="opacity:0.48;fill:#AE312F;" d="M253.423,86.068c-3.799,1.227-7.28,3.915-9.112,7.788    c-2.656,5.614-2.545,12.356,2.13,16.831c2.901,2.777,6.701,4.093,10.449,4.765c7.182,1.287,14.4,2.07,21.334-0.5    c2.514-0.932,4.951-2.252,6.861-4.27c2.927-3.092,4.409-7.789,3.884-12.312c-0.525-4.523-3.043-8.767-6.602-11.124    c-4.378-2.9-10.503-3.407-15.416-2.919C262.574,84.762,257.599,84.719,253.423,86.068z"/>
	</g>
	<path style="fill:#AE312F;" d="M335.046,119.544c4.369-0.327,8.715-0.229,13.056-0.026c4.339,0.245,8.672,0.597,12.983,1.378   c-4.368,0.331-8.715,0.232-13.056,0.027C343.69,120.674,339.357,120.322,335.046,119.544z"/>
	<path style="fill:#AE312F;" d="M361.162,110.315c-4.003,1.313-8.085,2.207-12.186,2.998c-4.109,0.75-8.237,1.394-12.445,1.615   c4.003-1.316,8.084-2.21,12.186-2.998C352.827,111.183,356.955,110.54,361.162,110.315z"/>
	<path style="fill:#AE312F;" d="M355.524,98.294c-2.98,2.904-6.215,5.466-9.512,7.945c-3.323,2.444-6.708,4.802-10.351,6.815   c2.978-2.907,6.213-5.468,9.512-7.944C348.497,102.668,351.883,100.31,355.524,98.294z"/>
	<path style="opacity:0.48;fill:#AE312F;" d="M198.473,142.811c2.899,3.429,5.503,7.515,9.282,9.986   c0.085,1.036,0.221,2.124,0.519,3.108c0.556,1.982,1.818,2.581,1.967,0.291c0.172-1.612-0.239-4.028-0.387-5.662   c1.618,2.392,3.348,5.299,5.721,6.977c3.43,1.964,1.498-2.417,0.606-3.87c3.664,1.902,7.517,3.63,11.607,4.399   c-3.705-0.158-7.275-1.365-10.679-2.801l0.65-0.697c1.073,1.468,1.684,4.761-1.045,4.695c-3.035-0.472-4.714-3.339-6.438-5.55   l1.279-0.48c1.192,8.161-5.006,7.421-4.924-0.039l0.286,0.477C203.236,150.77,200.894,146.705,198.473,142.811z"/>
	<path style="fill:#AE312F;" d="M293.012,57.206c0.132,0.465,0.314,0.95,0.703,1.238c0.484,0.358,1.149,0.314,1.742,0.209   c2.794-0.498,5.386-2.05,7.143-4.278c0.428-0.543,0.816-1.14,0.962-1.816c0.178-0.824-0.018-1.682-0.277-2.485   c-0.408-1.269-0.985-2.507-1.878-3.497C295.915,40.482,291.807,52.943,293.012,57.206z"/>
	<path style="opacity:0.2;fill:#AE312F;" d="M495.406,277.126c-8.544-2.844-15.203,8.15-40.681,25.76   c-29.096,20.115-95.664,17.962-95.664,17.962l13.246-54.321c29.814-24.324,66.441-26.379,74.619-19.932   c8.714,6.87-21.241,33.291-23.705,35.43c11.346-8.418,56.686-23.888,66.286-19.383C493.295,264.429,495.8,269.891,495.406,277.126z   "/>
	<path style="fill:#AE312F;" d="M233.02,57.148c-0.126,0.467-0.303,0.954-0.688,1.246c-0.48,0.364-1.146,0.328-1.74,0.229   c-2.799-0.466-5.409-1.989-7.192-4.196c-0.434-0.537-0.829-1.131-0.983-1.804c-0.188-0.822-0.001-1.683,0.248-2.489   c0.393-1.273,0.956-2.518,1.837-3.518C229.924,40.459,234.176,52.872,233.02,57.148z"/>
	<path style="fill:#FFC893;" d="M300.334,359.845c-34.039,4.596-74.744,2.609-115.726-13.376   c-12.064-4.707-21.326-11.25-28.255-19.145c-0.309-1.28-10.278-33.276-5.783-69.877c2.533-20.63,7.375-43.155,26.751-61.406   c16.949-15.964,40.905-22.683,63.816-19.786c23.15,2.927,45.609,16.221,56.761,37.096c14.954,27.989,17.974,57.082,18.558,88.187   c0.321,17.088-2.064,34.65-10.419,49.835C304.393,354.361,302.505,357.213,300.334,359.845z"/>
	<path style="fill:#FFC893;" d="M277.766,190.189c0,0-0.803-15.152-4.144-15.366c-3.34-0.214,0,10.868,0,10.868   s-4.008-8.79-6.217-7.605c-2.209,1.185,0,5.983,0,5.983v15.119L277.766,190.189z"/>
	<path style="fill:#FF9D3D;" d="M410.076,272.81c-0.224,1.866-0.463,3.716-0.746,5.552c-0.955,6.179-2.418,11.85-4.284,17.044   c-2.746,7.671-6.358,14.298-10.477,20.029c-4.955,6.91-10.641,12.521-16.387,17.029c-7.716,6.059-15.552,10.149-21.939,12.85   c-8.253,3.478-14.074,4.627-14.074,4.627s1.253-9.671,2.88-22.238c2.97-22.894,7.179-55.385,7.343-56.579   c-0.224,1.731,20.372-37.699,20.372-37.699l-0.313-5.895l-0.866-16.133l-4.164-77.354c13.671,15.865,25.715,38.057,33.67,62.548   c1.985,6.149,3.716,12.447,5.149,18.82c0.866,3.79,1.612,7.612,2.238,11.447c1.299,7.805,2.119,15.67,2.373,23.476   C411.136,257.915,410.882,265.437,410.076,272.81z"/>
	<path style="opacity:0.48;fill:#AE312F;" d="M345.592,145.518c4.015-2.402,8.103-4.755,11.83-7.575   c-0.2,0.934-0.534,2.147-0.503,3.097c0.063,2.507,1.602,0.927,2.068-0.422c1.263-2.882,1.86-6.226,2.047-9.343   c2.612,5.206,5.559,8.773,6.676,0.388c4.627-0.79,9.215-2.583,13.018-5.396c-3.416,3.273-7.841,5.3-12.436,6.405l0.45-0.497   c-0.395,6.839-4.571,7.996-7.836,1.785l1.32-0.285c-0.585,3.072-1.175,8.53-4.331,9.91c-2.563,0.223-2.277-2.996-1.762-4.555   l0.786,0.555C353.316,141.91,349.506,143.806,345.592,145.518z"/>
	<path style="opacity:0.48;fill:#AE312F;" d="M367.494,187.003c2.438,1.217,5.09,1.8,7.742,2.12   c-0.532,1.84-1.792,4.445-0.575,6.135c2.363,0.448,2.854-7.938,3.233-9.677c0.768,2.491,1.143,6.52,2.995,8.254   c0.001,0.021,0.016-0.047,0.045-0.07c0.328-1.764-0.429-3.714-0.849-5.445c4.421,1.618,9.626,1.639,13.803-0.721   c-3.687,2.837-8.699,3.255-13.13,2.173l0.737-0.735c2.896,8.54-2.833,7.723-4.091,0.329l1.37-0.059   c-0.628,2.555-0.644,6.01-3.435,7.251c-3.821-0.082-1.865-5.185-1.011-7.256l0.305,0.546   C372.114,189.345,369.613,188.461,367.494,187.003z"/>
	<path style="fill:#FF9D3D;" d="M410.882,267.87c-1.791,19.178-7.283,34.953-14.805,47.908c-4.254,7.343-9.149,13.76-14.387,19.387   c-6.253,6.731-12.999,12.313-19.685,16.909c-4.955,3.418-9.88,6.298-14.566,8.716c-17.119,8.82-30.953,11.477-30.953,11.477   s7.283,9.775-13.387,24.147c-14.238,9.895-28.282,42.326-38.744,34.491c-10.447-7.835,29.266-59.594,29.266-59.594   c-28.222-15.67-31.878-67.936-10.447-90.412c21.431-22.476,69.279-9.029,69.279-9.029s32.132-44.311,49.027-41.953   c3.955,0.552,7.089,3.672,8.746,10.537C411.703,246.468,412.046,255.333,410.882,267.87z"/>
	<path style="fill:#FF9D3D;" d="M315.555,268.089c0,0-9.327-7.103-11.325-5.771c-1.999,1.332,5.663,5.771,5.663,5.771   s-7.217-3.328-8.994-1.774c-1.776,1.555,4.528,3.137,4.528,3.137l11.058,9.743L315.555,268.089z"/>
	<path style="fill:#AE312F;" d="M276.908,426.609c-0.752-1.112-1.094-2.459-1.254-3.787c-0.162-1.339-0.068-2.694,0.147-4.015   c0.24-1.32,0.646-2.6,1.186-3.814c0.261-0.61,0.601-1.184,0.915-1.763c0.364-0.556,0.735-1.104,1.152-1.618   c-0.139,0.657-0.338,1.275-0.519,1.895l-0.514,1.855c-0.31,1.236-0.635,2.453-0.836,3.691   C276.752,421.525,276.544,424.004,276.908,426.609z"/>
	<path style="fill:#AE312F;" d="M64.904,400.445c-7.567,12.029,4.373,30.088,4.373,30.088   c-11.357-5.865-17.342-12.402-19.581-17.357c-1.015-2.238-1.851-5.253-2.373-8.82c12.611-25.446,58.474-15.596,58.474-15.596   S72.47,388.416,64.904,400.445z"/>
	<path style="fill:#AE312F;" d="M77.383,364.238c0.46,1.501,1.486,2.874,2.984,3.854c4.241,2.775,9.51,3.866,14.51,3.065   c4.223-0.676,10.824-3.086,10.912-8.265c0.111-6.529-7.171-9.004-12.544-9.407c-4.65-0.349-10.828,0.997-14.205,4.432   C77.204,359.784,76.738,362.136,77.383,364.238z"/>
	<path style="fill:#FFC893;" d="M467.779,83.881c-1.865,0.045-3.812,0.194-5.41,1.157c-1.598,0.963-2.711,2.98-2.063,4.729   c0.686,1.854,2.862,2.581,4.747,3.176c2.583,0.816,5.372,2.064,6.382,4.578c0.416,1.035,0.475,2.179,0.802,3.245   c0.755,2.456,3.045,4.365,5.597,4.666c2.552,0.3,5.223-1.025,6.527-3.238c0.754-1.28,1.061-2.778,1.166-4.259   c0.221-3.126-0.443-6.361-2.178-8.971C479.8,83.622,473.529,83.743,467.779,83.881z"/>
	<path style="fill:#FFC893;" d="M467.263,76.219c-0.834,0.156-1.656,0.534-2.19,1.194c-0.534,0.66-0.723,1.632-0.326,2.383   c0.532,1.005,1.834,1.285,2.971,1.316c0.811,0.023,1.623-0.024,2.426-0.139c0.76-0.109,1.537-0.292,2.148-0.756   c0.737-0.56,1.151-1.518,1.053-2.439c-0.027-0.249-0.092-0.504-0.25-0.699c-0.132-0.164-0.319-0.274-0.505-0.371   C471.039,75.903,468.957,75.902,467.263,76.219z"/>
	<path style="fill:#FFC893;" d="M485.018,77.706c-0.969,0.178-2.027,0.559-2.44,1.454c-0.309,0.67-0.162,1.481,0.202,2.124   c0.364,0.643,0.918,1.153,1.463,1.651c0.429,0.392,0.865,0.79,1.384,1.053c0.704,0.357,1.523,0.442,2.308,0.361   c0.252-0.026,0.508-0.07,0.73-0.192c0.309-0.168,0.524-0.469,0.688-0.781c0.469-0.895,0.591-1.929,0.622-2.94   C490.075,77.186,487.546,77.241,485.018,77.706z"/>
	<path style="fill:#FFC893;" d="M489.825,97.192c-0.012,0.622,0.061,1.296,0.479,1.758c0.269,0.298,0.649,0.469,1.028,0.602   c0.67,0.236,1.408,0.378,2.087,0.169c0.812-0.25,1.411-0.975,1.709-1.771c0.631-1.683,0.657-4.74-1.725-4.977   C491.114,92.745,489.861,95.306,489.825,97.192z"/>
	<path style="fill:#AE312F;" d="M62.876,305.276c0.402-1.159,1.214-2.151,2.158-2.949c0.947-0.811,2.075-1.395,3.25-1.81   c1.194-0.354,2.429-0.565,3.658-0.523c0.612-0.013,1.22,0.107,1.819,0.176c0.595,0.133,1.183,0.291,1.751,0.496   c-0.608,0.106-1.196,0.134-1.779,0.195c-0.581,0.094-1.157,0.124-1.721,0.229c-1.131,0.176-2.226,0.427-3.29,0.763   C66.61,302.567,64.643,303.638,62.876,305.276z"/>
	<path style="fill:#AE312F;" d="M170.569,139.326c-2.716,7.522-7.253,14.387-13.238,19.685c-2.328,2.059-4.895,3.925-7.835,4.865   c-1.97,0.642-4.388,0.746-5.835-0.731c-1.732-1.746-1.149-4.656-0.314-6.97c1.477-4.089,3.388-8.044,4.686-12.193   c0.821-2.627,1.418-5.343,1.448-8.089C156.778,137.027,163.927,138.206,170.569,139.326z"/>
	<path style="fill:#AE312F;" d="M125.348,165.04c-3.507,7.537-8.656,13.372-14.372,19.103c-5.612-2-10.865-3.984-15.462-5.805   c3.746-2.731,7.268-5.656,10.447-9.164c2.254-2.477,4.328-5.089,6.343-7.761c1.03-1.388,2.059-2.791,3.06-4.208   c2.582-3.612,5.253-7.134,9.701-8.507C133.452,146.086,126.616,162.309,125.348,165.04z"/>
	<path style="opacity:0.48;fill:#AE312F;" d="M306.438,295.175c-0.122,2.159-1.101,5.356,0.311,7.061   c0.052,0.047,0.096-0.019,0.144,0.002c1.806-1.755,2.152-5.187,2.909-7.551c0.463,2.349,0.522,6.374,3.072,7.423   c0.069,0.039,0.112,0.033,0.128,0.021c1.169-1.187,0.737-3.895,0.805-5.533c4.311,2.176,9.814,1.844,13.517-1.423   c-3.113,3.786-8.627,4.733-13.114,2.997l0.902-0.628c0.921,8.376-5.151,7.36-6.101,0.309l1.26,0.104   c-0.701,1.847-1.184,4.171-3.093,5.18C303.866,303.221,305.939,296.969,306.438,295.175z"/>
	<path style="fill:#AE312F;" d="M406.241,215.411c-2.328,1.343-4.686,2.507-6.805,3.582c-7.94,3.985-16.477,6.761-25.238,8.238   c-0.552,0.089-1.134,0.194-1.746,0.298c-5.776,1.015-13.716,2.358-18.73,0.149c-6.089-2.686-3.716-8.477,1.164-10.94   c4.194-2.119,8.865-2.91,13.328-4.254c1.134-0.343,2.253-0.701,3.373-1.089c5.836-1.97,11.507-4.403,16.954-7.298   c4.298-2.298,8.343-5.029,12.552-7.507C403.077,202.74,404.808,209.037,406.241,215.411z"/>
	<path style="fill:#AE312F;" d="M411.485,250.114c-7.402,1.805-16.453,1.07-23.004-1.766c-7.477-3.223-5.552-10.76,0.791-14.253   c3.104-1.701,6.641-2.418,10.029-3.448c3.134-0.955,6.194-2.209,9.104-3.746c0.03-0.015,0.045-0.03,0.074-0.045   C409.778,234.663,411.231,242.309,411.485,250.114z"/>
	<path style="fill:#AE312F;" d="M410.332,272.793c-0.224,1.866-0.579,3.819-0.862,5.654c-0.955,6.179-2.558,11.765-4.424,16.958   c-5.149-0.239-10.298-1.119-15.327-2.269c-3.776-0.85-7.507-1.865-11.149-3.164c-5.507-1.97-10.76-4.612-15.626-7.835   c-1.672-1.104-3.403-2.463-3.806-4.418c-0.508-2.448,1.448-4.88,3.776-5.776c2.343-0.91,4.94-0.657,7.433-0.343   c8.567,1.06,17.103,2.671,25.745,2.746C400.763,274.407,405.78,273.972,410.332,272.793z"/>
	<path style="fill:#AE312F;" d="M396.077,315.777c-4.254,7.343-9.149,13.76-14.387,19.387c-1.806-1.373-3.373-2.627-4.403-3.358   c-1.716-1.224-3.119-2.806-4.492-4.403c-2.492-2.85-4.955-5.895-6.492-9.387c-1.075-2.433-2.582-6.552-0.985-9.059   c3.134-4.97,12.328-1.089,16.073,0.881l1.97,1.074C387.525,313.24,391.525,314.837,396.077,315.777z"/>
	<path style="fill:#AE312F;" d="M362.005,352.074c-4.955,3.418-9.88,6.298-14.566,8.716c-0.075-0.09-0.164-0.194-0.239-0.284   c-4.179-5.134-6.91-11.298-9.059-17.551c-1.194-3.433-2.239-6.985-2.403-10.626c-0.104-2.239-0.209-9.328,3.328-9.149   c4.88,0.254,6.418,5.716,8.477,9.253c2.268,3.88,4.746,7.641,7.447,11.253c0.299,0.403,0.612,0.806,0.925,1.209   C357.841,347.402,359.93,349.731,362.005,352.074z"/>
	<path style="opacity:0.48;fill:#AE312F;" d="M293.621,371.311c0.179,1.024,2.305,5.041,2.796,2.388   c0.158-1.346-0.96-5.256-1.194-6.621c1.272,2.313,5.918,12.611,5.049,3.522c1.819,1.805,4.24,3.371,6.929,3.011   c-2.128,1.001-4.762,0.364-6.598-1.049l1.03-0.551c0.219,1.364,0.022,3.676-1.889,3.715c-1.943-0.344-2.667-2.327-3.447-3.822   l1.234-0.394C298.417,377.336,293.557,376.289,293.621,371.311z"/>
	<path style="fill:#AE312F;" d="M421.061,167.204c-3.881,3.239-8.85,7.268-14.268,11.342c-0.03-0.313-0.045-0.626-0.06-0.925   c-0.433-7.686-2.552-15.163-3.433-22.804c-0.254-2.269-0.388-4.657,0.537-6.746c0.925-2.089,3.239-3.731,5.447-3.179   c1.97,0.492,3.179,2.448,4.119,4.253C416.449,154.936,419.016,160.981,421.061,167.204z"/>
	<path style="fill:#AE312F;" d="M432.537,121.028c0,1.567-0.149,3.194-0.851,4.597c-0.701,1.418-2.045,2.597-3.627,2.701   c-2.672,0.209-4.582-2.478-5.806-4.88c-2.821-5.522-5.179-11.298-8.567-16.506c-1.089-1.686-2.298-3.343-3.656-4.836   c4.627-2.328,9.164-4.597,13.417-6.731c0.045,0.06,0.074,0.134,0.12,0.194C428.254,103.388,432.582,111.91,432.537,121.028z"/>
	<path style="fill:#AE312F;" d="M454.909,138.206c0.478-7.164-0.716-14.342-2.09-21.357c-0.537-2.731-0.955-6.015,1.09-7.91   c1.567-1.463,4.074-1.463,6.014-0.552c6.91,3.224,10.835,9.895,12.999,17.193c-6.104,4.91-12.492,9.746-18.133,13.82   C454.835,138.982,454.879,138.594,454.909,138.206z"/>
	<path style="fill:#AE312F;" d="M106.786,333.035c40.734-7.181,77.051,10.367,47.724,53.848   C181.154,342.737,146.945,328.574,106.786,333.035z"/>
	<path style="fill:#AE312F;" d="M187.648,373.175c5.51-1.988,11.579-5.128,17.555-3.812c4.258,2.968-2.04,7.337-4.639,8.88   l-0.38-1.3c3.925,0.064,8.935,0.036,11.521,3.498c1.805,4.47-8.134,5.834-11.045,6.442c1.976-0.721,12.708-3.348,9.692-6.381   c-3.514-2.678-8.511-2.152-12.698-2.077c1.819-1.262,9.847-5.428,7.002-7.927C199.099,369.329,193.093,371.926,187.648,373.175z"/>
	<path style="fill:#FFFFFF;" d="M62.95,359.828c-0.167,0.811,0.129,1.728,0.806,2.203c0.421,0.296,0.942,0.405,1.45,0.487   c0.571,0.092,1.154,0.156,1.724,0.065c1.268-0.203,2.206-1.722,2.502-2.863c0.162-0.626,0.107-1.344-0.301-1.846   c-0.513-0.633-1.447-0.791-2.218-0.74C65.327,357.236,63.301,358.123,62.95,359.828z"/>
	<path style="fill:#FFFFFF;" d="M69.16,353.602c-0.26,0.413-0.259,1.03,0.127,1.328c0.16,0.124,0.364,0.179,0.564,0.211   c1.047,0.17,3.667-0.81,2.708-2.295C71.838,351.731,69.674,352.788,69.16,353.602z"/>
	<path style="fill:#6CE1C1;" d="M113.952,447.836c0,0-7.253-20.584,9.676-28.725c12.025-5.782,24.689,2.384,45.075,8.591   c21.014,6.398,45.712,11.844,60.022,10.17C256.918,434.575,151.662,475.6,113.952,447.836z"/>
	<path style="fill:#6CE1C1;" d="M163.246,426.609c0,0,2.401-16.773,21.389-19.829c20.177-3.247,25.872,25.096,63.996,23.752   c0,0-18.315,26.708-37.129,23.456C192.687,450.736,163.246,426.609,163.246,426.609z"/>
	<path style="fill:#FFFFFF;" d="M158.771,418.106c0,0.787-0.638,1.425-1.425,1.425s-1.425-0.638-1.425-1.425   c0-0.787,0.638-1.425,1.425-1.425S158.771,417.319,158.771,418.106z"/>
	<path style="fill:#FFFFFF;" d="M211.884,414.665c0,0.787-0.638,1.425-1.425,1.425c-0.787,0-1.425-0.638-1.425-1.425   c0-0.787,0.638-1.425,1.425-1.425C211.246,413.24,211.884,413.878,211.884,414.665z"/>
	<path style="fill:#FFFFFF;" d="M154.863,413.24c0,1.9-1.54,3.441-3.441,3.441c-1.9,0-3.441-1.54-3.441-3.441   c0-1.9,1.541-3.441,3.441-3.441C153.323,409.799,154.863,411.34,154.863,413.24z"/>
	<path style="fill:#FFFFFF;" d="M221.712,411.613c0,1.9-1.54,3.441-3.44,3.441c-1.9,0-3.441-1.54-3.441-3.441   c0-1.9,1.54-3.441,3.441-3.441C220.171,408.172,221.712,409.713,221.712,411.613z"/>
	<path style="fill:#FFFFFF;" d="M208.441,409.067c0,0.494-0.401,0.895-0.895,0.895c-0.494,0-0.895-0.401-0.895-0.895   c0-0.494,0.401-0.895,0.895-0.895C208.04,408.172,208.441,408.573,208.441,409.067z"/>
	<path style="opacity:0.48;fill:#AE312F;" d="M245.51,223.664c0.912,4.153,3.237,10.818,0.241,14.422   c-3.913,2.117-7.483-9.6-8.611-12.32l1.172-0.119c-1.931,17.974-9.539,16.343-9.808-0.82l1.277,0.219   c-1.776,4.99-9.124,9.478-13.366,4.805c-3.752-7.669-0.439-17.863,1.287-25.781c-0.816,5.543-5.125,23.887,1.409,26.252   c5.4,1.452,9.043-3.836,10.565-8.36c0.51,18.592,5.431,21.015,7.773,0.905c1.277,3.249,3.997,14.152,7.544,14.757   c0.103-0.004,0.195-0.095,0.296-0.141C247.987,233.913,246.1,227.817,245.51,223.664z"/>
</g>















</svg>
