<?xml version="1.0" encoding="UTF-8"?>
<!-- Generator: Adobe Illustrator 25.2.3, SVG Export Plug-In . SVG Version: 6.00 Build 0)  -->
<svg xmlns="http://www.w3.org/2000/svg" xmlns:xlink="http://www.w3.org/1999/xlink" version="1.1" id="Capa_1" x="0px" y="0px" viewBox="0 0 512 512" style="enable-background:new 0 0 512 512;" xml:space="preserve" width="512" height="512">
<g>
	<circle style="fill:#FF9D3D;" cx="329.258" cy="161.418" r="42.783"/>
	<path style="fill:#9CF0E7;" d="M208.111,195.627c0,0,6.619-38.016,49.854-38.233c43.235-0.217,52.223,40.792,52.223,40.792   s3.797-12.032,13.415-11.915c9.618,0.117,13.55,18.638,13.55,18.638s10.674-11.218,34.268-5.6   c23.594,5.618,66.851,14.807,66.851,14.807H159.577L208.111,195.627z"/>
	<g>
		<path style="fill:#6CE1C1;" d="M393.37,435.524c-7.296,2.153-18.122,3.504-30.225,3.504c-22.002,0-39.812-4.48-39.812-10    c0-3.116,5.657-5.895,14.543-7.734c-23.905-3.629-51.914-5.719-81.876-5.719c-87.558,0-158.558,17.847-158.558,39.874    c0,6.946,7.084,13.492,19.549,19.186c17.972,8.223,47.108,14.668,82.264,18.06c17.622,1.702,36.745,2.628,56.745,2.628    c87.571,0,158.558-17.86,158.558-39.875C414.558,448.19,406.849,441.394,393.37,435.524z M153.886,474.747    c-3.054,0.851-7.472,1.377-12.39,1.377c-6.02,0-11.301-0.801-14.243-1.99c-1.577-0.651-2.491-1.402-2.491-2.215    c0-2.328,7.497-4.205,16.733-4.205c9.249,0,16.746,1.877,16.746,4.205c0,1.089-1.64,2.077-4.343,2.828    C153.899,474.747,153.899,474.747,153.886,474.747z"/>
		<path style="fill:#6CE1C1;" d="M153.899,474.747c0,0,0,0-0.013,0c-3.054,0.851-7.472,1.377-12.39,1.377    c-6.02,0-11.301-0.801-14.243-1.99c-3.517,0.1-6.946,0.263-10.263,0.501c-27.371,1.94-47.433,8.273-47.433,15.77    c0,9.048,29.186,16.383,65.168,16.383c32.916,0,60.112-6.133,64.53-14.092c0.425-0.751,0.638-1.515,0.638-2.29    C199.893,483.032,180.532,476.8,153.899,474.747z M126.49,485.699c-4.618,0-8.373-0.939-8.373-2.103    c0-1.164,3.755-2.103,8.373-2.103c4.618,0,8.373,0.939,8.373,2.103C134.863,484.76,131.108,485.699,126.49,485.699z"/>
		<ellipse style="fill:#6CE1C1;" cx="217.756" cy="506.501" rx="21.872" ry="5.499"/>
		<path style="fill:#6CE1C1;" d="M101.685,470.626c0,1.162-3.746,2.104-8.367,2.104c-4.621,0-8.368-0.942-8.368-2.104    s3.746-2.104,8.368-2.104C97.939,468.522,101.685,469.464,101.685,470.626z"/>
	</g>
	<ellipse style="fill:#6CE1C1;" cx="366.588" cy="426.159" rx="21.872" ry="5.499"/>
	<g>
		<g>
			<path style="fill:#FF9D3D;" d="M195.354,145.127c0.404,0.151,6.942,2.593,13.545,3.901c2.257,0.435,4.519,0.747,6.55,0.781     c3.293,0.064,5.976-0.586,6.997-2.553c0.441-0.856,0.76-1.922,0.966-3.153c0.027-0.127,0.052-0.265,0.068-0.39     c0.938-6.198-0.818-15.832-3.673-20.728c-0.793-1.366-1.668-2.353-2.587-2.807c-0.36-0.183-0.717-0.269-1.096-0.278     c-6.016-0.078-10.317,4.055-12.672,9.09c-1.621,3.459-2.439,7.49-4.405,10.788c-0.153,0.246-1.421,2.413-2.447,3.916     l-0.246,0.347C195.903,144.692,195.515,145.137,195.354,145.127z"/>
			<path style="fill:#AE312F;" d="M219.082,143.299c1.643,0.084,3.193,0.183,4.392,0.281c0.928-6.13-0.809-15.658-3.633-20.5     c-0.784-1.352-1.649-2.327-2.558-2.776c0,0-1.899,1.396-2.492,6.721c-0.214,1.943-0.371,3.791-0.655,5.529     C213.456,136.663,213.722,143.001,219.082,143.299z"/>
			<path style="fill:#FFFFFF;" d="M219.082,143.299c-0.648-1.833-3.074-4.112-3.288-4.305c0.162,0.032,1.899,0.45,2.578-0.099     c0.71-0.579-2.168-1.189-2.168-1.189s2.104-0.188,2.163-0.837c0.072-0.64-2.011-0.118-2.011-0.118     c1.336-1.156,3.348-5.66,1.314-6.413c-1.325-0.487-2.715,1.064-3.534,2.216c-0.679,4.109-2.105,7.585-6.938,10.25     C207.197,142.804,213.722,143.001,219.082,143.299z"/>
		</g>
		<g>
			<g>
				<path style="fill:#FF9D3D;" d="M436.358,290.816c-18.379,1.887-59.477,27.342-71.578,27.652      c-13.557,0.347-20.162-26.072-41.715-42.063c-2.668-1.979-5.367-3.514-8.049-4.688l0.002-0.001c0,0,5.852,0.202,5.09-1.037      c-0.762-1.239-7.719,0-7.719,0s8.176-2.875,6.195-4.397c-1.981-1.522-10.567,3.129-10.567,3.129l-0.002,0.008      c-16.217-3.704-30.141,3.857-30.141,3.857s2.433,82.736,35.806,108.808c33.372,26.072,62.245-39.697,65.354-45.887      c6.994-13.925,7.328-3.057,20.714-7.924c6.023-2.19,13.345-7.495,21.089-11.884c9.468-5.367,19.202-10.173,23.431-16.316      C448.387,294.09,438.569,290.589,436.358,290.816z"/>
				<path style="opacity:0.2;fill:#AE312F;" d="M436.358,290.816c-18.379,1.887-59.477,27.342-71.578,27.652      c-13.557,0.347-20.162-26.072-41.715-42.063c-2.668-1.979-5.367-3.514-8.049-4.688l0.002-0.001c0,0,5.852,0.202,5.09-1.037      c-0.762-1.239-7.719,0-7.719,0s8.176-2.875,6.195-4.397c-1.981-1.522-10.567,3.129-10.567,3.129l-0.002,0.008      c-16.217-3.704-30.141,3.857-30.141,3.857s2.433,82.736,35.806,108.808c33.372,26.072,62.245-39.697,65.354-45.887      c6.994-13.925,7.328-3.057,20.714-7.924c6.023-2.19,13.345-7.495,21.089-11.884c9.468-5.367,19.202-10.173,23.431-16.316      C448.387,294.09,438.569,290.589,436.358,290.816z"/>
				<path style="fill:#AE312F;" d="M419.522,304.335c1.303-0.806,2.721-1.424,4.194-1.87c1.469-0.464,3.008-0.736,4.574-0.79      c1.555-0.017,3.175,0.109,4.64,0.782c1.473,0.626,2.698,1.755,3.428,3.098c-1.109-1.075-2.377-1.809-3.744-2.242      c-1.368-0.441-2.839-0.504-4.289-0.47c-1.459,0.027-2.928,0.234-4.392,0.505C422.471,303.633,420.999,303.945,419.522,304.335z"/>
			</g>
			<path style="fill:#FF9D3D;" d="M334.042,366.979c-19.351,53.921-76.537,73.39-128.727,62.777     c-31.036-6.303-60.171-28.07-79.037-54.76c-42.133-53.494-25.5-109.165-9.316-128.38c0,0,109.071-38.632,130.344-33.31     c38.009,9.519,28.598,51.604,28.598,51.604c17.278,5.66,42.978,30.832,56.208,56.492     C339.747,336.216,339.39,351.448,334.042,366.979z"/>
			<g>
				<path style="fill:#FF9D3D;" d="M140.708,171.525c-0.314,0.488-21.207,32.352-31.822,28.062c-1.015-0.412-1.998-0.915-2.93-1.49      c-8.941-5.443-14.1-17.455-12.421-21.314l0.004-0.011c1.859-4.254,11.907-2.388,20.207-2.319      C121.928,174.532,140.143,171.605,140.708,171.525z"/>
				<path style="fill:#AE312F;" d="M110.633,192.165c-2.888,3.199-4.58,5.801-4.678,5.932c-8.941-5.443-14.1-17.455-12.421-21.314      l0.004-0.011c2.441,0.243,5.357,0.554,10.524,4.295c0.506,0.372,1.017,0.694,1.524,0.99      C113.092,186.478,113.389,189.124,110.633,192.165z"/>
				<path style="fill:#FFFFFF;" d="M109.014,188.538c0,0-0.93,2.146-1.649,2.554c-0.724,0.419,0.403-2.997,0.403-2.997      c-1.326,1.43-3.801,2.107-3.63,1.517c0.164-0.605,2.339-2.053,2.339-2.053c-3.733,0.982-7.746-2.093-6.64-4.266      c0.472-0.93,3.011-1.214,5.751-1.234c7.505,4.421,15.154,1.691,16.217,1.074c-4.558,2.438-8.415,5.993-11.171,9.034      C109.203,191.018,109.014,188.538,109.014,188.538z"/>
			</g>
			<path style="fill:#FF9D3D;" d="M259.626,202.582c-0.352,2.708-2.505,15.477-2.505,15.477     c-15.194,15.292-116.749,88.711-148.841,19.889c-16.66-32.587,5.487-57.501,35.112-75.759v-0.014     c22.938-13.712,53.956-30.29,80.31-20.555c20.305,7.871,35.037,29.535,36.276,50.94c0.014,0.014,0.014,0.027,0,0.04     C260.209,196.678,259.965,200.118,259.626,202.582z"/>
			<path style="fill:#AE312F;" d="M128.822,250.828c-2.397,1.679-4.59,3.629-6.527,5.606c-0.406-0.312-0.812-0.65-1.205-0.989     l-0.095-0.081c-2.857-2.465-5.362-5.267-7.556-8.395C127.401,235.933,135.918,245.872,128.822,250.828z"/>
			<path style="fill:#AE312F;" d="M130.989,224.681c0,1.313-0.596,2.654-1.49,3.805c-2.627,3.399-7.163,5.484-11.09,7.42     c-2.776,1.368-5.674,3.439-8.328,5.647c-0.298-0.542-0.582-1.083-0.867-1.638c-0.325-0.65-0.636-1.3-0.934-1.964l-0.027-0.081     c-0.162-0.352-0.338-0.731-0.487-1.097c-1.489-3.399-2.735-7.041-3.71-10.873c6.053-4.157,13.107-7.15,19.986-6.702     C127.428,219.413,130.962,221.377,130.989,224.681z"/>
			<path style="fill:#AE312F;" d="M110.583,213.022c-3.169,1.083-5.877,2.343-8.124,3.602c-0.122-2.41,0.013-4.834,0.406-7.258     c0.108-0.677,0.23-1.34,0.393-2.017c0.46-2.099,1.124-4.198,1.977-6.297c2.194-0.149,4.415-0.014,6.54,0.379     c2.573,0.488,5.227,1.842,5.66,4.685C118.017,209.908,113.467,212.02,110.583,213.022z"/>
			<path style="fill:#AE312F;" d="M259.979,192.562c0.014,0.014,0.014,0.027,0,0.04c0,0.108,0,0.23-0.014,0.339     c-0.054,0.785-0.135,1.57-0.244,2.356c-3.859-0.027-8.314,0.217-12.593,1.205c-8.991,2.126-10.345-12.823,11.212-14.502     C259.315,185.818,259.789,189.38,259.979,192.562z"/>
			<path style="fill:#AE312F;" d="M255.957,174.729c-3.318,0.514-6.689,1.273-9.479,2.397c-4.049,1.639-8.639,3.629-12.918,3.318     c-1.463-0.108-2.857-0.555-3.832-1.435c-2.451-2.221-1.557-6.162,0.542-8.829c4.008-5.119,10.413-8.314,17.116-10.115     c0.609,0.772,1.205,1.585,1.774,2.383c0.095,0.108,0.19,0.23,0.271,0.352c0.176,0.257,0.352,0.528,0.528,0.772     c0.19,0.271,0.366,0.542,0.542,0.812c0.84,1.246,1.598,2.505,2.289,3.751c0.04,0.068,0.068,0.122,0.108,0.19     c0.542,0.975,1.056,1.963,1.53,2.952c0.284,0.569,0.542,1.138,0.799,1.706C255.483,173.564,255.727,174.16,255.957,174.729z"/>
			<path style="fill:#AE312F;" d="M241.848,153.646c-2.546,0.867-5.43,2.085-8.517,3.819c-2.668,1.463-7.271,3.453-9.709,0.487     c-1.828-2.221-1.07-5.104,0.285-7.339c1.462-2.383,3.318-4.577,5.484-6.432c0.799,0.42,1.584,0.867,2.343,1.341     c0.325,0.19,0.637,0.379,0.948,0.582c0.514,0.339,1.043,0.691,1.557,1.043c0.501,0.366,1.002,0.718,1.476,1.097     c1.516,1.138,2.952,2.356,4.319,3.629c0.095,0.068,0.176,0.163,0.244,0.244C240.818,152.617,241.333,153.131,241.848,153.646z"/>
			<g>
				<path style="fill:#AE312F;" d="M204.144,148.826c-3.142,1.255-6.369,2.167-9.618,2.994c-3.257,0.793-6.535,1.5-9.9,1.859      c3.141-1.258,6.369-2.169,9.618-2.994C197.502,149.895,200.78,149.189,204.144,148.826z"/>
				<path style="fill:#AE312F;" d="M201.89,140.773c-2.648,1.917-5.461,3.522-8.315,5.05c-2.87,1.496-5.782,2.914-8.86,4.016      c2.647-1.92,5.46-3.524,8.315-5.05C195.901,143.295,198.813,141.878,201.89,140.773z"/>
				<path style="fill:#AE312F;" d="M195.102,132.918c-1.535,2.886-3.356,5.564-5.247,8.191c-1.92,2.606-3.911,5.16-6.192,7.503      c1.532-2.888,3.354-5.566,5.247-8.191C190.832,137.816,192.824,135.263,195.102,132.918z"/>
			</g>
			<g>
				<path style="fill:#AE312F;" d="M155.428,150.297c0,0,1.034-4.89,2.797-4.99c1.762-0.1,0.225,7.29-1.137,8.602      c-1.362,1.312-7.752-2.445-7.43-3.96C149.98,148.435,155.428,150.297,155.428,150.297z"/>
				<path style="fill:#AE312F;" d="M161.861,175.76c-2.338-8.037-4.085-16.915-6.794-24.828c5.544,6.266,11.106,12.697,15.11,20.079      c-4.281-6.047-9.199-11.618-14.091-17.165l0.984-0.583C159.243,160.515,160.652,168.298,161.861,175.76z"/>
				<path style="opacity:0.48;fill:#AE312F;" d="M164.495,150.758c3.011-0.755,6.447-0.413,9.32,1.392      c4.165,2.616,7.012,7.118,5.898,12.003c-0.691,3.032-2.602,5.468-4.757,7.456c-4.131,3.811-8.503,7.304-14.142,8.463      c-2.045,0.42-4.207,0.552-6.328,0.005c-3.25-0.837-6.251-3.331-7.867-6.537c-1.617-3.206-1.81-7.048-0.508-10.074      c1.602-3.721,5.381-6.581,8.799-8.283C157.956,153.667,161.185,151.588,164.495,150.758z"/>
			</g>
			<g>
				<path style="fill:#AE312F;" d="M136.546,174.867c-2.469,2.313-5.143,4.337-7.868,6.29c-2.745,1.924-5.541,3.776-8.543,5.336      c2.468-2.315,5.142-4.339,7.868-6.29C130.749,178.28,133.545,176.429,136.546,174.867z"/>
				<path style="fill:#AE312F;" d="M115.503,179.531c2.844-1.612,5.818-2.894,8.824-4.095c3.018-1.169,6.069-2.255,9.251-3.008      c-2.843,1.615-5.817,2.896-8.824,4.096C121.735,177.69,118.683,178.776,115.503,179.531z"/>
				<path style="fill:#AE312F;" d="M113.977,169.262c3.263-0.197,6.498-0.041,9.726,0.201c3.225,0.278,6.442,0.645,9.631,1.367      c-3.264,0.2-6.498,0.043-9.726-0.202C120.384,170.348,117.166,169.982,113.977,169.262z"/>
			</g>
			<path style="opacity:0.48;fill:#AE312F;" d="M254.708,215.434c-0.489,1.696-1.097,3.353-1.753,4.998     c-0.347,0.815-0.715,1.622-1.122,2.419c-0.42,0.794-0.843,1.58-1.522,2.311l0.141-0.441c0.171,0.809,0.251,1.6,0.239,2.44     c-0.017,0.42-0.05,0.847-0.186,1.297c-0.133,0.429-0.414,0.984-1.007,1.232c-0.281,0.125-0.641,0.157-0.974,0.043     c-0.16-0.052-0.282-0.147-0.417-0.232c-0.107-0.093-0.197-0.192-0.292-0.292c-0.316-0.403-0.477-0.809-0.624-1.209     c-0.272-0.807-0.427-1.586-0.515-2.414l1.126,0.141c-0.314,0.825-0.665,1.6-1.075,2.374c-0.411,0.768-0.866,1.526-1.537,2.194     c-0.33,0.326-0.733,0.666-1.323,0.793c-0.144,0.043-0.287,0.05-0.43,0.041c-0.139,0.007-0.29-0.017-0.449-0.07     c-0.313-0.079-0.606-0.332-0.76-0.597c-0.295-0.549-0.274-1.053-0.247-1.512c0.045-0.465,0.134-0.889,0.269-1.334l0.653,0.437     c-1.167,0.847-2.354,1.624-3.615,2.297c-1.264,0.655-2.568,1.262-3.95,1.594c1.304-0.552,2.526-1.246,3.688-2.032     c1.156-0.787,2.305-1.605,3.361-2.5l0.945-0.801l-0.292,1.238c-0.17,0.719-0.246,1.67,0.03,2.094     c0.093,0.169,0.297,0.194,0.578,0.136c0.24-0.051,0.529-0.267,0.776-0.54c0.505-0.542,0.924-1.25,1.3-1.966     c0.372-0.719,0.707-1.486,0.984-2.239l0.823-2.238l0.303,2.379c0.092,0.718,0.219,1.48,0.445,2.151     c0.113,0.33,0.255,0.655,0.42,0.868c0.198,0.219,0.223,0.197,0.367,0.159c0.312-0.071,0.554-0.837,0.575-1.537     c0.043-0.718-0.026-1.487-0.128-2.21l-0.038-0.273l0.18-0.168c0.56-0.524,1.052-1.265,1.497-1.997     c0.444-0.743,0.859-1.512,1.254-2.292C253.22,218.626,253.96,217.03,254.708,215.434z"/>
			<path style="opacity:0.48;fill:#AE312F;" d="M162.606,259.509c-3.097,0.444-6.201,0.721-9.342,0.648l0.313-0.736     c0.964,0.778,2.462,2.768,0.68,3.627c-2.848,0.151-4.833-2.705-6.656-4.57l1.053-0.393c0.573,5.178-2.867,6.033-5.643,1.924     l0.53,0.151c-3.296,1.057-6.835,1.45-10.208,0.675c3.446,0.28,6.997-0.35,10.176-1.641c4.046,4.899,4.338,1.205,3.838-2.961     c1.395,1.927,3.121,3.881,5.098,5.24c3.216,1.966,0.897-1.389-0.268-2.269C155.628,259.575,159.132,259.507,162.606,259.509z"/>
			<g>
				<g>
					<path style="fill:#FF9D3D;" d="M468.277,359.683c-4.089,9.804-26.418-4.089-38.686,4.631c-2.221,1.57-4.536,3.426-6.96,5.538       c-6.513,5.673-13.825,13.256-22.099,22.708c-3.48,3.967-7.122,8.26-10.954,12.877c-2.478,2.979-5.024,6.093-7.651,9.33       c-19.093,23.574-59.092,14.638-71.089-15.586c-11.984-30.237,8.449-6.811,8.449-6.811s10.453,15.112,24.441,20.501       c4.211,1.638,8.747,2.37,13.419,1.557c0.176-0.027,0.339-0.068,0.514-0.108c13.378-2.911,25.01-27.258,39.079-46.445       c4.008-5.471,8.219-10.521,12.728-14.529c3.182-2.844,6.527-5.173,10.047-6.744c6.297-2.83,12.62-4.089,18.538-4.265       C456.74,341.809,471.377,352.235,468.277,359.683z"/>
					<path style="opacity:0.2;fill:#AE312F;" d="M468.277,359.683c-4.089,9.804-26.418-4.089-38.686,4.631       c-2.221,1.57-4.536,3.426-6.96,5.538c-6.513,5.673-13.825,13.256-22.099,22.708c-3.48,3.967-7.122,8.26-10.954,12.877       c-2.478,2.979-5.024,6.093-7.651,9.33c-19.093,23.574-59.092,14.638-71.089-15.586c-11.984-30.237,8.449-6.811,8.449-6.811       s10.453,15.112,24.441,20.501c4.211,1.638,8.747,2.37,13.419,1.557c0.176-0.027,0.339-0.068,0.514-0.108       c13.378-2.911,25.01-27.258,39.079-46.445c4.008-5.471,8.219-10.521,12.728-14.529c3.182-2.844,6.527-5.173,10.047-6.744       c6.297-2.83,12.62-4.089,18.538-4.265C456.74,341.809,471.377,352.235,468.277,359.683z"/>
				</g>
				<path style="fill:#AE312F;" d="M468.277,359.683c-4.089,9.804-26.418-4.089-38.686,4.631c-2.221,1.57-4.536,3.426-6.96,5.538      c-5.322-12.133,17.915-16.845,17.915-16.845c-4.739-4.238-4.238-7.962-2.492-10.67      C456.74,341.809,471.377,352.235,468.277,359.683z"/>
				<path style="fill:#AE312F;" d="M408.833,370.935c-4.793,2.302-9.167-0.298-12.092-3.06c4.008-5.471,8.219-10.521,12.728-14.529      C411.852,358.802,414.777,368.078,408.833,370.935z"/>
				<path style="fill:#AE312F;" d="M400.532,392.56c-3.48,3.967-7.122,8.26-10.954,12.877c-1.476-4.807-2.099-10.738,1.665-14.502      C394.52,387.658,397.865,389.526,400.532,392.56z"/>
				<path style="fill:#AE312F;" d="M357.662,414.32c-1.043,4.157-3.033,8.341-6.743,7.989c-4.008-0.379-6.121-5.2-7.19-9.438      c4.211,1.638,8.747,2.37,13.419,1.557C357.323,414.401,357.486,414.36,357.662,414.32z"/>
			</g>
			<path style="fill:#FF9D3D;" d="M110.786,312.669c-15.816-8.49-28.517-21.747-38.429-36.221     c-2.654-3.873-5.105-7.827-7.352-11.794c-2.776-4.875-5.254-9.763-7.461-14.57c-2.167-4.712-4.062-9.343-5.714-13.771     c-5.619-15.098-8.301-27.826-8.503-33.54c-0.542-15.708,10.819-18.795,10.819-18.795s0.487-8.68,8.192-9.1     c7.705-0.406,11.726,8.152,11.726,8.152c11.794-2.586,15.748,16.452,21.855,34.57c6.107,18.104,24.847,37.102,24.847,37.102     S158.382,338.207,110.786,312.669z"/>
			<path style="fill:#FF9D3D;" d="M87.614,295.074c0,0-7.265,3.218-5.842,4.641c1.423,1.423,9.047,0.927,9.047,0.927     s-5.978,4.829-4.744,6.014c1.235,1.185,9.55-2.293,9.55-2.293l0,0c0,0,4.353,14.19,10.225,13.158     c5.871-1.032-8.048-27.179-8.048-27.179L87.614,295.074z"/>
			<path style="fill:#FFC893;" d="M72.806,193.518c-2.149-1.148-4.589-2.007-6.993-1.616c-3.978,0.646-6.607,4.389-8.61,7.885     c-0.746,1.302-1.481,2.642-1.792,4.11c-0.31,1.469-0.141,3.108,0.785,4.29c0.741,0.946,1.883,1.502,3.046,1.805     c3.458,0.9,7.384-0.363,9.67-3.111c0.276-0.332,0.602-0.719,1.033-0.697c0.206,0.01,0.393,0.117,0.572,0.219     c1.687,0.968,3.457,1.864,5.374,2.193c1.917,0.329,4.022,0.025,5.529-1.205C88.297,201.783,76.826,195.666,72.806,193.518z"/>
			<path style="fill:#FFC893;" d="M75.917,190.267c2.367,2.653,6.987-0.552,4.517-3.309     C78.118,184.373,73.126,187.139,75.917,190.267z"/>
			<path style="fill:#FFC893;" d="M60.264,186.092c0.909,1.097,2.257,1.821,3.673,1.972c0.456,0.049,0.935,0.036,1.347-0.165     c1.341-0.654,1.728-3.081,1.78-4.392c0.055-1.393-0.438-2.8-1.524-3.714c-1.85-1.558-4.834-1.049-6.104,1.023     C58.457,182.413,59.141,184.737,60.264,186.092z"/>
			<path style="fill:#FFC893;" d="M50.057,195.349c0.585,0.537,1.365,0.842,2.157,0.902c0.264,0.02,0.537,0.013,0.782-0.089     c0.199-0.083,0.368-0.223,0.523-0.373c1.647-1.597,2.041-5.297-0.907-5.611C49.876,189.887,47.895,193.361,50.057,195.349z"/>
			<path style="opacity:0.48;fill:#AE312F;" d="M99.978,313.729c5.012,8.364,12.985,12.184,4.596-0.547     c3.364,2.929,12.445,14.498,10.253,2.757c8.04,3.389,17.259,5.577,25.881,3.211c-8.222,3.134-17.454,1.319-25.425-1.794     l0.781-0.602c1.429,10.112-5.85,3.865-9.349,0.026l0.787-0.615c0.973,1.566,3.311,6.121-0.178,5.963     C103.615,320.889,101.862,316.839,99.978,313.729z"/>
			<path style="opacity:0.2;fill:#AE312F;" d="M298.475,351.368c-0.108,0.19-0.217,0.366-0.352,0.555     c-18.591,9.804-30.453-15.842-35.991-30.128c-5.755-14.841-24.576-44.319-19.593-53.039c2.018-3.548,5.186-4.522,8.219-4.441     c3.047,1.99,5.416,5.375,6.906,8.652c8.179,17.955,19.039,34.543,29.181,51.346c3.317,5.484,6.581,11.049,9.235,16.872     C297.175,343.582,300.019,348.647,298.475,351.368z"/>
			<path style="fill:#FFC893;" d="M243.789,277.193c0.163,0.719,0.577,1.406,1.221,1.766c0.647,0.361,1.429,0.353,2.169,0.334     c0.279-0.007,0.566-0.015,0.824-0.121c0.462-0.19,0.751-0.661,0.902-1.137c0.353-1.114,0.087-2.391-0.637-3.308     c-0.557-0.706-2.301-2.009-3.298-1.711C243.602,273.424,243.547,276.124,243.789,277.193z"/>
			<path style="fill:#FFC893;" d="M246.906,268.53c0.137,1.113,1.033,2.011,2.049,2.484c0.454,0.212,0.953,0.359,1.452,0.315     c0.499-0.044,0.998-0.306,1.233-0.748c0.164-0.308,0.189-0.672,0.161-1.02c-0.103-1.292-1.146-2.913-2.455-3.303     C248.002,265.858,246.737,267.148,246.906,268.53z"/>
			<path style="fill:#FFC893;" d="M253.899,274.415c-0.428,0.182-0.718,0.621-0.776,1.082c-0.058,0.461,0.099,0.934,0.374,1.309     c0.275,0.374,0.661,0.657,1.077,0.864c0.302,0.151,0.643,0.267,0.975,0.202c0.521-0.102,0.872-0.648,0.888-1.179     C256.47,275.579,255.171,273.872,253.899,274.415z"/>
			<path style="fill:#FFC893;" d="M252.824,281.806c-0.338-0.002-0.671,0.063-0.957,0.236c-1.166,0.705-0.782,2.467-0.246,3.719     c3.005,7.015,6.27,13.917,9.787,20.69c3.26,6.277,6.456,13.26,10.71,18.932c0.744,1.204,5.629,9.712,7.6,7.225     c0.509-0.642,0.5-1.549,0.367-2.358c-0.89-5.406-4.052-10.276-6.68-14.978c-2.876-5.146-5.849-10.237-8.668-15.415     c-1.458-2.677-2.876-5.376-4.216-8.114c-1.183-2.417-2.053-5.255-3.639-7.436c-0.846-1.162-2.035-2.138-3.442-2.431     C253.239,281.834,253.031,281.808,252.824,281.806z"/>
			<path style="fill:#FFC893;" d="M337.662,368.01c-9.492,27.569-35.463,47.068-59.552,56.344l-0.745-0.718     c24.617-12.106,11.334-42.437,6.919-51.821c-4.414-9.37,9.655-13.676,13.839-19.892c0.135-0.189,0.244-0.365,0.352-0.555     c1.544-2.722-1.3-7.786-2.397-10.183c-2.654-5.823-5.917-11.388-9.235-16.872c-10.142-16.804-21.002-33.392-29.181-51.346     c-1.489-3.277-3.859-6.662-6.906-8.652c-2.762-1.828-6.08-2.492-9.79-0.867c-13.202,5.769,10.372,49.587,13.744,62.085     c3.358,12.485-7.624,16.791-7.624,16.791c-20.69-6.554-34.664,4.617-41.475,12.417l-1.462-1.395c0,0-20.325-27.718-20.487-58.374     c-0.162-30.656,18.944-51.049,40.446-48.774c21.503,2.261,40.23,17.251,46.201,29.898c0,0,34.516,1.544,61.8,45.308     C339.747,336.216,343.011,352.479,337.662,368.01z"/>
			<path style="opacity:0.48;fill:#AE312F;" d="M191.002,372.858c-1.436-13.735,6.649-15.871,4.753-7.027     C194.487,353.989,191.413,369.679,191.002,372.858z"/>
			<path style="opacity:0.48;fill:#AE312F;" d="M195.687,366.277l0.026-0.176l0,0c0.003-0.08,0.031-0.161,0.039-0.244l0,0     c0.914-3.495,0.919-8.109,3.815-10.584c2.562,0.145,1.397,4.327,1.356,6.054l-0.221-0.078     c9.067-15.965,28.614-25.655,46.492-19.261l-0.234,0.008c13.436-5.884,6.218-20.971,1.821-30.719     c-3.982-11.479-17.645-36.322-9.902-47.024c6.735-5.829,15.739,0.474,18.743,7.293c4.923,10.869,10.694,21.221,16.811,31.431     c5.389,9.079,13.317,21.522,18.321,30.655c2.425,5.388,6.516,10.585,6.486,16.693c-2.744,8.061-17.484,10.073-15.111,20.175     c8.947,17.621,14.539,45.538-8.931,54.124c19.524-7.31,18.84-29.413,11.815-45.702c-2.113-5.348-6.646-11.783-1.138-16.697     c3.982-5.19,15.325-8.112,11.924-16.193c-5.96-14.374-16.289-29.092-24.233-42.533c-6.158-10.172-12.038-20.618-16.982-31.416     c-1.33-2.575-3.087-4.98-5.353-6.734c-4.168-3.696-12.443-2.969-13.43,3.318c-1.095,14.772,6.776,28.735,11.772,42.283     c4.595,10.291,11.711,25.648-2.464,31.749c-17.844-6.512-37.425,3.26-46.512,19.179c0.085-1.611,1.387-6.3-0.992-6.457     c-2.801,2.427-2.907,6.989-3.849,10.411v0c-0.006,0.078-0.018,0.155-0.043,0.231l0.001-0.001l0,0.041l0,0L195.687,366.277z"/>
			<path style="fill:#FFC893;" d="M210.212,249.199c0,0,0.992-6.241,4.63-7.646c3.638-1.404,0,5.071,0,5.071s4.079-3.84,7.083-3.008     c3.004,0.832-1.626,5.583-1.626,5.583H210.212z"/>
			<path style="opacity:0.48;fill:#AE312F;" d="M294.107,311.852c7.872-4.828,18.93,2.211,5.387,4.988l0.072-0.98     c7.343,1.593,17.766,9.41,3.003,8.58l0.395-0.944c6.263,5.838,9.111,15.101,6.54,23.329c1.953-8.673-1.59-17.931-8.371-23.545     c16.027,1.247,2.744-5.424-3.856-7.09C311.721,314.639,303.024,307.995,294.107,311.852z"/>
			<path style="fill:#FF9D3D;" d="M283.513,272.913c-1.124-1.3-23.737-27.298-34.448-30.074     c-15.017-5.457-59.932,0.284-84.237-0.054c-23.046-5.85-15.355-11.496-15.355-11.496c-0.068,0.135-6.012-4.347-6.296-4.834     c-1.476-2.383-1.841-5.66-0.867-8.287c0.149-0.379,1.327-1.368,1.259-1.544c-2.857-7.122,3.602-12.498,7.827-14.597     c3.927-1.964,8.693-2.316,12.999-2.884c4.685-0.623,9.411-1.056,14.137-1.354c9.33-0.582,18.7-0.609,28.029-0.271     c15.64,0.541,32.782,2.085,47.298,8.598c3.967,1.787,7.772,3.683,11.32,5.741c4.333,2.532,8.287,5.322,11.713,8.49v0.014     c5.023,4.645,8.937,10.102,11.266,16.764C292.788,250.354,283.147,271.762,283.513,272.913z"/>
			<path style="opacity:0.48;fill:#AE312F;" d="M264.783,211.705c-24.527-14.65-53.897-14.075-81.564-13.793     c-4.79,0.097-11.914,0.855-16.74,1.256c-9.635,0.257-26.73,4.345-22.781,17.251c-4.274,5.021-0.765,11.318,4.64,13.589     c0.531,0.302,0.326,1.111,0.429,1.578c0.19,1.255,0.007,3.271,0.468,4.45c4.555,6.358,14.275,4.804,21.231,5.432     c15.494,0.517,31.026,0.464,46.482-0.768c18.443-2.376,38.646-0.009,52.481,13.605l-0.077,0.088     c-14.17-13.055-33.956-15.201-52.309-12.539c-20.125,1.348-40.563,2.088-60.607-0.508c-3.723-0.799-8.65-2.793-8.361-7.385     c-0.029-0.668-0.122-2.731-0.184-3.355c-5.107-2.154-9.441-8.692-4.697-14.381l-0.035,0.243     c-3.737-13.184,13.391-17.356,23.267-17.744c4.873-0.471,11.934-1.352,16.763-1.55c27.732-0.883,57.477-1.066,81.656,14.43     L264.783,211.705z"/>
			<path style="fill:#AE312F;" d="M167.564,208.967c-2.232-0.192-4.452-0.15-6.645,0.013c-2.192,0.189-4.358,0.558-6.451,1.165     c-2.11,0.56-4.115,1.451-6.008,2.535c-1.934,1.045-3.602,2.491-5.291,3.973c1.341-1.776,2.87-3.52,4.803-4.744l0.698-0.496     l0.749-0.412c0.505-0.264,0.992-0.57,1.514-0.8c1.05-0.45,2.109-0.879,3.212-1.18c2.196-0.613,4.467-0.944,6.734-0.95     C163.142,208.06,165.41,208.33,167.564,208.967z"/>
			<path style="fill:#AE312F;" d="M148.227,230.398c1.162-1.51,2.691-2.744,4.375-3.681c1.683-0.944,3.527-1.634,5.438-1.978     c1.91-0.298,3.868-0.45,5.777-0.14c0.962,0.061,1.888,0.366,2.819,0.564c0.913,0.286,1.808,0.624,2.682,0.981     c-0.953-0.104-1.864-0.327-2.797-0.419c-0.936-0.06-1.85-0.237-2.779-0.217l-1.384-0.038l-1.378,0.081     c-0.46,0.008-0.915,0.06-1.369,0.129c-0.452,0.073-0.913,0.093-1.357,0.208c-1.809,0.302-3.554,0.903-5.241,1.639     C151.336,228.291,149.707,229.212,148.227,230.398z"/>
			<path style="fill:#AE312F;" d="M70.854,243.028c-2.424,2.83-5.917,4.536-9.424,5.809c-1.273,0.461-2.573,0.88-3.886,1.246     c-2.167-4.712-4.062-9.343-5.714-13.771c4.658,0.027,9.316-0.541,13.947-0.798c2.492-0.149,5.592,0.176,6.527,2.505     C72.98,239.711,72.046,241.634,70.854,243.028z"/>
			<path style="fill:#AE312F;" d="M141.145,333.278c-1.449,5.254-5.362,8.896-9.736,11.848c-5.62,3.792-11.672,7.15-17.874,9.885     c-2.654-4.888-4.875-9.682-6.716-14.353c6.405-1.097,12.633-3.507,18.212-6.649c3.372-1.895,6.797-3.954,10.562-4.983     C139.005,328.092,142.309,329.013,141.145,333.278z"/>
			<path style="fill:#AE312F;" d="M139.249,363.406c-3.412,4.739-8.07,8.368-12.972,11.591c-2.681-3.683-5.322-7.582-7.894-11.726     c0.65-0.23,1.3-0.474,1.936-0.745c5.173-2.193,10.007-5.619,15.599-6.148c1.598-0.149,3.426,0.068,4.36,1.354     C141.483,359.412,140.454,361.741,139.249,363.406z"/>
			<path style="fill:#AE312F;" d="M170.447,387.062c-2.194,5.199-5.254,10.02-8.747,14.434c-1.49,1.882-3.074,3.71-4.78,5.443     c-5.958-4.577-11.929-9.966-17.806-16.303c0.135-0.108,0.271-0.244,0.406-0.366c5.497-5.159,10.169-11.144,15.599-16.384     c3.615-3.494,7.962-6.811,12.986-6.906c2.559-0.054,4.834,1.056,5.471,3.71C174.78,375.796,172.41,382.404,170.447,387.062z"/>
			<path style="fill:#AE312F;" d="M87.97,262.649c-4.021,5.281-8.951,9.993-14.705,13.311c-0.298,0.176-0.609,0.339-0.907,0.488     c-2.654-3.873-5.105-7.827-7.352-11.794c0.108-0.041,0.216-0.081,0.338-0.135c7.38-3.074,13.947-7.732,20.677-11.943     c1.137-0.718,2.451-1.449,3.751-1.11C95.241,252.9,89.73,260.334,87.97,262.649z"/>
			<path style="fill:#AE312F;" d="M205.897,427.454c-0.176,0.772-0.366,1.543-0.582,2.302c-9.059-1.99-19.038-5.281-29.37-10.643     c3.467-3.683,6.865-7.298,9.533-11.835c1.936-3.304,3.615-6.878,6.445-9.465c2.83-2.586,7.285-3.927,10.548-1.909     c2.898,1.801,3.9,5.511,4.374,8.883C207.901,412.315,207.576,420.034,205.897,427.454z"/>
			<path style="fill:#AE312F;" d="M254.941,430.42c-7.705,1.327-15.396,2.085-21.841,2.153h-0.541     c1.327-4.658,2.193-9.316,2.41-14.34c0.325-7.691-0.393-15.383-0.812-23.06c-0.176-3.182-0.095-6.852,2.343-8.91     c2.518-2.112,6.54-1.354,8.991,0.826c2.438,2.18,3.67,5.389,4.645,8.517C253.668,406.832,255.293,418.653,254.941,430.42z"/>
			<path style="fill:#AE312F;" d="M215.253,208.621c-0.067,3.873-1.178,7.854-3.778,10.724c-0.542,0.609-1.178,1.178-1.95,1.463     c-2.193,0.839-4.672-0.908-5.633-3.06c-0.948-2.153-0.88-4.59-1.137-6.946c-0.528-4.956-2.667-9.709-5.931-13.487     c3.25,0.014,6.486,0.095,9.736,0.203c2.329,0.081,4.699,0.176,7.082,0.311C214.522,201.391,215.308,204.979,215.253,208.621z"/>
			<path style="fill:#AE312F;" d="M250.365,243.232c-1.286-0.433-2.573-0.84-3.873-1.178c-5.498-1.449-11.104-1.76-16.723-1.611     c0.027-0.041,0.041-0.068,0.068-0.108c2.207-3.507,3.575-7.461,4.753-11.442c0.962-3.223,1.882-6.635,4.238-9.045     c2.193-2.234,5.904-2.884,8.422-0.799c3.467,2.871,3.29,10.007,3.548,14.123C251.015,236.502,250.974,239.928,250.365,243.232z"/>
			<path style="fill:#AE312F;" d="M276.891,220.348v0.014c-0.122,0.799-0.298,1.571-0.515,2.343c-0.772,2.6-2.234,5.051-4.401,6.675     c-0.447,0.339-0.948,0.65-1.503,0.745c-1.11,0.203-2.221-0.515-2.83-1.462c-0.596-0.948-0.785-2.099-0.907-3.209     c-0.352-3.087-0.312-6.188-0.664-9.276c-0.176-1.449-0.447-2.925-0.894-4.319C269.511,214.39,273.465,217.179,276.891,220.348z"/>
		</g>
	</g>
	<g>
		<g>
			<path style="fill:#FFC893;" d="M189.183,72.213c0,27.759-15.653,51.861-38.618,63.939c-10.034,5.295-21.476,8.287-33.595,8.287     c-39.891,0-72.227-32.335-72.227-72.227c0-5.05,0.515-9.993,1.503-14.76c0.041-0.162,0.068-0.339,0.108-0.501     C53.369,24.4,82.32,0,116.97,0c18.551,0,35.49,7,48.273,18.524c0.514,0.46,1.015,0.921,1.516,1.395     C180.571,33.066,189.183,51.631,189.183,72.213z"/>
			<path style="opacity:0.48;fill:#AE312F;" d="M46.247,57.263c2.995,6.39,6.793,12.44,11.62,17.564     c4.789,5.117,10.723,9.282,17.443,11.244c3.341,1.007,6.841,1.403,10.32,1.364c1.742-0.013,3.482-0.187,5.206-0.443     c1.718-0.247,3.382-0.693,4.964-1.371c3.173-1.343,5.9-3.599,8.127-6.252c2.24-2.655,4.069-5.66,5.674-8.773     c3.232-6.231,5.729-12.85,8.475-19.368c2.756-6.503,5.652-13.049,9.804-18.865c2.067-2.898,4.441-5.611,7.215-7.867     c2.755-2.276,5.919-4.056,9.292-5.221c6.802-2.293,14.146-2.04,21.029-0.606c-6.93-1.174-14.225-1.286-20.837,1.151     c-3.288,1.198-6.351,2.98-9.009,5.247c-2.678,2.247-4.962,4.937-6.949,7.816c-3.961,5.791-6.867,12.246-9.56,18.755     c-2.711,6.51-5.16,13.164-8.429,19.496c-1.646,3.152-3.528,6.217-5.862,8.956c-2.318,2.733-5.195,5.101-8.558,6.503     c-1.669,0.708-3.447,1.172-5.225,1.418c-1.77,0.254-3.556,0.423-5.346,0.429c-3.578,0.039-7.176-0.443-10.59-1.523     c-6.868-2.122-12.85-6.456-17.598-11.71C52.72,69.904,49.009,63.762,46.247,57.263z"/>
			<path style="opacity:0.48;fill:#AE312F;" d="M114.588,59.922c6.443,3.722,12.172,8.628,17.241,14.096     c5.068,5.488,9.285,11.754,12.611,18.454c3.221,6.757,5.425,13.994,6.456,21.398c0.164,1.861,0.463,3.708,0.503,5.577     l0.136,2.794l-0.019,2.796c-0.055,3.728-0.447,7.437-1.001,11.108c0.715-7.393,0.611-14.846-0.509-22.144     c-0.67-3.628-1.392-7.25-2.53-10.761c-1.128-3.507-2.457-6.954-4.088-10.259c-3.191-6.644-7.357-12.81-12.226-18.365     c-2.422-2.79-5.041-5.411-7.809-7.867C120.606,64.268,117.689,61.965,114.588,59.922z"/>
			<path style="opacity:0.1;fill:#AE312F;" d="M166.76,19.918c-31.239-7.502-40.839,11.672-47.149,26.161     c-6.865,15.788-7.813,41.841-38.009,41.706C62.821,87.69,51.853,70.466,46.247,57.453C53.071,24.658,82.144,0,116.97,0     C136.266,0,153.815,7.569,166.76,19.918z"/>
			<path style="opacity:0.48;fill:#AE312F;" d="M96.195,86.021c-4.302-28.664-4.468-61.205,13.251-85.639     C93.187,25.586,93.497,57.182,96.195,86.021z"/>
			<path style="opacity:0.48;fill:#AE312F;" d="M77.716,87.959C64.364,63.77,64.138,31.468,81.601,9.234     C65.656,32.268,65.937,63.171,77.716,87.959z"/>
			<path style="opacity:0.2;fill:#AE312F;" d="M189.183,72.213c0,27.759-15.653,51.861-38.618,63.939     c4.875-55.016-36.181-75.72-36.181-75.72c3.115-6.202,10.995-33.974,26.865-39.972c8.395-3.182,17.386-2.898,23.994-1.936     c0.514,0.46,1.015,0.921,1.516,1.395C180.571,33.066,189.183,51.631,189.183,72.213z"/>
			<path style="opacity:0.48;fill:#AE312F;" d="M121.954,41.948c30.721,6.919,55.987,36.121,56.622,67.971     C176.237,78.437,152.005,50.454,121.954,41.948z"/>
			<path style="opacity:0.48;fill:#AE312F;" d="M137.197,22.638c25.914,9.408,46.237,32.913,51.666,59.963     C181.845,56.098,162.341,33.52,137.197,22.638z"/>
			<path style="opacity:0.3;fill:#AE312F;" d="M150.406,136.236c-9.995,5.242-21.38,8.203-33.435,8.203     c-39.891,0-72.227-32.335-72.227-72.227c0-5.05,0.515-9.993,1.503-14.76c0.041-0.162,0.068-0.339,0.108-0.501     c4.726,9.857,15.301,27.962,29.898,29.817c20.189,2.573,32.268-4.699,38.334-26.852c0,0,42.031,20.853,35.978,76.234     C150.512,136.18,150.459,136.208,150.406,136.236"/>
			<path style="opacity:0.48;fill:#AE312F;" d="M55.738,110.532c32.666,15.109,64.86,0.971,82.928-28.627     C122.146,112.606,87.746,127.436,55.738,110.532z"/>
			<path style="opacity:0.48;fill:#AE312F;" d="M89.825,139.159c24.12-1.778,51.874-12.827,58.544-38.411     C143.292,127.086,114.204,139.098,89.825,139.159z"/>
		</g>
		<g>
			<path style="fill:#FFFFFF;" d="M88.258,10.67c-0.802,0.023-1.615,0.202-2.303,0.485c-1.12,0.46-2.155,1.412-2.238,2.62     c-0.017,0.242,0.008,0.494,0.119,0.71c0.107,0.208,0.288,0.369,0.482,0.5c0.715,0.48,1.674,0.574,2.469,0.243     c0.671-0.28,1.196-0.823,1.832-1.175c0.498-0.276,1.059-0.432,1.538-0.741c0.622-0.401,1.091-1.308,0.542-1.964     c-0.19-0.228-0.47-0.363-0.752-0.455C89.425,10.72,88.844,10.653,88.258,10.67z"/>
			<path style="fill:#FFFFFF;" d="M94.758,9.303c0.31,0.513,0.99,0.64,1.589,0.672c0.506,0.027,1.098-0.019,1.382-0.439     c0.73-1.077-0.472-2.074-1.487-2.177C95.317,7.266,94.201,8.382,94.758,9.303z"/>
		</g>
	</g>
</g>















</svg>
