<?xml version="1.0" encoding="UTF-8"?>
<!-- Generator: Adobe Illustrator 25.2.3, SVG Export Plug-In . SVG Version: 6.00 Build 0)  -->
<svg xmlns="http://www.w3.org/2000/svg" xmlns:xlink="http://www.w3.org/1999/xlink" version="1.1" id="Capa_1" x="0px" y="0px" viewBox="0 0 512 512" style="enable-background:new 0 0 512 512;" xml:space="preserve" width="512" height="512">
<g>
	
		<ellipse transform="matrix(0.1579 -0.9874 0.9874 0.1579 45.0094 216.4705)" style="fill:#FF9D3D;" cx="149.427" cy="81.845" rx="38.51" ry="38.51"/>
	<path style="fill:#FF9D3D;" d="M90.794,239.615c0,0,5.559,22.943,22.96,27.308c17.401,4.365-1.765-24.254-1.765-24.254   L90.794,239.615z"/>
	<path style="fill:#FFC893;" d="M429.117,361.77c0,44.262-92.737,80.131-207.126,80.131c-86.259,0-160.194-20.39-191.354-49.399   c7.221-2.704,11.705-6.489,11.705-10.68c0-6.669-11.333-12.302-26.936-14.183c-0.372-1.938-0.552-3.898-0.552-5.869   c0-44.25,92.737-80.131,207.137-80.131C336.38,281.639,429.117,317.52,429.117,361.77z"/>
	<ellipse style="fill:#FFC893;" cx="122.343" cy="314.17" rx="94.076" ry="36.394"/>
	<path style="fill:#FFC893;" d="M220.835,457.172c0,6.347-13.3,11.492-29.707,11.492c-16.407,0-29.707-5.145-29.707-11.492   c0-6.347,13.3-11.492,29.707-11.492C207.535,445.68,220.835,450.826,220.835,457.172z"/>
	<ellipse style="fill:#FFC893;" cx="14.854" cy="383.971" rx="14.854" ry="5.746"/>
	<ellipse style="fill:#FFC893;" cx="416.503" cy="407.681" rx="14.854" ry="5.746"/>
	<path style="fill:#FFC893;" d="M433.067,396.876c0,1.248-2.614,2.259-5.839,2.259c-3.225,0-5.839-1.011-5.839-2.259   c0-1.247,2.614-2.259,5.839-2.259C430.453,394.618,433.067,395.629,433.067,396.876z"/>
	<path style="opacity:0.2;fill:#AE312F;" d="M320.418,412.198c0,3.174-6.65,5.746-14.854,5.746c-8.203,0-14.853-2.573-14.853-5.746   c0-3.173,6.65-5.746,14.853-5.746C313.768,406.452,320.418,409.025,320.418,412.198z"/>
	<ellipse style="opacity:0.2;fill:#AE312F;" cx="72.825" cy="368.101" rx="14.854" ry="5.746"/>
	<path style="opacity:0.2;fill:#AE312F;" d="M322.129,401.394c0,1.247-2.614,2.259-5.839,2.259c-3.225,0-5.839-1.011-5.839-2.259   c0-1.248,2.614-2.259,5.839-2.259C319.515,399.135,322.129,400.146,322.129,401.394z"/>
	<path style="opacity:0.2;fill:#AE312F;" d="M393.56,347.542c0,1.247-2.614,2.259-5.839,2.259c-3.225,0-5.839-1.011-5.839-2.259   c0-1.248,2.614-2.259,5.839-2.259C390.946,345.283,393.56,346.294,393.56,347.542z"/>
	<path style="opacity:0.2;fill:#AE312F;" d="M89.093,382.433c0,1.247-2.614,2.259-5.839,2.259c-3.225,0-5.839-1.011-5.839-2.259   c0-1.248,2.614-2.259,5.839-2.259C86.478,380.174,89.093,381.186,89.093,382.433z"/>
	<path style="fill:#9CF0E7;" d="M257.216,104.129c0,0-6.05-34.745-45.565-34.944c-39.515-0.198-47.73,37.283-47.73,37.283   s-3.47-10.997-12.261-10.89c-8.79,0.107-12.384,17.034-12.384,17.034s-9.755-10.252-31.32-5.118   c-21.565,5.135-61.099,13.533-61.099,13.533h254.718L257.216,104.129z"/>
	<path style="fill:#9CF0E7;" d="M301.64,215.579c0,0,6.05-34.745,45.565-34.943c39.515-0.198,47.73,37.283,47.73,37.283   s3.47-10.997,12.261-10.89c8.79,0.107,12.384,17.034,12.384,17.034s9.755-10.252,31.32-5.118   C472.465,224.08,512,232.478,512,232.478H257.282L301.64,215.579z"/>
	<path style="fill:#FF9D3D;" d="M268.733,81.236c-0.013,0-5.574,5.444-12.919,10.061c-8.587,5.406-19.605,9.673-27.028,2.793   c-12.945-12.001-12.311-36.766-4.397-41.344c0.492-0.284,1.022-0.492,1.578-0.608c5.612-1.203,10.85,0.44,14.962,4.384   c4.694,4.526,6.996,10.669,11.121,15.622c2.224,2.69,5.354,4.63,8.484,6.104C261.297,78.61,267.996,81.96,268.733,81.236z"/>
	<path style="fill:#AE312F;" d="M228.786,94.09c-12.945-12.001-12.311-36.766-4.397-41.344c2.315,2.276,5.238,6.751,7.32,15.454   c0.116,0.504,1.327,10.093,1.327,10.093S238.004,93.34,228.786,94.09z"/>
	<path style="fill:#FF9D3D;" d="M396.828,136.135c-0.824-0.252-52.897-18.126-51.048-35.02c0.18-1.616,0.502-3.223,0.947-4.786   c4.171-14.967,19.251-27.18,25.44-26.335l0.018,0.001c6.826,0.941,8.211,16.047,11.459,27.932   C386.831,109.646,396.486,135.36,396.828,136.135z"/>
	<path style="fill:#AE312F;" d="M366.641,107.52c-5.32-5.528-4.099-4.19-9.554-6.9c-5.733-2.836-10.133-4.204-10.36-4.291   c4.171-14.967,19.251-27.18,25.44-26.335l0.018,0.001c0.636,3.586,1.369,7.876-1.893,16.766c-0.327,0.873-0.581,1.733-0.799,2.577   C364.895,94.543,365.33,106.251,366.641,107.52z"/>
	<path style="fill:#FFFFFF;" d="M361.617,96.844c0,0-3.44-0.463-4.313-1.327c-0.891-0.865,4.444-0.632,4.444-0.632   c-2.578-1.318-4.542-4.581-3.63-4.574c0.931-0.009,3.875,2.515,3.875,2.515c-2.908-4.937-0.132-11.909,3.418-11.205   c1.519,0.299,2.947,3.812,4.081,7.718c-3.29,12.502,3.693,22.329,5.003,23.598c-5.32-5.528-11.954-9.605-17.409-12.315   C358.149,98.114,361.617,96.844,361.617,96.844z"/>
	<g>
		<path style="fill:#FF9D3D;" d="M214.421,203.805c0,0-65.507,5.835-73.611,9.539c-8.104,3.704,0,36.682,0,36.682l57.689-7.355    l31.711-30.798L214.421,203.805z"/>
		<path style="opacity:0.2;fill:#AE312F;" d="M214.421,203.805c0,0-65.507,5.835-73.611,9.539c-8.104,3.704,0,36.682,0,36.682    l57.689-7.355l31.711-30.798L214.421,203.805z"/>
	</g>
	<path style="fill:#FF9D3D;" d="M104.353,278.524c0,0-6.468-3.363-9.565-1.78c-3.097,1.583,3.827,4.748,3.827,4.748   s-6.33-0.198-7.913,1.385c-1.583,1.583,2.572,2.176,2.572,2.176l-20.97,11.474c0,0-8.309-7.518-18.794-5.935   c-10.485,1.583-12.859,26.509-7.32,42.138c5.539,15.629,21.343,20.438,26.474,20.02c11.599-0.945,47.537-17.25,47.537-17.25   L104.353,278.524z"/>
	<path style="opacity:0.2;fill:#AE312F;" d="M120.196,335.505c0,0-30.817,13.967-44.59,16.786c-1.099,0.233-2.095,0.388-2.949,0.452   c-5.121,0.427-20.924-4.384-26.472-20.019c-3.737-10.553-3.867-25.334-0.336-34.322c1.707-4.319,4.255-7.294,7.656-7.811   c10.488-1.578,18.803,5.936,18.803,5.936l20.963-11.471c0,0-4.151-0.595-2.574-2.186c1.591-1.578,7.914-1.384,7.914-1.384   s-6.919-3.168-3.828-4.746c3.104-1.578,9.57,1.785,9.57,1.785L120.196,335.505z"/>
	<path style="fill:#FF9D3D;" d="M402.593,181.265c-3.402,26.287-25.671,50.778-39.611,58.129   c-6.763,3.233-145.679-30.105-145.679-30.105c-8.031-6.258-21.536-22.247-23.73-43.788c-0.282-2.063-0.417-4.099-0.517-6.285   v-0.039c-0.32-6.958,0.449-15.314,2.315-23.627c0-0.026,0-0.065,0.013-0.09c9.162-44.406,61.481-59.325,99.667-54.664   c0.078,0.013,0.142,0.013,0.22,0.026c37.859,4.567,81.828,12.442,100.585,53.086C402.363,147.981,405.181,166.284,402.593,181.265z   "/>
	<path style="fill:#AE312F;" d="M218.221,131.14c-6.505,1.41-14.135-2.198-19.721-5.781c2.095-5.276,4.785-9.983,7.94-14.174   c0.194-0.259,0.388-0.504,0.595-0.763C214.613,119.902,227.196,129.188,218.221,131.14z"/>
	<path style="fill:#AE312F;" d="M193.055,159.177c-0.272-6.66,0.298-14.07,2.018-22.204c5.923,4.772,14.51,10.501,24.545,13.54   C234.8,155.129,211.82,163.419,193.055,159.177z"/>
	<path style="fill:#AE312F;" d="M196.456,178.64c-1.293-3.97-2.302-8.341-2.884-13.139c4.539,0.673,9.828,1.41,15.105,2.043   C218.04,168.643,214.768,180.243,196.456,178.64z"/>
	<g>
		<path style="fill:#AE312F;" d="M276.87,158.655c0,0-1.611-7.435-4.337-7.311c-2.726,0.124-0.867,9.293,3.222,12.762    c0,0,9.763-4.127,9.779-7.447C285.553,152.583,276.87,158.655,276.87,158.655z"/>
		<path style="fill:#AE312F;" d="M278.391,202.493c-1.681-13.147-3.624-26.376-2.879-39.664l1.012,0.369    c-4.558,7.507-8.072,15.689-10.905,24.002c-0.983,2.776-1.776,5.613-2.594,8.449c2.509-12.374,7.095-24.363,13.81-35.082    c-0.876,7.304-0.266,14.779,0.153,22.125C277.327,188.444,277.98,196.668,278.391,202.493z"/>
	</g>
	<path style="opacity:0.48;fill:#AE312F;" d="M265.389,163.127c-3.728,0.564-7.418,2.557-9.792,5.926   c-3.442,4.883-4.523,11.261-0.988,16.213c2.195,3.074,5.477,4.909,8.824,6.127c6.414,2.336,12.95,4.203,19.811,2.86   c2.489-0.487,4.973-1.352,7.094-2.958c3.249-2.461,5.444-6.661,5.754-11.01c0.31-4.349-1.273-8.747-4.15-11.526   c-3.538-3.42-9.112-4.854-13.74-5.161C274.079,163.324,269.487,162.507,265.389,163.127z"/>
	<path style="fill:#FFFFFF;" d="M250.9,90.443c-4.642,1.423-16.716,3.217-18.824,0.113c-2.548-3.737,0.784-7.381,0.784-7.381   s-5.263-0.854-4.927-2.354c0.323-1.409,3.75-0.142,4.099-0.013c-4.694-2.69-9.686-10.54-5.121-12.751   c1.552-0.75,3.246-0.505,4.798,0.142c0.116,0.504,0.233,1.035,0.349,1.578C234.851,82.904,241.77,88.284,250.9,90.443z"/>
	<path style="opacity:0.48;fill:#EB4949;" d="M321.379,194.896c-4.424,1.56-6.415,6.681-2.859,10.492   c4.761,5.102,15.744,7.367,22.052,4.221c5.325-2.656,4.559-10.315,0.215-12.818c-3.672-2.116-7.964-2.891-12.128-2.855   C326.723,193.952,323.859,194.022,321.379,194.896z"/>
	<path style="opacity:0.48;fill:#EB4949;" d="M236.203,170.529c3.646,2.952,3.806,8.444-0.821,10.843   c-6.196,3.212-17.303,1.667-22.192-3.411c-4.128-4.287-0.84-11.246,4.092-12.149c4.169-0.763,8.473-0.056,12.384,1.373   C231.484,167.85,234.159,168.875,236.203,170.529z"/>
	<path style="fill:#AE312F;" d="M323.151,85.05c-7.087,3.595-12.337,13.333-15.997,19.282c-4.694,7.643-9.893,21.312-21.312,18.26   c-7.746-2.056-6.737-11.354-4.875-17.316c4.345-13.928,10.397-21.144,14.083-24.48c0.078,0.013,0.142,0.013,0.22,0.026   C303.236,81.856,312.909,83.02,323.151,85.05z"/>
	<path style="fill:#AE312F;" d="M343.649,90.417c-6.738,7.423-12.945,20.433-19.695,19.67c-4.513-0.53-7.475-7.475,0-17.238   c2.082-2.716,4.293-4.72,6.414-6.208C334.764,87.689,339.226,88.93,343.649,90.417z"/>
	<path style="fill:#AE312F;" d="M289.709,80.266c-4.371,4.384-8.794,10.669-12.945,15.751c-5.975,7.307-18.26,7.889-12.247-3.686   c2.961-5.69,6.156-9.57,8.625-12.014C279.092,79.904,284.717,79.93,289.709,80.266z"/>
	<g>
		<path style="fill:#FF5555;" d="M249.416,132.999c0,0-4.109-25.844-8.543-26.984c-4.434-1.14-19.703,18.523-19.703,18.523    s-26.341-1.248-28.658,1.096c-2.317,2.344,14.329,19.88,14.329,19.88s-15.935,24.094-13.635,26.726    c3.32,3.8,33.105-4.385,33.105-4.385s21.418,20.056,26.665,18.527c5.748-1.675,0.079-28.234,0.079-28.234    s19.502-12.929,20.65-15.965C274.853,139.146,249.416,132.999,249.416,132.999z"/>
		<path style="fill:#AE312F;" d="M260.551,143.513c-0.776,2.054-13.96,10.8-13.96,10.8s3.835,17.952-0.057,19.087    c-3.547,1.034-18.024-12.523-18.024-12.523s-6.247,1.709-12.165,2.786c-4.711,0.862-9.235,1.307-10.226,0.172    c-1.565-1.781,9.22-18.067,9.22-18.067s-0.718-0.761-1.767-1.91c-3.102-3.418-9.105-10.355-7.928-11.533    c1.565-1.594,19.389-0.747,19.389-0.747s10.312-13.299,13.313-12.524c1.537,0.402,3.016,5.17,4.093,9.737    c1.034,4.352,1.695,8.516,1.695,8.516s3.332,0.804,7.008,1.881C255.798,140.555,260.982,142.364,260.551,143.513z"/>
		<path style="opacity:0.2;fill:#FFFFFF;" d="M251.144,139.19c-8.416,5.888-26.397,18.541-34.799,24.473    c-4.711,0.862-9.235,1.307-10.226,0.172c-1.565-1.781,9.22-18.067,9.22-18.067s-0.718-0.761-1.767-1.91l28.867-15.066    c1.034,4.352,1.695,8.516,1.695,8.516S247.468,138.113,251.144,139.19z"/>
		<path style="fill:#FFFFFF;" d="M240.873,106.015c-1.143-0.089-2.155,0.729-3.07,1.322c-6.407,4.901-11.352,11.438-16.438,17.634    c-8.993-0.241-18.279-1.135-27.15,0.55c-0.509,0.142-1.027,0.325-1.373,0.57c-1.98,3.32,11.87,16.577,14.596,19.365    c-4.934,7.421-10.087,14.87-13.547,23.12c-0.407,1.171-0.888,2.403-0.685,3.665c-0.265-1.255,0.156-2.529,0.512-3.725    c3.085-8.319,8.018-15.796,12.742-23.258l0.064,0.59c-4.895-4.759-9.806-9.572-13.604-15.298c-0.597-0.996-1.2-2.006-1.441-3.295    c-0.051-0.325-0.072-0.681,0.024-1.065c0.222-1.088,1.548-1.504,2.418-1.743c9.011-1.64,18.195-0.776,27.274-0.33l-0.357,0.156    c2.942-3.512,5.899-7.02,9.106-10.297c2.412-2.441,4.898-4.869,7.766-6.776C238.66,106.648,239.725,105.87,240.873,106.015z"/>
	</g>
	<path style="fill:#AE312F;" d="M401.649,151.65c-0.466,0.207-0.944,0.414-1.41,0.608c-8.354,3.414-17.768,4.151-26.562,2.108   c-2.108-0.491-4.241-1.164-5.91-2.548c-1.655-1.397-2.755-3.634-2.263-5.742c0.724-3.091,4.242-4.513,7.307-5.276   c6.427-1.629,13.061-2.586,19.256-5.031c1.358-0.53,2.599-1.203,3.789-1.862c1.862,4.074,3.44,8.471,4.707,13.229   C400.963,148.663,401.326,150.163,401.649,151.65z"/>
	<path style="fill:#AE312F;" d="M399.024,195.193c-1.901,5.25-4.268,10.048-6.88,14.406c-0.233-0.026-0.466-0.065-0.685-0.104   c-7.578-1.254-16.191-3.66-21.545-9.531c-1.332-1.461-2.302-3.621-1.41-5.393c1.177-2.341,4.035-2.186,6.375-1.759   c0.466,0.09,0.905,0.181,1.319,0.272c3.944,0.892,7.954,1.5,12.001,1.772C391.963,195.115,395.053,195.361,399.024,195.193z"/>
	<path style="fill:#AE312F;" d="M402.593,181.265c-10.385,2.574-21.997,3.104-30.998-1.552c-3.905-2.005-7.074-6.156-5.405-10.074   c0.672-1.565,2.082-2.858,3.724-3.75c4.888-2.69,11.341-2.806,16.993-3.078c5.005-0.246,10.824-1.694,16.036-3.388   C403.899,167.234,403.679,174.527,402.593,181.265z"/>
	<g>
		<path style="fill:#FF5555;" d="M352.674,158.119c0,0-3.962-25.867-8.389-27.033c-4.428-1.165-19.808,18.41-19.808,18.41    s-26.333-1.398-28.664,0.932c-2.33,2.331,14.215,19.962,14.215,19.962s-16.072,24.002-13.787,26.648    c3.298,3.819,33.129-4.197,33.129-4.197s21.303,20.178,26.559,18.679c5.757-1.642,0.24-28.233,0.24-28.233    s19.575-12.817,20.741-15.847C378.075,164.411,352.674,158.119,352.674,158.119z"/>
		<path style="fill:#AE312F;" d="M363.748,168.7c-0.79,2.039-14.017,10.714-14.017,10.714s3.734,17.981-0.172,19.087    c-3.547,1.02-17.952-12.624-17.952-12.624s-3.059,0.818-6.922,1.666c-6.061,1.336-14.118,2.743-15.482,1.163    c-0.776-0.89,1.566-5.414,4.093-9.708c2.528-4.266,5.228-8.301,5.228-8.301s-11.188-11.935-9.608-13.5    c1.565-1.58,19.374-0.632,19.374-0.632s10.412-13.242,13.4-12.452c1.91,0.503,3.691,7.813,4.739,13.026    c0.589,2.973,0.934,5.256,0.934,5.256s5.185,1.278,9.723,2.786h0.015C360.818,166.402,364.107,167.781,363.748,168.7z"/>
		<path style="opacity:0.2;fill:#FFFFFF;" d="M357.084,165.182l-32.4,22.361c-6.061,1.336-14.118,2.743-15.482,1.163    c-0.776-0.89,1.566-5.414,4.093-9.708l33.133-21.859c0.589,2.973,0.934,5.256,0.934,5.256S352.546,163.674,357.084,165.182z"/>
		<path style="fill:#FFFFFF;" d="M344.284,131.086c-1.145-0.157-2.197,0.615-3.129,1.184c-3.767,2.602-6.819,6.096-9.835,9.509    c-0.758,0.857-1.497,1.73-2.219,2.619c-1.521,1.806-2.959,3.682-4.427,5.532c-6.788-0.291-13.596-0.581-20.387-0.359    c-2.646,0.201-5.581,0.057-7.955,1.15c-0.148,0.111-0.14,0.115-0.175,0.304c-0.018,0.169,0.015,0.402,0.075,0.635    c1.068,3.051,3.359,5.687,5.316,8.273c2.869,3.59,5.943,7.037,9.067,10.414c-2.929,4.258-5.763,8.595-8.429,13.027    c-2.209,3.798-4.649,7.573-5.918,11.81c-0.134,0.603-0.278,1.26-0.027,1.854c-0.281-0.583-0.169-1.26-0.063-1.874    c2.78-9.098,8.514-17.003,13.469-25.033l0.048,0.576c-4.624-4.945-9.232-9.931-12.985-15.6c-0.598-0.98-1.201-1.954-1.554-3.163    c-0.078-0.309-0.145-0.638-0.113-1.03c0.012-0.192,0.073-0.412,0.181-0.62c0.492-0.789,1.509-0.971,2.223-1.16    c8.978-1.323,18.046-0.511,27.057-0.063l-0.36,0.161c1.466-1.77,2.906-3.561,4.426-5.287    C331.641,140.547,339.731,130.967,344.284,131.086z"/>
	</g>
	<path style="fill:#FF9D3D;" d="M378.888,323.556c-9.366,48.949-34.758,45.01-95.387,62.268   c-26.336,6.722-53.225,13.302-79.855,18.881c-38.6,7.647-102.084,25.019-106.534-25.645c-2.106-13.99-7.709-35.734,12.608-39.597   c-13.494-71.691,24.941-120.142,107.4-134.933l139.964,28.386C362.524,255.512,373.459,300.972,378.888,323.556z"/>
	<path style="fill:#FFC893;" d="M225.114,315.616c-38.628,27.002-96.618,31.377-96.618,31.377s-7.116-6.841-18.916-7.815   c-1.772-3.724-20.278-44.24-0.905-79.971c12.738-23.511,52.116-39.029,79.739-47.331c13.579-0.104,31.683,2.522,46.077,14.471   C261.091,248.434,263.742,288.614,225.114,315.616z"/>
	<path style="fill:#AE312F;" d="M109.579,339.178c11.076-0.131,21.538,6.976,26.479,16.728   C129.806,347.136,120.363,340.645,109.579,339.178z"/>
	<path style="opacity:0.2;fill:#AE312F;" d="M134.486,405.933c-0.478,3.569-2.405,5.897-5.134,7.138   c-26.705-4.604-30.339-21.312-32.24-34.011c-1.164-7.708-3.375-17.73-1.746-25.851c1.604-0.802,3.427-1.203,5.25-1.345   c20.446-1.616,29.537,25.269,32.498,39.882C134.059,396.376,135.12,401.213,134.486,405.933z"/>
	<path style="fill:#AE312F;" d="M122.343,243.178c3.088-1.104,6.505-1.222,9.753-0.613c0.817,0.143,1.611,0.387,2.408,0.614   c0.769,0.313,1.567,0.547,2.29,0.96c1.507,0.69,2.826,1.728,4.016,2.831c-1.455-0.754-2.865-1.497-4.367-2.025   c-1.482-0.559-3.004-1-4.56-1.274c-1.548-0.309-3.127-0.483-4.718-0.562C125.574,243.049,123.969,243.046,122.343,243.178z"/>
	<path style="fill:#AE312F;" d="M124.904,250.025c0.356-1.305,0.959-2.531,1.669-3.683c0.711-1.156,1.576-2.218,2.541-3.186   c0.977-0.958,2.101-1.775,3.314-2.412c1.213-0.644,2.564-1.011,3.901-1.129c-1.227,0.576-2.389,1.141-3.453,1.886   c-1.051,0.749-2.065,1.542-2.976,2.461C128.051,245.771,126.454,247.832,124.904,250.025z"/>
	<path style="fill:#AE312F;" d="M101.832,351.805c1.116-7.844,9.623-12.485,16.999-10.249   C111.381,341.113,104.551,344.754,101.832,351.805z"/>
	<path style="fill:#AE312F;" d="M120.201,361.198c-0.071-5.781,4.318-12.156,10.535-12.13   C125.084,350.69,121.791,355.81,120.201,361.198z"/>
	<path style="opacity:0.48;fill:#AE312F;" d="M213.014,205.404c0.104,1.847,2.086,5.853,3.237,2.233   c0.371-1.202,0.416-2.834,0.54-4.089c1.037,2.311,3.725,8.608,5.278,2.957c3.893,2.981,8.279,5.498,13.036,6.838   c-4.759-0.548-9.219-2.698-13.087-5.497l0.871-0.288c-1.967,4.972-5.085,1.232-6.216-1.964l0.929-0.149   C217.122,211.003,213.005,211.185,213.014,205.404z"/>
	<path style="opacity:0.48;fill:#AE312F;" d="M216.813,226.237c-1.675-1.478-7.251-7.094-9.269-5.155   c0.328,3.147,3.521,5.982,5.293,8.516c-1.651-1.038-3.906-2.751-5.783-3.279c-5.934-1.472-2.095,4.485,0.041,6.417   c-4.918-0.417-10.614-1.53-15.099,1.055c3.868-2.94,9.329-2.322,13.929-2.175l-0.406,0.818c-5.904-5.901-1.195-10.063,5.128-5.566   l-0.73,0.79c-1.549-1.802-6.16-8.717-0.606-7.639C212.479,221.227,214.678,223.77,216.813,226.237z"/>
	<path style="fill:#FF9D3D;" d="M190.271,335.561c0,0-5.763-10.082-10.191-8.438c-3.17,1.177-0.734,9.747-0.734,9.747   s-6.363-3.37-9.3-1.864c-1.906,0.977,1.756,4.172,1.756,4.172s-34.533,5.674-42.516,7.652l38.614,8.303L190.271,335.561z"/>
	<path style="opacity:0.2;fill:#AE312F;" d="M76.127,349.123c-0.103,1.047-0.272,2.121-0.517,3.168   c-1.099,0.233-2.095,0.388-2.949,0.452c-5.121,0.427-20.924-4.384-26.472-20.019c-3.738-10.553-3.867-25.334-0.336-34.322   c1.255-0.673,2.548-1.164,3.233-1.345c13.049-3.466,20.976,14.22,24.17,23.117C76.27,328.582,77.046,340.122,76.127,349.123z"/>
	<path style="fill:#AE312F;" d="M52.705,290.77c10.745-2.357,22.47,3.591,24.71,14.803C73.798,295.324,63.178,290.045,52.705,290.77   z"/>
	<path style="fill:#AE312F;" d="M70.08,294.81c-3.678,1.099-6.543,3.485-9.155,6.216C62.185,297.346,66.091,294.296,70.08,294.81z"/>
	<path style="fill:#AE312F;" d="M57.971,290.639c-2.879,1.369-5.045,3.477-6.858,6.068   C51.411,293.419,54.603,290.419,57.971,290.639z"/>
	<path style="fill:#FFC893;" d="M99.924,293.672c0,0-5.909,3.395-5.136,4.246c0.773,0.85,5.115-1.212,5.115-1.212   s-2.627,4.031-2.582,5.671c0.045,1.641,2.603-1.352,2.603-1.352l4.168,1.843l-2.26-12.231L99.924,293.672z"/>
	<path style="fill:#AE312F;" d="M164.889,214.552c0,18.868-15.286,34.167-34.154,34.167c-18.868,0-34.153-15.298-34.153-34.167   c0-2.439,0.029-5.014,0.651-7.424c1.317-5.11,6.387-8.081,10.842-10.156c5.707-2.659,11.749-4.997,17.835-6.685   c6.887-1.91,14.278-3.293,21.447-3.253c1.296,0.007,2.61,0.082,3.84,0.491c1.635,0.544,2.605,1.779,3.769,2.95   c1.984,1.996,3.72,4.237,5.156,6.657c2.963,4.991,4.605,10.714,4.756,16.515C164.885,213.948,164.889,214.25,164.889,214.552z"/>
	<path style="fill:#FF5555;" d="M148.31,192.348c-0.194,0.194-0.427,0.388-0.672,0.582c-3.324,2.651-20.764,7.928-21.087,8.031   c-0.233,0.077-19.028,6.401-23.282,6.13c-0.297-0.013-0.569-0.039-0.828-0.077c-1.138-0.168-1.836-0.504-2.004-1.048   c-0.789-2.431,9.544-7.901,23.058-12.233c0.776-0.246,1.552-0.492,2.315-0.712c0.595-0.181,1.177-0.362,1.746-0.517   c11.704-3.362,21.118-4.384,21.829-2.198C149.565,190.848,149.177,191.546,148.31,192.348z"/>
	<path style="fill:#6CE1C1;" d="M147.638,192.93c-3.324,2.651-11.031,6.233-20.368,9.298c-0.323,0.103-0.634,0.207-0.957,0.31   c-0.233,0.077-0.479,0.155-0.711,0.22c-9.57,3.013-18.079,4.604-22.334,4.332c2.457-2.651,10.85-6.66,21.209-9.996   c0.75-0.233,1.487-0.465,2.211-0.673c0.569-0.181,1.125-0.349,1.655-0.504C137.137,193.395,144.56,192.257,147.638,192.93z"/>
	<path style="fill:#9CF0E7;" d="M128.877,143.157l-1.32,45.036l-0.412,14.074c-0.472,0.151-0.869,0.28-1.341,0.431   c-0.339,0.113-0.756,0.242-1.095,0.336c0.056-3.81,0.17-8.656,0.302-14.088c0.49-19.765,1.282-45.791,1.282-45.791H128.877z"/>
	<path style="fill:#FF5555;" d="M174.216,155.133c-14.465-5.488-26.403,5.073-26.403,5.073c-10.467-9.713-20.142,1.641-20.99,2.678   v0.019c-0.038,0.038-0.057,0.056-0.057,0.056c-9.675-15.276-27.497-5.149-27.497-5.149c-4.696-10.617-18.388-8.996-18.388-8.996   c26.478-13.032,46.96-19.124,46.96-19.124c0.302,0.113,0.584,0.208,0.886,0.34h0.019   C150.245,137.971,174.216,155.133,174.216,155.133z"/>
	<path style="fill:#AE312F;" d="M332.664,207.306c3.851,1.393,7.552,3.091,11.217,4.865c3.649,1.805,7.261,3.686,10.722,5.877   c-3.852-1.39-7.553-3.089-11.217-4.865C339.737,211.376,336.125,209.495,332.664,207.306z"/>
	<path style="fill:#AE312F;" d="M358.8,208.8c-3.936-0.4-7.8-1.133-11.645-1.947c-3.839-0.848-7.659-1.78-11.407-3.048   c3.937,0.397,7.8,1.131,11.646,1.948C351.231,206.603,355.052,207.535,358.8,208.8z"/>
	<path style="fill:#AE312F;" d="M358.629,196.192c-3.711,1.372-7.503,2.412-11.315,3.372c-3.821,0.926-7.662,1.769-11.585,2.278   c3.71-1.374,7.502-2.415,11.316-3.372C350.865,197.546,354.706,196.704,358.629,196.192z"/>
	<path style="fill:#AE312F;" d="M225.936,180.452c-3.691,1.775-7.495,3.228-11.327,4.603c-3.843,1.342-7.716,2.604-11.703,3.541   c3.69-1.777,7.494-3.23,11.327-4.602C218.078,182.653,221.95,181.392,225.936,180.452z"/>
	<path style="fill:#AE312F;" d="M199.801,178.925c3.869-0.825,7.771-1.311,11.682-1.714c3.914-0.368,7.836-0.652,11.792-0.593   c-3.869,0.828-7.771,1.314-11.682,1.714C207.68,178.698,203.757,178.982,199.801,178.925z"/>
	<path style="fill:#AE312F;" d="M201.424,166.42c3.838,0.96,7.556,2.24,11.246,3.598c3.677,1.39,7.325,2.86,10.852,4.653   c-3.839-0.958-7.557-2.238-11.245-3.598C208.599,169.681,204.952,168.21,201.424,166.42z"/>
	<path style="fill:#FF9D3D;" d="M127.84,129.692l-1.018,33.193v0.019c-0.038,0.038-0.057,0.056-0.057,0.056   c-9.675-15.276-27.497-5.149-27.497-5.149S122.031,133.992,127.84,129.692z"/>
	<path style="fill:#FF9D3D;" d="M174.216,155.133c-14.465-5.488-26.403,5.073-26.403,5.073l-0.41-0.901   c-3.653-8.022-8.201-15.606-13.557-22.607l-5.1-6.667C150.245,137.971,174.216,155.133,174.216,155.133z"/>
	<path style="fill:#FF9D3D;" d="M97.714,216.615c0,0-11.488,8.202-6.147,26.054c5.342,17.853,27.34,14.96,34.035,13.179   c6.695-1.781,16.265-14.245,9.366-28.934C128.068,212.226,112.229,212.614,97.714,216.615z"/>
	<path style="fill:#AE312F;" d="M115.762,245.29c2.023-0.311,4.006-0.741,5.968-1.205c1.954-0.494,3.893-1.032,5.756-1.762   c1.865-0.719,3.665-1.583,5.357-2.64c1.654-1.109,3.181-2.403,4.515-3.971c-0.963,1.809-2.36,3.409-4.008,4.689   c-1.666,1.259-3.535,2.21-5.462,2.974c-1.94,0.735-3.953,1.242-5.985,1.568C119.871,245.27,117.809,245.414,115.762,245.29z"/>
	<path style="fill:#AE312F;" d="M109.858,229.604c1.894-0.428,3.736-0.976,5.553-1.563c1.81-0.609,3.585-1.295,5.294-2.114   c1.716-0.808,3.328-1.798,4.871-2.893c1.527-1.126,2.892-2.445,4.185-3.904c-0.925,1.701-2.134,3.299-3.632,4.588   c-1.494,1.286-3.164,2.368-4.937,3.224C117.631,228.598,113.753,229.587,109.858,229.604z"/>
	<path style="fill:#AE312F;" d="M190.43,407.394c-6.207,1.216-12.143,2.315-17.678,3.246c0.465-3.142,0.491-6.401,0.233-9.557   c-0.155-1.953-0.427-3.867-0.763-5.703c-0.931-4.914-2.69-9.324-4.707-13.863c-1.862-4.177-4.177-10.773,0.336-14.109   c7.578-5.6,16.592,7.371,19.282,12.816C191.374,388.863,191.801,398.148,190.43,407.394z"/>
	<path style="fill:#AE312F;" d="M152.151,355.912c-4.345-5.483-11.044-8.988-15.389-10.824c5.483-1.047,15.182-2.651,22.373-3.828   C170.489,353.856,158.669,364.124,152.151,355.912z"/>
	<path style="fill:#AE312F;" d="M204.05,349.504c-1.358-8.483-6.945-14.393-10.695-17.484c4.94-1.798,9.88-3.841,14.173-6.052   C224.495,351.107,206.093,362.112,204.05,349.504z"/>
	<path style="fill:#AE312F;" d="M233.248,398.148c-4.358,1.009-8.716,2.004-13.01,2.974c-1.513-8.923-1.526-16.281,3.582-16.281   C227.622,384.841,231.101,390.479,233.248,398.148z"/>
	<path style="fill:#AE312F;" d="M253.228,393.389c0.349-3.944,0.297-8.497-0.582-13.32c-2.703-14.794-13.333-26.679-6.246-30.429   c7.087-3.751,19.372,14.794,23.342,37.826c0.104,0.608,0.194,1.19,0.285,1.772C264.505,390.622,258.892,392.018,253.228,393.389z"/>
	<path style="opacity:0.2;fill:#AE312F;" d="M378.888,323.556c0,0-5.612,35.874-29.446,43.943   c-8.742,2.961-34.774,10.307-65.94,18.325c-5.328-4.552-5.108-19.786-5.108-19.786s-1.371,4.643-4.112,3.647   c-2.755-0.996-8.82-22.139-1.345-50.073c7.811-29.149,49.555-40.18,49.555-40.18s-0.375-9.208,2.069-10.54   c2.431-1.319,9.078,3.556,9.078,3.556s0.077-14.833,2.884-14.833c2.793,0,4.604,14.833,4.604,14.833l26.912,5.988L378.888,323.556z   "/>
	<path style="opacity:0.48;fill:#AE312F;" d="M269.341,241.053c-1.199,1.863-2.776,4.134-2.552,6.377   c1.195,3.573,4.714,0.681,6.281-1.033c-0.647,2.46-1.335,5.257-0.389,7.723c1.435,3.54,5.957,3.491,7.762,0.202   c-1.074,3.016-4.79,4.224-7.302,2.038c-2.401-2.027-2.296-5.624-1.592-8.424l0.925,0.546c-1.853,2.102-6.047,2.487-6.493-0.944   C265.924,244.88,267.687,242.858,269.341,241.053z"/>
	<circle style="fill:#AE312F;" cx="340.929" cy="358.858" r="32.224"/>
	<g>
		<path style="fill:#FF9D3D;" d="M390.489,296.658c-0.026,7.63-0.893,14.238-2.444,19.01c-0.905,2.819-2.056,4.992-3.401,6.376    c-2.806,2.871-8.82,6.376-16.204,9.906c-6.078,2.897-13.074,5.819-19.993,8.432c-13.411,5.069-26.498,9.001-31.761,9.337    c-11.277,0.724-16.799-6.194-16.799-6.194c-11.341-2.186-11.225-12.014-11.225-12.014c-7.643-3.272-12.156-14.535,1.319-26.924    c13.475-12.376,46.542-17.497,46.542-17.497s0.129-0.931,0.388-2.56c0.427-2.574,1.164-6.893,2.224-12.079    c4.746-23.407,15.855-64.427,32.149-41.421c5.651,7.979,9.919,17.161,12.971,26.588c1.41,4.332,2.547,8.716,3.466,13.048    C389.648,279.82,390.514,288.782,390.489,296.658z"/>
		<path style="fill:#AE312F;" d="M299.89,343.524c-0.378-2.936,0.353-6.033,1.962-8.603c0.39-0.653,0.892-1.228,1.374-1.814    c0.564-0.51,1.068-1.084,1.717-1.485c1.196-0.933,2.637-1.467,4.048-1.85c-1.253,0.791-2.469,1.549-3.495,2.533    c-1.051,0.941-1.967,2.017-2.692,3.217c-0.758,1.178-1.354,2.465-1.833,3.806C300.514,340.677,300.127,342.07,299.89,343.524z"/>
		<path style="fill:#AE312F;" d="M288.659,331.509c-1.007-2.733-1.034-5.81-0.287-8.664c0.175-0.72,0.458-1.407,0.718-2.099    c0.349-0.654,0.623-1.345,1.068-1.941c0.763-1.266,1.848-2.301,2.974-3.196c-0.816,1.205-1.615,2.363-2.211,3.632    c-0.626,1.245-1.126,2.545-1.46,3.892c-0.368,1.337-0.594,2.716-0.724,4.113C288.628,328.646,288.575,330.064,288.659,331.509z"/>
		<path style="fill:#AE312F;" d="M348.446,340.381c1.293-4.371,1.953-10.165-0.621-15.764c-5.095-11.07-16.605-20.2-9.001-23.019    c6.712-2.496,26.756,12.583,29.614,30.352C362.361,334.846,355.365,337.768,348.446,340.381z"/>
		<path style="fill:#AE312F;" d="M390.489,296.658c-0.026,7.63-0.893,14.238-2.444,19.01c-0.659-0.685-1.255-1.435-1.849-2.159    c-5.173-6.376-11.005-12.221-17.368-17.394c-1.461-1.19-3.078-2.586-3.13-4.474c-0.039-1.591,1.164-3.039,2.625-3.66    c1.474-0.634,3.143-0.569,4.72-0.285c2.457,0.453,4.785,1.436,7.022,2.548C383.557,291.976,387.307,294.058,390.489,296.658z"/>
		<path style="fill:#AE312F;" d="M387.721,270.664c-0.013,0-0.013,0-0.026,0c-4.448-0.259-8.91-0.246-13.359,0.039    c-1.578,0.104-3.22,0.233-4.72-0.297c-1.5-0.543-2.806-1.966-2.664-3.556c0.129-1.28,1.125-2.276,2.121-3.091    c4.138-3.375,9.815-5.548,15.182-6.143C385.665,261.948,386.803,266.332,387.721,270.664z"/>
		<path style="fill:#AE312F;" d="M348.566,278.139c-3.815,3.013-7.992,5.173-12.298,6.389c0.427-2.574,1.164-6.893,2.224-12.079    c2.664-0.724,5.354-1.177,7.915-1.513c0.918-0.116,1.849-0.207,2.729,0.168c0.879,0.375,1.681,1.306,1.836,2.548    C351.205,275.604,349.821,277.156,348.566,278.139z"/>
		<path style="opacity:0.48;fill:#AE312F;" d="M303.344,296.451c10.411-4.743,21.358-9.623,32.969-9.963l-0.529,0.449    c1.207-7.669,2.478-15.415,5.144-22.73c-2.036,7.641-3.027,15.52-4.178,23.328C325.17,287.875,314.176,292.671,303.344,296.451z"/>
	</g>
	<path style="opacity:0.48;fill:#AE312F;" d="M322.495,235.734c5.037,0.074,10.086-0.056,15.092-0.589   c-8.105,11.844,5.037,0.89,8.009-2.319c-3.408,9.595,2.841,6.708,6.301,1.032c7.093,0.418,14.313-0.163,21.255-1.761   c-6.772,2.128-13.942,2.99-21.04,2.748l0.443-0.222c-1.645,2.25-3.376,4.96-6.329,5.578c-3.161,0.233-3.078-3.711-2.273-5.727   l0.902,0.58c-2.918,2.427-5.6,5.483-9.408,6.461c-3.483-0.246,0.146-4.813,1.05-6.134l0.339,0.61   C332.055,236.299,327.258,236.195,322.495,235.734z"/>
	<path style="fill:#FFC893;" d="M103.167,383.883c0.747,2.63,2.612,4.761,4.749,5.011c1.408,0.165,2.841-0.449,4.227-0.09   c0.695,0.18,1.352,0.601,2.059,0.681c1.918,0.22,3.535-2.254,3.712-4.76c0.176-2.506-0.711-4.925-1.727-7.062   c-1.062-2.232-2.332-4.375-4.042-5.759c-2.372-1.921-4.914-2.023-6.749,0.712C103.313,375.718,101.998,379.765,103.167,383.883z"/>
	<path style="fill:#FFC893;" d="M115.967,364.476c-0.752,0.763-0.972,1.941-0.765,2.992c0.207,1.051,0.788,1.993,1.458,2.829   c1.003,1.253,2.385,2.392,3.99,2.392c0.319,0,0.649-0.049,0.921-0.217c0.348-0.214,0.56-0.591,0.715-0.969   C123.586,368.34,119.527,360.866,115.967,364.476z"/>
	<path style="fill:#FFC893;" d="M104.891,358.88c-0.594,1.76-0.046,3.809,1.228,5.16c0.384,0.407,0.833,0.761,1.348,0.98   c1.704,0.727,3.872-0.333,4.523-2.068c0.433-1.152,0.279-2.44,0.004-3.64c-0.167-0.726-0.381-1.457-0.797-2.075   C109.402,354.563,105.75,356.336,104.891,358.88z"/>
	<path style="fill:#FFC893;" d="M96.405,365.217c0.2,1.041,0.85,2.563,1.772,3.131c0.842,0.518,2.083,0.501,2.944,0.025   c0.894-0.493,1.118-1.505,1.291-2.45C103.411,360.447,95.51,360.568,96.405,365.217z"/>
	<path style="fill:#FFC893;" d="M49.734,328.571c0.747,2.63,2.612,4.761,4.749,5.011c1.408,0.165,2.841-0.449,4.227-0.09   c0.696,0.18,1.352,0.6,2.059,0.681c1.917,0.22,3.536-2.254,3.712-4.759c0.176-2.506-0.711-4.925-1.727-7.062   c-1.062-2.232-2.332-4.375-4.042-5.759c-2.373-1.921-4.914-2.023-6.75,0.712C49.88,320.407,48.565,324.454,49.734,328.571z"/>
	<path style="fill:#FFC893;" d="M60.731,309.405c-0.752,0.763-0.972,1.941-0.765,2.992c0.207,1.051,0.788,1.993,1.458,2.829   c1.003,1.253,2.385,2.392,3.99,2.392c0.319,0,0.649-0.05,0.921-0.217c0.348-0.214,0.56-0.591,0.715-0.969   C68.349,313.269,64.291,305.795,60.731,309.405z"/>
	<path style="fill:#FFC893;" d="M51.353,304.461c-0.594,1.76-0.046,3.809,1.228,5.16c0.384,0.407,0.833,0.76,1.348,0.98   c1.704,0.726,3.871-0.333,4.523-2.068c0.433-1.153,0.279-2.44,0.004-3.64c-0.167-0.726-0.381-1.456-0.797-2.075   C55.864,300.144,52.212,301.917,51.353,304.461z"/>
	<path style="fill:#FFC893;" d="M43.95,311.889c0.2,1.041,0.85,2.562,1.772,3.131c0.842,0.518,2.083,0.501,2.944,0.025   c0.894-0.494,1.118-1.505,1.291-2.45C50.957,307.119,43.056,307.24,43.95,311.889z"/>
</g>















</svg>
