<?xml version="1.0" encoding="UTF-8"?>
<!-- Generator: Adobe Illustrator 25.2.3, SVG Export Plug-In . SVG Version: 6.00 Build 0)  -->
<svg xmlns="http://www.w3.org/2000/svg" xmlns:xlink="http://www.w3.org/1999/xlink" version="1.1" id="Capa_1" x="0px" y="0px" viewBox="0 0 512 512" style="enable-background:new 0 0 512 512;" xml:space="preserve" width="512" height="512">
<g>
	<ellipse style="fill:#FFC893;" cx="264.468" cy="488.04" rx="70.861" ry="23.96"/>
	<path style="fill:#FFC893;" d="M436.504,453.292c0,16.021-89.787,29.021-200.535,29.021c-53.509,0-102.132-3.033-138.096-7.982   c4.958-1.292,8.058-3.137,8.058-5.179c0-3.899-11.259-7.059-25.133-7.059c-10.559,0-19.603,1.834-23.318,4.429   c-14.088-3.956-22.033-8.455-22.033-13.23c0-16.033,89.773-29.021,200.521-29.021C346.717,424.271,436.504,437.259,436.504,453.292   z"/>
	<path style="fill:#FF5555;" d="M316.609,39.773c0,0-20.26-2.918-19.637,4.433c0.624,7.351,21.686,0.497,21.686,0.497   s-10.786,15.757-6.102,20.104c4.684,4.347,11.435-16.374,11.435-16.374s3.197,16.373,9.158,16.043   c5.962-0.33-3.551-16.567-3.551-16.567s19.121,6.097,19.828,0.278c0.706-5.819-19.383-4.839-19.383-4.839   s16.442-7.589,12.161-12.743c-4.28-5.154-15.749,9.571-15.749,9.571s8.511-15.663,1.6-17.6c-6.91-1.936-5.955,16.209-5.955,16.209   s-7.07-19.493-13.356-16.042C302.459,26.194,316.609,39.773,316.609,39.773z"/>
	<g>
		<path style="fill:#FF9D3D;" d="M167.213,314.297c0,0-49.927-24.618-68.507,19.284c-18.58,43.903,33.494,84.113,59.607,91.909    c0,0-8.513,4.103-19.914,9.437c-11.401,5.334-8.023,14.361-0.422,15.592c7.601,1.231,28.714-13.54,46.027-15.182    c17.313-1.641,27.025-1.915,31.67-31.73C220.319,373.792,167.213,314.297,167.213,314.297z"/>
		<path style="opacity:0.2;fill:#AE312F;" d="M167.213,314.297c0,0-49.927-24.618-68.507,19.284    c-18.58,43.903,33.494,84.113,59.607,91.909c0,0-8.513,4.103-19.914,9.437c-11.401,5.334-8.023,14.361-0.422,15.592    c7.601,1.231,28.714-13.54,46.027-15.182c17.313-1.641,27.025-1.915,31.67-31.73C220.319,373.792,167.213,314.297,167.213,314.297    z"/>
	</g>
	<g>
		<g>
			<path style="fill:#FF9D3D;" d="M428.825,319.066c5.415,13.731,6.901,30.197-1.072,42.859     c-8.644,13.717-26.033,17.66-41.507,17.993c-1.6,0.028-17.861-0.68-17.818-0.917l3.301-16.438c0,0,18.717,0,31.977-6.678     c3.429-1.721,6.501-3.887,8.787-6.622c2.715-3.249,4.315-7.303,4.1-12.329c-0.843-20.09-22.475-36.986-29.805-62.712     c-1.715-6.025-2.658-12.523-2.343-19.673c0.043-1.25,0.143-2.527,0.271-3.818c1.386-13.564,6.073-24.921,12.188-33.779     c12.002-17.382,29.491-25.171,38.221-21.27c12.574,5.609,0.514,23.505-17.317,39.276c-0.858,0.75-1.743,1.513-2.629,2.263     c-14.46,12.231-9.687,34.848-3.701,49.981c1.815,4.595,4.244,8.691,6.787,12.717c2.443,3.86,4.972,7.664,7.187,11.801     C426.696,314.054,427.824,316.512,428.825,319.066z"/>
			<path style="opacity:0.2;fill:#AE312F;" d="M428.825,319.066c5.415,13.731,6.901,30.197-1.072,42.859     c-8.644,13.717-26.033,17.66-41.507,17.993c-1.6,0.028-17.861-0.68-17.818-0.917l3.301-16.438c0,0,18.717,0,31.977-6.678     c3.429-1.721,6.501-3.887,8.787-6.622c2.715-3.249,4.315-7.303,4.1-12.329c-0.843-20.09-22.475-36.986-29.805-62.712     c-1.715-6.025-2.658-12.523-2.343-19.673c0.043-1.25,0.143-2.527,0.271-3.818c1.386-13.564,6.073-24.921,12.188-33.779     c12.002-17.382,29.491-25.171,38.221-21.27c12.574,5.609,0.514,23.505-17.317,39.276c-0.858,0.75-1.743,1.513-2.629,2.263     c-14.46,12.231-9.687,34.848-3.701,49.981c1.815,4.595,4.244,8.691,6.787,12.717c2.443,3.86,4.972,7.664,7.187,11.801     C426.696,314.054,427.824,316.512,428.825,319.066z"/>
		</g>
		<path style="fill:#AE312F;" d="M417.809,234.96c-0.586-0.847-0.958-1.791-1.015-2.832c-0.086-1.333,0.357-2.679,0.086-3.998    c-0.4-1.916-2.257-3.249-4.186-3.846c-1.915-0.611-3.958-0.639-5.944-1.027c-3.943-0.764-7.573-3.11-9.845-6.303    c12.002-17.382,29.491-25.171,38.221-21.27C447.699,201.292,435.64,219.188,417.809,234.96z"/>
		<path style="fill:#AE312F;" d="M386.789,274.222c-1.715-6.025-2.658-12.523-2.343-19.673c3.086,0.777,7.03,2.569,8.53,6.581    C394.39,264.907,390.59,270.182,386.789,274.222z"/>
		<path style="fill:#AE312F;" d="M428.825,319.066c-3.943,0.139-9.016-0.791-11.159-5.9c-2.158-5.165-0.857-10.052,0.6-13.245    c2.443,3.86,4.972,7.664,7.187,11.801C426.696,314.054,427.824,316.512,428.825,319.066z"/>
		<path style="fill:#AE312F;" d="M411.121,360.106c-3.515,0.542-5.915-1.819-7.415-4.221c3.429-1.721,6.501-3.887,8.787-6.622    C414.022,353.095,415.779,359.37,411.121,360.106z"/>
	</g>
	<path style="fill:#6CE1C1;" d="M321.595,49.698c0,0-13.023,1.098-12.3,8.441c0.723,7.342,15.844,3.301,15.844,3.301   s-4.727,12.814,0.015,17.101c4.742,4.287,11.102-10.818,11.102-10.818s3.529,10.631,9.486,10.226   c5.957-0.406-0.168-13.084-0.168-13.084s15.596,2.417,16.223-3.411c0.628-5.828-12.354-6.131-12.354-6.131   s9.245-6.259,4.896-11.359c-4.349-5.1-11.416,3.073-11.416,3.073s4.096-9.073-2.84-10.921c-6.936-1.848-6.728,9.825-6.728,9.825   s-6.34-12.943-12.579-9.412C314.538,40.058,321.595,49.698,321.595,49.698z"/>
	<path style="fill:#FF9D3D;" d="M174.816,68.436l-0.055,0.101c-15.544,32.449-7.33,60.621,25.507,88.868   c43.516,36.533,141.581,42.323,141.581,42.323c11.651-4.942,29.379-20.794,36.355-39.448c0.032-0.094,0.072-0.166,0.104-0.26   c0.894-2.187,1.728-4.553,2.417-6.907c1.922-6.477,3.326-13.236,3.79-20.027c2.938-30.774-17.335-55.412-45.926-71.139   c-0.148-0.076-0.289-0.167-0.438-0.244c-0.474-0.281-0.971-0.556-1.476-0.816c-15.619-8.434-32.959-15.416-48.945-20.789   l-0.015-0.007c-5.161-1.697-10.149-3.156-14.991-4.393c-36.858-9.012-66.092-8.359-85.555,13.998   c-0.839,1.031-1.636,2.046-2.444,3.085C180.819,57.885,177.488,63.12,174.816,68.436z"/>
	<path style="fill:#FF5555;" d="M363.023,257.869c0,0,18.763-27.429,51.617-19.92c0,0-1.882,28.905-46.327,26.47L363.023,257.869z"/>
	<path style="fill:#FF5555;" d="M135.161,282.643c0,0-17.279-29.476-55.678-26.864C79.483,255.779,68.731,288.239,135.161,282.643z"/>
	<path style="fill:#FF9D3D;" d="M384.717,320.371c1.379,47.813-25.575,83.618-68.226,85.661   c2.886,16.841,2.886,20.589-18.789,30.419c-21.675,9.829-28.419,28.086-34.677,30.891c-6.302,2.912-12.6-2.64-12.074-12.634   c0.414-9.607,9.645-20.159,15.846-25.809c0.092-0.044,0.205-0.184,0.286-0.25c3.435-2.89,6.438-6.019,9.159-9.343c0,0,0,0,0-0.014   c0.796-0.968,1.568-1.975,2.258-2.929C157.251,440.573,111.569,311.057,139.031,228.74c-23.076,1.712-41.951-18.568-28.432-45.941   c7.406-21.174,55.78-56.535,64.038-60.337l167.658,64.517C362.305,208.71,386.405,269.872,384.717,320.371z"/>
	<g>
		<path style="fill:#FFFFFF;" d="M221.279,109.61c4.979,7.647,15.354,13.841,24.707,14.166c1.999,0.068,3.981-0.149,5.92-0.704    c8.413-2.451,15.827-9.834,19.303-17.601c0.095-0.173,0.174-0.354,0.254-0.535c3.358-7.901,1.88-16.943-3.498-23.65    c-6.297-7.846-17.918-14.477-28.34-11.379c-4.113,1.228-8.022,3.687-11.342,6.913l-0.015-0.008    C219.389,85.383,214.619,99.36,221.279,109.61z"/>
		<path style="fill:#AE312F;" d="M221.279,109.61c8.635,12.713,27.933,19.289,40.029,7.531c5.86-5.176,10.561-12.361,10.746-20.33    c0.321-14.363-14.156-26.632-28.021-26.75c-5.909,0.153-11.417,3.373-15.674,7.363c-0.014-0.008-0.303-0.166-0.316-0.172    l0.569-0.083C220.01,85.011,214.459,98.987,221.279,109.61z M221.279,109.61c-6.942-10.774-1.523-25.05,6.888-33.396    c0.014,0.007,0.33,0.161,0.343,0.168l-0.571,0.085c4.273-4.282,9.79-7.734,15.996-8.178c18.586-1.042,37.217,19.585,28.205,37.691    l0.037-0.075c-4.66,9.343-13.694,17.62-24.465,18.235C237.29,124.064,227.131,118.108,221.279,109.61z"/>
	</g>
	<path style="fill:#AE312F;" d="M296.351,119.953c0,0,6.198-3.129,7.869-1.365c1.671,1.764-7.673,6.517-10.298,6.219   c-2.625-0.298-4.234-10.241-2.313-11.208C293.531,112.631,296.351,119.953,296.351,119.953z"/>
	<path style="fill:#AE312F;" d="M274.558,148.644c6.492-8.966,14.492-18.378,20.457-27.669c-1.845,10.925-3.79,21.989-7.954,32.303   c2.852-9.664,4.611-19.625,6.23-29.554l1.147,0.428C288.509,132.663,281.434,140.89,274.558,148.644z"/>
	<path style="fill:#AE312F;" d="M238.633,114.862c-6.612-2.288-12.225-8.094-13.195-14.984   c-1.545-10.979,7.733-22.107,19.074-22.632c6.089-0.281,12.735,2.404,16.642,6.993c10.44,12.264-1.426,31.538-16.868,31.602   C242.384,115.848,240.473,115.498,238.633,114.862z"/>
	<g>
		<path style="fill:#FFFFFF;" d="M320.037,134.427c0.117,7.842,6.699,14.189,13.508,17.4c0.944,0.431,1.913,0.782,2.9,1.031    c11.918,3.051,25.768-7.691,27.169-19.502c0.165-1.209,0.173-2.444,0.045-3.674c-1.166-10.767-13.593-21.012-24.845-19.635    c-2.723,0.354-5.189,1.875-7.259,3.544c-1.419,1.136-2.828,2.499-4.151,4.018C323.219,122.35,319.946,128.594,320.037,134.427z"/>
		<path style="fill:#AE312F;" d="M320.037,134.427c0.296,8.589,7.849,15.213,15.542,17.773c8.052,2.252,16.558-1.889,21.691-8.013    c7.978-8.77,6.27-20.589-2.755-27.876c-5.944-5.118-15.432-8.315-22.183-2.825C325.799,118.407,320.195,125.969,320.037,134.427z     M320.037,134.427c0.124-8.522,5.545-16.176,11.812-21.571c6.863-6.228,17.409-3.452,24.039,1.776    c13.894,10.572,10.893,28.218-3.845,36.326c-5.009,2.835-11.198,3.851-16.706,1.99    C327.743,149.869,320.299,143.095,320.037,134.427z"/>
	</g>
	<path style="fill:#AE312F;" d="M344.36,145.936c-0.62,0.143-7.206,3.025-14.825-4.034c-7.62-7.059-0.84-17.846,2.422-20.868   c3.262-3.022,11.891-8.329,20.77-0.622C361.606,128.119,355.023,143.473,344.36,145.936z"/>
	<path style="fill:#FF9D3D;" d="M334.645,61.228c0.319,0.497,5.483,8.536,11.684,15.407c2.131,2.336,4.37,4.543,6.592,6.26   c3.594,2.794,7.12,4.314,9.926,3.042c1.217-0.557,2.479-1.441,3.755-2.595c0.138-0.114,0.284-0.242,0.407-0.363   c6.317-5.897,12.576-17.72,13.582-25.353c0.285-2.127,0.156-3.912-0.475-5.162c-0.243-0.495-0.565-0.883-0.978-1.206   c-6.599-5.062-14.883-4.171-21.781-0.699c-4.743,2.382-9.08,6.045-14.067,7.968c-0.379,0.137-3.629,1.421-6.046,2.191l-0.568,0.17   C335.622,61.214,334.814,61.371,334.645,61.228z"/>
	<path style="fill:#FF9D3D;" d="M200.574,38.373c0.785,0.201,52.385,12.949,59.277-1.081c0.657-1.344,1.195-2.749,1.613-4.179   c4.078-13.649-1.942-30.409-7.314-32.732l-0.015-0.008c-5.93-2.555-14.525,8.528-23.013,16.208   C222.764,24.163,201.231,37.936,200.574,38.373z"/>
	<path style="fill:#AE312F;" d="M241.288,30.333c0,0,4.048,0.612,9.757,1.131c5.994,0.555,10.194,1.609,10.419,1.65   c4.078-13.649-1.942-30.409-7.314-32.732l-0.015-0.008c-2.286,2.483-4.998,5.467-6.792,13.952   c-0.171,0.836-0.393,1.627-0.637,2.389C243.144,28.023,241.288,30.333,241.288,30.333z"/>
	<path style="fill:#AE312F;" d="M356.842,70.804c0,0-0.257,3.387,5.49,8.195c1.769,1.466,3.419,2.87,4.677,3.98   c6.317-5.897,12.576-17.72,13.582-25.353c0.285-2.127,0.156-3.912-0.475-5.162c0,0-3.329-0.07-8.579,5.231   c-1.912,1.936-3.68,3.816-5.494,5.47C361.744,67.069,356.842,70.804,356.842,70.804z"/>
	<path style="opacity:0.48;fill:#EB4949;" d="M240.729,127.059c2.388,3.782,0.752,8.73-4.273,9.41   c-6.728,0.91-16.419-3.971-19.258-10.041c-2.397-5.125,2.879-10.293,7.698-9.543c4.073,0.634,7.793,2.623,10.919,5.13   C237.269,123.181,239.391,124.939,240.729,127.059z"/>
	<path style="opacity:0.48;fill:#EB4949;" d="M330.113,154.782c-4.378,1.258-6.571,5.999-3.305,9.771   c4.373,5.051,14.936,7.725,21.226,5.06c5.31-2.25,4.949-9.521,0.851-12.097c-3.464-2.177-7.598-3.118-11.647-3.287   C335.355,154.15,332.567,154.077,330.113,154.782z"/>
	<path style="fill:#AE312F;" d="M294.158,42.299c3.86,7.921,4.9,17.976,5.878,25.634c0.544,4.199,0.862,8.429,1.029,12.656   c0.133,3.174,1.323,6.781,4.303,8.538c3.743,2.205,8.406,1.224,11.824-1.101c4.281-2.897,6.471-7.573,7.761-12.344   c1.819-6.753,1.575-14.013-0.236-20.842c-0.319-0.146-0.654-0.3-0.989-0.454C313.378,49.647,303.513,45.62,294.158,42.299z"/>
	<path style="fill:#AE312F;" d="M366.485,151.841c3.963,2.466,9.011,2.94,13.856,2.533c0.13-0.413,0.261-0.827,0.384-1.262   c0.123-0.399,0.253-0.812,0.368-1.234c1.046-3.731,1.929-7.546,2.565-11.433C372.228,144.207,359.065,147.206,366.485,151.841z"/>
	<path style="fill:#AE312F;" d="M363.289,163.246c2.09,2.795,6.274,4.82,10.458,6.217c0.503-0.887,0.999-1.796,1.488-2.727   c1.057-2.043,2.057-4.19,2.97-6.456c0.032-0.094,0.072-0.166,0.104-0.26C368.985,158.767,359.605,158.317,363.289,163.246z"/>
	<path style="fill:#FFC893;" d="M284.228,406.033c0,0-1.314,4.221-5.729,10.329c-77.014,12.676-125.308-22.977-142.639-76.332   c-9.43-29.003-7.673-59.352-4.1-81.01c4.458-10.274,10.73-21.464,19.432-31.085c21.246-1.972,52.038-7.441,56.924-15.758   c1.457-2.485,2.243-5.442,2.286-8.538c3.972,0.222,8.116,0.722,12.431,1.513c53.438,9.885,55.838,46.329,55.338,78.942   c-4.172,1.333-8.244,3.235-12.117,5.845c-36.663,24.629-37.564,62.559-33.377,66.849c2.986,3.054,7.13,0.43,7.13,0.43   s-4.829,18.424,2,18.465c2.758,0.028,3.901-7.025,3.901-7.025S253.094,396.8,284.228,406.033z"/>
	<path style="fill:#AE312F;" d="M375.804,133.572c2.51,0.664,5.609,0.319,8.711-0.486c0.026-0.153,0.038-0.313,0.049-0.473   c0.21-3.349,0.217-6.746-0.053-10.157C376.799,127.005,369.985,132.035,375.804,133.572z"/>
	<path style="fill:#AE312F;" d="M272.725,35.697c0.897,2.366,1.908,5.012,2.604,6.979c2.194,6.231,3.808,14.327,6.729,16.331   c6.101,4.195,11.583-1.077,10.026-9.384c-0.712-3.786-2.557-7.065-4.354-9.525l-0.015-0.007   C282.554,38.393,277.567,36.934,272.725,35.697z"/>
	<path style="fill:#AE312F;" d="M328.1,56.452c1.603,5.78,2.199,14.626,5.248,17.232c4.596,3.92,10.504,1.565,9.454-2.266   c-1.014-3.72-2.65-6.965-4.213-9.471C335.304,60.088,331.815,58.255,328.1,56.452z"/>
	<path style="opacity:0.48;fill:#AE312F;" d="M206.592,156.331c-3.632-2.805-7.13-5.76-10.299-9.101l0.798-0.319   c0.124,1.689-0.315,5.052-2.841,4.211c-2.911-2.502-2.081-7.8-1.974-11.318l1.086,0.52c-4.816,5.558-8.83,3.307-7.557-3.724   l0.288,0.525c-4.533-2.281-8.648-5.471-11.451-9.718c3.227,3.919,7.547,6.954,12.169,8.965c-0.977,8.616,2.926,6.583,6.998,1.588   c-0.548,3.749-1.003,8.081,0.424,11.677c1.857,2.165,2.04-2.838,1.96-3.937C199.364,149.5,203.012,152.906,206.592,156.331z"/>
	<path style="opacity:0.21;fill:#AE312F;" d="M228.283,76.821c33.8,1.473,42.016,25.576,42.926,28.651   c0.095-0.173,0.174-0.354,0.254-0.535c3.358-7.901,1.88-16.943-3.498-23.65c-6.297-7.846-17.918-14.477-28.34-11.379   C235.512,71.136,231.602,73.596,228.283,76.821z"/>
	<path style="opacity:0.21;fill:#AE312F;" d="M327.403,117.61c15.617-0.904,29.489,9.586,36.211,15.747   c0.165-1.209,0.173-2.444,0.045-3.674c-1.166-10.767-13.593-21.012-24.845-19.635c-2.723,0.354-5.189,1.875-7.259,3.544   C330.135,114.729,328.726,116.092,327.403,117.61z"/>
	<path style="fill:#AE312F;" d="M188.16,48.542c17.949,26.767,34.876,14.357,25.986,6.451c-5.954-5.303-10.402-12.178-13.298-16.775   C195.985,40.963,191.75,44.402,188.16,48.542z"/>
	<path style="fill:#AE312F;" d="M174.816,68.436l-0.055,0.101c-0.2,0.507-0.423,0.984-0.63,1.468   c7.433,8.135,17.744,15.737,28.607,16.434c4.099,0.262,8.645-1.481,9.198-5.319c0.211-1.537-0.29-3.2-1.179-4.674   c-2.615-4.378-7.742-7.499-12.139-10.355c-4.996-3.257-10.104-8.679-13.893-13.31C180.819,57.885,177.488,63.12,174.816,68.436z"/>
	<path style="fill:#AE312F;" d="M171.176,76.82c-2.409,6.578-3.76,13.276-3.941,20.059c5.784,4.254,13.358,6.306,20.517,5.945   c3.192-0.167,6.566-1.332,7.549-4.597c1.309-4.317-3.833-7.482-7.124-9.085C179.244,84.801,173.855,79.789,171.176,76.82z"/>
	<path style="fill:#AE312F;" d="M363.647,184.98c-3.875-2.579-7.507-5.451-11.078-8.394c-3.547-2.973-7.034-6.019-10.275-9.361   c3.877,2.577,7.508,5.449,11.078,8.394C356.919,178.594,360.405,181.641,363.647,184.98z"/>
	<path style="fill:#AE312F;" d="M370.982,176.142c-4.258-1.53-8.348-3.402-12.398-5.358c-4.033-1.99-8.024-4.066-11.847-6.487   c4.259,1.527,8.35,3.4,12.398,5.358C363.167,171.647,367.158,173.723,370.982,176.142z"/>
	<path style="fill:#AE312F;" d="M374.415,162.445c-4.528,0.448-9.052,0.515-13.574,0.489c-4.523-0.064-9.044-0.224-13.562-0.768   c4.528-0.451,9.051-0.517,13.574-0.489C365.376,161.745,369.898,161.905,374.415,162.445z"/>
	<path style="fill:#FFFFFF;" d="M249.291,26.345c0,0,2.984,1.296,4.11,1.045c1.141-0.244-3.244-2.632-3.244-2.632   c2.716,0.216,5.906-1.376,5.172-1.81c-0.741-0.456-4.348,0.09-4.348,0.09c4.774-2.44,6.007-9.199,2.817-10.361   c-1.364-0.499-4.248,1.546-7.091,4.038c-3.562,11.308-14.02,15.59-15.698,15.945c6.998-1.738,14.328-1.715,20.037-1.196   C251.436,29.003,249.291,26.345,249.291,26.345z"/>
	<path style="fill:#FFFFFF;" d="M362.332,78.999c0.852-2.537,0.097-7.048,0.024-7.437c0.154,0.172,1.739,2.079,2.973,2.049   c1.294-0.036-1.405-3.108-1.405-3.108s2.519,1.556,3.143,0.898c0.632-0.635-2.151-1.81-2.151-1.81   c2.492-0.14,8.624-3.359,6.993-5.881c-1.065-1.639-3.958-1.114-5.867-0.544c-4.299,3.905-8.888,6.495-16.598,5.353   C349.445,68.517,356.585,74.19,362.332,78.999z"/>
	<path style="opacity:0.48;fill:#AE312F;" d="M303.894,129.865c3.486,2.509,6.163,6.41,6.762,10.98   c0.868,6.625-1.469,13.492-7.732,16.532c-3.887,1.887-8.212,1.981-12.271,1.433c-7.779-1.051-15.428-2.629-21.68-7.547   c-2.267-1.784-4.327-3.939-5.617-6.635c-1.977-4.132-1.945-9.43,0.083-13.888c2.029-4.458,6.007-7.973,10.429-9.213   c5.439-1.526,11.878-0.024,16.748,2.095C294.954,125.51,300.062,127.106,303.894,129.865z"/>
	<path style="fill:#AE312F;" d="M219.957,124.45c-4.645-0.723-9.192-1.813-13.715-2.994c-4.513-1.218-9.002-2.528-13.393-4.209   c4.646,0.72,9.193,1.811,13.715,2.994C211.077,121.462,215.566,122.772,219.957,124.45z"/>
	<path style="fill:#AE312F;" d="M196.258,106.388c4.185,1.706,8.189,3.747,12.149,5.871c3.942,2.157,7.837,4.397,11.55,6.975   c-4.187-1.704-8.191-3.745-12.149-5.871C203.868,111.204,199.973,108.963,196.258,106.388z"/>
	<path style="fill:#AE312F;" d="M205.996,95.938c2.981,3.323,5.652,6.868,8.247,10.467c2.564,3.621,5.051,7.297,7.224,11.197   c-2.983-3.321-5.654-6.866-8.247-10.467C210.658,103.513,208.172,99.836,205.996,95.938z"/>
	<path style="fill:#FF5555;" d="M266.023,31.029c0,0-19.116,7.147-14.85,13.248c4.266,6.101,19.13-9.936,19.13-9.936   s-1.41,18.875,4.869,20.419c6.279,1.544,1.663-19.722,1.663-19.722s11.074,12.725,16.097,9.587   c5.023-3.138-11.481-12.725-11.481-12.725s19.734-3.835,17.401-9.239c-2.332-5.404-19.325,5.055-19.325,5.055   s10.47-14.468,4.133-16.909c-6.336-2.44-8.863,15.863-8.863,15.863s-0.523-17.705-7.519-16.087   c-6.996,1.618,3.024,16.958,3.024,16.958s-16.026-13.589-19.751-7.579C246.828,25.974,266.023,31.029,266.023,31.029z"/>
	<path style="fill:#AE312F;" d="M204.426,215.623c-0.861-1.689-2.46-2.712-4.057-3.48c-1.636-0.742-3.392-1.216-5.187-1.521   c-1.799-0.298-3.628-0.46-5.474-0.558l-5.593-0.201c0.917-0.213,1.847-0.345,2.777-0.521c0.932-0.146,1.876-0.189,2.819-0.26   c0.944-0.089,1.893,0,2.843-0.006c0.948,0.055,1.897,0.176,2.842,0.306c1.879,0.345,3.757,0.907,5.434,1.898   c0.854,0.46,1.6,1.12,2.267,1.816C203.705,213.846,204.271,214.676,204.426,215.623z"/>
	<path style="fill:#AE312F;" d="M185.686,195.175c2.067-0.805,4.278-1.252,6.507-1.417c2.232-0.173,4.494-0.023,6.706,0.412   c2.214,0.428,4.359,1.246,6.301,2.382c1.996,1.063,3.625,2.679,5.062,4.34c-1.786-1.317-3.538-2.602-5.52-3.473   c-1.945-0.91-3.979-1.632-6.094-2.018c-2.101-0.437-4.255-0.636-6.422-0.666C190.058,194.733,187.873,194.843,185.686,195.175z"/>
	<path style="fill:#FF9D3D;" d="M476.19,167.222c-2.115,8.108-38.807,40.387-79.457,62.795c-6.258,3.443-12.616,6.664-18.946,9.524   c-3.929,1.777-7.844,3.402-11.731,4.873c-48.565,18.326-24.59-46.857-24.59-46.857s20.76-13.828,43.208-27.809   c4.458-2.777,8.973-5.553,13.417-8.247c9.601-5.79,18.878-10.991,26.133-14.869c28.252-15.102,33.906-2.194,33.906-2.194   s6.073-2.804,11.545,0.889c5.043,3.401,0.872,10.857,0.872,10.857S478.29,159.1,476.19,167.222z"/>
	<path style="opacity:0.48;fill:#AE312F;" d="M338.615,241.674c-2.267,4.422-5.186,16.208,2.852,7.668   c2.299-2.465,4.72-6.387,6.629-9.196c-5.245,11.057-3.997,18.119,5.827,5.316c6.019-0.335,12.111-1.247,17.81-3.303   c-5.468,2.618-11.493,3.756-17.502,4.355l0.405-0.223c-2.399,2.773-4.764,7.255-8.952,7.198c-3.453-1.539-1.576-6.179-0.639-8.765   l1.011,0.548C338.491,256.997,331.012,255.356,338.615,241.674z"/>
	<path style="opacity:0.48;fill:#AE312F;" d="M356.135,188.055c-3.785,3.131-7.542,6.503-12.242,8.206l0.373-0.327   c-2.306,7.468-8.688,6.257-4.84-1.492l0.956,0.758c-2.454,1.672-5.106,4.041-8.31,3.55c-2.727-0.808-0.994-3.857,0.507-4.976   l0.361,0.771c-3.949,0.366-7.995,0.449-11.846-0.563c4.342,0.602,8.766,0.16,13.06-0.531c-1.553,1.294-4.497,4.995-0.35,4.131   c2.872-0.892,5.458-3.1,7.803-4.948c-0.814,1.999-2.287,4.386-2.164,6.58c1.152,2.22,3.569-2.764,3.966-3.901   C348.085,193.981,352.07,190.661,356.135,188.055z"/>
	<path style="fill:#FFC893;" d="M461.918,148.532c-0.777,0.501-1.432,1.299-1.676,2.381c-0.244,1.082-0.012,2.467,0.712,3.41   c0.949,1.236,2.385,1.387,3.583,1.225c0.9-0.122,1.796-0.375,2.471-1.023c1.02-0.979,1.397-2.862,0.929-4.631   c-0.122-0.46-0.302-0.921-0.581-1.288C465.918,146.715,463.165,147.728,461.918,148.532z"/>
	<path style="fill:#FFC893;" d="M465.418,164.356c0.081,0.915,0.608,1.748,1.28,2.395c0.988,0.951,2.385,1.572,3.763,1.393   c3.41-0.444,3.246-4.443,0.719-5.947C469.263,161.056,465.174,161.579,465.418,164.356z"/>
	<path style="fill:#FFC893;" d="M442.772,144.118c-1.193,0.993-0.364,2.61,1.028,3.478c1.868,1.164,4.462,1.478,6.263,0.218   c1.068-0.747,1.081-2.469,0.359-3.448c-1.353-1.832-4.942-1.402-6.806-0.714C443.265,143.782,442.986,143.94,442.772,144.118z"/>
	<path style="fill:#FFC893;" d="M446.455,154.962c-2.64-0.183-5.3,0.226-7.094,1.844c-1.836,1.656-2.227,4.861-0.35,6.473   c1.414,1.214,3.576,1.231,5.094,2.32c1.344,0.965,1.965,2.603,3.066,3.825c1.463,1.624,3.829,2.43,6.016,2.05   c2.187-0.381,4.117-1.934,4.909-3.951c1.01-2.573,0.678-5.709-1-7.941c-1.216-1.617-3.035-2.737-4.972-3.419   C450.52,155.598,448.494,155.103,446.455,154.962z"/>
	<path style="fill:#AE312F;" d="M267.711,463.348c-0.944-0.763-1.683-1.759-2.266-2.832c-0.588-1.076-0.974-2.266-1.174-3.49   c-0.105-0.613-0.111-1.237-0.127-1.857c0.073-0.619,0.071-1.243,0.258-1.84c0.242-1.214,0.826-2.33,1.531-3.297   c-0.232,1.194-0.515,2.305-0.562,3.446c-0.085,1.127-0.054,2.252,0.141,3.357C265.841,459.059,266.658,461.194,267.711,463.348z"/>
	<path style="fill:#AE312F;" d="M257.123,468.101c-0.641-1.13-1.084-2.348-1.431-3.591c-0.354-1.243-0.567-2.527-0.658-3.829   c-0.068-1.3-0.045-2.627,0.282-3.918c0.304-1.279,0.863-2.553,1.807-3.459c-0.972,2.393-0.992,4.825-0.835,7.297   C256.426,463.074,256.838,465.537,257.123,468.101z"/>
	<path style="fill:#AE312F;" d="M137.977,450.519c-0.489-0.91-0.701-1.955-0.719-2.999c-0.028-1.05,0.191-2.112,0.597-3.096   c0.427-0.972,1.015-1.893,1.812-2.587c0.754-0.734,1.687-1.243,2.65-1.574c-0.686,0.776-1.373,1.451-1.921,2.23   c-0.576,0.749-1.028,1.565-1.382,2.415C138.274,446.61,138.02,448.488,137.977,450.519z"/>
	<path style="opacity:0.48;fill:#AE312F;" d="M158.313,425.49c4.253,4.065,8.686,7.761,5.974-1.418   c1.677,1.906,3.492,4.297,5.824,5.374c3.277,1.157,0.781-2.514-0.079-3.612c4.351,0.995,9.286,1.765,13.437-0.344   c-3.459,2.558-8.169,2.41-12.258,1.779l0.577-0.898c1.131,1.25,2.106,4.187-0.392,4.518c-2.828,0.064-4.756-2.403-6.449-4.311   l0.998-0.494C167.374,434.623,160.624,429.208,158.313,425.49z"/>
	<path style="fill:#6CE1C1;" d="M304.642,232.404c0,0,14.199-13.054,13.246-19.892c-1.043-7.485-8.556-6.722-8.556-6.722   s2.295-8.217-5.013-10.667c-7.308-2.449-11.801,6.424-11.801,6.424s-6.099-6.867-12.763-1.067   c-6.837,5.951,2.491,27.434,2.491,27.434s-4.267,0.866-2.178,4.776c2.974,5.566,22.598,9.656,25.157,4.837   C307.034,234.121,304.642,232.404,304.642,232.404z"/>
	<path style="fill:#6CE1C1;" d="M213.401,211.011c-0.772,1.444-3.043,2.083-5.972,2.124c0.271-0.319,0.5-0.639,0.686-0.958   c1.457-2.485,2.243-5.442,2.286-8.538c0.172-9.496-6.572-20.201-21.818-21.825c-1.029-0.111-2.086-0.181-3.158-0.208   c-0.028-3.207,0.629-6.012,2.501-7.65c6.658-5.789,12.759,1.069,12.759,1.069s4.501-8.871,11.802-6.428   c7.316,2.458,5.015,10.677,5.015,10.677s7.515-0.763,8.559,6.72c0.957,6.831-13.245,19.895-13.245,19.895   S215.202,207.595,213.401,211.011z"/>
	<path style="fill:#FFFFFF;" d="M309.332,205.791c-4.537,7.494-7.804,16.025-10.995,24.175   C299.908,221.229,303.291,212.423,309.332,205.791z"/>
	<path style="fill:#FFFFFF;" d="M292.518,201.549c-2.744,8.626-3.799,17.602-3.817,26.633   C286.955,219.274,288.135,209.549,292.518,201.549z"/>
	<path style="opacity:0.48;fill:#AE312F;" d="M204.426,236.041c-1.892-1.632-3.844-3.202-5.94-4.528   c-1.051-0.651-2.132-1.264-3.262-1.681c-1.092-0.398-2.436-0.588-3.032,0.245c-0.665,0.808-0.459,2.029,0.056,3.067   c0.516,1.055,1.237,2.043,2.017,2.98c1.578,1.861,3.419,3.556,5.327,5.086l2.234,1.791l-2.769-0.76   c-1.745-0.479-3.575-0.848-5.36-0.95c-0.887-0.051-1.789-0.036-2.556,0.187c-0.775,0.232-1.221,0.689-1.133,1.402   c0.019,0.67,0.564,1.285,1.268,1.749c0.7,0.477,1.553,0.799,2.402,1.086c1.716,0.559,3.554,0.87,5.355,1.092l1.613,0.199   l-1.415,0.757c-1.366,0.73-2.726,1.576-3.92,2.569c-0.603,0.492-1.163,1.035-1.607,1.64c-0.441,0.595-0.785,1.293-0.674,1.959   c0.1,0.671,0.618,1.271,1.333,1.387c0.712,0.146,1.508-0.004,2.249-0.241c1.494-0.489,2.915-1.257,4.255-2.123   c-1.259,0.988-2.623,1.862-4.14,2.458c-0.756,0.289-1.576,0.52-2.454,0.404c-0.897-0.089-1.717-0.841-1.879-1.767   c-0.184-0.95,0.244-1.815,0.705-2.5c0.476-0.702,1.055-1.302,1.669-1.845c1.227-1.099,2.566-2.006,3.986-2.838l0.198,0.956   c-1.907-0.152-3.767-0.483-5.612-1.041c-0.916-0.298-1.836-0.624-2.693-1.185c-0.826-0.527-1.743-1.399-1.825-2.637   c-0.087-0.58,0.094-1.231,0.498-1.728c0.406-0.494,0.951-0.762,1.457-0.923c1.028-0.305,2.025-0.322,2.993-0.269   c1.94,0.139,3.784,0.54,5.628,1.069l-0.535,1.031c-1.968-1.62-3.802-3.351-5.434-5.323c-0.809-0.987-1.561-2.046-2.089-3.267   c-0.26-0.609-0.464-1.269-0.487-1.983c-0.026-0.712,0.196-1.474,0.688-2.038c0.486-0.599,1.304-0.865,1.992-0.818   c0.701,0.025,1.34,0.222,1.944,0.459c1.202,0.492,2.279,1.172,3.302,1.91C200.815,232.567,202.693,234.236,204.426,236.041z"/>
	<path style="fill:#AE312F;" d="M284.865,405.626c0.473,1.516,4.305,8.396,5.245,4.212c0.271-1.934-0.551-5.14-0.826-7.092   c1.314,3.291,8.654,14.735,7.829,4.329c2.521,8.798-5.045,4.385-7.109-0.3l1.17-0.409   C292.63,415.84,285.604,412.374,284.865,405.626z"/>
	<path style="fill:#AE312F;" d="M383.745,298.963c-1.986,0.403-4.058,0.472-6.087,0.472c-5.415-0.014-10.845-0.444-16.189-1.291   c-6.101-0.972-12.502-2.707-16.574-7.219c-1.043-1.152-1.943-2.61-1.7-4.124c0.257-1.624,1.743-2.804,3.286-3.499   c3.901-1.763,8.416-1.374,12.731-1.402c6.087-0.028,12.159-0.972,17.96-2.791c1.357-0.5,2.558-1.013,3.729-1.596   C382.116,284.302,383.088,291.452,383.745,298.963z"/>
	<path style="fill:#AE312F;" d="M384.703,323.148c-0.086,5.97-0.514,11.523-1.229,16.674c-0.714-0.014-1.443-0.042-2.158-0.069   c-11.602-0.431-23.447-2.041-33.649-7.386c-1.686-0.888-3.515-2.166-3.615-4.026c-0.1-1.833,1.586-3.318,3.358-3.971   c3.072-1.152,6.501-0.625,9.759-0.18c7.087,0.958,14.374,1.472,21.49,0.402C380.702,324.286,382.717,323.69,384.703,323.148z"/>
	<path style="fill:#AE312F;" d="M380.959,352.359c-1.414,5.331-3.186,10.121-5.229,14.453c-3.215-0.583-6.287-1.721-9.13-3.304   c-2.872-1.597-6.13-3.304-8.216-5.873c-2.815-3.457,0.657-6.303,4.272-6.595c1.886-0.153,3.772,0.222,5.644,0.514   C372.515,352.206,376.73,352.428,380.959,352.359z"/>
	<path style="fill:#AE312F;" d="M368.443,379.001c-5.158,6.9-11.059,12.051-17.003,15.883c-1.772-0.694-3.501-1.527-5.129-2.485   c-7.444-4.345-13.174-11.218-16.632-18.951c-0.828-1.874-1.5-4.165-0.286-5.831c1.372-1.888,4.286-1.777,6.544-1.083   c3.558,1.111,6.701,3.165,9.93,4.998c6.015,3.443,12.574,6.248,19.504,7.331C366.271,379.001,367.342,379.001,368.443,379.001z"/>
	<path style="fill:#AE312F;" d="M162.764,173.789c-3.615,0.625-7.273-0.528-10.745-1.652c-8.03-2.582-16.189-5.123-24.633-6.04   c-1.829-0.194-3.644-0.319-5.487-0.333c4.9-5.803,10.573-11.37,16.345-16.466c4.501,0.694,8.902,2.097,13.174,3.707   c5.315,1.999,10.587,4.415,14.76,8.205c1.6,1.458,3.086,3.249,3.3,5.387C169.837,170.138,166.379,173.178,162.764,173.789z"/>
	<path style="fill:#AE312F;" d="M131.387,187.617c-6.516,4.429-14.803,5.748-21.504,9.899c-1.272,0.791-2.486,1.68-3.686,2.555   c0.157-3.499,0.857-7.4,2.2-11.69c0.586-1.86,1.314-3.721,2.2-5.581c5.915-1.347,11.959-2.138,18.032-2.346   c2.1-0.069,4.715,0.236,5.472,2.152C134.845,184.521,133.102,186.451,131.387,187.617z"/>
	<path style="fill:#AE312F;" d="M402.491,180.384c-0.071,1.25-0.428,2.582-1.414,3.388c-1.057,0.875-2.629,0.916-3.929,0.458   c-1.286-0.472-2.358-1.374-3.343-2.318c-3.272-3.124-7.115-7.65-9.13-12.162c4.458-2.777,8.973-5.553,13.417-8.247   c0.171,1.61,0.271,3.235,0.614,4.818C399.719,171.096,402.763,175.525,402.491,180.384z"/>
	<path style="fill:#AE312F;" d="M396.733,230.017c-6.258,3.443-12.616,6.664-18.946,9.524c-0.3-1.402-0.686-2.804-1.086-4.179   c-2.372-8.011-6.187-15.772-6.587-24.213c-0.086-1.624-0.014-3.304,0.686-4.776c0.7-1.472,2.172-2.693,3.844-2.707   c1.357,0,2.572,0.749,3.672,1.513C386.989,211.247,393.547,220.118,396.733,230.017z"/>
	<path style="fill:#FF5555;" d="M132.357,285.549c0,0-35.114-0.05-48.387,28.651c0,0,42.073,18.699,57.081-25.991L132.357,285.549z"/>
	<path style="fill:#FF5555;" d="M144.089,290.02c0,0-26.935,27.021-5.161,60.985c0,0,30.614-19.706,18.315-58.711L144.089,290.02z"/>
	<path style="fill:#FF5555;" d="M169.505,293.699c0,0-19.248,29.687,5.134,57.305c0,0,22.266-15.944,11.046-57.305H169.505z"/>
	<path style="fill:#FF5555;" d="M323.039,270.848c0,0,1.938,37.226,39.43,46.341c0,0-0.312-36.404-23.086-50.848L323.039,270.848z"/>
	<path style="fill:#FF5555;" d="M200.381,292.12c0,0-24.258,34.4,20.903,62.72c0,0,19.832-43.448-6.371-63.446L200.381,292.12z"/>
	<path style="fill:#FF5555;" d="M272.712,286.218c-2.272,1.028-4.501,2.263-6.659,3.721c-14.731,9.899-23.69,21.936-28.862,33.084   c-4.815-19.187,5.843-35.336,5.843-35.336l28.497-4.396C271.775,283.944,272.526,285.565,272.712,286.218z"/>
	<path style="fill:#FF5555;" d="M346.377,264.565c0,0,16.185,31.571,51.095,31.412c0,0-5.813-31.368-31.972-36.93   C365.5,259.048,353.012,263.007,346.377,264.565z"/>
	<path style="fill:#AE312F;" d="M180.216,293.828c-37.546,0-51.362-7.395-51.932-7.711c-0.608-0.335-0.829-1.1-0.492-1.708   c0.334-0.607,1.099-0.83,1.708-0.492c0.134,0.072,13.964,7.397,50.723,7.397c0.162,0,0.32,0,0.484,0   c34.27-0.06,95.85-6.665,194.6-37.79c0.668-0.208,1.369,0.16,1.578,0.821c0.209,0.663-0.16,1.369-0.822,1.578   c-99.364,31.318-161.32,37.899-195.796,37.906C180.251,293.828,180.232,293.828,180.216,293.828z"/>
	<path style="opacity:0.48;fill:#AE312F;" d="M255.609,466.857c-3.096-1.803-3.902-5.826-4.531-9.093   c-1.558-11.66,7.478-21.779,15.495-29.116l0.223-0.085c-0.148,0.001-0.205,0.106-0.181,0.059c0.678-0.586,1.455-1.334,2.159-1.897   l-0.084,0.057c2.225-2.218,5.34-5.287,7.252-7.736l-0.097,0.259c0,0-0.001-0.148-0.001-0.154c3.198-4.014,6.185-8.411,7.94-13.257   l0.312,0.585c-18.144-5.198-33.289-19.584-38.961-37.671l1.156-0.055c-0.414,3.352-2.784,10.158-7.02,6.487   c-3.508-5.382-1.102-12.366-0.068-18.18l0.936,0.685c-15.958,7.059-8.436-23.277-5.457-30.195   c6.802-17.644,20.359-32.685,37.135-41.349c17.381-8.254,37.725-4.942,55.102,1.481c-17.441-6.127-37.585-9.057-54.767-0.776   c-16.443,8.7-29.749,23.687-36.409,41.047c-2.776,6.374-10.229,36.902,5.021,27.987c-1.214,4.999-2.437,10.356-1.817,15.49   c0.121,1.869,1.686,4.596,3.65,3.32c2.078-2.076,2.395-5.814,2.962-8.616c4.993,18.942,20.546,34.18,39.26,39.613   c-1.799,5.123-4.899,9.603-8.276,13.799l0.094-0.256c0,0-0.001,0.151-0.001,0.156c-1.994,2.496-5.214,5.681-7.559,7.905   c-0.476,0.446-1.476,1.286-2.012,1.759l0.094-0.091c-0.093,0.109-0.122,0.188-0.362,0.215l0.222-0.085l-2.121,1.765l0.026-0.023   c-6.959,7.163-15.125,16.098-13.683,26.849C251.816,461.002,252.553,465.011,255.609,466.857z"/>
	<path style="opacity:0.48;fill:#AE312F;" d="M79.483,255.779c17.877,5.117,35.481,12.182,50.948,22.616   C114.106,269.464,96.804,262.517,79.483,255.779z"/>
	<path style="opacity:0.48;fill:#AE312F;" d="M83.971,314.201c14.947-12.086,32.119-22.744,51.191-26.513   C116.58,293.108,99.93,303.482,83.971,314.201z"/>
	<path style="opacity:0.48;fill:#AE312F;" d="M175.568,295.281c-4.542,18.177-5.198,37.44-0.929,55.723   C168.647,333.099,169.331,313.034,175.568,295.281z"/>
	<path style="opacity:0.48;fill:#AE312F;" d="M138.928,351.005c-3.794-20.156-1.302-42.875,11.293-59.611   C139.184,309.001,136.862,330.666,138.928,351.005z"/>
	<path style="opacity:0.48;fill:#AE312F;" d="M377.93,253.086c10.429-8.385,23.329-13.987,36.71-15.136   C401.612,240.808,389.307,246.159,377.93,253.086z"/>
	<path style="opacity:0.48;fill:#AE312F;" d="M397.472,295.978c-11.496-12.725-23.048-28.14-40.117-33.221   C374.717,265.93,387.631,282.403,397.472,295.978z"/>
	<path style="opacity:0.48;fill:#AE312F;" d="M362.469,317.189c-7.036-17.691-15.995-35.676-31.162-47.736   C347.621,280.195,357.055,298.912,362.469,317.189z"/>
	<path style="opacity:0.48;fill:#AE312F;" d="M221.284,354.84c-11.485-18.054-19.719-40.593-14.724-62.076   C203.328,314.391,211.317,335.939,221.284,354.84z"/>
	<path style="fill:#FFFFFF;" d="M206.886,191.852c2.322-4.928,5.71-9.584,10.316-12.579   C214.19,183.029,210.199,188.431,206.886,191.852z"/>
	<path style="fill:#FFFFFF;" d="M197.084,183.952c-0.147-3.239,0.912-6.682,3.3-8.927   C199.505,178.167,198.629,181.097,197.084,183.952z"/>
	<path style="opacity:0.48;fill:#AE312F;" d="M140.289,192.018c18.171-7.167,49.012-19.025,65.095-2.911   c8.234,8.45,7.854,25.308-4.762,29.221c-19.177,7.558-40.071,9.551-60.477,10.823c-17.648,1.561-39.715-14.295-32.676-33.537   c-6.511,19.032,15.344,34.285,32.643,32.57c18.053-1.139,36.35-3.321,53.675-8.617c4.661-1.598,9.753-3.211,13.205-6.841   c4.881-6.856,3.117-16.897-2.409-22.885C189.106,174.132,158.199,185.475,140.289,192.018z"/>
	<path style="opacity:0.48;fill:#AE312F;" d="M260.655,324.985c-2.945,10.982-0.072,17.726,7.723,5.087   c0.389,1.814,2.667,11.985,5.374,9.635c3.84-4.761,5.55-11.07,7.841-16.688c-0.02,2.249-0.285,5.035,0.571,7.152   c2.329,5.616,7.786,0.286,8.961-3.369c-2.526,8.453-10.584,8.808-10.585-0.923l0.972,0.177   c-3.428,10.023-9.364,25.516-13.916,5.537l1.011,0.177C259.902,344.228,256.696,335.23,260.655,324.985z"/>
	<path style="fill:#FFC893;" d="M163.934,386.852c0,0-3.113,11.159,0,12.479c3.113,1.319,4.471-4.447,4.471-4.447   s2.546,8.569,5.771,9.394c3.225,0.824,3.055-4.782,3.055-4.782s-0.072,5.001,8.62,4.067c8.692-0.934-8.45-22.372-8.45-22.372   L163.934,386.852z"/>
	<path style="fill:#FFC893;" d="M92.307,479.826c0,2.347-5.626,4.249-12.566,4.249c-6.94,0-12.566-1.902-12.566-4.249   c0-2.346,5.626-4.249,12.566-4.249C86.681,475.577,92.307,477.479,92.307,479.826z"/>
	<path style="fill:#FFC893;" d="M138.719,492.572c0,4.693-11.252,8.497-25.131,8.497c-13.88,0-25.131-3.805-25.131-8.497   c0-4.693,11.252-8.498,25.131-8.498C127.467,484.075,138.719,487.879,138.719,492.572z"/>
	<path style="fill:#FFC893;" d="M358.03,484.075c0,1.86-4.46,3.368-9.96,3.368c-5.501,0-9.96-1.508-9.96-3.368   c0-1.86,4.459-3.368,9.96-3.368C353.571,480.707,358.03,482.215,358.03,484.075z"/>
	<path style="fill:#FFC893;" d="M372.382,480.707c0,1.107-2.653,2.003-5.925,2.003c-3.272,0-5.925-0.897-5.925-2.003   c0-1.106,2.653-2.003,5.925-2.003C369.73,478.703,372.382,479.6,372.382,480.707z"/>
	<path style="opacity:0.2;fill:#AE312F;" d="M238.243,493.22c0,1.86-4.46,3.368-9.96,3.368c-5.501,0-9.96-1.508-9.96-3.368   s4.459-3.368,9.96-3.368C233.784,489.852,238.243,491.36,238.243,493.22z"/>
	<path style="opacity:0.2;fill:#AE312F;" d="M238.436,451.661c0,1.86-4.46,3.368-9.96,3.368c-5.501,0-9.96-1.508-9.96-3.368   s4.459-3.368,9.96-3.368C233.976,448.293,238.436,449.802,238.436,451.661z"/>
	<path style="opacity:0.2;fill:#AE312F;" d="M116.123,450.031c0,1.86-4.459,3.368-9.96,3.368c-5.501,0-9.96-1.508-9.96-3.368   c0-1.86,4.459-3.368,9.96-3.368C111.664,446.663,116.123,448.171,116.123,450.031z"/>
	<path style="opacity:0.2;fill:#AE312F;" d="M221.703,486.335c0,1.072-2.57,1.941-5.741,1.941c-3.171,0-5.741-0.869-5.741-1.941   c0-1.072,2.57-1.941,5.741-1.941C219.132,484.393,221.703,485.262,221.703,486.335z"/>
	<path style="opacity:0.2;fill:#AE312F;" d="M215.962,460.703c0,1.072-2.57,1.941-5.741,1.941s-5.741-0.869-5.741-1.941   c0-1.072,2.57-1.941,5.741-1.941S215.962,459.631,215.962,460.703z"/>
	<path style="opacity:0.2;fill:#AE312F;" d="M348.586,455.029c0,1.072-2.57,1.941-5.741,1.941c-3.17,0-5.741-0.869-5.741-1.941   s2.57-1.941,5.741-1.941C346.016,453.088,348.586,453.957,348.586,455.029z"/>
	<g>
		<path style="fill:#FF5555;" d="M102.325,141.555c-4.657-0.816-10.041,0.986-10.558,6.233c-0.344,3.501,2.396,4.881,5.541,4.696    c2.901-0.171,5.763-0.978,8.326-2.35c1.731-0.926,3.713-2.61,2.783-4.81c-0.387-0.916-1.155-1.619-1.979-2.176    C105.27,142.36,103.836,141.82,102.325,141.555z"/>
		<path style="fill:#FF5555;" d="M121.238,123.567c-4.657-0.817-10.041,0.986-10.558,6.233c-0.344,3.501,2.396,4.88,5.541,4.696    c2.901-0.171,5.763-0.978,8.326-2.349c1.731-0.926,3.712-2.61,2.783-4.81c-0.387-0.916-1.155-1.619-1.979-2.176    C124.184,124.372,122.749,123.831,121.238,123.567z"/>
		<path style="fill:#FF5555;" d="M127.327,127.332c-1.214-2.494-2.621-4.88-4.164-7.172c-1.554-2.285-3.19-4.511-4.925-6.66    c-1.735-2.149-3.546-4.236-5.422-6.261c-1.845-2.057-3.838-3.96-5.759-5.934l0.816-0.032l-7.817,8.738l-7.903,8.66l-0.076-0.829    c1.42,1.102,2.661,2.38,3.811,3.718l0.132,0.154l-0.001,0.199v0.012l-0.13-0.351c2.904,3.498,5.18,7.409,7.247,11.39    c1.027,1.997,1.954,4.042,2.84,6.1c0.882,2.06,1.716,4.141,2.442,6.259c-1.767-4.113-3.739-8.128-5.894-12.033    c-1.086-1.947-2.231-3.858-3.454-5.715c-1.237-1.846-2.578-3.613-3.999-5.299l-0.129-0.153l-0.001-0.198v-0.012l0.131,0.352    c-1.129-1.288-2.341-2.505-3.683-3.524l-0.487-0.37l0.41-0.459l7.813-8.741l7.899-8.663l0.414-0.454l0.403,0.423    c1.922,2.019,3.93,3.961,5.753,6.063c1.828,2.099,3.586,4.257,5.266,6.475c1.679,2.217,3.273,4.504,4.7,6.893    C124.991,122.291,126.305,124.752,127.327,127.332z"/>
		<path style="fill:#FF5555;" d="M111.573,105.103l-16.094,16.81c-1.207-1.396-2.464-2.64-3.747-3.621l15.716-17.401    C107.449,100.891,109.134,102.488,111.573,105.103z"/>
	</g>
	<g>
		<path style="fill:#FF5555;" d="M130.045,51.891c2.172,0.303,4.315,1.127,5.768,2.157c2.474,1.755,3.994,4.589,3.782,7.646    c-0.129,1.848-1.193,3.245-3.033,3.704c-1.142,0.285-2.347,0.175-3.502-0.049c-3.309-0.639-6.433-2.209-8.92-4.482    C118.784,55.973,124.531,51.122,130.045,51.891z"/>
		<path style="fill:#FF5555;" d="M131.61,31.764c0.012,0.031-0.02,0.005-0.015-0.012c0.066-0.012,0.027,0.025,0.042,0.036    l0.016,0.103l0.031,0.205l0.052,0.413l0.059,0.832c0.027,0.556,0.035,1.115,0.017,1.674c-0.055,1.115-0.19,2.235-0.436,3.322    c-0.436,2.195-1.164,4.32-2.041,6.366c-1.806,4.068-4.183,7.879-7.181,11.141c1.117-1.908,2.159-3.837,3.191-5.761    c1.011-1.935,1.985-3.884,2.839-5.88c0.87-1.989,1.623-4.022,2.226-6.102c0.319-1.038,0.573-2.089,0.769-3.158    c0.104-0.534,0.195-1.072,0.261-1.615l0.084-0.818l0.038-0.411l0.016-0.207l0.008-0.103c0.014-0.01-0.026-0.05,0.04-0.038    C131.63,31.769,131.599,31.795,131.61,31.764z"/>
		<path style="fill:#FF5555;" d="M131.052,37.584c-6.075,0.471-12.945,5.409-12.945,5.409s0.451-6.82,5.84-8.976    c3.4-1.362,6.125-1.979,7.664-2.254C131.699,33.714,131.483,35.673,131.052,37.584z"/>
	</g>
	<g>
		<path style="fill:#FF5555;" d="M408.339,42.538c-2.679,0.871-5.205,2.395-6.81,4.024c-2.735,2.776-4.021,6.702-3.065,10.521    c0.578,2.309,2.238,3.837,4.668,4.004c1.509,0.104,3.007-0.307,4.419-0.849c4.041-1.552,7.639-4.239,10.275-7.674    C423.5,45.17,415.141,40.327,408.339,42.538z"/>
		<path style="fill:#FF5555;" d="M419.209,45.762c-2.417-1.562-4.561-3.48-6.555-5.533c-2.002-2.052-3.793-4.307-5.407-6.694    c-1.57-2.413-2.967-4.972-3.949-7.704c-0.532-1.342-0.912-2.761-1.185-4.183c-0.118-0.717-0.224-1.433-0.273-2.155    c-0.024-0.361-0.04-0.721-0.048-1.081l0.009-0.541l0.01-0.269l0.005-0.135c0.013-0.017-0.025-0.059,0.028-0.053    c0.008,0.021-0.011,0.059-0.009,0.018l0.686,1.915c0.248,0.659,0.492,1.312,0.775,1.95c0.536,1.284,1.136,2.523,1.796,3.742    c1.291,2.441,2.703,4.809,4.248,7.106c1.51,2.321,3.154,4.563,4.805,6.821L419.209,45.762z"/>
		<path style="fill:#FF5555;" d="M403.851,24.67c7.79-0.771,17.589,3.932,17.589,3.932s-2.103-8.525-9.404-10.04    c-4.607-0.959-8.191-1.127-10.199-1.128C402.163,19.919,402.876,22.35,403.851,24.67z"/>
	</g>
</g>















</svg>
