<?xml version="1.0" encoding="UTF-8"?>
<!-- Generator: Adobe Illustrator 25.2.3, SVG Export Plug-In . SVG Version: 6.00 Build 0)  -->
<svg xmlns="http://www.w3.org/2000/svg" xmlns:xlink="http://www.w3.org/1999/xlink" version="1.1" id="Capa_1" x="0px" y="0px" viewBox="0 0 512 512" style="enable-background:new 0 0 512 512;" xml:space="preserve" width="512" height="512">
<g>
	<path style="fill:#9CF0E7;" d="M246.104,88.227c0,0,7.554-43.383,56.893-43.631c49.339-0.247,59.596,46.552,59.596,46.552   s4.333-13.731,15.309-13.597c10.975,0.134,15.463,21.269,15.463,21.269s12.18-12.801,39.106-6.39   c26.925,6.411,76.289,16.897,76.289,16.897H190.718L246.104,88.227z"/>
	<path style="fill:#9CF0E7;" d="M449.461,345.383c0,0-7.554-43.383-56.893-43.631c-49.339-0.247-59.596,46.552-59.596,46.552   s-4.333-13.731-15.309-13.597c-10.975,0.134-15.463,21.269-15.463,21.269s-12.181-12.801-39.106-6.39   c-26.926,6.411-76.289,16.897-76.289,16.897h318.041L449.461,345.383z"/>
	<path style="fill:#FFC893;" d="M464.945,452.039c0,17.924-100.448,32.467-224.346,32.467c-59.863,0-114.259-3.394-154.493-8.93   c5.547-1.445,9.015-3.51,9.015-5.794c0-4.362-12.596-7.897-28.117-7.897c-11.812,0-21.931,2.052-26.087,4.955   c-15.761-4.426-24.649-9.459-24.649-14.801c0-17.937,100.433-32.467,224.331-32.467   C364.497,419.573,464.945,434.103,464.945,452.039z"/>
	<g>
		<path style="fill:#FF9D3D;" d="M495.098,291.226l-0.056,0.102c-18.881,30.78-47.109,39.922-88.88,28.726    c-54.469-15.289-112.597-92.507-112.597-92.507c-2.177-12.392,1.69-35.873,13.569-51.866c0.062-0.079,0.102-0.152,0.163-0.231    c1.361-1.956,2.907-3.963,4.52-5.842c4.429-5.2,9.375-10.128,14.851-14.298c24.2-19.428,55.765-16.931,84.996-2.069    c0.145,0.079,0.298,0.144,0.444,0.223c0.495,0.232,0.996,0.487,1.49,0.755c15.57,8.084,30.898,18.416,44.125,28.539l0.014,0.008    c4.235,3.286,8.175,6.563,11.848,9.844c27.754,25.321,42.909,49.657,34.628,78.011c-0.415,1.265-0.84,2.486-1.278,3.729    C500.747,280.407,498.136,286.064,495.098,291.226z"/>
		<g>
			<path style="fill:#FFFFFF;" d="M435.109,276.113c-9.16,0.188-20.022-4.863-25.374-12.355c-1.142-1.601-2.035-3.35-2.62-5.25     c-2.498-8.272-0.289-18.479,4.382-25.67c0.095-0.174,0.204-0.34,0.314-0.507c4.847-7.17,13.284-11.009,21.867-10.344     c10.043,0.783,21.951,6.611,24.993,16.892c1.196,4.06,1.242,8.642,0.321,13.168l0.014,0.008     C456.59,264.128,447.38,275.85,435.109,276.113z"/>
			<path style="fill:#AE312F;" d="M435.11,276.113c-10.236-0.039-20.897-4.989-26.672-13.609c-5.366-9.327-3.166-21.351,2.097-30.29     l-0.045,0.076c14.586-23.669,56.862-8.447,49.036,19.867l-0.271-0.586c0.013,0.007,0.356,0.208,0.37,0.216     C457.079,263.484,447.972,275.765,435.11,276.113z M435.11,276.113c12.653-0.367,21.386-12.591,23.361-24.165l0.271,0.584     c-0.01-0.006-0.344-0.18-0.357-0.186c1.052-5.71,0.796-12.096-2.368-17.064c-7.878-11.445-26.069-15.968-37.692-7.814     c-8.398,6.06-12.344,17.31-11.384,27.453C408.378,268.071,422.849,276.008,435.11,276.113z"/>
		</g>
		<path style="fill:#AE312F;" d="M385.621,220.302c0,0-0.723-6.833-3.119-7.218c-2.396-0.385-1.337,9.936,0.34,11.923    c1.677,1.987,10.945-2.249,10.719-4.365C393.334,218.526,385.621,220.302,385.621,220.302z"/>
		<path style="fill:#AE312F;" d="M373.228,254.211c0.663-2.548,1.421-5.066,2.143-7.596l2.339-7.536    c0.775-2.515,1.659-4.993,2.52-7.481c0.89-2.484,1.747-4.96,2.836-7.42l1.073,0.795c-3.792,3.384-7.458,6.928-11.104,10.478    c-1.82,1.779-3.624,3.577-5.37,5.43c-1.777,1.825-3.482,3.716-5.138,5.662c1.413-2.131,3.027-4.122,4.645-6.104    c1.649-1.957,3.38-3.84,5.118-5.717c1.728-1.887,3.56-3.672,5.38-5.467c1.829-1.788,3.672-3.554,5.556-5.294l2.456-2.267    l-1.383,3.062c-1.056,2.339-1.98,4.815-2.896,7.266l-2.692,7.401l-2.699,7.406L373.228,254.211z"/>
		<path style="fill:#AE312F;" d="M421.254,264.81c5.521,4.147,13.47,5.508,19.815,2.453c10.108-4.867,14.467-18.696,8.753-28.293    c-3.068-5.153-8.943-9.105-14.939-9.746c-16.023-1.713-25.854,18.791-17.524,31.494    C418.385,262.283,419.717,263.656,421.254,264.81z"/>
		<g>
			<path style="fill:#FFFFFF;" d="M360.541,208.957c-6.685,4.286-15.617,2.432-22.025-1.36c-0.876-0.534-1.699-1.133-2.445-1.803     c-9.046-8.073-7.495-25.437,1.716-33.185c0.931-0.811,1.97-1.507,3.078-2.089c9.724-5.059,25.12-0.588,30.066,9.412     c1.18,2.432,1.234,5.304,0.949,7.936c-0.189,1.799-0.575,3.716-1.139,5.65C369.01,199.599,365.515,205.773,360.541,208.957z"/>
			<path style="fill:#AE312F;" d="M360.541,208.957c-6.068,3.879-13.937,2.821-20.21-0.047     c-12.856-5.367-14.153-23.413-6.673-33.784c5.208-7.699,15.765-9.606,24.045-6.763c6.697,2.184,13.692,7.332,14.728,14.728     C372.764,192.717,368.518,203.304,360.541,208.957z M360.541,208.957c6.964-4.799,10.322-13.482,10.959-21.64     c1.143-11.673-12.322-18.116-22.361-17.551c-5.306,0.164-10.235,2.664-13.365,6.922c-7.084,9.386-6.891,26.038,4.822,31.683     C346.628,211.605,354.492,212.76,360.541,208.957z"/>
		</g>
		<path style="fill:#AE312F;" d="M337.619,195.433c0.216,0.588,1.358,7.602,11.454,9.909c10.096,2.307,15.524-9.282,16.304-13.647    c0.781-4.364,0.577-14.409-10.75-17.387C343.299,171.329,333.91,185.309,337.619,195.433z"/>
		<path style="fill:#FF9D3D;" d="M414.414,156.076c-0.592,0.016-10.184,0.27-19.352-0.977c-3.129-0.443-6.208-1.047-8.864-1.91    c-4.309-1.387-7.508-3.431-7.957-6.444c-0.191-1.309-0.129-2.839,0.152-4.531c0.021-0.177,0.05-0.368,0.085-0.537    c1.549-8.477,8.134-20.217,14.033-25.308c1.641-1.422,3.219-2.314,4.616-2.494c0.55-0.077,1.052-0.029,1.55,0.129    c7.856,2.585,11.602,9.88,12.415,17.478c0.563,5.222-0.174,10.827,0.909,15.993c0.09,0.388,0.77,3.771,1.432,6.184l0.165,0.561    C413.895,155.266,414.201,156.016,414.414,156.076z"/>
		<path style="fill:#FF9D3D;" d="M506.496,253.298c-0.595-0.532-39.372-35.742-31.268-49.234c0.778-1.29,1.672-2.516,2.652-3.658    c9.31-10.971,26.729-15.397,31.607-12.288l0.014,0.008c5.377,3.438,0.686,16.681-1.191,27.936    C506.447,227.154,506.509,252.514,506.496,253.298z"/>
		<path style="fill:#AE312F;" d="M491.723,211.94c0,0-3.256,0.485-6.794-3.909c-3.722-4.608-6.892-7.465-7.05-7.626    c9.31-10.971,26.729-15.397,31.607-12.288l0.014,0.008c-0.855,3.263-1.902,7.155-8.092,13.367    c-0.613,0.607-1.161,1.232-1.671,1.857C493.057,207.523,491.723,211.94,491.723,211.94z"/>
		<path style="fill:#AE312F;" d="M392.301,139.01c0,0-0.743,6.308-7.923,4.279c-2.197-0.632-4.279-1.201-5.9-1.614    c1.549-8.477,8.134-20.217,14.033-25.308c1.641-1.422,3.219-2.314,4.616-2.494c0,0,1.866,2.693,0.242,9.961    c-0.597,2.65-1.225,5.151-1.635,7.564C394.77,137.107,392.301,139.01,392.301,139.01z"/>
		<path style="opacity:0.48;fill:#EB4949;" d="M409.818,269.904c-4.489,0.154-7.779,4.261-5.625,8.763    c2.884,6.029,12.266,11.252,18.932,10.189c5.628-0.897,7.128-8.113,3.878-11.647c-2.746-2.988-6.445-4.929-10.259-6.092    C414.971,270.577,412.334,269.818,409.818,269.904z"/>
		<path style="opacity:0.48;fill:#EB4949;" d="M337.885,212.064c1.315,4.295-1.498,8.742-6.456,8.171    c-6.639-0.766-14.631-7.938-15.795-14.587c-0.983-5.613,5.352-9.38,9.752-7.457c3.719,1.625,6.758,4.491,9.099,7.718    C335.573,207.41,337.148,209.657,337.885,212.064z"/>
		<path style="fill:#AE312F;" d="M452.375,178.715c-8.783,1.26-17.837,6.024-24.834,9.5c-3.841,1.9-7.585,4.002-11.245,6.227    c-2.752,1.664-6.444,2.703-9.545,1.24c-3.894-1.839-5.597-6.213-5.49-10.316c0.121-5.131,2.881-9.54,6.209-13.263    c4.714-5.265,10.976-9.122,17.725-11.452c0.297,0.18,0.608,0.369,0.92,0.558C435.738,167.052,444.493,172.895,452.375,178.715z"/>
		<path style="fill:#AE312F;" d="M320.621,180.581c-4.233-1.873-7.375-5.75-9.661-9.952c0.278-0.338,0.557-0.676,0.857-1.021    c0.271-0.323,0.549-0.661,0.841-0.992c2.582-2.943,5.325-5.799,8.261-8.492C323.949,171.604,328.564,184.079,320.621,180.581z"/>
		<path style="fill:#AE312F;" d="M312.728,189.574c-3.495-0.153-7.476-2.453-10.927-5.106c0.476-0.908,0.974-1.823,1.495-2.744    c1.151-2.009,2.421-4.029,3.839-6.043c0.062-0.079,0.102-0.152,0.163-0.231C313.417,182.399,318.889,189.843,312.728,189.574z"/>
		<path style="fill:#AE312F;" d="M330.987,162.728c-1.923-1.688-3.314-4.423-4.319-7.418c0.115-0.107,0.244-0.206,0.373-0.305    c2.714-2.043,5.577-3.947,8.604-5.632C335.992,158.243,335.445,166.644,330.987,162.728z"/>
		<path style="fill:#AE312F;" d="M469.586,192.61c-2.485,0.586-5.268,1.236-7.306,1.763c-6.452,1.682-14.164,4.881-17.441,3.604    c-6.855-2.661-5.379-10.105,2.479-13.469c3.584-1.531,7.354-1.85,10.406-1.75l0.014,0.008    C461.973,186.053,465.913,189.329,469.586,192.61z"/>
		<path style="fill:#AE312F;" d="M422,158.777c-5.75,1.914-13.543,6.367-17.399,5.322c-5.805-1.581-7.023-7.743-3.219-9.023    c3.692-1.246,7.319-1.718,10.283-1.835C415.018,154.898,418.46,156.736,422,158.777z"/>
		<path style="opacity:0.21;fill:#AE312F;" d="M458.991,252.047c-19.594-26.906-44.404-20.18-47.494-19.209    c0.095-0.174,0.204-0.34,0.314-0.507c4.847-7.17,13.284-11.009,21.867-10.344c10.043,0.783,21.951,6.611,24.993,16.892    C459.867,242.94,459.913,247.522,458.991,252.047z"/>
		<path style="opacity:0.21;fill:#AE312F;" d="M370.741,193.518c-7.715-13.317-24.103-18.836-32.954-20.909    c0.931-0.811,1.97-1.507,3.078-2.089c9.724-5.059,25.12-0.588,30.066,9.412c1.18,2.432,1.234,5.304,0.949,7.936    C371.691,189.667,371.305,191.585,370.741,193.518z"/>
		<path style="fill:#AE312F;" d="M504.65,269.164c-32.344,0.23-31.056-20.591-19.555-17.715c7.709,1.921,15.93,1.73,21.382,1.537    C506.801,258.51,506.197,263.905,504.65,269.164z"/>
		<path style="fill:#AE312F;" d="M495.098,291.226l-0.056,0.102c-0.319,0.447-0.601,0.896-0.898,1.337    c-10.904-1.553-22.921-5.764-29.406-14.288c-2.447-3.216-3.443-7.92-0.503-10.517c1.183-1.031,2.859-1.55,4.586-1.644    c5.116-0.301,10.535,2.162,15.333,4.173c5.462,2.279,12.813,3.441,18.781,3.962C500.747,280.407,498.136,286.064,495.098,291.226z    "/>
		<path style="fill:#AE312F;" d="M489.996,298.743c-4.246,5.652-9.168,10.656-14.797,14.595c-6.731-2.368-12.576-7.435-16.159-13.51    c-1.591-2.712-2.44-6.131-0.217-8.761c2.934-3.486,8.398-1.036,11.538,0.769C478.876,296.737,486.034,298.204,489.996,298.743z"/>
		<path style="fill:#AE312F;" d="M294.183,201.424c4.579,0.749,9.043,1.897,13.479,3.142c4.425,1.285,8.822,2.67,13.104,4.456    c-4.579-0.746-9.043-1.894-13.479-3.141C302.862,204.593,298.466,203.208,294.183,201.424z"/>
		<path style="fill:#AE312F;" d="M297.663,190.469c4.128,1.745,8.05,3.85,11.922,6.043c3.851,2.229,7.65,4.548,11.242,7.229    c-4.13-1.742-8.052-3.848-11.922-6.043C305.056,195.467,301.257,193.147,297.663,190.469z"/>
		<path style="fill:#AE312F;" d="M307.363,180c2.94,3.383,5.537,6.998,8.05,10.67c2.479,3.695,4.871,7.449,6.918,11.436    c-2.943-3.381-5.54-6.996-8.05-10.67C311.805,187.739,309.412,183.986,307.363,180z"/>
		<path style="fill:#FFFFFF;" d="M490.203,206.611c0,0-2.714-1.723-3.113-2.788c-0.414-1.072,3.983,1.191,3.983,1.191    c-1.657-2.108-2.045-5.614-1.28-5.254c0.787,0.353,2.285,3.617,2.285,3.617c-0.532-5.28,4.506-10.068,7.219-8.1    c1.162,0.84,1.001,4.349,0.441,8.073c-7.614,9.241-5.551,20.213-4.94,21.788c-2.331-6.712-6.33-12.713-9.868-17.107    C486.795,206.335,490.203,206.611,490.203,206.611z"/>
		<path style="fill:#FFFFFF;" d="M384.378,143.29c1.68-2.116,5.898-4.017,6.266-4.174c-0.228-0.03-2.699-0.265-3.343-1.294    c-0.672-1.082,3.387-0.584,3.387-0.584s-2.681-1.197-2.465-2.077c0.194-0.874,2.697,0.753,2.697,0.753    c-1.235-2.123-1.845-8.952,1.169-9.023c1.962-0.042,3.089,2.625,3.645,4.509c-0.963,5.708-0.658,10.921,4.491,16.607    C400.225,148.006,391.558,145.319,384.378,143.29z"/>
		<path style="opacity:0.48;fill:#AE312F;" d="M373.157,219.652c-4.011-1.457-8.758-1.475-12.941,0.587    c-6.065,2.989-10.594,8.743-9.761,15.58c0.517,4.243,2.786,7.844,5.452,10.868c5.11,5.794,10.595,11.189,18.142,13.57    c2.737,0.864,5.674,1.349,8.652,0.901c4.562-0.686,9.018-3.672,11.681-7.828c2.663-4.155,3.471-9.382,2.117-13.703    c-1.665-5.315-6.428-9.758-10.862-12.57C381.688,224.553,377.567,221.255,373.157,219.652z"/>
		<path style="fill:#AE312F;" d="M437.683,286.124c3.821,2.631,7.368,5.574,10.849,8.593c3.454,3.05,6.839,6.179,9.949,9.622    c-3.823-2.629-7.371-5.572-10.85-8.594C444.18,292.693,440.795,289.564,437.683,286.124z"/>
		<path style="fill:#AE312F;" d="M465.8,295.474c-4.199-1.566-8.208-3.501-12.17-5.526c-3.943-2.061-7.839-4.215-11.542-6.74    c4.201,1.564,8.209,3.499,12.17,5.526C458.199,290.798,462.095,292.952,465.8,295.474z"/>
		<path style="fill:#AE312F;" d="M469.336,281.648c-4.461,0.44-8.911,0.465-13.36,0.389c-4.448-0.117-8.894-0.339-13.33-0.978    c4.461-0.443,8.911-0.468,13.361-0.389C460.454,280.79,464.9,281.012,469.336,281.648z"/>
	</g>
	<g>
		<path style="fill:#FF9D3D;" d="M168.904,247.764c0,0,3.789-45.816-51.241-52.073c6.044-16.856,9.574-37.543-2.189-52.679    c-1.197-1.541-2.543-3.018-4.244-3.974c-1.953-1.098-5.421-1.636-7.47-0.325c-3.454,2.211-0.681,6.869-0.425,9.874    c0.264,3.098,0.343,6.21,0.276,9.318c-0.131,6.062-0.877,12.061-1.871,18.036c-3.59,21.585-34.148,62.51-30.834,74.364    c3.315,11.854,18.932,9.545,18.932,9.545s-48.049,52.703,9.999,97.555C157.884,402.257,168.904,247.764,168.904,247.764z"/>
		<path style="opacity:0.2;fill:#AE312F;" d="M168.904,247.764c0,0,3.789-45.816-51.241-52.073    c6.044-16.856,9.574-37.543-2.189-52.679c-1.197-1.541-2.543-3.018-4.244-3.974c-1.953-1.098-5.421-1.636-7.47-0.325    c-3.454,2.211-0.681,6.869-0.425,9.874c0.264,3.098,0.343,6.21,0.276,9.318c-0.131,6.062-0.877,12.061-1.871,18.036    c-3.59,21.585-34.148,62.51-30.834,74.364c3.315,11.854,18.932,9.545,18.932,9.545s-48.049,52.703,9.999,97.555    C157.884,402.257,168.904,247.764,168.904,247.764z"/>
	</g>
	<path style="fill:#FF9D3D;" d="M433.256,322.229c-13.003,43.049-50.237,102.449-99.04,124.681   c-28.095,14.343-62.128,16.586-94.424,12.42c-58.189-5.978-114.996-32.49-134.33-91.57c-3.885-11.502-6.21-23.542-6.724-35.671   c-0.76-17.709,9.273-32.494,16.489-48.88c14.601-33.182,36.654-51.364,71.65-59.916c11.619-2.841,23.841-12.284,35.783-12.678   c18.159-0.591,35.109,0.689,50.807,3.348c94.805,15.908,127.79,90.374,127.79,90.374L433.256,322.229z"/>
	<path style="fill:#FF9D3D;" d="M110.062,296.241l-2.999,12.765c-4.884,0.737-13.365,6.632-23.029,12.971   c-4.626,3.05-9.527,6.186-14.428,8.91c-6.82,3.804-13.691,6.802-19.86,7.625c-19.842,2.622-46.059-13.468-49.434-42.272   c-0.668-5.74-0.223-11.086,0.943-16.124c1.336-5.792,3.615-11.172,6.271-16.278c6.648-12.783,15.559-23.749,17.495-34.681   c0.514-2.93,0.497-5.928,0.086-8.927c-2.159-16.569-15.524-33.156-9.819-37.851c6.357-5.243,15.936-0.805,21.265,3.735   c2.759,2.348,4.935,4.849,6.58,7.437c14.393,22.293-8.516,52.313-18.18,73.218c-5.329,11.515-8.704,25.154-1.611,36.755   c0.48,0.788,1.011,1.559,1.559,2.313c3.084,4.095,7.283,7.454,11.977,9.733c4.609,2.227,9.699,3.41,14.719,3.153   c14.616-0.737,26.49-12.2,39.702-17.238c4.369-1.662,8.842-2.964,13.416-3.924C105.316,297.423,109.873,297.046,110.062,296.241z"/>
	<path style="fill:#FFC893;" d="M214.037,317.78c-105.14,18.78-101.153,45.124-101.153,45.124s-4.878-1.533-10.944-7.53   c-1.799-7.642-2.862-15.456-3.204-23.286c-0.754-17.7,2.245-35.487,9.458-51.868c14.599-33.19,43.969-56.408,78.958-64.958   c11.617-2.844,23.561-4.25,35.504-4.644c18.163-0.6,35.109,0.686,50.805,3.341l39.305,31.209   C312.765,245.168,319.177,299.017,214.037,317.78z"/>
	<path style="opacity:0.48;fill:#AE312F;" d="M293.363,213.109c-0.063,2.422-0.123,4.838-0.066,7.247   c0.013,1.203,0.058,2.404,0.155,3.593c0.104,1.177,0.259,2.39,0.638,3.399l0.102,0.273l-0.179,0.264   c-0.571,0.838-1.12,1.748-1.507,2.671c-0.393,0.886-0.598,1.998-0.201,2.366c0.183,0.18,0.295,0.222,0.685,0.054   c0.356-0.175,0.731-0.498,1.076-0.843c0.692-0.704,1.312-1.57,1.861-2.413l1.533-2.353l-0.277,2.781   c-0.11,1.105-0.157,2.257-0.127,3.376c0.034,1.118,0.128,2.251,0.437,3.244c0.146,0.495,0.379,0.952,0.674,1.182   c0.331,0.258,0.659,0.364,0.916,0.182c0.647-0.413,1.099-1.636,1.325-2.643l0.322-1.438l0.587,1.312   c0.779,1.742,1.714,3.442,2.685,5.104c0.979,1.663,2.083,3.251,3.381,4.701c-1.491-1.259-2.727-2.798-3.88-4.374   c-1.14-1.596-2.134-3.273-3.056-5.02l0.91-0.125c-0.102,0.622-0.249,1.197-0.472,1.789c-0.24,0.575-0.519,1.195-1.183,1.671   c-0.334,0.223-0.816,0.351-1.228,0.265c-0.215-0.028-0.408-0.087-0.569-0.176c-0.176-0.073-0.341-0.164-0.486-0.298   c-0.623-0.489-0.912-1.135-1.119-1.728c-0.419-1.211-0.525-2.415-0.57-3.605c-0.041-1.195-0.007-2.363,0.101-3.564l1.256,0.427   c-0.602,0.96-1.259,1.83-2.07,2.653c-0.417,0.401-0.854,0.8-1.464,1.097c-0.17,0.063-0.334,0.13-0.513,0.178   c-0.204,0.02-0.402,0.064-0.616,0.033c-0.449-0.056-0.848-0.294-1.105-0.6c-0.551-0.625-0.57-1.439-0.48-2.037   c0.099-0.622,0.311-1.163,0.538-1.688c0.482-1.035,1.054-1.964,1.742-2.857l-0.077,0.536c-0.398-1.288-0.457-2.513-0.504-3.743   c-0.03-1.226-0.006-2.444,0.049-3.659C292.746,217.917,292.975,215.503,293.363,213.109z"/>
	<path style="fill:#AE312F;" d="M103.508,151.114c1.082,0.078,2.119,0.386,3.11,0.793c0.996,0.403,1.931,0.949,2.813,1.577   c0.861,0.658,1.657,1.419,2.305,2.3c0.641,0.885,1.117,1.903,1.306,2.964c-0.71-0.824-1.375-1.57-2.108-2.26   c-0.751-0.668-1.506-1.315-2.318-1.907C107,153.38,105.281,152.323,103.508,151.114z"/>
	<path style="fill:#AE312F;" d="M35.439,194.065c6.237,17.289-3.564,23.801-10.332,26.165c-2.159-16.569-15.524-33.156-9.819-37.851   c6.357-5.243,15.936-0.805,21.265,3.735c2.759,2.348,4.935,4.849,6.58,7.437C39.466,194.442,35.439,194.065,35.439,194.065z"/>
	<path style="fill:#AE312F;" d="M1.255,280.117c1.336-5.792,3.615-11.172,6.271-16.278c4.13-0.274,8.036,0.48,8.756,4.13   C17.31,273.229,8.023,277.632,1.255,280.117z"/>
	<path style="fill:#AE312F;" d="M36.878,315.569c-2.176,3.547-6.083,7.762-10.984,4.301c-4.489-3.153-3.015-9.373-0.994-14.034   C27.985,309.932,32.183,313.29,36.878,315.569z"/>
	<path style="fill:#AE312F;" d="M84.034,321.978c-4.626,3.05-9.527,6.186-14.428,8.91c-0.154-3.838,0.856-8.482,5.792-11.309   C79.339,317.334,82.115,319.099,84.034,321.978z"/>
	<path style="opacity:0.48;fill:#AE312F;" d="M391.916,313.847c4.608,0.937,9.236,1.953,13.913,2.379   c-1.017,0.748-3.02,1.814-3.143,3.123c0.397,0.886,1.731,0.149,2.474-0.097c2.92-1.28,5.673-3.32,7.981-5.488   c-0.367,1.752-2,5.82-0.433,7.087c1.644,0.486,3.753-1.32,5.066-2.334c3.963,2.542,8.584,4.288,13.304,4.756   c-4.745,0.115-9.401-1.356-13.551-3.654l0.643-0.055c-5.018,4.694-8.89,2.989-6.936-3.968l1.121,0.686   c-2.265,1.738-7.149,5.579-10.039,4.429c-2.095-1.576,0.418-3.764,1.854-4.554l0.197,0.915   C400.112,316.371,395.99,315.21,391.916,313.847z"/>
	<g>
		<path style="fill:#FF5555;" d="M350.356,113.866c0,28.752-12.097,54.797-31.683,73.749c-19.894,19.243-47.533,23.86-78.067,23.86    c-24.863,0-47.79-0.591-66.193-13.921c-16.158-11.686-28.82-27.553-36.223-45.922c-4.746-11.72-2.468-23.501-2.468-36.814    c0-14.65,3.959-42.212,3.959-42.212C156.44,35.182,195.319,8.966,240.607,8.966c8.636,0,17.032,0.96,25.102,2.759l48.3,40.174    c0,0,33.217,28.114,35.73,50.779C350.15,106.343,350.356,110.079,350.356,113.866z"/>
		<path style="fill:#6CE1C1;" d="M349.739,102.677c-25.24,18.728-73.595,43.197-156.339,46.539    c-0.068,0.017-0.154,0.017-0.223,0.017l-6.991-11.241l-2.725-4.387c0,0,0.669-3.735,2.279-9.938    c0.291-1.165,0.634-2.416,0.994-3.735c7.437-26.885,28.992-85.898,78.975-108.207C310.517,21.748,344.787,58.023,349.739,102.677z    "/>
		<path style="fill:#6CE1C1;" d="M318.673,187.615c-19.894,19.243-47.532,31.169-78.067,31.169c-24.863,0-47.79-7.899-66.193-21.23    c-1.867-12.115-2.227-25.617-0.257-40.473c0.634-4.849,1.285-9.099,1.919-12.783h0.017c3.41-19.74,6.768-23.698,9.647-20.63    c1.679,1.782,3.204,5.911,4.507,10.692c1.319,4.901,2.399,10.469,3.153,14.856c0.788,4.558,1.216,7.865,1.216,7.865    S228.132,220.788,318.673,187.615z"/>
		<path style="fill:#6CE1C1;" d="M190.247,134.359c-1.045,1.131-2.382,2.347-4.061,3.633c-2.536,1.919-5.843,4.027-10.093,6.289    c0,0.017-0.017,0.017-0.017,0.017c-16.055,8.602-28.838,9.167-37.885,7.334c-4.746-11.72-7.334-24.452-7.334-37.765    c0-14.65,3.136-28.598,8.825-41.261c15.13,28.118,40.936,46.11,40.936,46.11h2.844c0,0,1.456,0.394,3.273,1.217    C191.121,121.937,197.529,126.494,190.247,134.359z"/>
		
			<ellipse transform="matrix(0.9116 -0.4111 0.4111 0.9116 -38.8634 89.1945)" style="fill:#FFFFFF;" cx="187.936" cy="134.95" rx="27.998" ry="36.476"/>
	</g>
	<g>
		<path style="fill:#FF9D3D;" d="M355.583,307.108l-60.357,15.023l-0.436,0.113c-5.345-6.147-8.426-14.207-9.368-16.936    c-0.211-0.619-0.323-0.971-0.323-0.971s-0.253,2.912-2.462,3.122c-0.014,0-0.014,0-0.028,0c-0.507,0.056-1.112-0.042-1.857-0.352    c-3.966-1.66-6.344-6.639-11.492-30.354c-2.138-9.874-3.376-24.644-3.826-38.935c-0.211-6.949-0.239-13.757-0.085-19.847    c0.295-11.478,1.224-20.354,2.729-22.506c2.855-4.065,5.711-4.515,7.075-4.445c0.535,0.014,0.844,0.126,0.844,0.126    s0.014-0.028,0.028-0.098c0.478-1.322,5.725-15.388,12.069-14.98h0.014c0.056,0,0.112,0.014,0.169,0.014    c6.723,0.731,8.707,7.3,8.707,7.3s0.07,0.042,0.211,0.155c1.28,0.942,8.06,6.526,7.638,18.525    c-0.253,7.132,11.872,33.098,23.096,55.505c2.433,4.853,4.825,9.551,7.033,13.841c6.372,12.364,11.281,21.465,11.492,21.873    c-0.014-0.113-0.169-0.675-0.225-1.407c-0.014,0-0.014-0.014-0.014-0.014c-0.155-1.632,0.099-4.065,2.912-4.065    c0.056,0,0.112,0,0.169,0.014c0.014,0,0.014,0,0.028,0C353.445,288.4,355.583,307.108,355.583,307.108z"/>
		<path style="fill:#AE312F;" d="M276.522,191.141c1.021,1.264,1.798,2.704,2.442,4.189c0.655,1.485,1.138,3.043,1.493,4.629    c0.339,1.589,0.564,3.208,0.574,4.834c0.055,1.622-0.131,3.251-0.49,4.825c-0.209-1.612-0.324-3.182-0.573-4.739    c-0.222-1.557-0.495-3.099-0.845-4.625C278.468,197.187,277.556,194.194,276.522,191.141z"/>
		<path style="fill:#AE312F;" d="M296.715,181.606c1.568,3.822,2.364,7.915,2.692,12.034c0.121,2.065,0.109,4.145-0.112,6.209    c-0.239,2.062-0.729,4.102-1.51,6.009c0.266-2.049,0.386-4.062,0.444-6.078c0-2.02-0.045-4.032-0.186-6.047    c-0.134-2.015-0.346-4.027-0.57-6.046C297.226,185.672,296.993,183.647,296.715,181.606z"/>
		<path style="opacity:0.48;fill:#AE312F;" d="M295.31,322.243l-0.085-0.112v0c-4.425-5.165-7.562-11.326-9.762-17.743l0.348-0.034    c-0.27,2.439-1.983,4.095-4.505,3.016c-7.135-2.487-10.227-24.641-12.238-31.917c-2.579-13.545-3.485-27.04-3.727-40.763    c-0.044-9.622-0.39-23.309,0.945-32.772c0.311-2.076,0.566-4.174,1.397-6.157c1.818-3.162,5.105-6.064,9.036-5.265l-0.843,0.425    c2.219-5.345,6.395-16.264,13.531-15.41c3.392,0.463,6.318,2.855,7.868,5.792l-0.106-0.142c0.115,0.111,0.2,0.316,0.199,0.475    l-0.077-0.301c0.326,0.612,0.595,1.186,0.819,1.861l-0.259-0.344c5.379,4.076,7.874,10.649,8.095,17.136    c-0.227,3.784,0.849,7.381,2.081,10.952c10.57,28.324,25.295,55.375,38.948,82.341c-14.208-26.764-29.277-53.605-40.054-81.962    c-1.251-3.579-2.403-7.407-2.18-11.29c-0.192-6.121-2.729-12.608-7.775-16.256c-0.191-0.615-0.481-1.252-0.795-1.831l-0.077-0.302    c-0.011,0.14,0.066,0.327,0.171,0.419l-0.106-0.143c-1.16-2.122-2.983-3.885-5.228-4.683c-7.311-3.024-11.854,9.503-13.978,14.698    c-3.243-1.051-6.536,1.669-8.065,4.387c-0.75,1.801-1.011,3.823-1.306,5.773c-1.349,9.286-1.063,23.06-1.039,32.572    c0.275,16.329,1.275,32.637,5.129,48.595c1.21,5.307,2.449,10.625,4.215,15.751c0.924,2.51,1.918,5.158,3.914,6.911    c2.855,2.35,5.576,1.564,5.761-2.411c2.075,6.694,5.178,13.192,9.666,18.619l0,0.001L295.31,322.243z"/>
		<path style="opacity:0.48;fill:#AE312F;" d="M346.989,293.295l-0.016-0.012l-0.001-0.001c-0.957-2.154-0.718-5.774,2.281-5.994    c0.017-0.001,0.054-0.002,0.07-0.003l-0.074,0.005c5.529-0.271,6.808,15.673,6.854,19.819c-1.159-3.419-3.171-18.619-6.766-18.772    c-0.008-0.001-0.033-0.002-0.041-0.002l0.042-0.002c-2.509,0.047-2.609,3.002-2.361,4.949l0-0.001L346.989,293.295z"/>
	</g>
	<g>
		<path style="fill:#FF9D3D;" d="M212.23,411.234c0,0,46.228-35.9,44.868-85.932c-1.36-50.032-52.12-87.687-52.12-87.687    s28.552-50.208,28.552-66.328c0-16.12-6.798-22.812-12.238-21.279c-5.75,1.626-9.419,21.139-10.986,25.807    c-4.9,14.6-10.959,29.599-22.648,40.124c-11.468,10.327-26.113,16.347-37.467,26.831c-9.807,9.056-2.014,21.168,7.651,26.787    c0,0-72.061,24.294-56.652,88.65"/>
		<path style="fill:#AE312F;" d="M214.034,162.405c1.337,0.23,2.602,0.794,3.758,1.523c1.162,0.729,2.19,1.684,3.043,2.786    c0.849,1.104,1.473,2.397,1.777,3.752c0.367,1.343,0.294,2.759,0.035,4.069c-0.311-1.324-0.535-2.585-1.053-3.748    c-0.474-1.165-1.069-2.27-1.849-3.248C218.239,165.533,216.251,163.909,214.034,162.405z"/>
		<path style="opacity:0.48;fill:#AE312F;" d="M100.396,358.21c-10.925-42.457,18.847-74.797,56.513-89.045l-0.075,0.741    c-6.683-3.981-13.323-11.161-12.24-19.532c1.517-10.202,21.65-19.789,29.709-25.656c8.888-5.684,17.076-12.594,22.561-21.716    c5.589-8.93,9.354-18.957,12.533-28.973c2.415-7.346,5.809-32.465,17.812-22.7c5.411,5.422,6.242,13.689,6.136,20.991    c-0.819,8.053-4.138,15.524-7.159,22.911c-6.339,14.631-13.748,28.758-21.53,42.665l-0.151-0.717    c26.191,21.244,49.614,50.87,52.066,85.63c1.866,34.869-19.279,66.807-45.137,88.432c25.559-21.762,46.255-53.731,44.361-88.385    c-2.561-34.618-26.124-64.092-52.335-85.085c7.798-14.018,15.235-28.289,21.568-43.033c3.899-9.609,8.539-19.717,6.531-30.287    c-0.685-4.4-1.982-8.981-5.244-12.135c-6.223-5.23-9.332,1.49-11.301,6.82c-1.834,4.929-3.063,10.075-4.438,15.217    c-3.258,10.154-7.053,20.172-12.764,29.249c-5.561,9.201-13.963,16.275-22.949,21.97c-8.864,5.81-18.294,10.939-25.855,18.271    c-3.845,3.646-4.679,9.449-2.359,14.165c2.29,4.992,6.57,8.927,11.338,11.633C120.173,283.603,89.838,315.529,100.396,358.21z"/>
	</g>
	<path style="opacity:0.48;fill:#AE312F;" d="M312.039,335.859c-18.451,0.238-10.409,6.383,1.808,8.142   c-12.638,5.533-12.623,10.751,1.78,11.405c-2.545,2.975-5.087,6.328-6.107,10.093c-1.091,3.478,0.958,6.936,4.882,6.176   c7.007-1.195,13.357-5.375,19.363-9.081c-5.88,4.111-14.634,10.853-22.134,10.017c-7.603-3.07-1.374-12.929,2.127-17.057   l0.481,1.113c-13.376-0.646-14.859-7.6-2.424-12.945l0.12,1.068C298.022,342.016,295.225,334.698,312.039,335.859z"/>
	<path style="opacity:0.48;fill:#AE312F;" d="M195.236,287.601c-11.866-11.166-17.368-6.861-4.328,4.277   c-3.865,0.059-9.039,0.295-11.411,3.724c-0.405,0.666-0.336,1.266,0.204,1.885c2.511,2.4,6.494,2.962,9.793,3.743   c-2.7,0.749-5.54,1.686-7.901,3.226c-2.547,1.56-4.769,4.451-3.637,7.48c1.332,3.097,5.531,2.49,8.298,1.911   c-4.203,1.636-10.401,0.969-9.217-5.009c1.17-4.527,5.836-6.716,9.879-8.101l0.049,1.175c-14.666-2.68-9.598-11.216,2.379-11.226   l-0.413,1.071c-2.114-2.019-9.762-9.191-4.945-11.473C188.194,279.894,192.438,284.912,195.236,287.601z"/>
	<path style="fill:#FFC893;" d="M138.115,242.798c0,0,1.551-8.337-1.939-8.531c-3.49-0.194-2.562,9.867-2.562,9.867   s-5-8.122-6.551-5.989c-1.551,2.133,4.4,8.083,4.4,8.083s-11.35,1.525-11.656,7.816c-0.305,6.29,9.325,14.347,9.325,14.347   L138.115,242.798z"/>
	<path style="opacity:0.48;fill:#AE312F;" d="M282.379,241.983c-1.078,2.585-4.33,8.624-1.774,10.812   c3.414,1.666,5.4-1.523,6.926-4.068c-0.461,3.735-1.1,8.132,0.647,11.587c0.467,0.723,1.116,1.664,2.026,1.498   c2.471-1.272,3.659-4.942,5.02-7.267c-0.357,2.931-0.937,6.372-0.27,9.276c0.345,1.867,1.249,3.742,3.006,4.395   c1.623,0.56,4.066,0.533,5.064-1.116c0.949-1.719,0.519-3.943-0.008-5.773c2.193,4.676,0.415,9.246-5.351,7.709   c-4.336-1.672-4.445-7.289-4.1-11.215l1.183,0.356c-5.846,11.713-10.259,0.29-8.687-7.087l1.086,0.383   c-1.418,2.357-4.535,3.57-6.993,2.064C276.93,250.905,280.839,244.746,282.379,241.983z"/>
	<path style="fill:#AE312F;" d="M268.289,461.215c4.656-9.846,6.526-21.057,5.303-31.845c-1.266-11.253-5.753-21.943-7.301-33.154   c-0.436-3.095-0.633-6.203-0.619-9.312c0.042-4.867,1.336-10.676,5.922-12.294c4.558-1.603,9.171,2.054,12.449,5.612   c18.567,20.129,30.383,46.39,33.196,73.622C302.61,458.726,286.336,461.469,268.289,461.215z"/>
	<path style="fill:#AE312F;" d="M335.933,440.552c1.575-9.523,1.238-19.369-1.027-28.751c-1.069-4.431-2.588-8.848-2.63-13.419   c-0.028-2.701,0.858-5.894,3.404-6.794c3.066-1.097,6.006,1.815,7.919,4.445c7.525,10.311,14.193,21.876,17.752,34.029   c-8.2,6.4-17.009,12.328-27.134,16.848C334.836,444.716,335.595,442.536,335.933,440.552z"/>
	<path style="fill:#AE312F;" d="M417.389,360.024c-5.134,9.903-11.646,20.658-19.706,31.644c-0.084-1.59-0.197-2.78-0.422-3.947   c-1.505-7.652-4.74-14.305-8.566-20.663c-5.247-8.707-11.576-16.837-16.049-26.135c-2.026-4.192-5.641-14.418,1.379-15.909   c6.541-1.378,13.981,5.12,18.919,8.651c5.936,4.234,11.323,9.227,16.035,14.798C411.988,352.021,414.843,355.903,417.389,360.024z"/>
	<path style="fill:#AE312F;" d="M335.342,271.127c-0.126,0.084-0.253,0.183-0.38,0.281c-5.359,3.939-11.9,6.527-18.525,6.147   c-1.716-0.099-3.77-0.675-4.234-2.321c-0.366-1.28,0.408-2.574,1.182-3.643c4.065-5.584,9.691-9.283,14.544-14.024   c0.113-0.112,0.239-0.225,0.352-0.352C330.714,262.097,333.12,266.809,335.342,271.127z"/>
	<path style="fill:#AE312F;" d="M294.382,223.19c-0.028,1.927-1.632,3.418-3.165,4.572c-7.328,5.514-16.162,8.988-25.262,10.015   c-0.169,0.014-0.352,0.042-0.52,0.042c-0.211-6.949-0.239-13.757-0.085-19.847c0.169,0.042,0.338,0.07,0.521,0.113   c1.35,0.309,2.701,0.605,4.065,0.788c4.825,0.661,9.72,0.717,14.559,0.155c2.025-0.239,4.107-0.577,6.091-0.07   C292.567,219.476,294.424,221.15,294.382,223.19z"/>
	<path style="fill:#AE312F;" d="M388.486,403.386c-5.08,6.365-10.566,12.086-16.656,17.685c-0.324-1.168-0.478-2.391-0.633-3.587   c-1.041-8.271-2.658-16.64-3.052-24.967c-0.056-1.168-0.07-2.377,0.38-3.46c1.815-4.304,7.961-1.322,10.325,0.689   c1.772,1.505,3.798,3.896,5.739,6.794C386.022,398.664,387.304,400.897,388.486,403.386z"/>
	<path style="fill:#AE312F;" d="M171.445,347.562c0.014,1.66-0.633,3.249-1.393,4.726c-10.085,19.875-34.082,29.694-54.337,38.189   c-4.15-7.202-7.582-14.826-10.254-22.717c9.86-1.519,19.875-4.15,28.835-8.468c0.239-0.127,0.478-0.239,0.731-0.366   c9.959-4.937,19.143-11.534,29.792-14.98C168.041,342.892,171.431,343.412,171.445,347.562z"/>
	<path style="fill:#AE312F;" d="M173.906,390.843c-0.183,1.42-0.999,2.687-1.814,3.882c-7.694,11.239-17.822,20.661-29.553,27.595   c-5.401-4.529-10.549-9.507-15.177-15.063c2.813-0.858,5.612-1.772,8.341-3.024c7.272-3.305,14.347-7.033,21.184-11.14   c4.051-2.433,8.144-5.05,12.772-5.922c0.83-0.155,1.716-0.253,2.49,0.056C173.484,387.777,174.089,389.408,173.906,390.843z"/>
	<path style="fill:#AE312F;" d="M200.843,441.171c-1.435,3.179-2.996,6.302-4.67,9.354c-12.603-3.868-24.714-8.96-35.868-15.543   c7.033-4.149,14.024-8.398,20.958-12.73c4.642-2.897,9.424-5.908,14.826-6.751c2.673-0.408,5.753-0.127,7.526,1.913   c1.111,1.28,1.519,3.038,1.674,4.726C205.92,428.695,203.572,435.165,200.843,441.171z"/>
	<path style="fill:#AE312F;" d="M242.506,451.791c-0.745,2.56-1.688,5.064-2.714,7.54c-7.385-0.844-14.77-1.955-22.07-3.418   c1.125-1.139,2.194-2.321,3.165-3.545c2.94-3.728,5.429-7.793,7.989-11.787c0.028-0.042,0.056-0.084,0.085-0.127   c2.489-3.882,4.867-8.031,8.876-10.535c1.997-1.252,4.839-1.815,6.076,0.689c0.408,0.83,0.534,1.786,0.619,2.729   C245.094,439.568,244.279,445.813,242.506,451.791z"/>
	<path style="opacity:0.48;fill:#AE312F;" d="M180.264,243.812c8.292-0.641,16.509-2.268,23.911-6.191   C197.784,243.216,188.523,245.099,180.264,243.812z"/>
	<path style="fill:#AE312F;" d="M116.86,195.691c-2.184,10.574-9.076,20.771-19.04,25.382   C106.64,214.857,112.845,205.628,116.86,195.691z"/>
	<path style="opacity:0.48;fill:#AE312F;" d="M250.328,248.876l-3.938-3.177c-0.131-0.104-13.208-10.551-21.386-8.065l-0.398-1.309   c6.584-2.007,15.591,3.316,20.002,6.363c-0.576-1.286-1-2.774-0.669-3.965c0.22-0.792,0.755-1.391,1.547-1.73   c2.199-0.942,5.11-0.139,7.106,0.667c-0.795-1.381-1.529-3.102-1.096-4.23c0.159-0.413,0.534-0.941,1.425-1.111   c3.293-0.619,8.6,3.992,8.876,5.144l-1.313,0.373c-0.338-0.701-4.837-4.648-7.306-4.173c-0.33,0.063-0.38,0.194-0.405,0.257   c-0.344,0.898,1.168,3.517,2.298,5.005l2.056,2.707l-2.943-1.701c-0.052-0.03-5.18-2.956-8.158-1.68   c-0.415,0.178-0.659,0.444-0.768,0.838c-0.45,1.616,1.376,4.648,2.118,5.68L250.328,248.876z"/>
	<path style="fill:#AE312F;" d="M431.071,210.404c0.373,0.321,0.743,0.698,0.842,1.181c0.123,0.601-0.203,1.197-0.555,1.699   c-1.66,2.367-4.209,4.096-7.022,4.763c-0.685,0.163-1.404,0.264-2.091,0.109c-0.839-0.189-1.547-0.74-2.178-1.324   c-0.997-0.922-1.893-1.987-2.425-3.237C414.37,205.901,427.649,207.459,431.071,210.404z"/>
	<path style="fill:#AE312F;" d="M367.035,166.365c-0.011-0.493,0.022-1.02,0.314-1.416c0.364-0.494,1.025-0.65,1.634-0.725   c2.87-0.351,5.86,0.386,8.238,2.03c0.579,0.4,1.136,0.867,1.48,1.481c0.421,0.75,0.486,1.644,0.474,2.504   c-0.018,1.358-0.21,2.737-0.783,3.968C374.866,181.787,367.136,170.878,367.035,166.365z"/>
	<path style="fill:#FFFFFF;" d="M201.328,22.464c-2.344,3.096-1.867,8.637,2.865,8.777c3.993,0.118,12.863-4.667,10.28-9.687   C212.015,16.779,203.879,19.097,201.328,22.464z"/>
	<path style="fill:#FFFFFF;" d="M220.056,17.73c0.182,0.901,1.209,1.34,2.116,1.493c0.989,0.167,2.044,0.164,2.948-0.269   c2.324-1.115,1.659-3.636-0.638-4.183C222.947,14.406,219.663,15.787,220.056,17.73z"/>
	<ellipse style="fill:#FFC893;" cx="96.019" cy="497.1" rx="19.207" ry="5.934"/>
	<ellipse style="fill:#FFC893;" cx="368.116" cy="484.506" rx="39.589" ry="12.231"/>
	<path style="opacity:0.2;fill:#AE312F;" d="M354.236,477.246c0,1.019-2.674,1.845-5.972,1.845c-3.298,0-5.972-0.826-5.972-1.845   c0-1.019,2.674-1.845,5.972-1.845C351.563,475.401,354.236,476.228,354.236,477.246z"/>
	<path style="opacity:0.2;fill:#AE312F;" d="M147.587,444.092c0,1.019-2.674,1.845-5.972,1.845c-3.298,0-5.972-0.826-5.972-1.845   c0-1.019,2.674-1.845,5.972-1.845C144.913,442.247,147.587,443.073,147.587,444.092z"/>
	<path style="opacity:0.2;fill:#AE312F;" d="M369.893,462.071c0,2.053-5.388,3.718-12.034,3.718c-6.646,0-12.034-1.665-12.034-3.718   c0-2.053,5.388-3.718,12.034-3.718C364.506,458.353,369.893,460.018,369.893,462.071z"/>
	<path style="opacity:0.2;fill:#AE312F;" d="M150.487,459.331c0,2.053-5.388,3.718-12.034,3.718c-6.646,0-12.034-1.664-12.034-3.718   c0-2.054,5.388-3.718,12.034-3.718C145.099,455.613,150.487,457.277,150.487,459.331z"/>
	<path style="fill:#FFC893;" d="M135.643,490.349c0,1.413-3.708,2.558-8.281,2.558c-4.574,0-8.281-1.146-8.281-2.558   c0-1.413,3.708-2.559,8.281-2.559C131.935,487.791,135.643,488.936,135.643,490.349z"/>
	<path style="fill:#AE312F;" d="M234.558,53.99c9.76,2.225,16.931,11.385,18.492,21.034   C249.619,66.096,243.453,58.004,234.558,53.99z"/>
	<path style="fill:#AE312F;" d="M239.267,52.106c11.273-1.754,21.017,7.824,23.546,18.209   C258.405,60.867,250.307,52.425,239.267,52.106z"/>
	<path style="fill:#AE312F;" d="M248.371,47.711c10.692,0.181,20.226,8.262,23.546,18.209   C266.867,57.01,258.582,49.829,248.371,47.711z"/>
	<path style="fill:#AE312F;" d="M236.755,134.973c5.504-16.588,22.275-28.368,39.767-27.612   C259.253,108.667,244.096,119.339,236.755,134.973z"/>
	<path style="fill:#AE312F;" d="M243.804,139.069c7.362-14.27,22.715-24.691,39.101-23.232   C266.524,116.49,252.962,125.847,243.804,139.069z"/>
	<path style="fill:#AE312F;" d="M256.639,103.593c13.159,7.301,23.443,19.951,27.836,34.351   C278.325,124.333,268.668,112.439,256.639,103.593z"/>
	<path style="fill:#AE312F;" d="M142.975,65.92c10.37-13.16,28.613-20.288,44.96-15.495   C171.422,47.632,154.667,54.254,142.975,65.92z"/>
	<path style="fill:#AE312F;" d="M168.959,41.6c12.148-4.902,26.581-1.736,36.772,6.111C194.602,41.597,181.493,38.616,168.959,41.6z   "/>
	<g>
		<path style="fill:#FF5555;" d="M459.597,197.559c0,0,3.135-11.868,11.872-13.57c8.738-1.701,13.794,7.882,13.794,7.882    S471.1,183.281,459.597,197.559z"/>
		<path style="fill:#FF5555;" d="M456.027,163.225c0,0,10.027,7.081,8.571,15.862c-1.456,8.782-12.202,10.174-12.202,10.174    S465.391,178.989,456.027,163.225z"/>
		<path style="fill:#FF5555;" d="M467.075,162.452c0,0-0.41,12.268,7.469,16.41c7.879,4.142,15.478-3.583,15.478-3.583    S473.987,179.435,467.075,162.452z"/>
	</g>
</g>















</svg>
