<?xml version="1.0" encoding="UTF-8"?>
<!-- Generator: Adobe Illustrator 25.2.3, SVG Export Plug-In . SVG Version: 6.00 Build 0)  -->
<svg xmlns="http://www.w3.org/2000/svg" xmlns:xlink="http://www.w3.org/1999/xlink" version="1.1" id="Capa_1" x="0px" y="0px" viewBox="0 0 512 512" style="enable-background:new 0 0 512 512;" xml:space="preserve" width="512" height="512">
<g>
	<path style="fill:#9CF0E7;" d="M240.989,96.122c0,0,6.581-37.796,49.566-38.012c42.985-0.216,51.921,40.556,51.921,40.556   s3.775-11.963,13.337-11.846c9.562,0.117,13.472,18.53,13.472,18.53s10.612-11.152,34.07-5.567   c23.458,5.585,66.464,14.721,66.464,14.721H192.736L240.989,96.122z"/>
	<ellipse style="fill:#FFC893;" cx="372.707" cy="274.913" rx="50.04" ry="18.44"/>
	<path style="fill:#FFC893;" d="M105.596,473.373c0,10.184-22.404,18.441-50.04,18.441c-27.636,0-50.04-8.256-50.04-18.441   c0-10.184,22.404-18.44,50.04-18.44C83.193,454.933,105.596,463.189,105.596,473.373z"/>
	<path style="fill:#FFC893;" d="M146.503,425.356c0,36.737,62.771,67.851,124.767,86.644h-0.257   C124.386,512,5.517,457.268,5.517,389.771c0-67.509,118.87-122.229,265.496-122.229c100.684,0,188.292,25.798,233.29,63.833   c-32.046-7.905-68.65-12.378-107.534-12.378C270.62,318.997,146.503,367.282,146.503,425.356z"/>
	<path style="fill:#FF9D3D;" d="M272.112,168.419c-30.157,9.015,2.439-14.553,2.439-14.553s8.718-7.209,7.869-22.571   c-0.957-17.235-12.316-26.182-42.164-32.987c-5.538-1.267-11.414-3.584-17.1-6.791c-7.532-4.245-14.769-10.025-20.496-16.925   c-8.125-9.769-13.246-21.776-12.006-34.779c0.31-3.302,0.836-6.387,1.536-9.257c5.444-22.571,21.587-32.421,31.734-30.265   c7.533,1.603,3.692,12.357-0.674,25.468c-2.264,6.791-4.662,14.23-5.686,21.331c-2.507,17.45,13.717,32.974,38.444,42.662   c4.757,1.846,9.824,3.49,15.146,4.891c1.684,0.445,3.274,1.011,4.77,1.685C303.832,108.913,300.746,159.876,272.112,168.419z"/>
	<path style="fill:#6CE1C1;" d="M502.739,424.568c0-27.031-67.254-48.942-150.221-48.942c-70.008,0-128.834,15.606-145.49,36.725   c-1.978-0.502-4.311-0.797-6.82-0.797c-7.099,0-12.853,2.325-12.853,5.193c0,2.868,5.755,5.193,12.853,5.193   c0.799,0,1.577-0.033,2.336-0.09c-0.151,0.9-0.234,1.805-0.234,2.717c0,11.683,12.572,22.423,33.553,30.831   c-0.62-0.741-0.944-1.536-0.944-2.372c0-3.948,7.452-7.156,16.655-7.156c9.19,0,16.642,3.207,16.642,7.156   c0,3.948-7.452,7.155-16.642,7.155c-0.795,0-1.59-0.027-2.358-0.068c15.09,4.66,33.144,8.306,53.145,10.613   c-17.824,1.66-31.118,8.107-31.118,15.813c0,8.965,17.987,16.233,40.175,16.233c22.188,0,40.175-7.268,40.175-16.233   c0-0.318-0.029-0.634-0.074-0.948c3.451,0.607,7.254,0.948,11.258,0.948c15.602,0,28.25-5.11,28.25-11.414   c0-1.088-0.4-2.137-1.104-3.134C454.792,466.577,502.739,447.403,502.739,424.568z M334.969,473.18   c-0.027,0.064-0.048,0.129-0.073,0.193c-0.263-0.077-0.526-0.154-0.794-0.228C334.391,473.156,334.68,473.169,334.969,473.18z"/>
	<path style="fill:#AE312F;" d="M361.554,463.647c-29.928,0-60.937-20.111-62.523-21.154c-0.565-0.372-0.722-1.132-0.351-1.697   c0.373-0.567,1.133-0.722,1.697-0.352c0.465,0.305,46.863,30.384,79.834,17.475c11.772-4.612,19.569-13.309,27.825-22.515   c2.217-2.474,4.454-4.969,6.789-7.39c-10.371-2.646-20.056-6.96-28.423-12.703c-3.036-2.085-6.432-4.704-8.606-8.334   c-3.38-5.643-2.42-12.687,2.444-17.947c3.417-3.694,8.096-6.208,12.223-8.177c16.314-7.788,34.468-8.613,48.488-8.473   c4.617,0.048,9.277,0.329,13.784,0.599c12.029,0.724,23.393,1.406,34.945-1.81c5.021-1.399,11.119-5.134,13.426-10.323   c1.345-3.03,1.234-6.16-0.334-9.301c-4.863-9.747-22.754-9.75-30.472-9.745c-14.232,0.001-24.643,1.845-32.769,5.802   c-0.607,0.298-1.34,0.042-1.638-0.566c-0.296-0.608-0.043-1.342,0.566-1.638c8.47-4.125,19.224-6.047,33.841-6.048   c0.079,0,0.159,0,0.239,0c8.245,0,26.94,0.104,32.425,11.102c1.884,3.773,2.015,7.712,0.381,11.389   c-2.81,6.325-9.841,10.25-15.007,11.689c-11.946,3.328-24.047,2.602-35.75,1.897c-4.477-0.269-9.106-0.547-13.663-0.595   c-13.742-0.148-31.547,0.663-47.406,8.234c-3.917,1.871-8.345,4.239-11.479,7.629c-4.107,4.442-4.947,10.34-2.141,15.025   c1.931,3.225,5.072,5.638,7.89,7.573c8.504,5.836,18.417,10.157,29.036,12.693c5.943-5.883,12.615-11.142,21.193-14.302   c5.398-1.989,11.584-2.495,17.417-1.422c5.251,0.966,14.934,4.643,13.995,11.652c-0.211,1.571-1.212,3.096-2.748,4.185   c-11.738,8.308-31.318,5.451-41.839,3.918c-2.441-0.355-4.858-0.802-7.24-1.336c-2.682,2.717-5.226,5.554-7.744,8.362   c-8.083,9.015-16.441,18.338-28.754,23.161C374.87,462.644,368.238,463.647,361.554,463.647z M419.691,426.621   c1.819,0.375,3.656,0.698,5.509,0.968c10.182,1.484,29.132,4.25,40.068-3.495c0.983-0.695,1.616-1.611,1.735-2.509   c0.72-5.37-8.424-8.256-12.008-8.916c-5.409-0.997-11.136-0.529-16.127,1.312C431.257,416.785,425.15,421.389,419.691,426.621z"/>
	<path style="fill:#FF9D3D;" d="M291.881,384.66c0,0,52.729-28.666,58.002-49.049c5.273-20.383-10.561-209.152-150.812-209.679   C58.82,125.403,45.11,285.749,40.892,302.861c-4.218,17.112,63.275,34.292,63.275,34.292L291.881,384.66z"/>
	<path style="opacity:0.2;fill:#AE312F;" d="M349.917,335.242c-5.282,20.388-58.01,49.049-58.01,49.049l-187.709-47.5   c0,0-67.497-17.181-63.279-34.294c1.051-4.285,2.767-17.573,6.837-35.01c3.152-13.576,7.793-28.923,13.438-42.689   c24.438-59.591,68.212-98.867,137.878-98.867c47.978,0,82.311,23.934,108.648,58.179   C339.878,225.927,354.966,308.492,349.917,335.242z"/>
	<path style="fill:#FF9D3D;" d="M395.409,434.701c-10.524,4.461-34.995-1.603-58.037-8.273c-0.66-0.189-1.321-0.391-1.981-0.58   c-4.743-1.388-10.618-3.423-17.006-5.808c-8.813-3.274-18.555-7.209-27.53-10.942c-16.979-7.061-31.222-13.421-31.222-13.421   s30.454-61.918,40.129-60.018c3.153,0.62,13.394,6.791,26.102,15.2c5.012,3.315,10.403,6.994,15.9,10.793   c5.269,3.652,10.619,7.425,15.806,11.157c17.922,12.842,33.944,25.104,37.838,29.416C404.586,412.4,406.23,430.107,395.409,434.701   z"/>
	<path style="fill:#AE312F;" d="M398.9,432.398c-0.016-0.806-0.321-1.584-0.592-2.338c-0.261-0.762-0.583-1.5-0.902-2.232   c-0.669-1.454-1.435-2.854-2.325-4.167c-0.859-1.337-1.884-2.556-2.988-3.705c-1.09-1.174-2.353-2.167-3.642-3.208   c1.517,0.62,3.033,1.393,4.29,2.504c1.297,1.06,2.432,2.327,3.358,3.727c0.921,1.403,1.683,2.912,2.195,4.504   c0.256,0.796,0.464,1.605,0.593,2.43c0.065,0.412,0.098,0.83,0.128,1.244C399.022,431.57,399.069,432.007,398.9,432.398z"/>
	<path style="fill:#AE312F;" d="M402.497,416.748c-1.972-1.536-3.746-3.193-5.592-4.757c-0.906-0.801-1.841-1.558-2.794-2.285   c-0.965-0.713-1.934-1.414-3.081-1.917c1.274,0.004,2.495,0.518,3.596,1.112c1.115,0.599,2.128,1.352,3.077,2.161   c0.938,0.824,1.83,1.695,2.63,2.647C401.138,414.653,401.888,415.649,402.497,416.748z"/>
	<path style="opacity:0.2;fill:#AE312F;" d="M325.864,350.859c-2.062,14.984-9.338,42.757-35.009,58.24   c-16.979-7.061-31.222-13.421-31.222-13.421s30.454-61.918,40.129-60.018C302.916,336.279,313.157,342.451,325.864,350.859z"/>
	<path style="fill:#FF9D3D;" d="M316.108,332.762c-0.064,12.782-2.034,24.263-7.681,35.049   c-16.314,36.222-85.692,41.393-129.537,36.625c-40.465-4.594-71.269-21.088-80.661-57.942   c-8.378-30.153,2.162-56.257,17.747-66.702c37.14-21.878,74.238-26.395,113.474-23.352c4.508,0.296,9.437,0.698,13.596,0.916   C277.098,258.848,317.317,286.406,316.108,332.762z"/>
	<path style="fill:#FF9D3D;" d="M297.93,283.066c-15.469,14.957-35.642-9.406-35.642-9.406l-9.487-15.106   c3.625-1.307,7.155-3.086,10.457-5.053c6.118-3.638,10.066-9.729,14.944-14.728c5.808-5.943,13.152-9.122,21.506-9.365   c0.418-0.014,0.835,0.202,1.28,0.633C306.19,235.108,312.187,269.267,297.93,283.066z"/>
	<path style="fill:#AE312F;" d="M297.93,283.066c-11.198,10.82-27.112,1.132-35.318-9.298c-0.862-1.105-1.644-2.224-2.331-3.315   c-1.604-2.574-3.22-5.134-4.838-7.694c-0.673-1.078-1.549-3.396-2.6-4.177c0.93,0.647,14.318,14.129,32.214,10.869   c8.476-2.426,7.079-18.509,10.125-29.115c1.267-4.433,2.965-8.247,5.808-10.295C306.19,235.108,312.187,269.267,297.93,283.066z"/>
	<path style="fill:#AE312F;" d="M226.552,302.861c-6.872,0-8.759-9.715-13.731-24.862c-3.881-11.845-10.093-19.499-12.613-22.274   c10.982-0.391,20.859,0.135,29.241,0.714C240.014,273.795,233.182,302.861,226.552,302.861z"/>
	<path style="fill:#AE312F;" d="M240.081,269.011c-2.803-4.851-4.46-9.594-5.255-12.195c2.978,0.216,5.727,0.404,8.22,0.539   c2.116,0.108,4.326,0.324,6.617,0.66C251.993,267.111,243.059,274.172,240.081,269.011z"/>
	<path style="fill:#AE312F;" d="M192.164,276.638c-4.608,0.795-8.826-2.21-12.438-9.621c-2.021-4.164-5.067-6.818-7.331-8.341   c6.926-1.28,13.583-2.075,19.943-2.533C199.211,265.413,196.355,275.897,192.164,276.638z"/>
	<path style="fill:#FF9D3D;" d="M164.391,260.333c-1.118,7.115-8.139,13.785-16.426,18.407c-11.602,6.482-25.683,8.988-29.484,3.207   c-6.522-9.918-11.602-44.724,0-47.621c0.229-0.054,0.472-0.108,0.701-0.148c11.319-2.479,21.439,4.433,27.826,12.801   C153.531,255.523,164.391,260.333,164.391,260.333z"/>
	<path style="fill:#AE312F;" d="M135.191,283.955c-7.56,1.994-14.27,1.711-16.709-2.008c-6.522-9.918-11.602-44.724,0-47.621   c0.229-0.054,0.472-0.108,0.701-0.148c1.846,0.499,4.46,1.442,7.182,3.234c3.544,2.331,2.775,8.871,5.255,14.922   C136.793,264.987,139.382,282.85,135.191,283.955z"/>
	<path style="fill:#FFFFFF;" d="M283.808,276.759c-9.19,1.752-13.206-5.457-13.475-5.97c0.081,0.364,0.876,3.989-2.116,3.355   c-3.14-0.66-2.91-5.296-2.91-5.296s-0.472,3.261-2.695,4.919c-0.862-1.105-1.644-2.224-2.331-3.315   c-1.604-2.574-3.22-5.134-4.838-7.694c-0.673-1.078-1.549-3.396-2.6-4.177c0.93,0.647,18.03,12.451,30.131,8.988   c8.476-2.426,9.163-16.628,12.208-27.233c0.701,6.778-2.911,22.571-2.911,22.571s3.045-3.975,5.026-3.045   c1.886,0.889-2.385,6.091-2.776,6.576c0.337-0.189,4.407-2.372,5.188,0.013C300.531,268.944,293.335,274.94,283.808,276.759z"/>
	<path style="fill:#FFFFFF;" d="M147.965,278.74c-4.137,2.304-8.583,4.11-12.774,5.215c-3.167-0.216-5.835-1.105-6.63-3.288   c-2.345-6.401,3.261-7.964,3.261-7.964s-3.234-1.819-3.84-3.517c-0.566-1.617,3.558,0.674,3.948,0.903   c-0.35-0.377-3.719-3.962-2.978-5.08c0.606-0.903,1.994,0.458,2.601,1.118c-1.051-1.375-4.743-6.724-0.903-10.538   c0,0-13.974-13.745-4.285-18.178c3.544,2.331,7.29,6.091,9.77,12.141C141.309,262.206,138.492,270.413,147.965,278.74z"/>
	<g>
		<g>
			<path style="fill:#FFFFFF;" d="M286.324,365.037c-6.947,1.981-16.242,0.309-21.827-4.329c-1.192-0.992-2.224-2.146-3.051-3.477     c-3.565-5.806-3.928-14.032-1.81-20.452c0.037-0.152,0.088-0.301,0.138-0.45c2.258-6.439,7.921-11.06,14.598-12.275     c7.815-1.418,18.064,0.636,22.446,7.866c1.727,2.856,2.681,6.34,2.887,9.976l0.013,0.003     C300.298,351.588,295.627,362.374,286.324,365.037z"/>
			<path style="fill:#AE312F;" d="M286.324,365.037c-7.818,2.027-16.942,0.403-23.099-4.994c-6.002-6.042-6.769-15.672-4.564-23.586     l-0.022,0.076c6.329-21.147,41.947-17.949,41.554,5.335l-0.374-0.448c0.011,0.003,0.363,0.098,0.375,0.101     C300.579,350.973,296.082,362.185,286.324,365.037z M286.324,365.037c9.571-2.806,13.761-13.931,12.906-23.109l0.373,0.446     c-0.011-0.002-0.342-0.072-0.354-0.075c-0.351-4.56-1.835-9.381-5.25-12.515c-8.234-7.042-22.959-6.864-30.129,1.618     c-5.171,6.266-5.949,15.587-3.219,23.104C264.347,364.246,276.964,367.414,286.324,365.037z"/>
		</g>
		<path style="fill:#AE312F;" d="M273.491,359.198c5.042,2.054,11.376,1.497,15.601-2.105c6.731-5.739,7.28-17.158,0.997-23.33    c-3.373-3.313-8.646-5.148-13.346-4.434c-12.561,1.909-15.943,19.515-7.043,27.53    C270.796,357.847,272.088,358.626,273.491,359.198z"/>
		<path style="opacity:0.21;fill:#AE312F;" d="M299.705,341.895c-20.339-16.584-37.907-6.478-40.068-5.117    c0.037-0.152,0.088-0.301,0.138-0.45c2.258-6.439,7.921-11.06,14.598-12.275c7.815-1.418,18.064,0.636,22.446,7.866    C298.545,334.775,299.499,338.259,299.705,341.895z"/>
	</g>
	<g>
		<g>
			<path style="fill:#FFFFFF;" d="M193.55,382.149c-7.328,3.504-17.949,3.4-25.013-0.691c-1.509-0.875-2.87-1.96-4.037-3.281     c-5.045-5.766-6.997-14.817-5.857-22.333c0.013-0.176,0.04-0.35,0.068-0.524c1.29-7.564,6.699-13.752,13.873-16.357     c8.397-3.044,20.146-2.695,26.365,4.494c2.452,2.841,4.166,6.524,5.078,10.516l0.015,0.001     C206.511,364.608,203.363,377.445,193.55,382.149z"/>
			<path style="fill:#AE312F;" d="M193.55,382.149c-8.281,3.715-18.701,3.621-26.522-1.225c-7.75-5.568-10.377-16.084-9.4-25.233     l-0.009,0.079c1.868-17.67,25.155-25.197,38.867-15.667c4.48,3.255,6.916,8.512,8.019,13.763l-0.444-0.379     c0.013,0.001,0.373,0.034,0.387,0.035C206.673,363.904,203.813,377.158,193.55,382.149z M193.55,382.149     c10.084-4.927,12.66-17.995,10.017-28.063l0.443,0.377c-0.01,0-0.353-0.015-0.365-0.015c-1.241-4.997-3.786-10.063-8.16-12.916     c-9.458-5.736-23.719-3.809-31.099,4.47c-6.965,7.98-6.408,20.485-1.334,29.341C169.021,385.436,183.612,386.551,193.55,382.149z     "/>
		</g>
		<path style="fill:#AE312F;" d="M178.224,378.092c5.976,1.328,12.894-0.482,16.9-5.271c6.382-7.629,4.84-20.393-3.287-26.051    c-4.363-3.038-10.554-4.08-15.631-2.403c-13.566,4.481-14.001,24.637-2.625,31.847    C174.983,377.102,176.561,377.722,178.224,378.092z"/>
		<path style="opacity:0.21;fill:#AE312F;" d="M204.028,353.974c-25.67-14.557-43.244-0.045-45.384,1.87    c0.013-0.176,0.04-0.35,0.068-0.524c1.29-7.564,6.699-13.752,13.873-16.357c8.397-3.044,20.146-2.695,26.365,4.494    C201.402,346.299,203.116,349.982,204.028,353.974z"/>
	</g>
	<path style="fill:#AE312F;" d="M240.617,358.134c0,0-4.911-6.033-7.015-5.051c-2.105,0.982,0.14,7.156,7.015,9.541   c0,0,9.082-7.49,5.472-9.649C243.783,351.595,240.617,358.134,240.617,358.134z"/>
	<path style="fill:#AE312F;" d="M232.542,391.849c2.772-11.016,7.249-22.285,7.937-33.646c4.395,9.963,6.933,20.818,6.757,31.724   c-0.79-9.888-3.02-19.74-6.873-28.882l1.157-0.238C240.147,371.568,236.188,381.706,232.542,391.849z"/>
	<path style="fill:#AE312F;" d="M257.172,316.936c-1.411,1.659-0.979,3.74,1.358,4.131c0.998,0.167,2.021-0.083,2.965-0.446   c1.282-0.492,2.527-1.06,3.732-1.711c1.52-0.821,4.139-3.199,2.447-5.846C265.187,309.175,258.605,315.251,257.172,316.936z"/>
	<path style="fill:#AE312F;" d="M197.044,332.996c2.173,0.14,3.585-1.45,2.501-3.557c-0.463-0.9-1.274-1.571-2.129-2.111   c-1.161-0.734-2.36-1.393-3.602-1.971c-1.566-0.728-5.038-1.407-6.149,1.531C186.032,331.207,194.837,332.854,197.044,332.996z"/>
	<path style="fill:#AE312F;" d="M223.251,25.758c-2.762-3.638-2.048-9.419-2.048-9.419s-7.048,15.052-17.626,16.466   c-4.069,0.539-8.045-0.62-11.386-2.25c5.444-22.571,21.587-32.421,31.734-30.265C231.457,1.893,227.617,12.647,223.251,25.758z"/>
	<path style="opacity:0.48;fill:#AE312F;" d="M226.742,365.088c-3.605,1.56-6.793,4.55-8.289,8.574   c-2.169,5.835-1.562,12.549,3.317,16.597c3.028,2.513,6.823,3.488,10.519,3.826c7.083,0.647,14.165,0.79,20.72-2.388   c2.378-1.153,4.65-2.685,6.36-4.866c2.619-3.343,3.714-8.159,2.869-12.623c-0.845-4.465-3.609-8.473-7.247-10.509   c-4.475-2.504-10.471-2.467-15.215-1.545C235.55,362.975,230.707,363.372,226.742,365.088z"/>
	<path style="opacity:0.48;fill:#EB4949;" d="M272.682,369.306c-3.357,2.416-3.772,7.242,0.18,9.585   c5.292,3.137,15.146,2.333,19.703-1.892c3.848-3.567,1.302-9.857-2.994-10.898c-3.631-0.881-7.455-0.473-10.969,0.589   C276.97,367.184,274.563,367.953,272.682,369.306z"/>
	<path style="opacity:0.48;fill:#EB4949;" d="M170.529,385.961c-3.746,1.751-5.051,6.416-1.602,9.452   c4.618,4.065,14.45,5.103,19.712,1.797c4.443-2.791,3.108-9.444-0.919-11.264c-3.404-1.539-7.238-1.848-10.888-1.457   C175.136,384.671,172.629,384.98,170.529,385.961z"/>
	<path style="fill:#AE312F;" d="M357.571,372.81c-0.727,0.31-1.469,0.606-2.196,0.916c-5.767,2.426-11.265,5.485-16.386,9.082   c-3.517,2.48-6.886,5.229-10.794,7.021c-1.725,0.795-3.827,1.361-5.458,0.377c-1.334-0.795-1.954-2.493-1.86-4.056   c0.081-1.55,0.741-3.019,1.469-4.406c4.177-8.072,11.117-15.847,19.418-20.092C347.034,365.304,352.383,369.078,357.571,372.81z"/>
	<path style="fill:#AE312F;" d="M344.648,408.425c-2.318,5.754-4.635,11.494-6.967,17.235c-0.108,0.256-0.202,0.512-0.31,0.768   c-0.66-0.189-1.321-0.391-1.981-0.58c-4.743-1.388-10.618-3.423-17.006-5.808c0.755-1.024,1.577-1.981,2.358-2.83   c4.582-4.972,9.217-9.999,14.823-13.785c1.577-1.051,3.301-2.035,5.188-2.169c1.9-0.121,3.989,0.849,4.582,2.655   C345.821,405.393,345.228,406.983,344.648,408.425z"/>
	<path style="fill:#AE312F;" d="M316.041,329.124c-1.469,0.108-2.938,0.04-4.393-0.242c-1.846-0.364-3.8-1.226-4.541-2.951   c-0.647-1.482-0.215-3.261,0.714-4.582c0.93-1.307,2.304-2.25,3.679-3.099c1.024-0.633,2.048-1.253,3.072-1.859   C315.367,320.392,315.866,324.637,316.041,329.124z"/>
	<path style="fill:#AE312F;" d="M313.198,355.777c-1.226,4.366-2.816,8.368-4.77,12.033c-1.967-1.685-3.652-3.625-4.797-5.943   c-0.836-1.684-1.32-3.773-0.404-5.404c0.795-1.415,2.466-2.142,4.083-2.196c1.604-0.054,3.18,0.458,4.689,1.037   C312.402,355.454,312.807,355.616,313.198,355.777z"/>
	<path style="fill:#AE312F;" d="M316.108,333.341c-0.054,6.967-0.741,13.3-2.062,19.054c-1.536-0.377-3.032-0.889-4.46-1.509   c-2.911-1.253-5.997-3.544-5.889-6.724c0.095-2.614,2.345-4.595,4.528-6.05C310.503,336.603,313.265,334.783,316.108,333.341z"/>
	<path style="fill:#AE312F;" d="M223.157,91.517c-7.532-4.245-14.769-10.025-20.496-16.925c3.921-0.997,9.581-1.617,14.85,0.809   C222.968,77.893,223.588,85.561,223.157,91.517z"/>
	<path style="fill:#AE312F;" d="M275.925,96.327c-1.455,2.83-3.975,4.757-8.287,3.84c-6.576-1.401-9.931-6.306-11.629-10.416   c4.757,1.846,9.824,3.49,15.146,4.891C272.839,95.088,274.43,95.653,275.925,96.327z"/>
	<path style="opacity:0.2;fill:#AE312F;" d="M178.891,404.436c-40.466-4.595-71.27-21.089-80.662-57.943   c-4.11-16.13-3.463-28.958-0.782-38.862c7.721,3.045,33.782,14.014,35.615,23.811c0.728,3.908-4.581,4.177-4.581,4.177   S174.983,371.449,178.891,404.436z"/>
	<path style="fill:#FF9D3D;" d="M142.602,415.647c-11.925,0.081-30.13-6.697-47.729-15.928c-6.037-3.166-11.993-6.616-17.598-10.187   c-12.424-7.883-23.15-16.318-29.187-23.393c-1.752-2.048-3.099-3.988-3.989-5.754c-2.52-5.013-4.016-10.982-4.824-17.248   c-2.924-22.76,3.302-49.535,3.302-49.535c16.291-6.28,42.608,21.075,59.587,37.111l0.768,0.728   c3.868,3.585,8.921,7.87,14.499,12.478c19.647,16.251,45.789,36.571,49.373,44.98C171.452,399.855,161.009,415.526,142.602,415.647   z"/>
	<path style="fill:#AE312F;" d="M147.965,415.148c-0.889-2.416-2.074-4.579-3.434-6.653c-0.696-1.024-1.423-2.031-2.207-3.007   c-0.773-0.988-1.609-1.928-2.412-2.951c1.13,0.631,2.181,1.404,3.117,2.305c0.961,0.879,1.772,1.908,2.523,2.975   c0.703,1.101,1.321,2.263,1.749,3.499C147.729,412.545,148.027,413.844,147.965,415.148z"/>
	<path style="fill:#AE312F;" d="M163.741,405.83c-1.262-2.665-2.513-5.245-4.035-7.656c-0.762-1.202-1.605-2.338-2.522-3.423   c-0.954-1.052-1.999-2.006-3.187-2.901c1.416,0.435,2.726,1.239,3.863,2.225c1.117,1.01,2.062,2.192,2.88,3.444   c0.787,1.272,1.447,2.613,1.955,4.006C163.202,402.916,163.597,404.353,163.741,405.83z"/>
	<path style="fill:#AE312F;" d="M112.58,372.958c-4.986,6.778-11.508,12.532-15.133,20.132c-1.024,2.143-1.792,4.393-2.574,6.63   c-6.037-3.166-11.993-6.616-17.598-10.187c3.84-4.177,7.559-8.476,11.804-12.235c5.821-5.161,12.977-9.338,20.765-9.648   c1.442-0.054,3.18,0.202,3.786,1.509C114.223,370.411,113.402,371.853,112.58,372.958z"/>
	<path style="fill:#AE312F;" d="M117.431,343.919c-1.037,0.121-2.035,0.283-3.005,0.499c-4.123,0.93-28.203,14.216-29.335,4.029   c-0.377-3.301,3.49-7.317,5.808-9.19c3.733-3.005,7.775-5.633,12.033-7.816C106.799,335.026,111.852,339.311,117.431,343.919z"/>
	<path style="fill:#AE312F;" d="M67.923,336.589c-6.697,6.791-13.502,13.879-17.006,22.746c-0.889,2.291-1.577,4.703-2.83,6.805   c-1.752-2.048-3.099-3.988-3.989-5.754c-2.52-5.013-4.016-10.982-4.824-17.248c7.236-6.495,15.618-12.141,25.482-13.34   c1.994-0.243,4.514,0.013,5.242,1.887C70.672,333.436,69.244,335.242,67.923,336.589z"/>
	<path style="fill:#AE312F;" d="M117.431,194.238c-18.191,3.544-42.102,19.915-56.238,30.561c3.477-8.57,7.471-17.247,12.322-25.723   C112.701,175.184,142.791,189.279,117.431,194.238z"/>
	<path style="fill:#AE312F;" d="M307.827,184.256c-109.512-54.763-182.989-29.366-216.704-10.271   c4.972-5.929,10.754-11.707,16.805-16.881c72.469-35.44,147.03-9.187,185.906,9.745   C298.981,172.387,303.528,178.057,307.827,184.256z"/>
	<path style="fill:#6CE1C1;" d="M388.096,365.418c0,0-3.887-34.103,8.443-34.608C408.87,330.303,388.096,365.418,388.096,365.418z"/>
	<path style="fill:#6CE1C1;" d="M379.068,365.713c0,0-15.025-14.492-9.45-20.115C375.192,339.975,379.068,365.713,379.068,365.713z"/>
	<path style="fill:#6CE1C1;" d="M400.449,367.811c0,0,15.168-32.616,24.254-29.208C433.789,342.009,400.449,367.811,400.449,367.811   z"/>
	<ellipse style="fill:#6CE1C1;" cx="252.802" cy="476.235" rx="6.835" ry="2.761"/>
	<path style="fill:#6CE1C1;" d="M195.958,436.231c0,1.525-3.06,2.762-6.835,2.762c-3.775,0-6.835-1.236-6.835-2.762   c0-1.525,3.06-2.762,6.835-2.762C192.898,433.47,195.958,434.706,195.958,436.231z"/>
	<path style="opacity:0.48;fill:#AE312F;" d="M105.559,333.824c-8.895-6.197-17.661-15.03-19.258-26.194   C89.538,318.224,97.765,326.317,105.559,333.824z"/>
	<path style="fill:#AE312F;" d="M334.025,236.193c-11.818-11.185-37.173-30.515-75.698-35.676   c-38.445-5.161-12.02-14.512,9.89-12.033c16.494,1.86,36.208,6.131,53.092,17.787C326.403,216.135,330.44,226.087,334.025,236.193z   "/>
	<path style="fill:#AE312F;" d="M172.421,165.354c-8.034,1.316-16.094,2.757-23.261,6.845c-1.723,0.983-4.059,3.356-1.682,5.17   c1.131,0.863,2.677,0.867,4.099,0.816c21.5-0.771,42.801-3.576,64.245-0.582c2.926,0.408,6.012,0.558,8.731-0.594   c11.873-5.032-6.683-11.213-11.146-12.32c-12.674-3.144-24.912-1.998-37.607,0.112   C174.676,164.986,173.548,165.169,172.421,165.354z"/>
	<path style="fill:#AE312F;" d="M286.349,377.944c4.245,0.457,8.409,1.277,12.552,2.185c4.136,0.944,8.251,1.98,12.285,3.38   c-4.245-0.455-8.409-1.275-12.552-2.185C294.498,380.378,290.383,379.342,286.349,377.944z"/>
	<path style="fill:#AE312F;" d="M313.197,373.12c-4.085,0.57-8.178,0.768-12.273,0.876c-4.096,0.071-8.193,0.048-12.299-0.349   c4.085-0.573,8.178-0.771,12.273-0.876C304.994,372.704,309.091,372.727,313.197,373.12z"/>
	<path style="fill:#AE312F;" d="M309.966,360.384c-3.418,2.308-7.007,4.286-10.637,6.184c-3.647,1.865-7.337,3.646-11.199,5.095   c3.417-2.311,7.006-4.288,10.637-6.184C302.415,363.618,306.106,361.836,309.966,360.384z"/>
	<path style="fill:#AE312F;" d="M177.816,395.504c-4.034,1.398-8.149,2.433-12.285,3.38c-4.143,0.911-8.307,1.731-12.552,2.185   c4.033-1.401,8.149-2.436,12.285-3.38C169.407,396.781,173.571,395.961,177.816,395.504z"/>
	<path style="fill:#AE312F;" d="M150.967,390.68c4.106-0.394,8.203-0.417,12.299-0.348c4.095,0.105,8.188,0.303,12.273,0.876   c-4.106,0.397-8.204,0.419-12.299,0.348C159.145,391.448,155.052,391.249,150.967,390.68z"/>
	<path style="fill:#AE312F;" d="M154.198,377.944c3.861,1.452,7.551,3.233,11.2,5.095c3.632,1.895,7.22,3.873,10.637,6.184   c-3.862-1.449-7.552-3.231-11.199-5.095C161.205,382.23,157.616,380.252,154.198,377.944z"/>
	<path style="fill:#AE312F;" d="M47.755,267.487c1.684-7.25,3.849-15.257,6.53-23.625c8.826-7.061,22.68-16.839,32.018-17.122   C98.875,226.362,65.475,250.765,47.755,267.487z"/>
	<path style="opacity:0.48;fill:#AE312F;" d="M117.431,278.944c-6.844,5.559-15.279,10.406-19.923,18.024   c-0.628,3.903,5.078,0.74,6.744,0.248c-2.758,2.666-12.606,9.583-10.275,13.784c0.887,1.698,2.06,0.783,3.062-0.263   c-0.53,4.627-1.484,9.327-1.107,13.991c-0.772-4.272-0.152-8.688,0.156-12.989l0.694,0.319c-1.029,1.283-2.979,0.878-3.681-0.506   c-2.617-4.587,4.784-10.182,7.771-13.018l0.599,1.025c-2.343,1.063-5.966,0.409-5.001-2.919c1.461-3.382,4.578-5.611,7.214-7.927   C108.047,285.154,112.666,281.935,117.431,278.944z"/>
	<g>
		<path style="opacity:0.48;fill:#FFFFFF;" d="M270.709,420.632c-4.4,1.979-8.3,4.74-11.511,8.347    c-0.326,0.367,0.195,0.9,0.544,0.543c3.279-3.352,7.077-6.031,11.426-7.803C271.956,421.397,271.502,420.275,270.709,420.632z"/>
		<path style="opacity:0.48;fill:#FFFFFF;" d="M276.325,420.897c-1.751,0.883-3.343,2.199-4.948,3.322    c-1.461,1.023-2.921,2.048-4.305,3.173c-0.246,0.2,0.069,0.581,0.332,0.43c1.722-0.99,3.359-2.115,5.004-3.226    c1.47-0.992,3.062-1.909,4.377-3.104C277.117,421.191,276.694,420.711,276.325,420.897z"/>
	</g>
	<g>
		<path style="opacity:0.48;fill:#FFFFFF;" d="M361.787,449.206c-1.543,1.12-3.1,2.259-4.55,3.499    c-0.317,0.271,0.087,0.729,0.427,0.554c1.696-0.872,3.236-2.137,4.518-3.54C362.419,449.46,362.102,448.977,361.787,449.206z"/>
		<path style="opacity:0.48;fill:#FFFFFF;" d="M367.969,449.583c-0.795,0.477-1.457,1.222-2.186,1.8    c-0.867,0.687-1.796,1.272-2.682,1.931c-0.323,0.24-0.054,0.697,0.313,0.536c1.027-0.448,2.006-1.104,2.906-1.77    c0.767-0.567,1.647-1.167,2.189-1.957C368.738,449.79,368.295,449.388,367.969,449.583z"/>
	</g>
	<g>
		<path style="opacity:0.48;fill:#FFFFFF;" d="M427.435,394.474c-4.044,1.469-8.372,3.926-11.691,6.668    c-0.26,0.215,0.071,0.565,0.338,0.438c3.897-1.851,7.98-4.251,11.515-6.721C427.779,394.732,427.675,394.387,427.435,394.474z"/>
		<path style="opacity:0.48;fill:#FFFFFF;" d="M429.964,397.736c-1.903,0.659-3.686,2.08-5.393,3.136    c-0.364,0.225-0.043,0.77,0.335,0.573c1.78-0.93,3.909-1.739,5.447-3.04C430.656,398.148,430.334,397.608,429.964,397.736z"/>
	</g>
	<path style="opacity:0.48;fill:#FFFFFF;" d="M142.047,202.963c-2.862,0.304-5.568,1.278-8.207,2.383   c-0.302,0.127-0.193,0.611,0.14,0.508c2.697-0.839,5.465-1.443,8.141-2.342C142.401,203.417,142.378,202.928,142.047,202.963z"/>
	<path style="opacity:0.48;fill:#FFFFFF;" d="M144.112,207.462c-1.933,0.409-3.825,0.983-5.778,1.33   c-0.327,0.058-0.251,0.594,0.078,0.579c2.011-0.087,4.119-0.436,5.927-1.371C144.648,207.84,144.426,207.395,144.112,207.462z"/>
	<path style="opacity:0.48;fill:#FFFFFF;" d="M264.821,208.4c-2.679-0.573-5.484-0.528-8.207-0.704c-0.33-0.021-0.316,0.469,0,0.505   c2.688,0.313,5.415,0.859,8.129,0.778C265.063,208.969,265.158,208.471,264.821,208.4z"/>
	<path style="opacity:0.48;fill:#FFFFFF;" d="M266.968,211.714c-1.972-0.409-4.075-0.387-6.079-0.475   c-0.312-0.014-0.294,0.438,0,0.474c1.97,0.239,4.019,0.608,6.008,0.528C267.186,212.23,267.277,211.778,266.968,211.714z"/>
	<path style="opacity:0.48;fill:#FFFFFF;" d="M321.989,285.792c-1.91-0.936-3.73-1.713-5.253-3.263   c-0.21-0.214-0.527,0.108-0.328,0.328c1.427,1.575,3.335,3.005,5.52,3.161C322.046,286.026,322.095,285.844,321.989,285.792z"/>
	<path style="opacity:0.48;fill:#FFFFFF;" d="M323.934,282.351c-1.261-0.755-2.73-1.242-4.091-1.784   c-0.193-0.077-0.33,0.246-0.142,0.336c1.322,0.636,2.671,1.385,4.083,1.803C323.997,282.77,324.122,282.463,323.934,282.351z"/>
	<path style="opacity:0.48;fill:#FFFFFF;" d="M151.906,289.16c-2.939,0.624-5.398,2.834-6.941,5.333   c-0.366,0.593,0.525,1.081,0.918,0.536c1.679-2.325,3.853-3.807,6.291-5.234C152.524,289.59,152.285,289.079,151.906,289.16z"/>
	<path style="opacity:0.48;fill:#FFFFFF;" d="M153.305,294.271c-2.057,0.34-4.02,1.965-5.384,3.462   c-0.379,0.416,0.204,1.001,0.618,0.618c0.773-0.716,1.61-1.356,2.517-1.894c0.845-0.501,1.772-0.821,2.618-1.311   C154.172,294.859,153.817,294.186,153.305,294.271z"/>
	<path style="opacity:0.48;fill:#FFFFFF;" d="M245.523,294.225c-0.251-0.216-0.556,0.105-0.357,0.357   c0.771,0.979,1.543,1.939,2.183,3.012c0.58,0.972,1.015,2.04,1.643,2.979c0.211,0.315,0.683,0.117,0.606-0.256   C249.127,298.043,247.248,295.708,245.523,294.225z"/>
	<path style="opacity:0.48;fill:#FFFFFF;" d="M256.081,299.229c-1.652-1.822-3.399-3.547-5.006-5.412   c-0.155-0.18-0.463,0.056-0.331,0.255c1.385,2.091,3.037,4.019,5.107,5.455C256.035,299.654,256.219,299.381,256.081,299.229z"/>
	<path style="fill:#AE312F;" d="M118.49,344.794c0,0,26.257-3.48,27.853,4.27c1.596,7.749-9.252,10.982-9.252,10.982L118.49,344.794   z"/>
	<path style="fill:#FF5555;" d="M310.252,447.345c-1.238,6.299-7.88,11.323-21.213,11.397c-7.157,0.037-14.411-2.181-21.2-5.466   c-19.068-9.252-34.607-26.96-34.607-26.96c-8.284,5.662-15.551,0.748-15.551,0.748c3.199-6.642,12.696-5.588,12.696-5.588   c-5.38-7.365,3.799-12.953,3.799-12.953c7.23,7.377,1.287,13.652,0.931,14.044c0.613-0.049,12.365-1.336,26.053-1.25   c0.061,0.024,0.098,0.012,0.159,0.012c0.086,0,0.172,0,0.282,0.012c6.74,0.049,13.909,0.417,20.453,1.458   c0.527,0.086,1.005,0.135,1.446,0.233c0.196,0.024,0.368,0.061,0.539,0.11c0.025-0.012,0.049-0.012,0.061,0l0.098,0.024   c0.27,0.061,0.453,0.086,0.453,0.086c5.135,0.956,9.767,2.39,13.296,4.412c7.242,4.154,11.617,10.086,12.389,15.661   C310.533,444.698,310.509,446.046,310.252,447.345z"/>
	<g>
		<g>
			<path style="fill:#FFFFFF;" d="M292.439,445.838c-2.648-0.004-5.756-1.532-7.256-3.731c-0.32-0.47-0.567-0.981-0.724-1.534     c-0.67-2.406,0.033-5.343,1.429-7.392c0.029-0.05,0.061-0.097,0.094-0.145c1.446-2.041,3.909-3.098,6.386-2.852     c2.898,0.29,6.302,2.049,7.117,5.04c0.32,1.181,0.304,2.506,0.009,3.808l0.004,0.002     C298.724,442.509,295.988,445.84,292.439,445.838z"/>
			<path style="fill:#AE312F;" d="M292.439,445.838c-7.045-0.159-10.747-6.864-6.763-12.802l-0.01,0.017     c4.173-6.703,16.475-1.839,13.948,6.007l-0.06-0.134c0.004,0.002,0.081,0.047,0.085,0.049     C298.837,442.337,296.156,445.838,292.439,445.838z M292.439,445.838c3.659-0.044,6.277-3.501,6.94-6.829l0.06,0.133     c-0.004-0.002-0.079-0.042-0.082-0.044c1.621-5.438-4.325-9.565-9.26-8.471c-4.536,0.989-6.98,6.934-5.097,11.007     C286.47,444.206,289.518,445.735,292.439,445.838z"/>
		</g>
		<path style="fill:#AE312F;" d="M288.506,442.483c1.57,1.234,3.858,1.677,5.712,0.834c2.952-1.343,4.299-5.312,2.708-8.122    c-0.854-1.509-2.527-2.688-4.256-2.911c-4.62-0.596-7.591,5.268-5.264,8.992C287.693,441.735,288.069,442.14,288.506,442.483z"/>
		<path style="opacity:0.21;fill:#AE312F;" d="M299.494,439.033c-5.493-7.901-12.706-6.113-13.606-5.852    c0.029-0.05,0.061-0.097,0.094-0.145c1.446-2.041,3.909-3.098,6.386-2.852c2.898,0.29,6.302,2.049,7.117,5.04    C299.805,436.406,299.789,437.731,299.494,439.033z"/>
	</g>
	<path style="fill:#AE312F;" d="M310.252,447.345l-15.417,4.007l15.502-8.027C310.533,444.698,310.509,446.046,310.252,447.345z"/>
	<path style="fill:#FF5555;" d="M284.646,423.252c0,0-0.176-0.03-0.447-0.087l-0.095-0.027c-0.195-0.035-0.39-0.071-0.604-0.112   c-0.447-0.087-0.923-0.141-1.452-0.231c-6.32-0.848-18.005-1.367-20.443-1.45c-0.119-0.014-0.201-0.016-0.282-0.019   c-0.1-0.008-0.163-0.005-0.163-0.005s4.204-3.43,8.484-5.485c3.452,0.908,7.006,3.608,7.006,3.608   c-0.583-1.972-2.209-3.956-3.199-4.937c1.059-0.188,2.026-0.199,2.843,0.097C281.099,416.308,284.646,423.252,284.646,423.252z"/>
	<path style="opacity:0.26;fill:#AE312F;" d="M284.646,423.252c0,0-0.176-0.03-0.447-0.087c-0.043,0.008-0.1-0.008-0.157-0.025   c-1.614-0.237-6.02-0.68-6.715,1.316c-0.869,2.458,1.665,3.349,1.665,3.349s-4.776-1.369-6.52,1.782   c-1.738,3.132,3.478,5.899,3.478,5.899s-4.244,0.568-4.285,3.427c-0.059,2.855,4.04,3.866,4.04,3.866s-4.327-0.215-5.229,2.644   c-0.899,2.778,2.609,4.993,2.815,5.134c-0.208-0.06-3.395-0.891-5.456,2.722c-19.066-9.259-34.604-26.963-34.604-26.963   c-8.289,5.664-15.556,0.75-15.556,0.75c3.199-6.651,12.698-5.589,12.698-5.589c-5.375-7.366,3.797-12.961,3.797-12.961   c7.235,7.386,1.293,13.661,0.936,14.051c0.609-0.051,12.361-1.338,26.056-1.247c0,0,4.204-3.43,8.484-5.485   c3.452,0.908,7.006,3.608,7.006,3.608c-0.583-1.972-2.209-3.956-3.199-4.937c1.059-0.188,2.026-0.199,2.843,0.097   C281.099,416.308,284.646,423.252,284.646,423.252z"/>
	<path style="fill:#FFC893;" d="M450.839,282.147c0,2.226-4.898,4.031-10.94,4.031s-10.94-1.805-10.94-4.031   c0-2.227,4.898-4.031,10.94-4.031S450.839,279.92,450.839,282.147z"/>
	<ellipse style="fill:#FFC893;" cx="101.248" cy="494.976" rx="10.94" ry="4.031"/>
	<ellipse style="opacity:0.2;fill:#AE312F;" cx="64.466" cy="447.339" rx="10.94" ry="4.031"/>
	<path style="opacity:0.2;fill:#AE312F;" d="M86.301,428.916c0,1.642-3.611,2.972-8.065,2.972c-4.454,0-8.065-1.331-8.065-2.972   c0-1.641,3.611-2.972,8.065-2.972C82.69,425.944,86.301,427.274,86.301,428.916z"/>
	<path style="opacity:0.2;fill:#AE312F;" d="M371.022,300.729c0,1.641-3.611,2.972-8.065,2.972c-4.454,0-8.065-1.331-8.065-2.972   c0-1.641,3.611-2.972,8.065-2.972C367.411,297.757,371.022,299.088,371.022,300.729z"/>
	<path style="opacity:0.2;fill:#AE312F;" d="M393.7,287.53c0,1.259-2.769,2.279-6.185,2.279c-3.416,0-6.185-1.021-6.185-2.279   c0-1.259,2.769-2.279,6.185-2.279C390.931,285.25,393.7,286.271,393.7,287.53z"/>
</g>















</svg>
