<?xml version="1.0" encoding="UTF-8"?>
<!-- Generator: Adobe Illustrator 25.2.3, SVG Export Plug-In . SVG Version: 6.00 Build 0)  -->
<svg xmlns="http://www.w3.org/2000/svg" xmlns:xlink="http://www.w3.org/1999/xlink" version="1.1" id="Capa_1" x="0px" y="0px" viewBox="0 0 512 512" style="enable-background:new 0 0 512 512;" xml:space="preserve" width="512" height="512">
<g>
	<g>
		<path style="fill:#AE312F;" d="M268.589,267.716c-0.654,0-1.213-0.497-1.277-1.16c-0.499-5.153,0.963-10.509,4.468-16.378    c5.831-9.762,15.283-17.107,24.422-24.21c12.086-9.393,23.5-18.263,27.581-32.308c2.595-8.928-0.469-16.007-3.497-20.373    c-5.354-7.723-14.671-12.974-24.314-13.702c-16.519-1.242-32.733,7.062-47.94,15.679c-7.575,4.292-16.138,3.74-24.414,3.212    c-2.205-0.142-4.484-0.287-6.657-0.329c-11.369-0.215-23.644-1.325-38.631-3.493c-18.899-2.734-38.434-8.764-56.49-17.439    c-27.589-13.253-41.55-28.401-42.681-46.306c-0.349-5.534,0.779-11.208,3.262-16.407c5.848-12.238,16.787-20.612,27.367-28.711    c5.824-4.457,11.845-9.067,16.785-14.193c10.114-10.494,13.331-22.715,8.826-33.529c-3.444-8.267-8.93-13.283-16.305-14.91    C105.311,0.115,87.223,9.571,76.24,19.639c-9.702,8.892-17.174,20.101-24.401,30.942c-1.126,1.688-2.25,3.374-3.381,5.05    c-0.398,0.587-1.194,0.742-1.784,0.346c-0.588-0.397-0.743-1.196-0.346-1.784c1.128-1.671,2.249-3.353,3.373-5.038    c7.31-10.968,14.871-22.308,24.802-31.411C86.345,6.892,104.894-2.608,119.648,0.65c8.241,1.818,14.339,7.345,18.123,16.431    c4.918,11.803,1.51,25.034-9.348,36.3c-5.074,5.264-11.174,9.935-17.073,14.45c-10.339,7.914-21.03,16.097-26.611,27.777    c-2.295,4.807-3.339,10.041-3.017,15.137c1.067,16.896,14.554,31.338,41.229,44.154c17.826,8.563,37.102,14.515,55.748,17.213    c14.878,2.151,27.051,3.253,38.31,3.466c2.231,0.042,4.541,0.191,6.773,0.333c7.9,0.506,16.073,1.03,22.983-2.884    c15.55-8.813,32.165-17.305,49.4-16.005c10.396,0.785,20.448,6.456,26.232,14.8c4.729,6.82,6.097,14.83,3.852,22.554    c-4.314,14.844-16.595,24.388-28.471,33.619c-8.952,6.958-18.209,14.151-23.793,23.499c-3.214,5.381-4.561,10.227-4.117,14.812    c0.069,0.706-0.448,1.335-1.154,1.402C268.672,267.714,268.631,267.716,268.589,267.716z"/>
		<path style="fill:#6CE1C1;" d="M396.119,430.029c0-28.332-70.491-51.297-157.451-51.297c-73.378,0-135.036,16.357-152.492,38.493    c-2.074-0.526-4.519-0.835-7.148-0.835c-7.441,0-13.472,2.437-13.472,5.443c0,3.006,6.032,5.443,13.472,5.443    c0.837,0,1.653-0.035,2.449-0.094c-0.158,0.943-0.245,1.892-0.245,2.847c0,12.245,13.177,23.502,35.168,32.315    c-0.65-0.777-0.989-1.61-0.989-2.486c0-4.138,7.81-7.5,17.457-7.5c9.632,0,17.443,3.362,17.443,7.5c0,4.138-7.81,7.5-17.443,7.5    c-0.833,0-1.667-0.028-2.472-0.071c15.816,4.884,34.74,8.706,55.702,11.124c-18.682,1.74-32.616,8.497-32.616,16.574    c0,9.397,18.853,17.014,42.109,17.014c23.256,0,42.109-7.617,42.109-17.014c0-0.333-0.03-0.665-0.077-0.993    c3.617,0.636,7.603,0.993,11.8,0.993c16.353,0,29.61-5.356,29.61-11.964c0-1.141-0.42-2.24-1.158-3.285    C345.865,474.06,396.119,453.963,396.119,430.029z"/>
		<path style="fill:#6CE1C1;" d="M138.458,457.528c0,1.598-3.207,2.894-7.164,2.894c-3.956,0-7.164-1.296-7.164-2.894    c0-1.599,3.207-2.895,7.164-2.895C135.251,454.633,138.458,455.929,138.458,457.528z"/>
		<g>
			<path style="fill:#FF5555;" d="M79.888,66.217c-0.902,1.836-5.273-0.505-6.583,1.124c-1.407,1.75,0.216,7.451-1.631,8.871     c-1.403,1.082-2.925,2.052-4.556,2.895c-13.783,7.066-30.403,2.158-37.127-10.96c-4.189-8.173-3.525-17.61,0.896-25.272     c0.889-1.53,7.677-2.209,8.857-3.573c1.613-1.864-2.26-4.331-0.136-5.781c1.004-0.688,2.082-1.322,3.194-1.896     c13.783-7.066,30.415-2.16,37.125,10.947C83.815,50.178,83.524,58.874,79.888,66.217z"/>
			<path style="fill:#FFFFFF;" d="M79.888,66.217c-1.87,3.809-4.648,7.254-8.214,9.995c-5.882-9.398-19.973-28.224-40.787-33.337     c2.104-3.622,5.043-6.844,8.721-9.354C48.779,34.6,69.537,39.954,79.888,66.217z"/>
			<path style="fill:#AE312F;" d="M33.594,73.426c0,0,10.7-1.792,11.498,7.514l-22.188,22.769L33.594,73.426z"/>
		</g>
		<g>
			<g>
				<path style="fill:#FF9D3D;" d="M294.161,259.49c0,0,30.357-25.604,60.398-15.432c30.042,10.171,49.842,55.094,55.987,72.916      c0,0,47.794-22.462,62.132-9.489c14.338,12.973-41.649,16.481-61.449,32.478c-19.8,15.998-52.445,35.21-99.619,0      C264.435,304.754,294.161,259.49,294.161,259.49z"/>
				<path style="opacity:0.2;fill:#AE312F;" d="M294.161,259.49c0,0,30.357-25.604,60.398-15.432      c30.042,10.171,49.842,55.094,55.987,72.916c0,0,47.794-22.462,62.132-9.489c14.338,12.973-41.649,16.481-61.449,32.478      c-19.8,15.998-52.445,35.21-99.619,0C264.435,304.754,294.161,259.49,294.161,259.49z"/>
			</g>
			<path style="fill:#FF9D3D;" d="M204.483,150.974c0,0,4.957-55.56,10.027-59.247c5.07-3.687,8.351-2.028,8.351-2.028     s1.97-6.465,7.996-6.729c7.386-0.324,9.464,5.438,9.464,5.438s10.14-0.999,13.827,8.995     c3.687,9.994,23.044,123.839,16.592,150.108c-6.452,26.269-56.229-16.567-56.229-16.567L204.483,150.974z"/>
			<g>
				<path style="fill:#FF9D3D;" d="M485.08,256.353c-8.413,4.187-17.854,10.096-25.239,20.05c-1.516,2.029-2.954,4.238-4.264,6.641      c-1.67,3.044-3.211,6.396-4.675,9.993c-13.872,34.23-19.536,90.913-42.977,117.347c-7.385,8.323-16.531,13.641-28.245,14.309      c-0.064,0-0.128,0.013-0.193,0.013c-17.211,0.963-29.35-2.736-37.814-7.848c-15.002-9.03-18.56-22.516-18.56-22.516      l14.257-5.061c0.886-0.295,7.09,7,19.228,10.186c6.743,1.773,15.323,2.273,25.843-0.526      c10.134-2.685,16.775-15.568,22.285-32.895c3.442-10.879,6.448-23.505,9.582-36.478c6.371-26.395,13.294-54.165,25.625-71.364      c6.743-9.402,13.834-15.876,20.77-20.115c21.9-13.474,42.207-4.817,45.007,3.558      C507.738,247.734,497.526,250.149,485.08,256.353z"/>
				<path style="opacity:0.2;fill:#AE312F;" d="M356.597,399.465c-2.029,8.4-9.068,14.052-14.925,17.391      c-15.002-9.03-18.56-22.516-18.56-22.516l14.257-5.061C338.255,388.984,344.459,396.28,356.597,399.465z"/>
				<path style="fill:#AE312F;" d="M485.08,256.353c-2.633-6.127,1.824-10.352,1.824-10.352c-12.215,2.697-21.758-3.93-26.202-7.912      c21.9-13.474,42.207-4.817,45.007,3.558C507.738,247.734,497.526,250.149,485.08,256.353z"/>
				<path style="fill:#AE312F;" d="M407.924,410.383c-7.385,8.323-16.531,13.641-28.245,14.309c-0.064,0-0.128,0.013-0.193,0.013      c2.505-5.356,7.309-9.492,12.767-11.804C397.173,410.82,402.58,410.126,407.924,410.383z"/>
				<path style="fill:#AE312F;" d="M421.179,363.539c-4.162,2.774-11.097,4.187-16.454,2.505      c3.442-10.879,6.448-23.505,9.582-36.478c6.923,0.796,13.127,6.422,14.861,13.294      C431.095,350.502,427.743,359.185,421.179,363.539z"/>
				<path style="fill:#AE312F;" d="M459.841,276.403c-1.516,2.029-2.954,4.238-4.264,6.641c-1.67,3.044-3.211,6.396-4.675,9.993      c-2.607-0.527-5.266-1.721-6.307-4.123c-0.642-1.516-0.514-3.237-0.244-4.855c0.296-1.747,0.784-3.545,1.94-4.881      c1.13-1.31,2.787-2.068,4.444-2.556C453.251,275.889,456.732,275.735,459.841,276.403z"/>
			</g>
			<path style="fill:#FF9D3D;" d="M257.342,111.38c0,0,5.374,3.757,4.637,5.378c-0.737,1.621-4.637-2.689-4.637-2.689     s5.439,6.432,2.533,11.118c-2.906,4.687-7.917-3.566-7.917-3.566L257.342,111.38z"/>
			<path style="opacity:0.2;fill:#AE312F;" d="M270.745,247.516c-6.461,26.267-56.233-16.569-56.233-16.569l-10.032-79.969     c0,0,0.63-7.129,1.683-16.441c0.501-4.444,1.092-9.389,1.76-14.296c1.837-13.525,4.2-26.781,6.589-28.515     c5.073-3.687,8.349-2.03,8.349-2.03s1.965-6.461,8.002-6.73c7.386-0.321,9.453,5.446,9.453,5.446s10.147-1.002,13.833,8.991     c0.321,0.886,0.771,2.581,1.31,4.945c0.552,2.376,1.182,5.433,1.888,9.03c0,0,5.369,3.763,4.637,5.382     c-0.552,1.207-2.864-0.873-3.995-2.017c0.013,0.077,0.026,0.167,0.038,0.244c1.362,1.927,4.085,6.576,1.85,10.199     c0.552,3.147,1.105,6.474,1.683,9.941c0.925,5.613,1.862,11.598,2.774,17.777c0.694,4.637,1.362,9.389,2.004,14.167     c1.053,7.745,2.029,15.58,2.864,23.223C271.927,214.994,273.186,237.548,270.745,247.516z"/>
			<path style="fill:#FF9D3D;" d="M321.66,420.761c-26.123,32.947-69.198,51.278-111.374,45.237     c-26.773-3.426-52.985-13.285-74.138-30.004c-42.544-31.641-61.963-97.693-60.215-145.617l146.336-83.887     c0,0,29.337,1.118,64.556,20.885c16.531,9.273,26.823,24.327,43.533,43.632C360.904,306.304,351.932,372.813,321.66,420.761z"/>
			<path style="fill:#AE312F;" d="M237.373,84.749c0.995,0.237,1.83,0.955,2.466,1.745c0.654,0.8,1.101,1.739,1.423,2.697     c0.321,0.964,0.482,1.961,0.545,2.957c0.04,0.997-0.03,1.993-0.263,2.968c-0.302-0.963-0.509-1.899-0.729-2.824     c-0.257-0.914-0.458-1.828-0.772-2.698c-0.271-0.884-0.619-1.733-1.037-2.55C238.573,86.235,238.085,85.446,237.373,84.749z"/>
			<path style="fill:#AE312F;" d="M224.071,87.202c-0.439,1.577-0.685,3.023-0.88,4.528c-0.109,0.748-0.168,1.504-0.259,2.272     c-0.082,0.771-0.148,1.549-0.314,2.37c-0.726-1.495-0.886-3.172-0.7-4.807c0.123-0.815,0.318-1.627,0.671-2.382     C222.935,88.434,223.395,87.705,224.071,87.202z"/>
			<path style="fill:#FF9D3D;" d="M214.075,234.671c0,0-54.845,53.87-118.952,56.837c-33.49,1.591-58.944-14.312-69.938-43.504     c-5.938-15.852-6.194-35.038,0.219-50.286c14.096-31.214,58.606-50.412,91.593-60.215c30.435-8.9,63.365-13.525,87.612,5.498     c13.458,10.209,21.916,25.794,25.008,42.412C235.533,213.306,220.004,231.189,214.075,234.671z"/>
			<g>
				<g>
					<path style="fill:#FFFFFF;" d="M189.038,197.886c-5.233,6.626-15.191,11.393-23.656,10.811       c-1.809-0.126-3.575-0.515-5.269-1.213c-7.348-3.069-13.315-10.622-15.694-18.157c-0.068-0.17-0.123-0.345-0.177-0.52       c-2.26-7.649-0.048-15.901,5.454-21.616c6.441-6.686,17.564-11.742,26.66-7.882c3.589,1.528,6.876,4.18,9.555,7.487       l0.014-0.006C193.098,175.583,196.039,189.003,189.038,197.886z"/>
					<path style="fill:#AE312F;" d="M189.038,197.886c-6.026,7.259-15.792,11.945-25.31,11.007       c-9.785-1.645-17.055-10.254-20.336-19.241l0.028,0.078c-8.308-24.267,27.326-45.439,42.89-23.256l-0.587-0.154       c0.013-0.005,0.364-0.134,0.378-0.139C192.929,174.852,196.328,188.529,189.038,197.886z M189.038,197.886       c7.153-9.216,3.57-22.589-3.509-30.772l0.585,0.152c-0.011,0.005-0.335,0.143-0.348,0.148       c-3.446-4.093-8.14-7.652-13.527-8.309c-12.702-1.103-26.626,9.191-27.618,22.219c-0.569,7.26,2.838,14.271,7.57,19.652       C162.006,213.194,180.038,208.819,189.038,197.886z"/>
				</g>
				<path style="fill:#AE312F;" d="M172.878,201.12c6.185-1.498,11.811-6.355,13.355-12.658      c2.461-10.042-4.823-21.246-14.998-22.804c-5.463-0.837-11.717,1.027-15.686,4.916c-10.606,10.394-1.781,29.401,12.137,30.919      C169.4,201.68,171.157,201.536,172.878,201.12z"/>
				<path style="opacity:0.21;fill:#AE312F;" d="M185.911,166.797c-30.621-1.827-40.373,19.764-41.492,22.531      c-0.068-0.17-0.123-0.345-0.177-0.52c-2.26-7.649-0.048-15.901,5.454-21.616c6.441-6.686,17.564-11.742,26.66-7.882      C179.945,160.838,183.231,163.49,185.911,166.797z"/>
			</g>
			<g>
				<g>
					<path style="fill:#FFFFFF;" d="M101.253,241.49c-5.233,6.626-15.191,11.394-23.656,10.811       c-1.809-0.126-3.575-0.515-5.269-1.212c-7.348-3.069-13.315-10.622-15.694-18.158c-0.068-0.17-0.123-0.345-0.177-0.52       c-2.26-7.649-0.047-15.901,5.454-21.616c6.441-6.686,17.564-11.742,26.66-7.882c3.589,1.528,6.876,4.18,9.555,7.487       l0.014-0.006C105.313,219.186,108.255,232.607,101.253,241.49z"/>
					<path style="fill:#AE312F;" d="M101.253,241.49c-6.026,7.259-15.792,11.945-25.31,11.007       c-9.785-1.645-17.055-10.254-20.337-19.24l0.028,0.078c-8.308-24.266,27.326-45.439,42.89-23.256l-0.592-0.152       c0.013-0.005,0.367-0.14,0.381-0.145C105.144,218.452,108.545,232.132,101.253,241.49z M101.253,241.49       c7.153-9.215,3.57-22.59-3.509-30.771l0.591,0.15c-0.01,0.005-0.339,0.148-0.35,0.153c-3.446-4.095-8.142-7.654-13.529-8.312       c-12.702-1.103-26.626,9.191-27.619,22.22c-0.569,7.259,2.838,14.272,7.57,19.651       C74.221,256.798,92.255,252.422,101.253,241.49z"/>
				</g>
				<path style="fill:#AE312F;" d="M85.094,244.723c6.185-1.498,11.811-6.355,13.355-12.658      c2.461-10.042-4.823-21.246-14.998-22.804c-5.463-0.837-11.717,1.027-15.686,4.916c-10.606,10.395-1.781,29.402,12.137,30.92      C81.616,245.284,83.373,245.14,85.094,244.723z"/>
				<path style="opacity:0.21;fill:#AE312F;" d="M98.127,210.4c-30.621-1.826-40.373,19.764-41.493,22.531      c-0.068-0.17-0.123-0.345-0.177-0.52c-2.26-7.649-0.047-15.901,5.454-21.616c6.441-6.686,17.564-11.742,26.66-7.882      C92.161,204.441,95.447,207.093,98.127,210.4z"/>
			</g>
			<path style="fill:#AE312F;" d="M125.693,199.239c0,0-7.037-2.38-8.9,0c-1.863,2.38,5.692,5.485,11.176,3.932     c0,0,5.381-8.693,1.449-10.969C125.486,189.926,125.693,199.239,125.693,199.239z"/>
			<path style="fill:#AE312F;" d="M136.258,242.32c-0.9-3.363-1.722-6.743-2.577-10.116l-2.44-10.146l-2.336-10.169     c-0.76-3.394-1.573-6.776-2.29-10.179l-0.35-1.661l1.338,1.021c2.662,2.032,5.231,4.141,7.765,6.308     c2.533,2.164,5.007,4.398,7.389,6.728c2.384,2.327,4.7,4.725,6.918,7.209c2.18,2.519,4.279,5.11,6.172,7.844     c-2.11-2.571-4.293-5.067-6.608-7.442c-2.316-2.371-4.676-4.697-7.13-6.925c-4.92-4.431-9.958-8.765-15.255-12.713l0.987-0.641     c0.787,3.388,1.48,6.797,2.225,10.194l2.179,10.204l2.075,10.227C134.97,235.481,135.653,238.892,136.258,242.32z"/>
			<path style="fill:#AE312F;" d="M64.547,194.281c-0.049,0.447-0.061,0.929,0.174,1.313c0.293,0.478,0.882,0.672,1.43,0.788     c2.584,0.545,5.362,0.11,7.655-1.199c0.558-0.319,1.101-0.7,1.463-1.231c0.442-0.649,0.571-1.458,0.629-2.241     c0.09-1.237,0.024-2.506-0.4-3.672C72.886,180.866,64.994,190.183,64.547,194.281z"/>
			<path style="fill:#AE312F;" d="M151.018,155.5c0.341,0.293,0.678,0.637,0.769,1.078c0.113,0.549-0.186,1.093-0.507,1.552     c-1.516,2.162-3.843,3.74-6.412,4.349c-0.626,0.148-1.283,0.241-1.91,0.099c-0.766-0.172-1.413-0.675-1.989-1.208     c-0.91-0.842-1.729-1.815-2.214-2.956C135.768,151.388,147.894,152.811,151.018,155.5z"/>
			<path style="fill:#FF9D3D;" d="M48.586,210.668c-0.347,0.102-0.694,0.203-1.041,0.279c-25.091,6.452-44.356-20.924-41.164-27.67     c0.052-0.116,0.116-0.244,0.181-0.359c3.436-6.566,14.362-9.399,27.013-9.208c12.883,0.178,24.074-9.872,24.074-9.872     S74.168,203.176,48.586,210.668z"/>
			<path style="fill:#FF9D3D;" d="M189.578,130.037c0,0,0.004,0.013-0.006,0.028c-0.324,1.751-0.761,3.48-1.351,5.183     c0.003,0.012-0.009,0.016-0.018,0.032c-1.168,3.403-2.92,6.712-5.359,9.794c-16.549,20.902-43.771-11.714-43.771-11.714     s13.503-6.597,18.183-18.603c4.231-10.913,10.301-19.503,17.028-21.298c0.682-0.185,1.359-0.288,2.053-0.33     C182.198,92.807,192.896,111.773,189.578,130.037z"/>
			<path style="fill:#AE312F;" d="M189.581,130.041c0,0,0,0.013-0.013,0.026c-0.013,0.283-0.244,2.608-1.349,5.176     c0,0.013-0.013,0.026-0.013,0.039c-0.616,1.438-1.875,3.095-3.545,4.56c-4.103,1.778-4.929,2.626-9.103,1.778     c-10.275-2.107,3.507-20.348,2.758-35.02c0.437-5.061-0.475-9.685-4.033-13.14c0.681-0.18,1.362-0.283,2.055-0.334     C182.196,92.805,192.895,111.776,189.581,130.041z"/>
			<path style="fill:#AE312F;" d="M47.548,210.948c-25.098,6.448-44.365-20.924-41.166-27.667c0.051-0.116,0.116-0.244,0.18-0.359     c1.297,1.618,3.506,3.725,7.129,5.497c3.66,1.772,8.007,5.515,15.033,5.733c8.02,1.081,16.758,6.453,19.031,11.915     C47.997,207.916,47.882,209.625,47.548,210.948z"/>
			<path style="fill:#FFFFFF;" d="M180.642,129.629c0,0,4.226,4.47,4.02,10.212c-2.941,2.594-7.142,4.585-11.316,3.738     c-10.275-2.107,3.635-21.54,4.971-36.979c1.631,3.725,3.224,9.518,1.58,15.991c0,0,4.161-3.982,5.343-3.314     c1.13,0.668-3.417,6.217-3.674,6.525c0.231-0.167,2.903-2.107,3.853-0.989C186.409,125.982,180.642,129.629,180.642,129.629z"/>
			<path style="fill:#FFFFFF;" d="M47.753,206.067c-13.885,7.219-19.755-6.512-19.755-6.512s-0.732,3.404-2.8,2.813     c-1.978-0.578-0.167-3.712-0.013-3.982c-0.154,0.077-3.288,1.747-4.534,1.169c-1.285-0.591,1.734-2.941,1.734-2.941     c-5.395-1.387-7.796-5.87-8.696-8.195c3.66,1.772,8.747,3.198,15.773,3.417C42.384,192.22,46.983,199.914,47.753,206.067z"/>
			<path style="fill:#AE312F;" d="M122.687,168.985c-0.424,2.608-2.081,5.176-4.598,5.985c-3.404,1.105-6.91-1.181-9.543-3.596     c-4.586-4.213-8.4-9.171-12.678-13.68c-2.98-3.134-6.242-6.101-9.98-8.298c-0.218-0.128-0.45-0.27-0.681-0.411     c8.49-3.751,17.289-7.013,25.997-9.736c4.765,6.615,8.374,14.052,10.61,21.9C122.533,163.693,123.124,166.365,122.687,168.985z"/>
			<path style="fill:#AE312F;" d="M131.435,146.623c-0.912,1.76-2.928,3.082-4.868,2.633c-1.952-0.45-3.108-2.402-4.136-4.123     c-1.477-2.492-3.134-4.868-4.958-7.103c-0.141-0.18-0.308-0.347-0.475-0.527c4.74-1.374,9.415-2.582,13.975-3.609     c0.655,2.248,1.092,4.56,1.271,6.897C132.398,142.769,132.359,144.85,131.435,146.623z"/>
			<path style="fill:#AE312F;" d="M83.756,165.607c-0.231,1.747-1.516,3.481-3.262,3.661c-0.861,0.09-1.721-0.193-2.53-0.501     c-4.675-1.721-11.072-4.47-15.157-8.31c5.061-3.031,10.417-5.883,15.953-8.516c1.528,2.749,2.877,5.6,4.007,8.529     C83.396,162.113,83.974,163.86,83.756,165.607z"/>
			<path style="fill:#AE312F;" d="M227.19,175.844c-2.402,2.029-5.022,3.815-7.655,5.536c-3.776,2.44-8.195,4.868-12.549,3.763     c-1.464-0.36-2.839-1.143-3.776-2.312c-1.965-2.441-1.657-6.114-0.154-8.863c1.49-2.761,3.943-4.842,6.23-6.987     c2.492-2.312,4.894-4.868,6.563-7.861c0.629-1.118,0.912-2.299,1.143-3.468C221.397,161.638,224.826,168.445,227.19,175.844z"/>
			<path style="fill:#AE312F;" d="M215.013,153.083c-1.708,1.837-3.687,3.404-6.063,4.444c-2.762,1.195-6.705,2.608-8.953-0.27     c-0.604-0.758-0.848-1.721-0.848-2.71c-0.013-4.007,3.365-6.641,4.894-10.057c0.206-0.475,0.385-0.976,0.565-1.49     C208.475,145.955,211.943,149.333,215.013,153.083z"/>
			<path style="fill:#AE312F;" d="M230.838,196.434c-2.672,0.462-5.421,0.449-8.092-0.051c-1.773-0.321-3.596-0.925-4.791-2.261     c-1.208-1.349-1.516-3.622-0.257-4.907c0.617-0.629,1.49-0.938,2.312-1.271c3.006-1.22,5.729-3.121,7.912-5.51     c0.296-0.321,0.565-0.694,0.822-1.066c0.321,1.336,0.617,2.684,0.873,4.046C230.362,189.343,230.748,193.017,230.838,196.434z"/>
			<path style="opacity:0.48;fill:#AE312F;" d="M119.495,209.116c-2.394,2.654-3.855,6.551-3.47,10.906     c0.557,6.313,3.806,12.586,9.56,14.928c3.571,1.454,7.159,1.182,10.404,0.327c6.219-1.638,12.23-3.762,16.444-8.916     c1.529-1.87,2.814-4.071,3.361-6.718c0.838-4.057-0.206-9.044-2.738-13.075c-2.532-4.031-6.491-7.01-10.379-7.809     c-4.783-0.983-9.809,0.967-13.421,3.369C126.037,204.269,122.128,206.198,119.495,209.116z"/>
			<path style="opacity:0.48;fill:#EB4949;" d="M184.137,208.954c-2.316,3.664-0.829,8.519,3.931,9.247     c6.374,0.976,15.638-3.668,18.412-9.561c2.342-4.975-2.597-10.092-7.181-9.421c-3.875,0.567-7.432,2.462-10.432,4.871     C187.472,205.211,185.435,206.901,184.137,208.954z"/>
			<path style="opacity:0.48;fill:#EB4949;" d="M77.763,257.607c-2.956,3.17-2.395,8.216,2.147,9.816     c6.082,2.142,16.047-0.703,19.866-5.978c3.225-4.454-0.679-10.398-5.308-10.59c-3.913-0.162-7.76,1.04-11.155,2.851     C81.736,254.547,79.42,255.83,77.763,257.607z"/>
			<path style="fill:#AE312F;" d="M53.392,256.867c-1.464,2.312-3.879,3.802-6.281,5.099c-3.674,1.965-7.527,3.648-11.509,4.842     c-4.508-5.729-7.976-12.112-10.417-18.804c0.167,0.038,0.321,0.064,0.488,0.09c6.82,1.053,13.743-0.257,20.577-0.552     c2.428-0.116,5.151,0.025,6.859,1.76C55.023,251.241,54.843,254.567,53.392,256.867z"/>
			<path style="fill:#AE312F;" d="M56.179,270.97c-0.385,3.674-2.505,7.026-5.279,9.479c-0.064,0.064-0.128,0.116-0.205,0.167     c-4.598-2.993-8.644-6.486-12.164-10.365c2.53-0.719,4.997-1.567,7.398-2.954c1.297-0.758,2.569-1.593,4.007-2.055     c1.426-0.462,3.096-0.475,4.341,0.36C55.935,266.718,56.372,268.979,56.179,270.97z"/>
			<path style="fill:#AE312F;" d="M34.78,243.483c-1.208,0.655-2.633,0.771-4.008,0.719c-2.505-0.103-4.945-0.693-7.321-1.503     c-1.644-5.806-2.556-11.753-2.749-17.623c0.411,0.398,0.784,0.822,1.143,1.22c3.507,3.93,7.488,7.411,11.856,10.34     c1.323,0.886,2.8,1.914,3.018,3.481C36.9,241.479,35.988,242.815,34.78,243.483z"/>
			<path style="fill:#FFC893;" d="M321.66,420.761c-115.535-51.48-126.993-159.232-90.823-182.802     c21.476-13.988,42.271-13.487,55.989-10.584c16.531,9.273,34.372,22.67,51.082,41.975     C368.453,304.648,359.898,374.29,321.66,420.761z"/>
			<path style="fill:#FF9D3D;" d="M188.651,440.452c-7.938-9.279-13.156-21.404-16.566-35.437     c-3.817-15.708-5.335-32.352-2.191-48.317c3.232-16.412,11.725-31.161,24.846-41.639c54.753-43.724,120.25,37.471,120.25,35.305     c0-2.165,20.122-51.977,56.836-55.754c19.726-2.029,18.647,16.174,5.038,20.448c-16.923,5.317-29.761,31.818-36.096,46.66     c-4.787,11.215-5.026,23.298-8.904,34.849c-7.785,23.189-23.372,43.342-45.175,54.838c-27.923,14.723-70.333,15.888-94.345-7.055     C191.049,443.114,189.816,441.813,188.651,440.452z"/>
			<g style="opacity:0.48;">
				<path style="fill:#AE312F;" d="M137.137,310.646c0.909,4.002,2.081,7.951,3.699,11.713c1.615,3.753,3.743,7.312,6.515,10.281      c2.76,2.969,6.288,5.229,10.195,6.235c3.882,1,8.12,0.847,11.862-0.431l0.139-0.048l0.15,0.029l1.598,0.31      c0.538,0.044,1.074,0.13,1.611,0.143c1.073,0.029,2.146-0.047,3.175-0.3c1.024-0.264,2.001-0.682,2.868-1.267      c0.856-0.571,1.651-1.357,2.142-2.174l0.117-0.194l0.247-0.084c0.474-0.162,1.109-0.596,1.581-1.06      c0.49-0.483,0.948-1.015,1.342-1.603c0.805-1.162,1.431-2.465,1.961-3.803c0.545-1.335,0.935-2.737,1.311-4.139      c0.127-0.7,0.247-1.386,0.333-2.091l0.091-2.154c-0.145-5.794-1.318-11.598-3.163-17.131c-1.858-5.533-4.309-10.886-7.54-15.742      c-3.219-4.85-7.224-9.209-12.005-12.522c-4.753-3.374-10.305-5.472-16.066-6.366c-2.88-0.453-5.801-0.756-8.721-0.641      c-1.458,0.052-2.926-0.007-4.373,0.216c-1.449,0.182-2.915,0.261-4.339,0.605c-11.483,2.181-22.268,8.171-30.27,16.824      c7.796-8.81,18.459-15.258,30.124-17.581c1.443-0.368,2.929-0.471,4.4-0.676c1.47-0.246,2.961-0.209,4.445-0.282      c2.971-0.157,5.95,0.109,8.891,0.53c5.899,0.802,11.658,2.996,16.556,6.429c4.937,3.387,9.063,7.843,12.375,12.784      c3.308,4.953,5.883,10.376,7.725,16.027c1.85,5.647,3.022,11.532,3.145,17.526l-0.106,2.261      c-0.092,0.754-0.23,1.524-0.373,2.269c-0.393,1.441-0.801,2.882-1.376,4.276c-0.562,1.394-1.223,2.764-2.103,4.023      c-0.43,0.634-0.938,1.224-1.5,1.771c-0.596,0.539-1.169,1.018-2.097,1.325l0.363-0.278c-0.664,1.094-1.52,1.886-2.507,2.558      c-0.983,0.662-2.093,1.109-3.23,1.387c-1.143,0.265-2.312,0.329-3.466,0.282c-0.576-0.023-1.144-0.12-1.716-0.177l-1.68-0.35      l0.289-0.018c-4.044,1.318-8.363,1.387-12.413,0.301c-4.044-1.107-7.68-3.49-10.435-6.59c-2.761-3.106-4.817-6.759-6.35-10.574      C139.023,318.652,137.948,314.669,137.137,310.646z"/>
				<path style="fill:#AE312F;" d="M169.585,338.893c0.146-1.819-0.031-3.603-0.326-5.342c-0.319-1.737-0.808-3.43-1.467-5.06      c-0.365-0.799-0.681-1.624-1.128-2.387c-0.377-0.801-0.862-1.54-1.321-2.303c-0.444-0.773-1.01-1.466-1.498-2.224      c-0.515-0.74-1.109-1.417-1.627-2.18c0.722,0.555,1.416,1.155,2.103,1.768c0.616,0.676,1.306,1.305,1.841,2.058      c1.173,1.435,2.069,3.081,2.82,4.784c0.676,1.737,1.141,3.564,1.269,5.423C170.391,335.278,170.221,337.171,169.585,338.893z"/>
				<path style="fill:#AE312F;" d="M181.581,335.402c-0.004-1.658-0.061-3.292-0.117-4.913c-0.073-1.62-0.182-3.231-0.427-4.811      c-0.222-1.58-0.539-3.15-1.105-4.624c-0.57-1.467-1.32-2.878-2.484-4.08c1.47,0.795,2.635,2.156,3.401,3.674      c0.807,1.516,1.204,3.19,1.459,4.848c0.231,1.668,0.287,3.347,0.155,5.008C182.348,332.164,182.068,333.813,181.581,335.402z"/>
			</g>
			<path style="opacity:0.48;fill:#AE312F;" d="M195.407,240.963c1.572-1.118,3.143-2.233,4.687-3.382     c1.538-1.154,3.067-2.329,4.495-3.581l0.656-0.575l-0.049,0.895c-0.059,1.065,0.033,2.245,0.51,3.118     c0.241,0.431,0.588,0.729,1.016,0.831c0.243,0.078,0.358,0.053,0.464-0.005c0.105-0.067,0.226-0.228,0.312-0.443     c0.338-0.899,0.337-2.079,0.321-3.176c-0.034-1.115-0.144-2.253-0.305-3.355l-0.22-1.502l1.167,0.986     c0.73,0.617,1.541,1.202,2.366,1.683c0.808,0.461,1.753,0.895,2.46,0.82c0.179-0.025,0.126-0.047,0.127-0.016     c-0.007-0.006,0.033-0.154-0.03-0.345c-0.087-0.373-0.282-0.81-0.513-1.222c-0.459-0.828-1.024-1.654-1.6-2.425l-0.397-0.532     l0.537-0.379c2.409-1.698,4.688-3.685,6.719-5.848c2.001-2.19,3.796-4.6,4.9-7.322l0.553-1.362l0.317,1.424     c0.267,1.2,0.672,2.508,1.437,3.379c0.099,0.1,0.2,0.195,0.31,0.265c0.08,0.063,0.058,0.025,0.042,0.042     c-0.007-0.009-0.001,0.008,0.04-0.022c0.156-0.08,0.364-0.359,0.521-0.611c0.329-0.527,0.609-1.118,0.875-1.709     c1.047-2.388,1.845-4.902,2.655-7.401c-0.565,2.571-1.241,5.114-2.134,7.614c-0.234,0.623-0.473,1.244-0.822,1.845     c-0.189,0.298-0.335,0.605-0.74,0.879c-0.096,0.069-0.249,0.119-0.422,0.126c-0.175-0.014-0.358-0.1-0.405-0.144     c-0.173-0.101-0.316-0.225-0.453-0.355c-1.014-1.093-1.427-2.399-1.791-3.72l0.87,0.061c-0.527,1.466-1.24,2.849-2.064,4.157     c-0.864,1.279-1.822,2.484-2.844,3.628c-2.077,2.265-4.345,4.301-6.85,6.117l0.14-0.911c0.643,0.83,1.225,1.664,1.723,2.608     c0.249,0.47,0.48,0.958,0.617,1.566c0.063,0.292,0.119,0.673-0.076,1.134c-0.23,0.485-0.789,0.693-1.109,0.701     c-1.334,0.068-2.275-0.514-3.194-1.016c-0.905-0.546-1.725-1.154-2.523-1.845l0.947-0.516c0.156,1.172,0.251,2.323,0.272,3.502     c-0.003,1.179,0.013,2.363-0.505,3.612c-0.144,0.305-0.356,0.649-0.75,0.877c-0.401,0.232-0.912,0.18-1.203,0.063     c-0.69-0.19-1.246-0.742-1.529-1.325c-0.567-1.193-0.575-2.408-0.473-3.61l0.607,0.319c-1.509,1.245-3.116,2.318-4.735,3.372     C198.717,238.981,197.078,239.999,195.407,240.963z"/>
			<path style="fill:#FFC893;" d="M221.21,103.514c-0.702,1-1.062,2.241-0.981,3.462c0.19,2.854,2.68,5.134,5.407,5.996     c3.533,1.116,8.508,0.903,12.009-0.292c2.686-0.917,5.149-2.759,6.334-5.339c1.879-4.09-0.251-9.29-4.984-9.733     c-3.737-0.349-6.54,1.822-9.82,3.117c-2.512,0.992-5.253-0.015-7.365,2.076C221.589,103.021,221.388,103.26,221.21,103.514z"/>
			<path style="fill:#FFC893;" d="M244.002,93.939c-0.498,0.487-0.677,1.242-0.569,1.931c0.108,0.689,0.472,1.316,0.923,1.847     c0.948,1.115,2.437,1.883,3.87,1.584c0.419-0.087,0.828-0.269,1.124-0.578c0.249-0.26,0.406-0.597,0.5-0.945     c0.239-0.891,0.063-1.884-0.469-2.638C248.426,93.786,245.366,92.605,244.002,93.939z"/>
			<path style="fill:#FFC893;" d="M215.665,95.016c-0.653,0.523-1.079,1.409-0.841,2.211c0.243,0.815,1.069,1.31,1.875,1.585     c1.214,0.415,2.628,0.491,3.718-0.186c0.242-0.15,0.467-0.339,0.61-0.585c0.293-0.503,0.197-1.133,0.092-1.706     C220.594,93.484,217.72,93.369,215.665,95.016z"/>
			<path style="fill:#FFC893;" d="M230.134,87.452c-1.097,0.257-2.153,0.905-2.654,1.914c-0.287,0.577-0.377,1.233-0.384,1.877     c-0.006,0.525,0.045,1.068,0.297,1.527c0.238,0.434,0.637,0.758,1.062,1.013c1.573,0.945,3.546,1.038,5.331,0.614     c0.917-0.218,1.861-0.607,2.386-1.391c1.098-1.642,0.605-3.896-1.073-4.887C233.676,87.281,231.729,87.079,230.134,87.452z"/>
			<path style="fill:#AE312F;" d="M372.506,306.046c0.976,0.057,1.911,0.356,2.791,0.764c0.885,0.406,1.7,0.968,2.435,1.632     c0.718,0.682,1.326,1.5,1.738,2.409c0.426,0.905,0.576,1.924,0.488,2.883c-0.444-0.876-0.829-1.673-1.36-2.389     c-0.533-0.704-1.091-1.373-1.745-1.967C375.562,308.165,374.084,307.151,372.506,306.046z"/>
			<path style="opacity:0.48;fill:#AE312F;" d="M248.422,239.164c0.455-1.057,1.155-1.991,1.835-2.917     c0.697-0.918,1.444-1.802,2.249-2.637c0.806-0.834,1.677-1.616,2.652-2.279c0.967-0.664,2.04-1.238,3.251-1.493     c0.603-0.124,1.238-0.162,1.87-0.073c0.596,0.099,1.355,0.278,1.822,1.016c0.427,0.766,0.214,1.542-0.001,2.117     c-0.24,0.596-0.557,1.115-0.896,1.609c-1.387,1.949-3.047,3.562-4.797,5.119l-0.639-1.013c1.635-0.726,3.285-1.323,4.995-1.825     c1.716-0.457,3.478-0.842,5.344-0.775c0.465-0.001,0.932,0.088,1.419,0.18c0.249,0.069,0.515,0.145,0.819,0.372     c0.149,0.118,0.32,0.312,0.389,0.575c0.07,0.263,0.02,0.511-0.048,0.683c-0.305,0.656-0.695,0.899-1.06,1.211     c-0.373,0.287-0.753,0.532-1.137,0.766c-1.544,0.916-3.122,1.67-4.755,2.355l-0.207-1.014c1.502,0.014,3.067,0.124,4.568,0.477     c1.505,0.349,2.948,0.943,4.268,1.726c1.323,0.785,2.473,1.814,3.509,2.915c1.059,1.089,1.899,2.356,2.695,3.626     c-0.924-1.184-1.849-2.367-2.956-3.366c-1.087-1.013-2.28-1.906-3.579-2.594c-1.294-0.693-2.682-1.195-4.117-1.464     c-1.44-0.271-2.891-0.314-4.388-0.264l-2.599,0.086l2.392-1.101c1.556-0.716,3.13-1.469,4.568-2.36     c0.357-0.224,0.706-0.458,1.02-0.707c0.302-0.231,0.623-0.559,0.671-0.711c-0.017-0.076,0.041,0.16,0.026,0.096     c-0.046-0.035-0.201-0.105-0.372-0.142c-0.367-0.056-0.765-0.137-1.172-0.127c-1.628-0.047-3.314,0.346-4.953,0.787     c-1.641,0.456-3.283,1.027-4.842,1.696l-3.607,1.546l2.968-2.559c1.694-1.461,3.368-3.054,4.666-4.832     c0.317-0.445,0.604-0.91,0.798-1.377c0.196-0.463,0.28-0.936,0.124-1.204c-0.133-0.284-0.59-0.499-1.095-0.59     c-0.503-0.092-1.028-0.086-1.551-0.002c-2.126,0.379-4.006,1.824-5.692,3.299C251.216,235.532,249.63,237.226,248.422,239.164z"/>
			<path style="opacity:0.48;fill:#AE312F;" d="M144.523,329.566c-1.005,3.241-2.22,6.418-3.593,9.533     c-1.41,3.098-3.032,6.106-4.901,8.973c-1.873,2.863-4.093,5.521-6.657,7.831c-2.563,2.306-5.545,4.2-8.821,5.39     c-3.275,1.2-6.816,1.574-10.264,1.307c-3.453-0.299-6.827-1.201-9.97-2.582c-6.285-2.769-11.874-6.903-16.509-11.853     c2.489,2.302,5.164,4.39,7.994,6.226c2.806,1.868,5.782,3.475,8.894,4.714c1.564,0.598,3.152,1.12,4.765,1.537     c1.62,0.385,3.261,0.677,4.916,0.792c3.304,0.217,6.652-0.181,9.741-1.349c3.115-1.091,5.984-2.859,8.483-5.057     c2.515-2.191,4.655-4.791,6.617-7.512C139.075,342.005,141.998,335.853,144.523,329.566z"/>
			<path style="opacity:0.48;fill:#AE312F;" d="M189.999,316.039c4.178-3.341,8.804-6.132,13.7-8.34     c4.91-2.185,10.086-3.762,15.389-4.722c10.633-1.892,21.652-0.895,31.983,2.08c10.335,3.062,20.046,7.953,28.947,13.931     c8.875,6.02,17.127,12.99,24.251,20.975c-3.733-3.828-7.72-7.393-11.874-10.741c-4.139-3.365-8.434-6.537-12.921-9.409     c-8.943-5.762-18.545-10.601-28.761-13.524c-10.162-3.033-20.966-3.995-31.461-2.342c-5.241,0.827-10.394,2.283-15.305,4.327     C199.009,310.27,194.349,312.931,189.999,316.039z"/>
			<path style="opacity:0.48;fill:#AE312F;" d="M151.811,384.862c-2.241-0.723-4.411-1.684-6.446-2.913     c-1.008-0.629-1.977-1.345-2.81-2.24c-0.814-0.879-1.508-2.083-1.373-3.442c0.041-0.67,0.503-1.41,1.165-1.697     c0.645-0.289,1.303-0.32,1.924-0.3c1.247,0.064,2.421,0.367,3.566,0.718c2.292,0.715,4.457,1.684,6.578,2.788l-0.678,0.88     c-1.404-1.526-2.676-3.125-3.782-4.889c-0.548-0.882-1.047-1.808-1.42-2.817c-0.353-1-0.641-2.142-0.307-3.361     c0.178-0.595,0.533-1.178,1.051-1.536l0.372-0.293c0.136-0.081,0.299-0.131,0.45-0.193c0.155-0.054,0.309-0.125,0.467-0.152     l0.483-0.026c1.297,0.014,2.28,0.665,3.13,1.293c1.691,1.331,2.989,2.93,4.18,4.646l-1.072,0.237     c0.986-5.464,2.581-10.731,4.549-15.87c0.99-2.563,2.032-5.108,3.257-7.567c1.181-2.478,2.501-4.886,3.897-7.242     c-1.202,2.463-2.409,4.917-3.445,7.447c-1.06,2.518-2.042,5.066-2.934,7.644c-0.901,2.575-1.672,5.193-2.373,7.824     c-0.714,2.622-1.348,5.291-1.788,7.943l-0.236,1.422l-0.837-1.184c-1.124-1.591-2.438-3.154-3.95-4.307     c-0.747-0.561-1.606-1.029-2.357-1.008l-0.275,0.009c-0.088,0.016-0.164,0.067-0.248,0.092c-0.081,0.035-0.171,0.047-0.249,0.093     l-0.22,0.182c-0.331,0.205-0.531,0.545-0.648,0.91c-0.227,0.753-0.058,1.698,0.256,2.583c0.318,0.893,0.771,1.767,1.282,2.607     c1.025,1.678,2.266,3.276,3.585,4.74l2.132,2.366l-2.81-1.486c-2.043-1.08-4.174-2.074-6.346-2.849     c-1.087-0.375-2.206-0.696-3.31-0.787c-0.546-0.039-1.098-0.012-1.54,0.17c-0.432,0.19-0.691,0.558-0.76,1.06     c-0.146,1.033,0.38,2.091,1.104,2.943c0.724,0.869,1.623,1.618,2.575,2.285C147.529,382.897,149.638,383.964,151.811,384.862z"/>
			<path style="fill:#AE312F;" d="M454.105,312.401c1.204-0.41,2.494-0.517,3.772-0.447c1.282,0.068,2.56,0.376,3.763,0.888     c1.203,0.513,2.294,1.316,3.152,2.297c0.901,0.953,1.436,2.181,1.763,3.386c-0.814-0.981-1.526-1.943-2.468-2.673     c-0.908-0.742-1.879-1.396-2.966-1.836C458.976,313.068,456.605,312.649,454.105,312.401z"/>
			<path style="opacity:0.48;fill:#AE312F;" d="M410.546,316.974c0.167,1.474,0.265,2.957,0.3,4.444     c0.025,1.487,0.045,2.982-0.198,4.487c-0.165,0.744-0.217,1.53-0.936,2.26c-0.218,0.185-0.497,0.239-0.766,0.274     c-0.294-0.023-0.583-0.13-0.766-0.313c-0.374-0.346-0.549-0.742-0.689-1.116c-0.516-1.518-0.625-3.01-0.697-4.538l1.074,0.11     c-0.32,1.514-0.711,2.985-1.19,4.451c-0.489,1.46-1.035,2.912-1.888,4.281c-0.44,0.67-0.938,1.369-1.801,1.833     c-0.425,0.237-1.004,0.314-1.449,0.256c-0.469-0.025-1.023-0.229-1.404-0.629c-0.761-0.854-0.732-1.834-0.684-2.633     c0.071-0.834,0.253-1.59,0.518-2.374l1.092,0.509c-1.174,1.888-2.486,3.616-3.899,5.29c-1.405,1.674-2.982,3.2-4.637,4.625     c-1.685,1.392-3.477,2.663-5.411,3.679c-1.952,0.984-4.025,1.711-6.156,2.087c2.078-0.613,4.062-1.443,5.894-2.555     c1.804-1.15,3.524-2.418,5.096-3.866c1.564-1.456,2.991-3.048,4.362-4.683c1.349-1.645,2.627-3.389,3.707-5.187l2.707-4.504     l-1.615,5.013c-0.21,0.652-0.374,1.382-0.417,2.058c-0.057,0.676,0.051,1.364,0.357,1.647c0.236,0.281,0.967,0.371,1.375,0.146     c0.491-0.24,0.96-0.791,1.34-1.374c0.772-1.193,1.332-2.587,1.821-3.987c0.483-1.405,0.892-2.859,1.22-4.303l1.068-4.7     l0.006,4.81c0.002,1.423,0.059,2.932,0.447,4.243c0.096,0.322,0.245,0.623,0.407,0.785c0.081,0.094,0.151,0.097,0.223,0.128     c0.095-0.03,0.194-0.02,0.268-0.081c0.374-0.312,0.605-1.098,0.749-1.77c0.284-1.413,0.418-2.892,0.489-4.364     C410.532,319.938,410.552,318.457,410.546,316.974z"/>
			<path style="fill:#AE312F;" d="M264.336,152.904c-4.072,1.194-8.452,1.387-12.703,1.028c-1.94-0.167-3.918-0.463-5.587-1.439     c-1.683-0.976-2.993-2.787-2.852-4.727c0.154-2.325,2.222-4.007,4.226-5.202c3.494-2.068,7.309-3.532,10.879-5.446     c1.117-0.604,2.222-1.259,3.263-1.991C262.486,140.74,263.424,146.725,264.336,152.904z"/>
			<path style="fill:#AE312F;" d="M269.204,190.294c-3.635,1.092-7.488,1.426-11.29,1.464c-5.253,0.051-10.507-0.437-15.645-1.477     c-2.428-0.488-5.022-1.22-6.512-3.185c-1.785-2.35-1.349-5.883,0.424-8.233c1.785-2.35,4.624-3.699,7.476-4.431     c2.864-0.732,5.831-0.938,8.721-1.529c5.112-1.053,9.543-3.314,13.962-5.831C267.393,174.816,268.369,182.651,269.204,190.294z"/>
			<path style="fill:#AE312F;" d="M220.318,135.602c-0.912,0.822-2.261,0.886-3.481,0.848c-3.764-0.103-7.257-0.809-10.674-1.914     c0.501-4.444,1.092-9.389,1.76-14.296c0.334,0.437,0.681,0.861,1.066,1.259c3.507,3.674,9.454,4.945,11.689,9.518     C221.397,132.494,221.525,134.498,220.318,135.602z"/>
			<path style="opacity:0.48;fill:#AE312F;" d="M314.99,350.364c-2.137-1.075-4.308-2.087-6.552-2.864     c-1.122-0.379-2.26-0.716-3.402-0.889c-0.569-0.077-1.143-0.107-1.668-0.019c-0.507,0.085-0.982,0.359-1.108,0.702     c-0.141,0.322,0.044,0.824,0.342,1.27c0.295,0.452,0.681,0.878,1.087,1.283c0.832,0.801,1.746,1.543,2.687,2.253     c1.89,1.408,3.902,2.699,5.941,3.884l1.236,0.718l-1.383,0.389c-1.235,0.347-2.478,0.737-3.684,1.173     c-1.182,0.447-2.45,0.91-3.365,1.548c-0.224,0.122-0.331,0.423-0.292,0.175c-0.089-0.138,0.122,0.13,0.353,0.223     c0.491,0.255,1.106,0.444,1.711,0.605c1.223,0.318,2.506,0.545,3.77,0.719l0.771,0.107l-0.317,0.698     c-0.817,1.797-1.55,3.654-2.307,5.491c-0.746,1.844-1.449,3.707-2.112,5.583c-0.664,1.877-1.272,3.773-1.871,5.674     c-0.591,1.904-1.087,3.835-1.577,5.773c0.596-3.952,1.52-7.865,2.71-11.69c0.588-1.915,1.218-3.817,1.892-5.705     c0.666-1.894,1.426-3.742,2.22-5.598l0.453,0.805c-1.325-0.165-2.621-0.375-3.931-0.695c-0.655-0.17-1.305-0.345-1.981-0.681     c-0.171-0.093-0.342-0.184-0.524-0.338c-0.167-0.145-0.398-0.346-0.482-0.761c-0.076-0.434,0.15-0.776,0.282-0.924     c0.157-0.223,0.308-0.316,0.463-0.451c1.223-0.873,2.455-1.294,3.712-1.748c1.256-0.434,2.512-0.809,3.796-1.151l-0.147,1.107     c-2.079-1.247-4.083-2.571-6.009-4.046c-0.961-0.739-1.896-1.522-2.744-2.426c-0.42-0.457-0.826-0.937-1.163-1.501     c-0.309-0.54-0.676-1.28-0.337-2.108c0.373-0.776,1.144-1.049,1.787-1.146c0.663-0.082,1.294-0.014,1.905,0.093     c1.217,0.23,2.367,0.633,3.477,1.105C310.846,347.951,312.968,349.078,314.99,350.364z"/>
			<path style="fill:#AE312F;" d="M295.39,446.144c-11.124,7.796-23.81,13.137-37.605,16.823c3.005-5.356,5.33-11.097,6.974-17.031     c3.057-11.098,3.648-22.696,3.828-34.205c0.064-4.637,0.128-9.479,2.273-13.59c2.145-4.097,7.129-7.141,11.457-5.497     c3.391,1.297,5.266,4.894,6.576,8.285C294.315,414.994,295.351,430.988,295.39,446.144z"/>
			<path style="fill:#AE312F;" d="M244.774,436.085c-0.18,10.301-2.887,21.223-7.485,30.471c-8.729,1.116-20.047,0.585-27.003-0.556     c2.196-2.222,4.431-4.457,6.332-6.846c8.708-10.995,10.301-25.869,15.863-38.752c0.578-1.336,1.362-2.8,2.749-3.211     c1.439-0.411,2.916,0.449,4.008,1.451C243.874,422.893,244.889,429.791,244.774,436.085z"/>
			<path style="fill:#AE312F;" d="M162.12,271.933c-4.316,0.424-8.542,1.747-12.305,3.879c-3.866,2.196-6.872,5.562-10.43,8.182     c-1.695,1.233-3.75,2.145-5.831,1.952c-1.053-0.09-2.119-0.501-2.774-1.323c-1.284-1.631-0.475-4.02,0.552-5.806     c2.633-4.56,6.371-8.837,10.841-11.701c2.954,0.051,6.024,0.36,9.248,0.989C155.338,268.876,158.896,270.186,162.12,271.933z"/>
			<path style="fill:#AE312F;" d="M138.473,343.168c-4.778,8.58-10.07,13.667-15.413,16.364c-2.171-2.852-3.969-6.063-5.6-9.107     c-2.569-4.804-4.393-10.006-5.408-15.362c-1.169-6.165-2.261-14.45,1.464-19.973c1.13-1.67,3.108-2.89,5.125-2.685     c2.248,0.231,4.02,2.145,4.881,4.239c0.873,2.107,1.04,4.406,1.451,6.641c1.31,7.193,5.33,13.859,11.008,18.457     C136.688,342.308,137.561,342.757,138.473,343.168z"/>
			<path style="fill:#AE312F;" d="M99.49,304.917c-0.642,1.053-1.67,1.785-2.646,2.543c-5.112,3.956-9.197,9.222-11.753,15.156     c-2.119,4.868-3.186,10.109-4.765,15.182c-1.85-9.171-2.941-17.584-3.584-24.687c0.976-1.349,2.017-2.646,3.198-3.841     c3.018-3.108,6.615-5.613,10.571-7.373c2.145-0.938,4.47-1.67,6.782-1.374c0.796,0.09,1.618,0.347,2.158,0.938     C100.274,302.387,100.133,303.864,99.49,304.917z"/>
			<path style="fill:#AE312F;" d="M134.761,377.617c-8.195,9.71-20.024,15.516-31.738,20.487     c-3.031-5.009-5.528-10.164-7.917-15.276c1.631-0.347,3.075-0.651,4.732-1.011c10.07-2.235,19.536-6.653,28.553-11.56     c2.492-1.348,5.883-2.633,7.861-0.616C138.332,371.773,136.688,375.343,134.761,377.617z"/>
			<path style="fill:#AE312F;" d="M148.967,404.706c-0.167,2.325-1.297,4.483-2.607,6.422c-3.185,4.675-7.527,8.413-11.894,11.997     c-2.26,1.85-4.727,3.824-7.116,5.545c-3.643-2.938-11.137-11.572-13.794-15.142c7.796-2.068,15.219-5.88,21.462-10.98     c3.224-2.633,7.398-5.806,11.059-3.828C148.132,399.838,149.121,402.368,148.967,404.706z"/>
			<path style="fill:#AE312F;" d="M150.74,446c-2.71-1.593-5.317-3.275-7.835-5.022c-2.325-1.605-4.586-3.262-6.756-4.984     c1.169-0.706,2.312-1.451,3.378-2.325c3.417-2.813,6.641-7.257,11.457-7.514c0.989-0.051,2.042,0.128,2.761,0.809     c0.694,0.642,0.938,1.631,1.092,2.556C155.788,435.263,154.246,441.364,150.74,446z"/>
			<path style="fill:#AE312F;" d="M187.988,449.006c-1.04,3.905-2.877,7.617-4.958,11.123c-0.578-0.167-1.169-0.36-1.747-0.54     c-3.609-1.13-7.09-2.376-10.455-3.725c-2.004-0.796-3.969-1.618-5.883-2.479c0.706-0.655,1.374-1.336,2.042-2.029     c3.943-4.097,7.475-8.657,12.099-11.971c1.965-1.413,4.547-2.607,6.73-1.554C189.671,439.681,188.875,445.667,187.988,449.006z"/>
		</g>
		<path style="fill:#6CE1C1;" d="M73.683,340.89c0,0-20.616-20.646-39.908-18.755c-19.292,1.891-18.136,14.057-13.996,17.829    C28.858,348.236,49.285,333.354,73.683,340.89z"/>
		<path style="fill:#6CE1C1;" d="M74.44,348.614c0,0-15.699-3.972-28.182,1.513c-12.483,5.485-6.394,17.884,2.081,16.455    C60.272,364.57,62.335,351.64,74.44,348.614z"/>
		<path style="fill:#AE312F;" d="M198.188,465.292c-0.072,0-0.143-0.006-0.217-0.018c-0.699-0.119-1.169-0.783-1.051-1.482    c0.064-0.37,6.479-37.541,22.983-83.562c15.245-42.512,42.471-101.51,85.591-141.149c0.522-0.479,1.335-0.447,1.815,0.077    c0.48,0.522,0.445,1.335-0.076,1.815c-81.819,75.212-107.53,221.778-107.779,223.251    C199.347,464.85,198.803,465.292,198.188,465.292z"/>
		<path style="fill:#AE312F;" d="M186.714,464.253c-0.69,0-1.261-0.549-1.282-1.244c-0.011-0.336-0.893-34.152,13.18-78.613    c12.985-41.025,41.723-99.815,104.888-146.918c0.569-0.425,1.373-0.307,1.797,0.262c0.424,0.568,0.307,1.374-0.262,1.797    C242.42,286.23,213.933,344.506,201.061,385.17c-13.942,44.049-13.073,77.425-13.062,77.758c0.023,0.709-0.535,1.302-1.243,1.323    C186.741,464.253,186.727,464.253,186.714,464.253z"/>
		<path style="fill:#AE312F;" d="M175.195,458.812L175.195,458.812c-0.71,0-1.285-0.576-1.285-1.284    c0-0.413,0.195-41.759,15.904-89.503c14.521-44.131,45.639-102.937,111.422-132.468c0.647-0.291,1.406-0.001,1.697,0.646    c0.291,0.647,0.001,1.407-0.646,1.697c-64.901,29.136-95.646,87.242-110.008,130.856c-15.599,47.364-15.8,88.364-15.8,88.772    C176.479,458.238,175.904,458.812,175.195,458.812z"/>
		<path style="fill:#AE312F;" d="M75.962,302.019c-0.363,0-0.723-0.153-0.977-0.45c-0.46-0.539-0.396-1.35,0.143-1.811    c53.987-46.115,136.003-77.603,174.171-90.62c-90.084,21.112-171.717,81.611-172.596,82.268c-0.57,0.427-1.372,0.309-1.798-0.26    c-0.425-0.567-0.309-1.372,0.26-1.798c0.952-0.713,96.415-71.458,195.18-86.962c0.671-0.097,1.307,0.33,1.454,0.992    c0.147,0.662-0.247,1.325-0.9,1.512c-1.217,0.35-122.538,35.69-194.104,96.821C76.554,301.917,76.258,302.019,75.962,302.019z"/>
		<path style="fill:#AE312F;" d="M75.858,309.289c-0.418,0-0.827-0.203-1.074-0.578c-0.39-0.592-0.227-1.389,0.366-1.779    c1.226-0.808,123.445-81.029,194.995-104.496c0.675-0.222,1.399,0.145,1.62,0.82c0.221,0.674-0.145,1.4-0.82,1.621    C199.721,228.238,77.787,308.272,76.563,309.077C76.345,309.22,76.1,309.289,75.858,309.289z"/>
		<path style="fill:#AE312F;" d="M272.047,202.858c-0.213,0-0.429-0.053-0.628-0.164c-1.146-0.645-114.902-64.472-140.599-67.525    c-0.704-0.084-1.208-0.723-1.124-1.428c0.084-0.704,0.715-1.212,1.427-1.124c17.433,2.072,72.251,30.247,108.373,49.652    c-28.145-17.352-69.086-40.925-97.909-50.344c-0.675-0.219-1.042-0.946-0.822-1.619c0.22-0.674,0.941-1.046,1.62-0.822    c48.136,15.729,129.563,70.474,130.381,71.024c0.571,0.385,0.736,1.153,0.374,1.74    C272.899,202.642,272.479,202.858,272.047,202.858z"/>
		<path style="fill:#AE312F;" d="M272.05,202.858c-0.474,0-0.93-0.263-1.154-0.716c-12.157-24.668-120.176-75.282-121.266-75.79    c-0.642-0.3-0.921-1.063-0.621-1.707c0.301-0.641,1.066-0.919,1.707-0.621c4.483,2.091,109.93,51.512,122.484,76.981    c0.315,0.637,0.053,1.406-0.583,1.72C272.434,202.816,272.241,202.858,272.05,202.858z"/>
		<path style="fill:#6CE1C1;" d="M337.952,210.624c0,0,27.313-42.271,41.605-27.266    C396.907,201.574,346.546,203.808,337.952,210.624z"/>
		<path style="fill:#6CE1C1;" d="M354.296,225.095c4.529,2.714,9.406,5.278,14.684,5.457c1.751,0.059,3.546-0.161,5.12-0.931    c1.574-0.77,2.906-2.144,3.354-3.838c0.716-2.708-1.857-13.075-14.452-13.009c-6.186,0.032-21.135,3.704-22.496,5.166    C345.134,219.162,351.975,223.705,354.296,225.095z"/>
		<g>
			<path style="fill:#FF5555;" d="M425.344,203.109c-11.637-6.116-11.719-15.681-10.017-22.185     c-7.026,13.698-18.182,15.714-18.182,15.714s-5.036-9.494,2.063-20.406c6.617-10.178,16.699-8.259,18.034-7.953     c0.096,0.029,0.154,0.04,0.154,0.04c-0.095-0.201-0.171-0.41-0.272-0.598c-0.001-0.032-0.001-0.032-0.014-0.038     c-19.242-43.435-57.475,4.055-76.258-0.351c-18.879-4.435-26.759-24.557-19.746-36.736c4.479-7.776,16.159-17.99,33.065-20.336     c2.452-0.338,5.018-0.514,7.692-0.482c7.72,0.066,16.309,1.779,25.613,5.914c0.233,0.108,0.478,0.222,0.717,0.318     c25.957,11.906,33.32,35.876,35.368,46.59c0.579,3.051,0.731,5.025,0.74,5.343c0.001,0.032,0.008,0.051,0.008,0.051     C428.665,187.642,425.344,203.109,425.344,203.109z"/>
			<path style="fill:#FF5555;" d="M388.192,116.009c-0.006,0.013-0.006,0.013-0.006,0.013s-19.727-5.961-26.734-4.753     c0,0,0.111-0.577,0.41-1.492c0.979-3.02,4.028-9.683,11.985-10.937c0,0-5.589,4.178-5.585,8.803c0,0,3.202-7.599,12.347-4.512     C389.544,106.166,388.249,115.548,388.192,116.009z"/>
			<g>
				<g>
					<path style="fill:#FFFFFF;" d="M361.77,156.168c-3.711,1.873-9.146,1.935-12.805-0.082c-0.781-0.431-1.49-0.972-2.101-1.635       c-2.644-2.895-3.741-7.505-3.239-11.363c0.005-0.09,0.017-0.179,0.029-0.269c0.578-3.884,3.278-7.109,6.92-8.519       c4.263-1.648,10.278-1.598,13.538,2.013c1.286,1.427,2.202,3.292,2.712,5.325l0.008,0       C368.21,147.053,366.739,153.655,361.77,156.168z"/>
					<path style="fill:#AE312F;" d="M361.77,156.168c-10.459,4.587-19.681-1.575-18.679-13.148l-0.004,0.041       c1.223-12.575,21.799-14.543,23.986-1.484l-0.236-0.194c0.007,0,0.196,0.014,0.203,0.015       C368.287,146.706,366.967,153.501,361.77,156.168z M361.797,156.215c5.107-2.624,6.25-9.408,4.786-14.511l0.236,0.192       c-0.007,0-0.183-0.004-0.19-0.004c-1.811-8.858-12.513-10.145-18.816-5.234c-3.928,3.148-4.551,8.673-3.13,13.243       C346.434,157.31,355.616,159.266,361.797,156.215z"/>
				</g>
				<path style="fill:#AE312F;" d="M353.884,154.259c3.072,0.614,6.592-0.387,8.589-2.88c3.182-3.973,2.255-10.486-1.964-13.293      c-2.265-1.507-5.444-1.973-8.023-1.06c-6.892,2.44-6.896,12.757-0.997,16.322C352.215,153.788,353.029,154.088,353.884,154.259z      "/>
				<path style="opacity:0.21;fill:#AE312F;" d="M366.824,141.64c-13.292-7.169-22.125,0.447-23.199,1.45      c0.005-0.09,0.017-0.179,0.029-0.269c0.578-3.884,3.278-7.109,6.92-8.519c4.263-1.648,10.278-1.598,13.538,2.013      C365.397,137.741,366.314,139.607,366.824,141.64z"/>
			</g>
			<path style="fill:#AE312F;" d="M325.468,147.701c1.586-2.262,3.417-4.281,5.309-6.238l0.625-0.646l0.397,0.825     c0.688,1.428,1.322,2.882,1.914,4.355c0.584,1.477,1.126,2.973,1.538,4.531c-0.93-1.315-1.73-2.691-2.487-4.087     c-0.75-1.399-1.458-2.818-2.111-4.263l1.022,0.178C329.729,144.259,327.721,146.102,325.468,147.701z"/>
			<g>
				<path style="fill:#FFFFFF;" d="M321.823,139.607c-1.859-0.094-2.887-1.231-3.227-2.867c-0.816-3.791,2.002-10.295,6.462-12.687      c1.087-0.579,2.264-0.913,3.507-0.917C328.566,123.136,329.054,139.948,321.823,139.607z"/>
				<path style="fill:#AE312F;" d="M321.823,139.607c-4.753-0.386-3.656-6.701-2.261-9.761c1.612-3.741,5.025-7.449,9.467-7.17      C328.973,127.568,328.388,139.457,321.823,139.607z M321.823,139.607c6.68-0.346,6.144-11.615,6.274-16.457l0.47,0.455      c-5.714,0.341-9.767,6.626-10.019,11.99C318.444,137.556,319.684,139.618,321.823,139.607z"/>
			</g>
			<path style="fill:#AE312F;" d="M318.597,136.74c-0.816-3.791,2.002-10.295,6.462-12.687c0.676,1.116,1.461,3.588-0.143,8.392     C323.589,136.45,320.868,137.197,318.597,136.74z"/>
			<path style="opacity:0.36;fill:#AE312F;" d="M424.3,167.943c-0.185-1.124-3.626-19.261-34.021-37.852     c-31.389-19.194-50.382-3.528-50.382-3.528c1.441-7.16,9.291-13.227,14.274-16.303c2.452-0.338,5.018-0.514,7.692-0.482     c0.979-3.02,4.028-9.683,11.985-10.937c0,0-5.589,4.178-5.585,8.803c0,0,3.202-7.599,12.347-4.512     c8.934,3.036,7.639,12.417,7.582,12.878c25.957,11.906,33.32,35.876,35.368,46.59C424.139,165.651,424.291,167.624,424.3,167.943     z"/>
		</g>
	</g>
	<path style="fill:#AE312F;" d="M65.936,276.12c3.188-3.153,6.617-6.001,10.105-8.774c3.512-2.742,7.084-5.408,10.899-7.765   c-3.186,3.156-6.616,6.003-10.105,8.774C73.321,271.095,69.749,273.76,65.936,276.12z"/>
	<path style="fill:#AE312F;" d="M59.317,267.19c3.711-2.234,7.583-4.115,11.494-5.908c3.927-1.758,7.894-3.427,12.023-4.738   c-3.71,2.237-7.582,4.117-11.494,5.908C67.412,264.207,63.445,265.875,59.317,267.19z"/>
	<path style="fill:#AE312F;" d="M56.601,253.659c4.316-0.375,8.62-0.361,12.921-0.252c4.3,0.148,8.597,0.393,12.882,1.031   c-4.316,0.378-8.62,0.364-12.921,0.252C65.183,254.54,60.886,254.294,56.601,253.659z"/>
	<path style="fill:#AE312F;" d="M193.375,210.444c4.229-1.491,8.545-2.603,12.883-3.623c4.346-0.981,8.714-1.868,13.17-2.371   c-4.228,1.494-8.544,2.606-12.882,3.622C202.199,209.051,197.831,209.937,193.375,210.444z"/>
	<path style="fill:#AE312F;" d="M217.306,193.694c-3.612,2.392-7.399,4.436-11.23,6.396c-3.848,1.925-7.74,3.763-11.809,5.25   c3.61-2.394,7.398-4.439,11.23-6.396C209.347,197.022,213.239,195.185,217.306,193.694z"/>
	<path style="fill:#AE312F;" d="M208.468,183.095c-2.192,3.736-4.694,7.238-7.273,10.682c-2.61,3.421-5.297,6.783-8.297,9.908   c2.19-3.738,4.693-7.24,7.273-10.682C202.783,189.584,205.471,186.223,208.468,183.095z"/>
</g>















</svg>
