<?xml version="1.0" encoding="UTF-8"?>
<!-- Generator: Adobe Illustrator 25.2.3, SVG Export Plug-In . SVG Version: 6.00 Build 0)  -->
<svg xmlns="http://www.w3.org/2000/svg" xmlns:xlink="http://www.w3.org/1999/xlink" version="1.1" id="Capa_1" x="0px" y="0px" viewBox="0 0 512 512" style="enable-background:new 0 0 512 512;" xml:space="preserve" width="512" height="512">
<g>
	
		<ellipse transform="matrix(0.2298 -0.9732 0.9732 0.2298 -40.7887 132.2537)" style="fill:#FF9D3D;" cx="63.161" cy="91.896" rx="41.853" ry="41.853"/>
	<g>
		<path style="fill:#FFC893;" d="M200.408,494.187c0,1.835-3.995,3.323-8.924,3.323s-8.924-1.488-8.924-3.323    c0-1.835,3.995-3.323,8.924-3.323S200.408,492.352,200.408,494.187z"/>
		<g>
			<path style="fill:#9CF0E7;" d="M90.502,68.997c0,0,6.575-37.762,49.521-37.977c42.946-0.215,51.874,40.52,51.874,40.52     s3.772-11.952,13.325-11.835c9.553,0.117,13.46,18.513,13.46,18.513s10.602-11.142,34.039-5.562     c23.437,5.58,66.404,14.708,66.404,14.708H42.293L90.502,68.997z"/>
			<path style="fill:#9CF0E7;" d="M324.607,181.161c0,0,5.39-37.762,40.591-37.977c35.201-0.215,42.519,40.52,42.519,40.52     s3.092-11.952,10.922-11.835c7.831,0.117,11.032,18.513,11.032,18.513s8.69-11.143,27.9-5.562     C476.781,190.4,512,199.528,512,199.528H285.091L324.607,181.161z"/>
			<path style="fill:#FFC893;" d="M447.581,395.99c0,8.876-4.04,17.41-11.472,25.344c-7.481-1.506-16.051-2.363-25.16-2.363     c-29.237,0-52.941,8.828-52.941,19.712c0,6.097,7.432,11.545,19.112,15.157c-36.351,11.876-83.978,19.063-136.098,19.063     c-114.084,0-206.559-34.429-206.559-76.914c0-42.485,92.475-76.913,206.559-76.913     C355.094,319.076,447.581,353.505,447.581,395.99z"/>
			<path style="fill:#FFC893;" d="M156.606,447.341c0,16.104-35.058,29.159-78.303,29.159S0,463.445,0,447.341     c0-16.104,35.057-29.159,78.303-29.159S156.606,431.237,156.606,447.341z"/>
			<ellipse style="fill:#FFC893;" cx="153.62" cy="482.359" rx="25.393" ry="9.456"/>
			<path style="fill:#FFC893;" d="M433.561,432.42c0,3.901-8.491,7.062-18.965,7.062s-18.965-3.162-18.965-7.062     c0-3.9,8.491-7.062,18.965-7.062S433.561,428.519,433.561,432.42z"/>
			<g>
				<path style="fill:#FF9D3D;" d="M200.177,247.177c0,0,2.934-67.727-51.495-78.365c0,0-5.477-28.011-4.792-44.314      c0.685-16.302-6.504-27.93-18.485-26.909c-11.981,1.021-20.197,63.609-11.981,74.763c8.216,11.154-32.178,98.787,24.304,129.596      C194.21,332.757,200.177,247.177,200.177,247.177z"/>
				<g>
					<path style="opacity:0.2;fill:#AE312F;" d="M200.177,247.177c0,0,2.934-67.727-51.495-78.365c0,0-5.477-28.011-4.792-44.314       c0.685-16.302-6.504-27.93-18.485-26.909c-11.981,1.021-20.197,63.609-11.981,74.763       c8.216,11.154-32.178,98.787,24.304,129.596C194.21,332.757,200.177,247.177,200.177,247.177z"/>
				</g>
				<path style="fill:#FFC893;" d="M122.665,122.891c-0.157,0.33-0.299,0.695-0.423,1.097c-0.403,1.298-0.549,2.693-0.692,4.069      c-0.759,7.333-1.688,14.679-2.093,22.047c-0.087,1.579-0.147,3.195,0.181,4.683c1.102,5.001,5.653,4.364,7.323-0.03      c0.601-1.583,0.858-3.333,1.108-5.055c0.588-4.061,1.177-8.121,1.765-12.182c0.538-3.714,1.564-7.812,0.958-11.519      C130.046,121.438,125.157,117.642,122.665,122.891z"/>
				<path style="fill:#FFC893;" d="M132.334,120.416c-0.033,1.14,0.037,2.345,0.654,3.304c0.604,0.938,1.714,1.523,2.83,1.506      c1.116-0.017,2.202-0.628,2.81-1.563c0.503-0.773,0.68-1.723,0.656-2.645C139.167,116.534,132.475,115.514,132.334,120.416z"/>
				<path style="fill:#FFC893;" d="M124.304,106.644c-0.544,0.642-0.614,1.548-0.661,2.388c-0.029,0.528-0.058,1.055-0.087,1.582      c-0.028,0.512-0.055,1.035,0.082,1.529c0.29,1.045,1.27,1.772,2.3,2.111c1.538,0.507,3.336,0.276,4.608-0.726      c1.272-1.003,1.918-2.791,1.442-4.339C131.17,106.525,126.532,104.011,124.304,106.644z"/>
				<path style="fill:#FFC893;" d="M117.48,117.667c-0.135,0.857-0.186,1.795,0.271,2.533c0.653,1.053,2.231,1.287,3.286,0.637      c1.055-0.65,1.569-1.978,1.467-3.213C122.208,114.062,118.014,114.274,117.48,117.667z"/>
			</g>
			<path style="fill:#FF9D3D;" d="M410.948,248.689c-1.494,9.699-9.159,22.241-15.317,26.935     c14.908,66.483-21.144,123.242-86.194,150.472c-24.055,10.471-52.705,17.806-77.844,18.904     c-22.103,0.881-44.744-3.437-65.613-10.186c-17.839-5.891-42.573-16.21-51.766-27.486     c-14.128-21.219-40.329-18.709-50.418-49.942c-3.306-10.272,3.869-16.7,11.595-14.582c18.72,5.118,53.883,34.772,53.883,34.772     l7.53-11.276c-10.38-25.99-14.608-87.702,40.097-103.849c0,0-1.273-0.44-2.877-4.946c-6.371-2.568-9.537-14.314-7.211-25.956     c2.812-16.777,14.466-37.321,29.776-47.357c9.122-6.061,20.141-9.195,32.837-6.746c36.326,7.003,132.952-27.095,132.952-27.095     C386.114,170.3,418.143,215.379,410.948,248.689z"/>
			<path style="fill:#FFC893;" d="M167.72,249.937c1.249,3.012,3.257,5.632,6.281,7.554     C173.658,257.357,169.936,255.728,167.72,249.937z"/>
			<path style="fill:#FFC893;" d="M175.641,261.054c0.343,0.453,0.747,0.931,1.237,1.384     C176.78,262.389,176.315,262.12,175.641,261.054z"/>
			<path style="fill:#FFC893;" d="M307.589,292.336c0,0-9.905,22.712-5.13,35.029c0,0-12.146,12.978-31.123,26.348     c-6.293-12.709-20.594-28.968-39.448-32.041c-25.417-4.151-63.164-1.224-95.168,44.456c-1.996-3.93-37.502-76.424,40.171-103.678     c2.412,2.216,6.77,3.918,14.57,1.788c0,0,14.472,0.343,18.671-16.137c0.845-3.33,1.432-6.685,1.898-9.966     c0.453-0.759,17.961-29.25,60.532-18.218C315.694,231.082,307.589,292.336,307.589,292.336z"/>
			<path style="fill:#FF9D3D;" d="M365.059,148.17c0,0-54.276,46.507-113.928,45.213c-31.166-0.639-53.773-16.997-62.128-44.77     c-4.507-15.079-3.534-32.893,3.377-46.631c15.046-28.065,57.545-43.062,88.763-50.074c28.729-6.34,59.703-8.526,80.922,10.631     c11.839,10.319,18.701,25.31,20.52,40.92C386.311,129.706,370.778,145.314,365.059,148.17z"/>
			<g>
				<g>
					<path style="fill:#FFFFFF;" d="M344.155,112.467c-5.273,5.816-14.81,9.61-22.626,8.535c-1.67-0.231-3.284-0.703-4.811-1.457       c-6.622-3.311-11.68-10.693-13.411-17.834c-0.053-0.162-0.092-0.328-0.131-0.493c-1.613-7.238,0.96-14.753,6.423-19.707       c6.397-5.795,17.034-9.783,25.228-5.628c3.233,1.644,6.114,4.311,8.39,7.548l0.013-0.004       C349.329,92.035,351.211,104.67,344.155,112.467z"/>
					<path style="fill:#AE312F;" d="M344.155,112.467c-6.048,6.355-15.403,10.087-24.175,8.621       c-8.98-2.141-15.189-10.586-17.672-19.134l0.022,0.077c-2.211-7.926,0.728-16.652,6.968-21.852       c6.015-5.057,14.178-8.294,22.103-6.424c5.205,1.278,9.308,5.095,12.216,9.395l-0.546-0.185l0.014-0.004l0.354-0.102       C349.223,91.339,351.511,104.246,344.155,112.467z M344.155,112.467c7.216-8.097,4.733-20.727-1.323-28.758l0.545,0.184       l-0.013,0.004l-0.325,0.112c-2.939-4.01-7.069-7.609-12.022-8.553c-10.389-1.723-22.702,5.379-26.139,15.363       c-0.742,2.276-1.168,4.674-1.054,7.075c-0.003,0.602,0.095,1.197,0.143,1.797c0.113,0.603,0.189,1.277,0.338,1.78       c1.902,8.1,7.483,16.501,15.84,18.908C328.685,122.314,338.162,118.724,344.155,112.467z"/>
				</g>
				<path style="fill:#AE312F;" d="M328.962,114.447c5.832-0.999,11.357-5.15,13.187-10.899c2.917-9.16-3.133-20.012-12.473-22.1      c-5.015-1.121-10.934,0.213-14.861,3.57c-10.495,8.973-3.508,27.161,9.306,29.447      C325.7,114.747,327.339,114.725,328.962,114.447z"/>
				<path style="opacity:0.21;fill:#AE312F;" d="M343.217,83.431c-28.288-3.627-38.698,15.784-39.911,18.281      c-0.053-0.162-0.092-0.328-0.131-0.493c-1.613-7.238,0.96-14.753,6.423-19.707c6.397-5.795,17.034-9.783,25.228-5.628      C338.06,77.527,340.941,80.195,343.217,83.431z"/>
			</g>
			<g>
				<g>
					<path style="fill:#FFFFFF;" d="M259.974,147.373c-5.272,5.816-14.811,9.61-22.626,8.535c-1.67-0.231-3.284-0.703-4.811-1.457       c-6.622-3.311-11.681-10.693-13.411-17.833c-0.052-0.161-0.092-0.328-0.131-0.494c-1.614-7.238,0.96-14.752,6.424-19.707       c6.397-5.795,17.034-9.783,25.228-5.628c3.233,1.644,6.114,4.311,8.39,7.548l0.013-0.005       C265.148,126.94,267.03,139.575,259.974,147.373z"/>
					<path style="fill:#AE312F;" d="M259.974,147.373c-6.049,6.355-15.402,10.086-24.175,8.621       c-8.98-2.141-15.189-10.586-17.672-19.134l0.021,0.076c-2.211-7.924,0.729-16.652,6.968-21.851       c6.015-5.057,14.178-8.294,22.103-6.424c5.205,1.278,9.308,5.096,12.216,9.395l-0.555-0.182l0.013-0.004l0.359-0.111       C265.041,126.239,267.332,139.15,259.974,147.373z M259.974,147.373c7.216-8.097,4.733-20.727-1.323-28.758l0.554,0.18       l-0.013,0.005l-0.33,0.12c-2.94-4.013-7.071-7.614-12.027-8.559c-10.389-1.723-22.702,5.379-26.139,15.363       c-0.742,2.276-1.168,4.673-1.054,7.075c-0.002,0.602,0.095,1.197,0.143,1.797c0.114,0.602,0.189,1.275,0.338,1.78       c1.902,8.1,7.483,16.501,15.84,18.908C244.505,157.219,253.981,153.629,259.974,147.373z"/>
				</g>
				<path style="fill:#AE312F;" d="M244.781,149.352c5.832-0.999,11.357-5.15,13.187-10.899c2.917-9.16-3.133-20.012-12.473-22.1      c-5.015-1.121-10.934,0.213-14.861,3.57c-10.495,8.972-3.508,27.16,9.306,29.447      C241.519,149.652,243.158,149.63,244.781,149.352z"/>
				<path style="opacity:0.21;fill:#AE312F;" d="M259.036,118.337c-28.288-3.627-38.698,15.784-39.911,18.28      c-0.052-0.161-0.092-0.328-0.131-0.494c-1.614-7.238,0.96-14.752,6.424-19.707c6.397-5.795,17.034-9.783,25.228-5.628      C253.879,112.432,256.759,115.1,259.036,118.337z"/>
			</g>
			<path style="fill:#AE312F;" d="M285.311,109.724c0,0-6.377-2.652-8.255-0.562c-1.878,2.09,4.933,5.447,10.119,4.353     c0,0,5.54-7.724,2.036-10.084C285.707,101.071,285.311,109.724,285.311,109.724z"/>
			<path style="fill:#AE312F;" d="M292.392,150.353c-2.452-12.863-4.711-26.93-6.622-39.879     c9.677,8.514,18.886,17.852,25.622,28.907c-7.169-10.026-15.966-18.824-25.194-26.939l0.98-0.545     C289.047,124.277,291.008,137.908,292.392,150.353z"/>
			<path style="fill:#AE312F;" d="M228.906,101.264c-0.074,0.412-0.115,0.858,0.079,1.229c0.241,0.462,0.776,0.679,1.277,0.821     c2.362,0.669,4.967,0.44,7.176-0.629c0.538-0.26,1.066-0.579,1.435-1.049c0.451-0.574,0.622-1.316,0.725-2.039     c0.162-1.142,0.181-2.323-0.139-3.431C237.487,89.348,229.579,97.491,228.906,101.264z"/>
			<path style="fill:#AE312F;" d="M311.564,70.75c0.298,0.294,0.589,0.634,0.645,1.049c0.07,0.516-0.241,1.002-0.568,1.407     c-1.543,1.909-3.801,3.227-6.223,3.629c-0.59,0.098-1.205,0.142-1.778-0.029c-0.7-0.208-1.268-0.715-1.769-1.246     c-0.791-0.839-1.489-1.793-1.867-2.882C297.677,65.973,308.836,68.058,311.564,70.75z"/>
			<path style="fill:#FF9D3D;" d="M213.066,115.457c-0.329,0.072-0.657,0.145-0.984,0.193     c-23.682,4.401-39.824-22.208-36.437-28.265c0.055-0.104,0.123-0.219,0.19-0.322c3.601-5.874,13.915-7.812,25.638-6.837     c11.939,0.979,22.954-7.638,22.954-7.638S237.269,110.123,213.066,115.457z"/>
			<path style="fill:#FF9D3D;" d="M348.94,49.565c0,0,0.002,0.012-0.007,0.026c-0.411,1.604-0.926,3.18-1.58,4.723     c0.002,0.012-0.01,0.014-0.019,0.028c-1.298,3.083-3.132,6.042-5.589,8.747c-16.671,18.344-39.863-13.629-39.863-13.629     s12.942-5.267,18.041-16.109c4.613-9.856,10.787-17.441,17.139-18.681c0.644-0.128,1.279-0.182,1.925-0.176     C344.444,14.564,353.171,32.832,348.94,49.565z"/>
			<path style="fill:#AE312F;" d="M348.943,49.568c0,0-0.001,0.012-0.014,0.023c-0.03,0.261-0.391,2.403-1.578,4.716     c-0.001,0.012-0.014,0.023-0.014,0.035c-0.663,1.296-1.935,2.753-3.576,4.006c-2.892,2.221-5.035,0.972-8.854-0.078     c-9.398-2.603,4.833-12.464,5.067-31.157c0.725-4.667,0.171-9.014-2.912-12.443c0.643-0.124,1.281-0.176,1.928-0.18     C344.442,14.562,353.169,32.835,348.943,49.568z"/>
			<path style="fill:#AE312F;" d="M212.085,115.651c-23.688,4.397-39.832-22.209-36.439-28.262c0.055-0.104,0.123-0.219,0.189-0.322     c1.101,1.583,3.018,3.676,6.266,5.549c3.644,2.69,5.3,5.35,11.803,5.996c11.962,1.173,18.353,6.769,18.68,12.525     C212.693,112.868,212.478,114.445,212.085,115.651z"/>
			<path style="fill:#FFFFFF;" d="M340.676,48.623c0,0,3.638,4.413,3.085,9.726c-2.892,2.221-6.914,3.803-10.733,2.753     c-9.398-2.603,4.732-19.751,6.945-33.988c1.278,3.558,2.39,9.032,0.456,14.933c0,0,4.112-3.431,5.166-2.737     c1.006,0.691-3.562,5.551-3.819,5.821c0.225-0.141,2.826-1.771,3.637-0.674C346.256,45.603,340.676,48.623,340.676,48.623z"/>
			<path style="fill:#FFFFFF;" d="M212.584,111.137c-13.335,5.819-17.913-7.288-17.913-7.288s-0.894,3.111-2.775,2.432     c-1.798-0.661,0.079-3.454,0.239-3.694c-0.148,0.062-3.16,1.413-4.28,0.798c-1.154-0.629,1.794-2.619,1.794-2.619     c-4.916-1.627-6.862-5.937-7.549-8.15c3.284,1.875,7.912,3.519,14.415,4.165C208.477,97.954,212.257,105.381,212.584,111.137z"/>
			<path style="fill:#AE312F;" d="M284.433,81.47c-0.558,2.392-2.257,4.67-4.643,5.262c-3.227,0.81-6.335-1.532-8.626-3.938     c-3.987-4.197-7.213-9.037-10.896-13.489c-2.566-3.095-5.405-6.053-8.734-8.327c-0.194-0.133-0.4-0.278-0.605-0.424     c8.112-2.943,16.48-5.414,24.729-7.39c4.003,6.437,6.881,13.563,8.459,20.984C284.625,76.551,285.004,79.067,284.433,81.47z"/>
			<path style="fill:#AE312F;" d="M293.959,61.279c-0.957,1.575-2.911,2.675-4.682,2.135c-1.783-0.54-2.732-2.424-3.576-4.086     c-1.213-2.405-2.6-4.713-4.151-6.902c-0.12-0.176-0.264-0.341-0.408-0.519c4.483-0.975,8.896-1.8,13.191-2.466     c0.466,2.126,0.725,4.298,0.744,6.478C295.096,57.766,294.928,59.693,293.959,61.279z"/>
			<path style="fill:#AE312F;" d="M248.534,75.879c-0.325,1.606-1.626,3.133-3.257,3.19c-0.804,0.029-1.584-0.287-2.315-0.624     c-4.228-1.892-9.988-4.845-13.535-8.665c4.886-2.493,10.034-4.799,15.336-6.892c1.244,2.646,2.315,5.376,3.179,8.164     C248.421,72.616,248.847,74.272,248.534,75.879z"/>
			<path style="fill:#AE312F;" d="M380.937,94.429c-2.356,1.731-4.9,3.222-7.45,4.652c-3.657,2.025-7.909,3.998-11.878,2.699     c-1.335-0.426-2.561-1.239-3.357-2.383c-1.669-2.388-1.151-5.776,0.416-8.231c1.557-2.468,3.964-4.243,6.22-6.088     c2.457-1.987,4.847-4.207,6.585-6.877c0.654-0.997,0.991-2.075,1.279-3.145C376.46,80.886,379.211,87.417,380.937,94.429z"/>
			<path style="fill:#AE312F;" d="M371.079,72.548c-1.701,1.596-3.634,2.925-5.904,3.74c-2.637,0.934-6.384,1.995-8.287-0.815     c-0.512-0.741-0.678-1.65-0.615-2.567c0.241-3.718,3.541-5.947,5.174-9.02c0.221-0.428,0.419-0.881,0.618-1.346     C365.464,65.523,368.468,68.875,371.079,72.548z"/>
			<path style="fill:#AE312F;" d="M383.021,113.758c-2.507,0.26-5.056,0.075-7.503-0.558c-1.624-0.41-3.277-1.085-4.301-2.399     c-1.035-1.327-1.177-3.456,0.072-4.568c0.612-0.545,1.441-0.776,2.225-1.034c2.865-0.942,5.511-2.534,7.687-4.612     c0.294-0.279,0.568-0.608,0.83-0.937c0.214,1.259,0.402,2.529,0.555,3.808C383.028,107.151,383.153,110.583,383.021,113.758z"/>
			<path style="opacity:0.48;fill:#AE312F;" d="M278.939,118.494c-2.389,2.311-3.99,5.833-3.908,9.897     c0.118,5.891,2.736,11.915,7.925,14.451c3.221,1.574,6.566,1.548,9.63,0.96c5.872-1.127,11.582-2.717,15.817-7.232     c1.536-1.638,2.868-3.598,3.542-6.02c1.034-3.71,0.379-8.402-1.714-12.301c-2.094-3.899-5.579-6.912-9.135-7.899     c-4.375-1.215-9.16,0.278-12.662,2.278C285.313,114.411,281.565,115.954,278.939,118.494z"/>
			<path style="opacity:0.48;fill:#EB4949;" d="M338.91,122.425c-2.38,3.252-1.307,7.849,3.063,8.826     c5.851,1.307,14.737-2.415,17.682-7.707c2.487-4.467-1.772-9.525-6.067-9.192c-3.63,0.281-7.049,1.814-9.984,3.86     C342.241,119.163,340.244,120.602,338.91,122.425z"/>
			<path style="opacity:0.48;fill:#EB4949;" d="M235.615,158.998c-3.293,2.128-3.915,6.677-0.285,9.083     c4.862,3.221,14.229,2.927,18.744-0.856c3.812-3.194,1.701-9.27-2.317-10.46c-3.396-1.006-7.035-0.801-10.413,0.037     C239.775,157.192,237.46,157.806,235.615,158.998z"/>
			<path style="fill:#AE312F;" d="M214.607,158.615c-1.504,2.052-3.838,3.282-6.148,4.333c-3.532,1.591-7.212,2.909-10.981,3.765     c-3.821-5.598-6.634-11.739-8.476-18.1c0.153,0.046,0.294,0.08,0.447,0.114c6.26,1.408,12.765,0.629,19.122,0.786     c2.259,0.046,4.776,0.349,6.251,2.066C216.475,153.499,216.099,156.574,214.607,158.615z"/>
			<path style="fill:#AE312F;" d="M216.085,172.444c-0.573,3.291-2.691,6.186-5.345,8.229c-0.062,0.054-0.123,0.096-0.196,0.138     c-3.965-2.983-7.186-6.43-10.123-10.146c2.327-0.494,4.389-1.061,6.641-2.165c1.217-0.604,2.416-1.279,3.742-1.608     c1.315-0.33,2.822-0.239,3.895,0.591C216.125,168.593,216.381,170.659,216.085,172.444z"/>
			<path style="fill:#AE312F;" d="M198.188,145.025c-1.161,0.531-2.491,0.549-3.763,0.414c-2.317-0.253-4.543-0.956-6.696-1.856     c-1.159-5.489-1.629-11.063-1.437-16.52c0.356,0.395,0.675,0.812,0.983,1.204c3.005,3.867,6.479,7.347,10.344,10.339     c1.171,0.906,2.477,1.952,2.58,3.42C200.281,143.3,199.35,144.482,198.188,145.025z"/>
			<path style="opacity:0.48;fill:#AE312F;" d="M320.534,170.012c3.62-1.29,7.281-2.574,10.731-4.253     c-0.504,1.409-1.525,4.34,0.486,4.827c1.812-1.773,1.791-5.146,2.249-7.577c1.147,1.649,2.653,4.209,4.586,4.69     c0.23-1.511-0.637-3.236-1.127-4.692c5.757-2.001,11.592-5.061,15.194-10.122c-0.077,1.643-0.383,3.808,0.572,5.13     c2.611-1.816,4.23-5.081,6.137-7.663c-1.883,3.337-7.465,14.223-7.652,3.859l0.781,0.283c-3.421,4.671-8.763,7.402-14.058,9.446     l0.366-0.799c3.141,7.451-1.604,7.063-4.906,1.666l1.003-0.226c-0.569,2.34-0.521,5.59-2.923,6.906     c-2.706,0.08-2.428-3.531-1.637-5.187l0.473,0.451C327.478,168.155,324.016,169.1,320.534,170.012z"/>
			<path style="fill:#AE312F;" d="M328.62,339.604c-0.627-1.316-1.009-2.732-1.262-4.165c-0.257-1.436-0.336-2.902-0.291-4.366     c0.052-1.465,0.299-2.927,0.714-4.334c0.399-1.413,1.074-2.745,1.91-3.925c-0.38,1.409-0.769,2.753-0.98,4.144     c-0.209,1.384-0.393,2.767-0.421,4.167C328.166,333.922,328.348,336.724,328.62,339.604z"/>
			<path style="fill:#AE312F;" d="M312.11,336.126c-0.633-1.261-1.026-2.622-1.297-4.004c-0.267-1.385-0.388-2.805-0.324-4.232     c0.091-1.423,0.33-2.854,0.857-4.199c0.545-1.334,1.37-2.563,2.455-3.459c-0.696,1.232-1.2,2.466-1.547,3.755     c-0.307,1.3-0.477,2.623-0.544,3.962c-0.085,1.34-0.021,2.693,0.046,4.053C311.844,333.362,311.966,334.729,312.11,336.126z"/>
			<path style="opacity:0.48;fill:#AE312F;" d="M218.161,210.135c-3.973,3.919-3.532,10.227-4.285,15.399     c-1.174,15.234-2.68,37.975-22.424,39.023l0.091-0.011c-5.439,1.696-12.595,1.956-16.359-3.145l-0.116-0.344     c-0.044,0.098,0.168,0.45,0.279,0.462c-0.999-1.068-1.558-2.493-1.916-3.911l0.588,0.498c-0.171,0.029-0.458-0.177-0.433-0.182     c-0.031-0.002,0.248,0.198,0.409,0.17c-14.623-9.309-7.657-30.952-1.863-43.786l0.111,0.052     c-4.069,10.99-7.935,23.594-4.016,35.12l-0.022-0.048l0.121,0.304l-0.016-0.043c1.233,2.966,3.296,5.561,6.012,7.292     l-0.318-0.094c0.171-0.028,0.458,0.178,0.433,0.182c0.031,0.002-0.247-0.198-0.409-0.17l0.588,0.498     c0.241,1.153,0.782,2.298,1.454,3.273l-0.21-0.18c0.15,0.026,0.4,0.414,0.352,0.56l-0.116-0.344     c3.503,4.794,10.082,4.572,15.322,3.21c5.379-0.038,10.861-2.576,14.184-6.92c9.192-10.768,3.923-39.294,12.488-46.964     L218.161,210.135z"/>
			<path style="fill:#AE312F;" d="M191.459,264.244c-0.114-0.784-0.622-1.452-0.976-2.175c-0.372-0.718-0.723-1.455-1.036-2.21     c-0.635-1.507-1.086-3.099-1.375-4.719c-0.272-1.622-0.391-3.278-0.255-4.917c0.073-1.641,0.463-3.252,0.966-4.792     c-0.035,1.632-0.098,3.221-0.01,4.804c0.06,1.58,0.225,3.148,0.505,4.696c0.253,1.553,0.633,3.085,1.068,4.614l0.692,2.3     l0.322,1.176C191.437,263.414,191.6,263.836,191.459,264.244z"/>
			<path style="fill:#AE312F;" d="M174.026,257.507c-0.68-1.278-1.102-2.677-1.378-4.1c-0.279-1.426-0.359-2.893-0.276-4.359     c0.115-1.464,0.448-2.923,1.022-4.281c0.573-1.362,1.478-2.569,2.55-3.523c-0.678,1.283-1.278,2.52-1.652,3.85     c-0.354,1.326-0.611,2.67-0.699,4.043C173.402,251.886,173.642,254.661,174.026,257.507z"/>
			<path style="opacity:0.48;fill:#AE312F;" d="M267.824,348.634c-9.877-19.531-32.621-28.991-53.713-28.305     c-36.812,0.063-66.47,28.382-84.688,58.055c-16.431-12.511-32.64-26.216-51.659-34.606c-12.003-4.089-17.034,5.155-13.397,15.836     c-3.942-10.913,1.324-20.262,13.567-16.322c19.041,8.045,35.301,21.482,51.68,33.855l-0.813,0.156     c18.665-30.6,49.934-59.559,87.99-57.849C237.229,319.579,258.663,329.653,267.824,348.634z"/>
			<path style="fill:#AE312F;" d="M69.358,368.315c0.209-1.711,1.304-3.355,2.832-4.321c1.524-0.986,3.347-1.432,5.11-1.474     c0.883-0.021,1.764,0.046,2.633,0.137c0.853,0.182,1.73,0.257,2.553,0.533c0.826,0.258,1.664,0.476,2.457,0.814     c0.786,0.362,1.581,0.684,2.343,1.078c-1.696-0.315-3.342-0.691-5-0.958c-1.654-0.261-3.31-0.435-4.942-0.381     c-1.636,0.016-3.236,0.367-4.668,1.069c-0.701,0.375-1.377,0.832-1.928,1.435C70.159,366.821,69.702,367.529,69.358,368.315z"/>
			<path style="opacity:0.48;fill:#AE312F;" d="M212.022,181.502c0.631,6.473,4.382,12.408,6.448,2.36     c0.98,2.869,2.075,6.138,4.322,8.231c2.871,2.445,4.401-0.902,4.354-3.595c9.281,4.563,20.057,6.661,30.319,4.844     c-9.979,2.774-20.758,0.891-30.065-3.357l0.889-0.509c-0.057,3.505-3.245,6.233-6.224,3.455     c-2.094-1.993-3.114-4.616-3.951-7.286l0.882-0.03c-0.414,2.36-3.105,6.363-5.31,3.138     C212.418,186.52,212.189,183.988,212.022,181.502z"/>
			<path style="opacity:0.48;fill:#AE312F;" d="M113.804,173.002c1.228,5.879,6.173,9.064,6.204,0.784c0,0-0.14-3.903-0.14-3.903     c0.683,1.894,1.538,4.961,2.521,6.689c0.593,0.999,1.676,2.737,2.64,1.791c0.412-1.653-0.579-3.633-1.188-5.206     c4.298,0.482,8.819-0.012,12.724-1.977c-3.453,2.409-7.783,3.267-11.952,3.109l0.535-0.749c3.937,8.828-3.545,7.831-5.117,0.383     l1.119-0.185C120.989,182.682,114.293,180.567,113.804,173.002z"/>
			<g>
				<path style="fill:#FF9D3D;" d="M131.565,352.892c-0.012,0.025-0.025,0.049-0.037,0.073h-0.012c0,0.012-0.012,0.012-0.012,0.025      c-0.11,0.171-10.578-6.685-11.313-7.15c-14.741-9.391-30.633-18.61-48.117-21.499c-1.432-0.245-2.951-0.416-4.518-0.551      c-1.567-0.122-3.195-0.196-4.861-0.184c-0.539,0-1.09,0.012-1.641,0.024c-0.012,0-0.012,0-0.025,0      c-0.588,0.012-1.175,0.037-1.763,0.073c-0.6,0.025-1.188,0.074-1.788,0.123c-0.6,0.049-1.2,0.11-1.8,0.172      c-11.117,1.261-22.344,5.656-27.499,14.925c-3.808,6.856-2.363,15.831,2.302,22.124c6.452,8.742,17.618,12.464,28.282,13.235      c1.824,0.135,3.624,0.184,5.387,0.159c5.008-0.074,10.223-0.233,15.427-0.037c0.404,0.012,0.82,0.025,1.236,0.049      c0.539,0.025,1.065,0.049,1.604,0.086c0.086,0,0.172,0.012,0.257,0.012c1.016,0.073,2.02,0.159,3.036,0.257      c0.576,0.061,1.151,0.122,1.714,0.208c0.833,0.11,1.665,0.233,2.485,0.38c0.257,0.037,0.514,0.086,0.771,0.122      c3.232,0.6,6.391,1.469,9.415,2.718c3.024,1.261,5.877,3.404,7.065,6.452c3.085,7.897-4.346,15.39-11.166,17.765      c-2.865,0.992-5.889,1.506-8.95,1.702c-2.522,0.172-5.081,0.111-7.591-0.086c-1.567-0.11-3.122-0.27-4.653-0.465      c-8.987-1.151-18.022-3.575-26.532-6.648c-11.631-4.212-24.646-10.174-33.425-19.038c-9.134-9.219-15.61-23.141-12.794-36.302      c2.987-13.908,15.415-23.128,27.511-29.017h0.098c0.098,0,0.184,0,0.294-0.025c2.008-0.281,5.154-2.497,6.942-3.183      c2.351-0.93,4.75-1.763,7.175-2.485c6.244-1.873,12.66-3.036,19.1-3.49c4.016-0.294,8.056-0.306,12.072-0.049      c5.73,0.367,11.435,1.285,17.043,2.73c4.726,1.224,9.17,2.84,13.443,4.738c5.669,2.51,11.056,5.485,16.492,8.656      c1.567,0.918,3.146,1.849,4.738,2.804C126.594,337.38,131.136,351.583,131.565,352.892z"/>
				<path style="opacity:0.2;fill:#AE312F;" d="M131.602,352.991c0,0.012-0.024,0-0.073-0.025h-0.012      c-0.98-0.428-10.53-6.673-11.227-7.126c-11.252-7.175-23.189-14.239-35.983-18.475h-0.012c-3.955-1.31-7.995-2.339-12.121-3.024      c-1.457-0.245-3.012-0.429-4.616-0.551c-1.567-0.122-3.195-0.196-4.861-0.184c-0.539,0-1.09,0.012-1.641,0.024      c-0.012,0-0.012,0-0.025,0c-0.576,0.012-1.163,0.037-1.763,0.073c-0.588,0.037-1.188,0.074-1.788,0.123      c-0.6,0.049-1.2,0.11-1.8,0.184c-11.093,1.274-22.271,5.669-27.401,14.913c-3.808,6.856-2.363,15.831,2.302,22.124      c6.44,8.705,17.557,12.439,28.184,13.235c1.824,0.135,3.624,0.184,5.387,0.159c5.008-0.074,10.223-0.233,15.427-0.037      c0.404,0.012,0.82,0.025,1.236,0.049c0.539,0.025,1.065,0.049,1.604,0.086c0.086,0,0.172,0.012,0.257,0.012      c1.016,0.073,2.02,0.159,3.036,0.257c0.576,0.061,1.151,0.122,1.714,0.208c0.845,0.098,1.665,0.22,2.498,0.355      c0.257,0.049,0.502,0.086,0.759,0.147c3.269,0.588,6.465,1.457,9.513,2.718c3.024,1.261,5.865,3.404,7.064,6.452      c3.086,7.897-4.346,15.39-11.166,17.765c-2.889,1.004-5.95,1.518-9.048,1.702c-2.522,0.172-5.081,0.111-7.591-0.086      c-1.543-0.11-3.061-0.27-4.555-0.465c-8.987-1.151-18.022-3.575-26.531-6.648c-1.604-0.575-3.232-1.2-4.885-1.849      c-10.26-4.065-20.973-9.55-28.54-17.19c-9.134-9.219-15.61-23.141-12.794-36.302c0.159-0.746,0.355-1.493,0.576-2.216      c2.485-8.424,8.509-15.023,15.623-20.14c3.6-2.583,7.468-4.787,11.313-6.661c0.098,0,0.184,0,0.294-0.025      c1.996-0.208,5.216-2.486,7.04-3.183c2.351-0.93,4.75-1.763,7.175-2.485c6.22-1.861,12.586-3.024,19.002-3.49      c4.016-0.294,8.056-0.306,12.072-0.049c5.767,0.355,11.509,1.273,17.141,2.73c4.689,1.212,9.097,2.816,13.345,4.701      c5.669,2.498,11.056,5.473,16.492,8.632c1.579,0.918,3.146,1.861,4.738,2.804v0.061c-0.367,15.084,4.175,29.286,4.604,30.596      C131.589,352.954,131.602,352.991,131.602,352.991z"/>
				<path style="fill:#AE312F;" d="M96.096,402.454c-6.709,2.326-14.251,2.032-21.193,1.151c-8.987-1.151-18.022-3.575-26.531-6.648      c-1.604-0.575-3.232-1.2-4.885-1.849c3.232-3.122,7.309-5.265,11.546-6.612c5.718-1.824,11.791-2.265,17.79-2.461      c2.51-0.073,5.044-0.11,7.481-0.734c2.424-0.624,4.787-1.91,6.183-3.991c0.98-1.469,1.445-3.233,2.412-4.702      c0.294-0.453,0.637-0.857,1.028-1.237c3.539,0.6,6.991,1.506,10.272,2.865c3.024,1.261,5.865,3.404,7.064,6.452      C110.347,392.586,102.915,400.079,96.096,402.454z"/>
				<path style="fill:#AE312F;" d="M19.807,334.221c-4.371,5.265-12.929,5.448-17.08,5.179c2.485-8.424,8.509-15.023,15.623-20.14      C20.909,323.876,23.186,330.144,19.807,334.221z"/>
				<path style="fill:#AE312F;" d="M84.293,327.365c-3.955-1.31-7.995-2.339-12.121-3.024c-4.885-0.808-10.676-1.004-16.492-0.331      c2.191-6.746,6.685-15.267,15.353-14.937C82.199,309.514,84.036,321.966,84.293,327.365z"/>
				<path style="fill:#AE312F;" d="M122.223,319.431c-0.123,2.901-1.616,5.412-6.612,4.971c-8.436-0.747-9.734-9.464-9.88-13.602      C111.4,313.297,116.787,316.272,122.223,319.431z"/>
			</g>
			<path style="opacity:0.48;fill:#AE312F;" d="M208.199,254.837c7.605-3.257,15.526-7.008,23.972-6.96     c1.802,0.077,3.839,1.268,4.165,3.217c0.132,3.873-4.381,5.555-7.282,6.962l-0.317-1.127c5.11-0.638,11.329-1.771,15.645,1.79     c3.354,3.631-2.626,5.772-5.533,6.022l-0.038-0.998c8.185,1.026,15.904,5.556,20.429,12.479     c-5.619-7.619-14.961-11.644-24.28-11.799c2.267-0.638,9.261-0.819,9.297-3.861c-3.291-5.53-15.427-2.228-20.783-1.553     c3.531-1.538,8.595-2.842,11.166-5.858c1.749-1.969-0.37-4.208-2.58-4.264C223.833,248.635,215.866,252.159,208.199,254.837z"/>
			<path style="fill:#FF9D3D;" d="M307.148,252.726c0,0-7.623-5.392-9.529-4.411c-1.906,0.981,7.051,9.177,7.051,9.177     s-6.44-0.001-7.317,2.095c-0.877,2.096,7.889,4.657,7.889,4.657s-4.595,2.584-4.108,4.872c0.487,2.287,8.11,0,8.11,0     L307.148,252.726z"/>
			<path style="opacity:0.48;fill:#AE312F;" d="M316.036,197.548c-3.142,8.399-1.57,13.915,4.924,3.935     c0.355,10.501,3.706,10.393,5.123,0.216c0.659,2.188,2.005,4.686,4.657,4.633c5.949-0.055,6.688-8.46,7.948-12.923     c-0.592,4.599-1.091,10.151-4.98,13.268c-2.838,1.618-6.744,0.432-7.947-2.671l1.107-0.106c-1.407,9.673-6.823,8.452-6.862-0.796     l0.977,0.26c-1.402,1.902-3.831,5.279-6.545,3.844C312.614,204.388,315.065,200.342,316.036,197.548z"/>
			<path style="opacity:0.2;fill:#AE312F;" d="M395.632,275.624c0,0,2.045,7.053,2.914,18.353c-3.526,2.559-8.154,5.62-14.178,9.207     c-20.973,12.5-9.868,41.187-31.796,53.528c-21.928,12.342-29.592-5.865-29.592-5.865c-12.954,0.306-13.737-16.627-13.737-16.627     c1.592,0.967,2.277,1.298,2.277,1.298s1.335,6.709,7.175,7.003c5.84,0.294,9.929-2.914,9.929-2.914s6.587,5.253,16.859,1.457     c7.603-2.804,9.097-18.904,10.982-25.393c1.579-5.461,3.318-11.19,6.452-15.99c4.934-7.591,13.994-10.223,21.303-14.802     C388.384,282.285,392.216,279.163,395.632,275.624z"/>
			<path style="opacity:0.2;fill:#AE312F;" d="M395.632,275.624c1.665-1.738,3.232-3.575,4.689-5.497l0.269,0.429     C397.811,273.922,395.632,275.624,395.632,275.624z"/>
			<path style="opacity:0.48;fill:#AE312F;" d="M359.363,245.811c-3.545-9.86-6.815-21.042-4.024-31.458     C354.25,224.803,357.448,235.589,359.363,245.811z"/>
			<path style="fill:#AE312F;" d="M335.627,292.545c-0.71,1.078-2.02,1.579-3.281,1.861c-7.995,1.8-16.247-2.253-24.328-2.987     c1.836-3.734,4.101-7.64,6.881-11.643c0.269-0.392,0.539-0.771,0.808-1.151c1.996,0.331,3.967,0.845,5.889,1.457     c4.114,1.31,8.093,3.134,11.472,5.816c1.029,0.808,2.02,1.727,2.596,2.902C336.239,289.973,336.337,291.455,335.627,292.545z"/>
			<path style="fill:#AE312F;" d="M396.317,274.889c-3.575,3.845-7.652,7.212-12.096,9.991c-0.71,0.441-1.432,0.869-2.167,1.286     c-6.538-6.697-14.582-11.705-22.454-16.749c-0.98-0.624-2.057-1.383-2.277-2.534c-0.22-1.114,0.478-2.253,1.432-2.865     c0.967-0.6,2.13-0.771,3.257-0.857c5.877-0.429,11.705,1.163,17.251,3.134c5.901,2.093,12.121,4.628,17.043,8.582     L396.317,274.889z"/>
			<path style="fill:#AE312F;" d="M410.948,248.689c-0.71,3.526-1.751,6.722-2.939,9.562c-0.428-0.196-0.845-0.404-1.273-0.6     c-4.53-2.13-9.256-3.82-14.105-5.044c-0.979-0.245-2.008-0.49-2.828-1.089s-1.408-1.653-1.139-2.633     c0.22-0.808,0.943-1.359,1.665-1.763c3.293-1.812,7.309-1.543,11.019-0.894c3.183,0.563,6.33,1.359,9.403,2.388     C410.814,248.639,410.887,248.664,410.948,248.689z"/>
			<path style="fill:#AE312F;" d="M368.512,251.798c-0.343,1.371-2.069,1.775-3.477,1.812c-3.979,0.098-7.909-0.661-11.827-1.261     c-1.885-0.294-3.771-0.563-5.669-0.686c4.897-2.718,9.415-4.836,13.027-6.367c2.681,0.686,5.13,1.873,6.966,3.918     C368.17,249.925,368.745,250.868,368.512,251.798z"/>
			<path style="fill:#AE312F;" d="M198.01,212.24c-0.257,1.004-1.224,1.702-2.24,1.91c-1.016,0.208-2.069,0.025-3.073-0.22     c-4.053-1.004-7.824-2.889-11.595-4.652c-1.592-0.747-3.44-1.335-5.35-1.812c1.726-3.024,3.661-5.999,5.816-8.84     c3.122,1.653,6.171,3.441,9.146,5.35c2.253,1.445,4.481,2.988,6.183,5.057C197.643,209.938,198.304,211.101,198.01,212.24z"/>
			<path style="fill:#AE312F;" d="M204.462,193.887c0.037,0.465,0.012,0.955-0.184,1.371c-0.588,1.224-2.265,1.396-3.612,1.212     c-3.563-0.502-6.771-2.228-9.93-3.844c-0.906-0.465-1.824-0.931-2.755-1.359c2.645-2.62,5.522-5.02,8.607-7.076     c1.8,1.555,3.526,3.232,5.167,4.983C203.018,190.52,204.279,192.05,204.462,193.887z"/>
			<path style="fill:#AE312F;" d="M165.981,434.814c-11.717-3.808-22.295-8.277-30.854-12.66c0.012-0.012,0.012-0.012,0.025-0.025     c7.187-6.562,13.333-14.276,18.108-22.76c2.718-4.836,5.032-9.979,8.681-14.154c3.648-4.175,9.048-7.322,14.545-6.587     c3.6,0.49,5.302,2.694,5.779,6.207C184.726,402.919,177.061,420.844,165.981,434.814z"/>
			<path style="fill:#AE312F;" d="M206.177,443.886c-9.134-1.114-18.169-2.914-26.813-5.154c1.959-2.204,4.224-4.273,5.938-6.489     c3.024-3.906,5.73-8.056,8.081-12.39c1.237-2.277,2.424-4.677,4.383-6.354c1.971-1.69,4.983-2.461,7.175-1.09     c1.751,1.114,2.522,3.257,2.987,5.277C209.923,426.304,208.527,435.328,206.177,443.886z"/>
			<path style="fill:#AE312F;" d="M262.594,440.948c-11.105,2.314-21.512,3.636-30.56,4.04c-0.147,0-0.294,0.012-0.441,0.012     c5.95-11.643,7.065-25.981,6.722-38.689c-0.11-3.722-0.331-7.53,0.82-11.068c1.029-3.171,3.685-6.575,7.322-6.66     c4.64-0.122,6.318,4.64,7.885,8.154C260.317,410.094,264.737,426.072,262.594,440.948z"/>
			<path style="fill:#AE312F;" d="M286.261,434.752c0.233-8.301-0.331-16.615-1.69-24.805c-0.49-3.024-1.102-6.171-0.22-9.109     c0.918-3.122,4.065-5.497,7.358-4.689c3.636,0.894,5.95,5.546,7.689,8.534c3.134,5.387,7.395,13.284,10.04,21.414     C301.749,429.439,293.962,432.316,286.261,434.752z"/>
			<path style="fill:#AE312F;" d="M385.078,174.53c-7.175,3.636-15.01,6.012-22.993,6.942c-1.261,0.147-2.571,0.245-3.771-0.159     c-1.212-0.404-2.277-1.469-2.302-2.743c-0.024-1.334,1.041-2.4,2.02-3.306c4.065-3.734,8.142-7.469,12.207-11.203     c0.355-0.318,1.898-1.518,3.465-2.951C377.107,164.723,381.025,169.216,385.078,174.53z"/>
			<path style="fill:#AE312F;" d="M401.521,200.927c-0.343,0.159-0.685,0.306-1.029,0.453c-6.183,2.62-12.978,4.028-19.638,3.245     c-1.383-0.159-2.791-0.429-3.954-1.188c-1.163-0.759-2.045-2.094-1.91-3.465c0.196-1.922,2.13-3.122,3.869-3.979     c5.155-2.584,10.578-4.959,15.035-8.717C396.538,191.499,399.121,196.054,401.521,200.927z"/>
			<path style="fill:#AE312F;" d="M356.097,397.397c-6.06,5.289-12.941,10.407-20.765,15.243c-0.184-0.992-0.379-1.873-0.514-2.559     c-1.151-5.534-3.477-10.836-6.82-15.39c-3.869-5.277-9.207-9.942-10.456-16.357c-0.379-1.996-0.269-4.261,1.065-5.779     c1.481-1.677,3.991-1.983,6.195-1.677c4.261,0.6,8.044,3,11.46,5.595C343.94,382.326,350.515,389.501,356.097,397.397z"/>
			<path style="fill:#AE312F;" d="M390.195,350.101c-3.048,7.64-7.101,15.439-12.415,23.14c-3.416-1.175-6.697-2.84-9.44-4.42     c-7.542-4.334-15.708-10.395-19.994-18.12c-1.273-2.289-0.514-5.118,1.836-6.367c1.482-0.784,3.22-0.894,4.885-0.869     c4.958,0.098,9.648,1.482,14.374,2.755c1.114,0.306,2.228,0.6,3.342,0.869C378.515,348.473,384.331,349.477,390.195,350.101z"/>
			<path style="fill:#FFC893;" d="M287.257,47.953c-5.029-1.625-10.493-1.883-15.653-0.74c-4.085,0.905-7.934,2.655-11.977,3.73     c-6.531,1.735-13.554,1.706-19.725,4.459c-3.053,1.362-5.781,3.36-8.335,5.516c-1.863,1.573-3.683,3.281-4.824,5.437     c-1.262,2.383-1.602,5.207-1.127,7.862c0.538,3.006,2.113,5.817,4.397,7.845c3.702,3.286,8.815,4.316,13.389,6.207     c3.804,1.572,7.334,3.805,10.385,6.569c2.573,2.331,4.873,5.082,7.988,6.613c2.905,1.427,6.259,1.651,9.488,1.437     c7.314-0.484,15.046-3.619,18.435-10.118c1.659-3.182,2.116-6.83,3.07-10.29c1.43-5.185,4.035-10.042,7.562-14.103     c1.209-1.392,2.537-2.708,3.439-4.316c1.526-2.721,1.638-6.232,0.121-8.958c-1.547-2.78-4.166-3.929-7.174-4.146     C293.348,50.713,290.474,48.993,287.257,47.953z"/>
			<path style="opacity:0.25;fill:#FFFFFF;" d="M287.257,47.953c-5.029-1.625-10.493-1.883-15.653-0.74     c-4.085,0.905-7.934,2.655-11.977,3.73c-6.531,1.735-13.554,1.706-19.725,4.459c-3.053,1.362-5.781,3.36-8.335,5.516     c-1.863,1.573-3.683,3.281-4.824,5.437c-1.262,2.383-1.602,5.207-1.127,7.862c0.538,3.006,2.113,5.817,4.397,7.845     c3.702,3.286,8.815,4.316,13.389,6.207c3.804,1.572,7.334,3.805,10.385,6.569c2.573,2.331,4.873,5.082,7.988,6.613     c2.905,1.427,6.259,1.651,9.488,1.437c7.314-0.484,15.046-3.619,18.435-10.118c1.659-3.182,2.116-6.83,3.07-10.29     c1.43-5.185,4.035-10.042,7.562-14.103c1.209-1.392,2.537-2.708,3.439-4.316c1.526-2.721,1.638-6.232,0.121-8.958     c-1.547-2.78-4.166-3.929-7.174-4.146C293.348,50.713,290.474,48.993,287.257,47.953z"/>
			<path style="fill:#FFFFFF;" d="M233.005,67.463c-0.19,0.478-0.2,1.047,0.065,1.488c0.211,0.351,0.566,0.587,0.913,0.804     c0.613,0.384,1.267,0.758,1.988,0.808c0.636,0.044,1.265-0.171,1.825-0.475c0.493-0.267,0.972-0.636,1.158-1.165     c0.515-1.462-1.309-3.198-2.612-3.504C235.046,65.113,233.474,66.283,233.005,67.463z"/>
			<path style="fill:#FFFFFF;" d="M238.006,62.755c0.048,0.076,0.132,0.119,0.214,0.157c0.41,0.193,0.848,0.351,1.301,0.362     c0.453,0.012,0.927-0.14,1.226-0.481c0.299-0.341,0.376-0.887,0.113-1.256c-0.37-0.52-1.54-0.706-2.133-0.536     C238.103,61.181,237.622,62.149,238.006,62.755z"/>
			<path style="fill:#FFC893;" d="M274.576,156.131c-1.266,0.316-2.502,0.79-3.59,1.51c-2.504,1.657-4.015,4.456-6.312,6.39     c-2.632,2.216-6.082,3.138-9.17,4.655c-3.088,1.517-6.11,4.115-6.304,7.55c-0.17,3.01,1.994,5.78,4.675,7.159     c2.682,1.379,5.792,1.621,8.807,1.659c3.184,0.041,6.427-0.126,9.425-1.201c4.797-1.721,8.665-5.841,10.079-10.737     c0.27-0.936,0.462-1.912,0.96-2.75c0.812-1.366,2.319-2.173,3.274-3.443c2.37-3.153,0.628-7.572-2.103-9.881     C281.875,154.977,277.437,155.417,274.576,156.131z"/>
			<path style="opacity:0.25;fill:#FFFFFF;" d="M274.576,156.131c-1.266,0.316-2.502,0.79-3.59,1.51     c-2.504,1.657-4.015,4.456-6.312,6.39c-2.632,2.216-6.082,3.138-9.17,4.655c-3.088,1.517-6.11,4.115-6.304,7.55     c-0.17,3.01,1.994,5.78,4.675,7.159c2.682,1.379,5.792,1.621,8.807,1.659c3.184,0.041,6.427-0.126,9.425-1.201     c4.797-1.721,8.665-5.841,10.079-10.737c0.27-0.936,0.462-1.912,0.96-2.75c0.812-1.366,2.319-2.173,3.274-3.443     c2.37-3.153,0.628-7.572-2.103-9.881C281.875,154.977,277.437,155.417,274.576,156.131z"/>
			<path style="fill:#FFFFFF;" d="M276.058,158.782c-1.054-0.145-2.133,0.743-2.195,1.805c-0.014,0.241,0.021,0.494,0.161,0.691     c0.167,0.236,0.452,0.353,0.722,0.458c0.84,0.327,1.728,0.66,2.62,0.527c0.892-0.133,1.754-0.916,1.633-1.809     c-0.077-0.565-0.522-1.024-1.035-1.273c-0.513-0.249-1.089-0.322-1.655-0.392"/>
			<path style="fill:#FFC893;" d="M225.555,332.534c-2.06,0.303-4.009,1.071-5.576,2.385c-1.561,1.309-2.575,3.142-3.908,4.681     c-3.049,3.521-7.388,4.929-11.919,5.189c-4.317,0.247-8.651-0.38-12.967-0.107c-4.964,0.314-10.646,2.217-12.897,7.024     c-2.348,5.013-0.732,11.554,2.097,16.002c5.879,9.243,16.343,13.915,26.771,15.651c4.817,0.802,9.719,1.13,14.596,0.876     c5.748-0.3,11.649-1.493,16.326-4.848c9.456-6.785,11.147-20.451,7.532-30.832c-1.828-5.251-4.955-10.607-9.664-13.758     C233.113,332.903,229.164,332.004,225.555,332.534z"/>
			<path style="opacity:0.25;fill:#FFFFFF;" d="M225.555,332.534c-2.06,0.303-4.009,1.071-5.576,2.385     c-1.561,1.309-2.575,3.142-3.908,4.681c-3.049,3.521-7.388,4.929-11.919,5.189c-4.317,0.247-8.651-0.38-12.967-0.107     c-4.964,0.314-10.646,2.217-12.897,7.024c-2.348,5.013-0.732,11.554,2.097,16.002c5.879,9.243,16.343,13.915,26.771,15.651     c4.817,0.802,9.719,1.13,14.596,0.876c5.748-0.3,11.649-1.493,16.326-4.848c9.456-6.785,11.147-20.451,7.532-30.832     c-1.828-5.251-4.955-10.607-9.664-13.758C233.113,332.903,229.164,332.004,225.555,332.534z"/>
			<path style="fill:#FFFFFF;" d="M229.583,338.505c-1.407-0.193-2.847,0.991-2.93,2.409c-0.019,0.321,0.029,0.66,0.215,0.922     c0.223,0.315,0.604,0.471,0.964,0.612c1.121,0.437,2.306,0.881,3.496,0.704c1.19-0.177,2.342-1.223,2.18-2.415     c-0.102-0.753-0.697-1.366-1.381-1.698c-0.684-0.332-1.454-0.43-2.208-0.524"/>
			<path style="fill:#FFFFFF;" d="M311.313,285.345c-1.365,2.269-2.239,4.002-3.298,6.172c-5.881,12.076-7.297,22.548-6.665,29.794     c-8.841-4.923-13.327-9.513-15.118-12.509c-2.1-7.707-2.763-15.277-2.763-15.277s4.784-6.15,15.498-10.428     C308.018,283.728,311.313,285.345,311.313,285.345z"/>
			<path style="fill:#FFFFFF;" d="M365.073,342.491c-5.585-0.768-11.208-1.867-16.746-3.211c5.275-5.144,6.575-18.004,8.201-23.64     c0.667-2.303,1.346-4.668,2.173-6.972c9.76,5.398,17.093,9.565,17.093,9.565C379.315,330.014,365.073,342.491,365.073,342.491z"/>
			<path style="fill:#FF9D3D;" d="M294.354,282.125c2.317,8.301-12.623,22.846-12.623,22.846c-5.669,2.118-9.869-3.856-9.869-3.856     c2.792-17.826,15.598-22.06,15.598-22.06C290.767,278.933,294.354,282.125,294.354,282.125z"/>
			<path style="opacity:0.48;fill:#AE312F;" d="M403.943,264.481c-5.009,8.489-12.032,15.871-20.464,21.026     c-6.242,3.879-13.46,6.349-18.404,11.955c-4.719,5.613-6.571,13.126-8.508,20.055c-1.681,7.12-2.446,14.995-6.935,21.128     c-5.111,5.732-15.031,5.554-21.244,1.464l0.725,0.001c-6.116,4.604-16.425,4.623-18.07-4.382l0.332,0.426     c-2.352-1.318-5.019-2.943-7.175-4.591c-6.234-9.016-3.285-21.462-0.394-31.219c7.165-21.439,23.858-38.404,43.558-48.897     c0.009,0,0.058,0,0.065,0.001l-0.101,0.026c6.867-3.727,14.015-6.985,21.44-9.426c-7.388,2.575-14.482,5.964-21.283,9.815     c-0.009,0-0.061,0.001-0.068,0.001l0.102-0.027c-15.32,8.782-29.301,20.796-37.325,36.758     c-6.405,12.106-11.736,27.684-6.09,40.922c0.545,0.967,1.21,1.516,2.188,2.095c1.723,1.098,4.082,2.678,5.872,3.607     c1.516,8.593,10.973,7.995,16.584,3.714c5.556,3.975,15.208,4.352,20.032-0.975c4.359-5.959,5.07-13.616,6.813-20.67     c2.051-7.072,3.995-14.627,8.897-20.343c5.049-5.623,12.423-8.147,18.72-11.885C391.684,280.083,398.803,272.852,403.943,264.481     z"/>
			<path style="opacity:0.48;fill:#AE312F;" d="M360.148,341.73c1.724-1.741,3.241-3.638,4.625-5.61     c1.376-1.978,2.573-4.07,3.549-6.256c1.01-2.17,1.786-4.45,2.303-6.795c0.589-2.339,0.792-4.748,0.987-7.198     c0.281,2.424,0.399,4.931-0.049,7.377c-0.123,1.242-0.509,2.428-0.796,3.639c-0.414,1.171-0.787,2.363-1.331,3.483     c-1.036,2.26-2.329,4.405-3.902,6.321C363.983,338.618,362.18,340.35,360.148,341.73z"/>
			<path style="opacity:0.48;fill:#AE312F;" d="M286.232,308.802c1.836-1.672,3.517-3.476,5.118-5.326     c1.58-1.869,3.042-3.824,4.303-5.899c1.245-2.084,2.237-4.298,2.974-6.606c0.694-2.328,0.969-4.75,0.989-7.244     c0.456,2.435,0.506,5.008-0.064,7.483c-0.576,2.464-1.573,4.82-2.85,6.996c-1.331,2.144-2.888,4.133-4.651,5.913     C290.295,305.901,288.357,307.506,286.232,308.802z"/>
			<path style="opacity:0.48;fill:#AE312F;" d="M287.461,279.055c-2.314,13.26-15.598,22.06-15.598,22.06     C274.654,283.289,287.461,279.055,287.461,279.055z"/>
		</g>
	</g>
	<path style="fill:#AE312F;" d="M230.125,177.909c2.547-2.887,5.339-5.496,8.19-8.036c2.876-2.513,5.814-4.956,9-7.119   c-2.545,2.889-5.337,5.498-8.19,8.036C236.247,173.301,233.309,175.744,230.125,177.909z"/>
	<path style="fill:#AE312F;" d="M223.867,170.736c3.063-2.146,6.298-3.964,9.574-5.701c3.294-1.704,6.631-3.326,10.141-4.617   c-3.061,2.149-6.296,3.966-9.574,5.701C230.713,167.821,227.376,169.443,223.867,170.736z"/>
	<path style="fill:#AE312F;" d="M220.711,159.456c3.712-0.613,7.437-0.855,11.165-1.007c3.729-0.115,7.462-0.137,11.208,0.215   c-3.712,0.616-7.437,0.858-11.165,1.008C228.19,159.784,224.457,159.805,220.711,159.456z"/>
	<path style="fill:#AE312F;" d="M347.2,124.78c3.562-1.55,7.229-2.744,10.921-3.851c3.703-1.072,7.432-2.054,11.266-2.677   c-3.561,1.553-7.228,2.747-10.921,3.851C354.763,123.172,351.034,124.154,347.2,124.78z"/>
	<path style="fill:#AE312F;" d="M366.318,109.322c-2.966,2.273-6.117,4.224-9.314,6.097c-3.216,1.841-6.478,3.601-9.928,5.038   c2.964-2.275,6.116-4.226,9.315-6.097C359.608,112.521,362.87,110.761,366.318,109.322z"/>
	<path style="fill:#AE312F;" d="M358.04,100.863c-1.641,3.313-3.591,6.421-5.615,9.477c-2.056,3.036-4.189,6.02-6.632,8.796   c1.639-3.315,3.589-6.422,5.616-9.477C353.466,106.624,355.599,103.64,358.04,100.863z"/>
</g>















</svg>
