<?xml version="1.0" encoding="UTF-8"?>
<!-- Generator: Adobe Illustrator 25.2.3, SVG Export Plug-In . SVG Version: 6.00 Build 0)  -->
<svg xmlns="http://www.w3.org/2000/svg" xmlns:xlink="http://www.w3.org/1999/xlink" version="1.1" id="Capa_1" x="0px" y="0px" viewBox="0 0 512 512" style="enable-background:new 0 0 512 512;" xml:space="preserve" width="512" height="512">
<g>
	<g>
		<path style="fill:#6CE1C1;" d="M84.287,196.546c-0.067-0.471-1.372-0.579-3.605-0.673c-0.013,0-0.013,0-0.027,0    c-4.6-0.162-13.1-0.242-22.905-3.12c-12.63-3.699-23.497-9.993-32.602-19.556c-9.899-10.424-15.293-24.304-20.04-37.632    c-0.027-0.094-0.067-0.175-0.094-0.269c-0.619-1.722-2.071-5.501-3.255-9.711c-1.681-5.931-2.811-12.723-0.269-15.924    c0.524-0.659,1.197-1.17,2.071-1.48c1.21-0.444,3.026-0.794,5.312-0.942c3.362-0.229,7.72-0.027,12.683,0.995    c3.12,0.619,6.469,1.574,9.953,2.946c16.57,6.496,36.005,22.326,46.805,57.632c2.273,7.411,4.156,15.682,5.555,24.895    C84.019,194.636,84.153,195.591,84.287,196.546z"/>
		<path style="fill:#6CE1C1;" d="M138.92,109.123v0.013c-0.081,2.219-0.215,4.049-0.256,5.124c-0.054,1.036-0.094,2.085-0.161,3.134    v0.013c-0.7,13.275-2.045,26.98-8.07,38.977c-5.918,11.809-15.615,21.439-26.98,28.056c-1.789,1.036-13.746,6.146-19.583,9.267    c-1.856,0.982-3.094,1.775-3.188,2.165c-0.013,0.027-0.013,0.04-0.013,0.054c-0.014-0.014-0.014-0.04-0.014-0.054    c-1.56-9.845-2.3-18.843-2.34-27.061v-0.013c-0.242-40.443,16.086-61.828,31.15-72.252c3.04-2.098,6.039-3.753,8.823-5.03    c3.806-1.735,7.236-2.771,9.926-3.268c1.601-0.296,2.946-0.404,3.941-0.35c1.372,0.067,2.475,0.673,3.362,1.654    C138.947,93.333,139.122,102.788,138.92,109.123z"/>
		<path style="opacity:0.5;fill:#FFFFFF;" d="M135.517,89.553c-0.134,0.942-0.323,1.991-0.565,3.134    c-4.156,20.323-18.326,34.62-18.326,34.62c6.119-17.337,10.714-31.997,11.588-39.058c1.601-0.296,2.946-0.404,3.941-0.35    C133.527,87.966,134.63,88.572,135.517,89.553z"/>
		<path style="opacity:0.5;fill:#FFFFFF;" d="M138.92,109.136c-0.081,2.219-0.215,4.049-0.256,5.124    c-0.054,1.036-0.094,2.085-0.161,3.134v0.013c-5.561,5.225-13.034,10.41-13.37,10.586    C129.626,122.465,136.082,113.494,138.92,109.136z"/>
		<path style="opacity:0.5;fill:#FFFFFF;" d="M118.288,91.517c-1.318,5.555-6.618,16.714-7.303,29.868c0,0-2.34-12.722-1.519-24.837    C112.505,94.449,115.504,92.795,118.288,91.517z"/>
		<path style="opacity:0.5;fill:#FFFFFF;" d="M35.357,137.044c0,0-17.283-6.98-30.517-22.945c-1.426-1.708-2.528-3.188-3.349-4.438    c0.524-0.659,1.197-1.17,2.071-1.48c1.21-0.444,3.026-0.794,5.312-0.942C13.044,113.144,21.988,124.818,35.357,137.044z"/>
		<path style="opacity:0.5;fill:#FFFFFF;" d="M26.359,138.322c0,0-10.195,0.094-21.25-2.757c-0.027-0.094-0.067-0.175-0.094-0.269    c-0.619-1.722-2.071-5.501-3.255-9.711C6.777,128.773,15.237,133.655,26.359,138.322z"/>
		<path style="opacity:0.5;fill:#FFFFFF;" d="M36.151,128.867c-5.447-9.025-10.76-16.019-14.593-20.632    c3.12,0.619,6.469,1.574,9.953,2.946C35.008,120.568,36.151,128.867,36.151,128.867z"/>
	</g>
	<g>
		<g>
			<path style="fill:#FF9D3D;" d="M256.247,157.136c0,0-22.304,75.36-64.672,72.722c-13.548-0.842-21.537-4.842-26.119-9.87     c-5.239-5.747-6.068-12.843-5.709-18.205c0.31-4.632,1.511-7.963,1.511-7.963s-2.465,0-5.635-1.412c-0.012,0-0.024,0-0.037-0.012     c-2.353-1.065-5.102-2.898-7.517-6.105c-0.013-0.013-0.025-0.037-0.037-0.062c-0.099-0.124-0.198-0.248-0.285-0.372     c-0.991-1.375-1.647-2.824-1.981-4.335c-0.025-0.074-0.037-0.124-0.037-0.149c-1.746-8.36,6.688-18.416,26.23-26.775     c15.951-6.824,23.679,3.381,26.936,10.403c0,0,0.074,0.136,0.198,0.408c1.338,2.997,1.858,5.326,1.858,5.326     c0.049-0.025,0.099-0.062,0.149-0.087C226.474,154.906,256.247,157.136,256.247,157.136z"/>
			<path style="opacity:0.2;fill:#AE312F;" d="M256.247,157.136c0,0-22.304,75.36-64.672,72.722     c-13.548-0.842-21.537-4.842-26.119-9.87c-5.239-5.747-6.068-12.843-5.709-18.205c0.31-4.632,1.511-7.963,1.511-7.963     s-2.465,0-5.635-1.412c-0.012,0-0.024,0-0.037-0.012c-2.353-1.065-5.102-2.898-7.517-6.105c-0.013-0.013-0.025-0.037-0.037-0.062     c-0.099-0.124-0.198-0.248-0.285-0.372c-0.991-1.375-1.647-2.824-1.981-4.335c-0.025-0.074-0.037-0.124-0.037-0.149     c-1.746-8.36,6.688-18.416,26.23-26.775c15.951-6.824,23.679,3.381,26.936,10.403c0,0,0.074,0.136,0.198,0.408     c1.338,2.997,1.858,5.326,1.858,5.326c0.049-0.025,0.099-0.062,0.149-0.087C226.474,154.906,256.247,157.136,256.247,157.136z"/>
		</g>
		<path style="opacity:0.48;fill:#AE312F;" d="M145.715,181.33c5.873,15.474,22.2,12.625,34.267,6.627    C168.551,195.967,149.906,198.067,145.715,181.33z"/>
		<path style="opacity:0.48;fill:#AE312F;" d="M198.895,164.996c5.903,10.673,6.843,23.977,2.98,35.5    C203.982,188.636,203.142,176.307,198.895,164.996z"/>
		<path style="opacity:0.48;fill:#AE312F;" d="M156.942,192.831c0.067-3.604,1.577-7.202,4.036-9.942    c1.24-1.358,2.683-2.559,4.329-3.373c0.787-0.472,1.666-0.75,2.514-1.063c0.867-0.265,1.763-0.431,2.64-0.589    c-1.632,0.766-3.222,1.506-4.65,2.5c-1.457,0.936-2.751,2.089-3.891,3.367c-1.161,1.263-2.139,2.696-2.963,4.225    C158.145,189.491,157.448,191.111,156.942,192.831z"/>
		<path style="opacity:0.48;fill:#AE312F;" d="M147.745,185.855c-1.225-3.025-0.899-6.658,0.64-9.626    c0.816-1.456,1.819-2.83,3.114-3.87c0.588-0.582,1.332-0.972,1.994-1.443c0.724-0.384,1.456-0.743,2.198-1.056    c-0.599,0.561-1.251,1.016-1.833,1.556c-0.551,0.573-1.183,1.045-1.675,1.653c-0.255,0.294-0.513,0.584-0.778,0.865    c-0.24,0.302-0.458,0.622-0.688,0.929c-0.241,0.3-0.456,0.616-0.642,0.953c-0.187,0.334-0.419,0.642-0.569,0.995    c-0.74,1.341-1.19,2.82-1.498,4.333C147.729,182.666,147.609,184.244,147.745,185.855z"/>
	</g>
	<g>
		<path style="fill:#6CE1C1;" d="M430.421,390.274c0,0.347-0.012,0.681-0.037,1.016c-4.384-0.656-9.078-1.016-13.957-1.016    c-23.877,0-43.234,8.521-43.234,19.035c0,4.322,3.269,8.297,8.781,11.493c-30.28,7.914-72.251,12.818-118.644,12.818    c-92.277,0-167.092-19.406-167.092-43.346c0-23.927,74.815-43.333,167.092-43.333    C355.618,346.941,430.421,366.348,430.421,390.274z"/>
		<ellipse style="fill:#6CE1C1;" cx="338.358" cy="463.752" rx="24.255" ry="7.862"/>
		<path style="fill:#6CE1C1;" d="M375.003,443.661c0,1.93-6.612,3.494-14.77,3.494s-14.77-1.564-14.77-3.494    c0-1.93,6.613-3.494,14.77-3.494S375.003,441.731,375.003,443.661z"/>
		<path style="fill:#6CE1C1;" d="M246.894,433.409c-9.98-8.568-35.426-14.647-65.231-14.647c-12.266,0-23.779,1.036-33.799,2.851    h-0.014c-21.439,3.86-35.951,11.311-35.951,19.865c0,12.549,31.244,22.717,69.764,22.717c38.534,0,69.764-10.168,69.764-22.717    C251.427,438.641,249.826,435.91,246.894,433.409z M194.898,444.518c-3.47,0-6.281-0.982-6.281-2.179    c0-1.197,2.811-2.179,6.281-2.179c3.47,0,6.281,0.982,6.281,2.179C201.179,443.536,198.368,444.518,194.898,444.518z     M213.808,455.453c-6.281,0-11.352-1.762-11.352-3.927c0-2.179,5.07-3.927,11.352-3.927c6.268,0,11.351,1.748,11.351,3.927    C225.16,453.691,220.076,455.453,213.808,455.453z"/>
		<path style="fill:#6CE1C1;" d="M297.495,447.592c0,2.171-5.082,3.931-11.351,3.931c-6.269,0-11.351-1.76-11.351-3.931    s5.082-3.931,11.351-3.931C292.413,443.661,297.495,445.421,297.495,447.592z"/>
	</g>
	<path style="fill:#FF9D3D;" d="M409.32,200.604c0,0-76.389,15.126-132.743-17.907c-29.356-17.184-42.472-44.582-35.822-75.545   c3.631-16.686,13.947-33.052,27.791-42.382c29.265-18.607,77.816-10.075,111.242-0.117c30.83,9.333,61.532,23.709,71.772,53.219   c5.868,16.038,4.568,33.914-1.933,49.712C439.325,194.523,416.212,200.947,409.32,200.604z"/>
	<g>
		<g>
			<path style="fill:#FFFFFF;" d="M408.139,155.632c-8.105,2.699-19.222,1.208-26.129-3.977c-1.475-1.109-2.77-2.417-3.833-3.946     c-4.588-6.668-5.536-16.36-3.43-24.048c0.035-0.181,0.085-0.36,0.135-0.538c2.27-7.718,8.688-13.466,16.522-15.247     c9.168-2.08,21.439-0.187,27.085,8.119c2.225,3.281,3.575,7.345,4.047,11.625l0.015,0.003     C423.848,139.031,418.992,152.005,408.139,155.632z"/>
			<path style="fill:#AE312F;" d="M408.139,155.632c-22.758,6.077-39.619-8.79-34.415-32.251l-0.019,0.08     c6.115-25.194,48.517-22.959,49.329,4.104l-0.398-0.436c0.013,0.003,0.367,0.084,0.382,0.087     C424.099,138.295,419.488,151.783,408.139,155.632z M408.139,155.632c11.159-3.809,15.463-17.142,13.914-27.952l0.398,0.434     c-0.014-0.003-0.347-0.062-0.362-0.065c-0.693-5.38-2.752-10.975-6.964-14.51c-10.171-7.952-27.724-7.111-35.819,3.416     c-5.803,7.755-6.057,18.923-2.289,27.658C382.086,155.864,397.149,158.926,408.139,155.632z"/>
		</g>
		<path style="fill:#AE312F;" d="M392.57,149.406c6.102,2.163,13.571,1.176,18.349-3.295c7.613-7.124,7.546-20.632-0.285-27.59    c-4.204-3.736-10.566-5.628-16.089-4.541c-14.76,2.906-17.66,23.864-6.612,32.863C389.293,147.951,390.872,148.804,392.57,149.406    z"/>
		<path style="opacity:0.21;fill:#AE312F;" d="M422.536,127.62c-25.137-18.52-45.313-5.678-47.788-3.959    c0.035-0.181,0.085-0.36,0.135-0.538c2.27-7.718,8.688-13.466,16.522-15.247c9.168-2.08,21.439-0.187,27.085,8.119    C420.714,119.276,422.064,123.339,422.536,127.62z"/>
	</g>
	<g>
		<g>
			<path style="fill:#FFFFFF;" d="M309.267,143.819c-8.105,2.7-19.222,1.208-26.129-3.977c-1.475-1.109-2.77-2.418-3.833-3.946     c-4.587-6.668-5.535-16.36-3.429-24.048c0.035-0.181,0.085-0.36,0.135-0.538c2.27-7.718,8.688-13.466,16.522-15.247     c9.169-2.08,21.439-0.187,27.085,8.119c2.225,3.281,3.575,7.344,4.047,11.625l0.015,0.003     C324.976,127.218,320.12,140.193,309.267,143.819z"/>
			<path style="fill:#AE312F;" d="M309.267,143.819c-22.757,6.078-39.619-8.79-34.415-32.251l-0.019,0.08     c6.115-25.193,48.516-22.957,49.329,4.105l-0.403-0.437c0.014,0.003,0.372,0.081,0.387,0.084     C325.227,126.479,320.617,139.97,309.267,143.819z M309.235,143.559c11.334-3.454,15.447-16.974,13.946-27.691l0.403,0.435     c-0.013-0.002-0.353-0.059-0.367-0.062c-0.694-5.382-2.751-10.977-6.965-14.514c-10.171-7.953-27.724-7.111-35.819,3.416     c-4.511,5.854-5.436,13.729-4.327,20.909C277.682,141.62,295.734,148.246,309.235,143.559z"/>
		</g>
		<path style="fill:#AE312F;" d="M293.698,137.594c6.102,2.163,13.571,1.176,18.349-3.295c7.613-7.124,7.546-20.632-0.285-27.59    c-4.204-3.735-10.566-5.628-16.089-4.541c-14.76,2.906-17.66,23.864-6.613,32.863C290.421,136.139,292,136.992,293.698,137.594z"/>
		<path style="opacity:0.21;fill:#AE312F;" d="M323.664,115.808c-25.136-18.52-45.313-5.678-47.788-3.959    c0.035-0.181,0.085-0.36,0.135-0.538c2.27-7.718,8.688-13.466,16.522-15.247c9.169-2.08,21.439-0.187,27.085,8.119    C321.842,107.463,323.192,111.527,323.664,115.808z"/>
	</g>
	<path style="fill:#FF9D3D;" d="M455.142,240.706c-0.386,23.728-7.865,47.983-18.849,70.666   c-33.952,81.223-156.912,81.471-184.789,75.608c-4.592-15.326-38.568-127.942-43.915-145.828   c-4.936-134.636,188.093-75.2,225.658-63.285C443.74,186.478,456.755,216.133,455.142,240.706z"/>
	<path style="fill:#AE312F;" d="M353.322,121.656c0,0-4.701-5.913-7.597-4.934c-2.897,0.979,1.848,7.791,7.382,9.52   c0,0,9.365-4.364,7.258-8.468C358.258,113.67,353.322,121.656,353.322,121.656z"/>
	<path style="fill:#AE312F;" d="M338.693,163.928c4.448-13.452,9.696-27.955,14.673-41.216c4.748,13.18,8.625,26.895,9.272,40.951   c-1.548-13.343-5.326-26.366-9.865-38.963l1.157-0.004C349.195,137.422,343.897,151.385,338.693,163.928z"/>
	<path style="fill:#FF9D3D;" d="M281.227,88.569c-0.352-0.106-0.704-0.213-1.042-0.341c-24.961-8.457-26.378-42.276-19.95-46.209   c0.107-0.069,0.233-0.141,0.351-0.203c6.537-3.645,17.419,0.017,28.114,7.193c10.899,7.293,25.969,5.002,25.969,5.002   S307.178,96.419,281.227,88.569z"/>
	<path style="fill:#FF9D3D;" d="M445.845,98.583c0,0-0.004,0.013-0.02,0.021c-1.238,1.3-2.56,2.519-3.999,3.632   c-0.004,0.012-0.016,0.008-0.033,0.017c-2.865,2.229-6.177,4.055-9.951,5.308c-25.601,8.493-30.935-34.168-30.935-34.168   s15.149,1.91,25.734-5.643c9.602-6.878,19.5-10.773,26.227-8.561c0.683,0.222,1.318,0.51,1.934,0.859   C459.982,63.023,458.703,84.985,445.845,98.583z"/>
	<path style="fill:#AE312F;" d="M445.846,98.588c0,0-0.007,0.011-0.025,0.014c-0.166,0.232-1.64,2.069-3.993,3.628   c-0.007,0.011-0.025,0.015-0.032,0.025c-1.316,0.874-3.3,1.577-5.529,1.889c-4.88-0.521-5.85-0.617-8.949-3.647   c-7.615-7.477,13.56-13.891,21.779-27.967c3.151-4.035,4.911-8.449,3.77-13.342c0.68,0.225,1.317,0.516,1.938,0.857   C459.981,63.02,458.701,84.987,445.846,98.588z"/>
	<path style="fill:#AE312F;" d="M280.187,88.229c-24.964-8.464-26.386-42.281-19.954-46.207c0.107-0.069,0.232-0.142,0.351-0.204   c0.219,2.087,0.948,5.093,3.068,8.599c1.456,4.362,0.431,7.362,6.309,11.442c10.819,7.489,15.801,16.732,13.082,22.36   C282.235,85.916,281.198,87.296,280.187,88.229z"/>
	<path style="fill:#FFFFFF;" d="M438.44,93.284c0,0,1.154,6.121-2.173,10.86c-3.935,0.562-8.613-0.084-11.712-3.114   c-7.615-7.477,14.927-16.191,24.542-28.5c-0.652,4.053-2.472,9.832-7.429,14.392c0,0,5.738-1.058,6.38,0.161   c0.598,1.191-6.329,3.36-6.717,3.478c0.289-0.013,3.634-0.171,3.832,1.3C445.366,93.398,438.44,93.284,438.44,93.284z"/>
	<path style="fill:#FFFFFF;" d="M283.042,84.218c-15.815-1.596-13.289-16.457-13.289-16.457s-2.493,2.471-3.935,0.825   c-1.371-1.585,1.895-3.23,2.175-3.373c-0.174-0.02-3.766-0.347-4.512-1.526c-0.772-1.211,3.095-1.525,3.095-1.525   c-3.844-4.163-3.433-9.284-2.925-11.747c2.152,3.528,5.711,7.552,11.589,11.632C286.059,69.538,285.761,78.59,283.042,84.218z"/>
	<path style="fill:#AE312F;" d="M367.365,94.419c-1.793,1.969-4.618,3.222-7.211,2.51c-3.512-0.953-5.251-4.83-6.173-8.331   c-1.602-6.103-2.137-12.409-3.313-18.591c-0.823-4.301-1.98-8.618-3.965-12.546c-0.116-0.23-0.236-0.477-0.355-0.725   c9.307,1.537,18.608,3.657,27.537,6.184c0.437,8.233-0.564,16.52-2.965,24.392C370.138,89.86,369.175,92.446,367.365,94.419z"/>
	<path style="fill:#AE312F;" d="M387.107,80.367c-1.745,0.982-4.192,0.982-5.601-0.473c-1.42-1.462-1.335-3.753-1.267-5.778   c0.107-2.925-0.003-5.852-0.333-8.752c-0.022-0.23-0.073-0.464-0.117-0.709c4.801,1.466,9.454,3.038,13.911,4.697   c-0.675,2.263-1.571,4.459-2.701,6.535C390.044,77.644,388.869,79.381,387.107,80.367z"/>
	<path style="fill:#AE312F;" d="M335.985,69.98c-1.156,1.348-3.204,2.102-4.794,1.285c-0.784-0.401-1.364-1.117-1.885-1.826   c-3.047-4.047-6.998-9.916-8.376-15.427c5.984,0.244,12.121,0.803,18.293,1.646c-0.204,3.171-0.618,6.328-1.261,9.431   C337.596,66.827,337.13,68.625,335.985,69.98z"/>
	<path style="fill:#AE312F;" d="M452.807,158.152c-3.164,0.384-6.381,0.44-9.574,0.435c-4.563-0.031-9.668-0.428-12.778-3.776   c-1.053-1.116-1.796-2.54-1.954-4.048c-0.338-3.152,1.942-6.086,4.733-7.577c2.788-1.508,6.024-1.907,9.154-2.452   c3.396-0.573,6.849-1.401,9.918-3.005c1.151-0.596,2.041-1.438,2.88-2.298C455.66,142.933,454.851,150.588,452.807,158.152z"/>
	<path style="fill:#AE312F;" d="M454.907,132.164c-2.467,0.605-5.015,0.833-7.615,0.395c-3.013-0.521-7.155-1.513-7.494-5.191   c-0.099-0.975,0.221-1.925,0.764-2.761c2.189-3.394,6.518-3.747,9.698-5.788c0.436-0.288,0.865-0.611,1.3-0.946   C453.239,122.514,454.345,127.292,454.907,132.164z"/>
	<path style="fill:#AE312F;" d="M444.619,177.577c-2.534-1.09-4.874-2.625-6.879-4.53c-1.337-1.254-2.562-2.776-2.849-4.567   c-0.29-1.809,0.694-3.901,2.474-4.29c0.872-0.19,1.787,0.034,2.672,0.207c3.236,0.635,6.604,0.538,9.779-0.271   c0.428-0.108,0.863-0.273,1.287-0.445c-0.459,1.307-0.947,2.611-1.476,3.904C448.105,171.321,446.418,174.64,444.619,177.577z"/>
	<path style="opacity:0.48;fill:#AE312F;" d="M342.61,126.569c-3.501,0.916-6.887,3.4-8.949,7.294   c-2.99,5.645-3.66,12.748-0.034,17.918c2.251,3.209,5.463,4.968,8.702,6.045c6.208,2.063,12.505,3.601,18.932,1.581   c2.331-0.733,4.637-1.88,6.557-3.815c2.942-2.964,4.789-7.759,4.84-12.57c0.052-4.81-1.693-9.523-4.574-12.354   c-3.543-3.483-8.904-4.621-13.306-4.593C350.855,126.099,346.459,125.562,342.61,126.569z"/>
	<path style="opacity:0.48;fill:#EB4949;" d="M397.879,162.27c-3.988,1.812-5.384,6.74-1.72,9.995   c4.906,4.359,15.362,5.569,20.966,2.126c4.731-2.906,3.323-9.97-0.959-11.944c-3.619-1.669-7.696-2.039-11.579-1.666   C402.783,160.954,400.115,161.254,397.879,162.27z"/>
	<path style="opacity:0.48;fill:#EB4949;" d="M280.368,144.419c-4.264,1.041-6.555,5.617-3.556,9.487   c4.017,5.182,14.084,8.302,20.241,5.961c5.198-1.977,5.128-9.166,1.282-11.893c-3.251-2.306-7.195-3.423-11.087-3.775   C285.439,144.035,282.757,143.836,280.368,144.419z"/>
	<path style="fill:#AE312F;" d="M259.969,130.282c-2.519,1.142-5.398,1.063-8.161,0.828c-4.215-0.376-8.427-1.09-12.482-2.287   c-0.704-7.341-0.16-14.66,1.43-21.669c0.122,0.125,0.239,0.232,0.367,0.347c5.244,4.672,11.873,7.403,17.868,10.941   c2.136,1.248,4.383,2.877,4.889,5.29C264.45,126.431,262.47,129.143,259.969,130.282z"/>
	<path style="fill:#AE312F;" d="M254.607,143.747c-2.345,2.891-5.995,4.55-9.71,5.085c-0.09,0.019-0.173,0.027-0.267,0.027   c-2.283-5.079-3.818-10.275-4.694-15.505c2.555,0.795,5.125,1.446,7.937,1.605c1.523,0.079,3.067,0.078,4.549,0.485   c1.471,0.4,2.904,1.314,3.509,2.711C256.733,140.018,255.864,142.171,254.607,143.747z"/>
	<path style="fill:#AE312F;" d="M251.429,108.651c-1.39-0.116-2.671-0.808-3.816-1.614c-2.082-1.475-3.841-3.328-5.425-5.329   c1.784-5.818,4.269-11.351,7.327-16.419c0.132,0.564,0.218,1.129,0.306,1.665c0.836,5.266,2.324,10.416,4.445,15.312   c0.643,1.482,1.34,3.17,0.666,4.616C254.338,108.132,252.826,108.756,251.429,108.651z"/>
	<path style="opacity:0.48;fill:#AE312F;" d="M381.918,203.471c4.174-0.156,8.388-0.289,12.513-0.903   c-0.955,1.327-2.572,3.363-1.385,4.904c0.313,0.362,0.486,0.319,0.924,0.063c1.972-1.669,3.121-4.531,4.231-6.868   c0.692,2.08,1.4,5.187,3.333,6.296c0.739-1.496,0.372-3.565,0.323-5.234c6.594-0.218,13.622-1.467,18.981-5.534   c-0.592,1.674-1.577,3.767-0.98,5.454c3.316-1.009,6.036-3.912,8.847-5.975c-3.04,2.791-12.292,12.378-9.191,1.533l0.683,0.516   c-5.068,3.737-11.507,4.825-17.664,5.226l0.606-0.68c0.912,8.752-3.865,6.722-5.586,0.136l1.058,0.078   c-1.328,2.233-2.318,5.644-5.225,6.205c-2.791-0.803-1.379-4.411-0.035-5.873l0.328,0.59   C389.754,203.784,385.841,203.646,381.918,203.471z"/>
	<path style="fill:#AE312F;" d="M392.262,89.125c0,0-0.462-1.544,0.779-1.81c4.01-0.859,13.366-1.63,15.638,2.092   C412.635,95.89,402.857,101.382,392.262,89.125z"/>
	<path style="fill:#AE312F;" d="M308.644,81.828c0,0,0.462-1.544-0.779-1.81c-4.01-0.859-13.367-1.63-15.638,2.092   C288.271,88.593,298.049,94.085,308.644,81.828z"/>
	<path style="opacity:0.48;fill:#AE312F;" d="M418.031,215.571c-1.905,1.633-3.775,3.164-5.579,4.794   c-0.913,0.799-1.801,1.626-2.689,2.463c-0.9,0.828-1.753,1.702-2.705,2.537c1.052-2.292,2.688-4.271,4.554-5.943   c0.943-0.83,1.942-1.595,3.015-2.249C415.694,216.515,416.819,215.936,418.031,215.571z"/>
	<path style="opacity:0.48;fill:#AE312F;" d="M377.915,276.173c-0.82-1.86-1.165-3.936-1.122-5.996   c0.032-2.063,0.434-4.133,1.189-6.068c0.809-1.904,1.813-3.746,3.185-5.286c0.611-0.828,1.428-1.475,2.14-2.197   c0.793-0.643,1.609-1.254,2.438-1.827c-0.645,0.793-1.367,1.485-1.996,2.261l-0.922,1.173c-0.317,0.38-0.621,0.768-0.878,1.192   c-0.271,0.412-0.544,0.82-0.826,1.221c-0.256,0.418-0.478,0.856-0.718,1.281c-0.251,0.42-0.482,0.849-0.665,1.302   c-0.191,0.448-0.421,0.88-0.581,1.34c-0.73,1.807-1.157,3.722-1.385,5.667C377.573,272.184,377.567,274.18,377.915,276.173z"/>
	<path style="opacity:0.48;fill:#AE312F;" d="M359.729,268.781c-0.282-3.267,0.408-6.585,1.705-9.62   c0.653-1.52,1.524-2.953,2.563-4.241c1.006-1.319,2.323-2.374,3.685-3.254c-1.049,1.26-2.058,2.48-2.886,3.831   c-0.828,1.341-1.603,2.712-2.205,4.17c-0.639,1.439-1.169,2.93-1.643,4.449C360.498,265.641,360.067,267.185,359.729,268.781z"/>
	<path style="opacity:0.48;fill:#AE312F;" d="M381.918,274.814c7.766,15.495,25.343,21.476,41.483,16.45   c15.971-4.312,27.245-18.814,31.916-34.185c-3.774,15.94-15.309,30.904-31.569,35.398   C407.146,297.488,389.019,291.224,381.918,274.814z"/>
	<path style="opacity:0.48;fill:#AE312F;" d="M252.834,162.428c0.121,2.965-0.586,7.88,2.351,9.538   c2.129,0.484,3.272-1.765,3.702-3.565l1.055,0.197c-0.811,6.556,2.914,7.676,6.965,2.83c6.251,7.072,15.784,10.649,25.061,11.318   c-9.388,0.294-18.999-3.112-25.545-9.997l0.95,0.001c-4.776,5.518-9.696,2.569-8.492-4.315l1.055,0.197   c-0.518,2.2-2.364,4.854-4.938,4.094C251.481,170.943,252.615,165.636,252.834,162.428z"/>
	<path style="fill:#FFC893;" d="M275.876,384.068l-31.345-20.222l-36.398-120.861c8.917-11.592,37.413-41.612,77.354-39.903   c4.879,0.223,9.932,0.904,15.134,2.142c2.824,0.681,5.697,1.523,8.607,2.551c4.186,1.474,7.914,3.344,11.208,5.573   C363.732,242.515,359.372,343.942,275.876,384.068z"/>
	<path style="fill:#FFC893;" d="M320.44,213.335c0,0-3.059-18.146-7.347-16.965c-4.289,1.181-1.32,11.902-1.32,11.902   s-4.288-8.906-8.082-9.071c-3.793-0.165-3.077,6.029-3.077,6.029s-6.984-7.304-15.561-1.883c-8.577,5.42,18.637,18.12,18.637,18.12   l18.967,2.144L320.44,213.335z"/>
	<path style="fill:#9CF0E7;" d="M273.114,206.996c0,0.273-0.049,0.545-0.149,0.805c-2.031,5.226-21.004,5.846-21.004,5.846   s-3.257,20.694-9.066,19.865c-5.808-0.83-8.149-18.156-8.149-18.156s-20.372,5.065-23.134,1.474   c-0.26-0.347-0.372-0.768-0.334-1.276c0.186-4.706,11.938-15.493,11.938-15.493s-14.651-11.877-7.753-15.579   c6.886-3.703,22.119,6.081,22.119,6.081s8.855-17.029,13.462-15.926c4.62,1.102,3.951,20.744,3.951,20.744   S273.027,201.869,273.114,206.996z"/>
	<path style="fill:#9CF0E7;" d="M378.829,225.932c-6.849,5.759-13.091,14.217-16.62,22.391c-0.594,1.35-1.102,2.687-1.536,4.012   c-0.805,2.489-1.374,5.152-1.61,7.765c-3.245,3.963-12.471,14.515-16.311,11.654c-4.694-3.505,1.536-19.84,1.536-19.84   s-20.311-5.3-21.016-9.771c-0.706-4.483,18.205-9.177,18.205-9.177s-5.437-13.226-1.684-16.607   c0.557-0.508,1.313-0.805,2.328-0.792c7.827,0.062,16.521,15.926,16.521,15.926s15.927-10.713,19.444-7.53   C378.569,224.396,378.792,225.077,378.829,225.932z"/>
	<path style="fill:#AE312F;" d="M430.059,323.807c-12.864,21.109-28.059,32.559-45.422,42.219   c-6.118-0.433-12.174-1.585-17.487-4.545c-4.421-2.477-8.446-6.873-8.075-11.926c0.186-2.489,1.424-4.805,3.034-6.712   c5.66-6.675,15.134-8.384,23.84-9.239c9.313-0.929,18.7-1.375,27.816-3.467C419.623,328.785,425.254,326.692,430.059,323.807z"/>
	<path style="fill:#AE312F;" d="M445.445,289.749c-2.477,6.874-5.511,14.081-9.152,21.623c-2.675,1.375-5.511,2.514-8.347,3.493   c-5.685,1.957-14.366,5.536-20.088,1.796c-0.731-0.471-1.375-1.102-1.734-1.895c-1.523-3.344,3.071-6.031,5.251-7.604   c2.428-1.759,5.164-3.047,7.938-4.174c5.474-2.242,11.357-3.815,16.348-7.096C436.962,295.037,440.627,293.019,445.445,289.749z"/>
	<path style="fill:#FF5555;" d="M405.172,352.472c0,0-24.956,32.193-72.748,52.132c-35.407,14.775-83.62,22.75-144.181,5.784   c-1.338-0.371-2.662-0.755-3.963-1.164c-1.176-0.359-2.341-0.731-3.493-1.114c-1.151-0.384-2.291-0.768-3.418-1.177   c-1.04-0.371-2.081-0.756-3.096-1.152c-0.929-0.347-1.845-0.706-2.762-1.077c-0.161-0.062-0.31-0.124-0.458-0.186   c-0.979-0.396-1.957-0.805-2.923-1.226c-0.111-0.038-0.223-0.087-0.322-0.136c-0.681-0.297-1.35-0.595-2.006-0.892   c-0.619-0.273-1.226-0.557-1.833-0.842c-0.334-0.161-0.668-0.31-0.991-0.471c-0.731-0.347-1.449-0.693-2.167-1.065   c-0.384-0.186-0.756-0.372-1.115-0.57c-0.607-0.297-1.214-0.607-1.821-0.941c-0.545-0.273-1.077-0.557-1.597-0.855   c-0.31-0.161-0.607-0.322-0.904-0.495c-0.743-0.396-1.474-0.817-2.192-1.238c-0.818-0.47-1.635-0.941-2.44-1.436   c-0.693-0.409-1.374-0.83-2.043-1.263c-0.235-0.148-0.483-0.297-0.719-0.458c-0.706-0.433-1.411-0.892-2.105-1.362   c-0.273-0.173-0.533-0.347-0.793-0.533c-0.619-0.409-1.238-0.83-1.845-1.263c-1.152-0.793-2.291-1.622-3.406-2.452   c-0.891-0.669-1.783-1.338-2.65-2.019c-0.892-0.693-1.771-1.399-2.638-2.118c-0.83-0.681-1.647-1.374-2.452-2.068   c-2.328-2.019-4.582-4.099-6.75-6.23c-0.508-0.495-1.003-1.003-1.486-1.511c-0.421-0.421-0.829-0.83-1.226-1.251   c-0.681-0.694-1.338-1.4-1.994-2.118c-1.3-1.424-2.564-2.861-3.802-4.31c-0.483-0.558-0.954-1.127-1.412-1.697   c-0.124-0.149-0.248-0.297-0.371-0.446c-0.446-0.557-0.892-1.115-1.337-1.672c-0.248-0.322-0.495-0.644-0.743-0.954   c-0.347-0.446-0.693-0.892-1.028-1.338c-1.511-1.982-2.96-4-4.347-6.031c-0.396-0.582-0.793-1.152-1.177-1.734   c-1.003-1.498-1.981-3.009-2.923-4.545c-1.895-3.059-3.666-6.168-5.338-9.313c-37.129-69.7-24.121-158.616-24.121-158.616   s3.327-5.244,10.064-3.312c6.749,1.932,34.962,117.344,123.3,61.167c0,0,6.329,52.746,56.573,87.398c0,0,0.037,0.037,0.124,0.099   c16.298,11.22,37.215,20.521,64.016,25.512C349.626,353.926,375.424,355.258,405.172,352.472z"/>
	<path style="fill:#AE312F;" d="M189.023,207.008c-1.313,2.155-3.542,3.555-5.722,4.818c-5.66,3.294-11.617,6.217-17.846,8.161   c-5.239-5.747-6.068-12.843-5.709-18.205c0.533,0.087,1.078,0.173,1.635,0.26c5.895,0.966,12.025,0.409,17.648-1.61   c1.573-0.569,3.121-1.251,4.781-1.486c1.647-0.247,3.48,0,4.718,1.127C190.41,201.745,190.324,204.866,189.023,207.008z"/>
	<path style="fill:#AE312F;" d="M453.817,221.684c-0.173,0.062-0.359,0.136-0.533,0.198c-6.7,2.427-14.069,3.232-21.054,1.758   c-1.759-0.372-3.901-1.449-3.691-3.245c0.136-1.214,1.35-1.994,2.464-2.526c4.013-1.92,8.397-2.935,12.496-4.694   c2.688-1.152,5.226-2.663,7.233-4.731C451.984,212.445,453.049,216.866,453.817,221.684z"/>
	<path style="fill:#AE312F;" d="M455.142,240.706c-0.074,4.434-0.396,9.115-1.028,14.032h-0.533c-4.161,0-8.335-0.297-12.385-1.238   c-5.127-1.201-9.957-3.393-14.577-5.883c-2.056-1.115-4.359-2.749-4.273-5.077c0.062-1.957,1.92-3.468,3.84-3.827   c1.932-0.372,3.901,0.148,5.796,0.631c6.328,1.622,13.004,3.047,19.568,2.205C452.801,241.388,453.99,241.078,455.142,240.706z"/>
	<path style="opacity:0.5;fill:#6CE1C1;" d="M273.114,206.996c-0.012,0.012-0.012,0.025-0.012,0.025   c-0.136,0.174-4.731-1.498-5.078-1.598c-10.923-3.047-22.032-3.641-32.633-1.313c-6.787,1.499-13.363,4.186-19.53,8.186   c-1.573,1.015-3.096,2.105-4.582,3.257c0.186-4.706,11.938-15.493,11.938-15.493s-14.651-11.877-7.753-15.579   c6.886-3.703,22.119,6.081,22.119,6.081s8.855-17.029,13.462-15.926c4.62,1.102,3.951,20.744,3.951,20.744   S273.027,201.869,273.114,206.996z"/>
	<path style="opacity:0.5;fill:#6CE1C1;" d="M378.829,225.932c-6.849,5.759-13.091,14.217-16.62,22.391   c-8.335-14.589-18.168-26.887-22.416-31.965c0.557-0.508,1.313-0.805,2.328-0.792c7.827,0.062,16.521,15.926,16.521,15.926   s15.927-10.713,19.444-7.53C378.569,224.396,378.792,225.077,378.829,225.932z"/>
	<path style="opacity:0.48;fill:#AE312F;" d="M301.101,234.841c-1.171-2.019-2.383-4.011-3.754-5.881   c-0.683-0.934-1.383-1.855-2.155-2.699c-0.771-0.827-1.62-1.638-2.569-2.062c-0.47-0.208-0.945-0.271-1.327-0.123   c-0.424,0.157-0.709,0.488-0.899,0.911c-0.361,0.887-0.267,2.054-0.078,3.139c0.417,2.203,1.253,4.392,2.206,6.447l0.659,1.42   l-1.474-0.589c-1.292-0.516-2.714-0.949-4.104-1.07c-1.387-0.141-2.808,0.073-3.789,0.896c-0.456,0.421-0.627,0.809-0.395,1.327   c0.236,0.521,0.76,1.019,1.3,1.452c1.109,0.866,2.412,1.6,3.721,2.205l1.474,0.681l-1.596,0.177   c-2.1,0.233-4.216,0.807-6.185,1.645c-0.982,0.434-1.922,0.962-2.793,1.6c-0.845,0.667-1.607,1.442-2.232,2.344   c0.523-0.96,1.215-1.835,2.039-2.578c0.839-0.722,1.766-1.341,2.744-1.867c0.981-0.523,2.022-0.919,3.077-1.259   c1.063-0.332,2.126-0.603,3.253-0.774l-0.121,0.858c-1.415-0.59-2.787-1.23-4.044-2.18c-0.613-0.49-1.242-1.01-1.653-1.845   c-0.071-0.232-0.185-0.444-0.2-0.701c0.012-0.255-0.053-0.535,0.066-0.768c0.142-0.523,0.475-0.864,0.79-1.184   c1.326-1.143,3.1-1.373,4.643-1.244c1.583,0.124,3.064,0.529,4.516,1.157l-0.815,0.831c-0.97-2.184-1.783-4.401-2.203-6.791   c-0.17-1.189-0.322-2.459,0.206-3.759c0.269-0.639,0.853-1.231,1.548-1.438c0.734-0.241,1.487-0.054,2.058,0.234   c1.162,0.599,1.98,1.502,2.754,2.402c0.755,0.919,1.444,1.877,2.063,2.876C299.059,230.636,300.169,232.699,301.101,234.841z"/>
	<g>
		<path style="opacity:0.36;fill:#AE312F;" d="M405.172,352.472c0,0-24.956,32.193-72.748,52.132    c-35.407,14.775-83.62,22.75-144.181,5.784c-1.338-0.371-2.662-0.755-3.963-1.164c-1.176-0.359-2.341-0.731-3.493-1.114    c-1.151-0.384-2.291-0.768-3.418-1.177c-1.04-0.371-2.081-0.756-3.096-1.152c-0.929-0.347-1.845-0.706-2.762-1.077    c-0.161-0.062-0.31-0.124-0.458-0.186c-0.979-0.396-1.957-0.805-2.923-1.226c-0.111-0.038-0.223-0.087-0.322-0.136    c-0.681-0.297-1.35-0.595-2.006-0.892c-0.619-0.273-1.226-0.557-1.833-0.842c-0.334-0.161-0.668-0.31-0.991-0.471    c-0.731-0.347-1.449-0.693-2.167-1.065c-0.384-0.186-0.756-0.372-1.115-0.57c-0.607-0.297-1.214-0.607-1.821-0.941    c-0.545-0.273-1.077-0.557-1.597-0.855c-0.31-0.161-0.607-0.322-0.904-0.495c-0.743-0.396-1.474-0.817-2.192-1.238    c-0.818-0.47-1.635-0.941-2.44-1.436c-0.693-0.409-1.374-0.83-2.043-1.263c-0.235-0.148-0.483-0.297-0.719-0.458    c-0.706-0.433-1.411-0.892-2.105-1.362c-0.273-0.173-0.533-0.347-0.793-0.533c-0.619-0.409-1.238-0.83-1.845-1.263    c-1.152-0.793-2.291-1.622-3.406-2.452c-0.891-0.656-1.771-1.338-2.65-2.019c-0.892-0.693-1.771-1.399-2.638-2.118    c-0.83-0.681-1.647-1.374-2.452-2.068c-2.328-2.019-4.582-4.099-6.75-6.23c-0.508-0.495-1.003-1.003-1.486-1.511    c-0.421-0.421-0.829-0.83-1.226-1.251c-0.681-0.694-1.338-1.4-1.994-2.118c-1.3-1.424-2.564-2.861-3.802-4.31    c-0.483-0.558-0.954-1.127-1.412-1.697c-0.124-0.149-0.248-0.297-0.371-0.446c-0.446-0.557-0.892-1.115-1.337-1.672    c-0.248-0.322-0.495-0.644-0.743-0.954c-0.347-0.446-0.693-0.892-1.028-1.338c-1.511-1.982-2.96-4-4.347-6.031    c-0.396-0.582-0.793-1.152-1.177-1.734c-1.003-1.498-1.981-3.009-2.923-4.545c-1.895-3.059-3.666-6.168-5.338-9.313    c2.824-1.858,8.323-1.709,13.871,0.644c6.997,2.985,11.419,8.347,9.858,12.001c-0.83,1.969-3.245,3.022-6.378,3.109    c35.804,18.391,67.31,27.036,94.407,29.711c-0.755-0.904-1.189-1.895-1.177-2.935c0.037-3.963,6.229-7.121,13.833-7.059    c7.604,0.062,13.747,3.331,13.71,7.294c-0.012,1.3-0.694,2.502-1.858,3.542c23.63-0.731,43.049-5.994,58.12-12.347    c-1.684-0.161-2.96-0.805-3.269-1.882c-0.533-1.82,1.87-4.112,5.363-5.127c3.492-1.028,6.749-0.371,7.282,1.449    c0.111,0.409,0.074,0.83-0.087,1.263c13.14-6.638,21.946-13.586,26.28-17.413C349.626,353.926,375.424,355.258,405.172,352.472z"/>
		<path style="opacity:0.36;fill:#AE312F;" d="M246.921,378.173c3.635-0.106,6.537-1.727,6.482-3.621    c-0.055-1.894-3.047-3.343-6.682-3.238c-3.635,0.106-6.537,1.727-6.482,3.621C240.295,376.829,243.286,378.278,246.921,378.173z"/>
		<path style="opacity:0.36;fill:#AE312F;" d="M123.692,339.399c-0.599,1.797,1.712,4.187,5.162,5.337    c3.45,1.15,6.732,0.625,7.332-1.173c0.599-1.798-1.712-4.187-5.162-5.337C127.574,337.077,124.291,337.602,123.692,339.399z"/>
		<path style="opacity:0.36;fill:#AE312F;" d="M303.575,355.813c1.89-0.551,3.189-1.796,2.902-2.781    c-0.287-0.984-2.052-1.336-3.941-0.785c-1.89,0.551-3.189,1.796-2.902,2.781C299.921,356.013,301.685,356.364,303.575,355.813z"/>
		<path style="opacity:0.36;fill:#AE312F;" d="M124.343,327.422c1.793,0.811,3.59,0.711,4.013-0.223    c0.423-0.935-0.689-2.35-2.482-3.161c-1.794-0.811-3.59-0.711-4.013,0.224C121.438,325.196,122.549,326.611,124.343,327.422z"/>
	</g>
	<path style="fill:#FF5555;" d="M272.348,378.518c-13.558,6.445-10.043,10.186,3.173,8.019c-14.043,6.168-12.558,12.822,2.834,8.941   c-2.802,1.542-6.412,2.971-8.458,5.506c-2.401,3.91,4.334,4.676,6.974,4.355c-10.074,1.425-10.75-4.809-2.324-9.088l0.365,1.001   c-12.541,2.841-13.677-5.544-2.801-10.29l0.306,1.075C257.864,389.444,261.941,381.628,272.348,378.518z"/>
	<path style="fill:#FF5555;" d="M195.174,412.234c-8.724-7.406-0.352-9.199,6.865-8.789l-0.224,1.043   c-13.515-5.281-11.489-11.97,2.768-9.742l-0.282,1.044c-2.484-1.3-5.924-2.638-6.589-5.669c0.589-3.751,7.207-1.731,9.686-1.223   c-9.209-1.784-13.004,1.409-2.676,5.886c0,0,3.327,1.446,3.327,1.446c-16.893-2.507-19.61,1.96-2.725,8.5   C199.171,404.3,185.947,402.97,195.174,412.234z"/>
	<path style="opacity:0.5;fill:#FFFFFF;" d="M202.539,239.856c-4.393,3.803-8.93,7.996-11.42,13.294   c-3.368,9.413,6.515,8.287,12.209,5.707c-9.326,9.289-10.12,17.771,5.697,13.476c-8.785,7.981-7.563,18.657,5.953,17.417   c-12.522,2.279-16.2-8.386-7.964-16.85l0.525,0.908c-13.881,3.572-15.406-5.035-6.71-13.996l0.63,0.963   c-6.573,2.65-14.75,0.552-11.109-7.962C193.087,247.392,197.789,243.422,202.539,239.856z"/>
	<path style="opacity:0.5;fill:#FFFFFF;" d="M196.876,312.272c-1.815,0.065-12.843,3.605-7.835,5.743   c3.168,0.887,6.684,0.622,9.954,0.54c-8.619,4.31-14.031,13.638,0.462,10.791c0,0,4.099-0.969,4.099-0.969   c-2.295,1.288-5.651,2.7-7.408,4.698c-4.238,4.767,1.445,8.592,6.304,7.269c-9.711,2.571-11.344-7.054-3.097-10.96l0.383,1.009   c-13.32,3.354-13.365-6.225-3.138-11.692l0.298,1.041C182.99,320.377,184.585,313.447,196.876,312.272z"/>
	<path style="opacity:0.5;fill:#FFFFFF;" d="M150.016,271.41c-1.798-0.261-11.753-0.351-8.502,3.164   c2.505,1.921,5.932,2.659,8.909,3.599c-12.71,1.216-14.652,7.611-0.208,7.585c-10.095,3.174-13.578,9.374-0.199,10.046   c-10.947,0.995-13.241-5.935-2.675-10.13l0.186,1.081c-12.375-0.144-10.709-8.224,0.255-9.32l-0.087,1.081   C135.636,274.968,139.086,269.24,150.016,271.41z"/>
	<path style="fill:#6CE1C1;" d="M464.333,189.195c0,0,10.059-26.272,27.793-32.174c17.734-5.902,21.488,5.266,19.322,10.213   C506.696,178.08,482.867,172.987,464.333,189.195"/>
	<path style="fill:#6CE1C1;" d="M466.697,196.295c0,0,12.269-9.657,25.415-9.723c13.147-0.066,12.648,13.243,4.623,15.31   C485.435,204.791,478.545,194.212,466.697,196.295"/>
	<path style="fill:#6CE1C1;" d="M92.224,354.68c0,0-18.6-21.106-37.279-20.443c-18.679,0.662-18.297,12.438-14.539,16.317   C48.646,359.059,69.197,345.964,92.224,354.68"/>
	<path style="fill:#6CE1C1;" d="M92.489,362.158c0,0-14.868-4.764-27.211-0.235c-12.342,4.529-7.227,16.826,1.014,15.96   C77.896,376.663,80.658,364.344,92.489,362.158"/>
	<path style="fill:#AE312F;" d="M436.026,161.239c-4.397,0.866-8.825,1.35-13.262,1.741c-4.439,0.353-8.887,0.61-13.367,0.483   c4.397-0.869,8.825-1.353,13.262-1.741C427.099,161.371,431.546,161.115,436.026,161.239z"/>
	<path style="fill:#AE312F;" d="M436.796,170.62c-4.322-0.027-8.598-0.434-12.863-0.934c-4.26-0.538-8.508-1.171-12.71-2.188   c4.323,0.024,8.599,0.431,12.863,0.934C428.346,168.973,432.594,169.607,436.796,170.62z"/>
	<path style="fill:#AE312F;" d="M431.796,181.504c-3.806-1.621-7.42-3.574-10.987-5.608c-3.548-2.067-7.049-4.217-10.356-6.701   c3.807,1.618,7.421,3.571,10.987,5.607C424.987,176.872,428.487,179.022,431.796,181.504z"/>
	<path style="fill:#AE312F;" d="M288.478,147.356c-4.344-0.79-8.578-1.946-12.784-3.192c-4.195-1.283-8.363-2.657-12.42-4.402   c4.345,0.787,8.579,1.944,12.785,3.193C280.253,144.24,284.421,145.615,288.478,147.356z"/>
	<path style="fill:#AE312F;" d="M256.247,146.261c4.327-0.13,8.621,0.121,12.907,0.466c4.283,0.383,8.558,0.861,12.8,1.724   c-4.327,0.133-8.621-0.119-12.907-0.466C264.764,147.599,260.489,147.121,256.247,146.261z"/>
	<path style="fill:#AE312F;" d="M258.694,159.931c3.889-1.739,7.894-3.112,11.926-4.396c4.043-1.248,8.116-2.404,12.303-3.191   c-3.889,1.742-7.893,3.115-11.926,4.397C266.953,157.984,262.881,159.14,258.694,159.931z"/>
	<path style="opacity:0.48;fill:#AE312F;" d="M396.093,267.333c-9.107,5.544-20.825,13.723-31.741,8.657   c-10.151-7.313-5.599-22.667-0.781-31.939c11.048-21.022,38.191-41.139,48.969-8.051c-11.497-31.829-37.092-11.863-47.854,8.644   c-4.657,8.852-9.191,23.317,0.167,30.518C375.229,280.164,387.034,272.257,396.093,267.333z"/>
</g>















</svg>
