<?xml version="1.0" encoding="UTF-8"?>
<!-- Generator: Adobe Illustrator 25.2.3, SVG Export Plug-In . SVG Version: 6.00 Build 0)  -->
<svg xmlns="http://www.w3.org/2000/svg" xmlns:xlink="http://www.w3.org/1999/xlink" version="1.1" id="Capa_1" x="0px" y="0px" viewBox="0 0 512 512" style="enable-background:new 0 0 512 512;" xml:space="preserve" width="512" height="512">
<g>
	<path style="fill:#9CF0E7;" d="M247.31,18.469c-47.036,10.061-89.042,37.05-110.149,82.39   c-7.502,16.115-9.305,34.348-18.098,49.948c-6.922,12.282-16.585,24.84-28.544,32.388c-22.095,13.944-46.686,24.93-64.124,44.97   c-31.272,35.939-35.231,89.257-9.331,129.377c36.563,56.637,113.384,73.75,176.218,76.197   c61.937,2.413,124.666-12.909,178.081-44.477c15.618-9.23,28.459-19.568,41.112-32.421c5.625-5.713,10.931-11.713,15.857-18.038   c11.211-14.396,20.713-30.131,28.135-46.803c38.526-86.538,19.308-206.334-69.44-254.765   C345.245,14.435,293.582,8.571,247.31,18.469z"/>
	<g>
		<g>
			<path style="fill:#6CE1C1;" d="M467.289,88.087c-4.531,19.566-20.224,16.549-23.498,15.691V63.501     c0-13.537-10.974-24.511-24.511-24.511h-96.006c-13.537,0-24.511,10.974-24.511,24.511v55.876     c0,13.537,10.974,24.511,24.511,24.511h96.006c10.764,0,19.886-6.949,23.18-16.597     C477.283,122.164,467.289,88.087,467.289,88.087z"/>
			<path style="fill:#FFFFFF;" d="M342.202,77.64c-2.876,1.33,14.979,39.366,20.976,42.04c5.997,2.673,56.056-56.377,51.439-60.994     c-4.617-4.617-44.048,44.826-48.625,48.267C361.13,103.239,346.812,75.507,342.202,77.64z"/>
			<path style="opacity:0.33;fill:#FFFFFF;" d="M306.262,68.076c0,0-1.338-14.486,7.358-21.176     c8.696-6.689,25.196-3.344,25.196-3.344L306.262,68.076z"/>
		</g>
		<path style="fill:#6CE1C1;" d="M510.673,294.977c-5.068,21.882-24.11,15.516-24.11,15.516l-0.157,0.746v-24.354    c0-13.537-10.974-24.511-24.511-24.511h-96.006c-13.537,0-24.511,10.974-24.511,24.511v55.877    c0,13.537,10.974,24.511,24.511,24.511h96.006c13.537,0,24.511-10.974,24.511-24.511v-8.674    C520.55,328.675,510.673,294.977,510.673,294.977z"/>
		<g>
			<path style="fill:#6CE1C1;" d="M140.048,120.282H44.043c-13.537,0-24.511,10.974-24.511,24.511v33.083     c-26.844,8.236-18.2,37.733-18.2,37.733c3.236-13.973,12.165-16.423,18.2-16.373v1.432c0,13.537,10.974,24.511,24.511,24.511     h96.006c13.537,0,24.511-10.974,24.511-24.511v-55.877C164.559,131.256,153.585,120.282,140.048,120.282z"/>
			<path style="fill:#FFFFFF;" d="M57.435,172.731c0,2.433-1.972,4.405-4.404,4.405c-2.433,0-4.405-1.972-4.405-4.405     c0-2.432,1.972-4.404,4.405-4.404C55.463,168.327,57.435,170.299,57.435,172.731z"/>
			<path style="fill:#FFFFFF;" d="M96.45,172.731c0,2.433-1.972,4.405-4.404,4.405c-2.433,0-4.405-1.972-4.405-4.405     c0-2.432,1.972-4.404,4.405-4.404C94.478,168.327,96.45,170.299,96.45,172.731z"/>
			<path style="fill:#FFFFFF;" d="M135.465,172.731c0,2.433-1.972,4.405-4.404,4.405c-2.433,0-4.405-1.972-4.405-4.405     c0-2.432,1.972-4.404,4.405-4.404C133.493,168.327,135.465,170.299,135.465,172.731z"/>
			<path style="opacity:0.33;fill:#FFFFFF;" d="M23.65,150.761c0,0-1.338-14.486,7.358-21.176     c8.696-6.689,25.196-3.344,25.196-3.344L23.65,150.761z"/>
		</g>
	</g>
	<path style="fill:#FF5555;" d="M442.319,175.139l-3.033-22.744l-17.184,22.744c0,0-26.534-3.791-25.776-3.791   s16.426,16.931,16.426,16.931l-14.657,20.827l28.454-8.192c0,0,15.264,17.943,15.77,16.932c0.505-1.011,1.011-24.512,1.011-24.512   l24.007-10.109L442.319,175.139z"/>
	<path style="fill:#FF9D3D;" d="M101.208,36.275L86.662,25.798l3.701,21.961c0,0-16.386,13.039-15.98,12.608   c0.407-0.43,18.429-0.248,18.429-0.248l3.968,19.498l10.611-20.557c0,0,18.379,0.954,18.076,0.125s-13.382-13.723-13.382-13.723   l7.136-19.059L101.208,36.275z"/>
	<g>
		<path style="fill:#FF9D3D;" d="M333.045,259.457c-2.303-6.561-4.123-10.51-4.123-10.51l-14.545-61.525    c8.249-5.988,14.317-13.135,18.422-21.192c3.064-6.002,5.067-12.485,6.09-19.366c0.297-1.969,0.512-3.955,0.659-5.992    c0.066-0.978,0.115-1.956,0.147-2.935v-0.114c0.195-5.905-0.224-12.052-1.207-18.359c-0.083-0.476-0.15-0.934-0.233-1.409    c-0.133-0.803-0.283-1.622-0.433-2.442c-0.1-0.492-0.2-0.984-0.316-1.476c-1.164-5.316-3.224-10.326-6.163-15.03    c-0.147-0.236-0.318-0.462-0.469-0.696c0.451,0.122,0.727,0.194,0.778,0.207c-0.365-0.694-12.603-22.931-16.292-33.512    c-3.755-10.729-5.987-24.477-12.373-25.065h-0.017c-5.788-0.526-18.998,11.233-21.924,25.072    c-0.055,0.255-0.087,0.516-0.135,0.773c-3.063-0.963-6.225-1.882-9.529-2.736c-0.498-0.126-1.012-0.269-1.526-0.378    c-4.81-1.221-9.853-2.317-15.16-3.288l-0.017,0c-2.173-0.393-4.395-0.771-6.651-1.133c-9.736-1.547-20.251-2.72-31.529-3.503    c-0.365-0.025-0.729-0.049-1.078-0.074c-1.26-0.078-2.504-0.156-3.715-0.201c-2.983-0.142-5.847-0.193-8.639-0.197    c-0.241-0.208-0.507-0.456-0.804-0.762l-0.415-0.418c-1.743-1.82-3.967-4.483-4.232-4.782c-3.436-4.046-5.48-9.3-8.484-13.63    c-4.366-6.303-11.169-11.014-19.327-9.734c-0.514,0.086-0.979,0.271-1.426,0.588c-1.144,0.789-2.104,2.285-2.866,4.276    c-2.748,7.135-2.905,20.419-0.196,28.561c0.05,0.165,0.117,0.345,0.183,0.51c0.079,0.227,0.179,0.41,0.263,0.628    c-0.133,0.044-0.274,0.082-0.406,0.127c-15.337,5.114-25.696,13.543-32.771,23.5c-0.497,0.691-0.961,1.398-1.425,2.105    c-1.855,2.847-3.462,5.813-4.87,8.833c-0.066,0.146-0.132,0.291-0.182,0.437c-0.712,1.534-1.357,3.087-1.954,4.656    c-0.281,0.728-0.546,1.44-0.795,2.169c-1.291,3.692-2.333,7.439-3.193,11.189c-0.099,0.422-0.182,0.845-0.265,1.251    c-0.099,0.438-0.182,0.861-0.264,1.283c-0.397,1.998-0.694,3.967-0.908,5.888c-0.016,0.097-0.016,0.179-0.033,0.277    c-0.28,2.409-0.428,4.756-0.476,7.041c-0.015,1.045-0.015,2.073,0.002,3.085c0.19,9.837,2.27,18.3,4.741,24.983    c-0.493,0.414-0.943,0.79-1.273,1.04c-7.006,5.207-13.374,11.303-19.064,17.923c-0.039,0.058-0.097,0.097-0.135,0.155    c-4.045,4.742-7.665,9.755-10.858,14.981c-2.594,4.18-4.897,8.516-6.948,12.948c-3.929,8.516-6.909,17.458-8.961,26.652    c-7.664,33.929-3.039,71.167,11.362,102.483c0.774,1.703,1.587,3.406,2.438,5.071c0.871,1.723,1.781,3.445,2.749,5.129    c1.606,2.845,3.309,5.632,5.129,8.342c1.839,2.729,3.774,5.381,5.806,7.955c3.31,4.2,6.891,8.187,10.723,11.942    c5.342,5.245,11.167,10.026,17.381,14.206c4.684,3.193,9.6,6.058,14.709,8.555c1.432,0.697,3.058,1.471,4.897,2.284    c5.09,2.245,11.613,4.839,19.142,7.181c5.11,1.587,10.703,3.077,16.568,4.258c8.884,1.8,18.445,2.922,28.18,2.748    c10.219-0.193,20.632-1.819,30.619-5.593c6.774-2.574,13.297-7.065,18.89-12.736c0.523-0.503,1.007-1.006,1.49-1.548    c0.02-0.02,0.02-0.02,0.039-0.039c1.723-1.897,3.309-3.929,4.742-6.155c0,0,0.058,0,0.193,0c3.349-0.116,48.6-2.303,65.187-41.825    C348.49,312.605,339.123,276.837,333.045,259.457z"/>
		<g>
			<g>
				<path style="fill:#FF9D3D;" d="M318.628,258.201c0,0,14.978-5.163,39.202,18.013c24.224,23.177,26.29,59.515,20.017,61.475      c-4.196,1.311-6-2.211-6-2.211s4.304,25.995-4.374,36.816c0,0,16.768-10.207,46.293-6.926      c29.525,3.281,27.703,18.226,27.703,18.226s-7.107,7.259-38.992,1.895c-19.573-3.293-47.774,17.897-57.616,1.494      c0,0-44.823,34.885-91.48,6.089C206.722,364.275,318.628,258.201,318.628,258.201z"/>
				<path style="opacity:0.2;fill:#AF312F;" d="M318.628,258.201c0,0,14.978-5.163,39.202,18.013      c24.224,23.177,26.29,59.515,20.017,61.475c-4.196,1.311-6-2.211-6-2.211s4.304,25.995-4.374,36.816      c0,0,16.768-10.207,46.293-6.926c29.525,3.281,27.703,18.226,27.703,18.226s-7.107,7.259-38.992,1.895      c-19.573-3.293-47.774,17.897-57.616,1.494c0,0-44.823,34.885-91.48,6.089C206.722,364.275,318.628,258.201,318.628,258.201z"/>
			</g>
			<path style="fill:#AF312F;" d="M425.312,387.435c-1.431-2.029-2.482-3.919-3.719-5.661c-0.604-0.874-1.271-1.664-1.976-2.462     c-0.733-0.777-1.556-1.454-2.538-2.268c1.239-0.15,2.549,0.151,3.663,0.791c1.119,0.636,2.044,1.557,2.794,2.568     c0.697,1.047,1.243,2.173,1.549,3.366C425.398,384.952,425.544,386.189,425.312,387.435z"/>
			<path style="fill:#AF312F;" d="M356.749,378.478c2.196-1.815,4.412-3.173,6.547-4.65c2.168-1.463,4.133-2.887,6.222-4.812     c-0.189,1.429-0.884,2.758-1.758,3.894c-0.879,1.144-1.98,2.066-3.13,2.885c-1.179,0.777-2.428,1.424-3.75,1.886     C359.565,378.148,358.193,378.481,356.749,378.478z"/>
		</g>
		<g>
			<g>
				<path style="fill:#FF9D3D;" d="M478.628,434.346c-2.613,6.716-10.451,10.007-17.71,9.736c-0.484-0.019-0.948-0.058-1.413-0.116      c-7.626-0.774-14.535-4.626-21.464-7.897c-5.69-2.71-11.284-4.606-16.858-5.632c-0.019-0.02-0.019-0.02-0.019,0      c-10.007-1.897-19.974-0.987-30.406,3.058h-0.02c-0.677,0.251-1.355,0.523-2.032,0.813c-9.464,4.006-18.193,9.445-26.613,15.445      c-12.735,9.077-24.793,19.393-37.664,27.851c-16.684,10.954-36.619,18.58-56.671,20.225c-2.071,0.174-4.142,0.271-6.213,0.31      c-7.509,0.135-15.348-0.465-22.896-2.11c-14.884-3.252-28.567-10.626-36.116-24.677c-14.748-27.542,4.742-60.871,18.387-84.812      c7.955,3.135,17.4,6.929,26.032,10.413l-0.6,2.361c0,0-13.51,15.697-17.032,35.535c-0.813,4.413-1.103,9.019-0.639,13.722      c0.465,4.665,1.839,8.652,3.89,12.019c6.29,10.2,18.968,14.593,31.896,14.671c17.09,0.077,31.8-6.058,45.503-14.671      c7.935-4.994,15.542-10.838,23.09-16.781c13.316-10.49,26.419-21.329,40.819-28.567c21.31-10.703,46.064-14.303,69.561-10.355      c4.703,0.755,9.348,1.838,13.916,3.232c6.077,1.839,12.174,4.336,16.626,8.845C478.454,421.475,480.912,428.423,478.628,434.346      z"/>
				<path style="opacity:0.2;fill:#AF312F;" d="M478.628,434.346c-2.613,6.716-10.451,10.007-17.71,9.736      c-0.484-0.019-0.948-0.058-1.413-0.116c-7.626-0.774-14.535-4.626-21.464-7.897c-5.69-2.71-11.284-4.606-16.858-5.632      c-0.019-0.02-0.019-0.02-0.019,0c-10.007-1.897-19.974-0.987-30.406,3.058h-0.02c-0.677,0.251-1.355,0.523-2.032,0.813      c-9.464,4.006-18.193,9.445-26.613,15.445c-12.735,9.077-24.793,19.393-37.664,27.851      c-16.684,10.954-36.619,18.58-56.671,20.225c-2.071,0.174-4.142,0.271-6.213,0.31c-7.509,0.135-15.348-0.465-22.896-2.11      c-14.884-3.252-28.567-10.626-36.116-24.677c-14.748-27.542,4.742-60.871,18.387-84.812c7.955,3.135,17.4,6.929,26.032,10.413      l-0.6,2.361c0,0-13.51,15.697-17.032,35.535c-0.813,4.413-1.103,9.019-0.639,13.722c0.465,4.665,1.839,8.652,3.89,12.019      c6.29,10.2,18.968,14.593,31.896,14.671c17.09,0.077,31.8-6.058,45.503-14.671c7.935-4.994,15.542-10.838,23.09-16.781      c13.316-10.49,26.419-21.329,40.819-28.567c21.31-10.703,46.064-14.303,69.561-10.355c4.703,0.755,9.348,1.838,13.916,3.232      c6.077,1.839,12.174,4.336,16.626,8.845C478.454,421.475,480.912,428.423,478.628,434.346z"/>
			</g>
			<path style="fill:#AF312F;" d="M478.628,434.346c-2.613,6.716-10.451,10.007-17.71,9.736c-0.484-0.019-0.948-0.058-1.413-0.116     c-7.626-0.774-14.535-4.626-21.464-7.897c-5.69-2.71-11.284-4.606-16.858-5.632c7.007-5.439,18.155-10.355,34.277-7.49     c0,0-11.361-9.407-12.019-18.058c4.703,0.755,9.348,1.838,13.916,3.232c6.077,1.839,12.174,4.336,16.626,8.845     C478.454,421.475,480.912,428.423,478.628,434.346z"/>
			<path style="fill:#AF312F;" d="M390.739,433.494c-0.677,0.251-1.355,0.523-2.032,0.813c-9.464,4.006-18.193,9.445-26.613,15.445     c1.703-7.974,5.845-17.768,14.826-21.058C383.248,426.391,387.681,429.236,390.739,433.494z"/>
			<path style="fill:#AF312F;" d="M330.488,464.694c-8.013,3.174-15.542-0.426-20.516-4.103c7.935-4.994,15.542-10.838,23.09-16.781     C336.294,449.887,340.378,460.784,330.488,464.694z"/>
			<path style="fill:#AF312F;" d="M267.759,497.829c-2.071,0.174-4.142,0.271-6.213,0.31c-7.509,0.135-15.348-0.465-22.896-2.11     c4.355-6.368,10.045-11.749,16.49-10.587C262.069,486.7,265.805,492.294,267.759,497.829z"/>
			<path style="fill:#AF312F;" d="M232.572,460.591c-9.019-1.084-18.948-3.948-18.31-11.361c0.678-7.742,8.536-12.097,15.058-14.38     c-0.813,4.413-1.103,9.019-0.639,13.722C229.147,453.236,230.521,457.223,232.572,460.591z"/>
		</g>
		<path style="fill:#FFC893;" d="M335.559,342.392c-16.587,39.522-61.838,41.709-65.186,41.825    c6.658-12.852,1.568-32.574,11.109-32.303c11.284,0.31,13.181-17.322,19.007-40.799c5.826-23.477,21.155-41.013,23.613-43.819    c2.477-2.826,4.814-10.42-13.529-11.322c-21.329,0.639-30.735,50.128-30.735,50.128c-14.303-16.258-51.135-22.509-51.135-22.509    l-0.136-33.638c0,0,84.174-49.393,87.367-20.129c1.587,14.555,9.329,23.903,16.703,29.632    C338.713,276.837,348.081,312.605,335.559,342.392z"/>
		<path style="fill:#AF312F;" d="M336.821,134.978c-1.023,6.881-3.025,13.365-6.089,19.366c-7.064,0.964-14.645-0.844-20.717-4.559    c-2.705-1.662-5.095-4.28-4.4-7.594c0.909-4.386,6.896-4.705,10.528-4.539C325.994,138.107,333.074,136.296,336.821,134.978z"/>
		<path style="fill:#FF9D3D;" d="M343.678,204.412c1.136,0,18.8,1.722,33.383,20.088c14.583,18.366-0.195,37.011-0.763,37.105    c-0.568,0.094-41.33-45.824-41.33-45.824L343.678,204.412z"/>
		<path style="fill:#AF312F;" d="M290.508,68.623c-5.491-2.363-9.654-3.439-9.87-3.509c2.926-13.84,16.135-25.598,21.923-25.072    h0.017c0.815,3.251,1.763,7.142-0.702,15.393c-0.248,0.81-0.43,1.606-0.579,2.386C299.032,69.374,295.733,70.881,290.508,68.623z"/>
		<path style="fill:#AF312F;" d="M171.258,57.226c-2.194,0.622-4.344,0.879-5.969,1.249c-2.709-8.142-2.552-21.426,0.196-28.561    c0.761-1.991,1.722-3.486,2.866-4.276c0,0,2.936,1.521,4.998,8.636c0.748,2.596,1.397,5.076,2.194,7.38    C177.437,47.101,174.021,56.443,171.258,57.226z"/>
		<path style="opacity:0.48;fill:#EB4949;" d="M241.304,131.602c-5.491,3.065-6.799,10.275-1.051,14.494    c7.696,5.649,22.945,6.138,30.533,0.551c6.405-4.716,3.366-14.647-3.089-16.961c-5.455-1.956-11.387-2.002-16.933-1.008    C248.186,129.141,244.382,129.885,241.304,131.602z"/>
		<path style="opacity:0.48;fill:#EB4949;" d="M172.35,115.573c3.838,3.784,3.433,9.95-2.095,12.022    c-7.401,2.774-19.89-0.425-24.916-6.753c-4.244-5.342,0.246-12.693,5.961-13.05c4.83-0.303,9.658,1.059,13.961,3.175    C167.26,111.95,170.199,113.452,172.35,115.573z"/>
		<path style="fill:#AF312F;" d="M247.763,57.597c-7.128,5.075-12.811,13.351-17.3,19.564c-2.469,3.404-4.755,6.942-6.909,10.549    c-1.623,2.705-4.375,5.286-7.807,5.402c-4.311,0.145-7.912-2.925-9.789-6.576c-2.358-4.559-2.047-9.678-0.906-14.451    c1.621-6.753,5.282-12.97,10.104-18.065c0.348,0.024,0.713,0.049,1.078,0.074C227.511,54.877,238.026,56.05,247.763,57.597z"/>
		<path style="fill:#AF312F;" d="M132.66,118.78c-4.627,0.269-9.255-1.715-13.287-4.371c0.083-0.422,0.165-0.845,0.264-1.283    c0.083-0.406,0.166-0.829,0.265-1.251c0.859-3.751,1.902-7.497,3.193-11.189C131.277,109.395,141.333,118.262,132.66,118.78z"/>
		<path style="fill:#AF312F;" d="M130.031,130.244c-3.15,1.445-7.761,1.225-12.073,0.456c-0.018-1.012-0.018-2.041-0.003-3.085    c0.048-2.284,0.196-4.631,0.476-7.041c0.017-0.098,0.017-0.179,0.033-0.277C127.191,123.633,135.585,127.695,130.031,130.244z"/>
		<path style="fill:#AF312F;" d="M133.21,98.422c-2.505-0.613-5.043-2.386-7.367-4.562c0.05-0.145,0.116-0.291,0.182-0.436    c1.408-3.02,3.015-5.986,4.87-8.833C135.461,92.222,139.015,99.845,133.21,98.422z"/>
		<path style="fill:#AF312F;" d="M269.59,62.018c-1.906,1.637-4.044,3.465-5.585,4.85c-4.873,4.393-10.126,10.687-13.625,11.046    c-7.313,0.762-9.59-6.44-4.288-12.945c2.42-2.964,5.586-4.948,8.321-6.239l0.017,0C259.738,59.701,264.78,60.797,269.59,62.018z"/>
		<path style="fill:#AF312F;" d="M211.44,53.82c-4.143,4.279-8.865,11.712-12.761,12.536c-5.87,1.236-9.903-3.624-7.169-6.467    c2.652-2.763,5.619-4.816,8.172-6.259C203.43,53.57,207.344,53.628,211.44,53.82z"/>
		<path style="fill:#AF312F;" d="M337.24,113.383c-28.365,14.819-37.235-4.043-25.727-6.715c7.711-1.797,14.856-5.681,19.564-8.314    C334.016,103.057,336.075,108.067,337.24,113.383z"/>
		<path style="fill:#AF312F;" d="M339.429,137.069v0.114c-0.065,0.537-0.098,1.059-0.148,1.58    c-10.346,3.565-22.949,5.298-32.753,0.746c-3.699-1.718-6.837-5.397-5.496-9.006c0.546-1.44,1.772-2.653,3.248-3.516    c4.36-2.576,10.314-2.864,15.504-3.266c5.904-0.468,12.934-2.77,18.438-5.01C339.205,125.018,339.624,131.165,339.429,137.069z"/>
		<path style="fill:#AF312F;" d="M120.422,127.975c5.235-1.752,10.576-2.972,15.942-4.061c5.377-1.037,10.78-1.939,16.289-2.305    c-5.235,1.756-10.575,2.976-15.942,4.061C131.333,126.703,125.93,127.605,120.422,127.975z"/>
		<path style="fill:#AF312F;" d="M117.802,114.642c5.347-0.468,10.669-0.395,15.985-0.189c5.315,0.26,10.623,0.656,15.907,1.6    c-5.347,0.473-10.669,0.399-15.986,0.189C128.394,115.978,123.086,115.581,117.802,114.642z"/>
		<path style="fill:#AF312F;" d="M121.984,98.469c5.056,1.889,9.857,4.256,14.596,6.741c4.713,2.533,9.363,5.186,13.756,8.322    c-5.058-1.885-9.859-4.252-14.596-6.741C131.028,104.256,126.378,101.602,121.984,98.469z"/>
		<path style="fill:#FFFFFF;" d="M294.469,64.992c0,0-3.218-0.286-4.08-1.041c-0.879-0.755,4.079-0.755,4.079-0.755    c-2.472-1.102-4.497-4.005-3.651-4.035c0.862-0.045,3.749,2.143,3.749,2.143c-3.005-4.395-0.87-10.875,2.464-10.374    c1.426,0.212,2.971,3.366,4.267,6.889c-2.264,11.554,4.824,20.254,6.118,21.362c-5.277-4.839-11.681-8.301-16.906-10.56    C291.336,66.291,294.469,64.992,294.469,64.992z"/>
		<path style="fill:#FFFFFF;" d="M171.258,57.226c0.463-2.618,3.263-6.193,3.512-6.497c-0.216,0.077-2.504,0.987-3.565,0.375    c-1.112-0.646,2.702-2.043,2.702-2.043s-2.936,0.161-3.168-0.71c-0.25-0.855,2.736-0.558,2.736-0.558    c-2.107-1.305-5.925-7.025-3.306-8.45c1.707-0.924,3.981,0.908,5.375,2.311c1.894,5.447,4.667,9.885,11.933,12.55    C187.475,54.205,178.554,55.762,171.258,57.226z"/>
		<g>
			<path style="fill:#AF312F;" d="M205.721,108.064c0,0-3.919-5.672-6.214-4.927c-2.294,0.744,3.597,9.328,6.028,10.314     c2.431,0.987,8.556-6.92,7.34-8.676C211.658,103.018,205.721,108.064,205.721,108.064z"/>
			<path style="fill:#AF312F;" d="M211.101,143.436c-0.656-2.528-1.204-5.077-1.796-7.618l-1.579-7.662     c-0.527-2.556-0.963-5.127-1.413-7.7c-0.407-2.586-0.828-5.148-1.046-7.814l1.453,0.207c-1.676,4.698-3.234,9.457-4.76,14.217     c-0.754,2.383-1.482,4.776-2.135,7.189c-0.697,2.403-1.295,4.831-1.831,7.283c0.206-2.505,0.664-4.981,1.127-7.453     c0.504-2.465,1.12-4.901,1.743-7.336c1.267-4.868,2.789-9.652,4.445-14.407l1.172-3.365l0.282,3.573     c0.199,2.529,0.589,5.121,0.965,7.685l1.149,7.722l1.162,7.728C210.381,138.269,210.785,140.843,211.101,143.436z"/>
			<path style="opacity:0.48;fill:#AF312F;" d="M194.436,113.126c-4.232,0.533-8.419,2.663-11.111,6.364     c-3.903,5.365-5.127,12.463-1.109,18.09c2.493,3.492,6.221,5.628,10.021,7.078c7.283,2.778,14.704,5.035,22.492,3.714     c2.825-0.479,5.644-1.38,8.05-3.118c3.687-2.664,6.176-7.3,6.524-12.152c0.348-4.852-1.453-9.806-4.72-12.987     c-4.019-3.913-10.347-5.662-15.601-6.127C204.301,113.574,199.088,112.54,194.436,113.126z"/>
		</g>
		<g>
			<path style="fill:#AF312F;" d="M259.888,142.538c5.623,0.634,11.115,1.803,16.576,3.103c5.448,1.353,10.863,2.841,16.146,4.869     c-5.624-0.63-11.116-1.799-16.577-3.103C270.587,146.05,265.172,144.562,259.888,142.538z"/>
			<path style="fill:#AF312F;" d="M295.251,137.101c-5.396,0.704-10.791,0.858-16.186,0.877c-5.395-0.036-10.789-0.211-16.183-0.94     c5.396-0.709,10.791-0.862,16.186-0.877C284.463,136.2,289.858,136.375,295.251,137.101z"/>
			<path style="fill:#AF312F;" d="M290.373,118.479c-4.48,2.97-9.201,5.444-13.981,7.797c-4.804,2.304-9.668,4.483-14.775,6.163     c4.479-2.974,9.2-5.448,13.981-7.797C280.404,122.342,285.268,120.162,290.373,118.479z"/>
		</g>
		<path style="opacity:0.48;fill:#AF312F;" d="M125.483,161.767c1.125,2.15,2.243,4.296,3.46,6.378    c0.592,1.049,1.213,2.079,1.871,3.074c0.657,0.982,1.379,1.968,2.188,2.668l0.24,0.207l-0.034,0.351    c-0.098,0.991-0.143,2.04-0.038,3.015c0.081,0.952,0.439,1.979,0.923,2.106c0.238,0.064,0.297,0.075,0.55-0.216    c0.218-0.29,0.397-0.739,0.534-1.194c0.271-0.925,0.401-1.969,0.478-2.952l0.241-3.068l1.197,2.818    c0.432,1.016,0.943,2.046,1.503,3.011c0.563,0.962,1.185,1.906,1.919,2.631c0.358,0.37,0.773,0.653,1.129,0.735    c0.156,0.063,0.41,0.056,0.533,0.018c0.161-0.019,0.212-0.102,0.311-0.207c0.358-0.594,0.189-1.902-0.097-2.878l-0.471-1.609    l1.291,1.006c1.518,1.182,3.153,2.257,4.801,3.285c1.654,1.028,3.383,1.93,5.216,2.633c-1.926-0.416-3.757-1.202-5.537-2.053    c-1.774-0.879-3.459-1.896-5.116-3.01l0.82-0.603c0.213,0.599,0.364,1.173,0.453,1.806c0.063,0.625,0.128,1.317-0.269,2.081    c-0.22,0.362-0.62,0.712-1.039,0.801c-0.424,0.122-0.78,0.124-1.175,0.033c-0.775-0.168-1.339-0.596-1.801-1.026    c-0.947-0.872-1.615-1.879-2.227-2.902c-0.611-1.031-1.142-2.07-1.626-3.177l1.438-0.25c-0.07,1.127-0.233,2.195-0.558,3.304    c-0.179,0.551-0.378,1.112-0.8,1.67c-0.222,0.272-0.525,0.562-0.957,0.709c-0.441,0.153-0.911,0.102-1.277-0.055    c-0.777-0.309-1.183-1.014-1.395-1.585c-0.211-0.595-0.287-1.171-0.339-1.738c-0.073-1.136-0.016-2.216,0.165-3.323l0.205,0.558    c-0.967-0.955-1.605-2.004-2.234-3.066c-0.613-1.065-1.175-2.149-1.708-3.244C127.233,166.296,126.281,164.061,125.483,161.767z"/>
		<path style="opacity:0.48;fill:#AF312F;" d="M279.368,193.842c2.133-0.785,4.273-1.535,6.38-2.369    c2.11-0.816,4.223-1.632,6.24-2.604l1.302-0.628l-0.588,1.366c-0.242,0.562-0.451,1.193-0.556,1.785    c-0.118,0.582-0.068,1.215,0.124,1.385c0.067,0.082,0.264,0.16,0.432,0.157c0.098,0.004,0.305-0.076,0.513-0.237    c0.422-0.322,0.825-0.821,1.186-1.337c0.718-1.052,1.351-2.211,1.91-3.401c0.549-1.18,1.082-2.44,1.417-3.617l0.678-2.382    l0.765,2.346c0.308,0.946,0.719,1.927,1.219,2.774c0.491,0.842,1.193,1.606,1.737,1.498c0.628-0.022,1.349-0.815,1.836-1.655    c0.499-0.856,0.911-1.835,1.228-2.79l0.146-0.439l0.425,0.007c2.407,0.038,4.894-0.233,7.291-0.744    c1.211-0.228,2.404-0.547,3.577-0.934c1.179-0.379,2.313-0.879,3.444-1.406c-2.081,1.381-4.431,2.355-6.843,3.065    c-2.436,0.665-4.912,1.081-7.482,1.187l0.57-0.432c-0.281,1.102-0.655,2.132-1.211,3.143c-0.28,0.501-0.601,0.996-1.039,1.448    c-0.425,0.443-1.029,0.878-1.802,0.966c-0.365,0.046-0.785-0.003-1.139-0.161c-0.349-0.15-0.629-0.358-0.87-0.575    c-0.48-0.439-0.816-0.927-1.124-1.418c-0.596-0.996-1.027-2.001-1.395-3.086l1.442-0.037c-0.403,1.411-0.956,2.623-1.545,3.876    c-0.604,1.233-1.248,2.452-2.09,3.593c-0.429,0.567-0.881,1.13-1.542,1.611c-0.331,0.227-0.757,0.472-1.339,0.462    c-0.499-0.024-0.982-0.201-1.366-0.624c-0.688-0.914-0.463-1.792-0.333-2.486c0.175-0.723,0.43-1.365,0.755-2.02l0.714,0.738    c-2.13,0.87-4.286,1.605-6.468,2.256C283.778,192.744,281.59,193.357,279.368,193.842z"/>
		<path style="fill:#AF312F;" d="M181.93,107.717c0,0,4.674-22.543-23.523-27.341l1.539,8.236    C159.945,88.612,174.706,91.148,181.93,107.717z"/>
		<path style="fill:#AF312F;" d="M240.36,124.108c0,0,6.6-25.337,34.731-20.161l-4.273,7.207    C270.818,111.153,251.069,109.719,240.36,124.108z"/>
		<path style="fill:#AF312F;" d="M261.515,81.535c-2.728-0.069-9.478,3.388-6.363,6.146c2.489,2.204,5.417,4.571,8.523,5.858    C267.65,95.188,263.954,81.597,261.515,81.535z"/>
		<path style="fill:#AF312F;" d="M187.699,75.262c0.878-2.584-0.414-10.057-3.975-7.903c-2.844,1.721-5.976,3.812-8.129,6.393    C172.839,77.056,186.914,77.571,187.699,75.262z"/>
		<path style="fill:#FFFFFF;" d="M366.782,216.141c0.917,7.792-3.065,15.665-10.501,19.342l-130.187,64.375    c-9.449,4.673-20.898,0.8-25.57-8.649l-41.881-84.695c-4.672-9.449-0.8-20.897,8.649-25.57l130.186-64.375    c9.449-4.673,20.897-0.8,25.57,8.649l41.881,84.695C365.927,211.927,366.534,214.031,366.782,216.141"/>
		<path style="fill:#FF5555;" d="M257.847,197.412c0,0-28.947-22.468-48.359-8.68c-19.412,13.788,10.661,52.271,67.822,49.547    c1.197-0.057,3.834-3.48,4.591-4.246c3.77-3.813,7.182-7.998,10.129-12.479c5.736-8.722,9.263-18.78,10.424-29.144    c1.068-9.542,1.305-21.464-6.523-28.407c-7.14-6.333-18.802-6.369-25.634,0.45c-7.829,7.815-11.31,20.278-12.299,31.012    C257.98,195.662,257.676,197.279,257.847,197.412z"/>
		<path style="fill:#FFFFFF;" d="M330.692,158.441c0,0,27.358-1.234,23.08-31.57c0,0,31.882,41.633-17.727,64.847L330.692,158.441z"/>
		<path style="fill:#FF9D3D;" d="M360.984,230.694c0,0-27.166-9.703-38.898,1.226c-11.732,10.928,6.634,35.556,35.035,35.928    c28.401,0.372,26.087-25.793,26.087-25.793L360.984,230.694z"/>
		<path style="opacity:0.48;fill:#AF312F;" d="M362.094,231.091c-7.012-2.204-14.307-3.625-21.596-3.65    c-3.633-0.026-7.283,0.32-10.717,1.366c-3.414,1.026-6.711,2.713-8.579,5.553c-1.786,2.881-1.703,6.537-0.561,9.788    c1.153,3.288,3.26,6.251,5.713,8.819c4.942,5.184,11.402,8.774,18.214,11.092c6.769,2.347,14.159,3.487,21.08,1.927    c3.436-0.786,6.678-2.338,9.327-4.634c2.628-2.303,4.762-5.221,6.208-8.483c1.447-3.247,2.207-6.796,2.122-10.365    c-0.07-3.571-0.964-7.119-2.402-10.432c-2.85-6.687-7.766-12.387-13.331-17.168c5.907,4.371,11.085,9.954,14.393,16.686    c1.606,3.375,2.651,7.069,2.842,10.859c0.205,3.787-0.495,7.625-1.943,11.144c-1.418,3.519-3.647,6.766-6.539,9.311    c-2.888,2.556-6.457,4.302-10.176,5.189c-7.502,1.755-15.269,0.593-22.352-1.786c-7.056-2.477-13.822-6.302-19.014-11.856    c-2.581-2.762-4.826-5.949-6.084-9.636c-1.281-3.612-1.308-8.052,0.98-11.453c2.346-3.338,6.115-5.024,9.697-5.994    c3.654-0.988,7.433-1.243,11.148-1.085C347.954,226.703,355.245,228.38,362.094,231.091z"/>
		<path style="fill:#AF312F;" d="M321.3,248.09c2.325-0.974,4.817-1.474,7.319-1.726c2.509-0.259,5.05-0.177,7.566,0.14    c2.514,0.333,4.994,1.015,7.328,2.016c2.354,0.956,4.491,2.421,6.317,4.124c-2.371-0.873-4.59-1.787-6.934-2.373    c-2.325-0.596-4.652-1.138-7.035-1.412C331.109,248.187,326.299,248.075,321.3,248.09z"/>
		<path style="fill:#AF312F;" d="M320.643,233.556c2.496-1.033,5.174-1.542,7.857-1.801c2.69-0.263,5.411-0.167,8.103,0.165    c2.689,0.354,5.349,1.015,7.866,2.035c2.543,0.942,4.885,2.396,6.969,4.075c-2.577-0.818-5.003-1.732-7.543-2.309    c-2.513-0.62-5.039-1.147-7.604-1.443C331.168,233.573,325.992,233.439,320.643,233.556z"/>
		<path style="fill:#FF9D3D;" d="M300.097,312.528c0.343-1.36,8.955-30.65,17.234-38.312c8.279-7.662,11.533-10.965,4.705-16.455    c-6.827-5.49-16.251-2.053-25.549,7.691c-9.299,9.745-16.701,40.697-16.701,40.697s-31.071-33.06-85.706-19.977    c-54.635,13.082-62.535,2.674-62.535,2.674l66.662,36.448l70.018,11.604L300.097,312.528z"/>
		<path style="opacity:0.2;fill:#AF312F;" d="M316.146,275.579c-4.897,5.884-10.761,16.084-15.658,35.535    c-2.129,8.458-3.89,15.135-5.381,20.439c-3.019,10.684-4.993,15.697-6.852,18.058c-1.006-0.329-1.877-0.909-2.632-1.665    c-3.852-3.929-3.465-11.187-3.097-16.2c0.639-8.458,2.71-16.838,5.206-24.929c2.594-8.439,5.787-16.742,9.736-24.639    c4.181-8.342,9.329-16.161,18.503-19.452c1.49-0.522,6.155-2.071,9.077-1.645c0.523,0.813,0.929,1.761,1.161,2.826    C327.004,267.586,322.359,268.128,316.146,275.579z"/>
		<path style="fill:#AF312F;" d="M308.929,267.851c-1.569-0.111-2.633-0.412-3.749-0.777c-0.541-0.207-1.081-0.413-1.634-0.69    c-0.556-0.281-1.128-0.572-1.772-1.083c1.302-0.938,2.857-0.915,4.197-0.468C307.284,265.333,308.543,266.27,308.929,267.851z"/>
		<path style="fill:#FF9D3D;" d="M168.497,298.913c0,0,34.506-12.123,33.591-38.975c-0.915-26.852-29.638-13.471-40.472-10.986    c-10.835,2.484-13.661,32.692-13.661,32.692L168.497,298.913z"/>
		<path style="fill:#AF312F;" d="M202.577,262.535c-1.072,2.296-2.731,4.253-4.471,6.048c-1.746,1.809-3.69,3.4-5.701,4.88    c-2.026,1.464-4.147,2.781-6.345,3.956c-2.204,1.163-4.482,2.186-6.875,2.955c1.915-1.636,3.903-3.09,5.892-4.53l5.931-4.306    c1.989-1.406,3.931-2.866,5.87-4.339C198.803,265.705,200.729,264.221,202.577,262.535z"/>
		<path style="fill:#AF312F;" d="M198.258,248.952c-1.278,0.862-2.386,1.915-3.54,2.94c-1.164,1.007-2.332,2.011-3.54,2.971    c-2.397,1.942-4.906,3.751-7.502,5.442c-5.208,3.314-10.843,6.196-16.931,7.544l7.924-4.674c2.587-1.609,5.168-3.21,7.721-4.87    l7.713-4.947C192.71,251.771,195.28,249.97,198.258,248.952z"/>
		<path style="fill:#FFC893;" d="M265.398,390.411c-0.484,0.542-0.968,1.045-1.49,1.548    C264.217,391.475,264.701,390.952,265.398,390.411z"/>
		<path style="opacity:0.48;fill:#AF312F;" d="M152.653,252.643c-2.503-0.114-4.859-1.15-7.027-2.35    c-2.174-1.231-4.175-2.785-5.908-4.595c-1.693-1.84-3.259-3.824-4.373-6.061c-1.201-2.18-1.997-4.562-2.462-6.976    c1.389,2.055,2.605,4.099,4.036,5.992c1.368,1.928,2.905,3.704,4.512,5.396c1.584,1.723,3.374,3.236,5.216,4.702    C148.523,250.17,150.456,251.589,152.653,252.643z"/>
		<path style="opacity:0.48;fill:#AF312F;" d="M170.239,319.864c0.367,1.347,0.833,2.67,1.555,3.791    c0.706,1.125,1.735,1.974,2.82,2.081c0.582,0.01,0.551-0.068,0.694-0.48c0.11-0.433,0.075-1.082-0.033-1.701    c-0.213-1.246-0.601-2.576-1.055-3.788l-1.799-4.801l3.632,3.719c0.951,0.974,1.995,1.955,3.058,2.811    c1.058,0.836,2.251,1.615,3.291,1.895c0.491,0.148,0.958,0.05,1.025-0.017c0.031,0.028-0.062,0.102-0.005-0.006    c-0.027-0.154-0.08-0.383-0.203-0.642c-0.473-1.061-1.409-2.217-2.312-3.184l-1.523-1.63l2.154-0.119    c2.281-0.126,4.635-0.457,6.921-0.922c1.138-0.266,2.288-0.516,3.406-0.888c1.11-0.385,2.198-0.841,3.261-1.406    c-1.78,1.634-4.034,2.714-6.308,3.557c-2.307,0.813-4.657,1.361-7.122,1.691l0.63-1.748c1.116,1.093,2.138,2.139,2.957,3.682    c0.192,0.394,0.358,0.859,0.431,1.425c0.043,0.584-0.142,1.487-0.757,1.932c-1.08,0.865-2.227,0.752-3.108,0.567    c-1.786-0.452-2.991-1.449-4.197-2.385c-1.182-0.976-2.229-2.012-3.225-3.183l1.833-1.082c0.433,1.423,0.794,2.796,0.894,4.318    c0.044,0.756,0.074,1.537-0.234,2.44c-0.149,0.447-0.485,0.947-1.024,1.253c-0.263,0.094-0.557,0.177-0.817,0.203l-0.711-0.073    c-1.718-0.399-2.792-1.802-3.31-3.137C170.494,322.686,170.25,321.268,170.239,319.864z"/>
		<path style="fill:#FFC893;" d="M316.146,275.579c-4.897,5.884-10.761,16.084-15.658,35.535c-2.129,8.458-3.89,15.135-5.381,20.439    c-4.876-8.453,2.053-32.111,8.293-45.104c1.687-3.513,7.753-12.186,11.991-11.179    C315.681,275.347,315.933,275.444,316.146,275.579z"/>
		<path style="fill:#FFC893;" d="M324.507,267.721c-1.336,1.2-3.368,2.632-5.787,5.032c-0.561,0.155-1.084,0.31-1.568,0.426    c-0.31,0.097-0.677,0.155-0.968,0c-0.523-0.271-0.503-1.007-0.368-1.587c0.426-1.877,1.355-3.639,2.651-5.052    c1.839-2.013,5.613-2.922,6.019,0.774C324.507,267.45,324.507,267.586,324.507,267.721z"/>
		<path style="fill:#FFC893;" d="M311.643,271.644c-0.017-0.298-0.07-0.613-0.264-0.839c-0.212-0.248-0.552-0.343-0.874-0.397    c-2.458-0.413-5.59,1.931-3.721,4.498C308.912,277.83,311.78,274.007,311.643,271.644z"/>
		<path style="opacity:0.48;fill:#AF312F;" d="M202.573,284.347c6.816-1.109,13.765-1.365,20.675-1.05    c6.913,0.333,13.802,1.338,20.537,3.005c6.758,1.6,13.289,4.137,19.463,7.333c6.291,3.038,11.841,7.349,17.185,11.816l-1.466,0.51    c1.936-10.947,5.132-21.665,10.326-31.579c2.645-4.902,5.812-9.649,10.075-13.447c2.121-1.892,4.511-3.532,7.147-4.709    c2.603-1.157,5.518-1.989,8.51-1.793c2.955,0.149,5.914,1.173,8.27,3.054c1.164,0.903,2.246,2.074,2.995,3.411    c0.389,0.681,0.691,1.408,0.904,2.155c0.203,0.676,0.409,1.688,0.144,2.646c-0.623,1.973-2,2.789-3.003,3.716    c-1.08,0.889-2.126,1.729-3.125,2.628c-2.011,1.774-3.808,3.751-5.436,5.889c-6.447,8.65-10.246,19.121-13.214,29.596    c-2.816,10.598-5.393,21.343-8.76,31.887c-0.87,2.633-1.801,5.255-3.03,7.819c-0.645,1.272-1.347,2.551-2.442,3.677    c-0.551,0.557-1.252,1.055-2.034,1.339c-0.781,0.283-1.567,0.368-2.284,0.409c-1.435,0.057-2.74,0.053-3.883,0.407    c-1.159,0.34-2.136,1.056-2.817,2.061c-1.373,2.044-1.652,4.828-1.738,7.494c-0.048,2.675,0.022,5.553-0.392,8.314    c-0.226,1.385-0.37,2.784-0.804,4.125c-0.357,1.357-0.71,2.714-1.282,3.999c-2.006,5.241-5.305,9.902-9.26,13.792    c-7.986,7.792-18.295,12.712-28.9,15.521c10.488-3.192,20.615-8.315,28.254-16.163c3.793-3.909,6.842-8.53,8.72-13.599    c0.535-1.246,0.853-2.56,1.177-3.871c0.401-1.294,0.515-2.646,0.713-3.98c0.358-2.688,0.25-5.348,0.256-8.167    c0.071-2.766,0.223-5.754,1.895-8.385c0.835-1.293,2.184-2.316,3.662-2.765c1.493-0.477,2.984-0.466,4.288-0.546    c1.33-0.071,2.319-0.392,3.128-1.27c0.821-0.863,1.468-2.029,2.04-3.215c1.119-2.418,1.994-5.011,2.82-7.612    c3.281-10.455,5.793-21.154,8.576-31.847c1.455-5.345,3.176-10.633,5.326-15.772c2.136-5.136,4.738-10.138,8.12-14.659    c1.695-2.249,3.604-4.377,5.72-6.25c1.052-0.938,2.157-1.817,3.207-2.672c1.028-0.844,2.081-1.744,2.243-2.489    c0.212-0.663-0.256-2.091-0.802-3.067c-0.597-1.071-1.41-1.968-2.411-2.76c-1.946-1.571-4.431-2.458-6.964-2.598    c-2.536-0.187-5.081,0.516-7.491,1.567c-2.398,1.056-4.608,2.55-6.599,4.308c-4.004,3.524-7.088,8.066-9.676,12.811    c-2.576,4.776-4.606,9.858-6.316,15.038c-1.708,5.175-3.127,10.497-4.112,15.832l-0.282,1.529l-1.184-1.019    c-5.161-4.44-10.534-8.756-16.671-11.831l-2.245-1.243l-2.342-1.051c-1.571-0.679-3.105-1.451-4.707-2.055    c-3.222-1.167-6.442-2.347-9.772-3.193c-6.616-1.812-13.425-2.979-20.292-3.479C216.348,283.438,209.421,283.476,202.573,284.347z    "/>
		<path style="fill:#AF312F;" d="M131.057,210.799c-0.387,0.484-1.084,0.619-1.703,0.678c-4.065,0.387-8.032-1.22-11.71-3    c-9.619-4.645-18.542-10.722-26.419-17.942c3.193-5.226,6.813-10.239,10.858-14.981c9.387,10.684,18.735,21.329,28.103,31.993    C130.999,208.457,131.831,209.851,131.057,210.799z"/>
		<path style="fill:#AF312F;" d="M120.857,273.605c-2.226,8.69-7.897,15.387-14.981,20.342c-4.839-2.787-9.948-6.523-14.187-11.458    c4.123-2.671,7.916-5.845,11.439-9.309c3.6-3.542,7.161-7.587,12.058-8.826C121.303,262.825,121.98,269.231,120.857,273.605z"/>
		<path style="fill:#AF312F;" d="M161.735,301.166c-6.716,1.858-12.406,2.303-16.568,2.245c0.329-1.432,0.542-2.922,0.619-4.606    c0.232-4.935,0.097-10.026,1.878-14.632c0.774-1.993,2.148-4.045,4.258-4.335c2.42-0.329,4.452,1.8,5.574,3.968    c1.181,2.284,1.839,4.8,2.458,7.297C160.748,294.412,161.502,297.799,161.735,301.166z"/>
		<path style="opacity:0.48;fill:#AF312F;" d="M146.386,255.063c5.955-2.437,12.05-4.514,18.154-6.553    c6.127-1.971,12.254-3.972,18.598-5.316c1.59-0.329,3.178-0.652,4.843-0.776c1.645-0.206,3.481,0.04,5.052,0.716    c3.21,1.349,5.575,4.033,7.165,6.951c3.187,5.919,3.647,13.036,1.886,19.429c-1.748,6.441-5.598,12.145-10.407,16.618    c-2.398,2.248-5.052,4.245-7.768,6.007c-2.718,1.79-5.534,3.438-8.445,4.908c-5.819,2.931-12.012,5.228-18.457,6.434    c-6.456,1.169-13.027,1.6-19.672,0.207l1.331-1.434c0.6,1.928,1.015,3.817,0.941,5.94c-0.1,1.058-0.182,2.185-1.169,3.311    c-0.281,0.331-0.724,0.546-1.201,0.658c-0.427,0.03-0.881,0.003-1.178-0.124c-0.677-0.214-1.114-0.548-1.553-0.871    c-1.64-1.343-2.78-2.889-3.894-4.463c-1.096-1.58-2.083-3.215-2.995-4.89l1.936-0.561c0.046,2.093-0.259,3.969-0.84,5.911    c-0.318,0.956-0.721,1.917-1.386,2.81c-0.636,0.877-1.742,1.717-3.029,1.793c-0.62,0.069-1.419-0.092-2.011-0.575    c-0.289-0.224-0.463-0.524-0.674-0.799c-0.128-0.278-0.245-0.561-0.352-0.843c-0.309-1.103-0.292-2.112-0.255-3.105    c0.117-1.982,0.495-3.84,0.992-5.723l0.636,1.07c-4.921-1.346-9.563-3.25-14.035-5.569c-4.451-2.332-8.696-5.107-12.433-8.484    c-3.735-3.366-6.987-7.292-9.401-11.696c-2.423-4.398-3.909-9.275-4.424-14.229c0.746,4.925,2.428,9.679,4.936,13.938    c2.52,4.255,5.838,7.997,9.6,11.17c3.775,3.166,7.95,5.847,12.369,8.029c4.405,2.179,9.073,3.971,13.782,5.157l0.845,0.213    l-0.209,0.858c-0.424,1.743-0.755,3.584-0.818,5.345c-0.022,0.87,0.009,1.762,0.228,2.466c0.274,0.753,0.5,0.855,1.055,0.828    c1.208-0.071,2.146-1.645,2.65-3.268c0.494-1.64,0.764-3.516,0.712-5.166l-0.138-4.31l2.075,3.749    c0.891,1.611,1.855,3.182,2.906,4.675c1.045,1.476,2.2,2.952,3.48,3.976c0.308,0.232,0.652,0.455,0.875,0.509    c0.296,0.065,0.153,0.071,0.195,0.019c0.294-0.281,0.526-1.147,0.546-1.923c0.061-1.629-0.329-3.468-0.859-5.101l-0.592-1.825    l1.924,0.391c5.979,1.214,12.515,0.816,18.657-0.368c6.187-1.242,12.21-3.338,17.879-6.174    c5.629-2.866,11.149-6.229,15.767-10.449c4.61-4.232,8.251-9.579,9.923-15.58c1.687-5.941,1.43-12.586-1.415-18.096    c-1.403-2.716-3.519-5.164-6.267-6.376c-2.713-1.312-5.931-0.548-9.056-0.039C170.874,247.066,158.55,250.948,146.386,255.063z"/>
		<path style="fill:#AF312F;" d="M105.954,233.521c-7.394,4.839-21.271-0.522-28.8-2.806c-0.6-0.193-1.22-0.368-1.839-0.58    c2.052-9.193,5.032-18.136,8.961-26.652c0.968,0.619,1.916,1.258,2.845,1.877c3.735,2.497,7.335,5.207,10.723,8.168    c1.761,1.529,3.445,3.135,5.071,4.819C106.477,222.064,112.128,229.476,105.954,233.521z"/>
		<path style="fill:#AF312F;" d="M131.347,340.708c-8.903,6.755-23.109,8.884-34.354,10.451c-1.819-2.71-3.523-5.497-5.129-8.342    c-0.968-1.684-1.878-3.407-2.749-5.129c-0.852-1.664-1.664-3.368-2.439-5.071c0.348-0.02,0.677-0.058,1.026-0.097    c10.239-1.103,20.381-3,30.639-4.064c4.626-0.484,12.89-1.258,15.755,3.503C135.915,335.017,133.922,338.792,131.347,340.708z"/>
		<path style="fill:#AF312F;" d="M150.528,358.069c0.058,1.664-0.484,3.29-1.084,4.839c-3.619,9.213-10.336,16.78-18.542,22.355    c-6.213-4.181-12.039-8.961-17.381-14.206c0.329-0.155,0.658-0.31,0.968-0.464c6.426-3.213,12.619-6.871,18.542-10.916    c3-2.052,5.961-4.239,9.329-5.632c1.897-0.774,4.161-1.277,5.923-0.232C149.715,354.663,150.47,356.404,150.528,358.069z"/>
		<path style="fill:#AF312F;" d="M173.773,382.166c0.097,6.968-1.2,13.935-3.813,20.4c-0.097,0.232-0.193,0.484-0.309,0.716    c-7.529-2.342-14.052-4.935-19.142-7.181c4.161-4.51,7.49-9.735,10.742-14.942c1.142-1.819,2.342-3.697,4.103-4.935    c1.762-1.239,4.277-1.664,6.058-0.465C173.367,377.114,173.734,379.804,173.773,382.166z"/>
		<path style="fill:#AF312F;" d="M216.605,394.32c0.039,4.993-0.464,10.8-2.206,15.968c-9.736,0.174-19.297-0.948-28.18-2.748    c4.994-6.561,8.361-14.071,11.206-21.91c1.161-3.213,2.342-6.561,4.761-8.98c2.419-2.419,6.484-3.561,9.309-1.626    C216.334,378.372,216.547,389.094,216.605,394.32z"/>
		<path style="opacity:0.45;fill:#9CF0E7;" d="M181.601,243.813c-1.105-0.998-18.254-33.201-19.866-44.958    c-1.613-11.756,19.989-21.792,44.964-32.299L181.601,243.813z"/>
	</g>
</g>















</svg>
