<?xml version="1.0" encoding="UTF-8"?>
<!-- Generator: Adobe Illustrator 25.2.3, SVG Export Plug-In . SVG Version: 6.00 Build 0)  -->
<svg xmlns="http://www.w3.org/2000/svg" xmlns:xlink="http://www.w3.org/1999/xlink" version="1.1" id="Capa_1" x="0px" y="0px" viewBox="0 0 512 512" style="enable-background:new 0 0 512 512;" xml:space="preserve" width="512" height="512">
<g>
	<g>
		<path style="fill:#9BEFE6;" d="M244.264,83.162c-34.05-5.842-68.61-5.509-100.249,3.908c-5.997,1.785-11.887,3.925-17.615,6.445    c-46.502,20.458-73.885,66.822-74.191,117.119c-0.222,36.482,14.944,71.88,38.313,99.493    c25.562,30.205,64.849,44.768,101.911,55.139c69.995,19.587,158.014,4.896,213.123-44.645    c28.132-25.289,42.79-68.927,30.851-105.462c-12.181-37.277-41.329-67.274-74.325-87.295    C327.959,107.16,286.504,90.409,244.264,83.162z"/>
		<g>
			<g>
				<g>
					<polygon style="fill:#FFC792;" points="230.031,46.161 239.473,255.634 483.49,261.627 503.584,37.027      "/>
				</g>
				<g>
					<path style="fill:#AE312F;" d="M277.929,78.68c-5.824,0-10.562-4.739-10.562-10.563s4.738-10.562,10.562-10.562       c5.824,0,10.563,4.738,10.563,10.562S283.753,78.68,277.929,78.68z M277.929,59.868c-4.548,0-8.249,3.701-8.249,8.249       c0,4.549,3.701,8.25,8.249,8.25c4.549,0,8.25-3.701,8.25-8.25C286.179,63.569,282.478,59.868,277.929,59.868z"/>
				</g>
				<g>
					<path style="fill:#AE312F;" d="M393.939,237.027c-5.824,0-10.563-4.738-10.563-10.562s4.739-10.562,10.563-10.562       c5.824,0,10.562,4.738,10.562,10.562S399.764,237.027,393.939,237.027z M393.939,218.216c-4.549,0-8.25,3.701-8.25,8.249       s3.701,8.249,8.25,8.249c4.548,0,8.249-3.701,8.249-8.249S398.487,218.216,393.939,218.216z"/>
				</g>
				<g>
					<path style="fill:#AE312F;" d="M439.906,148.353c-5.824,0-10.563-4.738-10.563-10.563c0-5.824,4.739-10.562,10.563-10.562       c5.824,0,10.562,4.738,10.562,10.562C450.469,143.615,445.731,148.353,439.906,148.353z M439.906,129.541       c-4.549,0-8.25,3.701-8.25,8.249c0,4.549,3.701,8.25,8.25,8.25c4.548,0,8.249-3.701,8.249-8.25       C448.155,133.242,444.454,129.541,439.906,129.541z"/>
				</g>
				<g>
					<path style="fill:#AE312F;" d="M398.792,108.361c-0.263,0-0.53-0.09-0.747-0.275l-15.474-13.114       c-0.487-0.412-0.548-1.143-0.134-1.63c0.41-0.486,1.141-0.549,1.63-0.134l15.474,13.114c0.487,0.412,0.548,1.143,0.134,1.63       C399.447,108.223,399.121,108.361,398.792,108.361z"/>
				</g>
				<g>
					<path style="fill:#AE312F;" d="M384.533,106.093c-0.3,0-0.601-0.116-0.828-0.349c-0.446-0.458-0.437-1.19,0.02-1.636       l12.743-12.433c0.458-0.444,1.19-0.436,1.636,0.02c0.446,0.458,0.437,1.19-0.02,1.636l-12.743,12.433       C385.116,105.984,384.824,106.093,384.533,106.093z"/>
				</g>
				<g>
					<path style="fill:#AE312F;" d="M353.625,212.134c-0.263,0-0.53-0.09-0.747-0.273l-15.474-13.115       c-0.488-0.413-0.548-1.143-0.134-1.631c0.412-0.49,1.144-0.544,1.63-0.136l15.474,13.115c0.488,0.413,0.548,1.143,0.134,1.631       C354.28,211.997,353.954,212.134,353.625,212.134z"/>
				</g>
				<g>
					<path style="fill:#AE312F;" d="M339.365,209.864c-0.3,0-0.601-0.117-0.828-0.348c-0.446-0.459-0.437-1.191,0.02-1.638       l12.743-12.431c0.457-0.445,1.189-0.434,1.636,0.02c0.446,0.459,0.437,1.191-0.02,1.638l-12.743,12.431       C339.948,209.755,339.657,209.864,339.365,209.864z"/>
				</g>
				<g>
					<path style="fill:#AE312F;" d="M370.576,178.422h-19.722c-0.55,0-1.025-0.386-1.133-0.926l-2.426-11.943       c-0.066-0.319,0.007-0.651,0.199-0.913c0.192-0.262,0.485-0.432,0.808-0.468l22.149-2.426c0.33-0.038,0.654,0.068,0.899,0.289       c0.244,0.219,0.384,0.531,0.384,0.861v14.369C371.733,177.904,371.216,178.422,370.576,178.422z M351.799,176.108h17.62       v-11.922l-19.606,2.149L351.799,176.108z"/>
				</g>
				<g>
					<path style="fill:#AE312F;" d="M455.38,90.3h-18.508c-0.531,0-0.994-0.361-1.123-0.878l-3.642-14.624       c-0.08-0.325-0.017-0.67,0.176-0.944c0.193-0.274,0.496-0.452,0.829-0.486l22.15-2.256c0.328-0.027,0.651,0.072,0.892,0.293       c0.243,0.219,0.382,0.531,0.382,0.859v16.88C456.537,89.782,456.02,90.3,455.38,90.3z M437.776,87.986h16.448V73.544       l-19.548,1.99L437.776,87.986z"/>
				</g>
				<g>
					<path style="fill:#AE312F;" d="M388.479,218.216c-0.442,0-0.863-0.253-1.056-0.682l-17.901-39.795       c-0.262-0.583-0.002-1.267,0.581-1.53c0.583-0.269,1.266-0.005,1.53,0.581l17.901,39.795c0.262,0.583,0.002,1.267-0.581,1.53       C388.798,218.185,388.637,218.216,388.479,218.216z"/>
				</g>
				<g>
					<path style="fill:#AE312F;" d="M370.576,171.237c-0.141,0-0.285-0.025-0.424-0.081c-0.594-0.233-0.887-0.904-0.653-1.498       l23.363-59.384c0.235-0.595,0.909-0.883,1.5-0.653c0.594,0.234,0.887,0.906,0.653,1.5l-23.363,59.382       C371.473,170.959,371.037,171.237,370.576,171.237z"/>
				</g>
				<g>
					<path style="fill:#AE312F;" d="M439.908,129.541c-0.042,0-0.084-0.002-0.126-0.007c-0.635-0.07-1.094-0.641-1.025-1.275       l4.399-40.225c0.069-0.636,0.65-1.098,1.275-1.025c0.635,0.07,1.094,0.641,1.025,1.275l-4.399,40.225       C440.992,129.103,440.49,129.541,439.908,129.541z"/>
				</g>
				<g>
					<g>
						<path style="fill:#AE312F;" d="M287.734,74.272c-0.043,0-0.087-0.002-0.13-0.007c-3.486-0.393-5.598-0.364-5.617-0.367        c-0.722,0.002-1.164-0.502-1.174-1.14c-0.009-0.638,0.5-1.164,1.139-1.174c0.094,0.002,2.265-0.027,5.909,0.381        c0.635,0.072,1.092,0.644,1.021,1.279C288.816,73.836,288.316,74.272,287.734,74.272z"/>
					</g>
					<g>
						<path style="fill:#AE312F;" d="M363.998,149.381c-0.53,0-1.009-0.366-1.129-0.906c-0.84-3.782-1.824-7.479-2.926-10.99        c-0.191-0.609,0.148-1.258,0.758-1.449c0.612-0.192,1.258,0.148,1.449,0.758c1.121,3.573,2.123,7.335,2.978,11.18        c0.138,0.624-0.255,1.24-0.879,1.38C364.165,149.372,364.082,149.381,363.998,149.381z M357.091,127.531        c-0.45,0-0.877-0.263-1.064-0.704c-1.506-3.537-3.19-6.959-5.005-10.17c-0.315-0.556-0.119-1.262,0.437-1.576        c0.554-0.313,1.262-0.12,1.576,0.437c1.858,3.286,3.581,6.786,5.121,10.403c0.251,0.587-0.024,1.267-0.611,1.517        C357.396,127.502,357.242,127.531,357.091,127.531z M345.787,107.629c-0.354,0-0.703-0.162-0.93-0.467        c-2.266-3.049-4.734-5.945-7.336-8.608c-0.446-0.458-0.437-1.19,0.019-1.637c0.46-0.444,1.191-0.436,1.637,0.019        c2.673,2.738,5.209,5.714,7.537,8.845c0.381,0.513,0.275,1.237-0.238,1.619C346.269,107.555,346.027,107.629,345.787,107.629z         M329.786,91.277c-0.246,0-0.495-0.079-0.706-0.241c-2.969-2.292-6.135-4.401-9.41-6.268        c-0.556-0.317-0.749-1.023-0.433-1.578c0.316-0.555,1.023-0.75,1.578-0.433c3.369,1.922,6.625,4.09,9.679,6.447        c0.505,0.391,0.599,1.117,0.209,1.623C330.475,91.122,330.133,91.277,329.786,91.277z M309.912,79.931        c-0.145,0-0.29-0.027-0.432-0.084c-3.484-1.403-7.104-2.588-10.762-3.524c-0.619-0.158-0.992-0.788-0.834-1.408        c0.158-0.619,0.791-0.991,1.408-0.834c3.756,0.961,7.474,2.179,11.051,3.619c0.593,0.238,0.88,0.913,0.642,1.505        C310.804,79.657,310.37,79.931,309.912,79.931z"/>
					</g>
					<g>
						<path style="fill:#AE312F;" d="M366.807,166.479c-0.582,0-1.083-0.438-1.149-1.03c-0.215-1.941-0.459-3.839-0.729-5.698        c-0.093-0.633,0.346-1.22,0.978-1.313c0.624-0.075,1.219,0.346,1.31,0.978c0.275,1.886,0.521,3.811,0.74,5.779        c0.07,0.635-0.387,1.206-1.022,1.276C366.892,166.477,366.848,166.479,366.807,166.479z"/>
					</g>
				</g>
				<g>
					<path style="fill:#AE312F;" d="M388.961,219.247c-0.189,0-0.377-0.045-0.549-0.138l-11.378-6.134       c-0.563-0.305-0.773-1.005-0.469-1.568c0.303-0.563,1.004-0.768,1.567-0.47l9.692,5.226l0.132-12.311       c0.007-0.639,0.499-1.184,1.169-1.145c0.638,0.007,1.151,0.531,1.144,1.168l-0.152,14.227c-0.005,0.407-0.22,0.779-0.569,0.985       C389.368,219.192,389.164,219.247,388.961,219.247z"/>
				</g>
				<g>
					<path style="fill:#AE312F;" d="M370.577,172.959c-0.443,0-0.864-0.255-1.057-0.685c-0.261-0.583,0-1.267,0.583-1.527       l63.146-28.278c0.589-0.261,1.269,0.003,1.53,0.584c0.261,0.583,0,1.267-0.583,1.527l-63.146,28.277       C370.896,172.927,370.734,172.959,370.577,172.959z"/>
				</g>
				<g>
					<path style="fill:#AE312F;" d="M381.757,177.83c-0.185,0-0.373-0.045-0.548-0.138l-10.695-5.768       c-0.331-0.178-0.555-0.508-0.6-0.881c-0.044-0.375,0.096-0.748,0.376-0.999l8.952-8.038c0.472-0.429,1.205-0.391,1.633,0.088       c0.427,0.474,0.387,1.206-0.088,1.633l-7.729,6.94l9.248,4.986c0.563,0.305,0.773,1.005,0.469,1.568       C382.567,177.61,382.169,177.83,381.757,177.83z"/>
				</g>
			</g>
			<polygon style="opacity:0.64;fill:#6CE0C0;" points="487.09,31.125 512,54.652 504.96,62.032 478.772,37.139    "/>
		</g>
		<path style="fill:#FF5555;" d="M341.186,281.385l37.389-1.162c0,0,4.637,32.663-6.561,42.363h-38.61    C333.404,322.586,344.009,300.907,341.186,281.385z"/>
		<path style="fill:#FF9C3D;" d="M399.887,270.679c0,0-3.456,20.738,1.92,34.564h32.447c0,0-4.236-21.506-1.444-34.564H399.887z"/>
		<path style="fill:#6CE0C0;" d="M385.984,321.227h32.11c0,0,8.258,21.959-4.599,37.369l-27.512-0.401    C385.984,358.195,391.109,338.033,385.984,321.227z"/>
		<g>
			<g>
				<g>
					<g>
						<g>
							<g>
								<path style="fill:#FF9C3D;" d="M217.235,427.896c0.015,10.815-18.944,12.821-30.242,13.846          c-2.187,0.196-4.103,0.362-5.52,0.543c-18.432,2.383-39.051,7.089-55.718,15.4c-2.851,1.418-5.822,2.896-8.869,4.374          c-9.367,4.555-19.578,9.216-30.061,12.746c-23.651,8.009-48.659,10.302-68.373-7.059          c-7.014-6.184-12.127-14.254-15.159-23.108c-3.861-11.207-4.389-23.651-1.252-35.023c0.905-3.288,2.112-6.486,3.635-9.548          c8.658-17.361,26.23-28.568,42.882-37.256c0,0,18.009,14.405,18.009,14.42c-0.603-0.498-6.953,3.53-7.557,3.876          c-5.807,3.288-11.358,7.059-16.411,11.403c-10.604,9.11-19.684,22.444-18.085,37.045c0.92,8.401,4.993,14.797,10.77,19.05          c6.908,5.083,16.23,7.089,25.491,5.762c0.603-0.091,1.207-0.181,1.81-0.287c16.622-2.941,31.419-13.56,46.034-21.102          c4.977-2.564,10.06-4.947,15.234-7.104c10.196-4.299,20.74-7.798,31.494-10.362c1.026-0.257,2.051-0.498,3.077-0.724          c5.747-1.282,11.614-2.338,17.497-2.881c8.929-0.8,17.889-0.422,26.562,2.217          C208.878,416.085,217.22,420.203,217.235,427.896z"/>
							</g>
							<g style="opacity:0.2;">
								<path style="fill:#AE312F;" d="M217.235,427.896c0.015,10.815-18.944,12.821-30.242,13.846          c-2.187,0.196-4.103,0.362-5.52,0.543c-18.432,2.383-39.051,7.089-55.718,15.4c-2.851,1.418-5.822,2.896-8.869,4.374          c-9.367,4.555-19.578,9.216-30.061,12.746c-23.651,8.009-48.659,10.302-68.373-7.059          c-7.014-6.184-12.127-14.254-15.159-23.108c-3.861-11.207-4.389-23.651-1.252-35.023c0.905-3.288,2.112-6.486,3.635-9.548          c8.658-17.361,26.23-28.568,42.882-37.256c0,0,18.009,14.405,18.009,14.42c-0.603-0.498-6.953,3.53-7.557,3.876          c-5.807,3.288-11.358,7.059-16.411,11.403c-10.604,9.11-19.684,22.444-18.085,37.045c0.92,8.401,4.993,14.797,10.77,19.05          c6.908,5.083,16.23,7.089,25.491,5.762c0.603-0.091,1.207-0.181,1.81-0.287c16.622-2.941,31.419-13.56,46.034-21.102          c4.977-2.564,10.06-4.947,15.234-7.104c10.196-4.299,20.74-7.798,31.494-10.362c1.026-0.257,2.051-0.498,3.077-0.724          c5.747-1.282,11.614-2.338,17.497-2.881c8.929-0.8,17.889-0.422,26.562,2.217          C208.878,416.085,217.22,420.203,217.235,427.896z"/>
							</g>
						</g>
						<g>
							<path style="fill:#AE312F;" d="M217.235,427.896c0.015,10.815-18.944,12.821-30.242,13.846         c2.73-6.471,12.745-11.192,12.745-11.192c-13.152-2.7-20.408-12.398-23.816-18.643c8.929-0.8,17.889-0.422,26.562,2.217         C208.878,416.085,217.22,420.203,217.235,427.896z"/>
						</g>
						<g>
							<path style="fill:#AE312F;" d="M155.348,415.512c-0.332,7.014-2.609,15.702-11.644,17.074         c-9.668,1.463-16.26-3.092-19.85-6.712C134.05,421.576,144.593,418.076,155.348,415.512z"/>
						</g>
						<g>
							<path style="fill:#AE312F;" d="M116.885,462.059c-9.367,4.555-19.578,9.216-30.061,12.746         c0.724-5.023,3.077-11.886,10.151-15.34C103.567,456.237,111.274,458.952,116.885,462.059z"/>
						</g>
						<g>
							<path style="fill:#AE312F;" d="M62.585,454.08c-4.435,5.867-11.493,12.776-18.764,9.759         c-6.576-2.73-8.311-9.593-8.537-15.234c6.908,5.083,16.23,7.089,25.491,5.762C61.379,454.276,61.982,454.186,62.585,454.08z"/>
						</g>
						<g>
							<path style="fill:#AE312F;" d="M11.347,426.75c0.211,8.884-4.586,14.978-8.055,17.889         c-3.861-11.207-4.389-23.651-1.252-35.023C5.978,412.933,11.166,418.816,11.347,426.75z"/>
						</g>
					</g>
					<g>
						<g>
							<g>
								<path style="fill:#FF9C3D;" d="M255.961,200.701c0,0,23.25,22.384,30.133,32.259c0,0,17.954-19.504,24.238-23.218          c6.284-3.714,10.174,0,10.174,0s11.072-3.115,14.064,6.76c0,0,6.882,2.993,4.788,16.458          c-2.095,13.466-34.113,53.863-63.737,48.775C245.996,276.648,255.961,200.701,255.961,200.701z"/>
							</g>
							<g style="opacity:0.2;">
								<path style="fill:#AE312F;" d="M255.961,200.701c0,0,23.25,22.384,30.133,32.259c0,0,17.954-19.504,24.238-23.218          c6.284-3.714,10.174,0,10.174,0s11.072-3.115,14.064,6.76c0,0,6.882,2.993,4.788,16.458          c-2.095,13.466-34.113,53.863-63.737,48.775C245.996,276.648,255.961,200.701,255.961,200.701z"/>
							</g>
						</g>
						<g>
							<path style="fill:#FFC792;" d="M331.37,224.813c-0.905,0.481-1.572,1.375-1.807,2.372c-0.113,0.479-0.127,1.003,0.09,1.445         c0.25,0.51,0.776,0.841,1.324,0.99c0.548,0.148,1.126,0.138,1.693,0.127c0.497-0.01,1-0.02,1.48-0.147         c0.481-0.127,0.945-0.383,1.225-0.793c0.22-0.322,0.312-0.714,0.346-1.102C335.946,225.161,333.749,223.548,331.37,224.813z"/>
						</g>
						<g>
							<path style="fill:#FFC792;" d="M310.331,215.144c-0.052,0.64-0.003,1.327,0.369,1.851c0.536,0.756,1.586,0.956,2.507,0.857         c0.816-0.087,1.628-0.37,2.243-0.913c1.315-1.161,1.209-3.8-0.74-4.203C312.944,212.371,310.492,213.157,310.331,215.144z"/>
						</g>
						<g>
							<path style="fill:#FFC792;" d="M318.856,223.217c-3.48-0.585-7.442,0.174-10.433,1.785c-1.095,0.589-2.136,1.507-2.726,2.613         c-0.388,0.728-0.561,1.597-0.337,2.392c0.369,1.308,1.672,2.081,2.918,2.391c1.308,0.324,3.74-0.281,4.527,1.019         c1.907,3.151,4.945,6.028,8.643,3.348c4.703-3.409,5.434-11.078-0.837-13.12         C320.045,223.459,319.458,223.318,318.856,223.217z"/>
						</g>
						<g>
							<path style="fill:#FFC792;" d="M324.735,213.951c-1.563,0.931-2.367,2.88-2.168,4.688c0.042,0.383,0.147,0.798,0.46,1.022         c0.223,0.16,0.512,0.191,0.787,0.203c1.645,0.07,3.309-0.388,4.686-1.291c1.169-0.766,2.903-2.866,1.309-4.066         C328.405,213.45,326.292,213.024,324.735,213.951z"/>
						</g>
						<g style="opacity:0.48;">
							<g>
								<path style="fill:#AE312F;" d="M286.093,232.96c1.309,1.053,2.318,2.403,3.147,3.833c0.848,1.429,1.459,2.986,1.913,4.587          c0.872,3.196,0.973,6.69-0.166,9.827c-0.397-1.636-0.614-3.184-0.968-4.711c-0.325-1.524-0.667-3.025-1.096-4.506          C288.14,238.994,287.117,236.107,286.093,232.96z"/>
							</g>
						</g>
					</g>
					<g>
						<path style="fill:#FF9C3D;" d="M272.796,296.899c-5.128,21.479-17.512,41.012-28.749,50.303        c-31.298,25.853-79.911,33.621-91.013,35.099c-1.493,0.196-2.308,0.286-2.308,0.286c0.739,0.091,1.478,0.181,2.202,0.257        c2.233,0.286,4.374,0.543,6.456,0.799c20.272,2.504,33.334,4.631,32.625,11.66c-0.558,5.535-55.175,6.38-70.062,5.792        c-14.887-0.603-10.785-9.548-10.785-9.548s-10.815,2.157-25.43,1.78c-6.259-0.166-13.213-0.8-20.317-2.278        c-7.361-1.523-14.872-3.952-21.931-7.693c-4.133-2.187-8.1-4.827-11.78-7.994c-5.309-4.57-10.045-10.242-13.831-17.27        c-2.609-4.857-4.766-10.362-6.335-16.592v-0.015c-1.358-5.294-2.278-11.101-2.715-17.497        c-0.075-1.131-0.136-2.247-0.166-3.363c-0.181-4.57-0.03-8.99,0.392-13.243c0.618-6.32,1.855-12.323,3.59-17.994        c1.614-5.309,3.68-10.332,6.109-15.098c3.288-6.471,7.255-12.459,11.659-17.964c3.635-4.555,7.587-8.779,11.735-12.7        c4.646-4.419,9.533-8.432,14.51-12.097c5.958-4.389,12.036-8.25,17.934-11.629c5.023-2.866,9.925-5.385,14.525-7.557        c6.486-3.077,12.353-5.49,17.09-7.27c7.164-2.7,11.765-3.982,12.036-4.058c0,0,74.24-42.324,124.03-11.886        c20.257,12.383,30.77,37.226,33.379,63.471C277.17,267.591,276.099,283.052,272.796,296.899z"/>
					</g>
					<g>
						<path style="fill:#FF9C3D;" d="M110.213,190.616c7.384,13.192,21.522,22.959,44.448,27.016        c41.776,7.4,99.521-12.056,99.521-12.056s7.64-15.13,8.928-17.635c2.655-5.118,6.61-15.047,6.196-27.925        c-0.01-0.762-0.047-1.544-0.105-2.332c-0.132-1.738-0.319-3.515-0.628-5.33c-0.009-0.081-0.023-0.141-0.032-0.222        c-0.234-1.445-0.529-2.944-0.913-4.447c-0.068-0.322-0.149-0.638-0.237-0.966c-0.081-0.316-0.162-0.631-0.243-0.946        c-0.79-2.824-1.715-5.644-2.82-8.42c-0.208-0.555-0.435-1.083-0.677-1.638c-0.505-1.183-1.049-2.345-1.641-3.5        c-0.036-0.1-0.092-0.207-0.149-0.314c-1.163-2.269-2.486-4.487-3.982-6.613c-0.376-0.518-0.745-1.057-1.147-1.561        c-5.673-7.427-13.729-13.615-25.404-17.194c-7.201-2.239-15.796-3.47-26.07-3.389c-0.115,0.009-0.236,0.005-0.371,0.008        c-0.412-0.004-0.83,0.011-1.247,0.027c-0.358,0.001-0.722,0.022-1.093,0.03c-1.962,0.063-3.977,0.154-6.059,0.313        c-0.91,0.053-1.839,0.135-2.781,0.222c-0.256,0.033-0.532,0.059-0.795,0.078c-0.31,0.027-0.612,0.067-0.909,0.087        c-0.714,0.069-1.42,0.152-2.114,0.228c-0.377,0.028-0.747,0.07-1.118,0.112c-6.845,0.762-13.288,1.705-19.302,2.847        c-0.202,0.038-0.417,0.083-0.618,0.121c-0.82,0.16-1.626,0.312-2.425,0.478c-0.632,0.128-1.263,0.257-1.894,0.385        l-0.013,0.007c-0.752,0.158-1.497,0.33-2.229,0.494c-3.122,0.708-6.115,1.468-8.971,2.293        c-0.389,0.103-0.758,0.212-1.126,0.321c-0.503,0.146-0.985,0.298-1.468,0.45c-21.275,6.446-35.325,15.987-41.993,28.013        c-2.013,3.62-3.367,7.454-4.035,11.524c-0.059,0.372-0.119,0.745-0.178,1.117c-0.081,0.623-0.162,1.245-0.229,1.86        c-0.046,0.366-0.079,0.724-0.119,1.069c-0.496,4.815-0.57,9.492-0.203,13.971l0.009,0.081c0.05,0.741,0.133,1.481,0.217,2.222        c0.182,1.541,0.43,3.047,0.719,4.532C105.948,181.236,107.686,186.117,110.213,190.616z"/>
					</g>
					<g>
						<path style="fill:#FF9C3D;" d="M202.485,104.171c0.395,0.204,6.792,3.499,13.392,5.642c2.258,0.72,4.535,1.314,6.61,1.596        c3.363,0.466,6.19,0.127,7.474-1.762c0.555-0.822,1.012-1.876,1.373-3.11c0.043-0.126,0.086-0.265,0.117-0.391        c1.714-6.231,1.089-16.307-1.238-21.667c-0.645-1.495-1.421-2.611-2.306-3.188c-0.347-0.231-0.701-0.362-1.089-0.418        c-6.149-0.812-11.055,2.896-14.079,7.765c-2.081,3.344-3.408,7.371-5.823,10.508c-0.187,0.233-1.748,2.297-2.982,3.712        l-0.294,0.325C203.099,103.792,202.648,104.199,202.485,104.171z"/>
					</g>
					<g>
						<path style="fill:#FF9C3D;" d="M108.617,139.864c0.575-0.165,38.238-11.324,37.157-23.078c-0.105-1.125-0.31-2.244-0.6-3.335        c-2.717-10.444-13.043-19.106-17.351-18.594l-0.012,0.001c-4.752,0.571-5.895,11.045-8.293,19.26        C117.164,122.218,108.864,139.33,108.617,139.864z"/>
					</g>
					<g>
						<path style="fill:#AE312F;" d="M137.928,116.306c4.015-1.901,7.087-2.798,7.246-2.856        c-2.717-10.444-13.043-19.106-17.351-18.594l-0.012,0.001c-0.485,2.483-1.045,5.453,1.114,11.666        c0.216,0.61,0.383,1.21,0.524,1.799C131.583,117.044,134.107,118.123,137.928,116.306z"/>
					</g>
					<g>
						<path style="fill:#AE312F;" d="M226.939,105.314c1.691,0.289,3.282,0.582,4.511,0.831c1.714-6.231,1.089-16.307-1.238-21.667        c-0.645-1.495-1.421-2.611-2.306-3.188c0,0-2.138,1.212-3.407,6.651c-0.46,1.985-0.85,3.879-1.358,5.642        C221.933,97.753,221.428,104.346,226.939,105.314z"/>
					</g>
					<g style="opacity:0.48;">
						<path style="fill:#EA4949;" d="M162.928,168.032c3.272,2.265,4.298,7.722,1.156,10.987c-4.206,4.371-12.948,4.91-17.52,0.754        c-3.86-3.509-2.492-11.077,1.128-12.904c3.06-1.544,6.466-1.644,9.69-0.951C158.881,166.24,161.094,166.763,162.928,168.032z"/>
					</g>
					<g style="opacity:0.48;">
						<path style="fill:#EA4949;" d="M233.588,155.932c-2.132,2.991-1.328,8.085,2.406,9.976c5,2.532,12.742,0.312,15.413-4.735        c2.256-4.261-1.278-10.467-4.981-10.952c-3.13-0.41-6.112,0.551-8.69,2.152C236.538,153.117,234.783,154.257,233.588,155.932z        "/>
					</g>
					<g>
						<path style="fill:#AE312F;" d="M168.852,107.22c1.151,1.439,2.221,2.853,3.227,4.147c1.978,2.521,3.816,5.166,5.561,7.861        c1.319,2.016,3.486,3.926,6.05,3.937c3.226,0.038,5.812-2.366,7.073-5.18c1.584-3.496,1.156-7.38,0.126-10.98        c-0.277-0.979-0.622-1.923-1-2.866c-0.377,0.028-0.747,0.07-1.118,0.112c-6.845,0.762-13.288,1.705-19.302,2.847        C169.268,107.137,169.053,107.182,168.852,107.22z"/>
					</g>
					<g>
						<path style="fill:#AE312F;" d="M257.868,151.269c3.47,0.113,6.854-1.483,9.768-3.577c-0.078-0.319-0.156-0.638-0.247-0.968        c-0.077-0.307-0.155-0.626-0.246-0.944c-0.786-2.829-1.709-5.651-2.815-8.427C258.543,144.12,251.363,151.046,257.868,151.269        z"/>
					</g>
					<g>
						<path style="fill:#AE312F;" d="M260.272,159.915c2.41,1.035,5.849,0.777,9.044,0.109c-0.026-0.769-0.065-1.549-0.117-2.341        c-0.124-1.732-0.323-3.51-0.625-5.333c-0.016-0.074-0.019-0.136-0.035-0.209C262.143,154.843,256.021,158.09,260.272,159.915z        "/>
					</g>
					<g>
						<path style="fill:#AE312F;" d="M256.678,135.832c1.849-0.514,3.679-1.909,5.334-3.605c-0.043-0.11-0.098-0.219-0.153-0.328        c-1.168-2.264-2.482-4.483-3.979-6.606C254.758,131.173,252.392,137.026,256.678,135.832z"/>
					</g>
					<g>
						<path style="fill:#AE312F;" d="M150.725,111.652c3.03,2.802,6.02,5.692,8.082,5.85c5.13,0.415,6.714-4.342,3.484-8.914        c-3.122,0.709-6.115,1.469-8.971,2.293c-0.389,0.103-0.758,0.212-1.127,0.321C151.69,111.348,151.207,111.5,150.725,111.652z"/>
					</g>
					<g>
						<path style="fill:#AE312F;" d="M192.004,103.916c1.769,1.932,3.497,3.527,5.008,3.805c4.085,0.762,6.817-2.368,5.536-4.506        c-1.962,0.063-3.977,0.154-6.059,0.313c-0.91,0.054-1.839,0.135-2.782,0.222c-0.256,0.033-0.532,0.059-0.794,0.078        C192.603,103.855,192.3,103.896,192.004,103.916z"/>
					</g>
					<g style="opacity:0.48;">
						<path style="fill:#AE312F;" d="M265.689,182.121c-0.755,1.653-1.506,3.303-2.334,4.909c-0.402,0.807-0.826,1.602-1.279,2.372        c-0.454,0.759-0.956,1.527-1.537,2.078l-0.17,0.161l0.038,0.256c0.11,0.749,0.185,1.542,0.144,2.288        c-0.021,0.724-0.255,1.53-0.614,1.63c-0.167,0.052-0.229,0.057-0.436-0.176c-0.178-0.228-0.326-0.565-0.445-0.908        c-0.237-0.696-0.373-1.482-0.469-2.227l-0.292-2.249l-0.772,2.119c-0.284,0.78-0.627,1.572-1.01,2.317        c-0.386,0.742-0.817,1.475-1.343,2.041c-0.257,0.285-0.559,0.515-0.822,0.571c-0.3,0.064-0.536,0.033-0.642-0.159        c-0.295-0.466-0.21-1.443-0.036-2.191l0.27-1.164l-0.889,0.754c-1.09,0.924-2.274,1.77-3.467,2.58        c-1.2,0.809-2.46,1.525-3.806,2.089c1.42-0.357,2.759-0.991,4.055-1.676c1.293-0.703,2.512-1.511,3.708-2.39l-0.618-0.41        c-0.136,0.456-0.225,0.893-0.268,1.369c-0.026,0.469-0.042,0.983,0.257,1.533c0.156,0.266,0.449,0.516,0.763,0.594        c0.158,0.052,0.31,0.076,0.45,0.068c0.145,0.008,0.289,0,0.434-0.044c0.592-0.13,1.002-0.476,1.337-0.812        c0.683-0.686,1.148-1.467,1.567-2.258c0.418-0.796,0.776-1.597,1.095-2.445l-1.064-0.13c0.093,0.848,0.255,1.65,0.536,2.475        c0.152,0.41,0.319,0.824,0.639,1.23c0.096,0.1,0.186,0.2,0.294,0.293c0.135,0.083,0.257,0.179,0.417,0.229        c0.331,0.113,0.689,0.08,0.97-0.046c0.591-0.249,0.873-0.806,1.008-1.244c0.137-0.457,0.17-0.895,0.186-1.325        c0.011-0.861-0.074-1.675-0.25-2.505l-0.132,0.417c0.692-0.747,1.129-1.557,1.56-2.375c0.418-0.82,0.797-1.652,1.154-2.492        C264.554,185.575,265.18,183.867,265.689,182.121z"/>
					</g>
					<g>
						<g>
							<g>
								<path style="fill:#FFFFFF;" d="M146.51,163.465c6.126,3.11,15.11,3.234,21.165-0.084c1.293-0.71,2.466-1.6,3.479-2.693          c4.382-4.775,6.213-12.39,5.399-18.769c-0.007-0.148-0.027-0.296-0.046-0.444c-0.94-6.422-5.39-11.763-11.404-14.109          c-7.04-2.742-16.982-2.682-22.385,3.273c-2.13,2.353-3.653,5.434-4.505,8.791l-0.012,0          C135.902,148.373,138.307,159.291,146.51,163.465z"/>
							</g>
							<g>
								<path style="fill:#AE312F;" d="M141.308,159.095c-1.374-1.828-2.405-3.909-3.079-6.101c-0.67-2.194-1.028-4.483-1.112-6.785          c-0.075-2.304,0.14-4.624,0.658-6.888l0.07-0.305l0.335-0.025l0.012-0.001l-0.406,0.332          c0.506-2.205,1.293-4.365,2.443-6.354c1.13-1.981,2.664-3.829,4.614-5.159c3.889-2.707,8.761-3.489,13.333-3.124          c2.304,0.199,4.579,0.691,6.77,1.466c2.218,0.75,4.289,1.981,6.082,3.496c3.618,3.055,5.978,7.43,6.452,12.225l-0.006-0.071          c0.375,4.01-0.161,8.043-1.531,11.769c-0.69,1.859-1.594,3.643-2.737,5.265c-1.128,1.62-2.547,3.09-4.233,4.14          c-1.68,1.055-3.537,1.756-5.431,2.216c-1.894,0.469-3.838,0.698-5.778,0.713c-3.869,0.004-7.79-0.684-11.254-2.44          C144.465,162.445,142.684,160.919,141.308,159.095z M157.761,165.73c3.835-0.144,7.726-1.126,10.846-3.3          c1.554-1.085,2.804-2.523,3.805-4.128c1.006-1.597,1.778-3.337,2.342-5.136c1.121-3.6,1.417-7.457,0.881-11.13l-0.006-0.071          c-0.04-0.418-0.183-0.993-0.273-1.487c-0.148-0.505-0.254-1.02-0.444-1.511c-0.321-0.999-0.779-1.949-1.286-2.864          c-0.512-0.915-1.133-1.762-1.781-2.581c-0.678-0.797-1.414-1.546-2.216-2.219c-3.208-2.694-7.397-4.07-11.646-4.523          c-4.224-0.458-8.667,0.135-12.268,2.338c-1.798,1.091-3.268,2.672-4.437,4.489c-1.174,1.807-2.037,3.83-2.636,5.93          l-0.092,0.325l-0.313,0.008l-0.012,0l0.405-0.33c-1.2,4.31-1.384,9.004-0.168,13.386c0.606,2.182,1.538,4.3,2.905,6.126          c1.352,1.83,3.111,3.371,5.145,4.413C149.992,165.16,153.912,165.879,157.761,165.73z"/>
							</g>
						</g>
						<g>
							<path style="fill:#AE312F;" d="M159.551,160.341c-5.08,1.003-10.894-0.666-14.185-4.796         c-5.244-6.579-3.685-17.342,3.3-21.964c3.751-2.482,9.007-3.239,13.266-1.72c11.382,4.061,11.347,21.114,1.583,26.983         C162.312,159.568,160.965,160.062,159.551,160.341z"/>
						</g>
						<g style="opacity:0.21;">
							<path style="fill:#AE312F;" d="M138.213,139.43c21.999-11.796,36.57,0.827,38.341,2.49c-0.007-0.148-0.027-0.296-0.046-0.444         c-0.94-6.422-5.39-11.763-11.404-14.109c-7.04-2.742-16.982-2.682-22.385,3.273         C140.588,132.992,139.065,136.072,138.213,139.43z"/>
						</g>
					</g>
					<g>
						<g>
							<g>
								<path style="fill:#FFFFFF;" d="M223.616,149.111c4.273,4.148,11.114,4.12,16.39,2.29c0.724-0.262,1.418-0.579,2.066-0.96          c7.854-4.582,9.308-17.575,3.695-24.645c-0.563-0.735-1.222-1.401-1.95-1.995c-6.391-5.17-18.374-4.184-23.502,2.427          c-1.23,1.611-1.699,3.714-1.882,5.691c-0.13,1.35-0.133,2.817-0.007,4.322C218.79,140.968,220.436,146.028,223.616,149.111z          "/>
							</g>
							<g>
								<path style="fill:#AE312F;" d="M220.163,143.892c-0.832-1.931-1.392-3.978-1.721-6.062          c-0.323-2.081-0.493-4.206-0.317-6.336c0.17-2.091,0.67-4.376,2.171-6.082c2.799-3.435,7.132-5.293,11.463-5.78          c4.341-0.463,9.006,0.416,12.656,3.24c0.887,0.705,1.706,1.548,2.354,2.467c0.315,0.466,0.65,0.92,0.943,1.399l0.784,1.492          c0.913,2.05,1.379,4.248,1.52,6.439c0.221,4.369-0.878,8.856-3.514,12.354c-1.301,1.75-3.035,3.154-4.973,4.104          c-0.981,0.457-2.017,0.751-3.049,0.985c-1.033,0.243-2.083,0.397-3.135,0.492c-2.103,0.203-4.24,0.052-6.274-0.48          c-2.037-0.525-3.947-1.549-5.455-3.012C222.101,147.652,220.986,145.82,220.163,143.892z M229.093,152.042          c2.035,0.493,4.159,0.528,6.219,0.256c1.034-0.122,2.052-0.359,3.045-0.657c0.996-0.295,1.971-0.643,2.864-1.133          c1.766-1.019,3.283-2.422,4.382-4.119c2.238-3.386,2.942-7.619,2.521-11.567c-0.197-1.985-0.719-3.927-1.555-5.697          l-0.697-1.284c-0.26-0.411-0.558-0.797-0.832-1.197c-0.569-0.789-1.242-1.455-2.001-2.045          c-3.011-2.385-7.158-3.307-11.12-3.066c-3.958,0.235-8.037,1.638-10.778,4.601c-1.414,1.39-2.019,3.413-2.321,5.439          c-0.295,2.043-0.302,4.143-0.07,6.216c0.48,4.108,1.881,8.316,4.867,11.322C225.145,150.555,227.06,151.547,229.093,152.042          z"/>
							</g>
						</g>
						<g>
							<path style="fill:#AE312F;" d="M242.483,142.595c-0.246,0.4-2.134,5.384-9.898,5.571c-7.765,0.188-10.022-9.14-9.945-12.464         c0.078-3.324,1.728-10.676,10.498-11.173C241.908,124.032,246.721,135.708,242.483,142.595z"/>
						</g>
						<g style="opacity:0.21;">
							<path style="fill:#AE312F;" d="M218.426,136.241c7.659-8.635,20.527-10.243,27.341-10.445         c-0.563-0.735-1.222-1.401-1.95-1.995c-6.391-5.17-18.374-4.184-23.502,2.427c-1.23,1.611-1.699,3.714-1.882,5.691         C218.303,133.269,218.3,134.735,218.426,136.241z"/>
						</g>
					</g>
					<g>
						<path style="fill:#AE312F;" d="M104.698,151.183c21.775,10.688,27.685-3.797,18.979-5.599        c-5.834-1.212-11.325-4.019-14.946-5.924C106.714,143.286,105.365,147.128,104.698,151.183z"/>
					</g>
					<g>
						<path style="fill:#AE312F;" d="M103.967,169.198l0.004,0.087c0.07,0.406,0.115,0.801,0.171,1.196        c7.872,2.502,17.361,3.57,24.518-0.076c2.7-1.376,4.905-4.229,3.765-6.941c-0.463-1.082-1.427-1.978-2.563-2.604        c-3.359-1.869-7.821-1.97-11.717-2.174c-4.432-0.239-9.777-1.848-13.978-3.44C103.673,160.05,103.595,164.722,103.967,169.198        z"/>
					</g>
					<g>
						<path style="fill:#AE312F;" d="M104.915,176.042c1.028,5.201,2.773,10.081,5.294,14.574        c5.319,0.592,10.917-0.927,15.315-3.865c1.959-1.314,3.646-3.347,3-5.848c-0.848-3.31-5.336-3.435-8.046-3.238        C113.13,178.204,107.767,176.968,104.915,176.042z"/>
					</g>
					<g>
						<g>
							<path style="fill:#AE312F;" d="M266.831,158.543c-3.332-1.016-6.72-1.701-10.122-2.306c-3.408-0.572-6.83-1.061-10.31-1.217         c3.331,1.018,6.72,1.703,10.123,2.306C259.929,157.896,263.351,158.384,266.831,158.543z"/>
						</g>
						<g>
							<path style="fill:#AE312F;" d="M268.047,150.009c-3.359-0.196-6.695-0.059-10.025,0.161         c-3.327,0.253-6.649,0.589-9.946,1.262c3.359,0.199,6.695,0.061,10.024-0.161C261.428,151.017,264.75,150.68,268.047,150.009         z"/>
						</g>
						<g>
							<path style="fill:#AE312F;" d="M264.903,139.778c-3.103,1.3-6.038,2.891-8.932,4.552c-2.878,1.69-5.712,3.453-8.378,5.507         c3.105-1.299,6.04-2.889,8.933-4.552C259.401,143.593,262.237,141.83,264.903,139.778z"/>
						</g>
					</g>
					<g>
						<path style="fill:#FFFFFF;" d="M134.828,113.63c0,0,2.395-0.28,3.011-0.87c0.629-0.59-3.079-0.493-3.079-0.493        c1.806-0.884,3.21-3.127,2.576-3.132c-0.646-0.018-2.721,1.699-2.721,1.699c2.078-3.393,0.234-8.268-2.239-7.823        c-1.058,0.189-2.093,2.612-2.927,5.311c2.134,8.722-2.832,15.462-3.758,16.328c3.761-3.775,8.416-6.527,12.237-8.343        C137.22,114.554,134.828,113.63,134.828,113.63z"/>
					</g>
					<g>
						<path style="fill:#FFFFFF;" d="M226.939,105.314c-0.446-1.977-2.676-4.634-2.874-4.861c0.164,0.054,1.91,0.7,2.68,0.214        c0.806-0.512-2.099-1.498-2.099-1.498s2.201,0.064,2.342-0.601c0.154-0.653-2.067-0.369-2.067-0.369        c1.526-1.032,4.162-5.446,2.149-6.476c-1.312-0.667-2.942,0.767-3.93,1.859c-1.208,4.17-3.112,7.592-8.442,9.757        C214.698,103.34,221.428,104.346,226.939,105.314z"/>
					</g>
					<g>
						<g>
							<path style="fill:#AE312F;" d="M199.179,136.605c0,0,2.662-4.412,4.412-3.913c1.75,0.499-2.248,7.175-4.019,7.992         c-1.771,0.817-6.721-5.005-5.895-6.37C194.504,132.948,199.179,136.605,199.179,136.605z"/>
						</g>
						<g>
							<path style="fill:#AE312F;" d="M196.826,163.578c0.369-1.941,0.657-3.892,0.977-5.839l0.816-5.861         c0.273-1.955,0.477-3.917,0.692-5.881c0.183-1.971,0.374-3.926,0.414-5.948l-1.059,0.215         c1.473,3.513,2.861,7.076,4.224,10.64c0.675,1.786,1.332,3.579,1.933,5.39c0.634,1.802,1.194,3.627,1.71,5.474         c-0.274-1.899-0.735-3.765-1.198-5.628c-0.495-1.855-1.07-3.685-1.651-5.514c-1.178-3.654-2.541-7.236-4.001-10.791         l-1.021-2.485l-0.039,2.7c-0.028,1.922-0.199,3.896-0.357,5.851l-0.496,5.885l-0.508,5.89         C197.125,159.643,196.943,161.607,196.826,163.578z"/>
						</g>
						<g style="opacity:0.48;">
							<path style="fill:#AE312F;" d="M207.853,140.123c3.188,0.284,6.418,1.78,8.605,4.51c3.17,3.957,4.419,9.305,1.681,13.685         c-1.699,2.718-4.384,4.444-7.156,5.651c-5.312,2.313-10.752,4.235-16.635,3.455c-2.134-0.283-4.284-0.886-6.164-2.136         c-2.881-1.915-4.96-5.359-5.449-9.028c-0.489-3.669,0.623-7.477,2.915-9.982c2.82-3.082,7.467-4.587,11.372-5.089         C200.501,140.743,204.348,139.811,207.853,140.123z"/>
						</g>
					</g>
					<g>
						<g>
							<path style="fill:#AE312F;" d="M149.625,175.242c-3.447,0.503-6.804,1.329-10.139,2.234c-3.326,0.937-6.63,1.955-9.844,3.299         c3.447-0.501,6.804-1.327,10.139-2.234C143.106,177.601,146.41,176.583,149.625,175.242z"/>
						</g>
						<g>
							<path style="fill:#AE312F;" d="M127.585,172.402c3.348,0.34,6.686,0.346,10.022,0.27c3.335-0.11,6.668-0.303,9.991-0.834         c-3.348-0.343-6.686-0.348-10.022-0.27C134.242,171.68,130.909,171.874,127.585,172.402z"/>
						</g>
						<g>
							<path style="fill:#AE312F;" d="M129.699,161.91c2.857,1.778,5.853,3.251,8.883,4.65c3.043,1.368,6.122,2.66,9.34,3.644         c-2.856-1.78-5.852-3.253-8.883-4.65C135.995,164.188,132.916,162.897,129.699,161.91z"/>
						</g>
					</g>
					<g style="opacity:0.48;">
						<path style="fill:#AE312F;" d="M158.1,219.196c-1.588-0.64-3.181-1.256-4.748-1.932c-1.569-0.665-3.14-1.33-4.636-2.11        l-0.962-0.502l0.423,1.032c0.177,0.434,0.33,0.917,0.406,1.372c0.086,0.445,0.047,0.94-0.1,1.071        c-0.047,0.062-0.207,0.116-0.324,0.109c-0.077,0.001-0.242-0.073-0.397-0.206c-0.318-0.265-0.614-0.655-0.881-1.056        c-0.528-0.818-0.993-1.712-1.401-2.627c-0.402-0.908-0.791-1.874-1.035-2.779l-0.482-1.788l-0.579,1.752        c-0.236,0.716-0.549,1.457-0.931,2.095c-0.378,0.637-0.908,1.205-1.319,1.091c-0.483-0.059-1.011-0.687-1.364-1.334        c-0.363-0.66-0.661-1.406-0.89-2.134l-0.1-0.319l-0.309-0.004c-1.809-0.026-3.671-0.29-5.458-0.734        c-0.903-0.202-1.792-0.471-2.663-0.794c-0.876-0.313-1.714-0.72-2.551-1.143c1.532,1.083,3.271,1.875,5.066,2.465        c1.814,0.559,3.664,0.929,5.592,1.064l-0.409-0.323c0.201,0.832,0.47,1.614,0.87,2.384c0.201,0.382,0.432,0.759,0.744,1.109        c0.307,0.341,0.729,0.687,1.303,0.794c0.275,0.05,0.589,0.032,0.869-0.074c0.273-0.104,0.49-0.258,0.676-0.419        c0.368-0.328,0.628-0.695,0.861-1.065c0.455-0.749,0.783-1.507,1.064-2.325l-1.061-0.037c0.29,1.073,0.694,2.004,1.123,2.965        c0.441,0.947,0.912,1.883,1.527,2.765c0.314,0.438,0.645,0.873,1.124,1.255c0.242,0.18,0.546,0.38,0.986,0.396        c0.391-0.001,0.758-0.124,1.058-0.447c0.522-0.693,0.351-1.349,0.26-1.877c-0.126-0.549-0.312-1.039-0.549-1.54l-0.539,0.53        c1.581,0.708,3.186,1.315,4.812,1.86C154.808,218.257,156.44,218.774,158.1,219.196z"/>
					</g>
					<g>
						<path style="fill:#AE312F;" d="M178.093,399.262c-0.598-1.942-1.21-3.305-2.17-4.421c-0.477-0.561-1.039-1.071-1.69-1.597        c-0.656-0.525-1.396-1.01-2.187-1.693c0.992-0.259,2.019-0.229,3,0.081c0.995,0.285,1.909,0.908,2.646,1.72        C179.123,395.051,179.349,397.612,178.093,399.262z"/>
					</g>
					<g>
						<path style="fill:#FFC792;" d="M272.796,296.899c-5.128,21.479-17.512,41.012-28.749,50.303        c-31.298,25.853-81.561,33.621-92.663,35.099c1.388-7.074,5.49-25.324,4.977-30.512c0,0,32.315-11.616,50.174-21.948        s12.564-81.375,39.247-88.403c11.524-3.032,22.157,1.403,29.865,11.162C277.17,267.591,276.099,283.052,272.796,296.899z"/>
					</g>
					<g style="opacity:0.48;">
						<g>
							<path style="fill:#AE312F;" d="M93.861,276.986c1.143-1.577,2.418-3.065,3.828-4.429c1.443-1.309,3.005-2.603,4.978-3.201         c0.97-0.337,2.116-0.27,3.099,0.146c0.979,0.335,1.924,1.441,1.814,2.641c-0.059,1.152-0.6,2.081-1.138,2.939         c-0.567,0.855-1.198,1.621-1.939,2.345l-0.698-0.961c1.858-1.046,3.744-1.982,5.707-2.81c1.97-0.801,3.969-1.578,6.205-1.845         c1.087-0.139,2.356-0.163,3.569,0.551c0.321,0.161,0.563,0.397,0.783,0.659c0.246,0.218,0.416,0.585,0.569,0.94         c0.246,0.751,0.092,1.669-0.285,2.201c-0.699,1.169-1.647,1.805-2.566,2.434c-0.942,0.605-1.883,1.107-2.918,1.559         l-0.296-1.865c10.561,1.261,20.232,6.537,27.455,14.152c7.312,7.635,11.468,17.685,13.624,27.773         c1.16,5.067,1.607,10.244,1.903,15.399c0.099,5.165,0.003,10.326-0.47,15.453c-0.855,10.262-2.845,20.376-5.405,30.296         c1.94-10.066,3.395-20.211,3.99-30.394c0.577-10.173,0.122-20.424-2.047-30.308c-1.122-4.923-2.669-9.753-4.852-14.282         c-2.205-4.511-4.991-8.732-8.386-12.404c-6.743-7.313-16.129-12.465-25.943-13.751l-3.593-0.471l3.297-1.395         c1.747-0.739,3.8-1.761,4.693-3.077c0.245-0.33,0.204-0.555,0.178-0.791c-0.075-0.206-0.332-0.602-0.637-0.738         c-0.574-0.383-1.547-0.502-2.508-0.382c-1.942,0.165-3.927,0.846-5.843,1.567c-1.92,0.742-3.819,1.616-5.64,2.572         l-3.61,1.895l2.912-2.857c1.282-1.258,2.715-2.801,2.951-4.461c0.089-0.805-0.397-1.489-1.221-1.863         c-0.779-0.364-1.693-0.494-2.592-0.23c-1.804,0.445-3.42,1.623-4.893,2.844C96.47,274.094,95.102,275.485,93.861,276.986z"/>
						</g>
					</g>
					<g>
						<g>
							<path style="fill:#FF9C3D;" d="M252.282,383.492c-6.758,3.997-14.902,3.876-15.777,3.846c-0.045,0-0.075,0-0.075,0         l-0.015,0.015c-0.015,0-0.045,0.015-0.06,0.03c-0.634,0.392-5.536,3.213-13.273,3.786h-0.045         c-0.875,0.075-1.795,0.105-2.745,0.105c-3.665,0-8.432-0.196-13.484-1.991c-0.015,0-0.03-0.015-0.045-0.015         c-8.009-2.836-16.697-9.684-22.7-26.079c-0.015-0.015-0.015-0.045-0.03-0.06c-0.06-0.151-0.105-0.302-0.166-0.453         c-2.851-7.919-5.566-17.919-7.964-28.176c-1.162-4.917-2.248-9.895-3.243-14.736c-0.422-2.021-0.83-4.012-1.206-5.973         c-0.015-0.06-0.015-0.121-0.03-0.181c-0.015-0.045-0.015-0.09-0.03-0.136c-3.364-17.089-5.46-31.102-5.415-32.173         c0.075-1.358,45.657-46.713,52.083-11.705c3.695,20.151,8.944,46.592,12.745,65.416c0.815,4.042,1.569,7.738,2.217,10.951         c0.875,4.314,1.584,7.738,2.021,9.94c0.03,0.121,0.045,0.241,0.076,0.347c0.06,0.272,0.105,0.513,0.151,0.739         c0.015,0.105,0.045,0.211,0.06,0.302c0.045,0.181,0.075,0.332,0.106,0.483c0.03,0.121,0.045,0.211,0.06,0.302         c0.075,0.377,0.121,0.573,0.121,0.573c3.243,0.784,6.094,1.885,8.537,3.182c0.06,0.03,0.121,0.075,0.181,0.106         c0.105,0.06,0.196,0.105,0.302,0.166C256.385,368.589,258.572,379.781,252.282,383.492z"/>
						</g>
						<g style="opacity:0.48;">
							<g>
								<path style="fill:#AE312F;" d="M233.744,358.145c-2.195-0.063-4.296,0.055-6.37,0.306c-2.063,0.283-4.103,0.625-6.072,1.246          c-1.97,0.589-3.928,1.274-5.813,2.179c-1.923,0.845-3.74,1.913-5.715,2.915c1.346-1.731,2.963-3.287,4.834-4.49          c1.823-1.293,3.922-2.149,6.054-2.825c2.154-0.628,4.41-0.902,6.64-0.821C229.524,356.733,231.764,357.146,233.744,358.145z          "/>
							</g>
						</g>
						<g style="opacity:0.48;">
							<g>
								<path style="fill:#AE312F;" d="M236.43,388.478c4.463-0.109,8.907-0.738,13.102-2.641c2.07-0.97,4.06-2.396,5.36-4.561          c1.26-2.23,1.227-4.835,0.688-7.072c-1.18-4.541-4.151-8.237-7.647-11.018c-3.539-2.823-7.753-4.605-12.135-5.44          l0.716,0.696c-2.232-10.248-4.577-20.554-6.738-30.844l-6.83-30.851l5.678,31.084c1.95,10.367,4.061,20.648,6.093,31.025          l0.111,0.566l0.606,0.131c4.076,0.883,8.041,2.601,11.253,5.206c3.215,2.576,5.883,6.039,6.853,9.932          c0.452,1.916,0.398,3.969-0.512,5.526c-0.942,1.551-2.592,2.814-4.429,3.639c-3.708,1.668-8.022,2.28-12.169,2.341          l-0.477,0.007c-10.985,3.819-13.791,3.957-13.791,3.957c-4.688,0.705-9.486,0.329-13.864-1.411          c-4.389-1.712-8.295-4.588-11.769-7.885c-1.735-1.677-3.425-3.378-4.807-5.285c-1.412-1.909-2.621-3.989-3.762-6.107          c-4.449-8.569-7.407-17.936-9.976-27.318c-1.288-4.702-2.383-9.458-3.417-14.229l-1.593-7.15          c-0.52-2.386-0.92-4.795-1.402-7.191l0-0.001l-0.006-0.024l-0.033-0.134l0.006,0.023l-1.13-6.386l0.831,6.434l0.006,0.024          l0.027,0.136l-0.006-0.024c0.671,4.846,1.566,9.654,2.483,14.461c0.87,4.816,1.781,9.629,3.002,14.377          c2.388,9.495,5.142,18.966,9.522,27.87c1.115,2.214,2.366,4.375,3.845,6.409c1.478,2.064,3.238,3.859,5.001,5.585          c3.573,3.437,7.659,6.516,12.391,8.404c4.717,1.921,9.989,2.362,14.959,1.642          C222.471,392.385,231.562,391.275,236.43,388.478z"/>
							</g>
						</g>
						<g>
							<path style="fill:#AE312F;" d="M228.526,388.432c0.256-2.905-0.152-5.379-1.215-7.617c-0.544-1.117-1.262-2.159-2.064-3.209         l-1.292-1.56c-0.465-0.51-0.949-1.014-1.393-1.625c0.712,0.171,1.391,0.439,2.077,0.718c0.625,0.367,1.296,0.707,1.872,1.177         c1.187,0.91,2.17,2.116,2.884,3.496c0.64,1.415,0.975,2.992,0.819,4.525C230.083,385.857,229.537,387.34,228.526,388.432z"/>
						</g>
						<g>
							<path style="fill:#AE312F;" d="M243.444,384.969c0.037-1.377,0.017-2.629-0.057-3.864c-0.101-1.228-0.194-2.428-0.454-3.605         c-0.229-1.177-0.499-2.357-0.879-3.538c-0.345-1.2-0.81-2.374-1.177-3.722c2.297,1.53,3.787,4.096,4.329,6.836         c0.252,1.377,0.254,2.803-0.026,4.166C244.909,382.597,244.381,383.93,243.444,384.969z"/>
						</g>
					</g>
					<g style="opacity:0.48;">
						<g>
							<path style="fill:#AE312F;" d="M253.245,258.174c1.415-0.612,2.922-0.995,4.509-1.149c0.793-0.076,1.631-0.051,2.479,0.228         c0.842,0.263,1.727,0.918,2.068,1.943c0.182,0.501,0.168,1.171-0.067,1.67c-0.211,0.538-0.565,0.907-0.905,1.22         c-0.699,0.627-1.445,1.017-2.199,1.338c-1.518,0.642-3.015,1.057-4.615,1.352l-0.018-2.205c1.35,0.2,2.59,0.5,3.88,1.026         c0.639,0.278,1.279,0.595,1.885,1.123c0.592,0.508,1.199,1.326,1.281,2.326c0.117,0.946-0.315,2.028-1.086,2.614         c-0.739,0.592-1.513,0.761-2.213,0.882c-1.427,0.202-2.708,0.121-4.048-0.119l1.08-1.151c0.18,1.185,0.169,2.225,0.098,3.319         c-0.091,1.077-0.271,2.14-0.548,3.173c-0.591,2.052-1.474,4.006-2.71,5.685c0.749-1.944,1.328-3.909,1.525-5.915         c0.135-0.994,0.155-1.996,0.127-2.983c-0.022-0.97-0.131-2.008-0.345-2.853l-0.325-1.282l1.405,0.13         c1.107,0.102,2.336,0.121,3.351-0.103c0.508-0.101,0.965-0.3,1.193-0.501c0.22-0.18,0.273-0.398,0.249-0.676         c0.016-0.475-0.821-1.132-1.825-1.558c-0.994-0.435-2.174-0.748-3.269-0.929l-6.782-1.123l6.764-1.082         c1.4-0.224,2.89-0.511,4.206-0.999c1.319-0.439,2.631-1.234,2.386-1.948c-0.123-0.996-1.589-1.564-3.025-1.679         C256.287,257.812,254.762,257.962,253.245,258.174z"/>
						</g>
					</g>
					<g>
						<path style="fill:#AE312F;" d="M233.021,345.965c-0.015,0-0.045,0-0.06-0.015c-2.941-0.498-5.807-1.418-8.778-1.554        c-5.973-0.286-12.595,3.349-18.417,0.92c-1.222-0.513-2.293-1.538-2.504-2.851c-0.618-4.057,5.898-6.622,8.839-7.481        c6.018-1.78,12.534-1.734,18.567,0c0.045,0.015,0.091,0.015,0.136,0.03C231.618,339.056,232.372,342.752,233.021,345.965z"/>
					</g>
					<g>
						<path style="fill:#AE312F;" d="M201.014,322.284c-1.78,1.689-4.254,2.383-6.591,3.137c-4.254,1.388-8.371,3.228-12.233,5.46        c-2.097,1.207-4.133,2.534-6.29,3.62c-0.121,0.06-0.242,0.121-0.377,0.181c-1.237-5.415-2.247-10.513-3.032-14.827        c0.06-0.03,0.121-0.06,0.166-0.09c2.248-1.207,4.555-2.278,6.938-3.152c5.837-2.172,12.157-3.228,18.341-2.444        c1.403,0.181,2.881,0.513,3.861,1.523C203.503,317.472,202.779,320.579,201.014,322.284z"/>
					</g>
					<g>
						<path style="fill:#AE312F;" d="M114.632,231.995c-1.312,1.252-3.349,1.493-5.098,1.041c-1.75-0.468-3.288-1.523-4.721-2.64        c-6.124-4.721-11.961-11.011-15.702-18.055c6.486-3.077,12.353-5.49,17.09-7.27c0.271,0.528,0.528,1.056,0.769,1.584        c2.459,5.264,4.932,10.528,7.406,15.792C115.823,225.539,117.106,229.642,114.632,231.995z"/>
					</g>
					<g>
						<path style="fill:#AE312F;" d="M79.729,244.816c-0.06-0.015-0.136-0.015-0.196-0.03c-8.748-1.614-15.837-7.783-22.881-13.258        c5.958-4.389,12.036-8.25,17.934-11.629c4.344,3.65,8.507,7.979,11.448,12.776C89.85,238.888,89.066,246.46,79.729,244.816z"/>
					</g>
					<g>
						<path style="fill:#AE312F;" d="M48.28,258.723c-1.403,0.769-3.077,0.86-4.676,0.799c-4.54-0.181-8.975-1.493-13.198-3.198        c3.635-4.555,7.587-8.779,11.735-12.7c1.976,1.508,3.801,3.168,5.415,4.555c1.207,1.041,2.444,2.127,3.092,3.575        C51.765,254.228,50.664,257.456,48.28,258.723z"/>
					</g>
					<g>
						<path style="fill:#AE312F;" d="M39.14,292.132c-8.929,0.437-17.813-0.694-26.501-2.745c1.614-5.309,3.68-10.332,6.109-15.098        c4.254,0.996,8.462,2.202,12.64,3.454c1.388,0.407,2.881,0.769,4.389,1.146c3.439,0.89,7.663,2.096,10.272,4.646        C51.538,288.889,43.544,291.921,39.14,292.132z"/>
					</g>
					<g>
						<path style="fill:#AE312F;" d="M28.717,315.089c-0.905,0.92-2.112,1.463-3.318,1.931c-5.34,2.097-11.011,3.168-16.743,3.605        c-0.181-4.57-0.03-8.99,0.392-13.243c5.641-0.015,11.388,0.407,16.652,1.614c1.599,0.362,3.409,1.011,3.982,2.564        C30.12,312.766,29.607,314.169,28.717,315.089z"/>
					</g>
					<g>
						<path style="fill:#AE312F;" d="M38.718,347.156c-5.852,5.37-13.123,9.141-20.845,10.935        c-2.609-4.857-4.766-10.362-6.335-16.592v-0.015c7.481-2.096,14.797-5.143,22.64-5.46c3.062-0.121,6.788,0.633,7.828,3.529        C43.001,342.314,40.875,345.18,38.718,347.156z"/>
					</g>
					<g>
						<path style="fill:#AE312F;" d="M50.121,374.246c-1.825,3.273-4.012,6.441-6.637,9.11c-4.133-2.187-8.1-4.827-11.78-7.994        c0.588-0.483,1.177-0.965,1.765-1.463c2.564-2.172,4.978-4.555,7.406-6.923c0.89-0.875,1.78-1.749,2.685-2.609        c1.011-0.965,2.051-1.961,3.379-2.368c1.523-0.468,3.273-0.06,4.419,1.041C54.465,366.025,51.78,371.274,50.121,374.246z"/>
					</g>
					<g>
						<path style="fill:#AE312F;" d="M89.533,378.68c-1.041,4.917-2.112,9.925-3.801,14.646c-6.259-0.166-13.213-0.8-20.317-2.278        c0.543-0.98,1.116-1.931,1.614-2.821c2.655-4.827,5.309-9.638,7.979-14.465c2.081-3.786,4.208-7.617,7.27-10.649        c1.056-1.041,2.338-2.021,3.816-2.036c2.745-0.03,4.344,3.152,4.646,5.883C91.162,370.882,90.348,374.819,89.533,378.68z"/>
					</g>
				</g>
				<polygon style="fill:#FF5555;" points="215.613,227.856 225.945,236.605 236.107,234.413 240.877,215.263 230.714,210.344       227.401,209.62     "/>
				<path style="fill:#FFFFFF;" d="M155.113,215.263c0,0,60.773-1.822,72.288-5.643l-9.861,24.615      C217.54,234.235,170.717,225.287,155.113,215.263z"/>
				<path style="fill:#FFFFFF;" d="M227.401,209.62l10.703,17.946c0,0,11.302-12.125,19.957-26.793      C258.062,200.773,250.363,203.585,227.401,209.62z"/>
				<polygon style="fill:#FF5555;" points="228.245,231.524 219.862,277.561 239.661,292.313 249.154,271.192 233.744,228.699           "/>
			</g>
			<path style="fill:#AE312F;" d="M312.831,276.509c-0.022,0-0.045-0.002-0.068-0.005c-0.273-0.037-0.465-0.289-0.428-0.562     l19.412-141.875c0.038-0.273,0.288-0.462,0.563-0.428c0.273,0.038,0.465,0.29,0.428,0.563l-19.412,141.875     C313.292,276.327,313.077,276.509,312.831,276.509z"/>
		</g>
		<path style="fill:#6CE0C0;" d="M276.441,364.213c0.325-0.834,0.621-1.68,0.962-2.507c0.062-0.151,0.271-0.319,0.431-0.34    c1.028-0.133,2.065-0.208,3.092-0.349c0.299-0.041,0.468-0.009,0.641,0.247c0.611,0.904,1.247,1.791,1.874,2.683    c0.102,0.145,0.209,0.286,0.39,0.534c1.404-0.811,2.793-1.613,4.216-2.435c-0.538-1.21-1.008-2.318-1.524-3.405    c-0.182-0.383-0.185-0.614,0.131-0.958c0.645-0.704,1.191-1.497,1.8-2.235c0.093-0.113,0.313-0.202,0.457-0.181    c1.095,0.162,2.192,0.322,3.274,0.549c0.519,0.109,0.748-0.055,0.872-0.527c0.048-0.181,0.161-0.345,0.244-0.517    c0.227-0.816,0.454-1.633,0.681-2.449c-0.003-0.096-0.021-0.194-0.005-0.286c0.163-0.97,0.194-0.797-0.661-1.135    c-1.042-0.41-2.091-0.803-2.999-1.151c-0.18-1.389-0.348-2.688-0.522-4.029c1.094-0.77,2.238-1.574,3.389-2.383    c-0.577-1.554-1.414-2.913-2.426-4.203c-1.189,0.531-2.35,1.046-3.507,1.569c-0.208,0.094-0.342,0.11-0.55-0.067    c-0.814-0.694-1.646-1.369-2.505-2.006c-0.248-0.183-0.282-0.33-0.234-0.598c0.197-1.106,0.368-2.217,0.56-3.324    c0.048-0.275,0.003-0.436-0.285-0.567c-1.292-0.586-2.654-0.877-4.051-1.053c-0.276-0.035-0.359,0.113-0.441,0.335    c-0.379,1.024-0.782,2.038-1.154,3.064c-0.107,0.296-0.232,0.407-0.577,0.431c-1.194,0.082-2.382,0.234-3.669,0.369    c-0.7-0.995-1.493-2.124-2.287-3.252c-1.585,0.582-2.998,1.361-4.275,2.41c0.586,1.295,1.156,2.554,1.672,3.695    c-0.692,0.94-1.357,1.798-1.964,2.695c-0.23,0.339-0.438,0.437-0.834,0.358c-1.054-0.209-2.117-0.378-3.178-0.552    c-0.21-0.034-0.468-0.137-0.558,0.199c-0.368,1.365-0.738,2.73-1.106,4.096c-0.078,0.29,0.046,0.434,0.326,0.536    c1.041,0.379,2.065,0.803,3.112,1.164c0.404,0.139,0.471,0.372,0.504,0.751c0.083,0.936,0.185,1.874,0.371,2.794    c0.08,0.396,0.01,0.564-0.31,0.776c-1.029,0.682-2.032,1.404-3.024,2.096c0.221,0.977,1.656,3.449,2.468,4.273    c1.142-0.522,2.302-1.038,3.447-1.586c0.286-0.137,0.437-0.077,0.67,0.113c0.755,0.613,1.553,1.172,2.314,1.778    c0.128,0.102,0.24,0.342,0.217,0.496c-0.149,0.982-0.333,1.959-0.517,2.935c-0.102,0.546-0.146,0.766,0.025,0.928l4.345,1.208    C276.077,365.137,276.178,364.888,276.441,364.213z M276.051,356.163c-3.884-1.08-6.157-5.104-5.077-8.989l0,0    c1.08-3.884,5.104-6.157,8.989-5.077l0,0c3.884,1.08,6.157,5.104,5.077,8.988l0,0C283.959,354.97,279.935,357.243,276.051,356.163    L276.051,356.163z"/>
	</g>
	<g>
		<path style="fill:#FFFFFF;" d="M321.36,311.837c0.373,1.155-0.024,2.033-1.053,2.456c-0.844,0.346-1.665,0.739-2.484,1.134    c-0.016,0.217-0.028,0.436-0.041,0.655c-0.032,0.538-0.063,1.075-0.13,1.606c0.696,0.425,1.344,0.84,2.023,1.274l1.758,1.118    l-2.93,6.132l-2.253-0.836c-0.659-0.255-1.318-0.508-1.973-0.773c-0.338,0.298-0.668,0.578-0.996,0.856    c-0.26,0.221-0.52,0.441-0.776,0.664c0.086,0.391,0.181,0.782,0.276,1.175l0.238,1.01c0.181,0.795,0.35,1.548-0.296,2.225    l-0.198,0.206l-4.656,1.566l-0.288-0.047c-0.838-0.145-1.125-0.809-1.378-1.396c-0.335-0.782-0.663-1.541-1.009-2.291    c-0.305-0.02-0.612-0.038-0.92-0.054c-0.408-0.02-0.816-0.043-1.222-0.075c-0.4,0.685-0.81,1.362-1.217,2.036l-0.909,1.511    l-0.804-0.167c-1.213-0.251-3.92-1.539-4.836-2.408l-0.557-0.529l0.616-1.638c0.269-0.723,0.541-1.453,0.829-2.176    c-0.602-0.624-1.134-1.261-1.592-1.826c-0.512,0.131-1.025,0.251-1.537,0.368c-0.434,0.102-0.868,0.201-1.299,0.312    c-0.891,0.206-1.645-0.178-1.926-1.008l-1.335-3.911c-0.075-0.217-0.38-1.328,0.91-1.873l0.338-0.156    c0.77-0.359,1.54-0.716,2.32-1.053c0.005-0.707,0.034-1.392,0.064-2.099l0.012-0.3l-3.501-2.187l0.245-0.84    c0.474-1.631,1.215-3.142,2.263-4.617l0.522-0.733l3.772,1.461l0.246-0.211c0.584-0.503,1.148-0.988,1.723-1.453    c-0.122-0.496-0.236-0.985-0.35-1.473l-0.312-1.318c-0.282-1.136,0.442-1.646,0.766-1.813c1.518-0.776,2.829-1.24,4.124-1.461    c0.792-0.132,1.447,0.219,1.783,0.974l0.608,1.34c0.204,0.447,0.408,0.894,0.609,1.342c0.791,0.044,1.58,0.113,2.368,0.199    l2.205-3.605l0.87,0.286c1.76,0.578,3.239,1.313,4.521,2.242l0.711,0.517l-1.471,3.945l1.683,1.929l0.139-0.034    c0.701-0.165,1.452-0.341,2.205-0.508l0.271-0.064c1.328-0.33,1.755,0.345,2.106,1.129L321.36,311.837z M302.718,326.099    c0.073,0,0.148,0.005,0.226,0.011c0.482,0.045,0.968,0.07,1.454,0.097c0.445,0.023,0.89,0.047,1.334,0.084    c0.586,0.05,1.157,0.438,1.394,0.944c0.389,0.827,0.752,1.665,1.113,2.506l2.539-0.854c-0.005-0.023-0.01-0.045-0.016-0.068    l-0.23-0.978c-0.129-0.531-0.255-1.06-0.366-1.595c-0.115-0.567,0.099-1.227,0.522-1.604c0.36-0.321,0.73-0.635,1.099-0.947    c0.392-0.332,0.784-0.664,1.165-1.01c0.564-0.511,1.187-0.635,1.857-0.361c0.753,0.307,1.514,0.599,2.274,0.892l0.244,0.095    l1.136-2.379l-0.034-0.023c-0.73-0.468-1.424-0.91-2.13-1.335c-0.775-0.468-1.09-1.121-0.965-2.002    c0.078-0.538,0.107-1.08,0.139-1.624c0.021-0.366,0.043-0.734,0.076-1.1c0.053-0.551,0.427-1.096,0.912-1.331    c0.947-0.459,1.785-0.863,2.625-1.22c-0.014-0.09-0.021-0.167-0.027-0.235l-0.689-2.092c-0.038-0.052-0.078-0.113-0.116-0.181    c-0.708,0.158-1.411,0.323-2.068,0.479l-1.499,0.352l-3.505-4.017l1.327-3.558c-0.694-0.43-1.448-0.799-2.303-1.127l-1.446,2.369    c-0.462,0.759-1.112,0.853-1.598,0.795c-0.995-0.116-1.995-0.207-2.996-0.253c-0.715-0.036-1.223-0.387-1.515-1.045l-1.14-2.521    c-0.749,0.174-1.531,0.456-2.4,0.866l0.194,0.818c0.137,0.586,0.273,1.171,0.42,1.755c0.19,0.746-0.021,1.369-0.629,1.85    c-0.642,0.508-1.262,1.042-1.907,1.598l-1.305,1.116l-3.355-1.301c-0.478,0.766-0.862,1.545-1.161,2.354l3.081,1.925l0.021,0.696    l-0.04,0.985c-0.033,0.757-0.064,1.487-0.062,2.216c0,0.874-0.395,1.484-1.176,1.814c-0.765,0.323-1.518,0.671-2.272,1.021    l0.872,2.555c0.243-0.059,0.487-0.115,0.732-0.172c0.583-0.136,1.167-0.271,1.745-0.427c1.179-0.307,1.8,0.468,2.006,0.723    c0.547,0.682,1.108,1.353,1.723,1.968c0.603,0.596,0.744,1.267,0.428,2.047c-0.32,0.793-0.618,1.593-0.913,2.384l-0.038,0.099    c0.641,0.389,1.602,0.868,2.36,1.161l0.021-0.034c0.464-0.768,0.932-1.543,1.383-2.325    C301.567,326.389,302.064,326.099,302.718,326.099z M305.03,328.219c0.001,0.002,0.002,0.002,0.002,0.005    C305.032,328.221,305.031,328.221,305.03,328.219z M304.996,321.463c-0.89,0-1.776-0.206-2.599-0.617    c-1.424-0.707-2.487-1.936-2.994-3.454c-1.037-3.107,0.618-6.475,3.689-7.508c1.475-0.497,3.06-0.389,4.461,0.307    c1.423,0.709,2.487,1.936,2.994,3.454c1.037,3.109-0.619,6.477-3.691,7.51C306.249,321.362,305.622,321.463,304.996,321.463z     M304.952,311.891c-0.376,0-0.755,0.061-1.122,0.185c-1.866,0.628-2.867,2.684-2.233,4.584c0.311,0.931,0.961,1.683,1.831,2.117    c0.846,0.418,1.804,0.49,2.691,0.188h0.001c1.865-0.628,2.867-2.686,2.233-4.586c-0.311-0.931-0.961-1.683-1.83-2.115    C306.026,312.017,305.49,311.891,304.952,311.891z"/>
	</g>
</g>















</svg>
