<?xml version="1.0" encoding="UTF-8"?>
<!-- Generator: Adobe Illustrator 25.2.3, SVG Export Plug-In . SVG Version: 6.00 Build 0)  -->
<svg xmlns="http://www.w3.org/2000/svg" xmlns:xlink="http://www.w3.org/1999/xlink" version="1.1" id="Capa_1" x="0px" y="0px" viewBox="0 0 511.632 511.632" style="enable-background:new 0 0 511.632 511.632;" xml:space="preserve" width="512" height="512">
<g>
	<g>
		<g>
			<path style="fill:#9BEFE6;" d="M306.883,28.868c-25.321,7.311-46.612,25.298-63.756,45.842     c-16.698,20.01-31.103,45.743-53.981,59.453c-21.529,12.902-47.559,13.618-70.119,23.886     c-21.552,9.81-38.407,26.427-48.881,47.705c-20.577,41.803-18.694,97.032,3.598,137.74     c33.397,60.985,106.587,85.108,172.551,83.522c61.21-1.472,128.084-24.014,167.73-72.888     c61.868-76.269,71.086-194.308,7.448-272.901C395.001,48.532,351.423,16.008,306.883,28.868z"/>
		</g>
		<g>
			<polygon style="fill:#FF9C3D;" points="144.458,50.057 159.136,35.891 161.854,56.477 182.708,63.353 160.648,71.827      161.392,95.408 146.793,72.963 121.639,80.642 135.995,62.882 121.085,44.003    "/>
		</g>
		<g>
			<g>
				<g>
					<g>
						<path style="fill:#FF9C3D;" d="M230.484,149.4c0,0-10.8,46.014-34.215,46.512c-14.125,0.297-38.139-13.235-58.949-26.866        c-3.734-2.44-7.38-4.911-10.84-7.288c-9.207-6.303-17.139-12.1-22.377-15.828c-18.151-12.898-5.914-23.086-5.914-23.086        c1.136-11.223,12.233-9.763,12.233-9.763c6.064-5.078,13.08-4.061,30.207,1.477c2.739,0.882,6.612,2.193,11.244,3.746        l0.022-0.002c5.464,1.854,11.943,4.06,18.701,6.373l0.022-0.002c23.247,7.956,49.736,17.17,49.736,17.17L230.484,149.4z"/>
					</g>
					<g style="opacity:0.2;">
						<path style="fill:#AE312F;" d="M230.484,149.4c0,0-10.8,46.014-34.215,46.512c-14.125,0.297-38.139-13.235-58.949-26.866        c-3.734-2.44-7.38-4.911-10.84-7.288c-9.207-6.303-17.139-12.1-22.377-15.828c-18.151-12.898-5.914-23.086-5.914-23.086        c1.136-11.223,12.233-9.763,12.233-9.763c6.064-5.078,13.08-4.061,30.207,1.477c2.739,0.882,6.612,2.193,11.244,3.746        l0.022-0.002c5.464,1.854,11.943,4.06,18.701,6.373l0.022-0.002c23.247,7.956,49.736,17.17,49.736,17.17L230.484,149.4z"/>
					</g>
				</g>
				<g>
					<path style="fill:#FFC792;" d="M118.385,113.723c-2.471,1.378-1.152,4.872,0.863,5.98c1.689,0.929,5.044,0.648,5.423-1.683       c0.607-3.733-2.822-6.032-6.146-4.371C118.478,113.672,118.431,113.697,118.385,113.723z"/>
				</g>
				<g>
					<path style="fill:#FFC792;" d="M103.8,118.008c-0.828,0.543-1.509,1.468-1.39,2.451c0.076,0.624,0.467,1.178,0.966,1.56       c0.499,0.382,1.098,0.61,1.702,0.783c0.73,0.209,1.481,0.345,2.238,0.405c0.438,0.035,0.888,0.043,1.306-0.093       c0.924-0.302,1.509-1.294,1.529-2.266c0.02-0.972-0.438-1.902-1.062-2.648C107.635,116.462,105.54,116.869,103.8,118.008z"/>
				</g>
				<g>
					<path style="fill:#FFC792;" d="M103.615,129.187c-2.076-0.863-4.945,0.451-5.434,2.701c-0.143,0.657-0.027,1.388,0.401,1.906       c0.424,0.513,1.093,0.76,1.749,0.873c1.049,0.18,2.173,0.06,3.089-0.481c1.531-0.904,2.241-3.124,0.903-4.513       C104.107,129.45,103.869,129.293,103.615,129.187z"/>
				</g>
				<g>
					<path style="fill:#FFC792;" d="M118.793,124.007c-4.521,1.227-8.821,4.149-8.704,9.071c0.041,1.733,0.873,3.335,1.684,4.867       c0.378,0.713,0.766,1.44,1.346,2.001c1.331,1.286,3.438,1.444,5.215,0.929c0.81-0.235,1.596-0.599,2.221-1.166       c1.115-1.011,1.561-2.515,2.397-3.756c0.698-1.038,1.817-1.547,2.832-2.207c2.028-1.317,4.194-3.774,4.366-6.297       c0.218-3.205-3.594-4.077-6.128-4.122C122.42,123.3,120.589,123.52,118.793,124.007z"/>
				</g>
			</g>
			<g>
				<path style="fill:#AE312F;" d="M147.038,154.831c0.045,1.201-0.291,2.371-0.745,3.485c-1.75,4.428-4.972,8.167-8.973,10.73      c-3.734-2.44-7.38-4.911-10.84-7.288c1.501-0.654,2.924-1.435,4.261-2.408c3.348-2.39,6.101-5.639,9.797-7.414      c1.582-0.751,3.55-1.181,4.982-0.199C146.498,152.404,146.993,153.63,147.038,154.831z"/>
			</g>
			<g>
				<path style="fill:#AE312F;" d="M170.598,124.676c-0.244,2.166-0.916,4.282-1.777,6.283c-0.918,2.117-2.065,4.167-3.747,5.753      c-1.684,1.564-3.951,2.625-6.245,2.438c-1.012-0.084-2.025-0.413-2.842-1.028c-1.496-1.199-2.03-3.314-1.986-5.238      c0.063-1.948,0.556-3.824,0.664-5.777c0.16-3.297-0.979-6.159-2.767-8.804C157.361,120.157,163.84,122.362,170.598,124.676z"/>
			</g>
		</g>
		<g>
			<g>
				<g>
					<path style="fill:#FF9C3D;" d="M175.449,232.612c-1.129,0-37.262-8.281-65.868,17.314       C80.976,275.52,93.02,315.794,93.02,315.794s-44.037,33.122-46.296,46.672s29.864-10.501,40.721-16.933       c13.693-8.112,20.254-9.414,19.501-20.33c0,0,37.639,29.734,73.019,4.517C215.346,304.502,175.449,232.612,175.449,232.612z"/>
				</g>
				<g style="opacity:0.2;">
					<path style="fill:#AE312F;" d="M175.449,232.612c-1.129,0-37.262-8.281-65.868,17.314       C80.976,275.52,93.02,315.794,93.02,315.794s-44.037,33.122-46.296,46.672s29.864-10.501,40.721-16.933       c13.693-8.112,20.254-9.414,19.501-20.33c0,0,37.639,29.734,73.019,4.517C215.346,304.502,175.449,232.612,175.449,232.612z"/>
				</g>
			</g>
			<g>
				<path style="fill:#AE312F;" d="M60.296,362.52c-0.709-1.512-0.815-3.254-0.582-4.914c0.219-1.679,0.86-3.288,1.718-4.748      c0.942-1.405,2.054-2.698,3.409-3.669c1.321-1.005,2.825-1.73,4.416-2.146c-1.068,1.277-2.157,2.362-3.13,3.527      c-0.982,1.151-1.856,2.333-2.641,3.562C61.966,356.626,60.88,359.311,60.296,362.52z"/>
			</g>
		</g>
		<g>
			<g>
				<g>
					<path style="fill:#FF9C3D;" d="M244.354,486.595c-1.357,2.911-3.109,5.539-5.059,7.574       c-8.705,9.086-20.547,14.979-32.968,16.844c-14.442,2.162-29.379-1.342-40.514-10.626c-1.682-1.385-3.264-2.911-4.762-4.579       c-4.211-4.691-7.73-9.708-10.556-14.993c-15.926-29.803-9.539-67.9,21.48-101.448c4.282-4.635,9.044-9.185,14.272-13.608       c3.307-2.798,6.783-5.539,10.457-8.21c0.254-0.198,0.523-0.396,0.777-0.579c30.764-19.43,17.41,8.083,17.41,8.083       s-2.176,1.314-5.596,3.731c-0.155,0.113-0.325,0.226-0.48,0.339c-10.203,7.292-30.425,23.726-38.451,44.513       c-0.028,0.071-0.057,0.141-0.085,0.212c-3.547,9.27-6.288,20.222-6.486,30.99c-0.198,10.047,1.837,19.925,7.476,28.05       c4.155,5.978,11.135,10.994,18.667,13.199h0.014c5.384,1.597,11.051,1.738,16.152-0.24c0.664-0.254,1.314-0.551,1.95-0.876       c3.208-1.625,6.006-4.056,8.069-6.995c2.19-3.123,3.321-6.825,5.031-10.231c0.481-0.947,0.989-1.865,1.597-2.756       c4.437-6.571,14.075-8.083,19.967-2.134C248.693,468.903,247.958,478.781,244.354,486.595z"/>
				</g>
				<g style="opacity:0.2;">
					<path style="fill:#AE312F;" d="M244.354,486.595c-1.357,2.911-3.109,5.539-5.059,7.574       c-8.705,9.086-20.547,14.979-32.968,16.844c-14.442,2.162-29.379-1.342-40.514-10.626c-1.682-1.385-3.264-2.911-4.762-4.579       c-4.211-4.691-7.73-9.708-10.556-14.993c-15.926-29.803-9.539-67.9,21.48-101.448c4.282-4.635,9.044-9.185,14.272-13.608       c3.307-2.798,6.783-5.539,10.457-8.21c0.254-0.198,0.523-0.396,0.777-0.579c30.764-19.43,17.41,8.083,17.41,8.083       s-2.176,1.314-5.596,3.731c-0.155,0.113-0.325,0.226-0.48,0.339c-10.203,7.292-30.425,23.726-38.451,44.513       c-0.028,0.071-0.057,0.141-0.085,0.212c-3.547,9.27-6.288,20.222-6.486,30.99c-0.198,10.047,1.837,19.925,7.476,28.05       c4.155,5.978,11.135,10.994,18.667,13.199h0.014c5.384,1.597,11.051,1.738,16.152-0.24c0.664-0.254,1.314-0.551,1.95-0.876       c3.208-1.625,6.006-4.056,8.069-6.995c2.19-3.123,3.321-6.825,5.031-10.231c0.481-0.947,0.989-1.865,1.597-2.756       c4.437-6.571,14.075-8.083,19.967-2.134C248.693,468.903,247.958,478.781,244.354,486.595z"/>
				</g>
			</g>
			<g>
				<path style="fill:#AE312F;" d="M244.349,486.59c-6.426-0.525-4.87-11.417-4.87-11.417c-11.99,4.851-16.835-1.88-18.333-7.434      c0.481-0.947,0.989-1.865,1.597-2.756c4.437-6.571,14.075-8.083,19.967-2.134C248.687,468.898,247.953,478.775,244.349,486.59z"/>
			</g>
			<g>
				<path style="fill:#AE312F;" d="M201.334,495.125c-5.596,0.169-9.27-4.748-11.39-9.044c5.384,1.597,11.051,1.738,16.152-0.24      c0.664-0.254,1.314-0.551,1.95-0.876C208.258,489.331,207.34,494.942,201.334,495.125z"/>
			</g>
			<g>
				<path style="fill:#AE312F;" d="M165.808,500.382c-1.682-1.385-3.264-2.911-4.762-4.578c-4.211-4.692-7.73-9.708-10.556-14.993      c4.451-0.382,14.541-0.382,17.311,6.67C169.92,492.893,167.857,497.513,165.808,500.382z"/>
			</g>
			<g>
				<path style="fill:#AE312F;" d="M170.274,413.843c-3.547,9.27-6.288,20.222-6.486,30.99c-4.268-3.25-9.708-9.312-9.157-18.879      C155.224,415.482,164.367,413.814,170.274,413.843z"/>
			</g>
			<g>
				<path style="fill:#AE312F;" d="M187.556,378.345c-4.141,3.137-10.627,2.346-15.587,1.017c4.282-4.635,9.044-9.185,14.272-13.608      C189.238,369.626,191.951,375.01,187.556,378.345z"/>
			</g>
		</g>
		<g>
			<path style="fill:#FF9C3D;" d="M418.938,210.002c-3.373-42.238-21.242-83.386-50.84-113.697     c1.956-14.48-0.827-29.562-7.823-42.39c-4.855-8.903-11.592-16.613-18.272-24.243c-7.653-8.742-15.307-17.483-22.96-26.225     c-1.585-1.81-3.645-3.797-6.008-3.345c-1.557,0.298-2.706,1.598-3.64,2.879c-4.76,6.524-7.248,14.672-6.943,22.742     c-18.75,0.243-37.466,3.022-55.478,8.237c-2.794,0.809-5.65,1.686-8.55,1.47c-6.636-0.493-11.373-6.301-16.433-10.621     c-3.251-2.775-7.692-4.998-12.063-4.792c-1.813,0.085-3.71,0.731-5.275,1.65c-1.308,0.768-1.821,1.972-2.005,3.435     c-0.602,4.796,0.082,9.904,1.467,14.508c1.127,3.743,2.825,7.318,5.051,10.533c-16.658,12.244-25.281,33.923-23.41,54.511     c1.871,20.589,13.539,39.704,29.882,52.365c-45.149,37.931-73.393,95.286-75.935,154.198c-0.381,8.836,0.028,18.419,5.506,25.363     c8.91,11.294,26.044,10.193,39.463,15.376c11.045,4.266,19.681,12.984,29.639,19.388c9.959,6.405,23.229,10.394,33.414,4.355     c0.289,8.778,1.577,19.218,9.4,23.208c3.552,1.811,7.719,1.802,11.706,1.753c12.859-0.159,25.83-0.331,38.372-3.172     c30.123-6.822,55.02-28.532,73.124-53.555c26.32-36.378,40.785-81.468,39.059-126.336     C419.29,215.063,419.14,212.53,418.938,210.002z"/>
		</g>
		<g>
			<path style="fill:#AE312F;" d="M311.162,26.038c-4.93-0.517-8.495-0.326-8.683-0.328c-1.001-11.998,5.762-26.559,11.526-25.671     l0.013-0.004c1.428,2.434,2.982,5.038,3.006,12.376c-0.002,0.722,0.044,1.415,0.113,2.087     C318.114,24.469,315.855,26.538,311.162,26.038z"/>
		</g>
		<g>
			<path style="fill:#AE312F;" d="M213.395,47.368c-1.673,0.929-3.24,1.826-4.442,2.543c-4.108-5.926-7.174-16.764-6.705-23.266     c0.127-1.813,0.531-3.274,1.25-4.209c0,0,2.698,0.485,6.045,5.742c1.218,1.919,2.329,3.769,3.516,5.437     C215.871,37.558,218.84,44.313,213.395,47.368z"/>
		</g>
		<g style="opacity:0.48;">
			<path style="fill:#EA4949;" d="M291.04,69.378c-2.968,4.091-1.901,11.063,3.238,13.653c6.88,3.468,17.584,0.436,21.314-6.469     c3.149-5.829-1.675-14.324-6.782-14.99c-4.317-0.563-8.441,0.75-12.013,2.938C295.136,65.527,292.703,67.085,291.04,69.378z"/>
		</g>
		<g style="opacity:0.48;">
			<path style="fill:#EA4949;" d="M229.429,81.027c4.165,2.935,5.453,9.971,1.435,14.162c-5.381,5.612-16.533,6.263-22.349,0.886     c-4.91-4.54-3.138-14.286,1.486-16.623c3.909-1.975,8.253-2.087,12.363-1.178C224.274,78.698,227.095,79.383,229.429,81.027z"/>
		</g>
		<g>
			<path style="fill:#AE312F;" d="M277.573,27.534c-0.68,1.94-1.284,3.824-1.865,5.558c-1.15,3.385-2.108,6.849-2.949,10.331     c-0.643,2.61-2.218,5.421-4.913,6.381c-3.382,1.233-6.993-0.342-9.361-2.838c-2.96-3.094-3.944-7.341-4.192-11.512     c-0.07-1.133-0.097-2.325-0.048-3.458c0.407-0.11,0.888-0.221,1.291-0.32c7.703-1.881,13.664-2.958,21.34-4.042     C277.104,27.602,277.346,27.568,277.573,27.534z"/>
		</g>
		<g>
			<path style="fill:#AE312F;" d="M186.007,106.951c3.841,1.128,8.206,1.628,11.817,0.226c6.765-2.639-3.59-7.275-12.181-12.262     C185.643,94.915,185.156,101.769,186.007,106.951z"/>
		</g>
		<g>
			<path style="fill:#AE312F;" d="M198.507,116.723c-2.108,2.03-5.799,3.116-9.397,3.679c-0.276-0.812-0.543-1.642-0.801-2.489     c-0.554-1.857-1.046-3.791-1.449-5.812c-0.012-0.083-0.033-0.149-0.046-0.232C194.555,112.166,202.224,113.142,198.507,116.723z"/>
		</g>
		<g>
			<path style="fill:#AE312F;" d="M186.3,89.066c2.268,1.357,4.267,1.588,6.408,1.614c4.964,0.063,0.869-5.574-4.178-11.023     C188.53,79.656,186.463,86.436,186.3,89.066z"/>
		</g>
		<g>
			<path style="fill:#AE312F;" d="M295.97,25.869c-2.154,4.069-4.234,8.217-6.345,9.145c-5.247,2.333-8.672-2.089-6.962-8.096     c3.548-0.408,6.98-0.714,10.292-0.902c0.448-0.036,0.876-0.057,1.305-0.078C294.842,25.905,295.406,25.887,295.97,25.869z"/>
		</g>
		<g>
			<path style="fill:#AE312F;" d="M251.578,32.683c-1.148,2.688-2.378,5.006-3.865,5.857c-4.019,2.312-8.134-0.377-7.575-3.101     c3.059-0.231,4.326-0.905,6.576-1.505c0.977-0.28,1.986-0.538,3.01-0.794c0.281-0.06,0.582-0.135,0.865-0.211     C250.926,32.841,251.259,32.772,251.578,32.683z"/>
		</g>
		<g style="opacity:0.48;">
			<path style="fill:#AE312F;" d="M200.994,142.546c1.405,1.462,2.806,2.921,4.271,4.305c0.722,0.701,1.462,1.382,2.224,2.025     c0.758,0.631,1.571,1.254,2.386,1.619l0.238,0.107l0.055,0.284c0.161,0.829,0.376,1.692,0.694,2.461     c0.29,0.755,0.834,1.517,1.248,1.489c0.195-0.007,0.262-0.024,0.393-0.347c0.103-0.305,0.134-0.715,0.133-1.121     c-0.008-0.821-0.156-1.699-0.329-2.518l-0.524-2.476l1.596,1.946c0.587,0.716,1.242,1.424,1.92,2.066     c0.681,0.639,1.405,1.251,2.169,1.652c0.376,0.206,0.779,0.335,1.076,0.297c0.339-0.043,0.576-0.163,0.617-0.405     c0.139-0.599-0.312-1.597-0.772-2.32l-0.715-1.126l1.214,0.465c1.489,0.57,3.048,1.023,4.604,1.435     c1.562,0.408,3.153,0.696,4.779,0.793c-1.627,0.149-3.27-0.024-4.888-0.266c-1.621-0.262-3.203-0.662-4.787-1.145l0.499-0.661     c0.312,0.43,0.567,0.858,0.788,1.342c0.2,0.485,0.408,1.02,0.296,1.709c-0.066,0.337-0.281,0.709-0.583,0.907     c-0.147,0.113-0.299,0.195-0.449,0.238c-0.149,0.062-0.304,0.107-0.473,0.114c-0.671,0.082-1.23-0.131-1.708-0.36     c-0.973-0.47-1.751-1.12-2.484-1.798c-0.735-0.683-1.407-1.394-2.057-2.169l1.073-0.53c0.215,0.928,0.341,1.832,0.35,2.804     c-0.008,0.487-0.031,0.985-0.218,1.531c-0.064,0.141-0.123,0.28-0.202,0.417c-0.111,0.137-0.205,0.283-0.354,0.395     c-0.307,0.241-0.696,0.339-1.038,0.31c-0.714-0.044-1.217-0.526-1.521-0.937c-0.313-0.431-0.509-0.879-0.686-1.326     c-0.329-0.902-0.542-1.79-0.662-2.73l0.293,0.391c-1.005-0.531-1.764-1.222-2.52-1.924c-0.743-0.709-1.45-1.444-2.136-2.196     C203.466,145.763,202.175,144.197,200.994,142.546z"/>
		</g>
		<g>
			<path style="fill:#AE312F;" d="M358.795,51.33c-19.981,18.253-30.629,4.395-21.867-0.257c5.869-3.122,10.616-7.844,13.898-11.017     C354.12,43.31,356.812,47.194,358.795,51.33z"/>
		</g>
		<g>
			<path style="fill:#AE312F;" d="M366.464,69.164l0.028,0.093c0.077,0.453,0.176,0.886,0.262,1.322     c-7.362,5.543-16.957,10.175-25.839,8.983c-3.351-0.45-6.727-2.639-6.529-5.916c0.088-1.31,0.771-2.609,1.735-3.689     c2.844-3.209,7.505-4.965,11.531-6.62c4.577-1.89,9.277-5.282,13.111-8.51C363.741,59.755,365.2,64.315,366.464,69.164z"/>
		</g>
		<g>
			<path style="fill:#AE312F;" d="M367.995,76.719c0.84,5.855,1.349,11.788,0.357,17.45c-5.38,2.59-12.378,2.908-18.094,1.441     c-2.547-0.659-5.075-2.176-5.319-5.048c-0.331-3.798,4.348-5.588,7.273-6.383C360.146,82.032,365.335,78.749,367.995,76.719z"/>
		</g>
		<g>
			<g>
				<path style="fill:#AE312F;" d="M192.387,98.984c3.132-2.301,6.445-4.275,9.804-6.169c3.376-1.862,6.798-3.642,10.404-5.093      c-3.13,2.303-6.444,4.277-9.804,6.169C199.413,95.751,195.991,97.53,192.387,98.984z"/>
			</g>
			<g>
				<path style="fill:#AE312F;" d="M187.951,90.449c3.464-1.448,7.026-2.537,10.612-3.536c3.596-0.964,7.217-1.837,10.937-2.347      c-3.463,1.451-7.025,2.539-10.612,3.536C195.291,89.063,191.67,89.936,187.951,90.449z"/>
			</g>
			<g>
				<path style="fill:#AE312F;" d="M187.479,78.517c3.748,0.222,7.425,0.811,11.086,1.49c3.654,0.715,7.29,1.523,10.855,2.701      c-3.749-0.219-7.426-0.809-11.086-1.49C194.681,80.499,191.045,79.691,187.479,78.517z"/>
			</g>
		</g>
		<g>
			<path style="fill:#FFFFFF;" d="M313.436,22.074c0,0-2.625,0.59-3.491,0.197c-0.88-0.389,3.059-1.656,3.059-1.656     c-2.228-0.263-4.534-2.106-3.869-2.346c0.674-0.258,3.493,0.783,3.493,0.783c-3.443-2.804-3.303-8.618-0.535-9.063     c1.184-0.192,3.169,1.976,5.044,4.509c0.977,9.97,8.697,15.231,9.991,15.8c-5.354-2.584-11.273-3.76-15.966-4.26     C311.259,23.931,313.436,22.074,313.436,22.074z"/>
		</g>
		<g>
			<path style="fill:#FFFFFF;" d="M213.395,47.368c-0.261-2.246,1.104-5.868,1.228-6.179c-0.153,0.117-1.752,1.442-2.742,1.216     c-1.038-0.241,1.655-2.352,1.655-2.352s-2.293,0.881-2.687,0.233c-0.403-0.631,2.04-1.153,2.04-1.153     c-1.987-0.522-6.394-4.195-4.656-6.023c1.134-1.187,3.38-0.28,4.825,0.504c2.813,3.943,6.082,6.842,12.494,7.151     C225.552,40.766,218.84,44.313,213.395,47.368z"/>
		</g>
		<g>
			<g>
				<path style="fill:#AE312F;" d="M257.67,62.362c0,0-4.476-3.608-6.12-2.416c-1.644,1.192,5.098,6.663,7.265,6.843      c2.168,0.18,5.134-7.814,3.746-8.93C261.174,56.742,257.67,62.362,257.67,62.362z"/>
			</g>
			<g>
				<path style="fill:#AE312F;" d="M270.44,89.738c-1.128-1.893-2.175-3.828-3.255-5.747l-3.095-5.833      c-1.032-1.945-1.996-3.924-2.971-5.901c-0.945-1.996-1.892-3.972-2.706-6.077l1.193-0.179      c-0.202,4.245-0.296,8.511-0.363,12.768c-0.025,2.13-0.03,4.26,0.033,6.389c0.024,2.131,0.134,4.258,0.298,6.391      c-0.438-2.095-0.668-4.228-0.894-6.357c-0.19-2.134-0.286-4.272-0.376-6.411c-0.161-4.281-0.101-8.556,0.072-12.84l0.121-2.995      l1.072,2.815c0.763,2.004,1.697,4.008,2.61,5.997l2.768,5.98l2.782,5.981C268.624,85.728,269.564,87.717,270.44,89.738z"/>
			</g>
			<g style="opacity:0.48;">
				<path style="fill:#AE312F;" d="M249.921,69.363c-3.233,1.516-6.048,4.318-7.298,8.015c-1.812,5.359-1.078,11.442,3.465,14.988      c2.819,2.2,6.293,2.983,9.66,3.19c6.453,0.396,12.89,0.333,18.759-2.733c2.129-1.112,4.152-2.565,5.645-4.594      c2.288-3.108,3.152-7.513,2.263-11.546c-0.889-4.033-3.51-7.6-6.869-9.35c-4.133-2.153-9.58-1.957-13.864-0.991      C257.865,67.204,253.476,67.697,249.921,69.363z"/>
			</g>
		</g>
		<g>
			<g>
				<path style="fill:#AE312F;" d="M308.111,72.087c3.814-0.745,7.654-1.116,11.499-1.396c3.848-0.243,7.702-0.392,11.582-0.166      c-3.814,0.747-7.654,1.118-11.499,1.396C315.845,72.161,311.99,72.31,308.111,72.087z"/>
			</g>
			<g>
				<path style="fill:#AE312F;" d="M330.262,60.951c-3.398,1.596-6.911,2.836-10.451,3.989c-3.551,1.117-7.131,2.145-10.826,2.815      c3.398-1.599,6.91-2.838,10.451-3.989C322.988,62.651,326.569,61.623,330.262,60.951z"/>
			</g>
			<g>
				<path style="fill:#AE312F;" d="M324.159,50.687c-2.351,2.928-4.96,5.586-7.632,8.178c-2.698,2.565-5.461,5.063-8.485,7.289      c2.349-2.93,4.958-5.588,7.632-8.178C318.374,55.412,321.137,52.915,324.159,50.687z"/>
			</g>
		</g>
		<g style="opacity:0.48;">
			<path style="fill:#AE312F;" d="M326.557,135.82c1.435-1.261,2.884-2.498,4.283-3.789c1.406-1.28,2.815-2.561,4.101-3.935     l0.828-0.884l-0.064,1.242c-0.027,0.523-0.008,1.087,0.08,1.595c0.074,0.5,0.297,1.007,0.502,1.09     c0.072,0.048,0.261,0.046,0.381-0.006c0.081-0.027,0.228-0.166,0.342-0.363c0.237-0.397,0.405-0.917,0.537-1.438     c0.253-1.057,0.413-2.169,0.504-3.283c0.087-1.104,0.14-2.265,0.062-3.308l-0.154-2.061l1.257,1.63     c0.514,0.666,1.117,1.331,1.755,1.861c0.633,0.531,1.401,0.932,1.792,0.661c0.487-0.24,0.81-1.097,0.942-1.908     c0.138-0.829,0.176-1.725,0.148-2.576l-0.012-0.373l0.323-0.118c1.894-0.696,3.757-1.662,5.475-2.791     c0.876-0.547,1.712-1.159,2.51-1.82c0.806-0.654,1.538-1.391,2.263-2.146c-1.212,1.706-2.75,3.183-4.422,4.467     c-1.702,1.258-3.513,2.333-5.493,3.187l0.311-0.491c0.096,0.95,0.102,1.873-0.034,2.831c-0.07,0.477-0.175,0.959-0.374,1.442     c-0.197,0.473-0.513,0.992-1.078,1.318c-0.271,0.155-0.608,0.252-0.943,0.244c-0.325-0.008-0.612-0.09-0.867-0.191     c-0.509-0.209-0.917-0.5-1.3-0.802c-0.756-0.621-1.381-1.298-1.98-2.055l1.104-0.431c0.091,1.236,0.01,2.366-0.087,3.536     c-0.114,1.16-0.264,2.319-0.585,3.475c-0.169,0.578-0.356,1.158-0.72,1.736c-0.188,0.279-0.434,0.602-0.892,0.782     c-0.413,0.144-0.844,0.149-1.279-0.079c-0.806-0.536-0.868-1.29-0.968-1.88c-0.07-0.625-0.056-1.209,0.008-1.824l0.764,0.358     c-1.403,1.33-2.868,2.562-4.378,3.736C329.676,133.615,328.149,134.763,326.557,135.82z"/>
		</g>
		<g style="opacity:0.48;">
			<g>
				<path style="fill:#AE312F;" d="M395.106,151.459c-4.54-3.21-9.919-5.188-15.365-5.437c-5.406-0.35-10.973,1.288-14.712,5.073      c-1.867,1.867-3.393,4.119-4.588,6.526c-1.247,2.387-2.15,4.963-2.852,7.589c-1.417,5.26-2.008,10.751-2.073,16.231      c-0.147,5.472,0.24,11.009,1.25,16.352c0.547,2.638,1.38,5.216,2.751,7.435c1.362,2.213,3.318,4.001,5.732,4.937      c2.403,0.982,5.134,1.19,7.781,0.843c2.649-0.351,5.261-1.264,7.708-2.449c4.931-2.301,9.127-6.343,11.247-11.528      c-1.599,5.391-5.753,9.838-10.7,12.579c-4.895,2.668-10.974,4.315-16.69,2.295c-2.849-0.946-5.297-3.043-6.845-5.561      c-1.593-2.507-2.517-5.304-3.136-8.094c-1.128-5.578-1.597-11.207-1.512-16.857c0.142-5.641,0.82-11.293,2.371-16.771      c0.771-2.734,1.754-5.43,3.116-7.963c1.288-2.565,3.014-4.935,5.168-6.911c4.328-4.033,10.458-5.523,16.078-4.904      C385.477,145.509,390.883,147.81,395.106,151.459z"/>
			</g>
		</g>
		<g>
			<path style="fill:#AE312F;" d="M368.592,211.983c-1.549-1.467-2.696-3.317-3.553-5.275c-0.876-1.961-1.375-4.089-1.587-6.243     c-0.182-2.156-0.055-4.357,0.536-6.439c0.493-2.1,1.51-4.044,2.765-5.735c-0.338,2.112-0.789,4.064-0.907,6.062     c-0.181,1.976-0.192,3.945,0.013,5.898C366.171,204.18,367.204,208.009,368.592,211.983z"/>
		</g>
		<g>
			<path style="fill:#FFC792;" d="M297.795,250.149c-2.046,40.296-18.24,61.064-18.24,61.064l-0.014,0.014l-13.877,24.447     c-0.014,0.014-0.014,0.028-0.014,0.028s-0.014-0.028-0.028-0.085c-0.495-1.343-6.755-18.3-17-27.626     c-0.198-0.198-0.41-0.382-0.608-0.565c-11.545-9.991-23.387-2.544-25.521,4.889c-1.442,5.045,5.271,8.083,12.294,18.583     c0.042,0.057,0.085,0.113,0.113,0.17c3.307,4.96,6.67,11.588,9.298,20.83c0.014,0.042,0.014,0.071,0.028,0.099     c0.424,1.526,0.876,3.137,1.314,4.847c0.184,0.721,0.353,1.427,0.509,2.12c1.099,4.617,1.951,9.841,1.959,15.661     c0.003,0.177,0.005,0.341,0.006,0.491c0,0.735-0.014,1.131-0.014,1.131l-0.014,0.014c-0.367,0.127-7.631,2.84-17.593,1.526     c-6.316-0.82-13.707-3.264-21.098-9.001c-0.155,0.113-0.325,0.226-0.48,0.339c-2.12-2.092-4.027-4.126-5.652-5.879     c-0.226-0.254-0.452-0.48-0.664-0.721c-1.795-1.95-3.745-3.589-5.794-4.974c-15.177-10.358-36.133-7.235-48.06-17.678     c-5.539-4.847-9.143-12.619-9.284-26.058c-0.24-21.564,6.472-52.455,20.024-82.456c2.035-4.522,4.239-9.03,6.599-13.481     c2.657-5.031,5.511-9.991,8.563-14.824c0.551-0.862,1.102-1.724,1.653-2.586c0.325-0.509,0.664-1.003,1.003-1.512     c1.583-2.388,3.222-4.734,4.903-7.052c0.339-0.466,0.678-0.918,1.003-1.371c2.854-3.83,5.836-7.546,8.959-11.107     c0.466-0.24,0.933-0.495,1.399-0.721c6.345-3.25,12.958-5.624,20.01-7.292c3.462-0.82,7.023-1.456,10.711-1.936     c0.127-0.028,0.268-0.042,0.396-0.056c3.561-0.466,6.981-0.551,10.259-0.297c4.183,0.311,8.14,1.159,11.87,2.515     C272.829,180.966,299.197,222.538,297.795,250.149z"/>
		</g>
		<g style="opacity:0.48;">
			<g>
				<path style="fill:#AE312F;" d="M380.767,209.213c2.598,2.542,5.535,4.622,8.677,6.106c3.155,1.439,6.539,2.305,9.958,2.189      c1.694-0.125,3.419-0.187,5.075-0.703c1.716-0.275,3.296-1.031,4.952-1.616c1.626-0.658,3.144-1.588,4.768-2.347      c1.53-0.925,3.013-1.937,4.62-2.836c-1.25,1.316-2.613,2.535-3.949,3.814c-1.515,1.026-2.963,2.215-4.617,3.068      c-3.264,1.811-6.989,2.874-10.81,3.038c-3.836,0.082-7.653-1.025-10.88-2.946C385.313,215.081,382.634,212.342,380.767,209.213z      "/>
			</g>
		</g>
		<g>
			<path style="fill:#AE312F;" d="M287.549,63.752c0,0,3.249-16.494,20.492-19.743l-2.499,7.747     C305.542,51.757,296.795,51.507,287.549,63.752z"/>
		</g>
		<g>
			<path style="fill:#AE312F;" d="M237.992,74.954c0,0-9.1-14.159-26.35-10.833l5.18,6.292     C216.822,70.413,224.873,66.959,237.992,74.954z"/>
		</g>
		<g>
			<path style="fill:#AE312F;" d="M239.824,315.43c0.244-1.229,0.891-2.305,1.697-3.229c0.805-0.937,1.842-1.673,2.985-2.216     c1.152-0.518,2.44-0.795,3.703-0.704c1.261,0.027,2.479,0.49,3.476,1.199c-1.233,0.273-2.297,0.377-3.312,0.681     c-1.005,0.275-1.962,0.574-2.873,1.027C243.629,313.005,241.911,314.154,239.824,315.43z"/>
		</g>
		<g style="opacity:0.2;">
			<path style="fill:#AE312F;" d="M251.778,393.679c-1.934-3.6-3.276-7.09-3.742-11.668c-0.355-3.445-0.058-7.535-0.058-12.757     c0-11.624-8.023-29.782-14.802-40.405c-1.511-2.334-2.934-4.311-4.223-5.778c-2.845-3.267-4.467-5.667-5.356-7.334     c3.667-1.911,11.046-4.245,19.38,1.533C254.157,325.026,275.515,387.034,251.778,393.679z"/>
		</g>
		<g>
			<path style="fill:#FFC792;" d="M230.983,315.621c-2.81,0.864-0.09,5.029,1.27,5.936c1.925,1.283,4.838-0.001,5.135-2.385     C237.773,316.07,233.202,314.94,230.983,315.621z"/>
		</g>
		<g>
			<path style="fill:#FFC792;" d="M246.326,322.701c-0.682-0.774-1.733-1.397-2.796-1.14c-0.998,0.241-1.564,1.227-1.437,2.214     c0.139,1.079,0.964,2.007,1.884,2.524c1.185,0.665,3.634,0.795,3.452-1.197C247.352,324.26,246.925,323.38,246.326,322.701z"/>
		</g>
		<g>
			<path style="fill:#FFC792;" d="M248.036,382.011c-0.355-3.445,0.402-8.007-0.393-13.169     c-1.701-11.046-8.088-29.108-14.867-39.732c2.489-1.489,7.423-3.418,11.979,2.005     C250.867,338.428,259.615,375.188,248.036,382.011z"/>
		</g>
		<g>
			<path style="fill:#AE312F;" d="M388.205,121.143c-1.178,0.756-1.521,0.857-2.787,1.457c-4.801,2.267-10.023,3.689-15.313,4.2     c-1,0.089-2.067,0.133-2.956-0.333c-1.133-0.622-1.689-2.045-1.6-3.356c0.111-1.289,0.756-2.489,1.512-3.556     c3-4.289,7.4-7.781,12.023-10.848C382.211,111.979,385.007,115.998,388.205,121.143z"/>
		</g>
		<g>
			<path style="fill:#AE312F;" d="M419.4,237.904c-0.511,7.934-1.578,15.913-3.134,23.87c-5.623,0.933-11.424,0.822-17.002-0.378     c-3.668-0.778-7.401-2.112-9.935-4.867c-2.556-2.756-3.556-7.223-1.445-10.312c1.912-2.8,5.556-3.69,8.912-4.156     c5.245-0.711,10.579-0.889,15.802-1.845C415.022,239.77,417.244,238.882,419.4,237.904z"/>
		</g>
		<g>
			<path style="fill:#AE312F;" d="M411.377,281.176c-1.823,6.09-3.956,12.09-6.334,18.002c-6.845-0.845-13.38-4.445-17.558-9.979     c-1.334-1.756-2.445-3.734-2.756-5.912c-0.289-2.178,0.355-4.578,2.067-5.956c1.667-1.378,4.09-1.556,6.201-1.089     c2.133,0.467,4.089,1.511,6.09,2.334c3.845,1.622,8.001,2.534,12.179,2.6H411.377z"/>
		</g>
		<g>
			<path style="fill:#AE312F;" d="M396.042,318.647c-2.69,5.179-5.601,10.224-8.712,15.091c-1.067-0.4-2.089-0.911-3.045-1.511     c-5.001-3.134-8.446-8.734-8.713-14.646c-0.133-2.845,0.778-6.179,3.445-7.268c2.934-1.2,6.067,0.978,8.601,2.889     C390.374,315.291,393.153,317.092,396.042,318.647z"/>
		</g>
		<g>
			<g>
				<polygon style="fill:#6CE0C0;" points="297.371,215.158 285.722,241.2 280.925,237.648 279.056,236.241 275.366,233.496       273.497,232.112 269.738,229.321 267.869,227.937 264.063,225.1 262.195,223.716 261.756,223.393 262.956,213.498       263.694,207.27 264.894,197.374 265.632,191.123 266.577,183.327 267.316,177.099 268.607,166.373 268.607,159.084       277.188,157.862 277.395,158.461 278.433,161.391 279.725,165.058 280.763,168.011 282.401,172.67 283.439,175.6       285.33,180.951 286.368,183.904 288.467,189.855 289.482,192.784 291.581,198.689 292.596,201.618 294.649,207.431       295.687,210.361     "/>
			</g>
			<g>
				<polygon style="fill:#9BEFE6;" points="295.687,210.361 280.925,237.648 279.056,236.241 294.649,207.431     "/>
			</g>
			<g>
				<polygon style="fill:#9BEFE6;" points="292.596,201.618 275.366,233.496 273.497,232.112 291.581,198.689     "/>
			</g>
			<g>
				<polygon style="fill:#9BEFE6;" points="289.482,192.784 269.738,229.321 267.869,227.937 288.467,189.855     "/>
			</g>
			<g>
				<polygon style="fill:#9BEFE6;" points="286.368,183.904 264.063,225.1 262.195,223.716 285.33,180.951     "/>
			</g>
			<g>
				<polygon style="fill:#9BEFE6;" points="283.439,175.6 262.956,213.498 263.694,207.27 282.401,172.67     "/>
			</g>
			<g>
				<polygon style="fill:#9BEFE6;" points="280.763,168.011 264.894,197.374 265.632,191.123 279.725,165.058     "/>
			</g>
			<g>
				<polygon style="fill:#9BEFE6;" points="278.433,161.391 266.577,183.327 267.316,177.099 277.395,158.461     "/>
			</g>
		</g>
		<g>
			<path style="fill:#AE312F;" d="M311.453,395.191c-0.156,0.578-0.334,1.133-0.533,1.689c-6.201,1.733-12.535,2.756-18.958,3     c1.378-3.534,2.089-7.379,2.623-11.113c0.778-5.512,1.311-11.068,1.622-16.624c0.222-3.956,0.466-8.334,3.245-11.179     c0.867-0.889,2.045-1.6,3.267-1.511c1.311,0.089,2.378,1.045,3.223,2.045c2.667,3.245,3.911,7.446,4.845,11.557     C312.453,380.322,313.409,387.99,311.453,395.191z"/>
		</g>
		<g>
			<path style="fill:#AE312F;" d="M332.567,387.967c0.156-1.178,0.2-2.356,0.178-3.534c-0.156-5.823-1.956-11.468-2.934-17.202     c-0.4-2.334-0.6-4.912,0.689-6.868c1.845-2.823,6.134-3.089,9.023-1.356c2.889,1.711,4.623,4.845,5.912,7.957     c1.378,3.356,2.378,6.845,3.001,10.401c0,0.022,0,0.067,0.022,0.089C343.323,381.433,338.034,384.967,332.567,387.967z"/>
		</g>
		<g>
			<path style="fill:#AE312F;" d="M371.038,355.808c-3.645,4.245-7.423,8.245-11.357,11.979c-1.356-3.667-2.334-7.468-2.267-11.357     c0.022-0.889,0.089-1.823,0.467-2.645c0.778-1.823,2.867-2.845,4.845-2.823c1.978,0.022,3.867,0.933,5.445,2.111     C369.194,353.83,370.149,354.763,371.038,355.808z"/>
		</g>
		<g style="opacity:0.48;">
			<g>
				<path style="fill:#AE312F;" d="M362.463,335.349c0,0,0.013-0.043,0.013-0.071c0.573-3.849,1.083-7.758,0.891-11.619      c-0.062-0.942-0.189-1.962-0.648-2.674c-0.225-0.281-0.618-0.483-1-0.344c-0.361,0.116-0.713,0.389-0.969,0.772      c-1.052,1.508-1.527,3.474-1.912,5.319l-0.424,2.029l-0.355-2.058c-1.483-8.587-4.871-17.031-10.366-23.749      c-4.67-6.031-11.775-10.082-19.209-11.544c-5.104-1.004-10.753-0.872-15.86,0.032c-4.257,0.754-8.4,2.109-12.288,4.004      c-7.779,3.832-14.434,9.713-19.879,16.493l-0.04,0.049c0,0-0.05,0.049-0.064,0.063l0.089-0.098      c-2.876,3.634-5.487,7.49-7.751,11.547c-2.261,4.043-4.338,8.256-5.913,12.56l-0.105,0.288l-0.176,0.16      c-0.1,0.091-0.3,0.294-0.739,0.344c-0.458,0.039-0.796-0.196-0.917-0.319c-0.233-0.24-0.238-0.326-0.282-0.4      c-0.055-0.13-0.064-0.181-0.078-0.23l0.05,0.155c-2.735-6.686-6.029-13.216-10.03-19.208c-2.023-2.981-4.225-5.826-6.826-8.268      c-2.535-2.389-5.579-4.434-8.887-4.862c-3.47-0.411-7.074-0.128-10.077,1.468c-2.973,1.509-5.299,4.578-5.347,7.838      c-0.001,0.791,0.169,1.568,0.532,2.178c0.303,0.502,1.144,1.29,1.691,1.951c1.225,1.382,2.408,2.801,3.542,4.257      c6.796,8.728,12.077,18.776,15.181,29.405c1.257,4.304,2.277,8.695,2.918,13.133c0.588,4.071,0.914,8.19,0.772,12.295      c-0.009-4.108-0.539-8.189-1.228-12.222c-1.279-7.791-3.781-15.386-7.082-22.548c-1.592-3.455-3.379-6.818-5.384-10.045      l-0.029-0.052l-0.049-0.062l-0.037-0.054c-1.923-3.079-4.029-6.041-6.312-8.857c-1.139-1.41-2.326-2.781-3.552-4.115      l-0.928-0.994c-0.277-0.298-0.681-0.676-0.991-1.179c-0.591-0.958-0.818-2.037-0.84-3.067c0.005-4.174,2.755-7.757,6.191-9.614      c3.483-1.943,7.528-2.198,11.279-1.791c4.034,0.522,7.362,2.825,10.123,5.377c2.754,2.558,5.077,5.525,7.175,8.58      c4.162,6.157,7.531,12.745,10.376,19.576l0.051,0.156c-0.007-0.022-0.008-0.046-0.052-0.151      c-0.038-0.062-0.037-0.135-0.26-0.365c-0.117-0.118-0.448-0.35-0.899-0.311c-0.432,0.049-0.626,0.248-0.721,0.334l-0.281,0.447      c1.651-4.537,3.677-8.83,6.053-12.97c2.347-4.146,5.051-8.092,8.036-11.816l0.042-0.052c0,0,0.048-0.047,0.062-0.061      l-0.089,0.098c5.649-6.949,12.583-13.023,20.737-16.979c4.072-1.957,8.42-3.35,12.873-4.111      c5.806-0.992,12.052-0.859,17.819,0.534c7.474,1.805,13.96,6.115,18.719,12.123c5.607,7.078,8.802,15.737,10.038,24.559      l-0.779-0.029c0.473-1.929,0.968-3.867,2.202-5.551c0.3-0.413,0.752-0.795,1.317-0.949c0.583-0.186,1.219,0.119,1.565,0.588      c0.569,0.962,0.612,1.98,0.663,2.961c0.079,1.976-0.129,3.927-0.373,5.866c-0.254,1.938-0.573,3.865-0.958,5.808      L362.463,335.349z"/>
			</g>
			<g>
				<path style="fill:#AE312F;" d="M365.11,332.561c-0.256-0.155-0.608,0.215-0.92,0.497c-0.646,0.569-1.179,1.388-1.714,2.22      c0.037-1,0.26-1.987,0.787-2.951c0.461-0.899,1.911-2.081,3.581-1.07c0.514,0.426,0.617,1.023,0.631,1.349      c0.031,0.388-0.027,0.674-0.072,0.968c-0.101,0.579-0.268,1.065-0.431,1.565c-0.36,0.967-0.809,1.855-1.258,2.736      c-0.962,1.725-2.03,3.356-3.241,4.885c-1.2,1.534-2.501,2.993-4.023,4.276c1.418-3.698,3.357-7.001,5.14-10.313      c0.466-0.812,0.891-1.642,1.271-2.452C364.861,334.27,365.497,332.795,365.11,332.561z"/>
			</g>
		</g>
		<g>
			<polygon style="fill:#6CE0C0;" points="260.503,154.933 267.871,164.949 280.61,164.124 285.545,149.734 266.307,145.337    "/>
		</g>
		<g>
			<path style="fill:#FFFFFF;" d="M228.272,142.546c1.638,0.325,22.794,3.974,38.5,2.79l-9.666,19.613L228.272,142.546z"/>
		</g>
		<g>
			<path style="fill:#FFFFFF;" d="M266.772,145.337l20.777,14.769c0,0,30.814-16.452,43.643-36.877     C331.192,123.229,302.541,137.547,266.772,145.337z"/>
		</g>
		<g>
			<g>
				<path style="fill:#FFFFFF;" d="M403.638,133.964c0,0-0.87,15.4,10.887,18.642c0,0-11.021,2.417-10.887,20.166      c0,0-1.954-18.16-11.154-20.166C392.484,152.606,403.505,148.788,403.638,133.964z"/>
			</g>
			<g>
				<path style="fill:#FFFFFF;" d="M417.408,109.527c0,0-0.592,10.484,7.412,12.692c0,0-7.503,1.645-7.412,13.729      c0,0-1.331-12.363-7.594-13.729C409.814,122.218,417.317,119.619,417.408,109.527z"/>
			</g>
		</g>
		<g>
			<polygon style="fill:#FF9C3D;" points="112.732,201.949 127.163,197.158 119.114,207.022 127.101,216.557 113.858,214.916      110.441,226.672 106.344,211.629 93.011,207.232 106.745,203.556 104.365,192.428    "/>
		</g>
		<g>
			<path style="fill:#FFFFFF;" d="M180.173,190.285l-21.433,28.369l13.632-1.294l4.981,9.315c0,0,18.172-28.463,17.593-28.375     C194.367,198.389,180.173,190.285,180.173,190.285z"/>
		</g>
		<g>
			<path style="fill:#FFFFFF;" d="M219.577,199.024l22.519,27.515l1.955-13.554l10.227-2.645c0,0-23.379-24.368-23.43-23.784     C230.798,187.14,219.577,199.024,219.577,199.024z"/>
		</g>
		<g>
			<path style="fill:#FF5555;" d="M212.296,208.48c0,0,5.352,4.456,11.178,3.076s5.352-10.925,5.352-10.925     s8.472,2.268,13.411-1.801c4.939-4.069,0.458-12.284,0.458-12.284s7.69-2.616,9.696-9.234c2.006-6.619-5.508-14.241-5.508-14.241     s6.83-7.099,4.022-13.17c-2.808-6.071-11.151-7.355-11.151-7.355s1.976-8.203-2.827-11.676     c-4.055-2.932-11.285,0.233-11.285,0.233s-1.532-8.994-9.555-10.977c-8.023-1.983-11.984,5.159-11.984,5.159     s-6.562-6.971-14.446-4.659c-5.576,1.635-6.949,10.393-6.949,10.393s-9.692-3.167-14.972,2.136     c-5.281,5.303,0.123,12.182,0.123,12.182s-11.341,2.881-13.547,9.806c-2.206,6.925,6.936,13.84,6.936,13.84     s-9.428,5.709-7.279,12.234c2.149,6.525,11.543,5.33,11.543,5.33s-4.781,8.722,0.233,14.085     c5.014,5.362,11.232,1.552,11.232,1.552s-1.208,10.281,7.11,11.885s11.944-3.223,11.944-3.223S204.273,217.653,212.296,208.48z"/>
		</g>
		<g>
			<g>
				<circle style="fill:#FFFFFF;" cx="204.103" cy="168.065" r="30.765"/>
			</g>
			<g>
				<polygon style="fill:#FF9C3D;" points="204.103,147.644 209.726,159.037 222.299,160.864 213.201,169.732 215.349,182.255       204.103,176.343 192.857,182.255 195.005,169.732 185.907,160.864 198.48,159.037     "/>
			</g>
		</g>
	</g>
	<g style="opacity:0.48;">
		<g>
			<path style="fill:#AE312F;" d="M212.258,231.378c-1.07-1.524-2.378-2.87-3.914-4.032c-0.768-0.58-1.645-1.083-2.695-1.332     c-1.032-0.262-2.358-0.146-3.356,0.692c-0.504,0.401-0.913,1.099-0.986,1.761c-0.122,0.687,0.009,1.291,0.16,1.827     c0.323,1.087,0.844,1.96,1.417,2.767c1.156,1.621,2.434,2.993,3.894,4.308l1.412-2.257c-1.515-0.647-2.981-1.123-4.641-1.397     c-0.833-0.118-1.693-0.196-2.649-0.035c-0.93,0.148-2.072,0.607-2.788,1.584c-0.718,0.9-0.958,2.285-0.535,3.376     c0.386,1.077,1.076,1.739,1.72,2.306c1.341,1.11,2.71,1.835,4.241,2.435l-0.383-1.867c-0.934,1.106-1.58,2.182-2.199,3.353     c-0.587,1.166-1.074,2.374-1.442,3.611c-0.689,2.485-1.015,5.053-0.804,7.563c0.457-2.473,1.104-4.862,2.169-7.05     c0.489-1.108,1.102-2.152,1.755-3.15c0.636-0.985,1.404-1.983,2.158-2.717l1.144-1.114l-1.528-0.754     c-1.203-0.594-2.48-1.352-3.383-2.224c-0.459-0.425-0.804-0.919-0.91-1.27c-0.113-0.325-0.03-0.582,0.171-0.853     c0.284-0.499,1.56-0.646,2.863-0.449c1.298,0.18,2.709,0.604,3.95,1.11l7.688,3.131l-6.276-5.389     c-1.299-1.115-2.651-2.352-3.696-3.686c-1.08-1.285-1.928-2.933-1.224-3.512c0.756-0.948,2.623-0.605,4.173,0.184     C209.357,229.083,210.832,230.202,212.258,231.378z"/>
		</g>
	</g>
</g>















</svg>
