<?xml version="1.0" encoding="UTF-8"?>
<!-- Generator: Adobe Illustrator 25.2.3, SVG Export Plug-In . SVG Version: 6.00 Build 0)  -->
<svg xmlns="http://www.w3.org/2000/svg" xmlns:xlink="http://www.w3.org/1999/xlink" version="1.1" id="Capa_1" x="0px" y="0px" viewBox="0 0 512 512" style="enable-background:new 0 0 512 512;" xml:space="preserve" width="512" height="512">
<g>
	<g>
		<path style="fill:#9BEFE6;" d="M310.574,75.433c-34.195,7.546-64.303,29.429-85.342,57.423    c-12.258,16.311-21.689,34.663-34.626,50.44c-12.937,15.778-30.604,29.282-50.953,30.771c-10.233,0.749-20.469-1.583-30.724-1.286    c-31.703,0.92-54.817,24.489-64.182,53.424c-8.891,27.469-5.267,57.467,8.927,82.53c15.249,26.926,40.579,47.487,66.241,63.99    c45.603,29.327,98.608,46.035,153.118,39.692c85.416-9.939,162.249-60.044,188.668-144.196    c21.226-67.608,11.235-150.594-42.451-201.133c-11.747-11.058-24.716-19.611-39.58-25.839c-5.401-2.263-10.975-4.109-16.675-5.454    C345.856,71.751,327.769,71.639,310.574,75.433z"/>
	</g>
	<g>
		<g>
			<path style="fill:#6CE0C0;" d="M177.543,242.297c-5.469,4.715-12.252,8.309-20.639,10.416c-2.474,0.618-4.87,1.101-7.228,1.43     c-2.995,0.425-5.913,0.618-8.754,0.618c-50.535-0.077-75.058-65.241-81.338-85.029l130.868-39.075     c1.024,4.252,2.087,8.986,3.092,14.068C199.631,176.244,202.569,220.827,177.543,242.297z"/>
		</g>
		<g>
			<path style="fill:#6CE0C0;" d="M259.828,341.318L145.309,377.03l-12.117,3.788c0,0-3.169,1.276-3.71,0     c-5.469-13.102-38.051-84.913,11.44-126.056c2.184-1.836,4.522-3.594,7.034-5.275c2.474-1.681,5.121-3.285,7.943-4.812     c7.749-1.836,14.957-2.57,21.644-2.377C246.108,243.998,259.828,341.318,259.828,341.318z"/>
		</g>
		<g>
			<path style="fill:#AE312F;" d="M195.838,128.841l0.021-0.006l-0.066-0.224c-0.017-0.069-0.021-0.141-0.041-0.21     c-0.022-0.074-0.06-0.143-0.084-0.216l-8.321-28.326l-143.41,42.844l7.947,27.41c3.266,11.264,38.119,11.057,77.847-0.461     C168.952,158.28,198.238,140.14,195.838,128.841z"/>
		</g>
		<g>
			<path style="fill:#FF5555;" d="M187.805,100.99c3.266,11.264-26.293,29.733-66.02,41.251     c-39.728,11.519-74.581,11.725-77.847,0.461c-3.266-11.264,26.293-29.733,66.02-41.251     C149.686,89.933,184.539,89.726,187.805,100.99z"/>
		</g>
		<g>
			<path style="fill:#AE312F;" d="M271.853,363.345l0.021-0.006l-0.066-0.224c-0.017-0.069-0.021-0.141-0.041-0.21     c-0.022-0.074-0.06-0.143-0.084-0.216l-8.321-28.326l-143.41,42.844l7.947,27.41c3.266,11.264,38.119,11.057,77.847-0.461     C244.967,392.785,274.253,374.644,271.853,363.345z"/>
		</g>
		<g>
			
				<ellipse transform="matrix(0.9604 -0.2785 0.2785 0.9604 -91.6429 67.5299)" style="fill:#FF5555;" cx="191.886" cy="356.351" rx="74.896" ry="21.235"/>
		</g>
		<g>
			<path style="fill:#6CE0C0;" d="M123.819,367.051c0,0,16.584,13.109,72.094-1.452s61.618-35.805,61.618-35.805     s-4.061-18.525-48.968-13.848C163.655,320.624,123.819,367.051,123.819,367.051z"/>
		</g>
		<g>
			<path style="fill:#FF9C3D;" d="M107.165,232.244c0,0,18.704,20.473,46.752,15.373c28.048-5.1,35.664-43.02,35.664-43.02     s-8.22-14.318-34.556-8.017C129.155,202.769,132.481,227.069,107.165,232.244z"/>
		</g>
		<g>
			
				<ellipse transform="matrix(0.9604 -0.2785 0.2785 0.9604 -29.3471 37.0861)" style="fill:#FF9C3D;" cx="115.871" cy="121.846" rx="58.227" ry="13.37"/>
		</g>
		<g>
			<path style="fill:#FF9C3D;" d="M250.031,330.974c-6.255-25.684-21.723-35.783-21.723-35.783     c-1.908,40.271-46.418,25.222-72.488,31.369c-26.07,6.147-17.636,36.842-17.636,36.842c2.056,7.092,28.761,5.582,59.647-3.373     C228.717,351.075,252.088,338.066,250.031,330.974z"/>
		</g>
		<g>
			<path style="fill:#FFFFFF;" d="M77.049,190.342c0.727,0.788,1.677,1.34,2.663,1.76c2.63,1.12,6.488,1.212,7.727-1.942     c0.869-2.209-0.153-4.772-2.027-6.076C81.359,181.263,72.46,185.372,77.049,190.342z"/>
		</g>
		<g>
			<path style="fill:#FFFFFF;" d="M84.027,201.021c0.057,1.872,0.986,4.185,1.535,5.317c1.7,3.511,4.322,6.582,7.563,8.758     c2.423,1.626,3.694-0.191,3.289-2.549c-0.329-1.915-1.303-3.682-2.129-5.418c-1.242-2.611-4.087-8.594-7.335-8.912     C84.64,197.991,83.976,199.326,84.027,201.021z"/>
		</g>
	</g>
	<g>
		<g>
			
				<ellipse transform="matrix(0.7071 -0.7071 0.7071 0.7071 63.8891 263.3828)" style="fill:#FFFFFF;" cx="349.876" cy="54.57" rx="34.017" ry="34.017"/>
			<path style="fill:#6CE0C0;" d="M349.876,89.734c-19.39,0-35.164-15.775-35.164-35.164s15.774-35.164,35.164-35.164     c19.391,0,35.164,15.775,35.164,35.164S369.266,89.734,349.876,89.734z M349.876,21.701c-18.124,0-32.869,14.745-32.869,32.869     s14.745,32.869,32.869,32.869c18.124,0,32.87-14.745,32.87-32.869S368,21.701,349.876,21.701z"/>
		</g>
		<g>
			<path style="fill:#6CE0C0;" d="M349.876,55.718c-0.197,0-0.392-0.05-0.569-0.151c-0.327-0.187-0.542-0.524-0.574-0.901     l-1.976-23.82c-0.054-0.632,0.417-1.187,1.049-1.238c0.576-0.061,1.183,0.415,1.237,1.048l1.84,22.156l23.166-11.183     c0.571-0.271,1.259-0.036,1.533,0.534c0.276,0.57,0.036,1.256-0.533,1.532l-24.672,11.909     C350.216,55.68,350.046,55.718,349.876,55.718z"/>
		</g>
	</g>
	<g>
		<g>
			
				<ellipse transform="matrix(0.1607 -0.987 0.987 0.1607 255.3054 507.9724)" style="fill:#FFFFFF;" cx="426.337" cy="103.868" rx="23.894" ry="23.894"/>
			<path style="fill:#6CE0C0;" d="M426.337,128.91c-13.808,0-25.042-11.234-25.042-25.042s11.234-25.042,25.042-25.042     s25.042,11.234,25.042,25.042S440.146,128.91,426.337,128.91z M426.337,81.12c-12.542,0-22.747,10.204-22.747,22.747     s10.205,22.747,22.747,22.747s22.747-10.204,22.747-22.747S438.88,81.12,426.337,81.12z"/>
		</g>
		<g>
			<path style="fill:#6CE0C0;" d="M425.15,123.722c-0.025,0-0.049-0.001-0.074-0.002c-0.634-0.04-1.114-0.586-1.073-1.218     l1.022-16.061l-10.434,8.62c-0.486,0.401-1.208,0.334-1.616-0.153c-0.403-0.489-0.334-1.211,0.155-1.615l12.477-10.309     c0.354-0.289,0.84-0.346,1.253-0.138c0.408,0.208,0.652,0.638,0.623,1.095l-1.19,18.707     C426.254,123.255,425.748,123.722,425.15,123.722z"/>
		</g>
	</g>
	<g>
		<g>
			<circle style="fill:#FFFFFF;" cx="241.738" cy="38.862" r="37.715"/>
			<path style="fill:#6CE0C0;" d="M241.739,77.724c-21.43,0-38.864-17.434-38.864-38.863S220.309,0,241.739,0     C263.166,0,280.6,17.433,280.6,38.862S263.166,77.724,241.739,77.724z M241.739,2.295c-20.164,0-36.569,16.403-36.569,36.567     s16.406,36.568,36.569,36.568s36.567-16.404,36.567-36.568S261.902,2.295,241.739,2.295z"/>
		</g>
		<g>
			<path style="fill:#6CE0C0;" d="M214.897,53.259c-0.421,0-0.829-0.234-1.029-0.64c-0.28-0.568-0.047-1.256,0.52-1.536     l26.841-13.25c0.217-0.106,0.457-0.14,0.697-0.103l33.107,5.49c0.625,0.103,1.046,0.695,0.943,1.32     c-0.103,0.625-0.688,1.053-1.32,0.943l-32.742-5.43l-26.51,13.087C215.242,53.221,215.068,53.259,214.897,53.259z"/>
		</g>
	</g>
	<g>
		<g>
			<g>
				<path style="fill:#FF9C3D;" d="M447.601,295.232c0.928-13.475-0.43-25.179-3.244-35.327c-1.275-4.635-2.847-8.956-4.652-12.945      c-2.632-5.877-5.744-11.075-9.088-15.66c-4.701-6.506-9.833-11.77-14.651-15.925c-6.542-5.656-12.483-9.298-15.983-11.324      c2.425-3.525,4.301-7.236,5.641-11.108c1.737-4.999,2.609-10.24,2.716-15.676c0.046-2.324-0.021-4.675-0.277-6.986l-0.006-0.083      c-0.439-4.587-1.36-9.295-2.731-14.065c-0.384-1.342-0.804-2.672-1.263-3.989c-1.384-3.915-3.403-7.477-6.005-10.718      c-0.345-0.494-11.817-16.266-15.658-24.017c-3.905-7.858-6.953-18.224-11.865-17.94c-3.399,0.196-6.457,4.192-8.245,6.67      c-3.31,4.586-5.102,9.657-5.948,15.206c-7.293-1.082-14.649-1.731-22.019-1.942c-7.216-0.207-14.384,0.407-21.585,0.407      c-5.604,0.348-11.758,0.413-17.228,1.768l-0.354-0.273c-1.5-1.205-3.449-3.006-3.68-3.207c-3.004-2.73-5.072-6.555-7.777-9.554      c-3.932-4.368-9.555-7.223-15.615-5.292c-0.382,0.126-0.715,0.323-1.023,0.619c-0.79,0.742-1.37,2.009-1.752,3.635      c-1.38,5.831-0.189,16.114,2.667,22.094c0.054,0.121,0.122,0.253,0.189,0.372c-11.135,5.724-18.146,13.424-22.529,21.945      c-0.315,0.581-0.59,1.192-0.876,1.783c-1.126,2.417-2.06,4.895-2.824,7.396c-0.038,0.118-0.075,0.236-0.093,0.344      c-0.389,1.272-0.728,2.544-1.024,3.83c-0.143,0.604-0.277,1.178-0.386,1.776c-0.615,3.002-1.038,6.016-1.325,9.009      c-0.025,0.333-0.05,0.666-0.075,0.999c-0.029,0.348-0.054,0.681-0.064,1.018c-0.115,1.587-0.143,3.152-0.118,4.654      c0.006,0.083,0.002,0.147,0.008,0.23c0.016,1.888,0.149,3.716,0.33,5.494c0.084,0.806,0.188,1.602,0.316,2.373      c1.303,8.92,4.408,16.037,7.397,21.179c-6.749,2.312-13.759,5.702-20.599,10.644c-3.675,2.632-7.301,5.728-10.793,9.337      c-1.506,1.523-2.98,3.162-4.42,4.884c-2.152,2.582-4.039,5.115-5.662,7.582c-3.89,5.926-6.324,11.522-7.681,16.72      c-6.522,25.096,12.101,41.005,12.101,41.005c-25.328,61.433,10.909,99.177,10.909,99.177l81.216,22.216      c-3.046,31.155,12.532,46.286,12.532,46.286s-34.45,40.724-17.647,42.114s39.475-35.704,44.978-44.432      c8.429-13.368,8.674-24.997,8.674-24.997c2.615-0.646,5.165-1.308,7.664-2.02c6.589-1.838,12.747-3.89,18.475-6.109      c5.215-2.02,10.081-4.188,14.617-6.489c5.728-2.864,10.926-5.943,15.677-9.188c6.291-4.271,11.77-8.84,16.505-13.608      c4.42-4.403,8.211-8.972,11.439-13.641c4.172-5.993,7.433-12.134,9.966-18.292c2.632-6.373,4.486-12.763,5.728-18.971      C456.955,322.464,447.601,295.232,447.601,295.232z"/>
			</g>
			<g>
				<g>
					<g>
						<path style="fill:#FF9C3D;" d="M254.71,443.874c-1.97,3.261-4.47,6.655-7.582,10.181c-4.983,5.645-10.512,9.039-16.439,10.727        c-21.107,6.042-47.18-9.469-71.216-20.958c-1.473-0.712-2.947-1.407-4.403-2.069c-4.337-1.987-8.972-3.493-13.757-4.387        c-8.393-1.589-17.167-1.358-25.245,1.192c-6.059,1.92-12.565,5.38-16.637,10.396c-2.069,2.549-4.784,7.334-7.963,12.035        c-6.423,9.535-14.75,18.673-23.391,7.863c-3.89-4.867-2.351-14.8,3.576-24.699c3.907-6.572,9.751-13.128,17.2-18.16        c6.754-4.586,14.833-7.913,23.987-8.89c1.06-0.116,2.119-0.182,3.179-0.249c22.299-1.01,45.938,11.539,67.194,20.312h0.017        c10.346,4.255,20.114,7.631,28.904,8.145h0.017c0.414,0.017,0.811,0.033,1.225,0.05c27.894,0.728,30.824-34.863,30.824-34.863        l14.684-3.294C258.882,407.206,268.037,422.188,254.71,443.874z"/>
					</g>
					<g style="opacity:0.2;">
						<path style="fill:#AE312F;" d="M254.71,443.874c-1.97,3.261-4.47,6.655-7.582,10.181c-4.983,5.645-10.512,9.039-16.439,10.727        c-21.107,6.042-47.18-9.469-71.216-20.958c-1.473-0.712-2.947-1.407-4.403-2.069c-4.337-1.987-8.972-3.493-13.757-4.387        c-8.393-1.589-17.167-1.358-25.245,1.192c-6.059,1.92-12.565,5.38-16.637,10.396c-2.069,2.549-4.784,7.334-7.963,12.035        c-6.423,9.535-14.75,18.673-23.391,7.863c-3.89-4.867-2.351-14.8,3.576-24.699c3.907-6.572,9.751-13.128,17.2-18.16        c6.754-4.586,14.833-7.913,23.987-8.89c1.06-0.116,2.119-0.182,3.179-0.249c22.299-1.01,45.938,11.539,67.194,20.312h0.017        c10.346,4.255,20.114,7.631,28.904,8.145h0.017c0.414,0.017,0.811,0.033,1.225,0.05c27.894,0.728,30.824-34.863,30.824-34.863        l14.684-3.294C258.882,407.206,268.037,422.188,254.71,443.874z"/>
					</g>
				</g>
				<g>
					<path style="fill:#AE312F;" d="M91.468,460.991c-6.423,9.535-14.75,18.673-23.391,7.863c-3.89-4.867-2.351-14.8,3.576-24.699       c4.751,0.993,12.383,4.834,13.707,19.17C85.359,463.325,87.909,461.471,91.468,460.991z"/>
				</g>
				<g>
					<path style="fill:#AE312F;" d="M116.018,416.857c-0.629,4.42-3.063,14.353-12.168,15.114       c-7.714,0.629-12.565-3.244-14.998-5.976c6.754-4.586,14.833-7.913,23.987-8.89       C113.899,416.99,114.959,416.923,116.018,416.857z"/>
				</g>
				<g>
					<path style="fill:#AE312F;" d="M159.473,443.824c-1.473-0.712-2.947-1.407-4.403-2.069c-4.337-1.987-8.972-3.493-13.757-4.387       c2.318-2.102,5.711-3.808,10.297-2.831C157.189,435.712,158.976,440.199,159.473,443.824z"/>
				</g>
				<g>
					<path style="fill:#AE312F;" d="M212.132,445.314c-1.788,3.361-5.943,8.078-14.684,6.589       c-9.552-1.622-13.028-10.148-14.22-14.733C193.575,441.424,203.342,444.801,212.132,445.314z"/>
				</g>
				<g>
					<path style="fill:#AE312F;" d="M254.71,443.874c-1.97,3.261-4.47,6.655-7.582,10.181c-4.983,5.645-10.512,9.039-16.439,10.727       c0.729-3.592,3.162-12.383,10.181-18.028C245.059,443.377,250.307,443.162,254.71,443.874z"/>
				</g>
			</g>
			<g>
				<g>
					<g>
						<path style="fill:#FF9C3D;" d="M235.198,382.224c-12.118,24.981-46.187,17.034-46.187,17.034s-2.268,14.005-16.273,16.654        c-4.023,0.761-7.797-0.414-11.439-2.98c-5.728-4.023-11.141-11.455-16.753-20.213c-3.261-5.082-6.572-10.611-10.049-16.174        c-6.605-10.578-14.899-19.634-21.603-26.636c-1.391-1.44-2.715-2.798-3.94-4.072c-2.367-2.45-4.37-4.552-5.778-6.258        c-1.44-1.705-2.285-3.029-2.367-3.923c-0.381-4.536,5.297-18.177,21.951-7.946c16.654,10.214,24.616,30.659,24.616,30.659        c-7.963-92.373,52.229-85.934,52.229-85.934C227.632,287.963,247.315,357.243,235.198,382.224z"/>
					</g>
					<g style="opacity:0.2;">
						<path style="fill:#AE312F;" d="M235.198,382.224c-12.118,24.981-46.187,17.034-46.187,17.034s-2.268,14.005-16.273,16.654        c-4.023,0.761-7.797-0.414-11.439-2.98c-5.728-4.023-11.141-11.455-16.753-20.213c-3.261-5.082-6.572-10.611-10.049-16.174        c-6.605-10.578-14.899-19.634-21.603-26.636c-1.391-1.44-2.715-2.798-3.94-4.072c-2.367-2.45-4.37-4.552-5.778-6.258        c-1.44-1.705-2.285-3.029-2.367-3.923c-0.381-4.536,5.297-18.177,21.951-7.946c16.654,10.214,24.616,30.659,24.616,30.659        c-7.963-92.373,52.229-85.934,52.229-85.934C227.632,287.963,247.315,357.243,235.198,382.224z"/>
					</g>
					<g style="opacity:0.2;">
						<path style="fill:#AE312F;" d="M164.693,408.445c-0.381,2.268-1.688,3.675-3.394,4.486        c-5.728-4.023-11.141-11.455-16.753-20.213c-3.261-5.082-6.572-10.611-10.049-16.174        c-6.605-10.578-14.899-19.634-21.603-26.636c-1.391-1.44-2.715-2.798-3.94-4.072c-2.367-2.45-4.37-4.552-5.778-6.258        c-1.44-1.705-2.285-3.029-2.367-3.923c0,0,4.883-5.877,14.982-2.285c3.625,1.291,6.241,5.198,8.327,8.211        c5.446,7.88,9.386,16.621,14.469,24.699c4.767,7.549,10.181,14.7,16.207,21.289        C159.991,393.232,166.133,400.102,164.693,408.445z"/>
					</g>
				</g>
				<g>
					<path style="fill:#FFC792;" d="M116.144,338.579c-0.875,0.323-1.578,1.205-1.489,2.134c0.05,0.522,0.33,0.994,0.655,1.406       c0.631,0.799,1.458,1.442,2.388,1.856c0.61,0.272,1.382,0.425,1.902,0.006c0.484-0.39,0.536-1.095,0.548-1.716       C120.193,340.04,118.641,337.657,116.144,338.579z"/>
				</g>
				<g>
					<path style="fill:#FFC792;" d="M111.752,344.38c-0.281,0.348-0.662,0.579-1.059,0.795c-0.546,0.298-1.126,0.546-1.738,0.662       c-2.367-2.45-4.37-4.552-5.778-6.258c0.828-0.977,2.417-1.539,3.476-1.44c1.308,0.132,2.483,0.828,3.509,1.639       c0.712,0.563,1.407,1.192,1.771,2.02C112.315,342.626,112.331,343.668,111.752,344.38z"/>
				</g>
				<g>
					<path style="fill:#FFC792;" d="M145.175,392.338c-0.198,0.149-0.397,0.281-0.629,0.381       c-3.261-5.082-6.572-10.611-10.049-16.174c-6.605-10.578-14.899-19.634-21.603-26.636c1.142-0.364,2.367-0.381,3.609-0.182       c2.251,0.381,4.519,1.49,6.191,2.615c3.145,2.119,6.009,5.148,8.128,8.261c5.115,7.482,8.989,15.644,13.79,23.309       C146.235,386.462,148.188,389.971,145.175,392.338z"/>
				</g>
			</g>
			<g>
				<path style="fill:#FFC792;" d="M342.89,324.513c0,0-18.387,24.406-7.064,42.516c0,0-34.397,17.851-33.851,58.508      c0,0-26.407,5.524-47.911-11.891c-1.109-0.878-5.132,0.629-6.44,0.728c-3.361,0.282-6.887-0.563-10.048-1.622      c-18.309-6.059-28.689-26.172-31.172-44.233c-2.864-20.726,5.032-41.734,19.998-55.904c1.457,0.646,2.996,1.275,4.602,1.887      c0,0,16.223,22.414,33.92,8.26c0,0,15.925,0.778,18.293-11.108c0,0,9.469-3.94,6.059-15.147      c-1.589-5.231-6.109-11.803-13.509-17.167c4.006-8.012,13.293-21.256,31.056-21.769      C332.35,256.826,348.32,302.032,342.89,324.513z"/>
			</g>
			<g>
				<path style="fill:#AE312F;" d="M364.214,122.945c-4.397-1.193-7.659-1.543-7.83-1.573c0.854-11.033,9.695-22.686,14.152-21.905      l0.013-0.001c0.938,2.418,2.04,5.315,0.985,11.976c-0.108,0.655-0.168,1.291-0.204,1.911      C370.752,122.542,368.399,124.088,364.214,122.945z"/>
			</g>
			<g>
				<path style="fill:#AE312F;" d="M272.38,127.942c-1.654,0.597-3.207,1.181-4.403,1.655c-2.857-5.98-4.047-16.263-2.667-22.094      c0.381-1.626,0.962-2.893,1.752-3.635c0,0,2.377,0.836,4.641,6.097c0.823,1.92,1.559,3.762,2.391,5.45      C276.067,119.405,277.768,125.969,272.38,127.942z"/>
			</g>
			<g style="opacity:0.48;">
				<path style="fill:#EA4949;" d="M344.457,176.318c-2.66,2.646-2.705,7.881,0.753,10.389c4.63,3.357,12.834,2.405,16.386-2.213      c2.999-3.898,0.472-10.695-3.192-11.789c-3.097-0.924-6.274-0.451-9.151,0.728C347.916,173.982,345.948,174.835,344.457,176.318      z"/>
			</g>
			<g style="opacity:0.48;">
				<path style="fill:#EA4949;" d="M275.075,176.237c2.693,2.634,2.802,7.921-0.625,10.505c-4.589,3.46-12.805,2.618-16.414-1.993      c-3.047-3.893-0.603-10.796,3.048-11.955c3.086-0.98,6.269-0.548,9.161,0.601C271.588,173.928,273.566,174.761,275.075,176.237z      "/>
			</g>
			<g>
				<path style="fill:#AE312F;" d="M331.357,119.364c-0.902,1.661-1.726,3.281-2.508,4.769c-1.54,2.902-2.918,5.905-4.192,8.94      c-0.967,2.273-2.809,4.593-5.395,5.068c-3.25,0.622-6.294-1.338-8.076-3.95c-2.231-3.242-2.501-7.24-2.112-11.06      c0.103-1.039,0.272-2.129,0.482-3.149C309.556,119.983,322.243,119.302,331.357,119.364z"/>
			</g>
			<g>
				<path style="fill:#AE312F;" d="M249.47,179.92c-3.482,0.741-7.187-0.258-10.506-1.845c0.021-0.336,0.042-0.672,0.074-1.022      c0.022-0.324,0.044-0.66,0.077-0.997c0.282-2.998,0.703-6.013,1.318-9.015C247.496,172.827,255.995,178.519,249.47,179.92z"/>
			</g>
			<g>
				<path style="fill:#AE312F;" d="M248.607,189.082c-2.246,1.48-5.764,1.842-9.11,1.745c-0.113-0.78-0.215-1.575-0.305-2.384      c-0.189-1.771-0.308-3.601-0.333-5.496c0.003-0.077-0.005-0.14-0.002-0.218C245.801,184.301,252.567,186.472,248.607,189.082z"/>
			</g>
			<g>
				<path style="fill:#AE312F;" d="M247.88,164.124c-1.96-0.184-4.059-1.261-6.035-2.674c0.023-0.118,0.059-0.238,0.095-0.358      c0.769-2.496,1.695-4.974,2.822-7.388C248.975,159.073,252.422,164.554,247.88,164.124z"/>
			</g>
			<g>
				<path style="fill:#AE312F;" d="M350.456,120.561c-2.552,3.376-5.048,6.834-7.1,7.366c-5.103,1.347-7.561-3.169-5.128-8.368      c3.279,0.151,6.438,0.377,9.47,0.692c0.411,0.034,0.803,0.077,1.195,0.121C349.427,120.428,349.941,120.494,350.456,120.561z"/>
			</g>
			<g>
				<path style="fill:#AE312F;" d="M307.427,120.095c-1.436,2.27-2.929,4.312-4.404,4.865c-3.985,1.507-7.341-1.244-6.435-3.634      C296.589,121.327,300.652,120.351,307.427,120.095z"/>
			</g>
			<g style="opacity:0.48;">
				<path style="fill:#AE312F;" d="M247.153,212.476c1.06,1.532,2.117,3.062,3.243,4.533c0.552,0.742,1.123,1.468,1.72,2.164      c0.595,0.684,1.241,1.368,1.927,1.819l0.201,0.132l0.008,0.265c0.025,0.776,0.092,1.59,0.268,2.335      c0.152,0.727,0.534,1.499,0.914,1.534c0.179,0.022,0.242,0.017,0.408-0.257c0.139-0.262,0.227-0.629,0.285-0.997      c0.113-0.746,0.108-1.564,0.071-2.333l-0.112-2.323l1.163,2c0.428,0.736,0.917,1.474,1.439,2.157      c0.524,0.679,1.091,1.341,1.725,1.818c0.311,0.242,0.657,0.418,0.933,0.428c0.314,0.01,0.547-0.063,0.619-0.277      c0.213-0.524-0.049-1.495-0.36-2.218l-0.483-1.126l1.033,0.6c1.268,0.736,2.615,1.376,3.966,1.978      c1.357,0.6,2.758,1.095,4.219,1.421c-1.498-0.103-2.964-0.502-4.396-0.959c-1.432-0.476-2.809-1.071-4.175-1.742l0.55-0.526      c0.22,0.436,0.388,0.861,0.518,1.333c0.111,0.469,0.221,0.985,0.018,1.594c-0.11,0.296-0.36,0.602-0.662,0.737      c-0.15,0.081-0.3,0.133-0.442,0.15c-0.145,0.035-0.292,0.052-0.446,0.034c-0.621-0.024-1.097-0.3-1.497-0.578      c-0.813-0.569-1.424-1.273-1.99-1.996c-0.566-0.728-1.073-1.471-1.548-2.27l1.051-0.323c0.059,0.873,0.04,1.712-0.094,2.596      c-0.079,0.441-0.173,0.889-0.423,1.357c-0.078,0.118-0.152,0.236-0.244,0.349c-0.121,0.108-0.227,0.227-0.379,0.307      c-0.314,0.173-0.681,0.205-0.987,0.129c-0.641-0.145-1.027-0.656-1.242-1.074c-0.221-0.437-0.333-0.872-0.428-1.304      c-0.167-0.867-0.229-1.704-0.2-2.574l0.208,0.397c-0.834-0.629-1.421-1.368-2.004-2.115c-0.57-0.753-1.104-1.523-1.615-2.307      C248.923,215.757,247.982,214.146,247.153,212.476z"/>
			</g>
			<g>
				<g>
					<g>
						<path style="fill:#FFFFFF;" d="M363.764,168.398c-5.622,4.247-14.667,5.997-21.379,3.742c-1.434-0.483-2.778-1.169-3.999-2.09        c-5.286-4.027-8.511-11.383-8.843-17.968c-0.019-0.151-0.026-0.304-0.033-0.457c-0.212-6.652,3.314-12.848,8.96-16.303        c6.61-4.04,16.657-5.778,23.187-0.743c2.576,1.99,4.67,4.824,6.136,8.059l0.013-0.002        C371.743,151.246,371.29,162.702,363.764,168.398z"/>
					</g>
					<g>
						<path style="fill:#AE312F;" d="M363.764,168.398c-3.18,2.398-7.013,3.802-10.919,4.498c-1.962,0.335-3.965,0.456-5.962,0.325        c-1.995-0.121-3.996-0.493-5.882-1.255c-1.892-0.755-3.589-1.982-5.021-3.414c-1.447-1.43-2.682-3.068-3.714-4.819        c-2.056-3.513-3.326-7.487-3.673-11.603l0.007,0.073c-0.388-4.926,1.203-9.768,4.303-13.506        c1.537-1.854,3.404-3.47,5.508-4.629c2.071-1.179,4.278-2.086,6.568-2.704c4.549-1.195,9.608-1.287,14.023,0.742        c2.208,0.99,4.091,2.578,5.589,4.373c1.52,1.8,2.705,3.838,3.614,5.972l-0.469-0.262l0.012-0.001l0.343-0.035l0.126,0.295        c0.933,2.191,1.57,4.495,1.91,6.834c0.331,2.339,0.383,4.715,0.104,7.05c-0.285,2.335-0.949,4.621-2.005,6.716        C367.165,165.137,365.644,166.999,363.764,168.398z M363.764,168.398c1.865-1.419,3.362-3.293,4.395-5.384        c1.05-2.09,1.608-4.397,1.825-6.708c0.435-4.643-0.599-9.348-2.59-13.481l0.468,0.26l-0.012,0.002l-0.318,0.049l-0.152-0.311        c-0.983-2.012-2.22-3.898-3.732-5.51c-1.509-1.622-3.279-2.952-5.291-3.729c-4.034-1.572-8.625-1.368-12.806-0.142        c-4.207,1.225-8.187,3.372-10.938,6.671c-0.688,0.824-1.295,1.713-1.836,2.64c-0.506,0.944-0.98,1.911-1.331,2.927        c-0.346,1.014-0.636,2.056-0.78,3.123c-0.103,0.53-0.117,1.069-0.175,1.605c-0.002,0.515-0.042,1.122-0.007,1.551l0.006,0.073        c0.122,3.804,1.119,7.643,2.901,11.075c0.894,1.714,1.988,3.33,3.292,4.761c1.301,1.438,2.823,2.665,4.588,3.479        c3.542,1.631,7.648,1.918,11.544,1.37C356.728,172.173,360.555,170.739,363.764,168.398z"/>
					</g>
				</g>
				<g>
					<path style="fill:#AE312F;" d="M350.035,167.602c5.309,0.094,10.876-2.642,13.451-7.405c4.103-7.589,0.584-18.171-7.302-21.574       c-4.235-1.827-9.677-1.641-13.701,0.663c-10.755,6.157-7.636,23.364,3.281,27.523       C347.109,167.322,348.558,167.576,350.035,167.602z"/>
				</g>
				<g style="opacity:0.21;">
					<path style="fill:#AE312F;" d="M367.793,142.637c-24.338-7.929-36.763,7.447-38.25,9.445c-0.019-0.151-0.026-0.304-0.033-0.457       c-0.212-6.652,3.314-12.848,8.96-16.303c6.61-4.04,16.657-5.778,23.187-0.743C364.232,136.569,366.326,139.402,367.793,142.637       z"/>
				</g>
			</g>
			<g>
				<g>
					<g>
						<path style="fill:#FFFFFF;" d="M286.554,160.025c-2.232,5.684-8.633,8.556-14.335,9.083c-0.787,0.062-1.569,0.06-2.336-0.021        c-9.276-0.952-16.138-12.469-13.892-21.449c0.214-0.925,0.548-1.826,0.975-2.689c3.777-7.536,15.385-11.691,22.975-7.691        c1.831,0.983,3.16,2.749,4.169,4.517c0.693,1.206,1.318,2.575,1.838,4.034C287.612,150.377,288.217,155.799,286.554,160.025z"/>
					</g>
					<g>
						<path style="fill:#AE312F;" d="M286.554,160.026c-0.789,2.006-2.138,3.771-3.818,5.124c-1.674,1.36-3.606,2.406-5.655,3.107        c-1.023,0.357-2.069,0.658-3.136,0.868c-1.062,0.219-2.154,0.383-3.264,0.372c-2.212-0.066-4.425-0.642-6.382-1.725        c-3.943-2.15-6.87-5.874-8.515-10.048c-0.797-2.105-1.293-4.355-1.309-6.656l0.1-1.726c0.07-0.571,0.192-1.137,0.288-1.705        c0.215-1.133,0.623-2.266,1.153-3.301c2.213-4.184,6.196-6.982,10.446-8.388c4.251-1.381,9.084-1.481,13.153,0.541        c2.125,0.958,3.559,2.879,4.604,4.76c1.067,1.914,1.808,3.97,2.388,6.051c0.576,2.085,0.92,4.233,0.961,6.389        C287.617,155.838,287.351,158.021,286.554,160.026z M286.554,160.026c1.515-4.073,1.04-8.595-0.252-12.635        c-0.662-2.034-1.558-3.993-2.699-5.775c-1.14-1.763-2.562-3.397-4.472-4.095c-3.815-1.606-8.218-1.188-12.014,0.27        c-3.802,1.454-7.284,4.072-9.085,7.575c-0.459,0.873-0.805,1.78-1.002,2.758c-0.086,0.49-0.201,0.977-0.27,1.471l-0.107,1.495        c-0.031,2.007,0.304,4.042,0.961,5.979c1.279,3.864,3.73,7.519,7.254,9.733c1.745,1.12,3.756,1.787,5.837,1.991        c1.042,0.079,2.099-0.009,3.155-0.156c1.054-0.142,2.104-0.352,3.122-0.677c2.039-0.619,4.008-1.552,5.699-2.874        C284.37,163.759,285.738,162.022,286.554,160.026z"/>
					</g>
				</g>
				<g>
					<path style="fill:#AE312F;" d="M266.175,161.934c0.4,0.269,4.274,4.124,11.604,1.009c7.33-3.114,5.487-12.782,4.006-15.853       c-1.481-3.071-6.137-9.238-14.537-5.986C258.848,144.356,259.3,157.299,266.175,161.934z"/>
				</g>
				<g style="opacity:0.21;">
					<path style="fill:#AE312F;" d="M285.948,145.808c-10.81-4.818-23.509-0.869-29.958,1.83c0.214-0.925,0.548-1.826,0.975-2.689       c3.777-7.536,15.385-11.691,22.975-7.691c1.831,0.983,3.16,2.749,4.169,4.517C284.804,142.981,285.428,144.349,285.948,145.808       z"/>
				</g>
			</g>
			<g>
				<path style="fill:#AE312F;" d="M404.062,152.142c-20.047,14.725-28.632,1.173-20.17-2.221      c5.669-2.278,10.704-6.104,14.015-8.682C400.599,144.535,402.655,148.168,404.062,152.142z"/>
			</g>
			<g>
				<path style="fill:#AE312F;" d="M408.183,171.528c-7.493,3.948-16.951,6.734-24.834,4.347c-2.974-0.901-5.716-3.382-5.055-6.326      c0.272-1.176,1.083-2.254,2.116-3.092c3.052-2.494,7.538-3.403,11.434-4.313c4.43-1.043,9.534-3.633,13.487-5.999      C405.332,156.145,407.699,162.751,408.183,171.528z"/>
			</g>
			<g>
				<path style="fill:#AE312F;" d="M408.336,177.273c-0.098,5.436-0.977,10.676-2.708,15.668c-5.261,1.56-11.187,1.038-16.158-1.132      c-2.214-0.972-4.285-2.72-4.085-5.361c0.257-3.494,4.765-4.432,7.535-4.723C400.435,180.94,405.625,178.723,408.336,177.273z"/>
			</g>
			<g>
				<g>
					<path style="fill:#AE312F;" d="M241.738,188.884c3.179-1.628,6.476-2.932,9.801-4.158c3.337-1.193,6.703-2.306,10.187-3.093       c-3.178,1.63-6.475,2.934-9.801,4.158C248.587,186.982,245.221,188.094,241.738,188.884z"/>
				</g>
				<g>
					<path style="fill:#AE312F;" d="M238.967,180.489c3.355-0.805,6.747-1.27,10.148-1.65c3.404-0.346,6.817-0.607,10.268-0.524       c-3.355,0.808-6.747,1.272-10.148,1.65C245.83,180.309,242.417,180.57,238.967,180.489z"/>
				</g>
				<g>
					<path style="fill:#AE312F;" d="M240.291,169.593c3.367,0.752,6.618,1.827,9.839,2.98c3.21,1.185,6.39,2.453,9.452,4.044       c-3.369-0.749-6.619-1.824-9.84-2.98C246.534,172.45,243.353,171.183,240.291,169.593z"/>
				</g>
			</g>
			<g>
				<path style="fill:#FFFFFF;" d="M366.859,119.683c0,0-2.468,0.15-3.196-0.334c-0.741-0.482,3.019-1.054,3.019-1.054      c-1.983-0.566-3.805-2.576-3.166-2.696c0.649-0.134,3.054,1.224,3.054,1.224c-2.712-3.05-1.732-8.304,0.846-8.301      c1.103,0,2.585,2.258,3.914,4.831c-0.578,9.19,5.654,15.096,6.745,15.802c-4.479-3.131-9.676-5.067-13.861-6.209      C364.612,121.048,366.859,119.683,366.859,119.683z"/>
			</g>
			<g>
				<path style="fill:#FFFFFF;" d="M272.38,127.942c0.092-2.076,1.864-5.162,2.022-5.426c-0.156,0.084-1.801,1.052-2.667,0.701      c-0.906-0.371,1.847-1.891,1.847-1.891s-2.21,0.463-2.472-0.183c-0.273-0.632,2.02-0.746,2.02-0.746      c-1.726-0.766-5.186-4.745-3.34-6.149c1.204-0.911,3.108,0.243,4.303,1.166c1.973,3.991,4.513,7.101,10.286,8.322      C284.379,123.737,277.768,125.969,272.38,127.942z"/>
			</g>
			<g>
				<g>
					<path style="fill:#AE312F;" d="M306.936,155.673c0,0-3.531-3.931-5.198-3.091c-1.667,0.84,3.647,6.793,5.587,7.275       c1.941,0.482,5.806-6.336,4.71-7.552C310.94,151.089,306.936,155.673,306.936,155.673z"/>
				</g>
				<g>
					<path style="fill:#AE312F;" d="M314.502,182.386c-0.745-1.883-1.411-3.793-2.109-5.692l-1.951-5.747       c-0.651-1.916-1.235-3.853-1.829-5.79c-0.564-1.95-1.134-3.882-1.563-5.91l1.108,0.012c-0.807,3.822-1.519,7.678-2.204,11.531       c-0.336,1.928-0.652,3.861-0.908,5.801c-0.291,1.937-0.504,3.883-0.668,5.842c-0.09-1.965,0.015-3.934,0.123-5.899       c0.141-1.964,0.368-3.918,0.6-5.872c0.483-3.907,1.165-7.777,1.951-11.639l0.549-2.699l0.559,2.712       c0.398,1.93,0.951,3.886,1.487,5.824l1.633,5.831l1.646,5.835C313.443,178.481,314.004,180.423,314.502,182.386z"/>
				</g>
				<g style="opacity:0.48;">
					<path style="fill:#AE312F;" d="M298.877,160.887c-3.156,0.9-6.121,3.03-7.798,6.201c-2.431,4.596-2.658,10.223,0.943,14.107       c2.235,2.41,5.272,3.631,8.296,4.313c5.796,1.306,11.646,2.194,17.421,0.275c2.095-0.696,4.144-1.718,5.797-3.339       c2.533-2.484,3.963-6.353,3.748-10.143c-0.214-3.789-2.068-7.41-4.859-9.492c-3.434-2.561-8.404-3.182-12.434-2.934       C306.402,160.095,302.347,159.897,298.877,160.887z"/>
				</g>
			</g>
			<g>
				<g>
					<path style="fill:#AE312F;" d="M363.063,184.548c3.57-0.115,7.108,0.111,10.638,0.422c3.527,0.344,7.046,0.775,10.533,1.55       c-3.57,0.118-7.108-0.109-10.638-0.422C370.069,185.751,366.55,185.321,363.063,184.548z"/>
				</g>
				<g>
					<path style="fill:#AE312F;" d="M384.796,177.698c-3.318,0.949-6.686,1.558-10.067,2.084c-3.386,0.492-6.785,0.9-10.236,0.964       c3.318-0.952,6.686-1.56,10.068-2.084C377.946,178.172,381.345,177.765,384.796,177.698z"/>
				</g>
				<g>
					<path style="fill:#AE312F;" d="M380.765,167.489c-2.563,2.311-5.32,4.34-8.125,6.299c-2.825,1.931-5.699,3.791-8.769,5.367       c2.561-2.313,5.319-4.342,8.125-6.299C374.822,170.927,377.696,169.067,380.765,167.489z"/>
				</g>
			</g>
			<g style="opacity:0.48;">
				<path style="fill:#AE312F;" d="M362.455,230.447c1.487-0.933,2.984-1.843,4.443-2.809c1.464-0.955,2.93-1.91,4.298-2.968      l0.88-0.68l-0.24,1.118c-0.101,0.47-0.167,0.985-0.162,1.458c-0.006,0.465,0.122,0.957,0.295,1.063      c0.059,0.054,0.23,0.08,0.347,0.051c0.078-0.013,0.231-0.117,0.364-0.279c0.273-0.325,0.502-0.773,0.698-1.226      c0.385-0.921,0.693-1.907,0.94-2.905c0.241-0.989,0.459-2.034,0.542-2.992l0.163-1.892l0.902,1.664      c0.368,0.68,0.818,1.371,1.319,1.946c0.497,0.574,1.134,1.052,1.529,0.863c0.477-0.147,0.896-0.876,1.135-1.593      c0.247-0.732,0.413-1.539,0.513-2.315l0.044-0.34l0.31-0.06c1.821-0.353,3.653-0.956,5.377-1.728      c0.875-0.367,1.724-0.8,2.545-1.282c0.828-0.475,1.6-1.037,2.368-1.615c-1.35,1.37-2.963,2.484-4.668,3.404      c-1.729,0.892-3.53,1.6-5.452,2.085l0.354-0.4c-0.052,0.876-0.183,1.715-0.447,2.563c-0.134,0.422-0.299,0.844-0.551,1.254      c-0.248,0.4-0.612,0.825-1.172,1.037c-0.269,0.101-0.588,0.139-0.891,0.083c-0.294-0.056-0.542-0.172-0.759-0.301      c-0.431-0.265-0.759-0.588-1.062-0.919c-0.595-0.674-1.063-1.38-1.495-2.155l1.065-0.229c-0.099,1.135-0.338,2.148-0.598,3.195      c-0.274,1.035-0.58,2.065-1.041,3.067c-0.238,0.499-0.493,0.998-0.908,1.47c-0.211,0.226-0.482,0.483-0.924,0.578      c-0.395,0.07-0.788,0.011-1.149-0.26c-0.652-0.605-0.598-1.298-0.602-1.848c0.028-0.577,0.127-1.105,0.276-1.654l0.64,0.437      c-1.468,1-2.978,1.903-4.521,2.747C365.608,228.904,364.054,229.721,362.455,230.447z"/>
			</g>
			<g>
				<path style="fill:#AE312F;" d="M334.563,172.268c0,0,6.395,7.237,14.556,6.296"/>
			</g>
			<g>
				<path style="fill:#AE312F;" d="M274.348,172.877c0,0,8.262,0.614,12.107-6.137"/>
			</g>
			<g style="opacity:0.48;">
				<g>
					<path style="fill:#AE312F;" d="M373.273,296.242c-6.31,4.367-12.224,9.288-17.706,14.619       c-5.424,5.376-10.473,11.179-14.477,17.64c-4.018,6.421-6.761,13.661-7.745,21.114c-0.525,3.696-0.537,7.491,0.446,11.011       c0.893,3.473,3.078,6.81,5.949,8.485l0.332,0.193l0.151,0.278c0.744,1.374,1.721,2.758,2.757,3.998       c1.05,1.247,2.214,2.388,3.49,3.357c1.291,0.944,2.697,1.688,4.175,2.17c1.488,0.472,3.043,0.536,4.581,0.415l0.274-0.022       l0.291,0.099c2.143,0.729,4.806,0.8,7.175,0.274c2.427-0.469,4.705-1.614,6.745-3.076c4.351-2.863,6.587-7.44,8.393-12.41       c1.819-4.917,3.529-10.061,6.218-14.778c2.643-4.722,6.271-8.99,10.728-12.107c4.431-3.183,9.5-5.165,14.341-7.214       c4.885-2.055,9.784-4.066,14.56-6.311c4.753-2.254,9.507-4.664,13.386-8.217c3.918-3.509,6.47-8.386,7.486-13.592       c-0.422,2.613-1.148,5.2-2.323,7.604c-1.182,2.398-2.814,4.571-4.722,6.451c-3.848,3.767-8.592,6.402-13.316,8.809       c-4.769,2.365-9.635,4.484-14.474,6.641c-4.853,2.172-9.703,4.199-13.849,7.316c-4.157,3.087-7.575,7.067-10.06,11.609       c-2.54,4.529-4.168,9.512-5.982,14.534c-0.906,2.504-1.93,5.038-3.38,7.412c-0.679,1.216-1.618,2.286-2.546,3.359       c-1,0.951-2.01,1.891-3.142,2.705c-4.43,3.329-10.436,5-16.094,3.062l0.564,0.077c-1.849,0.149-3.739,0.04-5.508-0.534       c-1.755-0.581-3.375-1.464-4.822-2.541c-1.428-1.099-2.695-2.364-3.826-3.726c-1.129-1.38-2.123-2.79-2.989-4.414l0.482,0.471       c-3.792-2.245-5.943-5.96-6.989-9.841c-1.056-3.9-0.994-7.949-0.42-11.819c1.173-7.757,4.181-15.131,8.427-21.628       c4.236-6.505,9.429-12.298,15.11-17.495C360.667,305.051,366.74,300.285,373.273,296.242z"/>
				</g>
			</g>
			<g>
				<path style="fill:#AE312F;" d="M355.355,380.642c-0.73-1.603-0.931-3.397-0.864-5.148c0.062-1.762,0.44-3.512,1.057-5.167      c0.679-1.627,1.479-3.22,2.621-4.561c1.073-1.382,2.401-2.549,3.883-3.459c-0.791,1.57-1.654,2.97-2.382,4.435      c-0.768,1.436-1.395,2.915-1.978,4.4c-0.6,1.483-1.027,3.023-1.433,4.59C355.879,377.311,355.57,378.917,355.355,380.642z"/>
			</g>
			<g>
				<path style="fill:#AE312F;" d="M339.286,370.059c-0.719-1.179-1.08-2.499-1.28-3.819c-0.21-1.326-0.209-2.674-0.073-4.006      c0.321-2.647,1.221-5.286,3.027-7.342c-0.019,1.381-0.2,2.634-0.327,3.891l-0.421,3.707      C339.909,364.958,339.704,367.385,339.286,370.059z"/>
			</g>
			<g>
				<path style="fill:#AE312F;" d="M230.16,284.108c0.182,2.665-1.341,5.198-3.278,7.035c-1.92,1.854-4.271,3.212-6.39,4.85      c-3.062,2.4-4.685,6.125-6.539,9.552c-7.35-5.596-12.598-12.532-14.982-18.607c1.175-0.679,2.4-1.308,3.609-1.904      c7.714-3.774,16.571-6.903,24.749-4.271c0.745,0.248,1.49,0.546,2.02,1.126C229.879,282.486,230.111,283.313,230.16,284.108z"/>
			</g>
			<g>
				<path style="fill:#FF5555;" d="M268.434,274.953c-29.284,6.423-39.284,29.434-41.949,37.694      c-0.033-0.017-0.05-0.017-0.083-0.033c-1.738-0.762-3.377-1.573-4.933-2.4c-2.781-1.473-5.281-3.046-7.516-4.668      c6.986-21.471,23.126-31.95,34.598-35.989c3.626,0.315,7.002,0.927,10.148,1.771      C262.242,272.271,265.487,273.497,268.434,274.953z"/>
			</g>
			<g style="opacity:0.48;">
				<g>
					<path style="fill:#AE312F;" d="M198.839,257.571c-1.942,5.815-2.623,12.009-2.067,18.051       c0.612,6.034,2.578,11.912,5.809,16.993c3.234,5.09,7.669,9.343,12.642,12.738c2.498,1.699,5.098,3.23,7.834,4.545       c1.373,0.649,2.726,1.34,4.114,1.955l4.192,1.7l0.277,0.112l0.186,0.242c1.913,2.487,4.25,4.799,6.736,6.775       c2.506,1.973,5.262,3.619,8.218,4.658c2.97,0.986,6.126,1.204,9.13,0.583c3.068-0.496,5.738-2.283,8.309-4.042l0.377-0.257       l0.383,0.012c1.789,0.054,3.716-0.126,5.529-0.464c1.824-0.353,3.617-0.873,5.249-1.682c1.624-0.817,3.071-1.91,4.208-3.262       c1.15-1.359,1.78-3.048,2.232-4.776l0.139-0.531l0.48-0.224c2.635-1.231,4.94-3.681,5.755-6.532       c0.928-2.877,0.277-6.09-0.787-9.012c-2.368-5.899-6.835-10.926-11.942-14.859c-2.572-1.995-5.429-3.537-8.288-5.099       c-2.92-1.428-5.973-2.607-9.12-3.495c-6.288-1.798-12.893-2.457-19.47-2.324c6.563-0.509,13.239-0.071,19.688,1.502       c3.217,0.791,6.395,1.828,9.417,3.236c2.951,1.52,5.942,3.05,8.63,5.037c5.358,3.946,10.123,8.988,12.841,15.297       c1.24,3.15,2.007,6.789,0.948,10.284c-1.023,3.49-3.575,6.311-6.875,7.882l0.619-0.755c-0.494,2.025-1.251,4.053-2.618,5.702       c-1.347,1.637-3.052,2.927-4.892,3.868c-1.848,0.933-3.817,1.516-5.797,1.915c-2,0.381-3.962,0.592-6.058,0.546l0.759-0.246       c-2.771,1.97-5.747,3.943-9.262,4.491c-3.424,0.687-7.024,0.39-10.291-0.73c-3.251-1.169-6.188-2.968-8.823-5.074       c-2.632-2.135-4.994-4.493-7.069-7.233l0.462,0.354l-4.313-1.789c-1.407-0.636-2.78-1.351-4.172-2.022       c-2.787-1.342-5.433-3.022-7.963-4.821c-5.051-3.623-9.544-8.134-12.771-13.486c-3.256-5.331-5.086-11.468-5.444-17.647       C195.648,269.51,196.568,263.277,198.839,257.571z"/>
				</g>
			</g>
			<g>
				<path style="fill:#AE312F;" d="M264.925,322.755c-1.233-3.296-2.521-6.293-4.304-9.01c-0.848-1.379-1.845-2.656-2.945-3.87      c-1.073-1.26-2.338-2.328-3.611-3.59c1.712,0.412,3.4,1.144,4.814,2.263c1.47,1.056,2.69,2.441,3.673,3.959      c0.96,1.534,1.712,3.197,2.119,4.944C265.086,319.186,265.249,320.998,264.925,322.755z"/>
			</g>
			<g>
				<path style="fill:#AE312F;" d="M283.213,311.647c-1.72-3.358-3.177-6.631-5.128-9.547c-0.958-1.453-2.004-2.839-3.262-4.008      c-1.274-1.156-2.723-2.09-4.483-2.859c1.894-0.19,3.893,0.377,5.569,1.436c1.703,1.05,2.997,2.582,4.092,4.172      c1.059,1.626,1.856,3.382,2.391,5.205C282.932,307.862,283.279,309.739,283.213,311.647z"/>
			</g>
			<g style="opacity:0.48;">
				<g>
					<path style="fill:#AE312F;" d="M264.925,336.762c1.516-0.288,3.08-0.038,4.53,0.445c1.464,0.478,2.824,1.254,4.043,2.197       c2.378,1.951,4.193,4.61,4.765,7.605c-1.136-1.037-2.083-2.095-3.103-3.065c-0.992-0.99-2.032-1.886-3.09-2.746       c-1.054-0.87-2.19-1.624-3.359-2.371C267.523,338.1,266.297,337.416,264.925,336.762z"/>
				</g>
			</g>
			<g style="opacity:0.48;">
				<g>
					<path style="fill:#AE312F;" d="M266.233,344.239c0.842-1.115,1.609-2.4,2.734-3.367c1.076-1.017,2.369-1.807,3.74-2.399       c2.757-1.145,5.909-1.356,8.674-0.345c-1.42,0.458-2.757,0.733-4.048,1.139c-1.293,0.371-2.535,0.805-3.739,1.321       c-1.221,0.48-2.389,1.082-3.575,1.725C268.814,342.918,267.72,343.82,266.233,344.239z"/>
				</g>
			</g>
			<g>
				<path style="fill:#AE312F;" d="M299.294,511.043c0.114-0.947-0.18-2-0.012-3.035c0.085-1.045,0.391-2.083,0.851-3.068      c0.486-0.972,1.187-1.864,2.057-2.536c0.842-0.702,1.916-1.104,2.989-1.197c-0.611,0.933-1.215,1.631-1.686,2.425      c-0.468,0.781-0.939,1.511-1.307,2.329c-0.414,0.791-0.762,1.632-1.179,2.501c-0.198,0.437-0.419,0.883-0.657,1.34      C300.068,510.209,299.882,510.831,299.294,511.043z"/>
			</g>
			<g>
				<path style="fill:#AE312F;" d="M106.972,331.532c0.117-2.303,1.846-4.267,3.917-5.251c2.114-0.943,4.588-0.975,6.55,0.142      c-1.077,0.402-2.05,0.627-2.974,0.936c-0.926,0.282-1.781,0.625-2.61,1.001c-0.843,0.355-1.614,0.839-2.421,1.345      C108.637,330.235,107.849,330.821,106.972,331.532z"/>
			</g>
			<g>
				<path style="fill:#AE312F;" d="M224.383,257.008c-1.092,3.145-5.148,3.857-8.476,3.89c-6.009,0.05-12.168-0.447-18.16,0.265      c1.357-5.198,3.791-10.793,7.681-16.72c5.993,0.315,11.986,1.639,16.323,5.628C223.687,251.86,225.26,254.542,224.383,257.008z"/>
			</g>
			<g>
				<path style="fill:#AE312F;" d="M233.802,233.038c-1.49,1.986-4.354,2.367-6.804,1.97c-3.311-0.53-6.34-2.152-9.618-2.798      c-0.629-0.132-1.241-0.199-1.871-0.232c3.493-3.609,7.119-6.705,10.793-9.337c0.53,0.099,1.043,0.232,1.556,0.381      c2.202,0.629,4.354,1.755,5.678,3.609C234.878,228.502,235.16,231.2,233.802,233.038z"/>
			</g>
			<g>
				<path style="fill:#AE312F;" d="M430.617,231.3c-4.155,1.556-8.36,3.029-12.548,4.486c-3.626,1.275-7.35,2.549-11.174,2.483      c-2.152-0.05-4.47-0.629-5.778-2.318c-0.861-1.109-1.176-2.566-1.126-3.956c0.149-4.586,3.791-8.261,7.466-11.008      c2.384-1.788,5.397-4.188,8.509-5.612C420.783,219.529,425.915,224.794,430.617,231.3z"/>
			</g>
			<g>
				<path style="fill:#AE312F;" d="M444.357,259.905c-1.523-0.033-2.947-0.083-4.072,0.033c-5.049,0.464-9.999,2.996-14.965,1.987      c-0.712-0.149-1.457-0.381-1.97-0.894c-0.861-0.861-0.911-2.285-0.414-3.394c0.497-1.092,1.423-1.937,2.367-2.715      c3.344-2.731,8.857-6.241,14.402-7.963C441.509,250.95,443.082,255.27,444.357,259.905z"/>
			</g>
			<g>
				<path style="fill:#AE312F;" d="M440.053,313.244c-2.897,3.725-6.97,6.638-12.283,9.452c-0.811-1.904-1.341-3.956-2.566-5.628      c-1.358-1.854-3.427-3.03-5.413-4.155c-2.003-1.126-4.056-2.318-5.38-4.188c-1.324-1.871-1.705-4.619-0.232-6.39      c1.308-1.589,3.592-1.904,5.645-1.821c5.149,0.215,10.247,2.516,14.403,6.009C436.51,308.443,438.513,310.727,440.053,313.244z"/>
			</g>
			<g>
				<path style="fill:#AE312F;" d="M373.173,323.871c-5.297,0.778-10.495-1.424-15.694-2.748c-3.543-0.894-7.185-1.391-10.827-1.44      c4.337-5.215,9.105-9.784,13.392-13.442c2.301,0.629,4.552,1.407,6.738,2.351c2.897,1.241,7.069,2.632,9.817,4.999      c1.009,0.894,1.837,1.904,2.334,3.112C380.54,320.66,376.617,323.358,373.173,323.871z"/>
			</g>
			<g>
				<path style="fill:#AE312F;" d="M450.581,354.216c-1.241,6.208-3.096,12.598-5.728,18.971c-3.162-1.076-6.241-2.434-9.304-3.774      c-5.877-2.583-11.77-5.198-17.018-8.89c-1.54-1.093-3.129-2.467-3.361-4.337c-0.215-1.689,0.778-3.328,2.086-4.437      c3.245-2.748,7.929-2.765,12.167-2.334C436.643,350.143,443.761,351.766,450.581,354.216z"/>
			</g>
			<g>
				<path style="fill:#AE312F;" d="M434.888,391.479c-3.228,4.669-7.019,9.237-11.439,13.641c-1.821-2.318-3.642-4.652-5.463-6.97      c-2.616-3.327-9.949-11.853-6.705-16.24c0.96-1.291,2.285-1.804,3.775-1.821c4.056-0.066,9.386,3.576,11.853,5.264      C429.673,387.258,432.322,389.327,434.888,391.479z"/>
			</g>
			<g>
				<path style="fill:#AE312F;" d="M406.944,418.728c-4.751,3.245-9.949,6.324-15.677,9.188c-2.566-7.764-4.635-19.617-0.596-26.504      c3.625-6.142,10.048,2.251,11.72,5.661C404.229,410.815,405.752,414.722,406.944,418.728z"/>
			</g>
			<g>
				<path style="fill:#AE312F;" d="M376.65,434.405c-5.728,2.218-11.886,4.271-18.475,6.109c-1.44-5.347-0.414-11.654,0.762-16.968      c0.811-3.625,3.973-9.452,8.691-6.92c1.357,0.728,2.483,2.235,3.46,4.056c1.986,3.692,3.327,8.724,4.503,11.456      C375.888,432.832,376.269,433.594,376.65,434.405z"/>
			</g>
			<g style="opacity:0.48;">
				<g>
					<path style="fill:#AE312F;" d="M266.81,357.106c-1.551,0.132-3.092,0.319-4.571,0.665c-0.733,0.187-1.453,0.418-2.079,0.741       c-0.628,0.277-1.157,0.806-1.142,1.134c-0.057,0.122,0.064,0.064,0.203,0.226c0.241,0.109,0.528,0.213,0.863,0.292       c0.676,0.14,1.41,0.209,2.151,0.24c1.484,0.04,3.024,0.007,4.508-0.11l6.945-0.547l-6.537,2.568       c-1.499,0.589-3.021,1.229-4.477,1.916c-1.434,0.684-2.92,1.492-3.912,2.382c-0.23,0.206-0.374,0.453-0.382,0.469       c-0.001,0.04,0.016-0.119-0.026-0.095c0.037,0.012,0.004,0.064,0.07,0.082c0.132,0.171,0.883,0.327,1.593,0.273       c1.467-0.052,3.09-0.428,4.576-0.888l4.651-1.439l-3.688,3.11c-0.899,0.758-1.823,1.72-2.61,2.711       c-0.795,1.003-1.545,2.056-2.173,3.187c-0.625,1.128-1.231,2.288-1.662,3.525c-0.473,1.225-0.767,2.51-1.065,3.815       c-0.03-2.667,0.531-5.386,1.6-7.9c0.538-1.256,1.18-2.479,1.964-3.611c0.788-1.146,1.607-2.207,2.684-3.225l0.962,1.671       c-1.657,0.593-3.277,1.073-5.13,1.238c-0.913,0.008-1.972,0.12-3.158-0.771c-0.298-0.209-0.498-0.552-0.678-0.893       c-0.145-0.35-0.213-0.965-0.106-1.306c0.224-0.791,0.627-1.201,0.982-1.575c1.462-1.369,3.015-2.034,4.56-2.785       c1.553-0.72,3.115-1.323,4.742-1.856l0.409,2.02c-1.611,0.046-3.179,0.028-4.786-0.162c-0.802-0.098-1.61-0.232-2.437-0.475       c-0.414-0.132-0.848-0.307-1.279-0.594c-0.218-0.223-0.461-0.358-0.607-0.704c-0.075-0.168-0.135-0.346-0.179-0.517       c0.002-0.167,0.023-0.339,0.051-0.506c0.339-1.236,1.315-1.652,2.071-1.952c0.807-0.27,1.607-0.391,2.399-0.471       C263.694,356.861,265.262,356.892,266.81,357.106z"/>
				</g>
			</g>
			<g>
				<path style="fill:#AE312F;" d="M254.337,281.488c0,3.8-5.884,6.88-13.143,6.88c-7.259,0-13.143-3.08-13.143-6.88      c0-0.335-0.07-2.72,0.019-3.042c0.913-3.333,6.505-3.838,13.124-3.838c6.642,0,12.201,0.221,13.086,3.57      C254.361,278.489,254.337,281.166,254.337,281.488z"/>
			</g>
			<g>
				<path style="fill:#FFFFFF;" d="M254.337,278.807c0,3.8-5.884,6.88-13.143,6.88c-7.259,0-13.143-3.08-13.143-6.88      s5.884-6.881,13.143-6.881C248.452,271.927,254.337,275.007,254.337,278.807z"/>
			</g>
		</g>
		<g>
			<path style="fill:#AE312F;" d="M239.171,283.431c-0.045,0-0.09-0.01-0.132-0.033c-0.141-0.073-0.195-0.246-0.123-0.387     l2.602-4.993l-8.251-2.44c-0.152-0.045-0.24-0.204-0.195-0.356c0.047-0.151,0.206-0.24,0.356-0.193l8.585,2.539     c0.083,0.024,0.15,0.084,0.184,0.162s0.029,0.168-0.009,0.244l-2.761,5.301C239.375,283.375,239.274,283.431,239.171,283.431z"/>
		</g>
		<g>
			<path style="fill:#FF5555;" d="M306.491,232.903c0.594,0.044,10.059,0.154,10.059,0.154l1.253,12.562l-1.623,3.565h-9.689     l-5.072-7.267L306.491,232.903z"/>
		</g>
		<g>
			<path style="fill:#FFFFFF;" d="M269.263,226.004c0,0,30.878,6.946,40.834,7.109l-6.994,13.847     C303.103,246.96,276.098,232.194,269.263,226.004z"/>
		</g>
		<g>
			<path style="fill:#FFFFFF;" d="M310.097,233.113l8.779,16.071c0,0,34.888-14.036,46.063-20.289     C364.94,228.895,346.435,233.375,310.097,233.113z"/>
		</g>
		<g>
			<polygon style="fill:#FF5555;" points="305.885,247.478 296.613,289.972 313.564,312.1 328.562,288.963 316.208,247.478    "/>
		</g>
	</g>
</g>















</svg>
