<?xml version="1.0" encoding="UTF-8"?>
<!-- Generator: Adobe Illustrator 25.2.3, SVG Export Plug-In . SVG Version: 6.00 Build 0)  -->
<svg xmlns="http://www.w3.org/2000/svg" xmlns:xlink="http://www.w3.org/1999/xlink" version="1.1" id="Capa_1" x="0px" y="0px" viewBox="0 0 512 512" style="enable-background:new 0 0 512 512;" xml:space="preserve" width="512" height="512">
<g>
	<g>
		<g>
			<path style="fill:#FF9C3D;" d="M511.816,406.133c-0.286,4.92-1.071,9.855-2.43,14.609c-2.294,8.195-6.278,15.862-12.255,22.08     c-9.946,10.338-23.996,16.601-38.138,18.337c-3.411,0.423-6.867,0.589-10.308,0.513c-7.139-0.121-14.262-1.313-21.099-3.456     c-0.664-0.211-1.343-0.422-2.007-0.664c-0.468-0.151-0.921-0.317-1.388-0.483c-13.115-4.814-22.955-15.696-36.131-20.39     c-0.936-0.332-1.871-0.619-2.822-0.89c-12.798-3.532-26.607-1.389-39.254,1.72l8.361-21.476c0.392-1.011,7.953-1.343,8.859-1.434     c4.361-0.468,8.768-0.604,13.16-0.377c2.913,0.151,5.825,0.452,8.693,0.951c6.459,1.102,12.527,3.471,18.292,6.474     c5.463,2.868,10.67,6.309,15.696,9.825c5.283,3.698,10.112,6.49,16.435,8.15c6.384,1.69,13.055,2.022,19.605,1.449     c5.237-0.453,10.202-1.54,14.67-3.441h0.015c5.704-2.415,10.549-6.188,13.96-11.757c0.815-1.313,1.539-2.716,2.188-4.241     c4.361-10.278,4.437-22.095,3.154-33.022c-0.287-2.46-0.649-4.92-1.102-7.365c-0.528-2.883-1.177-5.75-1.947-8.573     c-1.071-3.939-1.826-8.255-1.69-12.33c0.121-3.788,1.222-7.682,3.788-10.474c2.822-3.079,7.833-4.769,11.349-2.037     c3.411,2.641,4.678,7.274,5.901,11.183c0.649,2.052,1.253,4.135,1.826,6.218c2.596,9.599,4.256,19.454,4.679,29.369     C512.057,398.436,512.042,402.284,511.816,406.133z"/>
			<path style="opacity:0.2;fill:#AE312F;" d="M511.816,406.133c-0.286,4.92-1.071,9.855-2.43,14.609     c-2.294,8.195-6.278,15.862-12.255,22.08c-9.946,10.338-23.996,16.601-38.138,18.337c-3.411,0.423-6.867,0.589-10.308,0.513     c-7.139-0.121-14.262-1.313-21.099-3.456c-0.664-0.211-1.343-0.422-2.007-0.664c-0.468-0.151-0.921-0.317-1.388-0.483     c-13.115-4.814-22.955-15.696-36.131-20.39c-0.936-0.332-1.871-0.619-2.822-0.89c-12.798-3.532-26.607-1.389-39.254,1.72     l8.361-21.476c0.392-1.011,7.953-1.343,8.859-1.434c4.361-0.468,8.768-0.604,13.16-0.377c2.913,0.151,5.825,0.452,8.693,0.951     c6.459,1.102,12.527,3.471,18.292,6.474c5.463,2.868,10.67,6.309,15.696,9.825c5.283,3.698,10.112,6.49,16.435,8.15     c6.384,1.69,13.055,2.022,19.605,1.449c5.237-0.453,10.202-1.54,14.67-3.441h0.015c5.704-2.415,10.549-6.188,13.96-11.757     c0.815-1.313,1.539-2.716,2.188-4.241c4.361-10.278,4.437-22.095,3.154-33.022c-0.287-2.46-0.649-4.92-1.102-7.365     c-0.528-2.883-1.177-5.75-1.947-8.573c-1.071-3.939-1.826-8.255-1.69-12.33c0.121-3.788,1.222-7.682,3.788-10.474     c2.822-3.079,7.833-4.769,11.349-2.037c3.411,2.641,4.678,7.274,5.901,11.183c0.649,2.052,1.253,4.135,1.826,6.218     c2.596,9.599,4.256,19.454,4.679,29.369C512.057,398.436,512.042,402.284,511.816,406.133z"/>
		</g>
		<path style="fill:#AE312F;" d="M497.312,357.642c0.634,6.641-2.913,20.344-9.342,23.604c-0.528-2.883-1.177-5.75-1.947-8.573    c-1.071-3.939-1.826-8.255-1.69-12.33c0.121-3.788,1.222-7.682,3.788-10.474c2.822-3.079,7.833-4.769,11.349-2.037    c3.411,2.641,4.678,7.274,5.901,11.183c0.649,2.052,1.253,4.135,1.826,6.218C500.557,364.539,497.312,357.642,497.312,357.642z"/>
		<path style="fill:#AE312F;" d="M511.816,406.133c-0.286,4.92-1.071,9.855-2.43,14.609c-1.706-1.449-3.154-3.516-4.06-6.384    c-3.169-9.961,2.928-16.752,6.55-19.755C512.057,398.436,512.042,402.284,511.816,406.133z"/>
		<path style="fill:#AE312F;" d="M482.356,440.467c-4.18,1.555-9.131-0.664-12.587-2.837c5.704-2.415,10.549-6.188,13.96-11.757    C485.42,430.521,487.472,438.565,482.356,440.467z"/>
		<path style="fill:#AE312F;" d="M448.686,461.671c-7.139-0.121-14.262-1.313-21.099-3.456c-0.664-0.211-1.343-0.422-2.007-0.664    c3.848-3.215,9.629-7.109,14.805-6.852C445.184,450.926,447.539,456.585,448.686,461.671z"/>
		<path style="fill:#AE312F;" d="M403.349,421.647c-3.23,2.958-7.954,5.705-13.704,4.407c-7.184-1.63-11.289-7.742-13.281-11.832    c2.913,0.151,5.825,0.452,8.693,0.951C391.517,416.274,397.584,418.644,403.349,421.647z"/>
	</g>
	<path style="fill:#9BEFE6;" d="M190.545,53.066c-40.48,14.297-77.658,48.623-96.16,87.172   C50.065,232.575,125.66,329.786,206.564,369.7c22.022,10.864,45.55,18.638,69.673,23.202c33.913,6.416,68.134,12.78,102.815,10.476   c59.053-3.923,118.31-40.16,117.078-105.697c-0.378-20.099-6.851-40.016-18.672-56.28c-11.613-15.978-27.301-28.453-39.015-44.362   c-15.6-21.188-20.845-48.543-29.002-72.974c-14.989-44.895-54.096-71.166-99.438-80.087   C271.125,36.329,227.862,39.887,190.545,53.066z"/>
	<path style="fill:#6CE0C0;" d="M206.341,126.258c-0.267-0.29-0.546-0.569-0.801-0.836c-10.65-10.87-25.433-17.675-41.785-17.826   c-0.198-0.012-0.384-0.012-0.581-0.012c-0.198,0-0.383,0-0.581,0.012c-12.844,0.116-24.736,4.355-34.398,11.451   c-0.313,0.221-0.639,0.453-0.941,0.697c-8.158,6.592-14.726,14.583-18.801,24.32c-4.695,11.217-5.793,23.851-3.153,35.717   c1.948,8.755,5.922,17.019,11.526,24.019c0.232,0.314,0.488,0.615,0.732,0.906c9.79,11.788,24.062,19.743,40.17,21.206   c0.383,0.046,0.766,0.069,1.161,0.093c1.417,0.116,2.845,0.163,4.285,0.163c14.83,0,28.406-5.47,38.812-14.493   c0.29-0.256,0.581-0.511,0.871-0.778c11.335-10.22,18.721-24.759,19.534-40.995c0.023-0.383,0.035-0.778,0.046-1.161   c0.023-0.615,0.035-1.243,0.035-1.858C222.472,151.168,216.328,136.884,206.341,126.258z M204.692,126.235l-20.137,19.324   c-5.342-5.354-12.682-8.722-20.799-8.873v-27.93C179.782,108.908,194.263,115.574,204.692,126.235z M192.208,167.497   c0,0.383-0.023,0.778-0.046,1.161c-0.465,7.723-3.972,14.644-9.325,19.592c-0.279,0.256-0.569,0.511-0.871,0.755   c-5.075,4.309-11.637,6.922-18.79,6.922c-0.604,0-1.208-0.023-1.8-0.058c-0.395-0.023-0.778-0.058-1.161-0.093   c-7.677-0.778-14.47-4.564-19.186-10.139c-0.255-0.29-0.499-0.592-0.743-0.906c-6.824-8.775-8.05-21.06-3.006-30.976   c1.932-3.799,4.708-7.156,8.07-9.776c0.302-0.255,0.615-0.487,0.94-0.697c4.611-3.321,10.231-5.319,16.305-5.435   c0.186-0.011,0.383-0.011,0.581-0.011c0.197,0,0.395,0,0.581,0.011c7.781,0.151,14.83,3.38,19.963,8.512   c0.267,0.267,0.534,0.546,0.802,0.836c4.785,5.18,7.7,12.089,7.7,19.685C192.22,167.09,192.22,167.288,192.208,167.497z    M162.594,108.757v27.93c-6.329,0.116-12.194,2.195-17.002,5.667l-16.7-22.379C138.357,113.019,150.005,108.873,162.594,108.757z    M118.464,203.974l21.659-17.606c4.924,5.83,12.008,9.767,19.998,10.568l-2.299,27.814   C142.038,223.31,128.056,215.529,118.464,203.974z M163.175,225.006c-1.405,0-2.81-0.046-4.192-0.163l2.288-27.814   c0.627,0.035,1.266,0.058,1.905,0.058c7.456,0,14.284-2.717,19.557-7.212l18.489,20.927   C191.023,219.652,177.714,225.006,163.175,225.006z M202.091,210.036l-18.488-20.916c5.586-5.145,9.244-12.357,9.721-20.416   l27.907,1.15C220.428,185.764,213.205,200.002,202.091,210.036z M193.369,167.543c0.012-0.221,0.012-0.441,0.012-0.662   c0-7.897-3.055-15.097-8.025-20.486l20.137-19.325c9.814,10.406,15.817,24.423,15.817,39.81c0,0.604-0.011,1.208-0.035,1.812   L193.369,167.543z"/>
	<g>
		<path style="fill:#FF9C3D;" d="M178.78,190.359c0,0-57.852,30.135-75.692,67.536c-17.84,37.4,60.092,2.102,60.092,2.102    L178.78,190.359z"/>
		<path style="opacity:0.2;fill:#AE312F;" d="M178.78,190.359c0,0-57.852,30.135-75.692,67.536    c-17.84,37.4,60.092,2.102,60.092,2.102L178.78,190.359z"/>
	</g>
	<g>
		<path style="fill:#FF9C3D;" d="M289.778,467.095c15.54-1.951,28.973-7.736,40.456-16.315c4.811-3.591,9.266-7.67,13.434-12.17    c0.011-0.012,0.175-0.099,0.424-0.238c0.718-0.4,2.146-1.225,2.689-1.867c0.133-0.155,12.072-17.691,16.994-27.334    c0.111-0.222,0.243-0.466,0.354-0.687c3.99-7.847,7.404-16.205,10.33-24.872c0.221-0.599,0.421-1.197,0.62-1.796    c2.682-8.113,4.944-16.493,6.739-25.005c0.111-0.443,0.2-0.864,0.288-1.308c1.352-6.429,2.483-12.901,3.369-19.397    c0.133-0.798,0.222-1.574,0.332-2.372c1.485-11.128,2.283-22.234,2.527-32.986c0.022-0.687,0.044-1.374,0.044-2.061    c0.089-6.34,0-12.525-0.288-18.532c-0.044-0.621-0.089-1.264-0.111-1.884c-0.044-0.709-0.089-1.397-0.133-2.084    c-0.377-5.586-1.042-11.106-1.995-16.537c-0.111-0.798-0.244-1.574-0.399-2.35c-1.419-7.736-3.392-15.296-5.919-22.567    c-0.31-0.887-0.621-1.773-0.953-2.66c-1.928-5.232-4.167-10.308-6.739-15.163c-0.022-0.067-0.044-0.133-0.089-0.2    c-1.685-3.281-3.524-6.451-5.498-9.51c0-0.022-0.022-0.044-0.044-0.066c-2.15-3.347-4.5-6.584-6.983-9.643    c-0.244-0.288-0.488-0.599-0.732-0.887c-4.611-5.564-9.731-10.641-15.428-15.096c-0.614-0.486-1.228-0.982-1.841-1.466    c6.168-6.13,10.471-12.967,13.14-20.321c2.088-5.738,3.2-11.775,3.4-18.062c0.062-1.787,0.062-3.6-0.013-5.438    c-0.05-0.875-0.1-1.763-0.175-2.638l-0.013-0.1c-0.413-5.313-1.4-10.763-2.9-16.287c-0.669-2.465-1.402-4.928-2.387-7.288    c-1.488-3.6-3.475-6.962-5.938-10.062c0,0-11.842-18.87-16.144-27.893c-4.377-9.147-7.718-21.177-13.399-20.934    c-5.135,0.226-15.553,12.332-16.731,25.065c-0.011,0.112-0.01,0.225-0.02,0.338c-3.192-0.595-6.507-1.113-9.969-1.538    c-0.45-0.05-0.913-0.113-1.375-0.15c-4.35-0.513-8.887-0.888-13.662-1.125c-1.937-0.088-3.938-0.162-5.95-0.213    c-8.7-0.212-18.062,0-28.037,0.663c-0.325,0.012-0.65,0.037-0.95,0.062c-1.125,0.075-2.225,0.163-3.288,0.263    c-2.923,0.263-5.721,0.587-8.438,0.97l-0.407-0.324c-1.713-1.418-3.933-3.533-4.197-3.77c-3.423-3.206-5.746-7.662-8.819-11.174    c-4.467-5.114-10.915-8.511-17.95-6.385c-0.442,0.139-0.832,0.36-1.193,0.697c-0.925,0.844-1.618,2.298-2.087,4.17    c-1.696,6.713-0.499,18.615,2.698,25.574c0.061,0.141,0.137,0.294,0.211,0.433c-12.959,6.424-21.207,15.211-26.419,24.959    c-0.362,0.675-0.7,1.375-1.037,2.062c-1.338,2.763-2.45,5.612-3.388,8.487c-0.733,2.247-1.329,4.531-1.837,6.838    c-0.762,3.463-1.3,6.937-1.687,10.4c-0.038,0.388-0.075,0.775-0.1,1.15c-0.05,0.4-0.075,0.788-0.1,1.175    c-0.15,1.838-0.213,3.638-0.213,5.375v0.262c0,2.187,0.1,4.3,0.287,6.35c0.088,0.937,0.2,1.862,0.313,2.763    c1.987,15.137,8.512,25.975,12.587,31.462c2,2.675,3.4,4.088,3.4,4.088s0.183,0.229,0.337,0.414    c-86.615,80.008-27.906,203.405-27.906,203.405l39.414-1.175l68.055,31.412l17.645,42.163    C275.989,466.164,278.729,468.15,289.778,467.095z"/>
		<path style="fill:#AE312F;" d="M307.736,78.124c-5.059-1.454-8.823-1.916-9.02-1.953c1.178-12.732,11.674-24.668,16.81-24.894l0,0    c1.042,2.81,2.202,6.005,0.867,13.683c-0.137,0.755-0.217,1.488-0.269,2.204C315.297,77.772,312.552,79.517,307.736,78.124z"/>
		<path style="fill:#AE312F;" d="M201.542,82.305c-1.922,0.661-3.727,1.309-5.117,1.835c-3.197-6.959-4.394-18.861-2.698-25.574    c0.469-1.872,1.162-3.326,2.087-4.17c0,0,2.732,1.007,5.257,7.125c0.918,2.233,1.736,4.373,2.668,6.338    C205.95,72.505,207.801,80.118,201.542,82.305z"/>
		<path style="opacity:0.48;fill:#EA4949;" d="M283.452,187.57c-3.933,2.963-4.302,8.72,0.464,11.406    c6.383,3.597,18.092,2.382,23.407-2.767c4.487-4.347,1.293-11.768-3.848-12.896c-4.345-0.953-8.887-0.368-13.042,0.987    C288.5,184.931,285.656,185.909,283.452,187.57z"/>
		<path style="opacity:0.48;fill:#EA4949;" d="M204.798,176.666c3.975,3.1,4.255,8.999-0.669,11.668    c-6.594,3.573-18.559,2.13-23.912-3.23c-4.52-4.525-1.124-12.067,4.158-13.134c4.464-0.902,9.103-0.226,13.333,1.232    C199.675,173.879,202.57,174.929,204.798,176.666z"/>
		<path style="fill:#AE312F;" d="M269.093,73.397c-5.749,5.397-9.908,13.482-13.226,19.581c-1.826,3.341-3.478,6.782-5.006,10.267    c-1.153,2.615-3.31,5.254-6.313,5.771c-3.772,0.648-7.243-1.666-9.257-4.706c-2.529-3.796-2.77-8.412-2.248-12.819    c0.745-6.235,3.334-12.237,7.057-17.375c0.308-0.02,0.631-0.042,0.954-0.064C251.036,73.398,260.388,73.183,269.093,73.397z"/>
		<path style="fill:#AE312F;" d="M174.169,141.963c-4.036,0.796-8.299-0.423-12.106-2.314c0.03-0.388,0.06-0.776,0.103-1.18    c0.032-0.373,0.062-0.761,0.107-1.151c0.378-3.459,0.917-6.935,1.679-10.393C172.011,133.733,181.733,140.457,174.169,141.963z"/>
		<path style="fill:#AE312F;" d="M173.013,152.534c-2.621,1.672-6.692,2.028-10.556,1.858c-0.117-0.903-0.221-1.823-0.312-2.759    c-0.187-2.049-0.294-4.167-0.289-6.356c0.004-0.089-0.004-0.162,0.001-0.251C169.854,146.961,177.633,149.587,173.013,152.534z"/>
		<path style="fill:#AE312F;" d="M172.606,123.684c-2.261-0.247-4.668-1.528-6.927-3.195c0.029-0.136,0.073-0.275,0.116-0.413    c0.933-2.871,2.045-5.717,3.389-8.487C173.96,117.868,177.847,124.26,172.606,123.684z"/>
		<path style="fill:#AE312F;" d="M288.704,74.73c-1.509,1.694-3.203,3.586-4.417,5.01c-3.838,4.515-7.817,10.777-10.854,11.519    c-6.345,1.56-9.068-4.609-5.066-11.066c1.827-2.942,4.407-5.097,6.68-6.581l0.015-0.002    C279.82,73.841,284.358,74.216,288.704,74.73z"/>
		<path style="fill:#AE312F;" d="M236.818,74.384c-3.208,4.326-6.607,11.542-9.946,12.748c-5.03,1.81-9.06-2.052-6.945-4.923    c2.051-2.79,4.45-4.984,6.547-6.581C229.759,75.123,233.202,74.704,236.818,74.384z"/>
		<g>
			<g>
				<path style="fill:#FFFFFF;" d="M306.95,177.578c-6.569,4.809-17.05,6.674-24.767,3.953c-1.648-0.582-3.19-1.399-4.584-2.484      c-6.037-4.745-9.636-13.3-9.906-20.915c-0.02-0.175-0.025-0.352-0.03-0.529c-0.13-7.69,4.051-14.788,10.635-18.682      c7.708-4.553,19.346-6.387,26.804-0.457c2.941,2.344,5.312,5.655,6.95,9.418l0.015-0.001      C316.468,157.899,315.745,171.128,306.95,177.578z"/>
				<path style="fill:#AE312F;" d="M306.95,177.578c-3.716,2.714-8.169,4.27-12.695,5.002c-2.272,0.353-4.589,0.455-6.892,0.267      c-2.301-0.177-4.605-0.645-6.768-1.558c-2.169-0.907-4.104-2.354-5.73-4.033c-1.643-1.678-3.038-3.59-4.197-5.631      c-2.307-4.092-3.698-8.701-4.022-13.455l0.006,0.08c-0.357-5.679,1.563-11.235,5.201-15.488c1.803-2.11,3.983-3.939,6.428-5.239      c2.408-1.324,4.969-2.332,7.621-3.006c5.267-1.303,11.102-1.324,16.158,1.085c2.53,1.177,4.673,3.038,6.374,5.133      c1.724,2.101,3.06,4.472,4.076,6.95l-0.511-0.296l0.014-0.001l0.377-0.032l0.134,0.327c1.042,2.545,1.74,5.215,2.096,7.921      c0.345,2.707,0.367,5.452,0.005,8.145c-0.367,2.691-1.172,5.323-2.428,7.724C310.936,173.868,309.146,175.994,306.95,177.578z       M306.95,177.578c2.18-1.607,3.943-3.746,5.174-6.144c1.25-2.397,1.937-5.051,2.23-7.72c0.297-2.674,0.163-5.385-0.323-8.019      c-0.48-2.635-1.292-5.204-2.421-7.612l0.51,0.295l-0.014,0.002l-0.35,0.047l-0.161-0.344c-1.099-2.345-2.494-4.549-4.214-6.443      c-1.715-1.905-3.74-3.479-6.055-4.417c-4.644-1.899-9.964-1.747-14.826-0.403c-4.89,1.344-9.539,3.758-12.784,7.536      c-0.811,0.943-1.53,1.962-2.172,3.027c-0.603,1.086-1.168,2.198-1.592,3.369c-0.418,1.17-0.771,2.372-0.956,3.606      c-0.128,0.612-0.153,1.237-0.229,1.857c-0.01,0.598-0.068,1.296-0.033,1.799l0.006,0.081c0.081,4.406,1.173,8.862,3.18,12.861      c1.008,1.997,2.246,3.884,3.733,5.559c1.481,1.684,3.223,3.128,5.251,4.097c4.072,1.942,8.811,2.34,13.323,1.772      C298.757,181.819,303.204,180.229,306.95,177.578z"/>
			</g>
			<path style="fill:#AE312F;" d="M291.102,176.421c6.133,0.201,12.612-2.864,15.67-8.323c4.873-8.697,0.991-20.985-8.063-25.053     c-4.861-2.184-11.152-2.064-15.842,0.528c-12.534,6.927-9.228,26.862,3.313,31.857     C287.725,176.046,289.395,176.365,291.102,176.421z"/>
			<path style="opacity:0.21;fill:#AE312F;" d="M312.053,147.884c-27.983-9.584-42.606,7.966-44.359,10.249     c-0.02-0.175-0.025-0.352-0.03-0.529c-0.13-7.69,4.051-14.788,10.635-18.682c7.708-4.553,19.346-6.387,26.804-0.457     C308.044,140.81,310.415,144.12,312.053,147.884z"/>
		</g>
		<g>
			<g>
				<path style="fill:#FFFFFF;" d="M215.634,160.423c-2.678,6.529-10.124,9.737-16.721,10.246c-0.91,0.058-1.814,0.042-2.698-0.065      c-10.702-1.26-18.43-14.686-15.68-25.023c0.264-1.065,0.664-2.101,1.174-3.09c4.495-8.642,17.979-13.242,26.68-8.487      c2.099,1.168,3.604,3.23,4.739,5.291c0.78,1.405,1.477,2.997,2.054,4.692C217.023,149.294,217.629,155.57,215.634,160.423z"/>
				<path style="fill:#AE312F;" d="M215.634,160.423c-0.947,2.305-2.537,4.319-4.502,5.853c-1.958,1.541-4.209,2.713-6.589,3.485      c-1.188,0.393-2.402,0.721-3.638,0.944c-1.23,0.232-2.494,0.401-3.775,0.367c-2.55-0.118-5.093-0.825-7.329-2.111      c-4.508-2.555-7.812-6.906-9.631-11.75c-0.881-2.441-1.411-5.044-1.388-7.696l0.145-1.985c0.091-0.657,0.241-1.306,0.362-1.96      c0.269-1.301,0.757-2.598,1.385-3.779c2.618-4.778,7.256-7.937,12.179-9.49c4.924-1.523,10.499-1.563,15.159,0.832      c2.433,1.136,4.057,3.373,5.234,5.562c1.201,2.226,2.026,4.612,2.663,7.025c0.631,2.417,0.994,4.906,1.005,7.397      C216.933,155.604,216.589,158.121,215.634,160.423z M215.634,160.423c1.822-4.678,1.354-9.912-0.064-14.605      c-0.728-2.363-1.724-4.644-3.01-6.727c-1.284-2.06-2.899-3.98-5.098-4.827c-4.386-1.932-9.493-1.534-13.916,0.082      c-2.235,0.798-4.336,1.957-6.18,3.401c-1.846,1.436-3.426,3.205-4.485,5.214c-0.548,1.005-0.964,2.054-1.21,3.183      c-0.108,0.568-0.25,1.13-0.338,1.701l-0.149,1.731c-0.069,2.326,0.287,4.689,1.016,6.942c1.421,4.495,4.202,8.763,8.246,11.381      c2.002,1.323,4.32,2.127,6.724,2.394c1.204,0.108,2.429,0.022,3.651-0.131c1.221-0.147,2.438-0.375,3.62-0.732      c2.367-0.683,4.657-1.728,6.634-3.228C213.047,164.701,214.657,162.716,215.634,160.423z"/>
			</g>
			<path style="fill:#AE312F;" d="M192.054,162.275c0.457,0.318,4.866,4.838,13.39,1.367c8.524-3.471,6.561-14.673,4.903-18.247     c-1.658-3.574-6.93-10.78-16.692-7.169C183.893,141.837,184.191,156.8,192.054,162.275z"/>
			<path style="opacity:0.21;fill:#AE312F;" d="M215.181,143.986c-12.407-5.755-27.148-1.412-34.646,1.595     c0.264-1.065,0.664-2.101,1.174-3.09c4.495-8.642,17.979-13.242,26.68-8.487c2.099,1.168,3.604,3.23,4.739,5.291     C213.907,140.699,214.605,142.291,215.181,143.986z"/>
		</g>
		<path style="fill:#AE312F;" d="M352.281,109.907c-22.263,14.825-31.276-0.35-21.663-4.037c5.375-2.063,10.287-5.325,14.013-8.05    c0.6,0.662,1.175,1.338,1.712,2.025C348.806,102.945,350.793,106.307,352.281,109.907z"/>
		<path style="fill:#AE312F;" d="M357.573,133.477l0.012,0.102c-0.004,0.488,0.02,0.959,0.029,1.431    c-8.727,4.432-19.62,7.497-28.686,4.603c-3.421-1.092-6.546-4.007-5.731-7.397c0.335-1.354,1.29-2.585,2.499-3.536    c3.569-2.829,8.769-3.801,13.286-4.785c5.137-1.128,11.079-4.032,15.687-6.697C356.165,122.723,357.151,128.172,357.573,133.477z"/>
		<path style="fill:#AE312F;" d="M357.773,141.662c-0.207,6.279-1.314,12.319-3.401,18.056c-6.107,1.71-12.944,1.005-18.65-1.589    c-2.542-1.162-4.904-3.216-4.627-6.265c0.358-4.034,5.582-5.038,8.788-5.326C348.58,145.762,354.615,143.29,357.773,141.662z"/>
		<g>
			<path style="fill:#AE312F;" d="M163.18,187.027c3.709-1.803,7.542-3.248,11.406-4.606c3.876-1.322,7.783-2.554,11.814-3.425     c-3.708,1.806-7.541,3.251-11.405,4.606C171.118,184.922,167.211,186.153,163.18,187.027z"/>
			<path style="fill:#AE312F;" d="M160.124,178.557c3.893-0.849,7.82-1.321,11.757-1.701c3.939-0.342,7.887-0.59,11.87-0.457     c-3.893,0.852-7.82,1.324-11.756,1.701C168.055,178.44,164.107,178.687,160.124,178.557z"/>
			<path style="fill:#AE312F;" d="M161.342,165.991c3.87,0.949,7.605,2.252,11.307,3.642c3.689,1.425,7.343,2.939,10.862,4.809     c-3.871-0.946-7.605-2.25-11.307-3.642C168.516,169.373,164.862,167.859,161.342,165.991z"/>
		</g>
		<path style="fill:#FFFFFF;" d="M310.849,74.4c0,0-2.854,0.131-3.688-0.441c-0.848-0.569,3.506-1.165,3.506-1.165    c-2.281-0.689-4.352-3.043-3.612-3.17c0.753-0.144,3.508,1.467,3.508,1.467c-3.08-3.571-1.857-9.624,1.121-9.576    c1.274,0.018,2.947,2.654,4.439,5.65c-0.827,10.608,6.271,17.54,7.519,18.375c-5.12-3.695-11.091-6.022-15.907-7.415    C308.228,75.939,310.849,74.4,310.849,74.4z"/>
		<path style="fill:#FFFFFF;" d="M201.542,82.305c0.143-2.397,2.243-5.932,2.43-6.234c-0.181,0.094-2.099,1.184-3.093,0.764    c-1.041-0.445,2.167-2.153,2.167-2.153s-2.562,0.497-2.853-0.254c-0.305-0.735,2.346-0.827,2.346-0.827    c-1.982-0.914-5.909-5.573-3.752-7.162c1.406-1.032,3.587,0.334,4.952,1.422c2.211,4.645,5.092,8.282,11.74,9.794    C215.479,77.653,207.801,80.118,201.542,82.305z"/>
		<g>
			<path style="fill:#AE312F;" d="M238.302,164.803c0,0-3.684-4.869-5.685-4.064c-2.001,0.806,3.54,8.176,5.728,8.919     c2.188,0.743,7.3-6.732,6.156-8.239C243.357,159.913,238.302,164.803,238.302,164.803z"/>
			<path style="fill:#AE312F;" d="M244.421,196.297c-0.668-2.243-1.247-4.506-1.862-6.763l-1.681-6.807     c-0.561-2.271-1.045-4.558-1.539-6.846c-0.46-2.3-0.927-4.581-1.224-6.955l1.217,0.116c-1.3,4.324-2.493,8.695-3.651,13.067     c-0.571,2.189-1.121,4.384-1.601,6.594c-0.518,2.204-0.95,4.424-1.321,6.665c0.094-2.271,0.408-4.527,0.728-6.778     c0.355-2.246,0.809-4.474,1.269-6.7c0.941-4.45,2.103-8.84,3.383-13.209l0.854-2.913l0.363,3.03     c0.272,2.264,0.719,4.568,1.149,6.853l1.319,6.873l1.338,6.877C243.572,191.7,244.032,193.99,244.421,196.297z"/>
			<path style="opacity:0.48;fill:#AE312F;" d="M228.517,170.025c-3.722,0.73-7.342,2.894-9.581,6.383     c-3.245,5.057-4.053,11.514-0.283,16.336c2.34,2.993,5.718,4.693,9.135,5.772c6.547,2.067,13.196,3.656,20.033,2.007     c2.479-0.598,4.938-1.576,6.999-3.282c3.158-2.615,5.18-6.931,5.301-11.315c0.121-4.384-1.662-8.734-4.674-11.401     c-3.705-3.282-9.368-4.479-14.032-4.586C237.258,169.843,232.608,169.222,228.517,170.025z"/>
		</g>
		<g>
			<path style="fill:#AE312F;" d="M298.409,190.607c4.124-0.048,8.207,0.281,12.28,0.701c4.069,0.458,8.128,1.011,12.146,1.944     c-4.125,0.05-8.208-0.278-12.281-0.702C306.486,192.089,302.428,191.536,298.409,190.607z"/>
			<path style="fill:#AE312F;" d="M323.95,183.069c-3.853,1.015-7.757,1.655-11.673,2.204c-3.921,0.511-7.854,0.928-11.839,0.966     c3.853-1.019,7.756-1.658,11.673-2.204C316.032,183.526,319.965,183.11,323.95,183.069z"/>
			<path style="fill:#AE312F;" d="M319.16,172.766c-3.014,2.606-6.238,4.898-9.514,7.112c-3.297,2.183-6.647,4.288-10.209,6.074     c3.012-2.609,6.237-4.9,9.514-7.112C312.249,176.659,315.599,174.555,319.16,172.766z"/>
		</g>
		<path style="fill:#AE312F;" d="M268.725,132.176c0.003,0.372,0.044,0.78,0.307,1.044c0.19,0.191,0.463,0.27,0.727,0.321    c1.958,0.378,3.936-0.406,5.759-1.214c0.963-0.427,1.935-0.872,2.747-1.543c0.813-0.671,1.462-1.602,1.574-2.65    c0.379-3.535-4.017-6.068-7.005-4.449C270.249,125.086,268.699,129.472,268.725,132.176z"/>
		<path style="fill:#AE312F;" d="M213.887,131.95c0.352,0.121,0.75,0.219,1.086,0.06c0.244-0.116,0.409-0.347,0.546-0.579    c1.011-1.719,0.932-3.845,0.78-5.834c-0.08-1.051-0.176-2.115-0.537-3.105c-0.361-0.99-1.022-1.913-1.972-2.369    c-3.205-1.537-7.061,1.759-6.533,5.117C207.714,128.144,211.33,131.07,213.887,131.95z"/>
	</g>
	<g>
		<g>
			<path style="fill:#FF9C3D;" d="M157.116,412.55c-10.036,23.815-36.357,21.899-36.357,21.899s2.762,7.606-7.275,12.119     c-4.905,2.188-9.976,2.249-15.847-0.724c-6.173-3.094-13.22-9.508-21.898-20.224c-16.979-20.948-48.144-18.88-60.61-19.921     c-5.991-0.498-12.375-5.705-14.443-11.575c-2.234-6.354,0.574-13.477,14.443-16.239c26.668-5.297,77.921,19.152,77.921,19.152     c-20.088-49.517,7.274-87.76,7.274-87.76C152.966,323.341,167.167,388.735,157.116,412.55z"/>
			<path style="opacity:0.2;fill:#AE312F;" d="M157.116,412.55c-10.036,23.815-36.357,21.899-36.357,21.899     s2.762,7.606-7.275,12.119c-4.905,2.188-9.976,2.249-15.847-0.724c-6.173-3.094-13.22-9.508-21.898-20.224     c-16.979-20.948-48.144-18.88-60.61-19.921c-5.991-0.498-12.375-5.705-14.443-11.575c-2.234-6.354,0.574-13.477,14.443-16.239     c26.668-5.297,77.921,19.152,77.921,19.152c-20.088-49.517,7.274-87.76,7.274-87.76     C152.966,323.341,167.167,388.735,157.116,412.55z"/>
		</g>
		<path style="opacity:0.48;fill:#AE312F;" d="M93.05,397.04c2.16,2.005,3.765,4.18,5.383,6.354    c1.588,2.216,3.076,4.332,4.656,6.807c-2.861-0.892-5.028-3.046-6.72-5.307C94.737,402.559,93.426,399.982,93.05,397.04z"/>
		<path style="opacity:0.2;fill:#AE312F;" d="M97.639,445.843c-6.173-3.094-13.22-9.508-21.898-20.224    c-16.979-20.948-48.144-18.88-60.61-19.921c-5.991-0.498-12.375-5.705-14.443-11.575c2.55-2.385,7.561-5.373,16.707-5.524    c15.273-0.227,45.231,8.195,62.662,21.596C96.235,422.647,114.406,439.716,97.639,445.843z"/>
		<path style="fill:#AE312F;" d="M14.286,388.771c-0.275-1.012-0.187-2.004,0.05-2.943c0.231-0.95,0.677-1.835,1.26-2.649    c0.627-0.78,1.401-1.488,2.344-1.929c0.94-0.439,2.035-0.586,3.021-0.275c-0.76,0.735-1.333,1.302-1.866,1.898    c-0.502,0.626-0.997,1.205-1.466,1.847C16.645,385.985,15.738,387.337,14.286,388.771z"/>
		<path style="fill:#FFC792;" d="M15.303,391.643c-0.521,0.261-0.961,0.754-1.009,1.335c-0.044,0.529,0.235,1.034,0.575,1.441    c0.386,0.462,0.869,0.851,1.426,1.083c1.653,0.69,5.916,0.571,5.196-2.149C20.84,390.895,17.208,390.69,15.303,391.643z"/>
		<path style="fill:#FFC792;" d="M6.61,396.729c-0.176,2.457,2.454,3.786,4.508,4.176c1.051,0.2,2.299,0.062,3.252-0.444    c0.515-0.274,0.961-0.731,1.087-1.301c0.203-0.924-0.467-1.811-1.195-2.416C12.73,395.472,6.881,392.946,6.61,396.729z"/>
		<path style="fill:#FFC792;" d="M36.26,396.213c-3.093-0.46-6.209-0.595-9.191-0.014c-2.207,0.43-7.21,1.996-7.572,4.694    c-0.117,0.874,0.478,1.721,1.239,2.166c0.761,0.445,1.662,0.572,2.537,0.68c5.972,0.738,12.007,1.034,17.913,2.185    c6.624,1.291,13.191,3.138,19.262,6.131c6.42,3.166,11.735,7.705,16.735,12.768c1.233,1.249,2.61,3.389,4.27,4.083    c1.004,0.42,2.221-0.131,2.835-1.03c0.614-0.899,0.735-2.049,0.669-3.135c-0.519-8.614-8.407-13.329-15.179-17.013    c-7.761-4.222-16.061-7.454-24.633-9.592C42.308,397.429,39.296,396.665,36.26,396.213z"/>
	</g>
	<path style="fill:#FFC792;" d="M109.048,364.378c4.57,16.98,15.176,31.702,29.444,41.978c14.189,10.219,30.164,18.6,46.241,23.604   c14.383,4.477,32.648,6.491,46.523-0.695c13.473-6.978,22.017-23.725,26.553-37.44c8.614-26.049,18.538-58.39,16.32-85.696   c-1.705-20.992-9.631-42.805-22.411-59.612c-8.578-11.28-19.802-21.382-34.429-23.951c-1.486-3.899-0.97-7.882-6.185-7.731   c-3.56,0.103-2.302,7.241-2.302,7.241s-2.603-7.22-6.44-7.441c-3.835-0.22-0.628,7.778-0.626,7.784   c-1.567-3.907-31.273,3.528-33.999,4.374c-25.676,7.964-40.211,30.989-49.495,54.7c-10.399,26.556-16.784,54.375-9.268,82.605   C108.998,364.192,109.023,364.285,109.048,364.378z"/>
	<path style="opacity:0.48;fill:#AE312F;" d="M297.128,199.591c2.082-0.378,4.154-0.785,6.184-1.333   c2.027-0.537,4.048-1.137,5.89-2.041l1.903-0.934l-1.289,1.737c-0.295,0.399-0.587,0.951-0.596,1.297   c0.014,0.178,0.019,0.144,0.094,0.203c0.051,0.053,0.4,0.122,0.475,0.108c0.215,0.002,0.68-0.364,1.011-0.755   c0.355-0.402,0.676-0.872,0.979-1.352c0.608-0.965,1.148-1.999,1.635-3.054c0.478-1.047,0.944-2.16,1.247-3.198l0.672-2.303   l0.701,2.286c0.281,0.914,0.657,1.863,1.125,2.682c0.462,0.818,1.119,1.548,1.634,1.415c0.606-0.059,1.294-0.84,1.759-1.651   c0.479-0.827,0.878-1.767,1.188-2.684l0.147-0.434l0.431,0.029c1.124,0.074,2.368-0.054,3.539-0.285   c1.183-0.236,2.351-0.584,3.477-1.045c1.123-0.462,2.243-0.973,3.276-1.638c1.052-0.636,2.034-1.383,3.006-2.155   c-0.864,0.887-1.775,1.745-2.792,2.473c-0.991,0.767-2.086,1.389-3.204,1.969c-1.138,0.543-2.334,0.969-3.563,1.284   c-1.242,0.307-2.472,0.518-3.824,0.503l0.577-0.405c-0.277,1.053-0.64,2.039-1.168,3.007c-0.265,0.481-0.57,0.954-0.976,1.391   c-0.4,0.427-0.947,0.855-1.683,0.977c-0.353,0.057-0.753,0.026-1.108-0.117c-0.345-0.14-0.619-0.343-0.851-0.554   c-0.46-0.428-0.78-0.901-1.067-1.378c-0.558-0.965-0.955-1.937-1.29-2.984l1.373-0.018c-0.361,1.242-0.846,2.316-1.357,3.424   c-0.52,1.093-1.084,2.168-1.759,3.201c-0.344,0.513-0.708,1.018-1.153,1.496c-0.468,0.442-0.912,1.012-1.912,1.131   c-0.286,0.003-0.432-0.032-0.627-0.082c-0.187-0.048-0.391-0.125-0.594-0.263c-0.447-0.252-0.68-0.926-0.585-1.336   c0.151-0.841,0.547-1.324,0.973-1.852l0.614,0.804c-2.015,0.836-4.093,1.356-6.188,1.735   C301.351,199.235,299.246,199.508,297.128,199.591z"/>
	<path style="opacity:0.48;fill:#AE312F;" d="M178.78,190.359c1.913,1.549,3.822,3.094,5.797,4.539   c0.977,0.735,1.972,1.442,2.989,2.101c1.011,0.645,2.084,1.271,3.128,1.59l0.291,0.088l0.104,0.317   c0.321,0.977,0.713,1.984,1.215,2.865c0.468,0.865,1.238,1.712,1.763,1.618c0.249-0.037,0.343-0.089,0.45-0.504   c0.079-0.391,0.052-0.891-0.012-1.382c-0.136-0.991-0.45-2.026-0.787-2.99l-0.968-2.769l2.123,2.002   c0.82,0.773,1.718,1.524,2.636,2.194c0.92,0.665,1.889,1.291,2.876,1.659c0.488,0.189,0.997,0.285,1.359,0.191   c0.409-0.106,0.69-0.297,0.702-0.609c0.071-0.764-0.63-1.889-1.299-2.693l-0.985-1.185l1.462,0.352   c1.883,0.454,3.831,0.758,5.77,1.009c1.945,0.246,3.907,0.344,5.878,0.203c-1.937,0.423-3.942,0.465-5.927,0.419   c-1.992-0.07-3.957-0.309-5.937-0.649l0.476-0.832c0.439,0.468,0.812,0.943,1.151,1.491c0.315,0.551,0.643,1.161,0.615,1.997   c-0.028,0.41-0.226,0.883-0.553,1.163c-0.158,0.157-0.325,0.277-0.498,0.352c-0.168,0.097-0.346,0.173-0.545,0.208   c-0.786,0.2-1.487,0.031-2.095-0.171c-1.238-0.414-2.273-1.076-3.26-1.779c-0.988-0.709-1.907-1.46-2.807-2.292l1.154-0.767   c0.401,1.081,0.693,2.15,0.853,3.315c0.065,0.586,0.114,1.186-0.025,1.866c-0.055,0.177-0.103,0.351-0.177,0.527   c-0.111,0.179-0.199,0.366-0.359,0.521c-0.327,0.331-0.771,0.506-1.181,0.523c-0.853,0.056-1.525-0.438-1.951-0.883   c-0.441-0.467-0.745-0.974-1.027-1.484c-0.535-1.031-0.928-2.068-1.219-3.177l0.394,0.405c-1.286-0.481-2.309-1.194-3.327-1.92   c-1.005-0.737-1.971-1.512-2.913-2.311C182.262,193.841,180.463,192.158,178.78,190.359z"/>
	<path style="fill:#FF9C3D;" d="M295.233,459.467c-24.106,19.523-57.674-4.637-57.674-4.637   c-29.716,25.638-55.026,19.489-55.227,1.653c-0.046-2.642,0.489-5.552,1.628-8.657c8.851-23.961,15.318-83.007,18.977-88.748   c0.001-0.014,0.015-0.013,0.017-0.028c3.658-5.741,14.935-7.989,21.55,6.377c6.972,15.097,1.226,42.161,0.866,43.795   c19.78-57.374,50.18-78.512,67.932-77.845c17.78,0.67,24.284,36.918,24.284,36.918S319.34,439.931,295.233,459.467z"/>
	<path style="opacity:0.48;fill:#AE312F;" d="M225.099,409.798c1.01,1.125,1.924,2.333,2.78,3.589   c0.86,1.255,1.617,2.587,2.156,4.069c0.217,0.761,0.488,1.539,0.321,2.47c-0.218,0.963-0.836,1.712-1.768,2.075   c-0.938,0.309-1.879,0.119-2.642-0.188c-0.783-0.321-1.454-0.728-2.119-1.26l1.097-0.734c0.983,3.011,1.883,6.017,2.214,9.255   c0.037,0.828,0.132,1.635-0.161,2.59c-0.216,0.492-0.444,1.046-1.214,1.268c-0.796,0.165-1.317-0.315-1.627-0.614   c-1.19-1.376-1.665-2.866-2.223-4.381l0.943-0.073c-0.406,1.644-0.879,3.234-1.506,4.784c-0.621,1.546-1.318,3.064-2.179,4.481   c0.617-1.539,1.177-3.086,1.608-4.674c0.43-1.581,0.852-3.18,1.115-4.774l0.274-1.661l0.67,1.588   c0.578,1.372,1.292,2.854,2.186,3.825c0.231,0.226,0.439,0.276,0.422,0.245c-0.005,0.024,0.063-0.063,0.128-0.117l0.135-0.301   c0.158-0.557,0.104-1.344,0.055-2.064c-0.152-1.487-0.5-2.994-0.865-4.488c-0.367-1.495-0.797-2.992-1.268-4.452l-0.741-2.303   l1.839,1.568c0.996,0.85,2.425,1.64,3.473,1.331c0.493-0.13,0.985-0.657,1.113-1.149c0.162-0.566,0.002-1.298-0.152-1.977   c-0.393-1.388-1.071-2.728-1.752-4.055C226.708,412.347,225.912,411.07,225.099,409.798z"/>
	<path style="opacity:0.48;fill:#AE312F;" d="M237.554,454.824c1.732-2.674,3.605-5.153,5.426-7.675l2.714-3.786l2.645-3.891   c-0.733,3.124-2.37,5.944-4.205,8.517c-0.949,1.272-1.948,2.505-3.043,3.651C240.003,452.789,238.848,453.883,237.554,454.824z"/>
	<path style="fill:#FF9C3D;" d="M278.113,288.353c-0.68,0.169-32.641,7.105-51.646,25c-19.005,17.896-11.668,31.024-4.149,31.639   c0,0,3.418,5.965,11.318,4.954c0,0,6.55,7.942,16.939,7.136c10.389-0.806,22.167-12.364,22.167-12.364l21.161,3.821l9.627-33.746   L278.113,288.353z"/>
	<g>
		<path style="opacity:0.48;fill:#AE312F;" d="M233.993,349.948c-0.201-2.196,0.108-4.461,0.839-6.582    c0.712-2.13,1.842-4.146,3.338-5.852c1.517-1.67,3.262-3.185,5.299-4.151c0.958-0.591,2.058-0.882,3.084-1.292    c1.069-0.301,2.158-0.528,3.234-0.725c-0.99,0.51-2.016,0.863-2.971,1.374c-0.932,0.552-1.928,0.963-2.786,1.606l-1.323,0.885    l-1.222,1.011c-0.426,0.315-0.786,0.7-1.159,1.072c-0.367,0.376-0.764,0.725-1.075,1.152c-1.408,1.565-2.503,3.391-3.384,5.325    C235.006,345.713,234.346,347.778,233.993,349.948z"/>
		<path style="opacity:0.48;fill:#AE312F;" d="M222.318,344.992c-0.995-3.693-0.84-7.685,0.255-11.413    c0.561-1.865,1.463-3.636,2.617-5.204c1.129-1.6,2.707-2.822,4.337-3.779c-1.299,1.407-2.504,2.8-3.411,4.4    c-0.894,1.591-1.674,3.243-2.178,5.003c-0.54,1.746-0.901,3.552-1.164,5.387C222.54,341.224,222.356,343.089,222.318,344.992z"/>
		<path style="opacity:0.48;fill:#AE312F;" d="M385.719,305.661c-4.845,9.659-11.576,18.427-19.907,25.415    c-0.981,0.936-2.143,1.66-3.214,2.49c-1.102,0.785-2.143,1.69-3.32,2.354l-3.471,2.143c-1.147,0.724-2.4,1.268-3.592,1.917    c-2.384,1.328-4.935,2.264-7.425,3.365c-2.581,0.876-5.101,1.887-7.742,2.551c-5.222,1.539-10.594,2.52-15.983,3.154    c-2.701,0.347-5.418,0.498-8.119,0.679c-2.716,0.061-5.433,0.166-8.15,0.091c-10.73-0.256-21.416-1.6-31.829-4.361    c-2.49,2.716-5.267,5.071-8.286,7.154c-3.154,2.083-6.595,3.879-10.383,4.679c-3.788,0.83-7.712,0.619-11.425-0.453    c-3.562-1.116-6.882-3.109-9.206-6.203c-1.027-0.03-2.052-0.075-3.094-0.196c-0.755-0.106-1.509-0.226-2.264-0.422    c-0.392-0.091-0.77-0.196-1.147-0.332c-1.102-0.347-2.189-0.86-3.169-1.584c-0.483-0.362-0.936-0.77-1.328-1.253    c-0.332-0.392-0.604-0.785-0.845-1.298c-2.687-0.77-4.905-2.747-6.143-5.176c-1.313-2.536-1.585-5.464-1.238-8.21    c0.86-5.539,3.773-10.413,7.244-14.564c3.502-4.165,7.637-7.697,11.893-11.017c4.362-3.215,9.07-5.931,13.96-8.225    c1.147-0.543,2.324-1.072,3.486-1.57c8.723-3.773,17.854-6.535,27.075-8.708c10.474-2.46,21.099-4.226,31.799-5.252    c-10.67,1.207-21.265,3.169-31.663,5.795c-8.799,2.279-17.507,4.935-25.822,8.542c-1.509,0.649-2.988,1.343-4.467,2.053    c-4.814,2.324-9.448,5.041-13.689,8.255c-4.181,3.305-8.225,6.837-11.636,10.912c-3.381,4.045-6.127,8.784-6.912,13.945    c-0.302,2.55-0.045,5.207,1.132,7.44c1.132,2.234,3.199,3.984,5.629,4.573l0.332,0.091l0.151,0.377    c0.287,0.77,1.026,1.63,1.841,2.203c0.83,0.619,1.781,1.071,2.807,1.388c0.589,0.211,1.207,0.362,1.841,0.468    c0.423,0.09,0.86,0.151,1.297,0.211c1.072,0.121,2.158,0.166,3.26,0.181h0.347l0.241,0.317c2.023,2.822,5.282,4.875,8.693,5.901    c3.456,0.996,7.214,1.177,10.716,0.438c3.561-0.74,6.866-2.445,9.93-4.452c3.019-2.053,5.871-4.482,8.301-7.184l0.287-0.317    l0.423,0.105c10.338,2.822,21.129,4.241,31.874,4.528c5.388,0.09,10.776-0.076,16.133-0.664c5.343-0.574,10.67-1.494,15.847-2.958    c2.611-0.634,5.132-1.615,7.682-2.445c2.475-1.071,5.011-1.977,7.38-3.26c4.86-2.324,9.357-5.343,13.613-8.633    C373.842,323.847,380.709,315.244,385.719,305.661z"/>
	</g>
	<path style="fill:#AE312F;" d="M371.843,216.909c-6.473,5.431-14.231,9.177-22.168,12.059c-8.202,2.992-16.869,5.719-25.67,6.007   c-5.232,0.177-15.274-0.754-17.513-6.672c-3.746-9.975,15.872-12.746,21.569-14.719c8.756-3.015,17.136-7.16,24.894-12.259   c1.685-1.108,3.99-3.192,5.542-4.722c0.244,0.288,0.488,0.599,0.732,0.887c2.483,3.059,4.832,6.296,6.983,9.643   c0.022,0.022,0.044,0.044,0.044,0.066c1.973,3.059,3.813,6.229,5.498,9.51C371.798,216.776,371.82,216.843,371.843,216.909z"/>
	<path style="fill:#AE312F;" d="M308.129,349.237c-8.261,0.038-15.739-0.735-21.659-1.641c0.909-3.11,1.224-6.482,0.798-9.57   c-0.624-4.537-2.763-8.781-3.315-13.327c-0.142-1.087-0.18-2.222,0.219-3.251c2.693-6.937,10.829-0.248,13.895,2.808   C304.637,330.808,308.308,340.062,308.129,349.237z"/>
	<path style="fill:#AE312F;" d="M315.558,303.028c-1.896,2.901-6.188,2.972-9.434,1.793c-6.1-2.225-10.605-7.361-15.958-11.032   c-4.035-2.776-8.234-4.389-12.621-5.287c9.86-2.447,18.81-3.935,24.783-4.76c4.281,2.394,8.091,5.639,11.122,9.482   C315.66,296.04,317.49,300.029,315.558,303.028z"/>
	<path style="fill:#AE312F;" d="M385.853,259.649c-7.648,4.234-16.914,6.185-24.185,2.372c-8.003-4.19,3.237-15.473,7.337-18.599   c3.392-2.549,6.695-5.254,9.887-8.047c0.222-0.199,0.421-0.399,0.643-0.643c2.527,7.271,4.5,14.83,5.919,22.567   C385.609,258.075,385.742,258.851,385.853,259.649z"/>
	<path style="fill:#AE312F;" d="M388.38,298.686c0,0.687-0.022,1.374-0.044,2.061c-6.606,2.372-13.7,3.635-20.395,1.818   c-1.308-0.355-2.638-0.865-3.547-1.884c-2.261-2.571-0.443-6.717,2.106-9c5.187-4.7,12.436-7.603,18.311-11.439   c0.975-0.643,2.039-1.33,3.17-1.973c0.022,0.621,0.066,1.263,0.111,1.884C388.38,286.161,388.469,292.346,388.38,298.686z"/>
	<path style="opacity:0.48;fill:#AE312F;" d="M313.169,412.263c0.695-2.6,1.363-5.201,1.929-7.826   c0.607-2.613,1.157-5.238,1.628-7.875c0.962-5.267,1.745-10.569,2.047-15.899c0.182-2.661,0.274-5.327,0.208-7.99   c-0.073-2.663-0.346-5.309-0.72-7.939c-0.395-2.628-1.068-5.212-2.024-7.69c-0.919-2.496-2.214-4.854-3.856-6.991   c1.89,1.927,3.344,4.263,4.502,6.719c1.111,2.481,1.922,5.099,2.459,7.765c1.066,5.346,1.147,10.818,0.855,16.219   c-0.425,5.398-1.198,10.761-2.399,16.025C316.595,402.042,315.126,407.243,313.169,412.263z"/>
	<path style="fill:#AE312F;" d="M385.476,336.105c-0.887,6.495-2.017,12.968-3.369,19.397c-0.089,0.444-0.177,0.865-0.288,1.308   c-2.948,0.643-5.941,0.953-8.934,0.687c-2.305-0.199-4.655-0.798-6.495-2.195c-1.862-1.419-3.104-3.746-2.727-6.052   c0.466-2.816,3.081-4.722,5.586-6.118C374.437,340.273,380.001,338.278,385.476,336.105z"/>
	<path style="fill:#AE312F;" d="M374.459,383.611c-2.926,8.667-6.34,17.025-10.33,24.872c-3.48-0.776-6.828-2.04-9.909-3.769   c-2.749-1.508-5.409-3.458-6.916-6.207c-1.508-2.771-1.596-6.473,0.488-8.845c2.438-2.749,6.65-2.705,10.33-2.793   C364.128,386.714,369.382,385.451,374.459,383.611z"/>
	<path style="fill:#AE312F;" d="M347.306,435.973c-5.128,6.091-10.405,11.043-17.662,15.242c-5.314-3.265-9.704-9.027-11.385-15.04   c-0.714-2.523-0.966-5.281-0.065-7.746c0.914-2.45,3.203-4.531,5.83-4.577c1.996-0.04,3.83,1.039,5.521,2.121   c4.13,2.655,8.093,5.611,12.474,7.827C343.714,434.652,345.473,435.41,347.306,435.973z"/>
	<path style="opacity:0.48;fill:#AE312F;" d="M274.422,246.621c0.678,2.02,1.658,3.995,3.165,5.43   c0.721,0.686,1.712,1.283,2.53,1.443c0.779,0.027,1.454-0.91,1.912-1.777c0.936-1.828,1.463-3.907,1.979-5.951   c0.483-2.06,0.878-4.163,1.198-6.246l1.023-6.649l0.365,6.724c0.077,1.419,0.278,2.88,0.572,4.276   c0.304,1.383,0.729,2.795,1.5,3.818c0.374,0.492,0.886,0.859,1.335,0.9c0.415,0.05,0.888-0.267,1.28-0.789   c0.765-1.05,1.253-2.481,1.601-3.832l1.072,0.16c-0.222,2.184-0.082,4.518,0.65,6.62c0.353,1.057,0.9,2.055,1.67,2.871   c0.778,0.808,1.781,1.402,2.884,1.748c-1.136-0.198-2.248-0.688-3.141-1.478c-0.892-0.785-1.576-1.799-2.054-2.889   c-0.479-1.093-0.751-2.258-0.925-3.427c-0.165-1.177-0.232-2.341-0.162-3.56l1.071,0.16c-0.299,1.524-0.699,2.996-1.643,4.382   c-0.453,0.65-1.27,1.421-2.389,1.365c-1.057-0.081-1.807-0.724-2.333-1.382c-1.027-1.36-1.448-2.878-1.803-4.363   c-0.336-1.5-0.502-2.991-0.58-4.53l1.388,0.076c-0.337,2.153-0.784,4.259-1.349,6.357c-0.569,2.091-1.237,4.176-2.363,6.119   c-0.294,0.48-0.621,0.953-1.058,1.368c-0.419,0.405-1.046,0.792-1.759,0.721c-1.274-0.303-2.113-1.008-2.886-1.83   C275.699,250.786,274.856,248.717,274.422,246.621z"/>
	<path style="opacity:0.2;fill:#AE312F;" d="M215.894,417.966c-11.012,31.944-17.784,47.7-33.561,38.518   c-0.046-2.642,0.489-5.552,1.628-8.657c8.851-23.961,15.318-83.007,18.977-88.748c0.001-0.014,0.015-0.013,0.017-0.028   c2.895-1.057,6.79-1.547,10.543,0.991C220.787,364.957,227.13,385.38,215.894,417.966z"/>
	<g>
		<path style="fill:#FFC792;" d="M203.207,387.674c-0.879,1.507-1.224,3.257-1.543,4.973c-2.151,11.593-3.723,23.316-6.771,34.706    c-1.232,4.604-2.703,9.142-3.897,13.755c-0.285,1.103-0.527,2.376,0.142,3.299c0.54,0.746,1.565,1.027,2.474,0.876    c0.909-0.151,1.718-0.665,2.43-1.251c1.773-1.458,3.089-3.398,4.181-5.417c1.29-2.385,2.299-4.909,3.293-7.431    c4.325-10.986,8.434-22.209,9.727-33.945c0.398-3.609,0.31-8.208-2.221-11.144C208.779,383.495,204.715,385.091,203.207,387.674z"/>
		<path style="fill:#FFC792;" d="M214.36,377.864c0.037,0.722,0.214,1.469,0.69,2.014c0.405,0.465,0.982,0.737,1.542,0.996    c0.913,0.423,1.973,0.848,2.887,0.429c2.176-1,1.811-5.501,0.257-6.89C217.204,372.15,214.22,375.118,214.36,377.864z"/>
		<path style="fill:#FFC792;" d="M206.136,368.406c-0.041,1.005,0.068,2.056,0.6,2.91c0.836,1.341,2.631,1.907,4.164,1.521    c1.533-0.386,2.775-1.591,3.463-3.014c0.466-0.964,0.703-2.098,0.352-3.109c-0.541-1.559-2.946-3.276-4.606-3.238    C207.457,363.535,206.229,366.11,206.136,368.406z"/>
		<path style="fill:#FFC792;" d="M201.235,378.146c0.226,0.238,0.538,0.379,0.853,0.469c2.492,0.711,6.22-2.661,3.149-4.346    C203.075,373.082,199.268,376.072,201.235,378.146z"/>
	</g>
	<path style="opacity:0.48;fill:#AE312F;" d="M157.529,361.976l-0.871,0.844c-0.695-2.176-1.277-4.355-1.734-6.589   c-0.227-1.116-0.405-2.247-0.488-3.397c-0.07-1.151-0.11-2.323,0.206-3.528c0.168-0.583,0.471-1.265,1.146-1.63   c0.316-0.183,0.706-0.255,1.012-0.227c0.324,0.007,0.647,0.009,0.946,0.129c1.235,0.364,2.097,1.283,2.759,2.211   c1.308,1.905,2.122,4.044,2.678,6.221c-0.803-2.089-1.754-4.162-3.145-5.86c-0.698-0.822-1.538-1.567-2.494-1.796   c-0.234-0.089-0.477-0.066-0.715-0.063c-0.251-0.013-0.437,0.048-0.601,0.151c-0.333,0.188-0.54,0.624-0.652,1.107   c-0.38,2.026,0.145,4.287,0.557,6.429c0.477,2.161,1.091,4.318,1.797,6.41l0.439,1.303l-1.31-0.459   c-1.505-0.528-3.093-0.96-4.654-1.219c-0.781-0.121-1.564-0.213-2.299-0.172c-0.719-0.001-1.427,0.325-1.54,0.569   c-0.153,0.164,0.272,0.954,0.782,1.467c0.52,0.561,1.13,1.081,1.763,1.574c1.27,0.984,2.656,1.874,4.04,2.701l1.847,1.104   l-2.133,0.002c-1.42,0.001-2.902,0.124-4.283,0.46c-1.341,0.321-2.831,0.947-3.099,2.174c-0.127,0.604,0.017,1.301,0.511,1.721   c0.487,0.441,1.203,0.652,1.907,0.768c1.434,0.215,2.937,0.115,4.402-0.105c-1.435,0.389-2.929,0.628-4.453,0.514   c-0.753-0.069-1.552-0.211-2.233-0.723c-0.7-0.517-1.022-1.456-0.87-2.303c0.126-0.885,0.763-1.583,1.427-2.021   c0.674-0.462,1.416-0.729,2.154-0.955c1.49-0.437,2.986-0.634,4.533-0.711l-0.286,1.106c-1.478-0.814-2.878-1.708-4.239-2.717   c-0.676-0.51-1.337-1.051-1.951-1.691c-0.305-0.325-0.599-0.674-0.849-1.11c-0.229-0.415-0.502-1.033-0.234-1.75   c0.125-0.351,0.368-0.586,0.585-0.751c0.222-0.21,0.464-0.31,0.707-0.415c0.484-0.198,0.96-0.27,1.415-0.302   c0.914-0.057,1.784,0.016,2.629,0.164"/>
	<path style="fill:#FF5555;" d="M223.434,354.876L67.473,302.687l43.511-44.793l140.039,38.892l1.389,0.377   c-1.509,0.649-2.988,1.343-4.467,2.053c-4.814,2.324-9.448,5.041-13.689,8.255c-4.181,3.305-8.225,6.837-11.636,10.912   c-3.381,4.045-6.127,8.784-6.912,13.945c-0.302,2.55-0.045,5.207,1.132,7.44c1.132,2.234,3.199,3.984,5.629,4.573l0.332,0.091   l0.151,0.377c0.287,0.77,1.026,1.63,1.841,2.203l-1.356,7.856"/>
	<polygon style="fill:#FF5555;" points="223.436,354.869 196.871,266.151 36.349,224.754 67.473,302.69  "/>
	<g>
		<path style="fill:#FFFFFF;" d="M116.091,296.494c0.045,0.4-13.336-10.581-10.868-18.439c2.468-7.858,19.861-5.337,19.861-5.337    S114.403,281.619,116.091,296.494z"/>
		<path style="fill:#FFFFFF;" d="M153.679,303.108c0,0-4.01-10.948,0.601-21.596c0,0-10.74,2.284-13.682,10.723    C140.598,292.234,145.02,301.325,153.679,303.108z"/>
		<path style="fill:#FFFFFF;" d="M137.138,294.185c-20.042,0-24.645-13.329-24.696-13.483c-0.218-0.671,0.148-1.391,0.819-1.609    c0.67-0.213,1.387,0.147,1.607,0.814l0,0c0.212,0.636,5.515,15.508,31.57,10.839c0.696-0.118,1.359,0.339,1.483,1.031    c0.125,0.695-0.338,1.358-1.031,1.483C143.292,293.903,140.051,294.185,137.138,294.185z"/>
		<path style="fill:#FFFFFF;" d="M136.925,303.404c-0.435,0-0.859-0.222-1.097-0.622c-0.029-0.047-2.81-4.72-5.437-10.052    l-0.348-0.708l0.478-0.628c0.178-0.235,4.43-5.793,8.671-7.985c0.625-0.326,1.395-0.077,1.721,0.549    c0.323,0.626,0.078,1.397-0.549,1.721c-2.965,1.532-6.132,5.191-7.322,6.647c2.467,4.929,4.954,9.104,4.979,9.148    c0.362,0.606,0.163,1.39-0.441,1.751C137.373,303.345,137.147,303.404,136.925,303.404z"/>
		<path style="fill:#FF5555;" d="M114.123,279.967c-0.478,1.184-1.825,1.757-3.009,1.279c-1.184-0.478-1.756-1.825-1.279-3.009    c0.478-1.184,1.825-1.756,3.009-1.279C114.028,277.436,114.601,278.784,114.123,279.967z"/>
		<path style="fill:#FFFFFF;" d="M127.184,302.646c-0.423,0-0.837-0.21-1.08-0.593c-0.168-0.267-4.141-6.582-5.887-12.703    l-0.167-0.587l0.352-0.499c0.147-0.21,3.665-5.163,8.186-8.556c0.569-0.422,1.368-0.309,1.788,0.254    c0.423,0.565,0.309,1.365-0.254,1.788c-3.403,2.552-6.285,6.188-7.27,7.495c1.732,5.594,5.374,11.381,5.411,11.441    c0.378,0.596,0.201,1.385-0.395,1.762C127.654,302.582,127.417,302.646,127.184,302.646z"/>
	</g>
	<polygon style="fill:#AE312F;" points="36.349,224.754 40.861,221.951 199.635,265.192 227.625,350.697 223.436,354.869    195.309,268.924  "/>
	<path style="opacity:0.45;fill:#FFFFFF;" d="M59.649,263.627c0.092,0.37-12.559-31.292-12.559-31.292s33.45,9.324,32.967,9.259   C79.574,241.528,54.999,244.958,59.649,263.627z"/>
	<g>
		<g>
			<path style="fill:#FF9C3D;" d="M419.289,173.476c-0.066,2.216-0.425,4.367-1.035,6.411l1.526-0.584     c0.531-2.031,0.823-4.141,0.836-6.331L419.289,173.476z M420.603,171.578c-0.08-2.097-0.412-4.128-0.969-6.065     c-0.119-0.438-0.252-0.863-0.398-1.274c-0.637-1.924-1.5-3.743-2.561-5.442c-0.226-0.385-0.478-0.757-0.73-1.128     c-1.221-1.779-2.654-3.385-4.26-4.805c-0.385-0.345-0.77-0.677-1.181-0.982c-2.031-1.619-4.313-2.933-6.769-3.889     c-0.637-0.252-1.301-0.478-1.964-0.677c-2.35-0.717-4.845-1.115-7.433-1.128c-0.079-0.013-0.146-0.013-0.226-0.013     c-4.234,0-8.229,0.995-11.773,2.774c-8.733,4.34-14.746,13.352-14.746,23.744c0,14.626,11.892,26.519,26.518,26.519     c3.199,0,6.252-0.571,9.092-1.606h0.013c3.106-1.141,5.933-2.854,8.375-4.991c3.544-3.106,6.251-7.14,7.738-11.719     c0.173-0.518,0.332-1.048,0.451-1.593c0.531-2.031,0.823-4.141,0.836-6.331c0.013-0.093,0.013-0.186,0.013-0.279     C420.63,172.321,420.617,171.949,420.603,171.578z M418.254,179.886c-0.159,0.544-0.345,1.088-0.544,1.619     c-2.548,6.795-7.95,12.224-14.746,14.772h-0.013c-1.46,0.557-2.973,0.969-4.539,1.234c-1.393,0.252-2.84,0.372-4.3,0.372     c-13.883,0-25.191-11.295-25.191-25.191c0-7.512,3.305-14.268,8.548-18.887c1.646-1.46,3.49-2.708,5.494-3.69     c3.358-1.672,7.154-2.615,11.149-2.615c1.898,0,3.756,0.212,5.535,0.624c0.743,0.159,1.46,0.359,2.177,0.598     c2.628,0.836,5.057,2.097,7.233,3.703c0.412,0.318,0.823,0.637,1.221,0.969c1.659,1.38,3.132,2.986,4.38,4.752     c0.265,0.358,0.518,0.743,0.756,1.128c1.075,1.686,1.938,3.517,2.588,5.442c0.146,0.412,0.279,0.85,0.385,1.274     c0.545,1.938,0.863,3.982,0.903,6.079c0.013,0.199,0.013,0.411,0.013,0.624c0,0.265,0,0.518-0.013,0.783     C419.223,175.692,418.864,177.842,418.254,179.886z M419.289,173.476c-0.066,2.216-0.425,4.367-1.035,6.411l1.526-0.584     c0.531-2.031,0.823-4.141,0.836-6.331L419.289,173.476z"/>
			<path style="fill:#FF9C3D;" d="M426.363,170.794c0.013-0.464-0.013-0.929-0.04-1.393c-0.119-2.084-0.491-4.101-1.075-6.026     c-0.133-0.425-0.266-0.85-0.412-1.261c-0.69-1.911-1.593-3.716-2.681-5.402c-0.239-0.372-0.491-0.756-0.757-1.115     c-1.261-1.765-2.747-3.371-4.407-4.751c-0.385-0.345-0.783-0.677-1.194-0.982c-2.111-1.593-4.473-2.88-7.008-3.796     c-0.677-0.239-1.367-0.451-2.07-0.637c-2.19-0.584-4.486-0.902-6.862-0.902c-7.061,0-12.264,1.301-17.426,4.353     c-0.027,0.013-0.067,0.04-0.093,0.066c-2.044,1.221-3.636,2.92-4.871,4.858c1.646-1.46,3.49-2.708,5.494-3.69     c0.04-0.027,0.093-0.066,0.146-0.093c3.504-2.07,7.048-3.305,11.228-3.836c1.712-0.226,3.544-0.332,5.521-0.332     c1.579,0,3.119,0.146,4.619,0.438c0.783,0.133,1.566,0.318,2.323,0.544c2.721,0.77,5.269,2.004,7.526,3.597     c0.425,0.292,0.85,0.611,1.248,0.942c1.712,1.354,3.239,2.934,4.539,4.699c0.265,0.359,0.531,0.73,0.783,1.115     c1.102,1.673,2.018,3.491,2.694,5.402c0.146,0.411,0.292,0.836,0.411,1.261c0.584,1.925,0.929,3.942,1.022,6.039     c0.013,0.372,0.027,0.757,0.027,1.141v0.266c-0.04,2.11-0.597,4.353-1.526,6.583c-0.226,0.57-0.491,1.141-0.77,1.712     c-2.522,5.07-6.795,9.941-11.162,13.02c-1.712,1.208-3.438,2.15-5.083,2.721l-0.398,0.146c-1.911,0.664-2.323,0.796-3.145,0.796     h-0.013c-1.46,0.557-2.973,0.969-4.539,1.234c0.478,0.027,0.969,0.04,1.447,0.04c1.049,0,1.752,0.027,2.283,0.04     c0.318,0.013,0.584,0.027,0.823,0.027c0.08,0,0.159,0,0.239-0.013h0.013c0.876-0.013,1.407-0.212,3.318-0.876l0.398-0.133     c6.557-2.283,14.202-9.808,17.626-17.692c0.239-0.557,0.464-1.102,0.65-1.659c0.744-2.097,1.168-4.194,1.168-6.212     C426.377,170.954,426.377,170.874,426.363,170.794z"/>
			<path style="fill:#FF9C3D;" d="M408.791,146.068l-1.991,0.77l-3.066,1.155l-1.911,0.73c-0.717-0.239-1.433-0.438-2.177-0.598     l2.124-0.809l2.707-1.022l2.243-0.863C407.423,145.617,408.114,145.829,408.791,146.068z"/>
			<path style="fill:#FF9C3D;" d="M416.993,150.846l-1.42,0.531l-3.889,1.487l-1.407,0.531c-0.398-0.332-0.81-0.65-1.221-0.969     l1.447-0.544l3.822-1.447l1.473-0.57C416.21,150.169,416.608,150.501,416.993,150.846z"/>
			<path style="fill:#FF9C3D;" d="M422.156,156.712l-1.261,0.478l-4.22,1.606l-1.261,0.478c-0.239-0.385-0.491-0.77-0.756-1.128     l1.287-0.478l4.168-1.593l1.288-0.478C421.665,155.956,421.917,156.341,422.156,156.712z"/>
			<path style="fill:#FF9C3D;" d="M425.249,163.375l-1.248,0.478l-4.367,1.659l-1.248,0.478c-0.106-0.425-0.238-0.863-0.385-1.274     l1.234-0.478l4.354-1.645l1.247-0.478C424.983,162.526,425.116,162.951,425.249,163.375z"/>
			<path style="fill:#FF9C3D;" d="M426.363,170.794l-1.314,0.505l-4.433,1.672l-1.327,0.504c0.013-0.266,0.013-0.518,0.013-0.783     c0-0.212,0-0.424-0.013-0.624l1.314-0.491l4.419-1.686l1.301-0.491C426.35,169.866,426.377,170.33,426.363,170.794z"/>
			<path style="fill:#FF9C3D;" d="M425.209,177.245c-0.186,0.557-0.411,1.102-0.65,1.659l-1.805,0.69l-3.425,1.301l-1.619,0.611     c0.199-0.531,0.385-1.075,0.544-1.619l1.526-0.584l3.743-1.42L425.209,177.245z"/>
		</g>
		<g>
			<path style="fill:#FF9C3D;" d="M392.859,173.856c-1.145-0.391-2.185-0.787-3.122-1.19s-1.743-0.891-2.419-1.463     c-0.677-0.572-1.203-1.255-1.58-2.049c-0.377-0.793-0.566-1.762-0.566-2.907c0-1.769,0.546-3.258,1.639-4.468     c1.093-1.21,2.653-2.035,4.683-2.478v-3.161c0.234-0.052,0.598-0.116,1.092-0.194s1.001-0.117,1.522-0.117     c1.015,0,1.808,0.176,2.38,0.526c0.572,0.352,0.858,1.1,0.858,2.244v0.507c1.612,0.209,2.907,0.624,3.882,1.249     c0.976,0.624,1.463,1.482,1.463,2.575c0,0.677-0.156,1.255-0.468,1.736s-0.689,0.892-1.132,1.229     c-0.572-0.364-1.34-0.684-2.302-0.956c-0.963-0.273-2.017-0.41-3.161-0.41c-1.171,0-2.029,0.163-2.576,0.487     c-0.546,0.326-0.819,0.735-0.819,1.229c0,0.391,0.169,0.709,0.507,0.956c0.338,0.248,0.845,0.475,1.522,0.683l2.068,0.664     c2.445,0.78,4.325,1.775,5.638,2.984c1.313,1.21,1.971,2.855,1.971,4.937c0,1.769-0.56,3.271-1.678,4.507     c-1.119,1.235-2.758,2.074-4.917,2.517v3.121c-0.234,0.052-0.599,0.117-1.093,0.195s-1.001,0.117-1.521,0.117     c-1.015,0-1.809-0.176-2.38-0.527c-0.572-0.351-0.858-1.099-0.858-2.243v-0.391c-0.937-0.104-1.789-0.272-2.556-0.507     c-0.768-0.234-1.431-0.533-1.99-0.897c-0.56-0.364-0.995-0.793-1.307-1.288c-0.312-0.493-0.468-1.053-0.468-1.678     c0-0.754,0.221-1.397,0.664-1.931c0.442-0.533,0.923-0.943,1.443-1.229c0.728,0.572,1.62,1.066,2.673,1.482     c1.054,0.417,2.205,0.625,3.454,0.625c1.274,0,2.171-0.195,2.692-0.586c0.52-0.39,0.78-0.845,0.78-1.365s-0.208-0.917-0.625-1.19     c-0.417-0.273-1.001-0.539-1.756-0.8L392.859,173.856z"/>
		</g>
	</g>
	<g>
		<g>
			<path style="fill:#FF9C3D;" d="M467.494,104.83c-0.075,2.521-0.483,4.966-1.177,7.29l1.736-0.664     c0.604-2.309,0.936-4.708,0.951-7.199L467.494,104.83z M468.988,102.672c-0.091-2.385-0.468-4.694-1.102-6.897     c-0.136-0.498-0.287-0.981-0.452-1.449c-0.724-2.188-1.706-4.256-2.913-6.188c-0.257-0.437-0.543-0.86-0.83-1.283     c-1.389-2.022-3.019-3.849-4.845-5.464c-0.437-0.392-0.875-0.769-1.343-1.117c-2.309-1.841-4.905-3.335-7.697-4.422     c-0.724-0.287-1.479-0.543-2.234-0.77c-2.671-0.815-5.508-1.268-8.451-1.283c-0.091-0.015-0.167-0.015-0.257-0.015     c-4.815,0-9.357,1.132-13.387,3.154c-9.93,4.935-16.767,15.183-16.767,27c0,16.631,13.523,30.154,30.154,30.154     c3.637,0,7.108-0.649,10.338-1.826h0.015c3.532-1.298,6.746-3.245,9.523-5.675c4.029-3.531,7.108-8.119,8.799-13.326     c0.196-0.589,0.377-1.193,0.513-1.811c0.604-2.309,0.936-4.708,0.951-7.199c0.015-0.106,0.015-0.211,0.015-0.317     C469.018,103.517,469.003,103.095,468.988,102.672z M466.317,112.119c-0.181,0.619-0.392,1.238-0.619,1.841     c-2.897,7.727-9.04,13.9-16.767,16.797h-0.015c-1.66,0.634-3.381,1.102-5.161,1.404c-1.584,0.287-3.23,0.422-4.89,0.422     c-15.786,0-28.645-12.843-28.645-28.645c0-8.542,3.758-16.224,9.719-21.476c1.871-1.66,3.969-3.079,6.248-4.195     c3.819-1.902,8.135-2.973,12.678-2.973c2.158,0,4.271,0.242,6.293,0.709c0.845,0.181,1.66,0.408,2.475,0.679     c2.988,0.951,5.75,2.384,8.225,4.211c0.468,0.363,0.936,0.724,1.389,1.102c1.887,1.569,3.562,3.396,4.98,5.403     c0.302,0.408,0.589,0.845,0.86,1.283c1.222,1.917,2.204,3.999,2.943,6.188c0.166,0.468,0.317,0.966,0.437,1.449     c0.619,2.203,0.981,4.528,1.027,6.912c0.015,0.226,0.015,0.468,0.015,0.709c0,0.302,0,0.589-0.015,0.89     C467.419,107.351,467.011,109.796,466.317,112.119z M467.494,104.83c-0.075,2.521-0.483,4.966-1.177,7.29l1.736-0.664     c0.604-2.309,0.936-4.708,0.951-7.199L467.494,104.83z"/>
			<path style="fill:#FF9C3D;" d="M475.538,101.781c0.015-0.528-0.015-1.056-0.045-1.585c-0.135-2.369-0.558-4.663-1.222-6.852     c-0.151-0.483-0.302-0.966-0.468-1.434c-0.785-2.173-1.811-4.226-3.049-6.143c-0.271-0.423-0.558-0.86-0.86-1.268     c-1.434-2.007-3.124-3.833-5.011-5.403c-0.438-0.392-0.89-0.77-1.358-1.117c-2.399-1.811-5.086-3.275-7.969-4.316     c-0.77-0.272-1.554-0.513-2.354-0.724c-2.49-0.664-5.101-1.027-7.803-1.027c-8.029,0-13.945,1.479-19.816,4.95     c-0.03,0.015-0.075,0.045-0.106,0.076c-2.324,1.388-4.135,3.32-5.539,5.523c1.871-1.66,3.969-3.079,6.248-4.195     c0.045-0.03,0.106-0.076,0.166-0.106c3.984-2.354,8.014-3.758,12.768-4.362c1.947-0.256,4.029-0.377,6.278-0.377     c1.796,0,3.547,0.166,5.252,0.498c0.891,0.151,1.781,0.363,2.641,0.619c3.094,0.875,5.991,2.279,8.557,4.09     c0.483,0.332,0.966,0.694,1.419,1.071c1.947,1.54,3.682,3.335,5.161,5.343c0.302,0.407,0.604,0.83,0.89,1.268     c1.253,1.902,2.294,3.969,3.064,6.143c0.166,0.468,0.332,0.951,0.467,1.434c0.664,2.188,1.057,4.482,1.162,6.867     c0.015,0.423,0.03,0.86,0.03,1.298v0.302c-0.045,2.4-0.679,4.95-1.735,7.485c-0.257,0.649-0.559,1.298-0.876,1.947     c-2.867,5.765-7.727,11.304-12.692,14.805c-1.947,1.374-3.909,2.445-5.78,3.094l-0.453,0.166     c-2.173,0.755-2.641,0.905-3.577,0.905h-0.015c-1.66,0.634-3.381,1.102-5.161,1.404c0.543,0.03,1.102,0.045,1.645,0.045     c1.192,0,1.992,0.03,2.596,0.045c0.362,0.015,0.664,0.03,0.936,0.03c0.09,0,0.181,0,0.272-0.015h0.015     c0.996-0.015,1.6-0.241,3.773-0.996l0.453-0.151c7.455-2.596,16.148-11.153,20.042-20.118c0.271-0.634,0.528-1.253,0.74-1.887     c0.845-2.384,1.328-4.769,1.328-7.063C475.553,101.963,475.553,101.872,475.538,101.781z"/>
			<path style="fill:#FF9C3D;" d="M455.556,73.665l-2.264,0.875l-3.486,1.313l-2.173,0.83c-0.815-0.272-1.63-0.498-2.475-0.679     l2.415-0.921l3.079-1.162l2.551-0.981C454.002,73.152,454.786,73.393,455.556,73.665z"/>
			<path style="fill:#FF9C3D;" d="M464.883,79.098l-1.615,0.603l-4.422,1.69l-1.6,0.604c-0.453-0.377-0.921-0.739-1.389-1.102     l1.645-0.619l4.347-1.645l1.675-0.649C463.993,78.328,464.445,78.706,464.883,79.098z"/>
			<path style="fill:#FF9C3D;" d="M470.754,85.769l-1.434,0.543l-4.799,1.826l-1.434,0.543c-0.272-0.437-0.558-0.875-0.86-1.283     l1.464-0.543l4.739-1.811l1.464-0.544C470.196,84.908,470.482,85.346,470.754,85.769z"/>
			<path style="fill:#FF9C3D;" d="M474.27,93.345l-1.419,0.543l-4.965,1.886l-1.419,0.543c-0.12-0.483-0.271-0.981-0.437-1.449     l1.404-0.544l4.95-1.871l1.418-0.543C473.969,92.379,474.119,92.862,474.27,93.345z"/>
			<path style="fill:#FF9C3D;" d="M475.538,101.781l-1.494,0.574l-5.04,1.902l-1.509,0.573c0.015-0.302,0.015-0.588,0.015-0.89     c0-0.242,0-0.483-0.015-0.709l1.494-0.558l5.025-1.917l1.479-0.558C475.523,100.725,475.553,101.253,475.538,101.781z"/>
			<path style="fill:#FF9C3D;" d="M474.225,109.116c-0.211,0.634-0.468,1.253-0.74,1.887l-2.053,0.785l-3.893,1.479l-1.842,0.694     c0.227-0.604,0.438-1.223,0.619-1.841l1.736-0.664l4.256-1.615L474.225,109.116z"/>
		</g>
		<g>
			<path style="fill:#FF9C3D;" d="M438.222,106.574c-1.302-0.443-2.484-0.894-3.549-1.353s-1.982-1.013-2.751-1.664     c-0.77-0.65-1.369-1.427-1.797-2.329c-0.429-0.902-0.644-2.004-0.644-3.306c0-2.012,0.621-3.705,1.864-5.08     c1.242-1.376,3.017-2.314,5.324-2.817v-3.595c0.266-0.059,0.68-0.133,1.242-0.222c0.562-0.089,1.138-0.133,1.73-0.133     c1.153,0,2.056,0.199,2.707,0.599c0.65,0.399,0.976,1.25,0.976,2.552v0.576c1.833,0.237,3.306,0.71,4.415,1.42     c1.109,0.71,1.664,1.687,1.664,2.929c0,0.77-0.178,1.428-0.533,1.975c-0.355,0.548-0.784,1.014-1.287,1.397     c-0.651-0.414-1.524-0.776-2.618-1.087c-1.095-0.311-2.292-0.466-3.594-0.466c-1.331,0-2.307,0.185-2.929,0.555     c-0.621,0.37-0.932,0.836-0.932,1.397c0,0.443,0.192,0.806,0.577,1.087c0.384,0.281,0.96,0.54,1.73,0.776l2.352,0.754     c2.78,0.888,4.917,2.02,6.412,3.395c1.493,1.376,2.241,3.247,2.241,5.613c0,2.012-0.637,3.72-1.908,5.124     c-1.272,1.405-3.136,2.359-5.59,2.862v3.549c-0.266,0.06-0.681,0.134-1.242,0.222c-0.562,0.089-1.139,0.134-1.73,0.134     c-1.154,0-2.056-0.2-2.707-0.6c-0.651-0.398-0.976-1.25-0.976-2.551v-0.443c-1.065-0.119-2.034-0.311-2.906-0.577     c-0.873-0.267-1.627-0.605-2.263-1.021c-0.637-0.414-1.131-0.902-1.486-1.464s-0.533-1.198-0.533-1.908     c0-0.857,0.251-1.59,0.754-2.196c0.502-0.605,1.05-1.071,1.642-1.397c0.828,0.651,1.841,1.213,3.039,1.686     c1.198,0.474,2.507,0.71,3.927,0.71c1.449,0,2.47-0.222,3.062-0.665c0.591-0.444,0.888-0.961,0.888-1.553     s-0.237-1.043-0.71-1.354c-0.474-0.311-1.139-0.613-1.997-0.909L438.222,106.574z"/>
		</g>
	</g>
	<path style="fill:#AE312F;" d="M219.17,370.025c0.326-0.801,0.925-1.343,1.611-1.721c0.688-0.392,1.508-0.553,2.353-0.515   c0.841,0.067,1.705,0.416,2.314,1.013c0.639,0.562,0.974,1.38,0.972,2.213c-0.854-0.199-1.427-0.415-1.985-0.497   c-0.547-0.081-0.995-0.18-1.502-0.185C221.925,370.23,220.817,370.258,219.17,370.025z"/>
	<polygon style="fill:#FFFFFF;" points="392.426,225.271 401.12,220.005 401.583,209.867 409.425,216.497 419.303,213.92    415.456,223.284 421.098,231.83 410.878,230.987 404.487,238.845 402.017,228.96  "/>
	<polygon style="fill:#FFFFFF;" points="432.915,237.648 437.161,238.038 439.844,234.732 440.838,238.924 444.813,240.516    441.182,242.717 440.956,247.007 437.717,244.175 433.602,245.234 435.232,241.283  "/>
</g>















</svg>
