<?xml version="1.0" encoding="UTF-8"?>
<!-- Generator: Adobe Illustrator 25.2.3, SVG Export Plug-In . SVG Version: 6.00 Build 0)  -->
<svg xmlns="http://www.w3.org/2000/svg" xmlns:xlink="http://www.w3.org/1999/xlink" version="1.1" id="Capa_1" x="0px" y="0px" viewBox="0 0 512 512" style="enable-background:new 0 0 512 512;" xml:space="preserve" width="512" height="512">
<g>
	<path style="fill:#9BEFE6;" d="M499.187,288.697c-10.102,43.432-41.173,82.749-78.224,107.74   c-106.651,71.937-246.614,52.441-333.423-19.765c-38.862-32.324-69.312-81.702-76.724-135.132   c-6.205-44.73,7.313-92.314,39.947-127.506c35.313-38.08,85.141-58.701,132.944-62.841c43.329-3.753,88.057,1.575,128.613,12.74   c85.275,23.477,185.831,87.634,190.218,189.938C503.043,265.64,501.836,277.31,499.187,288.697z"/>
	<g>
		<g>
			<path style="fill:#FF9C3D;" d="M136.943,285.773c0,0-35.174,35.53,2.85,80.733c0,0-22.986-2.395-33.594,7.938     c-10.608,10.334,1.329,15.04,6.128,14.765c4.799-0.274,17.306-13.375,44.307-7.99c27.002,5.385,22.668-22.429,22.668-22.429     L136.943,285.773z"/>
			<path style="opacity:0.2;fill:#AE312F;" d="M136.943,285.773c0,0-35.174,35.53,2.85,80.733c0,0-22.986-2.395-33.594,7.938     c-10.608,10.334,1.329,15.04,6.128,14.765c4.799-0.274,17.306-13.375,44.307-7.99c27.002,5.385,22.668-22.429,22.668-22.429     L136.943,285.773z"/>
		</g>
		<path style="fill:#AE312F;" d="M108.329,388.432c-0.244-1.433,0.007-2.87,0.493-4.21c0.479-1.353,1.291-2.588,2.295-3.658    c1.025-1.048,2.292-1.898,3.691-2.345c1.369-0.516,2.879-0.554,4.262-0.238c-1.214,0.817-2.325,1.388-3.298,2.152    c-0.977,0.726-1.89,1.466-2.69,2.346C111.395,384.168,110.021,386.153,108.329,388.432z"/>
	</g>
	<path style="fill:#FF9C3D;" d="M473.701,269.286c-0.696,11.434-2.277,22.758-4.902,33.687c-1.851,7.797-4.239,15.388-7.196,22.663   c-4.128,10.153-9.363,19.722-15.863,28.404c-5.741,7.671-12.463,14.661-20.275,20.781c-3.306,2.578-6.801,5.013-10.501,7.275   c-7.259,4.444-14.471,8.303-21.604,11.656c-10.675,5.045-21.161,8.92-31.314,11.862c-14.629,4.254-28.578,6.563-41.484,7.576   c-13.174,1.06-25.257,0.759-35.806-0.237c-2.53-0.237-4.982-0.506-7.322-0.806c-11.656-1.518-21.035-3.748-27.424-5.599   c-6.215-1.771-9.632-3.179-9.632-3.179l0.696-51.906l0.301-21.635l13.807-65.412l20.829-98.624c0,0,117.603-90.195,158.343-44.204   c6.057,6.832,11.893,16.163,17.144,27.282c3.685,7.797,7.085,16.479,10.059,25.795c2.104,6.579,4.001,13.475,5.646,20.592   c1.692,7.323,3.116,14.882,4.223,22.6c1.249,8.635,2.103,17.46,2.483,26.348C474.27,252.553,474.223,260.952,473.701,269.286z"/>
	<path style="fill:#FF5555;" d="M300.001,235.046c0,71.849-58.248,130.097-130.097,130.097c-30.524,0-58.595-10.517-80.784-28.12   l55.543-229.607c7.938-1.383,16.606-2.451,25.241-2.451C241.753,104.965,300.001,163.197,300.001,235.046z"/>
	<path style="fill:#6CE0C0;" d="M172.403,237.75l-79.488,12.083l-52.491-27.598c0.016-0.174,0.048-0.348,0.048-0.522   c5.836-57.172,48.679-103.385,104.191-114.297L172.403,237.75z"/>
	<path style="fill:#FFFFFF;" d="M172.403,237.75l-83.283,99.273c-30.049-23.818-49.312-60.652-49.312-101.977   c0-4.317,0.205-8.588,0.617-12.81c0.016-0.174,0.048-0.348,0.048-0.522L172.403,237.75z"/>
	<g>
		<g>
			<path style="fill:#FF9C3D;" d="M346.166,477.353c-5.867,3.859-16.321-0.475-34.177-0.301h-0.016     c-11.925,0.095-27.123,2.214-46.449,10.106c-22.901,9.347-45.422,19.326-66.504,23.185c-12.716,2.325-24.909,2.436-36.328-1.17     c-9.632-3.036-18.71-8.698-27.108-17.871c-18.235-19.912-19.311-49.075-5.013-73.051c3.954-6.627,9.094-12.874,15.356-18.409     c14.455-12.763,34.968-21.809,61.063-23.422l19.326,11.798c0,0-53.677,2.151-74.616,33.829c-5.52,8.35-7.655,17.002-7.212,25.178     c0.395,7.813,3.131,15.183,7.465,21.414c8.272,11.925,22.379,19.674,37.055,18.377c4.745-0.427,9.157-1.392,13.459-2.752h0.016     c12.652-4.001,24.182-11.34,39.618-17.666c10.66-4.381,23.201-8.287,39.254-10.264c3.1-0.395,6.342-0.696,9.726-0.933     C345.849,451.637,355.94,470.9,346.166,477.353z"/>
			<path style="opacity:0.2;fill:#AE312F;" d="M346.166,477.353c-5.867,3.859-16.321-0.475-34.177-0.301h-0.016     c-11.925,0.095-27.123,2.214-46.449,10.106c-22.901,9.347-45.422,19.326-66.504,23.185c-12.716,2.325-24.909,2.436-36.328-1.17     c-9.632-3.036-18.71-8.698-27.108-17.871c-18.235-19.912-19.311-49.075-5.013-73.051c3.954-6.627,9.094-12.874,15.356-18.409     c14.455-12.763,34.968-21.809,61.063-23.422l19.326,11.798c0,0-53.677,2.151-74.616,33.829c-5.52,8.35-7.655,17.002-7.212,25.178     c0.395,7.813,3.131,15.183,7.465,21.414c8.272,11.925,22.379,19.674,37.055,18.377c4.745-0.427,9.157-1.392,13.459-2.752h0.016     c12.652-4.001,24.182-11.34,39.618-17.666c10.66-4.381,23.201-8.287,39.254-10.264c3.1-0.395,6.342-0.696,9.726-0.933     C345.849,451.637,355.94,470.9,346.166,477.353z"/>
		</g>
		<path style="fill:#AE312F;" d="M346.166,477.353c-5.867,3.859-16.321-0.475-34.177-0.301c4.508-5.472,15.104-8.287,15.104-8.287    c-23.423,1.898-38.084-6.184-45.738-12.431c3.1-0.395,6.342-0.696,9.726-0.933C345.849,451.637,355.94,470.9,346.166,477.353z"/>
		<path style="fill:#AE312F;" d="M232.406,486.051c-11.086,5.662-22.758,1.851-29.923-1.787    c12.652-4.001,24.182-11.34,39.618-17.666C243.24,472.766,242.37,480.958,232.406,486.051z"/>
		<path style="fill:#AE312F;" d="M199.02,510.343c-12.716,2.325-24.909,2.436-36.328-1.17c3.922-5.583,10.738-13.032,18.615-11.798    C187.807,498.387,194.307,504.634,199.02,510.343z"/>
		<path style="fill:#AE312F;" d="M151.954,468.638c-6.547,2.103-15.515,3.622-17.602-2.847c-2.309-7.148,5.14-14.566,10.138-18.567    C144.884,455.037,147.62,462.407,151.954,468.638z"/>
		<path style="fill:#AE312F;" d="M148.632,413.87c-5.124,3.859-13.111,4.444-18.061,4.381c3.954-6.627,9.094-12.874,15.356-18.409    C149.597,404.001,153.52,410.169,148.632,413.87z"/>
	</g>
	<path style="fill:#FF9C3D;" d="M450.096,87.571c0.734,5.467,0.73,10.913-0.043,16.279c-2.68,18.588-15.002,36.19-40.441,51.009   c-46.326,27.036-138.514,16.706-138.514,16.706s-1.783-1.156-4.492-3.504c-5.536-4.785-14.833-14.587-20.332-29.764   c-0.338-0.898-0.64-1.843-0.963-2.786c-0.652-2.073-1.23-4.219-1.72-6.484c-0.012-0.083-0.044-0.162-0.056-0.245   c-0.349-1.569-0.642-3.188-0.879-4.858l-0.102-0.721c-0.058-0.412-0.117-0.824-0.155-1.239c-0.055-0.392-0.114-0.804-0.152-1.219   c-0.368-3.627-0.576-7.319-0.558-11.043c0-0.736,0.024-1.454,0.066-2.196c0.048-1.583,0.156-3.197,0.328-4.798   c0.003-0.127,0.001-0.295,0.021-0.445c0.353-3.141,0.892-6.308,1.689-9.428c0.183-0.783,0.387-1.569,0.635-2.34   c3.318-11.131,10.054-21.885,22.293-31.192c7.453-5.705,16.96-10.86,29.015-15.243c0.159-0.064,0.321-0.108,0.48-0.173   c0.138-0.062,0.297-0.126,0.439-0.167c0.48-0.173,1.001-0.352,1.502-0.529c2.768-0.94,5.663-1.876,8.692-2.748   c0.465-0.129,0.948-0.282,1.416-0.39c0.666-0.2,1.313-0.376,2.002-0.558c0.303-0.085,0.648-0.176,0.993-0.267   c0.121-0.038,0.224-0.053,0.344-0.091c9.828-2.594,19.183-4.68,27.983-6.223c0.368-0.074,0.739-0.126,1.107-0.199   c1.128-0.202,2.238-0.381,3.327-0.557c1.007-0.164,2.013-0.328,3.003-0.468l0.021-0.003c4.428-0.65,8.688-1.15,12.821-1.505   c0.621-0.067,1.222-0.131,1.825-0.175c0.497-0.05,1.019-0.082,1.496-0.128c29.331-2.21,51.158,2.701,64.996,13.982   c4.092,3.35,7.48,7.221,10.149,11.657c0.247,0.406,0.494,0.813,0.741,1.219c0.373,0.704,0.764,1.384,1.135,2.068   c0.226,0.409,0.429,0.801,0.632,1.193c2.824,5.381,5.084,10.779,6.71,16.161l0.035,0.1c0.273,0.887,0.528,1.796,0.781,2.686   c0.478,1.887,0.909,3.739,1.238,5.606C449.788,85.554,449.952,86.561,450.096,87.571z"/>
	<path style="fill:#FF9C3D;" d="M447.663,76.881l0.035,0.103c0.271,0.891,0.527,1.787,0.767,2.687   c0.491,1.879,0.907,3.733,1.242,5.595c1.188,6.507,1.372,12.956,0.454,19.296c-2.68,18.608-15.004,36.202-40.435,51.027   c-46.344,27.022-119.459,30.022-119.459,30.022s-17.641-10.759-23.555-16.821c-5.115-5.243-14.846-14.602-20.34-29.774   c-0.326-0.906-0.641-1.831-0.948-2.776c-0.657-2.071-1.243-4.229-1.729-6.483c-0.015-0.093-0.04-0.166-0.055-0.259   c-0.396-1.795-0.731-3.658-0.987-5.578c-0.055-0.406-0.11-0.811-0.155-1.236c-0.05-0.391-0.105-0.797-0.145-1.207   c-0.376-3.639-0.586-7.331-0.555-11.05c0-0.732,0.02-1.454,0.05-2.196c0.055-1.595,0.161-3.19,0.331-4.789   c0-0.146,0.016-0.297,0.031-0.449c0.341-3.149,0.878-6.311,1.676-9.442c0.201-0.779,0.402-1.558,0.637-2.332   c3.316-11.13,10.058-21.891,22.295-31.194c7.558-5.78,17.222-11.003,29.493-15.421c0.15-0.047,0.296-0.109,0.446-0.157   c0.487-0.186,0.993-0.362,1.505-0.523c2.773-0.955,5.656-1.879,8.691-2.754c1.103-0.331,2.247-0.642,3.405-0.958   c0.321-0.085,0.657-0.174,0.993-0.264c10.391-2.751,20.215-4.918,29.452-6.509c2.141-0.365,4.258-0.707,6.334-1.018l0.015-0.005   c5.075-0.752,9.949-1.311,14.653-1.686c0.496-0.058,1.003-0.088,1.489-0.127c29.336-2.211,51.154,2.696,64.987,13.989   c4.086,3.333,7.476,7.211,10.153,11.639c0.255,0.407,0.496,0.82,0.736,1.232c0.386,0.692,0.772,1.384,1.138,2.066   c0.22,0.402,0.421,0.794,0.642,1.197C443.768,66.102,446.029,71.506,447.663,76.881z"/>
	<path style="fill:#FF9C3D;" d="M299.995,43.845c-0.376,0.411-6.469,7.064-13.341,12.465c-2.357,1.832-4.794,3.527-7.136,4.769   c-3.792,2.024-7.317,2.873-9.723,1.24c-1.043-0.713-2.076-1.737-3.079-3.016c-0.11-0.128-0.225-0.27-0.321-0.403   c-4.933-6.499-8.862-18.503-8.576-25.767c0.075-2.024,0.482-3.665,1.269-4.727c0.305-0.422,0.667-0.731,1.103-0.966   c6.951-3.653,14.518-1.497,20.379,2.839c4.031,2.976,7.48,7.079,11.813,9.668c0.331,0.189,3.149,1.904,5.275,3.008l0.501,0.249   C299.087,43.675,299.814,43.951,299.995,43.845z"/>
	<path style="fill:#FF9C3D;" d="M428.409,44.058c-0.762,0.061-50.818,3.656-54.983-10.502c-0.396-1.356-0.672-2.749-0.832-4.147   c-1.608-13.353,6.678-27.984,12.05-29.285l0.015-0.005c5.927-1.427,12.149,10.262,18.817,18.768   C410.038,27.281,427.868,43.546,428.409,44.058z"/>
	<path style="fill:#AE312F;" d="M382.553,29.543c-5.666-0.444-9.744-0.137-9.959-0.134c-1.608-13.353,6.678-27.985,12.05-29.285   l0.015-0.005c1.729,2.676,3.775,5.888,4.085,14.07c0.025,0.806,0.105,1.577,0.21,2.325   C390.456,27.607,387.948,29.975,382.553,29.543z"/>
	<path style="fill:#AE312F;" d="M271.385,55.945c-1.881,1.08-3.641,2.123-4.99,2.954c-4.933-6.499-8.862-18.503-8.576-25.767   c0.075-2.024,0.482-3.665,1.269-4.727c0,0,3.109,0.469,7.145,6.242c1.469,2.107,2.813,4.14,4.237,5.97   C273.843,44.939,277.503,52.392,271.385,55.945z"/>
	<path style="opacity:0.48;fill:#EA4949;" d="M364.015,101.838c-3.476,3.856-2.58,9.84,3.035,11.607   c7.518,2.367,19.567-1.308,24.01-7.693c3.751-5.39-1.267-12.343-6.928-12.434c-4.784-0.077-9.432,1.465-13.502,3.718   C368.738,98.083,365.964,99.677,364.015,101.838z"/>
	<path style="opacity:0.48;fill:#EA4949;" d="M290.411,112.172c5.046,2.439,6.714,8.644,1.967,12.536   c-6.356,5.211-19.72,6.247-26.788,1.703c-5.968-3.836-4.012-12.576,1.494-14.843c4.653-1.917,9.862-2.194,14.806-1.554   C284.188,110.311,287.584,110.805,290.411,112.172z"/>
	<path style="fill:#AE312F;" d="M339.587,32.916c-0.109,0.268-0.197,0.532-0.286,0.798c-1.451,3.843-2.568,7.681-3.586,11.021   c-1.181,3.826-2.164,7.708-2.997,11.611c-0.632,2.949-2.307,6.11-5.361,7.258c-3.851,1.451-8.019-0.207-10.842-2.918   c-3.507-3.37-4.807-8.085-5.236-12.733c-0.233-2.679-0.175-5.379,0.204-8.039c0.047-0.259,0.074-0.515,0.121-0.774   C321.432,36.545,330.786,34.46,339.587,32.916z"/>
	<path style="fill:#AE312F;" d="M255.85,123.06c-4.082,1.66-8.856,1.292-13.299,0.137c-0.055-0.406-0.11-0.812-0.155-1.236   c-0.05-0.391-0.105-0.797-0.145-1.207c-0.376-3.639-0.586-7.331-0.555-11.05C251.729,115.036,263.497,119.935,255.85,123.06z"/>
	<path style="fill:#AE312F;" d="M246.157,138.411c4.117-0.63,8.447-1.962,10.839-4.228c4.218-3.996-4.647-5.138-13.523-5.466   C243.473,128.717,244.448,134.559,246.157,138.411z"/>
	<path style="fill:#AE312F;" d="M250.105,104.567c-2.442,0.216-5.27-0.602-8.028-1.848c0-0.146,0.015-0.297,0.03-0.449   c0.341-3.149,0.879-6.312,1.676-9.442C250.232,98.297,255.767,104.069,250.105,104.567z"/>
	<path style="fill:#AE312F;" d="M359.866,30.183c-0.156,0.233-0.268,0.48-0.419,0.753c-2.674,5.153-5.208,11.147-7.932,12.396   c-6.355,2.921-10.604-2.867-7.84-10.345c-0.003-0.021,0.018-0.024,0.015-0.044c0.109-0.268,0.218-0.535,0.33-0.783   c1.007-0.164,2.013-0.328,3.003-0.468l0.021-0.003C351.472,31.038,355.732,30.538,359.866,30.183z"/>
	<path style="fill:#AE312F;" d="M308.265,40.055c-0.109,0.268-0.216,0.556-0.324,0.824c-1.62,4.288-3.278,8.749-5.567,10.105   c-4.907,2.904-10.02-0.238-8.443-3.637c0.39-0.812,0.784-1.583,1.206-2.315c0.207-0.324,0.392-0.645,0.599-0.968   c0.159-0.064,0.321-0.108,0.48-0.173c0.138-0.062,0.297-0.126,0.439-0.167c0.48-0.173,1.001-0.352,1.502-0.529   c2.768-0.94,5.663-1.876,8.692-2.748C307.314,40.316,307.796,40.163,308.265,40.055z"/>
	<g>
		<g>
			<path style="fill:#FFFFFF;" d="M388.221,82.99c-5.857,6.318-16.504,10.419-25.259,9.223c-1.87-0.256-3.681-0.777-5.396-1.603     c-7.436-3.628-13.152-11.687-15.141-19.47c-0.06-0.176-0.105-0.357-0.15-0.538c-1.859-7.89,0.965-16.067,7.044-21.446     c7.116-6.292,18.991-10.6,28.193-6.047c3.631,1.801,6.874,4.716,9.446,8.25l0.016-0.005     C393.862,60.75,396.061,74.519,388.221,82.99z"/>
			<path style="fill:#AE312F;" d="M388.221,82.99c-3.352,3.607-7.725,6.123-12.326,7.817c-2.314,0.834-4.725,1.417-7.18,1.706     c-2.452,0.301-4.965,0.302-7.434-0.167c-2.473-0.461-4.829-1.526-6.927-2.892c-2.111-1.367-4.022-3.033-5.718-4.891     c-3.393-3.72-5.938-8.214-7.379-13.125l0.027,0.091c-1.693-5.879-0.837-12.147,2.145-17.353c1.479-2.583,3.445-4.918,5.762-6.75     c2.277-1.854,4.769-3.413,7.428-4.624c5.295-2.362,11.387-3.526,17.18-2.06c2.893,0.701,5.532,2.175,7.779,3.972     c2.272,1.8,4.207,3.963,5.833,6.311l-0.622-0.205l0.015-0.004l0.401-0.114l0.22,0.317c1.651,2.388,2.98,4.979,3.961,7.688     c0.967,2.711,1.615,5.535,1.84,8.394c0.219,2.858-0.038,5.752-0.829,8.498C391.601,78.344,390.179,80.911,388.221,82.99z      M388.221,82.99c1.935-2.1,3.324-4.676,4.087-7.415c0.784-2.74,0.91-5.632,0.613-8.445c-0.595-5.652-3.006-11.007-6.401-15.446     l0.62,0.204l-0.014,0.005l-0.366,0.125l-0.256-0.331c-1.687-2.18-3.649-4.143-5.869-5.717c-2.22-1.585-4.673-2.775-7.286-3.26     c-5.246-0.996-10.749,0.231-15.582,2.551c-4.841,2.36-9.259,5.759-11.903,10.315c-1.319,2.28-2.203,4.8-2.61,7.4     c-0.196,1.3-0.298,2.621-0.223,3.938c0.002,0.662,0.11,1.314,0.171,1.973c0.121,0.617,0.217,1.365,0.366,1.861l0.027,0.088     l0.001,0.004c1.08,4.565,3.248,8.962,6.279,12.652c1.515,1.846,3.245,3.523,5.181,4.929c1.938,1.409,4.079,2.519,6.414,3.086     c4.682,1.137,9.727,0.592,14.352-0.917C380.464,89.085,384.822,86.531,388.221,82.99z"/>
		</g>
		<path style="fill:#AE312F;" d="M371.233,85.096c6.519-1.069,12.672-5.572,14.678-11.829c3.196-9.968-3.654-21.81-14.122-24.115    c-5.621-1.237-12.235,0.196-16.605,3.84c-11.68,9.739-3.726,29.575,10.632,32.108C367.584,85.412,369.418,85.394,371.233,85.096z"/>
		<path style="opacity:0.21;fill:#AE312F;" d="M386.958,51.358c-31.687-4.044-43.193,17.067-44.533,19.782    c-0.06-0.176-0.105-0.357-0.15-0.538c-1.859-7.89,0.965-16.067,7.044-21.446c7.116-6.292,18.991-10.6,28.193-6.047    C381.142,44.909,384.386,47.824,386.958,51.358z"/>
	</g>
	<g>
		<g>
			<path style="fill:#FFFFFF;" d="M292.693,90.386c-1.365,7.279-8.507,12.13-15.357,14.027c-0.948,0.25-1.906,0.421-2.863,0.495     c-11.579,0.93-22.745-11.284-22.157-22.499c0.04-1.152,0.231-2.301,0.547-3.426c2.81-9.832,16.015-17.374,26.264-14.289     c2.477,0.765,4.527,2.576,6.187,4.461c1.138,1.284,2.231,2.778,3.218,4.403C291.667,78.639,293.712,84.974,292.693,90.386z"/>
			<path style="fill:#AE312F;" d="M292.693,90.386c-0.266,1.296-0.674,2.565-1.269,3.752c-0.618,1.172-1.353,2.284-2.229,3.284     c-1.747,1.998-3.87,3.667-6.206,4.95c-1.167,0.643-2.367,1.237-3.616,1.718c-1.24,0.493-2.527,0.928-3.873,1.155     c-2.691,0.403-5.49,0.221-8.113-0.608c-5.276-1.628-9.738-5.355-12.811-9.948c-1.501-2.33-2.697-4.91-3.276-7.694     c-0.123-0.698-0.207-1.406-0.309-2.111c-0.076-0.707-0.047-1.423-0.071-2.135c-0.02-1.421,0.211-2.901,0.613-4.278     c1.742-5.596,6.014-9.831,10.869-12.428c4.874-2.567,10.681-3.703,16.061-2.24c2.784,0.635,5.014,2.566,6.75,4.569     c1.774,2.03,3.188,4.32,4.411,6.679c1.227,2.362,2.175,4.866,2.762,7.453C292.98,85.078,293.195,87.779,292.693,90.386z      M292.693,90.386c0.884-5.275-0.838-10.618-3.421-15.145c-1.312-2.281-2.89-4.407-4.721-6.257     c-1.825-1.83-3.951-3.411-6.431-3.787c-4.987-1.018-10.21,0.426-14.505,2.992c-2.175,1.272-4.126,2.906-5.756,4.772     c-1.634,1.858-2.917,4.014-3.584,6.309c-1.34,4.602-0.193,9.847,2.385,14.124c2.539,4.305,6.402,8.081,11.191,9.896     c2.377,0.929,4.958,1.273,7.522,1.069c1.28-0.128,2.54-0.461,3.788-0.862c1.248-0.393,2.474-0.876,3.642-1.476     c2.341-1.18,4.535-2.716,6.311-4.671c0.884-0.981,1.63-2.078,2.262-3.237C291.985,92.938,292.41,91.679,292.693,90.386z"/>
		</g>
		<path style="fill:#AE312F;" d="M268.216,97.199c0.554,0.232,6.22,3.969,14.441-1.379c8.221-5.347,3.64-16.471,1.089-19.806    c-2.551-3.335-9.73-9.656-19.227-3.907C255.023,77.857,258.689,93.199,268.216,97.199z"/>
		<path style="opacity:0.21;fill:#AE312F;" d="M288.533,73.558c-14.386-3.343-28.975,4.195-36.217,8.851    c0.04-1.152,0.231-2.301,0.547-3.426c2.81-9.832,16.015-17.374,26.264-14.289c2.477,0.765,4.527,2.576,6.187,4.461    C286.453,70.439,287.546,71.933,288.533,73.558z"/>
	</g>
	<path style="fill:#AE312F;" d="M438.331,55.51c-20.989,22.031-34.752,7.772-25.214,1.839c6.39-3.98,11.631-9.665,15.061-13.478   C432.265,47.204,435.654,51.082,438.331,55.51z"/>
	<path style="fill:#AE312F;" d="M447.56,76.158l0.035,0.103c0.105,0.504,0.235,0.983,0.351,1.468   c-8.22,6.379-19.032,11.801-29.252,10.708c-3.856-0.412-7.807-2.763-7.706-6.423c0.05-1.464,0.783-2.931,1.846-4.16   c3.135-3.655,8.406-5.738,12.954-7.691c5.171-2.23,10.792-6.457,15.061-10.159C443.666,65.38,445.926,70.784,447.56,76.158z"/>
	<path style="fill:#AE312F;" d="M449.605,84.543c1.188,6.507,1.562,13.05,0.644,19.391c-6.063,3.032-13.63,3.634-20.234,2.151   c-2.943-0.667-5.897-2.291-6.288-5.487c-0.526-4.227,4.765-6.348,8.085-7.312C440.818,90.677,446.636,86.877,449.605,84.543z"/>
	<g>
		<path style="fill:#AE312F;" d="M245.559,138.117c3.504-2.671,7.225-4.966,10.999-7.169c3.796-2.166,7.646-4.238,11.714-5.932    c-3.503,2.674-7.224,4.968-11,7.169C253.476,134.349,249.626,136.421,245.559,138.117z"/>
		<path style="fill:#AE312F;" d="M240.15,128.717c3.919-1.729,7.959-3.043,12.029-4.254c4.082-1.171,8.194-2.237,12.429-2.884    c-3.918,1.733-7.958,3.046-12.029,4.255C248.496,127.002,244.384,128.068,240.15,128.717z"/>
		<path style="fill:#AE312F;" d="M239.15,115.423c4.306,0.127,8.542,0.68,12.761,1.339c4.213,0.701,8.408,1.509,12.533,2.749    c-4.306-0.123-8.543-0.677-12.762-1.339C247.471,117.468,243.276,116.659,239.15,115.423z"/>
	</g>
	<path style="fill:#FFFFFF;" d="M385.005,25.061c0,0-2.983,0.729-3.991,0.314c-1.023-0.41,3.44-1.93,3.44-1.93   c-2.562-0.234-5.275-2.227-4.523-2.512c0.762-0.305,4.032,0.78,4.032,0.78c-4.051-3.035-4.116-9.521-0.962-10.092   c1.349-0.246,3.706,2.119,5.952,4.893c1.502,11.093,10.548,16.752,12.052,17.352c-6.233-2.738-13.057-3.892-18.453-4.323   C382.583,27.191,385.005,25.061,385.005,25.061z"/>
	<path style="fill:#FFFFFF;" d="M271.385,55.945c-0.386-2.498,1.039-6.574,1.169-6.924c-0.171,0.135-1.951,1.655-3.094,1.43   c-1.199-0.241,1.806-2.667,1.806-2.667s-2.593,1.044-3.069,0.332c-0.486-0.693,2.292-1.34,2.292-1.34   c-2.296-0.529-7.486-4.507-5.565-6.592c1.254-1.355,3.861-0.403,5.546,0.433c3.374,4.322,7.23,7.467,14.586,7.64   C285.056,48.256,277.503,52.392,271.385,55.945z"/>
	<g>
		<path style="fill:#AE312F;" d="M314.455,72.656c0,0-5.266-3.904-7.103-2.53c-1.837,1.373,6.096,7.293,8.586,7.436    c2.49,0.143,5.58-8.851,3.948-10.059C318.253,66.296,314.455,72.656,314.455,72.656z"/>
		<path style="fill:#AE312F;" d="M330.137,102.845c-1.365-2.074-2.639-4.2-3.951-6.306l-3.769-6.413    c-1.257-2.139-2.438-4.319-3.631-6.497c-1.159-2.203-2.323-4.38-3.336-6.712l1.371-0.259c-0.069,4.742-0.013,9.504,0.073,14.255    c0.052,2.376,0.13,4.753,0.282,7.125c0.109,2.376,0.315,4.744,0.585,7.117c-0.583-2.318-0.929-4.687-1.27-7.054    c-0.301-2.373-0.494-4.755-0.68-7.137c-0.351-4.77-0.447-9.542-0.415-14.33l0.023-3.389l1.349,3.13    c0.955,2.215,2.099,4.429,3.224,6.621l3.4,6.598l3.415,6.6C327.906,98.415,329.058,100.609,330.137,102.845z"/>
		<path style="opacity:0.48;fill:#AE312F;" d="M305.849,80.671c-3.645,1.777-6.762,4.977-8.051,9.133    c-1.869,6.025-0.795,12.789,4.546,16.621c3.314,2.379,7.323,3.16,11.189,3.3c7.407,0.269,14.778,0.026,21.382-3.549    c2.395-1.297,4.657-2.972,6.29-5.274c2.502-3.528,3.321-8.463,2.148-12.936c-1.173-4.474-4.312-8.381-8.228-10.243    c-4.817-2.291-11.048-1.926-15.92-0.734C314.865,78.051,309.857,78.718,305.849,80.671z"/>
	</g>
	<g>
		<path style="fill:#AE312F;" d="M387.364,102.023c4.347-0.953,8.731-1.475,13.126-1.891c4.398-0.373,8.806-0.638,13.253-0.468    c-4.346,0.956-8.731,1.478-13.126,1.891C396.219,101.925,391.811,102.19,387.364,102.023z"/>
		<path style="fill:#AE312F;" d="M412.31,89.013c-3.838,1.892-7.815,3.373-11.826,4.755c-4.025,1.34-8.084,2.577-12.284,3.401    c3.837-1.895,7.814-3.377,11.826-4.755C404.052,91.077,408.111,89.839,412.31,89.013z"/>
		<path style="fill:#AE312F;" d="M404.923,77.729c-2.582,3.346-5.47,6.384-8.431,9.348c-2.992,2.932-6.061,5.787-9.436,8.332    c2.58-3.349,5.467-6.387,8.431-9.347C398.481,83.131,401.55,80.276,404.923,77.729z"/>
	</g>
	<path style="opacity:0.48;fill:#AE312F;" d="M407.891,153.152c1.68-1.36,3.375-2.691,5.016-4.087   c1.649-1.381,3.301-2.763,4.818-4.256l0.979-0.964l-0.11,1.409c-0.046,0.58-0.041,1.212,0.046,1.777   c0.072,0.56,0.311,1.114,0.536,1.208c0.085,0.053,0.287,0.063,0.437,0.009c0.09-0.026,0.252-0.161,0.389-0.371   c0.281-0.419,0.491-0.992,0.658-1.567c0.324-1.167,0.539-2.404,0.677-3.646c0.132-1.23,0.227-2.528,0.168-3.689l-0.12-2.352   l1.407,1.877c0.567,0.757,1.238,1.514,1.947,2.123c0.7,0.608,1.566,1.08,2.023,0.817c0.558-0.212,0.964-1.147,1.145-2.052   c0.187-0.923,0.258-1.931,0.25-2.888l-0.003-0.44l0.385-0.124c2.178-0.704,4.333-1.709,6.335-2.904   c1.019-0.576,1.996-1.229,2.933-1.937c0.945-0.702,1.812-1.499,2.669-2.321c-1.45,1.881-3.267,3.477-5.22,4.856   c-1.989,1.344-4.091,2.478-6.371,3.361l0.381-0.564c0.085,1.078,0.063,2.12-0.127,3.2c-0.098,0.537-0.235,1.081-0.491,1.621   c-0.246,0.528-0.658,1.105-1.326,1.421c-0.314,0.153-0.707,0.238-1.074,0.204c-0.36-0.028-0.676-0.129-0.959-0.251   c-0.566-0.248-1.019-0.584-1.446-0.932c-0.842-0.713-1.538-1.486-2.202-2.35l1.287-0.475c0.07,1.393-0.057,2.653-0.203,3.962   c-0.166,1.295-0.372,2.589-0.78,3.874c-0.213,0.642-0.446,1.287-0.894,1.922c-0.228,0.307-0.536,0.658-1.063,0.826   c-0.457,0.132-0.945,0.12-1.421-0.143c-0.9-0.612-0.966-1.471-1.062-2.136c-0.064-0.705-0.031-1.36,0.061-2.049l0.869,0.445   c-1.651,1.436-3.366,2.758-5.13,4.013C411.524,150.813,409.742,152.035,407.891,153.152z"/>
	<path style="fill:#FF9C3D;" d="M314.124,382.144c-4.634,15.104-13.538,26.965-29.654,29.496c-2.198,0.348-4.539,0.522-7.038,0.506   c-1.344-0.016-2.736-0.079-4.191-0.206c-8.429-0.743-16.211-2.388-23.407-4.681c-10.153-3.258-19.105-7.829-26.902-13.032   c-6.769-4.508-12.684-9.489-17.761-14.487c-7.702-7.576-13.506-15.183-17.587-21.303c-5.076-7.607-7.48-12.889-7.48-12.889   s-11.071,11.403-24.261,2.499c-4.112-2.768-8.43-7.512-12.684-15.198c-13.569-24.498-33.433-32.105-34.951-39.112   c-0.506-2.23,0.869-4.412,4.918-7.069c16.748-10.976,50.814,30.017,50.814,30.017c30.682-49.518,63.894-58.026,91.239-52.269   c33.892,7.117,58.785,36.106,58.785,36.106S324.278,349.074,314.124,382.144z"/>
	<path style="fill:#FF9C3D;" d="M357.269,254.198c0,0-21.572,8.018-48.269,10.517c-8.445,0.791-17.413,1.012-26.38,0.269   c-1.407-0.111-2.815-0.253-4.223-0.427c-38.637-4.634-80.072-26.918-84.438-34.81c-4.349-7.892,1.202-12.004,1.202-12.004   s-3.543-7.323,1.582-10.881c5.124-3.543,22.473-1.961,22.473-1.961c5.631-0.917,12.652-2.104,20.402-3.416   c5.346-0.933,11.023-1.913,16.843-2.926c32.865-5.741,69.666-12.415,70.6-12.953L357.269,254.198z"/>
	<path style="opacity:0.2;fill:#AE312F;" d="M155.844,348.046c-4.112-2.768-8.43-7.512-12.684-15.198   c-13.569-24.498-33.433-32.105-34.951-39.112c0.948-1.328,3.732-4.049,10.027-2.641c8.224,1.819,31.33,23.407,39.238,42.575   C161.316,342.986,159.118,346.702,155.844,348.046z"/>
	<path style="opacity:0.48;fill:#AE312F;" d="M313.966,300.521c-0.261-1.745-0.518-3.479-0.886-5.179   c-0.391-1.681-0.799-3.399-1.501-4.838c-0.322-0.71-0.845-1.362-1.178-1.435c-0.229-0.044-0.353-0.061-0.388,0.024   c-0.071,0.026-0.218,0.248-0.336,0.536c-0.452,1.252-0.553,3.072-0.479,4.647l-2.516,0.135c-0.249-2.143-0.518-4.339-0.933-6.46   c-0.438-2.095-0.877-4.284-1.738-6.001c-0.197-0.442-0.46-0.787-0.68-1.032c-0.272-0.221-0.298-0.275-0.48-0.279   c-0.205-0.034-0.186-0.004-0.385,0.206c-0.163,0.215-0.313,0.647-0.395,1.099c-0.317,1.875-0.171,4.149,0.139,6.229l0.383,2.57   l-1.89-1.617c-3.079-2.635-6.113-5.328-9.057-8.139c3.479,2.112,6.868,4.343,10.212,6.632l-1.506,0.953   c-0.501-2.275-0.968-4.488-0.659-7.03c0.099-0.637,0.228-1.312,0.665-2.038c0.178-0.345,0.56-0.729,0.936-0.998   c0.448-0.259,0.93-0.453,1.387-0.445c0.938-0.129,1.974,0.421,2.484,0.958c0.541,0.547,0.933,1.131,1.209,1.692   c1.155,2.266,1.622,4.497,2.034,6.753c0.387,2.255,0.673,4.479,0.785,6.771l-2.516,0.135c0.065-1.905,0.086-3.694,1.009-5.689   c0.265-0.484,0.608-1.058,1.333-1.427c0.343-0.21,0.747-0.244,1.141-0.26c0.355,0.036,0.686,0.117,0.995,0.248   c1.308,0.674,1.659,1.731,1.995,2.6c0.641,1.811,0.8,3.594,0.893,5.375C314.131,296.992,314.132,298.761,313.966,300.521z"/>
	<path style="opacity:0.48;fill:#AE312F;" d="M296.946,265.406c6.786-0.426,13.532-1.136,20.25-1.935   c6.714-0.835,13.374-2.006,19.921-3.51l2.153-0.495l-0.688,2.152c-0.381,1.194-0.549,2.776-0.168,3.575   c0.076,0.212,0.202,0.325,0.313,0.451c0.032,0.019,0.248,0.149,0.12,0.09c-0.427-0.121-0.48-0.026-0.461-0.048   c0.239-0.102,0.862-0.661,1.308-1.16c1.934-2.146,3.657-4.744,5.319-7.24l5.356-8.041l-2.911,9.202   c-0.624,1.973-1.144,4.095-1.353,6.114c-0.099,1-0.11,2.026,0.086,2.801c0.292,0.818,0.351,0.836,0.944,0.854   c1.026,0.047,2.123-2.062,2.569-3.986c0.512-1.985,0.771-4.152,0.86-6.227l0.046-1.078l1.036-0.075   c5.536-0.401,11.145-1.238,16.614-2.482c5.491-1.211,10.89-2.857,16.069-5.176c-2.437,1.447-4.989,2.724-7.628,3.797   c-2.643,1.051-5.317,2.076-8.071,2.819c-5.501,1.54-11.069,2.717-16.804,3.38l1.082-1.153c-0.05,2.304-0.261,4.522-0.787,6.798   c-0.278,1.132-0.619,2.275-1.252,3.407c-0.583,1.071-1.719,2.426-3.487,2.594c-0.788,0.085-1.757-0.087-2.51-0.714   c-0.74-0.617-1.066-1.408-1.248-2.074c-0.34-1.36-0.281-2.563-0.188-3.738c0.233-2.345,0.753-4.509,1.43-6.718l2.445,1.162   c-1.719,2.644-3.464,5.168-5.662,7.597c-0.615,0.602-1.069,1.199-2.223,1.776c-0.329,0.11-0.786,0.345-1.577,0.06   c-0.469-0.225-0.562-0.339-0.844-0.537c-0.44-0.406-0.812-0.901-1.01-1.415c-0.764-2.111-0.296-3.776,0.212-5.473l1.465,1.657   c-3.364,0.669-6.729,1.314-10.126,1.708c-3.392,0.412-6.787,0.761-10.189,0.993C310.563,265.636,303.739,265.713,296.946,265.406z"/>
	<path style="fill:#FFC792;" d="M111.637,295.044c-0.275,0.437,0.041,1,0.383,1.386c0.876,0.988,1.998,1.758,3.235,2.219   c0.444,0.166,0.931,0.293,1.389,0.17c0.458-0.124,0.855-0.579,0.759-1.043c-0.035-0.17-0.129-0.321-0.222-0.468   c-0.647-1.029-1.41-1.993-2.612-2.389C113.889,294.694,112.106,294.299,111.637,295.044z"/>
	<path style="fill:#FFC792;" d="M120.05,295.434c0.035,0.24,0.197,0.44,0.364,0.615c0.811,0.851,1.96,1.453,3.131,1.347   c0.127-0.011,0.26-0.034,0.356-0.118c0.139-0.121,0.155-0.331,0.129-0.513c-0.117-0.814-0.994-2.032-1.816-2.289   C121.554,294.27,119.904,294.43,120.05,295.434z"/>
	<path style="fill:#FFC792;" d="M118.876,301.438c-0.153,0.764,0.118,1.685,1.02,2.685c1.441,1.597,3.382,2.576,5.103,3.823   c1.761,1.277,3.411,2.75,5.021,4.21c3.454,3.133,6.631,6.587,9.226,10.471c1.529,2.286,2.731,4.778,4.239,7.064   c0.815,1.234,3.035,3.245,3.976,0.989c0.254-0.609,0.208-1.299,0.111-1.952c-0.649-4.347-3.202-8.458-5.676-12.007   c-2.657-3.812-5.766-7.304-9.135-10.5c-2.568-2.436-5.618-5.83-9.15-6.751C121.443,298.905,119.202,299.815,118.876,301.438z"/>
	<path style="fill:#AE312F;" d="M193.966,229.744c0.989-1.126,2.244-1.908,3.563-2.501c1.322-0.608,2.751-0.952,4.206-1.136   c2.887-0.302,6.074,0.316,8.281,2.334c-1.506,0.079-2.812,0.011-4.13,0.095c-1.306,0.086-2.581,0.121-3.864,0.299   C199.438,229.078,196.898,229.525,193.966,229.744z"/>
	<path style="fill:#AE312F;" d="M195.163,217.749c0.704-1.246,1.799-2.183,3-2.888c1.202-0.729,2.568-1.167,3.966-1.388   c2.792-0.406,5.808,0.27,7.887,2.181c-1.431,0.131-2.679,0.084-3.913,0.178c-1.224,0.062-2.407,0.166-3.579,0.356   C200.149,216.492,197.876,217.102,195.163,217.749z"/>
	<path style="fill:#AE312F;" d="M262.851,226.031c-1.233,2.293-4.539,2.752-6.879,1.582c-2.325-1.171-3.859-3.463-5.108-5.757   c-3.068-5.583-5.187-11.672-8.698-17.017c-0.728-1.091-1.661-2.214-2.546-3.353c5.346-0.933,11.023-1.913,16.843-2.926   c1.392,2.341,2.435,4.887,3.353,7.449c1.866,5.235,3.306,10.691,3.59,16.242C263.468,223.532,263.468,224.892,262.851,226.031z"/>
	<path style="fill:#AE312F;" d="M309,264.715c-8.445,0.791-17.413,1.012-26.38,0.269c1.692-3.416,2.61-7.323,2.91-11.134   c0.601-7.386-0.696-14.803-0.728-22.236c0-2.974,0.253-6.105,1.898-8.588c1.803-2.72,5.567-4.175,8.35-2.04   c5.172,3.938,8.145,14.107,10.059,20.054C307.482,248.442,309.348,256.792,309,264.715z"/>
	<path style="opacity:0.48;fill:#AE312F;" d="M281.247,179.883c1.928,1.266,3.849,2.533,5.823,3.699   c0.977,0.597,1.968,1.167,2.975,1.689c1,0.511,2.056,0.998,3.052,1.205l0.295,0.061l0.133,0.308   c0.377,0.868,0.825,1.761,1.362,2.523c0.507,0.753,1.28,1.441,1.741,1.323c0.227-0.057,0.281-0.075,0.357-0.433   c0.048-0.342-0.012-0.798-0.108-1.239c-0.203-0.893-0.577-1.821-0.968-2.674l-1.219-2.66l2.297,1.787   c0.829,0.645,1.73,1.264,2.64,1.807c0.912,0.538,1.866,1.035,2.811,1.298c0.469,0.142,0.944,0.185,1.278,0.088   c0.158-0.02,0.367-0.143,0.451-0.232c0.125-0.09,0.13-0.183,0.162-0.316c0.023-0.659-0.723-1.667-1.411-2.346l-1.135-1.119   l1.538,0.239c1.807,0.28,3.663,0.418,5.507,0.509c1.849,0.09,3.703,0.039,5.551-0.224c-1.792,0.545-3.677,0.739-5.549,0.854   c-1.881,0.091-3.75,0.023-5.642-0.135l0.403-0.88c0.454,0.399,0.845,0.807,1.211,1.291c0.341,0.49,0.715,1.035,0.739,1.853   c-0.015,0.403-0.186,0.878-0.493,1.146c-0.296,0.298-0.59,0.464-0.961,0.571c-0.722,0.219-1.388,0.124-1.971-0.019   c-1.189-0.286-2.21-0.815-3.192-1.381c-0.984-0.574-1.906-1.192-2.82-1.887l1.079-0.872c0.463,0.968,0.822,1.931,1.064,3.003   c0.105,0.541,0.2,1.098,0.107,1.757c-0.059,0.329-0.177,0.71-0.467,1.032c-0.295,0.331-0.709,0.505-1.086,0.544   c-0.788,0.102-1.452-0.295-1.892-0.672c-0.451-0.396-0.78-0.84-1.086-1.287c-0.586-0.91-1.038-1.834-1.399-2.838l0.428,0.369   c-1.245-0.346-2.26-0.923-3.274-1.514c-1.002-0.602-1.97-1.242-2.918-1.906C284.793,182.836,282.969,181.42,281.247,179.883z"/>
	<path style="fill:#AE312F;" d="M461.555,174.663c-1.186,0.49-2.372,0.949-3.558,1.408c-13.427,5.077-28.088,8.872-42.069,5.614   c-1.328-0.3-2.705-0.727-3.59-1.755c-0.759-0.886-1.028-2.119-1.012-3.305c0.047-3.385,2.135-6.484,4.792-8.603   c2.641-2.104,5.836-3.401,8.951-4.761c7.465-3.227,14.756-6.864,21.825-10.881c1.724-0.981,3.211-2.199,4.602-3.511   C455.181,156.665,458.581,165.348,461.555,174.663z"/>
	<path style="fill:#AE312F;" d="M471.423,217.855c-5.092,1.17-10.312,1.708-15.531,1.471c-1.929-0.095-3.89-0.3-5.646-1.123   c-1.74-0.822-3.242-2.372-3.558-4.27c-0.222-1.281,0.11-2.594,0.617-3.78c2.673-6.468,11.197-11.893,19.895-14.898   C468.893,202.577,470.316,210.137,471.423,217.855z"/>
	<path style="fill:#AE312F;" d="M473.701,269.286c-8.856-0.032-24.166-0.237-30.618-7.133c-5.504-5.852-2.404-12.763,4.713-15.151   c4.033-1.36,8.382-1.297,12.636-1.423c0.206,0,0.411-0.016,0.617-0.016c4.302-0.158,8.603-0.617,12.858-1.36   C474.27,252.553,474.223,260.952,473.701,269.286z"/>
	<path style="fill:#AE312F;" d="M468.798,302.973c-1.851,7.797-4.239,15.388-7.196,22.663c-6.389-1.407-12.479-4.096-17.745-7.971   c-2.546-1.882-4.951-4.08-6.311-6.927c-1.36-2.847-1.486-6.437,0.364-8.999c2.657-3.685,8.05-3.89,12.541-3.163   C456.652,299.588,462.63,301.708,468.798,302.973z"/>
	<path style="fill:#AE312F;" d="M445.739,354.04c-5.741,7.671-12.463,14.661-20.275,20.781c-9.094-3.701-17.096-9.9-23.612-17.286   c-5.393-6.105-10.043-13.87-8.935-21.936c0.411-2.989,1.803-6.089,4.475-7.465c4.571-2.325,9.774,1.249,13.759,4.46   c8.193,6.627,16.954,12.557,26.127,17.729C440.014,351.874,442.861,353.012,445.739,354.04z"/>
	<path style="fill:#AE312F;" d="M393.359,393.753c-10.675,5.045-21.161,8.92-31.314,11.862   c-7.465-7.054-11.704-17.618-10.375-27.835c0.49-3.78,1.708-7.56,4.191-10.438s6.389-4.697,10.138-4.001   c3.527,0.664,6.358,3.385,8.272,6.437c1.913,3.037,3.131,6.468,4.855,9.616C382.573,385.687,388.25,389.435,393.359,393.753z"/>
	<path style="fill:#AE312F;" d="M320.561,413.19c-13.174,1.06-25.257,0.759-35.806-0.237c-0.111-0.427-0.205-0.87-0.285-1.313   c-0.379-2.04-0.554-4.144-0.522-6.2c0.127-7.164,2.388-14.123,4.855-20.845c1.866-5.077,4.081-10.406,8.524-13.506   c2.009-1.407,4.555-2.277,6.959-1.724c2.325,0.538,4.175,2.293,5.599,4.207c1.945,2.594,3.273,5.504,4.239,8.572   c1.787,5.583,2.562,11.678,3.195,17.571C318.128,407.259,319.549,408.192,320.561,413.19z"/>
	<path style="fill:#AE312F;" d="M256.967,376.308c-1.866,10.169-4.507,20.196-6.959,30.239c-0.063,0.237-0.111,0.475-0.174,0.712   c-10.153-3.258-19.105-7.829-26.902-13.032c1.376-6.184,3.622-12.225,5.82-18.251c3.131-8.588,6.357-17.492,12.32-24.514   c0.664-0.791,1.36-1.55,2.088-2.277c2.468-2.467,6.01-4.666,9.236-3.369C263.072,350.134,258.486,368.148,256.967,376.308z"/>
	<path style="fill:#AE312F;" d="M214.63,362.185c-1.297,5.361-4.824,12.494-9.457,17.555c-7.702-7.576-13.506-15.183-17.587-21.303   c5.946-3.795,12.921-5.946,19.975-5.994c1.945-0.016,4.033,0.174,5.535,1.423C215.389,355.764,215.341,359.291,214.63,362.185z"/>
	<path style="fill:#6CE0C0;" d="M206.751,27.842c-1.723-0.692-1.392-0.679-2.358,0.761c-1.177,1.756-2.325,3.531-3.333,5.065   c-2.634-0.228-5.096-0.442-7.638-0.662c-0.977-2.328-1.999-4.761-3.027-7.21c-3.098,0.438-5.941,1.433-8.728,2.778   c0.499,2.407,0.981,4.755,1.479,7.099c0.089,0.421,0.065,0.676-0.346,0.988c-1.608,1.22-3.188,2.483-4.708,3.81   c-0.438,0.382-0.722,0.386-1.197,0.19c-1.96-0.809-3.94-1.572-5.903-2.373c-0.488-0.199-0.803-0.182-1.16,0.296   c-1.602,2.145-2.688,4.54-3.575,7.044c-0.176,0.496,0.064,0.708,0.438,0.948c1.735,1.111,3.443,2.264,5.185,3.363   c0.502,0.317,0.657,0.591,0.561,1.238c-0.33,2.234-0.53,4.487-0.8,6.914c-2.116,0.889-4.518,1.896-6.918,2.904   c0.433,3.157,1.3,6.076,2.719,8.854c2.624-0.557,5.176-1.1,7.488-1.591c1.455,1.655,2.768,3.228,4.177,4.709   c0.532,0.56,0.629,0.984,0.325,1.682c-0.811,1.859-1.55,3.75-2.299,5.636c-0.148,0.373-0.442,0.808,0.141,1.11   c2.368,1.23,4.736,2.463,7.105,3.692c0.504,0.261,0.819,0.091,1.119-0.384c1.118-1.766,2.314-3.484,3.401-5.268   c0.42-0.688,0.876-0.717,1.588-0.627c1.758,0.224,3.531,0.415,5.3,0.443c0.763,0.012,1.044,0.209,1.306,0.885   c0.842,2.174,1.769,4.314,2.644,6.422c1.89-0.013,7.027-1.661,8.875-2.826c-0.501-2.316-0.984-4.664-1.532-6.996   c-0.137-0.583,0.035-0.836,0.479-1.19c1.435-1.144,2.788-2.39,4.211-3.549c0.239-0.195,0.728-0.305,1.003-0.199   c1.75,0.672,3.477,1.404,5.204,2.137c0.965,0.409,1.353,0.579,1.721,0.329l3.981-7.525c0.005-0.61-0.415-0.896-1.553-1.653   c-1.407-0.936-2.848-1.822-4.235-2.786c-0.253-0.176-0.479-0.629-0.453-0.932c0.169-1.95,0.449-3.891,0.605-5.841   c0.045-0.568,0.172-0.866,0.715-1.082c1.912-0.763,3.804-1.577,5.703-2.374c0.308-0.129,0.611-0.269,1.142-0.504   c-0.929-2.916-1.847-5.8-2.789-8.756c-2.448,0.503-4.68,0.924-6.892,1.437c-0.78,0.18-1.206,0.093-1.714-0.628   c-1.037-1.473-2.28-2.8-3.395-4.22c-0.171-0.218-0.247-0.659-0.15-0.915c0.74-1.954,1.477-3.912,2.334-5.816   c0.411-0.914,0.2-1.402-0.619-1.82L206.751,27.842z M207.126,62.558c-3.558,6.726-11.895,9.293-18.621,5.735h0   c-6.725-3.558-9.293-11.895-5.734-18.621l0,0c3.558-6.726,11.895-9.293,18.621-5.735l0,0   C208.117,47.496,210.685,55.832,207.126,62.558L207.126,62.558z"/>
	<path style="fill:#AE312F;" d="M119.071,291.331c-0.103-2.104,1.257-3.929,3.043-4.914c1.803-0.976,4.13-1.033,5.787,0.218   c-0.933,0.52-1.721,0.811-2.448,1.171c-0.725,0.336-1.392,0.657-2.035,1.026C122.078,289.512,120.858,290.331,119.071,291.331z"/>
</g>















</svg>
