<?xml version="1.0" encoding="UTF-8"?>
<!-- Generator: Adobe Illustrator 25.2.3, SVG Export Plug-In . SVG Version: 6.00 Build 0)  -->
<svg xmlns="http://www.w3.org/2000/svg" xmlns:xlink="http://www.w3.org/1999/xlink" version="1.1" id="Capa_1" x="0px" y="0px" viewBox="0 0 512 512" style="enable-background:new 0 0 512 512;" xml:space="preserve" width="512" height="512">
<g>
	<g>
		<path style="fill:#FFFFFF;" d="M2.997,306.942c0,0-17.396,61.338,56.553,36.98"/>
		<g>
			<path style="fill:#AE312F;" d="M2.207,311.717c-0.074,0-0.148-0.007-0.223-0.021c-0.661-0.121-1.097-0.756-0.975-1.417     c0.416-2.244,0.801-3.613,0.818-3.67c0.183-0.647,0.856-1.017,1.502-0.839c0.647,0.183,1.022,0.856,0.839,1.502     c-0.004,0.014-0.372,1.329-0.765,3.449C3.295,311.308,2.783,311.717,2.207,311.717z"/>
			<path style="fill:#AE312F;" d="M29.73,350.859c-1.284,0-2.515-0.047-3.694-0.138c-0.67-0.052-1.172-0.637-1.119-1.307     c0.05-0.673,0.692-1.201,1.305-1.12c1.148,0.088,2.341,0.117,3.601,0.131c1.22,0,2.489-0.043,3.808-0.131     c0.628-0.043,1.25,0.461,1.296,1.134c0.045,0.67-0.464,1.25-1.134,1.296C32.383,350.818,31.123,350.857,29.73,350.859z      M41.245,349.822c-0.583,0-1.098-0.421-1.198-1.015c-0.112-0.663,0.337-1.291,0.998-1.403c2.334-0.39,4.804-0.903,7.345-1.524     c0.661-0.162,1.312,0.242,1.471,0.891c0.159,0.654-0.24,1.312-0.891,1.471c-2.601,0.637-5.132,1.16-7.521,1.562     C41.38,349.818,41.311,349.822,41.245,349.822z M18.676,349.406c-0.114,0-0.231-0.017-0.347-0.05     c-2.667-0.792-5.087-1.909-7.188-3.318c-0.559-0.373-0.708-1.129-0.333-1.688c0.378-0.561,1.141-0.704,1.688-0.333     c1.897,1.272,4.094,2.285,6.528,3.005c0.644,0.193,1.01,0.868,0.82,1.514C19.686,349.064,19.201,349.406,18.676,349.406z      M6.387,341.01c-0.378,0-0.749-0.174-0.988-0.504c-1.493-2.063-2.693-4.445-3.569-7.082c-0.212-0.637,0.133-1.326,0.771-1.538     c0.638-0.214,1.326,0.133,1.539,0.773c0.797,2.398,1.884,4.559,3.232,6.421c0.393,0.544,0.271,1.305-0.273,1.7     C6.884,340.934,6.635,341.01,6.387,341.01z M1.444,326.835c-0.617,0-1.146-0.468-1.21-1.093C0.078,324.209,0,322.604,0,320.969     c0-1.032,0.031-2.035,0.084-3.002c0.037-0.673,0.564-1.215,1.282-1.148c0.67,0.036,1.185,0.611,1.147,1.281     c-0.051,0.925-0.08,1.885-0.08,2.869c0,1.552,0.075,3.076,0.222,4.526c0.068,0.67-0.419,1.267-1.089,1.334     C1.526,326.833,1.485,326.835,1.444,326.835z"/>
			<path style="fill:#AE312F;" d="M56.066,346.245c-0.523,0-1.003-0.338-1.165-0.863c-0.195-0.642,0.167-1.322,0.811-1.519     c1.129-0.345,2.282-0.711,3.456-1.096c0.635-0.221,1.324,0.133,1.536,0.775c0.212,0.637-0.136,1.326-0.775,1.535     c-1.193,0.395-2.36,0.766-3.509,1.115C56.304,346.228,56.183,346.245,56.066,346.245z"/>
		</g>
	</g>
	<path style="fill:#9BEFE6;" d="M221.874,52.312c-14.824,1.02-29.468,3.762-43.62,8.704   c-48.122,16.805-77.533,51.568-102.021,93.832c-17.975,31.022-29.564,63.778-24.909,99.762   c4.134,31.951,18.476,62.416,38.979,87.356c55.631,67.671,149.324,102.324,236.28,98.334   c49.387-2.266,99.589-23.935,131.851-61.347c31.878-36.968,45.876-87.619,40.397-135.924   C488.428,151.32,405.598,92.444,322.324,66.545C290.397,56.614,255.67,49.986,221.874,52.312z"/>
	<g>
		<path style="fill:#6CE0C0;" d="M52.536,355.503V312.43c0-3.031,2.495-5.487,5.572-5.487h111.376c3.078,0,5.572,2.457,5.572,5.487    v72.516c0,3.031-2.495,5.488-5.572,5.488H58.108c-3.078,0-5.572-2.457-5.572-5.488v-10.894l-12.02-7.657L52.536,355.503z"/>
		<rect x="64.462" y="340.072" style="opacity:0.46;fill:#FFFFFF;" width="99.511" height="7.7"/>
		<rect x="64.462" y="357.303" style="opacity:0.46;fill:#FFFFFF;" width="99.511" height="7.7"/>
	</g>
	<g>
		<path style="fill:#6CE0C0;" d="M497.269,182.213v-48.824c0-3.435-2.828-6.22-6.316-6.22H364.707c-3.488,0-6.316,2.785-6.316,6.22    v82.198c0,3.435,2.828,6.22,6.316,6.22h126.246c3.488,0,6.316-2.785,6.316-6.22v-12.349l13.625-8.679L497.269,182.213z"/>
		<rect x="370.107" y="141.514" style="opacity:0.46;fill:#FFFFFF;" width="116.679" height="7.7"/>
		<rect x="370.107" y="158.745" style="opacity:0.46;fill:#FFFFFF;" width="116.679" height="7.7"/>
		<rect x="370.107" y="175.975" style="opacity:0.46;fill:#FFFFFF;" width="116.679" height="7.7"/>
		<rect x="370.107" y="193.205" style="opacity:0.46;fill:#FFFFFF;" width="116.679" height="7.699"/>
	</g>
	<g>
		<path style="fill:#AE312F;" d="M12.295,295.865l-2.633,1.201l-1.626,0.743l-2.981,1.354l-0.058,0.191l1.955-0.324l1.045-0.171    l3.659-0.591l48.86-8.007v-16.243L12.295,295.865z M58.581,288.64l-40.227,6.596l40.227-18.245V288.64z"/>
		<path style="fill:#AE312F;" d="M39.61,262.959l-0.813-0.057L8.036,297.81l-1.084,1.22l1.045-0.171l3.659-0.591l6.698-3.031    l40.227-18.245l1.936-0.877l22.03-9.99L39.61,262.959z M12.295,295.865l27.314-31l35.329,2.612l-14.422,6.539L12.295,295.865z"/>
		<path style="fill:#AE312F;" d="M39.61,262.959l-22.301-19.637L5.055,299.164l-0.058,0.191l1.955-0.324l1.045-0.171l1.665-1.792    l29.947-32.201l0.968-1.048L39.61,262.959z M18.509,246.926l19.32,17.025L7.63,296.437L18.509,246.926z"/>
	</g>
	<g>
		<g>
			<g>
				<path style="fill:#FF9C3D;" d="M508.721,265.583c-0.794,1.563-1.704,3.07-2.672,4.518c-2.71,4.099-5.962,7.874-9.001,11.763      c-2.632,3.374-5.149,6.901-7.472,10.562c-4.375,6.921-8.073,14.28-10.686,22.001c-1.975,5.815-3.349,11.839-3.891,17.997      c-1.607,17.768,2.884,35.175,3.755,52.791c0.097,1.983,0.136,3.966,0.136,5.948c-0.039,8.675-1.452,17.311-4.104,25.585v0.019      c-1.761,5.624-4.123,11.058-6.969,16.205c-11.595,20.895-31.535,37.158-56.255,38.759c-3.736,0.248-7.473,0.191-11.17-0.114      c-8.557-0.686-16.997-2.764-25.108-5.776c-9.544-3.527-18.623-8.389-26.908-13.86c-4.414-2.917-8.692-6.044-12.796-9.38      c-0.832-0.667-4.355-2.764-4.588-3.889c-0.697-3.393-1.529-8.522,0.136-11.725c4.568-8.751,16.764,4.919,21.159,8.064      c9.021,6.425,19.03,11.63,29.696,14.852c16.455,4.995,33.083,2.898,46.789-4.747c9.35-5.166,17.345-12.945,22.979-22.763      c1.82-3.145,3.368-6.501,4.665-10.047c6.06-16.701,3.717-33.135,1.104-49.702c-1.471-9.228-3.001-18.512-3.175-27.911      c-0.058-2.65-0.019-5.319,0.174-7.988c1.51-21.429,10.918-40.971,22.649-58.834c0.019,0,0.019,0,0.019,0      c4.937-7.531,10.299-14.737,15.661-21.677c2.613-3.375,6.039-6.997,10.318-6.654c3.6,0.286,6.33,3.432,7.627,6.749      C513.193,252.543,511.761,259.654,508.721,265.583z"/>
				<path style="opacity:0.2;fill:#AE312F;" d="M508.721,265.583c-0.794,1.563-1.704,3.07-2.672,4.518      c-2.71,4.099-5.962,7.874-9.001,11.763c-2.632,3.374-5.149,6.901-7.472,10.562c-4.375,6.921-8.073,14.28-10.686,22.001      c-1.975,5.815-3.349,11.839-3.891,17.997c-1.607,17.768,2.884,35.175,3.755,52.791c0.097,1.983,0.136,3.966,0.136,5.948      c-0.039,8.675-1.452,17.311-4.104,25.585v0.019c-1.761,5.624-4.123,11.058-6.969,16.205      c-11.595,20.895-31.535,37.158-56.255,38.759c-3.736,0.248-7.473,0.191-11.17-0.114c-8.557-0.686-16.997-2.764-25.108-5.776      c-9.544-3.527-18.623-8.389-26.908-13.86c-4.414-2.917-8.692-6.044-12.796-9.38c-0.832-0.667-4.355-2.764-4.588-3.889      c-0.697-3.393-1.529-8.522,0.136-11.725c4.568-8.751,16.764,4.919,21.159,8.064c9.021,6.425,19.03,11.63,29.696,14.852      c16.455,4.995,33.083,2.898,46.789-4.747c9.35-5.166,17.345-12.945,22.979-22.763c1.82-3.145,3.368-6.501,4.665-10.047      c6.06-16.701,3.717-33.135,1.104-49.702c-1.471-9.228-3.001-18.512-3.175-27.911c-0.058-2.65-0.019-5.319,0.174-7.988      c1.51-21.429,10.918-40.971,22.649-58.834c0.019,0,0.019,0,0.019,0c4.937-7.531,10.299-14.737,15.661-21.677      c2.613-3.375,6.039-6.997,10.318-6.654c3.6,0.286,6.33,3.432,7.627,6.749C513.193,252.543,511.761,259.654,508.721,265.583z"/>
			</g>
			<path style="fill:#AE312F;" d="M508.721,265.583c-0.794,1.563-1.704,3.07-2.672,4.518c-3.291-3.965-1.161-11.477-1.006-12.011     c-7.918,8.903-19.417,10.276-27.857,9.819c4.937-7.531,10.299-14.737,15.661-21.677c2.613-3.375,6.039-6.997,10.318-6.654     c3.6,0.286,6.33,3.432,7.627,6.749C513.193,252.543,511.761,259.654,508.721,265.583z"/>
			<path style="fill:#AE312F;" d="M489.576,292.427c-4.375,6.921-8.073,14.28-10.686,22.001c-3.93-4.842-8.343-12.182-4.394-17.349     C478.309,292.103,484.872,291.836,489.576,292.427z"/>
			<path style="fill:#AE312F;" d="M457.518,362.643c-1.471-9.228-3.001-18.512-3.175-27.911c4.162,1.163,9.331,3.584,11.906,8.541     C469.423,349.393,462.145,358.029,457.518,362.643z"/>
			<path style="fill:#AE312F;" d="M478.89,391.164c-0.039,8.675-1.452,17.311-4.104,25.585c-2.381-4.538-5.169-11.572-4.414-19.179     c0.639-6.596,4.685-10.314,8.382-12.354C478.851,387.199,478.89,389.182,478.89,391.164z"/>
			<path style="fill:#AE312F;" d="M447.026,449.446c-6.505,2.65-13.59-0.934-18.255-4.29c9.35-5.166,17.345-12.945,22.979-22.763     C453.279,430.8,454.905,446.223,447.026,449.446z"/>
			<path style="fill:#AE312F;" d="M400.392,471.618c-8.557-0.686-16.997-2.764-25.108-5.776c3.93-2.345,9.156-4.595,14.538-4.404     C396.5,461.686,399.249,467.29,400.392,471.618z"/>
		</g>
		<g>
			<path style="fill:#FF9C3D;" d="M214.568,299.414c0,0-48.773,7.361-55.668,61.1c-6.895,53.74,14.725,80.858,14.725,80.858     s-31.88-21.096-59.333-15.851c-27.453,5.245-22.864,19.539-10.229,19.651c12.635,0.112,30.359-4.786,48.371,2.711     c18.011,7.497,49.072,31.897,88.199,8.835C279.76,433.655,268.687,295.833,214.568,299.414z"/>
			<path style="opacity:0.2;fill:#AE312F;" d="M214.568,299.414c0,0-48.773,7.361-55.668,61.1     c-6.895,53.74,14.725,80.858,14.725,80.858s-31.88-21.096-59.333-15.851c-27.453,5.245-22.864,19.539-10.229,19.651     c12.635,0.112,30.359-4.786,48.371,2.711c18.011,7.497,49.072,31.897,88.199,8.835     C279.76,433.655,268.687,295.833,214.568,299.414z"/>
		</g>
		<g>
			<path style="fill:#FF5555;" d="M190.228,242.569c-3.891,3.126-11.112,1.601-18.255-1.277c-1.646-0.667-3.291-1.392-4.878-2.154     c-8.324-4.004-15.429-8.865-15.429-8.865l8.692-66.479l0.039-0.305l16.474,0.953l15.371,0.877     C192.242,165.318,199.695,234.962,190.228,242.569z"/>
			<path style="fill:#AE312F;" d="M167.095,239.137c-8.324-4.004-15.429-8.865-15.429-8.865l8.692-66.479l11.209,0.648     C171.818,176.242,172.128,213.304,167.095,239.137z"/>
		</g>
		<path style="fill:#FF9C3D;" d="M428.597,314.008c-0.503-9.399-1.374-18.283-2.555-26.672c-0.871-6.349-1.936-12.411-3.136-18.188    c-1.78-8.617-3.872-16.624-6.195-24.06c-3.078-9.856-6.562-18.684-10.202-26.558c-3.62-7.797-7.395-14.642-11.131-20.628    c-3.562-5.7-7.085-10.581-10.376-14.737c-4.513-5.688-8.599-9.972-11.791-13.012c3.722-3.845,6.707-8.046,8.968-12.563    c2.252-4.501,3.841-9.292,4.775-14.314c0.166-0.93,0.312-1.863,0.44-2.8c0.25-1.737,0.403-3.49,0.525-5.288    c0.033-0.855,0.069-1.729,0.084-2.587L388,132.504c0.112-5.203-0.336-10.601-1.294-16.146c-0.067-0.403-0.134-0.805-0.217-1.231    c-0.132-0.707-0.284-1.418-0.413-2.145c-0.102-0.428-0.205-0.857-0.307-1.285c-1.074-4.58-2.935-8.877-5.537-12.929    c0,0,0.003,0.001,0.003,0.001c-0.335-0.606-11.534-20.029-14.957-29.296c-3.483-9.397-5.642-21.466-11.354-21.909h-0.015    c-5.178-0.394-16.84,10.107-19.288,22.319c-0.001,0.004-0.001,0.008-0.002,0.012c-2.747-0.811-5.581-1.582-8.541-2.294    c-0.44-0.095-0.915-0.217-1.374-0.315c-0.552-0.135-1.108-0.25-1.682-0.369c-3.797-0.872-7.75-1.652-11.895-2.349l-0.019-0.003    c-0.925-0.16-1.872-0.304-2.82-0.448c-1.025-0.158-2.068-0.319-3.135-0.464c-0.35-0.041-0.697-0.101-1.047-0.142    c-8.313-1.163-17.278-2.008-26.816-2.542c-0.119-0.001-0.215-0.018-0.334-0.019c-0.334-0.018-0.669-0.037-0.964-0.049    c-0.669-0.037-1.298-0.068-1.951-0.083c-0.45-0.039-0.926-0.043-1.379-0.062c-2.961-0.101-5.82-0.106-8.567-0.073    c-0.003,0-0.006,0-0.009,0l-0.366-0.353c-1.579-1.58-3.598-3.898-3.838-4.158c-3.118-3.52-5.007-8.119-7.743-11.894    c-3.977-5.495-10.111-9.561-17.385-8.338c-0.459,0.082-0.871,0.25-1.267,0.534c-1.012,0.708-1.853,2.035-2.509,3.796    c-2.37,6.311-2.351,18.001,0.166,25.134c0.046,0.144,0.109,0.303,0.169,0.447c0.001,0.002,0.001,0.003,0.002,0.004    c-13.644,4.683-22.792,12.217-28.995,21.061c-0.446,0.608-0.857,1.24-1.248,1.877c-1.621,2.517-3.023,5.15-4.253,7.813    c-0.062,0.126-0.108,0.275-0.148,0.385c-0.62,1.36-1.185,2.749-1.689,4.128c-0.253,0.641-0.484,1.266-0.698,1.914    c-1.099,3.272-1.988,6.581-2.714,9.878c-0.087,0.376-0.155,0.756-0.219,1.116c-0.087,0.376-0.155,0.756-0.222,1.135l-0.118,0.664    c-0.274,1.537-0.483,3.046-0.628,4.527c-0.014,0.076-0.008,0.155-0.021,0.231c-0.221,2.133-0.33,4.187-0.35,6.198    c0.014,0.922,0.009,1.84,0.05,2.728c0.497,14.932,5.953,26.222,9.508,32.019c1.501,2.455,13.759,20.932,17.079,25.933    c-3.674,5.45-13.011,22.74-14.235,59.15c-0.387,11.496,0.542,22.801,2.11,33.135c4.084,26.882,12.389,47.167,12.389,47.167    c-0.019,0-0.039,0-0.058,0.019c-75.595,13.365-24.682,137.039-24.682,137.039s-4.259,2.936-27.934,2.002    c-26.831-1.049-50.681-0.458-49.054,8.313c1.607,8.75,26.927,5.185,56.74,5.967c14.887,0.4,31.477,2.555,37.885,0.134    c6.427-2.402,7.104-9.285,7.104-9.285c12.951,3.012,25.825,5.072,38.427,6.158c9.35,0.82,18.564,1.106,27.547,0.858    c8.13-0.229,16.106-0.896,23.849-2.002c9.525-1.373,18.72-3.413,27.508-6.139c15.719-4.881,30.122-11.954,42.705-21.315    c6.892-5.109,13.222-10.905,18.913-17.387c10.202-11.553,18.352-25.299,24.024-41.295c2.459-6.844,4.433-14.089,5.923-21.772    c2.013-10.371,3.136-21.486,3.253-33.402c0.038-1.315,0.038-2.631,0.038-3.946C429.062,325.066,428.887,319.461,428.597,314.008z"/>
		<path style="fill:#AE312F;" d="M343.482,72.855c-4.934-2.015-8.667-2.913-8.86-2.971c2.448-12.212,14.11-22.714,19.288-22.319    h0.015c0.767,2.851,1.66,6.263-0.444,13.553c-0.212,0.716-0.365,1.418-0.489,2.107C351.108,73.416,348.178,74.781,343.482,72.855z    "/>
		<path style="fill:#AE312F;" d="M236.461,64.234c-2.387,0.606-3.587,1.071-5.147,1.621c-2.841-7.298-2.707-19.274-0.337-25.585    c0.657-1.76,1.497-3.088,2.51-3.796c0,0,2.642,1.304,4.568,7.54c0.7,2.276,1.309,4.45,2.049,6.468    C241.861,55.253,242.902,62.599,236.461,64.234z"/>
		<path style="opacity:0.48;fill:#EA4949;" d="M305.882,131.165c-4.229,2.398-5.168,7.92-0.665,11.085    c6.029,4.237,17.865,4.456,23.693,0.11c4.92-3.669,2.46-11.225-2.573-12.927c-4.253-1.439-8.855-1.414-13.147-0.597    C311.195,129.215,308.251,129.823,305.882,131.165z"/>
		<path style="opacity:0.48;fill:#EA4949;" d="M237.103,119.168c3.799,3.592,3.484,9.531-1.89,11.596    c-7.195,2.765-19.44-0.153-24.433-6.178c-4.217-5.086,0.074-12.217,5.653-12.634c4.716-0.353,9.451,0.895,13.683,2.876    C232.083,115.747,234.974,117.155,237.103,119.168z"/>
		<path style="fill:#AE312F;" d="M304.107,63.511c-0.175,0.204-0.332,0.412-0.488,0.62c-2.415,2.966-4.529,6.024-6.411,8.672    c-2.168,3.029-4.177,6.163-6.057,9.359c-1.423,2.414-3.839,4.715-6.902,4.851c-3.864,0.173-7.105-2.48-8.84-5.675    c-2.152-3.971-1.943-8.492-0.973-12.706c0.571-2.424,1.408-4.784,2.522-7.017c0.118-0.214,0.216-0.432,0.333-0.647    C286.828,61.503,295.793,62.348,304.107,63.511z"/>
		<path style="fill:#AE312F;" d="M203.051,118.846c-4.13,0.291-8.289-1.401-11.923-3.69c0.068-0.373,0.137-0.746,0.221-1.132    c0.069-0.359,0.138-0.731,0.222-1.104c0.723-3.31,1.609-6.619,2.719-9.883C201.704,110.604,210.794,118.288,203.051,118.846z"/>
		<path style="fill:#AE312F;" d="M200.839,128.964c-2.797,1.309-6.919,1.169-10.781,0.544c-0.028-0.891-0.041-1.796-0.039-2.715    c0.016-2.01,0.12-4.078,0.341-6.201c0.014-0.086,0.013-0.158,0.026-0.244C198.222,123.18,205.771,126.656,200.839,128.964z"/>
		<path style="fill:#AE312F;" d="M203.299,100.926c-2.245-0.51-4.534-2.04-6.636-3.927c0.043-0.129,0.1-0.257,0.158-0.386    c1.221-2.674,2.621-5.303,4.245-7.829C205.237,95.444,208.503,102.11,203.299,100.926z"/>
		<path style="fill:#AE312F;" d="M323.023,66.917c-0.207,0.16-0.379,0.345-0.593,0.543c-3.889,3.768-7.897,8.317-10.694,8.636    c-6.529,0.749-8.642-5.562-3.996-11.351c0.004-0.019,0.023-0.016,0.026-0.035c0.175-0.204,0.351-0.408,0.523-0.594    c0.948,0.144,1.895,0.288,2.82,0.448l0.019,0.003C315.274,65.265,319.226,66.046,323.023,66.917z"/>
		<path style="fill:#AE312F;" d="M274.04,60.818c-0.176,0.204-0.354,0.428-0.529,0.632c-2.695,3.31-5.475,6.761-7.914,7.297    c-5.23,1.15-8.885-3.081-6.486-5.62c0.584-0.603,1.162-1.168,1.751-1.692c0.279-0.226,0.538-0.455,0.817-0.681    c0.161-0.011,0.319-0.004,0.479-0.015c0.142-0.014,0.303-0.026,0.441-0.021c0.479-0.015,0.997-0.023,1.496-0.035    c2.747-0.034,5.606-0.028,8.567,0.073C273.115,60.775,273.59,60.779,274.04,60.818z"/>
		<g>
			<g>
				<path style="fill:#FFFFFF;" d="M332.996,121.515c-7.073,3.882-17.78,4.44-25.255,0.879c-1.597-0.762-3.063-1.738-4.355-2.957      c-5.589-5.324-8.352-14.053-7.864-21.473c-0.003-0.172,0.009-0.345,0.022-0.517c0.634-7.476,5.538-13.863,12.534-16.855      c8.19-3.498,20.055-3.887,26.952,2.757c2.72,2.625,4.771,6.12,6.041,9.967h0.015      C344.507,103.559,342.466,116.307,332.996,121.515z"/>
				<path style="fill:#AE312F;" d="M332.996,121.515c-4.045,2.214-8.684,3.175-13.289,3.348c-2.311,0.071-4.634-0.107-6.912-0.556      c-2.279-0.438-4.524-1.156-6.594-2.277c-2.076-1.114-3.871-2.726-5.349-4.53c-1.489-1.808-2.711-3.822-3.687-5.943      c-1.949-4.246-2.916-8.931-2.775-13.665l-0.002,0.088c0.197-5.659,2.786-10.93,6.966-14.657c2.073-1.849,4.51-3.341,7.113-4.289      c2.574-0.979,5.255-1.637,7.983-1.941c5.418-0.561,11.202,0.16,15.951,3.11c2.381,1.446,4.311,3.499,5.796,5.725      c1.506,2.235,2.606,4.693,3.376,7.225l-0.496-0.359l0.015,0l0.391,0.015l0.104,0.342c0.781,2.574,1.214,5.236,1.303,7.901      c0.076,2.663-0.167,5.334-0.798,7.914c-0.636,2.577-1.708,5.051-3.214,7.241C337.368,118.395,335.351,120.247,332.996,121.515z       M332.996,121.515c2.34-1.294,4.331-3.162,5.809-5.354c1.498-2.186,2.452-4.695,3.004-7.256      c1.113-5.144,0.517-10.548-1.225-15.427l0.495,0.357l-0.015,0l-0.363,0.005l-0.133-0.365c-0.873-2.402-2.055-4.691-3.581-6.713      c-1.523-2.031-3.368-3.781-5.562-4.957c-4.398-2.379-9.673-2.877-14.666-2.22c-5.013,0.69-9.949,2.415-13.638,5.667      c-1.842,1.628-3.366,3.592-4.486,5.764c-0.553,1.087-1.028,2.221-1.345,3.403c-0.191,0.583-0.285,1.188-0.422,1.785      c-0.072,0.577-0.203,1.264-0.214,1.743l-0.002,0.085l0,0.004c-0.363,4.327,0.295,8.818,1.93,12.934      c0.816,2.059,1.875,4.031,3.196,5.822c1.322,1.795,2.912,3.386,4.834,4.554c3.853,2.342,8.519,3.308,13.092,3.306      C324.291,124.656,328.928,123.657,332.996,121.515z"/>
			</g>
			<path style="fill:#AE312F;" d="M317.202,118.5c6.136,0.927,12.945-1.273,16.558-6.203c5.756-7.857,3.081-20.241-5.604-25.269     c-4.663-2.7-10.99-3.334-15.955-1.379c-13.271,5.225-11.935,24.96,0.159,31.303C313.85,117.733,315.494,118.242,317.202,118.5z"/>
			<path style="opacity:0.21;fill:#AE312F;" d="M341.071,93.315c-27.138-12.639-43.563,2.642-45.55,4.648     c-0.003-0.172,0.009-0.345,0.022-0.517c0.634-7.476,5.538-13.863,12.534-16.855c8.19-3.498,20.055-3.887,26.952,2.757     C337.75,85.974,339.801,89.469,341.071,93.315z"/>
		</g>
		<g>
			<g>
				<path style="fill:#FFFFFF;" d="M245.481,100.65c-3.338,6.014-11.131,8.238-17.804,7.944c-0.92-0.052-1.825-0.176-2.702-0.385      c-10.617-2.5-17.041-16.449-13.253-26.149c0.371-1.002,0.876-1.959,1.486-2.858c5.371-7.847,19.365-10.7,27.626-5.049      c1.99,1.383,3.296,3.564,4.231,5.698c0.643,1.457,1.185,3.085,1.595,4.798C247.982,90.018,247.966,96.178,245.481,100.65z"/>
				<path style="fill:#AE312F;" d="M245.481,100.65c-0.614,1.065-1.348,2.064-2.225,2.938c-0.893,0.854-1.874,1.623-2.947,2.251      c-2.142,1.258-4.525,2.119-6.986,2.578c-1.23,0.231-2.475,0.41-3.731,0.475c-1.251,0.078-2.528,0.093-3.797-0.094      c-2.522-0.416-4.97-1.379-7.073-2.86c-4.241-2.945-7.144-7.503-8.554-12.425c-0.663-2.48-0.982-5.094-0.688-7.71      c0.093-0.65,0.224-1.297,0.338-1.946c0.138-0.644,0.372-1.266,0.558-1.9c0.396-1.256,1.033-2.493,1.793-3.59      c3.185-4.425,8.234-6.928,13.329-7.822c5.102-0.863,10.621-0.199,15.003,2.631c2.303,1.357,3.733,3.695,4.703,5.955      c0.994,2.295,1.592,4.715,1.998,7.142c0.409,2.43,0.527,4.906,0.299,7.35C247.282,96.061,246.688,98.5,245.481,100.65z       M245.481,100.65c2.325-4.389,2.341-9.585,1.35-14.309c-0.509-2.384-1.3-4.707-2.398-6.859      c-1.099-2.134-2.538-4.134-4.644-5.176c-4.16-2.325-9.247-2.551-13.832-1.523c-2.314,0.495-4.532,1.375-6.532,2.55      c-2.001,1.167-3.774,2.697-5.038,4.525c-2.536,3.665-3.037,8.61-1.978,13.114c1.016,4.516,3.369,8.946,7.12,11.916      c1.854,1.499,4.06,2.541,6.41,3.096c1.18,0.254,2.404,0.323,3.636,0.326c1.23,0.012,2.465-0.061,3.684-0.256      c2.435-0.367,4.842-1.09,6.998-2.302c1.075-0.61,2.062-1.362,2.963-2.2C244.106,102.693,244.852,101.706,245.481,100.65z"/>
			</g>
			<path style="fill:#AE312F;" d="M221.626,99.632c0.427,0.363,4.403,5.275,13.306,2.925c8.902-2.35,8.045-13.452,6.736-17.118     c-1.309-3.665-5.885-11.285-16.044-8.948C215.465,78.829,214.277,93.381,221.626,99.632z"/>
			<path style="opacity:0.21;fill:#AE312F;" d="M246.66,84.648c-11.883-7.065-27.112-4.611-34.938-2.589     c0.371-1.002,0.876-1.959,1.486-2.858c5.371-7.847,19.365-10.7,27.626-5.049c1.99,1.383,3.296,3.564,4.231,5.698     C245.709,81.307,246.251,82.935,246.66,84.648z"/>
		</g>
		<path style="fill:#AE312F;" d="M385.77,111.69c-25.166,13.373-33.316-3.119-23.066-5.606c6.868-1.672,13.205-5.173,17.38-7.546    C382.766,102.643,384.666,107.027,385.77,111.69z"/>
		<path style="fill:#AE312F;" d="M388.009,132.506l0.001,0.101c-0.053,0.473-0.076,0.933-0.114,1.392    c-9.201,3.258-20.44,4.932-29.255,1.041c-3.326-1.468-6.173-4.669-5.018-7.86c0.471-1.274,1.552-2.355,2.86-3.132    c3.865-2.318,9.18-2.641,13.813-3.056c5.269-0.481,11.523-2.59,16.414-4.625C387.664,121.905,388.112,127.309,388.009,132.506z"/>
		<path style="fill:#AE312F;" d="M387.396,140.471c-0.832,6.067-2.543,11.795-5.209,17.112c-6.3,0.931-13.094-0.571-18.564-3.768    c-2.436-1.431-4.603-3.706-4.022-6.63c0.76-3.87,6.105-4.221,9.352-4.118C377.76,143.352,384.064,141.674,387.396,140.471z"/>
		<g>
			<path style="fill:#AE312F;" d="M189.475,129.148c3.908-1.346,7.901-2.299,11.915-3.157c4.022-0.819,8.065-1.538,12.193-1.863     c-3.908,1.349-7.901,2.302-11.915,3.157C197.645,128.101,193.602,128.821,189.475,129.148z"/>
			<path style="fill:#AE312F;" d="M187.376,119.326c4.005-0.398,7.997-0.397,11.986-0.297c3.988,0.139,7.973,0.38,11.946,1.024     c-4.005,0.402-7.997,0.4-11.987,0.298C195.333,120.208,191.348,119.968,187.376,119.326z"/>
			<path style="fill:#AE312F;" d="M190.351,107.34c3.811,1.345,7.435,3.046,11.014,4.835c3.561,1.824,7.074,3.738,10.4,6.011     c-3.812-1.342-7.436-3.043-11.014-4.835C197.191,111.525,193.678,109.611,190.351,107.34z"/>
		</g>
		<path style="fill:#FFFFFF;" d="M346.977,69.614c0,0-2.878-0.214-3.658-0.868c-0.794-0.654,3.636-0.712,3.636-0.712    c-2.222-0.94-4.066-3.471-3.311-3.507c0.77-0.05,3.376,1.842,3.376,1.842c-2.737-3.832-0.907-9.559,2.078-9.157    c1.277,0.17,2.695,2.927,3.894,6.011c-1.885,10.193,4.551,17.766,5.721,18.724c-4.773-4.196-10.535-7.166-15.232-9.092    C344.194,70.794,346.977,69.614,346.977,69.614z"/>
		<path style="fill:#FFFFFF;" d="M236.461,64.234c0.382-2.309,2.841-5.487,3.06-5.758c-0.192,0.07-2.225,0.898-3.181,0.372    c-1.001-0.555,2.389-1.83,2.389-1.83s-2.621,0.176-2.839-0.587c-0.233-0.749,2.438-0.523,2.438-0.523    c-1.898-1.123-5.378-6.111-3.054-7.396c1.515-0.833,3.568,0.752,4.83,1.97c1.757,4.77,4.288,8.643,10.811,10.903    C250.915,61.385,242.963,62.86,236.461,64.234z"/>
		<g>
			<path style="fill:#AE312F;" d="M270.086,91.283c0,0-3.57-4.944-5.611-4.263c-2.041,0.682,3.326,8.165,5.509,9.004     c2.184,0.84,7.562-6.19,6.454-7.721C275.33,86.774,270.086,91.283,270.086,91.283z"/>
			<path style="opacity:0.48;fill:#AE312F;" d="M260.064,95.87c-3.774,0.519-7.491,2.442-9.852,5.731     c-3.423,4.767-4.431,11.027-0.774,15.93c2.269,3.043,5.625,4.879,9.038,6.11c6.54,2.358,13.198,4.257,20.14,3.004     c2.518-0.455,5.026-1.281,7.155-2.839c3.262-2.388,5.43-6.496,5.683-10.769c0.253-4.273-1.415-8.611-4.372-11.372     c-3.638-3.396-9.312-4.861-14.012-5.208C268.882,96.148,264.213,95.3,260.064,95.87z"/>
		</g>
		<g>
			<path style="fill:#AE312F;" d="M326.692,138.019c4.161,0.407,8.231,1.204,12.279,2.097c4.039,0.932,8.055,1.962,11.979,3.386     c-4.161-0.404-8.232-1.201-12.279-2.097C334.633,140.47,330.617,139.441,326.692,138.019z"/>
			<path style="fill:#AE312F;" d="M352.769,133.718c-3.98,0.565-7.965,0.729-11.951,0.796c-3.987,0.026-7.974-0.048-11.967-0.527     c3.98-0.568,7.965-0.732,11.951-0.795C344.789,133.168,348.777,133.242,352.769,133.718z"/>
			<path style="fill:#AE312F;" d="M349.452,121.671c-3.281,2.205-6.745,4.051-10.254,5.81c-3.527,1.723-7.099,3.356-10.857,4.628     c3.28-2.208,6.744-4.053,10.254-5.81C342.123,124.579,345.696,122.946,349.452,121.671z"/>
		</g>
		<path style="opacity:0.48;fill:#AE312F;" d="M209.212,176.131c1.354,1.667,2.703,3.332,4.127,4.924    c0.699,0.805,1.42,1.591,2.167,2.339c0.745,0.737,1.547,1.467,2.377,1.935l0.246,0.139l0.03,0.309    c0.084,0.872,0.225,1.786,0.483,2.61c0.234,0.809,0.724,1.636,1.17,1.664c0.219,0.015,0.273,0.015,0.445-0.279    c0.142-0.287,0.222-0.705,0.264-1.121c0.079-0.844,0.014-1.768-0.087-2.631l-0.315-2.69l1.533,2.232    c0.553,0.805,1.178,1.608,1.833,2.347c0.659,0.735,1.366,1.446,2.134,1.948c0.378,0.259,0.79,0.433,1.117,0.444    c0.147,0.028,0.37-0.021,0.47-0.075c0.138-0.044,0.169-0.123,0.237-0.231c0.213-0.574-0.16-1.675-0.578-2.469l-0.689-1.31    l1.305,0.651c1.534,0.765,3.152,1.417,4.773,2.026c1.626,0.609,3.297,1.096,5.026,1.394c-1.76-0.034-3.501-0.404-5.207-0.839    c-1.707-0.459-3.358-1.054-5.002-1.736l0.616-0.659c0.29,0.481,0.52,0.952,0.707,1.483c0.163,0.529,0.338,1.116,0.121,1.842    c-0.131,0.35-0.422,0.72-0.773,0.867c-0.352,0.177-0.663,0.239-1.025,0.227c-0.709-0.014-1.277-0.288-1.756-0.582    c-0.98-0.593-1.738-1.35-2.451-2.131c-0.712-0.787-1.356-1.595-1.97-2.469l1.218-0.459c0.132,0.985,0.172,1.935,0.077,2.948    c-0.063,0.506-0.14,1.024-0.416,1.577c-0.148,0.273-0.364,0.574-0.717,0.774c-0.36,0.206-0.781,0.242-1.129,0.168    c-0.734-0.136-1.212-0.675-1.495-1.133c-0.288-0.478-0.453-0.963-0.596-1.444c-0.258-0.969-0.394-1.911-0.425-2.899l0.276,0.448    c-1.012-0.661-1.752-1.46-2.485-2.271c-0.72-0.817-1.399-1.657-2.053-2.513C211.522,179.746,210.304,177.977,209.212,176.131z"/>
		<path style="fill:#FF9C3D;" d="M280.176,257.901c-3.116,4.556-6.717,8.694-10.724,12.335c-0.175,0.153-0.33,0.305-0.504,0.439    c-0.484,0.438-0.968,0.858-1.471,1.277c-0.891,0.762-1.82,1.506-2.749,2.173c-1.664,1.296-3.407,2.479-5.188,3.584    c-5.382,3.355-11.286,6.005-17.597,7.874c-0.697,0.21-1.374,0.362-2.052,0.553c-0.155,0.019-0.291,0.057-0.426,0.095    c-0.542,0.152-1.045,0.286-1.491,0.4c-1.568,0.4-2.459,0.553-2.459,0.553c-0.619,0.133-1.239,0.248-1.858,0.362    c-1.626,0.305-3.291,0.553-4.955,0.724c-6.272,0.762-12.816,0.801-19.611,0.114c-0.678-0.076-1.355-0.153-2.013-0.248    c-0.716-0.076-1.433-0.153-2.148-0.267c-1.568-0.21-3.136-0.458-4.743-0.782c-0.329-0.038-0.658-0.114-0.987-0.172    c-0.116-0.038-0.194-0.057-0.271-0.057c-0.077-0.019-0.155-0.038-0.194-0.038c-0.116-0.019-0.174-0.038-0.174-0.038    c-0.329-0.076-0.678-0.133-1.007-0.21c-0.987-0.21-1.975-0.438-2.962-0.686c-4.685-1.144-8.886-2.841-12.641-4.938    c-3.02-1.678-5.75-3.603-8.227-5.719c-3.911-3.279-7.182-7.016-9.911-10.848c0,0,0,0-0.019,0    c-10.182-14.317-12.738-30.008-12.738-30.008s-3.02-0.896-16.629-5.662c-13.61-4.766-9.37-15.786-9.37-15.786    c-9.37-9.227-1.22-17.864-1.22-17.864s-3.02-4.156,0-8.636c3.04-4.461,13.919-9.533,35.987-3.489    c22.068,6.043,36.394,18.379,36.394,18.379c5.846,1.487,15.099-2.383,15.099-2.383S297.405,232.582,280.176,257.901z"/>
		<path style="fill:#AE312F;" d="M125.056,212.933c0.892-1.126,2.212-1.817,3.557-2.245c1.359-0.443,2.8-0.544,4.211-0.477    c2.811,0.254,5.537,1.288,7.544,3.272c-1.424-0.068-2.707-0.285-3.98-0.449c-1.273-0.147-2.503-0.327-3.736-0.397    C130.176,212.468,127.795,212.481,125.056,212.933z"/>
		<path style="fill:#AE312F;" d="M123.846,195.063c1.189-1.176,2.732-1.91,4.308-2.398c1.586-0.501,3.255-0.689,4.914-0.69    c3.307,0.113,6.612,1.055,9.221,3.089c-1.666-0.062-3.2-0.278-4.735-0.398c-1.527-0.146-3.031-0.219-4.53-0.258    C130.013,194.361,127.073,194.547,123.846,195.063z"/>
		<path style="opacity:0.48;fill:#AE312F;" d="M330.158,188.897c2.152-0.812,4.311-1.59,6.436-2.45    c2.128-0.843,4.26-1.686,6.291-2.683l1.312-0.644l-0.577,1.372c-0.238,0.565-0.442,1.197-0.54,1.79    c-0.112,0.583-0.052,1.214,0.144,1.381c0.069,0.081,0.27,0.156,0.44,0.151c0.099,0.003,0.309-0.079,0.517-0.244    c0.424-0.327,0.826-0.831,1.184-1.351c0.713-1.06,1.34-2.226,1.89-3.421c0.54-1.185,1.064-2.451,1.388-3.63l0.655-2.388    l0.807,2.331c0.325,0.94,0.755,1.914,1.274,2.754c0.509,0.835,1.23,1.588,1.782,1.473c0.636-0.03,1.356-0.832,1.838-1.677    c0.494-0.861,0.899-1.845,1.207-2.803l0.142-0.44l0.431,0.001c2.441,0.006,4.958-0.297,7.382-0.84    c1.224-0.244,2.43-0.578,3.614-0.98c1.19-0.394,2.332-0.908,3.472-1.45c-2.091,1.407-4.46,2.411-6.897,3.152    c-2.461,0.696-4.966,1.145-7.57,1.285l0.573-0.439c-0.27,1.104-0.636,2.138-1.185,3.154c-0.276,0.504-0.595,1.003-1.034,1.459    c-0.424,0.448-1.031,0.89-1.813,0.988c-0.37,0.05-0.796,0.008-1.157-0.146c-0.356-0.145-0.643-0.348-0.889-0.562    c-0.493-0.432-0.84-0.915-1.158-1.401c-0.619-0.986-1.069-1.984-1.457-3.063l1.462-0.056c-0.389,1.414-0.934,2.631-1.514,3.89    c-0.596,1.24-1.232,2.465-2.07,3.616c-0.427,0.572-0.877,1.14-1.541,1.629c-0.333,0.232-0.761,0.482-1.351,0.479    c-0.507-0.018-0.998-0.187-1.394-0.605c-0.71-0.903-0.494-1.784-0.371-2.478c0.168-0.725,0.417-1.369,0.738-2.027l0.734,0.727    c-2.148,0.897-4.324,1.66-6.527,2.339C334.614,187.742,332.404,188.384,330.158,188.897z"/>
		<path style="fill:#FFC792;" d="M278.066,352.119c-8.227-10.6-28.341-30.199-61.153-25.204c0,0-6.659-16.243-10.976-38.931    c5.362,0.744,12.486,1.468,17.306,0.896c0,0-0.136,6.997,3.233,8.103c3.388,1.106,2.227-8.713,2.227-8.713s5.13,6.863,8.575,6.139    c3.446-0.743-1.762-7.225-1.762-7.225s18.739-3.375,33.432-16.51C277.216,288.002,281.054,314.747,278.066,352.119z"/>
		<path style="opacity:0.48;fill:#AE312F;" d="M181.99,431.715c-2.247-8.164-3.788-16.517-4.916-24.922    c-1.141-8.407-1.612-16.914-1.379-25.425c0.325-8.493,1.339-17.061,4.047-25.24c2.62-8.161,7.281-15.896,14.07-21.437    c3.4-2.739,7.309-4.83,11.421-6.248c2.057-0.753,4.169-1.181,6.259-1.644l3.143-0.703c1.048-0.23,2.127-0.305,3.19-0.464    c8.508-1.222,17.297-0.751,25.622,1.497c16.74,4.535,30.921,16.208,39.756,30.921l-1.627,0.472    c-0.083-2.426,0.024-4.799,0.525-7.204c0.265-1.192,0.607-2.408,1.369-3.532c0.687-1.135,2.267-2.099,3.813-1.593    c1.486,0.528,2.227,1.739,2.808,2.799c0.552,1.108,0.981,2.242,1.309,3.392c0.669,2.302,1.092,4.622,1.358,6.991l-1.067-0.176    c1.185-2.31,2.467-4.543,4.032-6.628c0.797-1.026,1.632-2.052,2.785-2.813c0.56-0.375,1.304-0.684,2.141-0.401    c0.773,0.464,0.922,1.228,1.073,1.855c0.419,2.623,0.102,5.184-0.179,7.73c-0.331,2.543-0.768,5.067-1.29,7.571    c0.409-2.525,0.732-5.064,0.947-7.607c0.181-2.527,0.406-5.132-0.075-7.564c-0.129-0.58-0.388-1.193-0.762-1.374    c-0.395-0.108-0.993,0.047-1.453,0.411c-0.968,0.682-1.758,1.693-2.486,2.705c-1.441,2.056-2.643,4.321-3.716,6.596l-0.788,1.672    l-0.28-1.849c-0.343-2.268-0.805-4.559-1.488-6.739c-0.335-1.094-0.765-2.146-1.274-3.122c-0.512-0.953-1.233-1.833-2.005-2.061    c-0.764-0.231-1.637,0.205-2.145,1.056c-0.548,0.831-0.859,1.917-1.069,3.004c-0.415,2.186-0.476,4.528-0.351,6.771l0.185,3.313    l-1.812-2.841c-8.897-13.952-22.697-25.359-38.831-29.542c-8.029-2.133-16.468-2.449-24.702-1.328    c-1.029,0.148-2.072,0.21-3.09,0.427l-3.055,0.664c-2.042,0.437-4.091,0.837-6.019,1.533c-3.893,1.314-7.569,3.25-10.78,5.801    c-6.402,5.161-10.914,12.455-13.507,20.351c-2.75,7.871-3.955,16.261-4.437,24.644    C176.517,398.251,178.403,415.194,181.99,431.715z"/>
		<path style="opacity:0.48;fill:#AE312F;" d="M193.664,199.32c5.996,1.857,11.533,4.852,16.741,8.282    c5.175,3.476,10.035,7.527,13.959,12.417c-2.622-1.722-5.138-3.498-7.682-5.233c-2.542-1.731-5.06-3.482-7.63-5.162    C203.964,206.182,198.799,202.889,193.664,199.32z"/>
		<path style="fill:#AE312F;" d="M197.554,286.574c-0.987-0.21-1.975-0.438-2.962-0.686c-4.685-1.144-8.886-2.841-12.641-4.938    c-3.02-1.678-5.75-3.603-8.227-5.719c4.917-1.239,11.325-3.661,14.848-8.236c6.273-8.103,3.911-15.214,11.558-12.43    C205.065,256.356,206.575,275.612,197.554,286.574z"/>
		<path style="fill:#AE312F;" d="M241.943,285.506c0-1.525-0.097-3.031-0.348-4.499c-1.878-11.153-5.808-23.126,5.324-22.878    c5.014,0.114,10.105,8.865,12.602,19.503c0.019,0.038,0.019,0.057,0.019,0.076c-5.382,3.355-11.286,6.005-17.597,7.874V285.506z"/>
		<path style="opacity:0.48;fill:#AE312F;" d="M269.451,270.235l-0.48,0.469l0.002-0.001c-2.256,2.189-4.657,4.261-7.251,6.073    c-2.553,1.875-5.297,3.482-8.115,4.933c-5.64,2.939-11.571,5.217-17.886,6.607l0.693-1.852c1.082,1.367,2.013,2.737,2.745,4.437    c0.28,0.853,0.812,1.831,0.183,3.348c-0.149,0.378-0.468,0.639-0.782,0.892c-0.312,0.222-0.62,0.291-0.943,0.412    c-0.607,0.122-1.199,0.127-1.722,0.013c-2.079-0.482-3.436-1.656-4.718-2.795c-1.272-1.175-2.366-2.417-3.424-3.79l2.13-0.85    c0.167,1.688,0.234,3.32,0.137,5.032c-0.068,0.856-0.18,1.725-0.448,2.641c-0.158,0.466-0.362,0.953-0.739,1.452    c-0.223,0.242-0.512,0.5-0.828,0.672c-0.355,0.117-0.799,0.297-1.117,0.22c-1.408-0.145-2.171-0.888-2.815-1.683    c-0.585-0.808-0.919-1.666-1.174-2.511c-0.488-1.71-0.596-3.365-0.573-5.091l1.026,0.929c-4.282,0.333-8.435-0.097-12.563-0.63    c-4.119-0.59-8.188-1.465-12.227-2.379c4.138,0.387,8.219,1.024,12.347,1.221c4.098,0.276,8.258,0.497,12.226-0.037l0.992-0.133    l0.035,1.064c0.048,1.486,0.268,3.073,0.717,4.447c0.224,0.686,0.517,1.336,0.895,1.826c0.325,0.465,0.964,0.789,1.175,0.774    c0.08,0.009,0.019,0.001,0.141-0.091c0.102-0.158,0.214-0.408,0.31-0.71c0.166-0.636,0.25-1.373,0.292-2.122    c0.074-1.504-0.003-3.099-0.168-4.612l-0.452-4.142l2.582,3.291c0.94,1.199,2.019,2.403,3.154,3.426    c1.118,1.01,2.413,1.974,3.54,2.216c0.546,0.154,1.015-0.085,0.878-0.054c0.075,0.001,0.027-0.748-0.26-1.368    c-0.53-1.308-1.441-2.667-2.344-3.876l-1.127-1.509l1.82-0.344c2.966-0.56,5.998-1.406,8.928-2.38    c2.957-0.94,5.858-2.071,8.688-3.357c2.844-1.265,5.581-2.755,8.267-4.34c2.72-1.547,5.206-3.446,7.726-5.329l0.002-0.002    L269.451,270.235z"/>
		<path style="fill:#AE312F;" d="M107.786,445.074c-0.226-1.738,0.222-3.533,1.049-5.115c0.814-1.606,2.082-2.976,3.545-4.047    c1.52-0.984,3.19-1.715,4.931-2.012c0.857-0.195,1.746-0.182,2.603-0.239c0.871,0.056,1.733,0.139,2.576,0.318    c-0.81,0.362-1.607,0.594-2.384,0.862c-0.761,0.326-1.533,0.555-2.257,0.881c-1.462,0.62-2.82,1.336-4.077,2.185    C111.3,439.66,109.309,441.993,107.786,445.074z"/>
		<path style="fill:#AE312F;" d="M131.634,480.21c0.24-1.593,1.009-3.065,2.009-4.328c0.995-1.282,2.282-2.346,3.721-3.134    c1.456-0.743,3.027-1.314,4.652-1.415c1.606-0.187,3.229,0.033,4.727,0.554c-1.537,0.493-2.972,0.806-4.335,1.305    c-1.37,0.444-2.653,1.029-3.88,1.693C136.043,476.2,133.881,477.996,131.634,480.21z"/>
		<path style="fill:#AE312F;" d="M395.378,197.903c-1.2,0.763-2.439,1.468-3.678,2.155c-8.13,4.461-17.132,7.912-26.444,7.969    c-2.148,0.019-4.394-0.171-6.272-1.239c-1.859-1.049-3.233-3.184-2.807-5.262c0.465-2.288,2.769-3.642,4.84-4.747    c4.82-2.536,9.64-5.071,14.461-7.588c3.368-1.773,6.66-3.622,9.525-6.024C388.293,187.322,391.816,192.203,395.378,197.903z"/>
		<path style="fill:#AE312F;" d="M416.711,245.089c-10.241,2.326-20.81,3.68-31.38,3.032c-3.291-0.21-6.64-0.648-9.485-1.983    c-2.865-1.315-5.13-3.718-5.15-6.387c-0.019-3.679,3.988-6.482,7.86-8.426c9.137-4.633,18.681-8.465,27.953-12.793    C410.148,226.405,413.633,235.232,416.711,245.089z"/>
		<path style="fill:#AE312F;" d="M426.041,287.337c-7.511,0.896-15.177,0.725-22.34-1.582c-2.459-0.82-5.169-2.288-5.498-4.824    c-0.251-1.964,1.103-3.794,2.633-5.09c4.743-4.061,13.822-6.177,22.068-6.692C424.106,274.925,425.17,280.988,426.041,287.337z"/>
		<path style="fill:#AE312F;" d="M429.1,330.862c0,1.315,0,2.631-0.038,3.946c-1.762,0.076-3.523,0.076-5.285,0.038    c-9.679-0.153-19.513-1.068-28.515-4.633c-2.613-1.029-5.595-3.069-5.11-5.815c0.309-1.735,1.955-2.917,3.562-3.737    c8.421-4.27,18.236-3.47,27.373-4.595c2.517-0.305,5.014-1.125,7.511-2.059C428.887,319.461,429.062,325.066,429.1,330.862z"/>
		<path style="fill:#AE312F;" d="M425.809,368.21c-1.49,7.683-3.465,14.928-5.923,21.772c-13.745-1.068-27.218-5.872-38.272-14.051    c-3.33-2.478-10.744-6.787-9.273-11.687c1.181-3.927,7.008-4.862,10.511-4.804c10.628,0.171,20.54,4.423,30.606,7.245    C417.195,367.733,421.492,367.962,425.809,368.21z"/>
		<path style="fill:none;" d="M271.756,492.08c0.142,0,0.284,0,0.426,0"/>
		<path style="fill:#AE312F;" d="M282.886,478.119c-8.983,0.248-18.197-0.038-27.547-0.858c-2.962-6.94-5.789-13.651-5.924-22.153    c-0.058-2.422,0.078-4.919,1.065-7.13c0.987-2.231,3.001-4.137,5.439-4.423c3.775-0.439,6.795,2.86,9.021,5.872    c6.369,8.656,12.118,17.749,17.171,27.206C282.383,477.128,282.634,477.624,282.886,478.119z"/>
		<path style="fill:#AE312F;" d="M334.244,469.979c-8.788,2.726-17.984,4.766-27.508,6.139c-2.497-5.357-5.865-12.659-6.369-19.236    c-0.368-4.976,1.258-9.761,6.93-10.638c3.407-0.534,6.892,0.744,9.679,2.745C323.848,453.926,330.334,462.029,334.244,469.979z"/>
		<path style="fill:#AE312F;" d="M395.862,431.277c-5.691,6.482-12.021,12.278-18.913,17.387    c-12.409-6.177-22.959-19.408-25.456-30.752c-0.387-1.735-0.62-3.603,0-5.281c1.064-2.86,3.988-3.203,6.601-2.555    c6.66,1.697,12.467,6.501,18.081,10.162C382.485,424.356,389.067,427.997,395.862,431.277z"/>
		<path style="fill:#6CE0C0;" d="M214.078,146.481c-4.762,13.898-18.488,19.618-32.464,20.609    c-13.222,0.915-26.502-2.192-39.123-5.738c-0.852-0.229-1.684-0.458-2.536-0.667c-4.549-1.182-9.118-2.04-13.744-2.631    c-4.124-0.553-8.266-0.877-12.486-1.01c-12.583-0.42-25.456,0.229-37.903,2.173c0,0,31.05-136.238,38.775-130.252    c3.523,2.745,5.923,7.416,8.362,11.019c7.143,10.524,14.5,21.029,23.172,30.333l0.019,0.019    c3.794,4.042,7.821,7.855,12.196,11.362c1.413,1.144,2.885,2.174,4.395,3.127c13.628,8.579,30.606,10.486,43.189,20.552    C218.433,115.368,218.898,132.374,214.078,146.481z"/>
		
			<ellipse transform="matrix(0.2073 -0.9783 0.9783 0.2073 -19.9246 154.5725)" style="fill:#AE312F;" cx="85.413" cy="89.58" rx="70.641" ry="41.988"/>
		<path style="fill:#FF5555;" d="M139.954,160.685c-4.549-1.182-9.118-2.04-13.744-2.631c8.673-6.386,20.351-21.944,25.364-38.988    c7.105-24.079-4.864-47.776-5.425-48.73c3.794,4.042,7.821,7.855,12.196,11.362c1.413,1.144,2.885,2.174,4.395,3.127    C166.688,100.745,170.773,135.862,139.954,160.685z"/>
		<path style="fill:#FF5555;" d="M101.44,147.32c0,0-8.244-25.289-22.06-38.835l14.338-38.942c0,0,20.537,1.913,34.692-6.141    C128.41,63.402,136.749,111.598,101.44,147.32z"/>
		
			<ellipse transform="matrix(0.2072 -0.9783 0.9783 0.2072 -18.1268 159.373)" style="fill:#FFFFFF;" cx="89.273" cy="90.871" rx="21.787" ry="12.95"/>
		<path style="fill:#AE312F;" d="M251.688,118.973c0.881-2.318,2.048-4.511,3.229-6.696c1.23-2.158,2.578-4.253,4.052-6.263    c1.442-2.036,3.067-3.94,4.759-5.786c1.683-1.858,3.579-3.517,5.494-5.15l1.752-1.493l0.219,2.337    c0.454,4.846,1.106,9.737,1.768,14.601l1.068,7.305c0.307,2.451,0.777,4.87,1.111,7.332c-3.384-9.341-5.342-19.118-6.368-29.03    l1.971,0.843c-3.741,3.026-7.151,6.489-10.293,10.205C257.325,110.906,254.365,114.82,251.688,118.973z"/>
		<path style="fill:#AE312F;" d="M260.008,106.205c0,0,2.536,8.179,12.095,4.951l-2.799-14.575L260.008,106.205z"/>
	</g>
	<polygon style="fill:#FF9C3D;" points="94.199,257.358 99.284,249.11 95.267,240.309 104.803,242.522 112.062,236.04    112.871,245.657 121.374,250.452 112.337,254.181 110.334,263.627 103.94,256.316  "/>
	<polygon style="fill:#FF9C3D;" points="409.708,101.417 405.721,93.693 396.999,92.55 403.226,86.427 401.635,77.905    409.471,81.845 417.21,77.722 415.826,86.279 422.2,92.253 413.508,93.602  "/>
	<g>
		<path style="fill:#FF5555;" d="M421.078,68.115c-0.179,0-0.358-0.044-0.52-0.131c-0.632-0.341-15.511-8.455-17.846-17.348    c-0.645-2.456-0.293-4.758,1.044-6.841c2.042-3.181,4.532-4.9,7.401-5.11c4.32-0.322,8.187,2.923,9.921,4.65    c1.734-1.726,5.595-4.971,9.921-4.65c2.869,0.21,5.359,1.93,7.401,5.11c1.337,2.083,1.689,4.385,1.044,6.841    c-2.334,8.893-17.214,17.007-17.846,17.348C421.436,68.072,421.257,68.115,421.078,68.115z M411.752,40.795    c-0.145,0-0.289,0.005-0.434,0.016c-2.148,0.157-4.077,1.545-5.732,4.123c-1.019,1.588-1.274,3.278-0.778,5.167    c1.872,7.136,13.64,14.215,16.271,15.721c2.63-1.506,14.399-8.586,16.27-15.721c0.496-1.889,0.241-3.579-0.778-5.167    c-1.655-2.578-3.584-3.966-5.732-4.123c-4.333-0.319-8.482,4.262-8.941,4.785c-0.205,0.234-0.505,0.369-0.819,0.369    c-0.315,0-0.614-0.135-0.819-0.369C419.815,45.09,415.923,40.795,411.752,40.795z"/>
	</g>
	<g>
		<path style="fill:#FF5555;" d="M79.38,229.062c-0.179,0-0.358-0.044-0.52-0.131c-0.632-0.341-15.511-8.455-17.846-17.348    c-0.645-2.456-0.294-4.758,1.044-6.841c2.042-3.181,4.532-4.9,7.401-5.11c4.32-0.322,8.187,2.923,9.921,4.649    c1.734-1.726,5.595-4.971,9.921-4.649c2.869,0.21,5.359,1.93,7.401,5.11c1.338,2.083,1.689,4.385,1.044,6.841    c-2.335,8.893-17.214,17.007-17.846,17.348C79.738,229.018,79.559,229.062,79.38,229.062z M70.054,201.741    c-0.145,0-0.289,0.005-0.434,0.016c-2.148,0.157-4.077,1.545-5.732,4.123c-1.019,1.588-1.274,3.278-0.778,5.167    c1.872,7.136,13.64,14.215,16.271,15.721c2.63-1.506,14.399-8.586,16.27-15.721c0.496-1.889,0.241-3.579-0.778-5.167    c-1.655-2.578-3.584-3.966-5.732-4.123c-4.333-0.319-8.482,4.262-8.941,4.785c-0.206,0.235-0.505,0.369-0.819,0.369    c-0.314,0-0.614-0.135-0.819-0.369C78.117,206.036,74.225,201.741,70.054,201.741z"/>
	</g>
	<polygon style="fill:#FF9C3D;" points="29.462,37.464 39.696,27.079 51.224,43.71 58.108,36.898 74.17,72.303 55.133,51.311    47.082,57.974  "/>
	<polygon style="fill:#FF9C3D;" points="15.52,81.722 21.177,68.366 38.093,79.677 41.962,70.855 70.084,97.996 44.559,85.338    39.549,94.443  "/>
</g>















</svg>
