<?xml version="1.0" encoding="UTF-8"?>
<!-- Generator: Adobe Illustrator 25.2.3, SVG Export Plug-In . SVG Version: 6.00 Build 0)  -->
<svg xmlns="http://www.w3.org/2000/svg" xmlns:xlink="http://www.w3.org/1999/xlink" version="1.1" id="Capa_1" x="0px" y="0px" viewBox="0 0 512 512" style="enable-background:new 0 0 512 512;" xml:space="preserve" width="512" height="512">
<g>
	<g>
		<path style="fill:#9CF0E7;" d="M227.573,78.176c-23.903,14.855-41.583,36.144-53.645,61.473    c-12.933,27.157-21.752,57.679-49.556,73.314c-27.245,15.321-57.57,31.007-60.987,65.427    c-8.461,85.239,82.617,121.722,152.85,123.839c35.604,1.073,73.819-3.854,106.43-18.777c48.395-22.146,72.784-79.145,88.42-126.54    c10.482-31.771,17.165-64.794,19.852-98.142c2.229-27.657,7.485-19.541-13.549-41.594c-19.737-20.693-39.694-49.532-65.698-56.476    C310.685,49.751,261.077,57.355,227.573,78.176z"/>
	</g>
	<g>
		<g>
			<polygon style="fill:#AF312F;" points="322.26,388.611 169.801,342.924 17.341,403.099 0,403.923 0,409.943 156.001,491.777      339.601,393.807 339.601,387.787    "/>
		</g>
		<g>
			<polygon style="fill:#FFC893;" points="169.801,336.903 339.601,387.787 309.91,403.612 276.847,402.37 272.536,423.557      238.369,441.794 212.9,439.171 206.938,458.57 180.325,472.774 150.675,464.332 125.083,469.533 96.254,454.411 91.418,438.998      70.897,441.111 49.873,430.083 46.055,416.674 26.074,417.599 0,403.923    "/>
		</g>
		<g>
			<g>
				<path style="fill:#AF312F;" d="M221.347,371.659l-26.715-9.618c9.68-4.544,17.668-8.294,22.987-10.8h0.02l29.12,8.722      C243.723,361.348,234.328,365.689,221.347,371.659z"/>
			</g>
			<g>
				<path style="fill:#AF312F;" d="M131.461,391.711c10.637-4.993,21.254-9.985,31.3-14.693l24.474,10.372      c-10.556,4.85-21.703,10.005-32.768,15.1L131.461,391.711z"/>
			</g>
			<g>
				<path style="fill:#AF312F;" d="M117.176,357.68l21.519,9.129c-9.965,4.483-20.398,9.19-30.791,13.877l-22.436-10.515      l31.688-12.492H117.176z"/>
			</g>
			<g>
				<path style="fill:#AF312F;" d="M190.964,343.253c-5.604,2.527-12.98,5.849-21.539,9.7l-21.05-7.601l21.417-8.457      L190.964,343.253z"/>
			</g>
			<g>
				<path style="fill:#AF312F;" d="M194.632,362.041c-9.313,4.381-20.215,9.496-31.871,14.978l-24.066-10.209      c11.106-5.013,21.58-9.74,30.73-13.857L194.632,362.041z"/>
			</g>
			<g>
				<path style="fill:#AF312F;" d="M148.334,429.105l-24.678-12.41c9.802-4.524,20.276-9.333,30.812-14.204l24.759,11.595      C168.609,419.242,158.135,424.336,148.334,429.105z"/>
			</g>
			<g>
				<path style="fill:#AF312F;" d="M101.749,405.67l-23.312-11.717c9.476-4.259,19.441-8.763,29.467-13.266l23.537,11.025      C121.394,396.439,111.348,401.167,101.749,405.67z"/>
			</g>
			<g>
				<path style="fill:#AF312F;" d="M49.542,407.015l23.863,12.003c-9.129,4.279-17.178,8.07-23.516,11.065l-23.801-12.492      c5.645-2.547,13.755-6.215,23.435-10.576L24.313,394.32l30.73-12.125l23.394,11.758      C67.963,398.68,58.141,403.123,49.542,407.015z"/>
			</g>
			<g>
				<path style="fill:#AF312F;" d="M123.656,416.695c-10.535,4.87-20.317,9.374-28.59,13.205l-21.662-10.882      c8.64-4.076,18.258-8.6,28.345-13.348L123.656,416.695z"/>
			</g>
			<g>
				<path style="fill:#AF312F;" d="M95.066,429.9l25.35,12.757c-11.249,5.461-19.868,9.638-24.169,11.758l-25.35-13.307      C74.3,439.497,83.104,435.422,95.066,429.9z"/>
			</g>
			<g>
				<path style="fill:#AF312F;" d="M177.535,443.777c-10.128,4.972-19.563,9.619-27.775,13.633l-29.344-14.753      c8.131-3.974,17.647-8.579,27.918-13.552L177.535,443.777z"/>
			</g>
			<g>
				<path style="fill:#AF312F;" d="M125.082,469.534c5.318-2.608,13.938-6.847,24.678-12.125l30.567,15.365l-24.331,12.981      L125.082,469.534z"/>
			</g>
			<g>
				<path style="fill:#AF312F;" d="M206.941,458.571l-29.405-14.794c10.108-4.931,20.887-10.209,31.83-15.569l29.018,13.592      L206.941,458.571z"/>
			</g>
			<g>
				<path style="fill:#AF312F;" d="M243.784,411.376c-11.208,5.482-22.905,11.208-34.418,16.832l-30.139-14.122      c11.106-5.359,22.355-10.821,33.114-16.037l-25.105-10.658c12.614-5.828,24.372-11.249,34.112-15.732l26.043,9.395      c-10.331,5.013-22.334,10.841-35.03,16.995L243.784,411.376z"/>
			</g>
			<g>
				<path style="fill:#AF312F;" d="M309.91,403.612l-37.373,19.95l-28.753-12.186c13.429-6.582,26.206-12.818,37.19-18.197      L309.91,403.612z"/>
			</g>
			<g>
				<path style="fill:#AF312F;" d="M310.073,378.934c-6.317,3.098-16.547,8.11-29.099,14.244l-33.562-12.125      c11.412-5.523,20.745-10.046,26.654-12.92c0.02,0,0.02,0,0.02,0L310.073,378.934z"/>
			</g>
		</g>
		<g>
			<g>
				<path style="fill:#FFC893;" d="M223.796,409.602c-2.487-2.548-7.29-4.275-12.81-4.275s-10.323,1.728-12.81,4.275l-1.808,0.559      v3.412c0,4.554,6.545,8.246,14.618,8.246c8.073,0,14.618-3.692,14.618-8.246v-3.322L223.796,409.602z"/>
			</g>
			<g>
				<ellipse style="fill:#FFFFFF;" cx="210.986" cy="410.385" rx="14.618" ry="8.246"/>
			</g>
			<g>
				<path style="fill:#FFC893;" d="M221.923,410.391c0,0.146-0.018,0.31-0.036,0.455c-0.401-3.188-5.137-5.719-10.892-5.719      c-5.774,0-10.51,2.532-10.911,5.719c-0.018-0.146-0.036-0.31-0.036-0.455c0-3.406,4.9-6.175,10.947-6.175      C217.024,404.216,221.923,406.984,221.923,410.391z"/>
			</g>
		</g>
		<g>
			<g>
				<path style="fill:#FFC893;" d="M229.932,379.122c-2.487-2.548-7.289-4.275-12.81-4.275c-5.52,0-10.323,1.728-12.81,4.275      l-1.808,0.559v3.412c0,4.554,6.545,8.246,14.618,8.246s14.618-3.692,14.618-8.246v-3.321L229.932,379.122z"/>
			</g>
			<g>
				<path style="fill:#FFFFFF;" d="M231.74,379.905c0,4.554-6.545,8.246-14.618,8.246s-14.618-3.692-14.618-8.246      c0-4.554,6.545-8.246,14.618-8.246S231.74,375.351,231.74,379.905z"/>
			</g>
			<g>
				<path style="fill:#FFC893;" d="M228.06,379.91c0,0.146-0.018,0.31-0.037,0.455c-0.401-3.188-5.137-5.72-10.892-5.72      c-5.774,0-10.51,2.532-10.91,5.72c-0.018-0.146-0.037-0.31-0.037-0.455c0-3.406,4.9-6.175,10.947-6.175      C223.161,373.736,228.06,376.504,228.06,379.91z"/>
			</g>
		</g>
		<g>
			<g>
				<path style="fill:#FFC893;" d="M169.968,384.543c-2.487-2.535-7.289-4.254-12.81-4.254c-5.52,0-10.323,1.719-12.81,4.254      l-1.808,0.556v3.395c0,4.531,6.545,8.205,14.618,8.205c8.073,0,14.618-3.673,14.618-8.205v-3.305L169.968,384.543z"/>
			</g>
			<g>
				<ellipse style="fill:#FFFFFF;" cx="157.158" cy="385.322" rx="14.618" ry="8.205"/>
			</g>
			<g>
				<path style="fill:#FFC893;" d="M168.096,385.327c0,0.145-0.018,0.308-0.036,0.453c-0.401-3.172-5.137-5.691-10.893-5.691      c-5.774,0-10.51,2.519-10.91,5.691c-0.018-0.145-0.037-0.308-0.037-0.453c0-3.389,4.9-6.144,10.947-6.144      C163.196,379.183,168.096,381.938,168.096,385.327z"/>
			</g>
		</g>
	</g>
	<g>
		<g>
			<g>
				<g>
					<path style="fill:#FF9D3D;" d="M454.182,205.903c0,0,16.051-7.622,16.059-18.074c0.007-10.452-22.648-42.444-12.993-67.376       c10.941-28.254,41.199-49.999,52.347-38.834c11.148,11.165-19.539,24.655-28.933,38.834       c-16.643,25.12-2.544,40.203,3.686,54.957c6.23,14.755,5.981,38.252-20.965,51.574       C442.695,237.211,454.182,205.903,454.182,205.903z"/>
				</g>
				<g style="opacity:0.48;">
					<path style="fill:#AF312F;" d="M487.259,113.038c-2.636,2.443-4.945,4.915-6.599,7.418c-9.95,15.015-8.907,26.455-5.124,36.375       c-4.215,4.737-8.773,8.863-11.976,11.604c-5.78-14.106-12.334-32.413-6.316-47.979c4.499-11.634,12.274-22.15,20.645-29.716       c1.281-1.162,2.577-2.249,3.873-3.262C484.489,94.88,486.365,104.085,487.259,113.038z"/>
				</g>
				<g>
					<path style="fill:#AF312F;" d="M481.137,212.496c-0.998-0.79-1.922-1.743-2.771-2.83c-1.668-2.145-2.622-4.781-3.053-7.477       c-0.253-1.475-0.328-3.024,0.104-4.469c0.924-3.098,3.977-5.05,7.001-6.197c1.683-0.64,3.441-1.117,5.228-1.415       C487.929,197.466,486.216,205.331,481.137,212.496z"/>
				</g>
				<g>
					<path style="fill:#AF312F;" d="M504.464,98.44c-0.224,0.209-0.447,0.417-0.685,0.626c-3.337-3.843,0.834-8.595,0.834-8.595       c-5.854,2.071-16.981,0.715-22.537-3.232c10.725-8.327,21.718-11.425,27.512-5.616       C514.742,86.777,510.958,92.437,504.464,98.44z"/>
				</g>
				<g style="opacity:0.2;">
					<path style="fill:#AF312F;" d="M504.464,98.44c-0.224,0.209-0.447,0.417-0.685,0.626c-4.99,4.498-11.365,9.176-16.519,13.972       c-2.636,2.443-4.945,4.915-6.599,7.418c-9.95,15.015-8.907,26.455-5.124,36.375c2.532,6.659,6.316,12.646,8.818,18.575       c1.817,4.305,3.083,9.369,3.292,14.702c0.283,7.358-1.43,15.223-6.509,22.388v0.015c-3.813,5.422-9.548,10.412-17.756,14.478       c-20.69,10.218-9.205-21.092-9.205-21.092s16.057-7.612,16.057-18.069c0-3.932-3.188-10.904-6.673-19.394       c-5.78-14.106-12.334-32.413-6.316-47.979c4.499-11.634,12.274-22.15,20.645-29.716c1.281-1.162,2.577-2.249,3.873-3.262       c0.104-0.075,0.208-0.164,0.313-0.238c10.725-8.327,21.718-11.425,27.512-5.616C514.742,86.777,510.958,92.437,504.464,98.44z"/>
				</g>
			</g>
			<g>
				<g style="opacity:0.48;">
					<path style="fill:#AF312F;" d="M321.979,281.126c0.491-2.683,0.954-5.364,1.312-8.061c0.401-2.689,0.743-5.384,1.005-8.086       c0.544-5.398,0.905-10.817,0.776-16.224c-0.032-2.702-0.155-5.403-0.438-8.087c-0.29-2.684-0.78-5.334-1.373-7.96       c-0.612-2.623-1.502-5.178-2.668-7.603c-1.131-2.446-2.63-4.723-4.463-6.748c2.066,1.793,3.724,4.035,5.093,6.421       c1.324,2.416,2.355,4.995,3.114,7.644c1.511,5.313,2.037,10.833,2.18,16.312c0.009,5.487-0.336,10.967-1.122,16.38       C324.609,270.524,323.547,275.897,321.979,281.126z"/>
				</g>
				<g>
					<g>
						<path style="fill:#FF9D3D;" d="M307.696,330.262c-22.763,21.676-58.63,0-58.63,0c-27.932,28.308-53.997,24.153-55.648,6.154        c-0.261-2.664,0.043-5.647,0.941-8.876c6.994-24.92,8.732-85.085,11.961-91.181c0-0.014,0.014-0.014,0.014-0.029        c3.229-6.096,14.437-9.282,22.285,4.692c8.268,14.682,4.663,42.485,4.431,44.164c8.153-64.583,44.309-83.376,62.293-84.144        c18.013-0.767,27.527,35.317,27.527,35.317S330.459,308.571,307.696,330.262z"/>
					</g>
					<g style="opacity:0.2;">
						<path style="fill:#AF312F;" d="M307.696,330.262c-22.763,21.676-58.63,0-58.63,0c-27.932,28.308-53.997,24.153-55.648,6.154        c-0.261-2.664,0.043-5.647,0.941-8.876c6.994-24.92,8.732-85.085,11.961-91.181c0-0.014,0.014-0.014,0.014-0.029        c3.229-6.096,14.437-9.282,22.285,4.692c8.268,14.682,4.894,40.805,4.663,42.485c9.583-65.149,44.078-81.697,62.062-82.465        c18.013-0.767,27.527,35.317,27.527,35.317S330.459,308.571,307.696,330.262z"/>
					</g>
					<g style="opacity:0.48;">
						<path style="fill:#AF312F;" d="M249.061,330.256c1.532-2.842,3.222-5.498,4.857-8.193l2.435-4.044l2.356-4.145        c-0.486,3.215-1.911,6.197-3.556,8.944c-0.855,1.362-1.764,2.688-2.777,3.935C251.368,328.001,250.291,329.2,249.061,330.256z        "/>
					</g>
					<g style="opacity:0.2;">
						<path style="fill:#AF312F;" d="M224.189,294.785c-8.529,33.159-14.089,49.624-30.771,41.63        c-0.261-2.664,0.043-5.647,0.941-8.876c6.994-24.92,8.732-85.085,11.961-91.181c0-0.014,0.014-0.014,0.014-0.029        c2.838-1.303,6.733-2.114,10.73,0.145C224.826,240.847,232.892,260.96,224.189,294.785z"/>
					</g>
					<g>
						<g>
							<path style="fill:#FFC893;" d="M208.915,265.219c-0.766,1.593-0.972,3.389-1.154,5.148         c-1.231,11.884-1.867,23.853-4.02,35.605c-0.871,4.75-1.988,9.453-2.82,14.21c-0.199,1.137-0.339,2.443,0.411,3.321         c0.607,0.71,1.664,0.91,2.571,0.683c0.906-0.226,1.681-0.811,2.352-1.461c1.672-1.617,2.844-3.683,3.783-5.811         c1.11-2.513,1.924-5.145,2.722-7.773c3.476-11.447,6.715-23.117,7.069-35.076c0.109-3.678-0.353-8.316-3.149-11.076         C214.203,260.546,210.228,262.489,208.915,265.219z"/>
						</g>
						<g>
							<path style="fill:#FFC893;" d="M216.484,255.228c0.096,0.727,0.336,1.466,0.86,1.978c0.447,0.437,1.052,0.664,1.638,0.881         c0.956,0.352,2.062,0.696,2.951,0.198c2.117-1.186,1.382-5.703-0.3-6.98C218.891,249.225,216.119,252.465,216.484,255.228z"/>
						</g>
						<g>
							<path style="fill:#FFC893;" d="M210.308,245.52c0.04,1.018,0.236,2.071,0.842,2.89c0.953,1.287,2.813,1.713,4.329,1.198         c1.516-0.514,2.674-1.833,3.253-3.325c0.393-1.011,0.54-2.176,0.103-3.169c-0.674-1.531-3.241-3.07-4.916-2.897         C211.247,240.493,210.215,243.194,210.308,245.52z"/>
						</g>
						<g>
							<path style="fill:#FFC893;" d="M206.149,255.756c0.248,0.222,0.574,0.339,0.9,0.405c2.575,0.516,6.066-3.193,2.828-4.645         C207.596,250.492,203.994,253.821,206.149,255.756z"/>
						</g>
					</g>
				</g>
			</g>
			<g>
				<g>
					<path style="fill:#FF9D3D;" d="M338.901,203.721c0,0-58.497,5.21-65.734,8.518c-7.237,3.308,0,32.756,0,32.756l51.516-6.568       L353,210.925L338.901,203.721z"/>
				</g>
				<g style="opacity:0.2;">
					<path style="fill:#AF312F;" d="M338.901,203.721c0,0-58.497,5.21-65.734,8.518c-7.237,3.308,0,32.756,0,32.756l51.516-6.568       L353,210.925L338.901,203.721z"/>
				</g>
			</g>
			<g>
				<path style="fill:#FF9D3D;" d="M478.404,102.388c-0.058-0.428-0.136-0.855-0.194-1.283c-0.117-0.739-0.252-1.477-0.389-2.216      c-0.097-0.447-0.175-0.894-0.291-1.341c-1.011-4.733-2.838-9.181-5.388-13.352c0.002,0,0.012,0.003,0.014,0.003      c-0.328-0.625-11.305-20.66-14.612-30.238c-3.366-9.712-5.363-22.209-11.097-22.612h-0.015      c-5.198-0.357-17.07,10.65-19.707,23.341c-0.001,0.007-0.002,0.013-0.003,0.02c-2.747-0.813-5.584-1.584-8.547-2.292      c-0.447-0.117-0.913-0.233-1.36-0.311c-4.334-1.03-8.863-1.924-13.625-2.682h-0.019c-1.944-0.311-3.946-0.622-5.967-0.894      c-8.746-1.205-18.192-2.06-28.318-2.546c-0.33,0-0.661-0.019-0.972-0.039c-1.127-0.039-2.254-0.097-3.343-0.097      c-2.974-0.078-5.831-0.058-8.59,0c-0.006,0-0.011,0.001-0.017,0.001l-0.365-0.364c-1.564-1.624-3.56-4.007-3.798-4.275      c-3.084-3.62-4.916-8.371-7.612-12.259c-3.917-5.66-10.024-9.816-17.353-8.476c-0.462,0.089-0.879,0.268-1.281,0.566      c-1.028,0.745-1.892,2.13-2.577,3.962c-2.473,6.569-2.622,18.694-0.194,26.067c0.044,0.146,0.102,0.305,0.16,0.452      c-0.001,0-0.002,0.001-0.004,0.001c-13.78,4.995-23.09,12.906-29.445,22.137c-0.447,0.642-0.855,1.302-1.283,1.963      c-1.671,2.624-3.11,5.364-4.373,8.163c-0.058,0.136-0.116,0.272-0.155,0.389c-0.641,1.419-1.224,2.857-1.769,4.295      c-0.252,0.68-0.485,1.322-0.719,2.002c-1.147,3.401-2.099,6.841-2.877,10.281c-0.077,0.389-0.155,0.778-0.233,1.147      c-0.077,0.389-0.155,0.778-0.233,1.166c-0.369,1.827-0.622,3.634-0.816,5.403c-0.019,0.078-0.019,0.156-0.039,0.253      c-0.252,2.196-0.388,4.334-0.427,6.433c-0.019,0.952-0.019,1.885,0,2.818c0.291,15.471,5.617,27.132,9.096,33.118      c0.214,0.35,0.408,0.68,0.603,0.991c-4.471,6.297-8.105,13.527-10.903,20.116v0.019c0,0.019-0.02,0.019-0.02,0.039      c-1.302,3.09-39.532,90.453-6.978,147.38c16.035,28.006,40.115-1.477,60.562-38.93l39.824,4.218l36.112,94.302      c0,0,7.366-1.594,17.259-6.569c0.019-0.019,0.019,0,0.019,0c5.189-2.624,11.079-6.18,16.948-10.942      c4.762-3.829,9.504-8.435,13.877-13.974c3.946-4.995,7.58-10.728,10.651-17.317c2.312-5.014,4.314-10.515,5.831-16.559      c1.613-6.258,2.721-13.119,3.207-20.602c0.058-1.263,0.136-2.565,0.175-3.887c0.233-6.725,0.292-13.527,0.175-20.349      c-0.077-6.006-0.272-12.031-0.622-18.017c-1.846-32.846-7.522-64.759-17.259-88.024c6.181-5.209,10.865-11.195,14.149-17.803      c2.76-5.539,4.548-11.506,5.481-17.803c0.272-1.808,0.466-3.615,0.602-5.481c0.058-0.894,0.097-1.788,0.136-2.682v-0.097      C479.667,113.719,479.298,108.121,478.404,102.388z"/>
			</g>
			<g>
				<path style="fill:#AF312F;" d="M433.163,305.499c1.294,0,2.428-0.547,3.285-1.339c0.86-0.801,1.51-1.819,2.03-2.912      c0.504-1.107,0.917-2.271,1.273-3.469c0.371-1.197,0.649-2.425,1.05-3.66c0.07,1.286,0.034,2.581-0.185,3.86      c-0.191,1.283-0.578,2.543-1.111,3.757c-0.587,1.185-1.379,2.337-2.514,3.123C435.891,305.652,434.383,305.984,433.163,305.499z      "/>
			</g>
			<g>
				<path style="fill:#AF312F;" d="M435.587,57.686c-4.931-2.041-8.669-2.934-8.863-2.994c2.637-12.691,14.508-23.699,19.707-23.341      h0.015c0.73,2.949,1.579,6.479-0.641,14.061c-0.224,0.745-0.387,1.475-0.522,2.189      C443.243,58.192,440.278,59.637,435.587,57.686z"/>
			</g>
			<g>
				<path style="fill:#AF312F;" d="M328.144,49.806c-2.011,0.447-3.903,0.893-5.363,1.266c-2.428-7.373-2.279-19.498,0.194-26.067      c0.685-1.832,1.549-3.217,2.577-3.962c0,0,2.636,1.326,4.484,7.775c0.67,2.354,1.251,4.603,1.966,6.688      C333.7,40.436,334.698,48.316,328.144,49.806z"/>
			</g>
			<g style="opacity:0.48;">
				<path style="fill:#EB4949;" d="M402.365,156.035c-3.485,2.057-4.318,6.723-0.673,9.357c4.879,3.526,14.553,3.614,19.368-0.099      c4.065-3.135,2.142-9.489-1.952-10.885c-3.46-1.18-7.222-1.121-10.741-0.398C406.731,154.346,404.318,154.883,402.365,156.035z"/>
			</g>
			<g style="opacity:0.48;">
				<path style="fill:#EB4949;" d="M315.814,146.386c2.891,2.831,2.583,7.561-1.586,9.246c-5.582,2.256-14.995,0.026-18.781-4.732      c-3.196-4.017,0.192-9.726,4.501-10.101c3.642-0.317,7.281,0.641,10.524,2.185C311.98,143.701,314.194,144.8,315.814,146.386z"/>
			</g>
			<g>
				<path style="fill:#AF312F;" d="M397.2,48.525c-6.405,4.782-11.515,12.453-15.551,18.217c-2.219,3.158-4.275,6.435-6.211,9.772      c-1.46,2.503-3.933,4.915-7.016,5.094c-3.873,0.223-7.105-2.502-8.788-5.794c-2.115-4.111-1.832-8.788-0.804-13.168      c1.46-6.197,4.752-11.946,9.086-16.698c0.313,0.015,0.641,0.03,0.968,0.045C379.013,46.469,388.456,47.318,397.2,48.525z"/>
			</g>
			<g>
				<path style="fill:#FFFFFF;" d="M353.653,215.725c-0.096,0-0.096,0.149,0,0.149S353.749,215.725,353.653,215.725z"/>
			</g>
			<g>
				<path style="fill:#AF312F;" d="M293.78,106.782c-4.156,0.343-8.312-1.37-11.931-3.709c0.074-0.387,0.149-0.774,0.238-1.177      c0.075-0.372,0.149-0.76,0.238-1.147c0.774-3.441,1.713-6.882,2.875-10.278C292.544,98.246,301.571,106.126,293.78,106.782z"/>
			</g>
			<g>
				<path style="fill:#AF312F;" d="M291.412,117.298c-2.83,1.385-6.971,1.281-10.844,0.67c-0.015-0.923-0.015-1.862,0-2.815      c0.045-2.085,0.179-4.23,0.432-6.435c0.015-0.09,0.015-0.164,0.03-0.253C288.865,111.325,296.402,114.855,291.412,117.298z"/>
			</g>
			<g>
				<path style="fill:#AF312F;" d="M294.286,88.192c-2.249-0.507-4.528-2.071-6.613-4.007c0.045-0.134,0.104-0.268,0.164-0.402      c1.266-2.785,2.711-5.526,4.38-8.163C296.312,82.487,299.5,89.369,294.286,88.192z"/>
			</g>
			<g>
				<path style="fill:#AF312F;" d="M416.803,52.1c-1.713,1.534-3.634,3.247-5.02,4.544c-4.38,4.111-9.101,9.965-12.244,10.367      c-6.569,0.849-8.61-5.675-3.843-11.723c2.175-2.756,5.02-4.632,7.478-5.869h0.015C407.955,50.193,412.483,51.087,416.803,52.1z"/>
			</g>
			<g>
				<path style="fill:#AF312F;" d="M364.579,45.843c-3.724,3.992-7.969,10.874-11.47,11.708c-5.273,1.251-8.893-3.098-6.435-5.75      c2.383-2.577,5.05-4.513,7.344-5.884C357.384,45.784,360.9,45.754,364.579,45.843z"/>
			</g>
			<g style="opacity:0.48;">
				<path style="fill:#AF312F;" d="M286.236,144.261c0.983,1.947,1.972,3.888,3.049,5.773c0.527,0.948,1.079,1.88,1.666,2.781      c0.588,0.889,1.231,1.784,1.971,2.426l0.184,0.16l-0.027,0.262c-0.093,0.913-0.136,1.871-0.045,2.772      c0.073,0.873,0.378,1.855,0.887,1.997c0.241,0.073,0.38,0.041,0.618-0.269c0.212-0.3,0.37-0.72,0.495-1.144      c0.246-0.86,0.364-1.814,0.435-2.722l0.182-2.331l0.906,2.143c0.391,0.925,0.851,1.856,1.358,2.731      c0.511,0.871,1.074,1.729,1.754,2.387c0.332,0.331,0.718,0.597,1.065,0.654c0.382,0.064,0.711,0.001,0.845-0.273      c0.342-0.633,0.163-1.791-0.094-2.691l-0.335-1.173l0.95,0.72c1.372,1.04,2.845,1.981,4.333,2.872      c1.495,0.888,3.056,1.664,4.71,2.243c-1.719-0.362-3.357-1.05-4.945-1.806c-1.585-0.776-3.093-1.676-4.571-2.663l0.614-0.453      c0.186,0.533,0.316,1.051,0.393,1.612c0.057,0.555,0.1,1.161-0.214,1.808c-0.165,0.313-0.482,0.613-0.836,0.72      c-0.178,0.068-0.351,0.105-0.515,0.103c-0.167,0.018-0.334,0.017-0.504-0.027c-0.689-0.116-1.191-0.497-1.607-0.876      c-0.846-0.773-1.447-1.677-1.995-2.598c-0.546-0.926-1.021-1.864-1.452-2.857l1.088-0.188c-0.062,1.014-0.206,1.985-0.491,2.98      c-0.156,0.494-0.329,0.994-0.678,1.485c-0.105,0.12-0.204,0.242-0.322,0.354c-0.149,0.101-0.283,0.219-0.46,0.284      c-0.367,0.145-0.773,0.129-1.1,0.001c-0.686-0.25-1.047-0.871-1.232-1.378c-0.188-0.528-0.255-1.045-0.301-1.555      c-0.066-1.021-0.014-2.002,0.143-3.001l0.157,0.422c-0.865-0.839-1.442-1.781-2.01-2.731c-0.553-0.955-1.062-1.927-1.543-2.91      C287.835,148.323,286.971,146.316,286.236,144.261z"/>
			</g>
			<g>
				<g>
					<g>
						<path style="fill:#FFFFFF;" d="M419.001,156.787c-7.165,4.096-17.935,4.781-25.397,1.162        c-1.594-0.775-3.054-1.772-4.335-3.024c-5.541-5.467-8.193-14.494-7.597-22.194c0-0.179,0.015-0.358,0.03-0.537        c0.745-7.76,5.765-14.434,12.84-17.606c8.282-3.709,20.213-4.23,27.05,2.592c2.696,2.696,4.707,6.301,5.929,10.278h0.015        C430.828,138.048,428.594,151.291,419.001,156.787z"/>
					</g>
					<g>
						<path style="fill:#AF312F;" d="M419.001,156.787c-4.054,2.307-8.716,3.369-13.357,3.583c-2.328,0.093-4.672-0.071-6.968-0.526        c-2.295-0.445-4.558-1.183-6.625-2.353c-2.074-1.163-3.849-2.839-5.288-4.715c-1.456-1.876-2.635-3.959-3.563-6.143        c-1.844-4.378-2.705-9.17-2.48-13.976l-0.003,0.073c0.293-5.718,2.854-11.071,6.98-14.915        c2.047-1.909,4.438-3.492,7.034-4.521c2.565-1.057,5.25-1.779,7.987-2.156c5.433-0.717,11.287-0.084,16.088,2.89        c2.404,1.46,4.348,3.563,5.824,5.857c1.499,2.302,2.578,4.834,3.324,7.44l-0.434-0.321l0.015,0l0.344,0.008l0.089,0.311        c0.765,2.675,1.171,5.44,1.228,8.204c0.047,2.763-0.237,5.529-0.905,8.2c-0.673,2.669-1.777,5.23-3.315,7.505        C423.436,153.502,421.393,155.44,419.001,156.787z M419.001,156.787c2.38-1.369,4.4-3.322,5.914-5.597        c1.533-2.272,2.533-4.866,3.135-7.521c0.607-2.66,0.787-5.407,0.605-8.119c-0.176-2.712-0.695-5.396-1.553-7.958l0.433,0.319        l-0.015,0l-0.324,0.007l-0.11-0.328c-0.835-2.493-1.985-4.881-3.501-6.995c-1.509-2.123-3.373-3.955-5.609-5.176        c-2.221-1.252-4.719-1.96-7.258-2.288c-2.544-0.33-5.148-0.257-7.694,0.151c-5.096,0.796-10.083,2.701-13.804,6.164        c-0.93,0.863-1.774,1.814-2.546,2.82c-0.735,1.031-1.434,2.095-1.995,3.234c-0.555,1.139-1.049,2.317-1.375,3.546        c-0.198,0.605-0.295,1.236-0.442,1.855c-0.078,0.607-0.215,1.3-0.237,1.827l-0.003,0.074        c-0.41,4.466,0.197,9.089,1.779,13.351c0.795,2.129,1.836,4.173,3.15,6.031c1.308,1.866,2.908,3.52,4.848,4.724        c3.895,2.413,8.627,3.342,13.238,3.279C410.266,160.127,414.926,159.033,419.001,156.787z"/>
					</g>
				</g>
				<g>
					<path style="fill:#AF312F;" d="M403.169,153.817c6.155,0.901,13.03-1.448,16.732-6.599c5.899-8.206,3.387-21.024-5.269-26.154       c-4.647-2.753-10.998-3.348-16.017-1.272c-13.413,5.55-12.354,26.006-0.29,32.466       C399.811,153.054,401.456,153.566,403.169,153.817z"/>
				</g>
				<g style="opacity:0.21;">
					<path style="fill:#AF312F;" d="M427.521,127.458c-27.095-12.84-43.823,3.173-45.849,5.273c0-0.179,0.015-0.358,0.03-0.537       c0.745-7.76,5.765-14.434,12.84-17.606c8.282-3.709,20.213-4.23,27.05,2.592C424.289,119.876,426.3,123.481,427.521,127.458z"/>
				</g>
			</g>
			<g>
				<g>
					<g>
						<path style="fill:#FFFFFF;" d="M333.44,136.081c-3.441,6.271-11.306,8.654-18.009,8.416c-0.923-0.045-1.832-0.164-2.711-0.372        c-10.636-2.488-16.892-16.892-12.944-26.991c0.387-1.043,0.908-2.041,1.534-2.979c5.511-8.192,19.617-11.291,27.84-5.511        c1.981,1.415,3.262,3.664,4.171,5.869c0.626,1.504,1.147,3.187,1.534,4.96C336.107,125.029,336.002,131.419,333.44,136.081z"/>
					</g>
					<g>
						<path style="fill:#AF312F;" d="M333.44,136.081c-0.627,1.092-1.361,2.127-2.246,3.029c-0.897,0.884-1.875,1.697-2.957,2.35        c-2.148,1.327-4.551,2.245-7.035,2.747c-1.241,0.259-2.5,0.446-3.77,0.526c-1.265,0.09-2.554,0.112-3.836-0.071        c-2.547-0.417-5.016-1.421-7.11-2.972c-4.225-3.087-7.032-7.839-8.294-12.904c-0.603-2.549-0.833-5.218-0.507-7.869        l0.371-1.971c0.166-0.647,0.389-1.28,0.585-1.92c0.416-1.271,1.052-2.509,1.813-3.619c3.153-4.48,8.155-7.126,13.265-8.136        c2.572-0.511,5.225-0.581,7.814-0.206c2.584,0.382,5.121,1.254,7.301,2.715c1.134,0.662,2.091,1.68,2.833,2.738        c0.751,1.073,1.325,2.237,1.803,3.423c0.962,2.372,1.53,4.865,1.902,7.366c0.364,2.505,0.453,5.051,0.183,7.562        C335.294,131.373,334.663,133.869,333.44,136.081z M333.44,136.081c2.37-4.504,2.499-9.829,1.617-14.722        c-0.459-2.465-1.194-4.88-2.247-7.132c-1.052-2.228-2.459-4.361-4.589-5.481c-4.21-2.471-9.42-2.673-14.085-1.556        c-2.354,0.549-4.617,1.474-6.653,2.725c-2.036,1.243-3.845,2.853-5.153,4.775c-0.671,0.958-1.215,1.979-1.594,3.098        c-0.175,0.563-0.383,1.118-0.537,1.688l-0.349,1.74c-0.334,2.352-0.237,4.786,0.247,7.15c0.937,4.71,3.279,9.332,7.079,12.429        c1.879,1.56,4.134,2.63,6.533,3.166c1.206,0.243,2.45,0.292,3.7,0.273c1.247-0.013,2.5-0.109,3.731-0.336        c2.463-0.423,4.888-1.222,7.049-2.51c1.085-0.637,2.067-1.436,2.972-2.307C332.056,138.19,332.8,137.166,333.44,136.081z"/>
					</g>
				</g>
				<g>
					<path style="fill:#AF312F;" d="M309.479,135.261c0.424,0.373,4.35,5.428,13.332,2.902c8.981-2.526,8.279-14.033,7.016-17.822       c-1.263-3.789-5.753-11.647-15.997-9.121C303.585,113.746,302.182,128.851,309.479,135.261z"/>
				</g>
				<g style="opacity:0.21;">
					<path style="fill:#AF312F;" d="M334.856,119.473c-11.842-7.21-27.184-4.514-35.079-2.339c0.387-1.043,0.908-2.041,1.534-2.979       c5.511-8.192,19.617-11.291,27.84-5.511c1.981,1.415,3.262,3.664,4.171,5.869C333.947,116.017,334.468,117.7,334.856,119.473z"/>
				</g>
			</g>
			<g>
				<path style="fill:#AF312F;" d="M477.532,97.546c-25.486,14.121-33.441-2.905-23.103-5.586      c6.926-1.802,13.346-5.496,17.577-7.999C474.642,88.192,476.49,92.72,477.532,97.546z"/>
			</g>
			<g>
				<path style="fill:#AF312F;" d="M479.484,119.115v0.105c-0.06,0.491-0.09,0.968-0.134,1.445      c-9.295,3.471-20.615,5.318-29.419,1.37c-3.322-1.489-6.137-4.781-4.93-8.103c0.492-1.326,1.594-2.458,2.92-3.277      c3.918-2.443,9.265-2.83,13.927-3.307c5.303-0.551,11.619-2.8,16.564-4.96C479.29,108.122,479.662,113.723,479.484,119.115z"/>
			</g>
			<g>
				<path style="fill:#AF312F;" d="M478.754,127.382c-0.924,6.301-2.726,12.259-5.482,17.8c-6.346,1.028-13.153-0.462-18.605-3.724      c-2.428-1.46-4.573-3.798-3.948-6.837c0.819-4.022,6.197-4.439,9.459-4.364C469.027,130.466,475.387,128.663,478.754,127.382z"/>
			</g>
			<g>
				<g>
					<path style="fill:#AF312F;" d="M280.639,151.698c3.953-1.345,7.981-2.352,12.027-3.278c4.054-0.892,8.127-1.7,12.276-2.168       c-3.952,1.347-7.98,2.355-12.027,3.278C288.861,150.419,284.788,151.227,280.639,151.698z"/>
				</g>
				<g>
					<path style="fill:#AF312F;" d="M278.671,141.531c4.017-0.361,8.027-0.378,12.034-0.311c4.007,0.102,8.012,0.291,12.01,0.827       c-4.017,0.364-8.027,0.38-12.034,0.311C286.673,142.253,282.668,142.065,278.671,141.531z"/>
				</g>
				<g>
					<path style="fill:#AF312F;" d="M281.832,129.07c3.767,1.442,7.375,3.19,10.945,5.013c3.554,1.854,7.068,3.784,10.422,6.023       c-3.767-1.439-7.376-3.188-10.944-5.013C288.702,133.237,285.188,131.306,281.832,129.07z"/>
				</g>
			</g>
			<g>
				<path style="fill:#FFFFFF;" d="M439.146,54.289c0,0-2.89-0.193-3.664-0.864c-0.79-0.67,3.664-0.774,3.664-0.774      c-2.219-0.953-4.036-3.56-3.277-3.605c0.775-0.06,3.366,1.877,3.366,1.877c-2.696-3.947-0.774-9.906,2.22-9.519      c1.281,0.164,2.666,3.009,3.828,6.197c-2.041,10.591,4.32,18.381,5.482,19.365c-4.737-4.305-10.487-7.329-15.178-9.28      C436.331,55.541,439.146,54.289,439.146,54.289z"/>
			</g>
			<g>
				<path style="fill:#FFFFFF;" d="M328.144,49.806c0.417-2.398,2.934-5.72,3.158-6.003c-0.194,0.074-2.249,0.953-3.203,0.417      c-0.998-0.566,2.428-1.922,2.428-1.922s-2.637,0.209-2.845-0.581c-0.223-0.774,2.458-0.566,2.458-0.566      c-1.892-1.147-5.318-6.286-2.964-7.641c1.534-0.879,3.575,0.745,4.826,1.996c1.698,4.93,4.186,8.923,10.71,11.201      C342.712,46.707,334.698,48.316,328.144,49.806z"/>
			</g>
			<g>
				<g>
					<path style="fill:#AF312F;" d="M359.825,129.064c0,0-3.517-5.093-5.578-4.366c-2.062,0.728,3.225,8.436,5.407,9.285       c2.183,0.849,7.689-6.496,6.598-8.072C365.161,124.334,359.825,129.064,359.825,129.064z"/>
				</g>
				<g>
					<path style="fill:#AF312F;" d="M364.635,161.228c-0.563-2.303-1.044-4.622-1.556-6.936l-1.384-6.971       c-0.465-2.324-0.835-4.665-1.225-7.005c-0.365-2.348-0.752-4.677-0.95-7.088l1.1,0.153c-1.538,4.314-2.911,8.698-4.258,13.08       c-0.669,2.193-1.318,4.394-1.895,6.614c-0.612,2.212-1.141,4.443-1.602,6.698c0.21-2.293,0.633-4.562,1.066-6.825       c0.466-2.257,1.027-4.492,1.597-6.723c0.559-2.236,1.238-4.437,1.906-6.64c0.678-2.202,1.375-4.392,2.117-6.58l0.891-2.627       l0.209,2.781c0.174,2.31,0.511,4.665,0.845,6.999l1.066,7.014l1.07,7.02L364.635,161.228z"/>
				</g>
				<g style="opacity:0.48;">
					<path style="fill:#AF312F;" d="M349.685,133.921c-3.801,0.576-7.563,2.608-9.984,6.042c-3.509,4.978-4.612,11.482-1.007,16.531       c2.238,3.134,5.584,5.004,8.997,6.247c6.54,2.381,13.204,4.285,20.199,2.916c2.537-0.497,5.07-1.379,7.232-3.016       c3.313-2.509,5.551-6.792,5.867-11.226c0.316-4.435-1.298-8.918-4.231-11.752c-3.607-3.487-9.29-4.949-14.009-5.262       C358.545,134.122,353.864,133.288,349.685,133.921z"/>
				</g>
			</g>
			<g>
				<g>
					<path style="fill:#AF312F;" d="M445.275,157.834c-3.998,0.533-8.003,0.722-12.009,0.827c-4.008,0.07-8.017,0.054-12.034-0.311       c3.998-0.536,8.003-0.725,12.01-0.827C437.249,157.456,441.258,157.472,445.275,157.834z"/>
				</g>
				<g>
					<path style="fill:#AF312F;" d="M442.114,145.372c-3.356,2.237-6.87,4.168-10.423,6.023c-3.568,1.825-7.177,3.574-10.944,5.013       c3.354-2.239,6.869-4.17,10.422-6.023C434.739,148.562,438.347,146.814,442.114,145.372z"/>
				</g>
			</g>
			<g>
				<path style="fill:#FFC893;" d="M389.989,252.773c-3.207,46.335-18.287,93.551-18.287,93.551s-52.554,17.998-92.689-18.775      c-19.494-17.861-20.058-56.033-15.471-90.57c0,0,0,0,0-0.019l0.019-0.019c0.389-1.963,14.13-67.403,68.316-61.164      C376.056,180.85,389.989,231.754,389.989,252.773z"/>
			</g>
			<g>
				<g>
					<path style="fill:#FF9D3D;" d="M425.509,371.078c-22.763,21.676-58.63,0-58.63,0c-27.932,28.308-53.997,24.153-55.648,6.154       c-0.261-2.664,0.043-5.647,0.942-8.876c6.994-24.92,8.731-85.085,11.96-91.181c0-0.014,0.015-0.014,0.015-0.029       c3.229-6.096,14.436-9.282,22.285,4.691c8.268,14.683,4.662,42.485,4.431,44.164c15.32-59.557,44.309-83.376,62.293-84.144       c18.013-0.767,27.527,35.318,27.527,35.318S448.272,349.387,425.509,371.078z"/>
				</g>
				<g style="opacity:0.48;">
					<path style="fill:#AF312F;" d="M350.636,326.604c1.112,1.054,2.133,2.2,3.1,3.398c0.971,1.198,1.844,2.482,2.508,3.935       c0.281,0.751,0.618,1.514,0.525,2.469c-0.142,0.991-0.705,1.798-1.618,2.24c-0.922,0.388-1.888,0.272-2.683,0.024       c-0.818-0.261-1.528-0.617-2.243-1.101l1.048-0.831c1.237,2.961,2.391,5.925,2.988,9.167c0.105,0.833,0.266,1.641,0.048,2.629       c-0.178,0.514-0.364,1.093-1.124,1.379c-0.791,0.231-1.355-0.211-1.693-0.488c-1.314-1.293-1.915-2.759-2.601-4.244l0.947-0.15       c-0.277,1.693-0.626,3.337-1.133,4.954c-0.502,1.612-1.082,3.202-1.838,4.703c0.498-1.605,0.938-3.213,1.245-4.852       c0.306-1.632,0.602-3.281,0.738-4.912l0.142-1.7l0.805,1.549c0.695,1.339,1.537,2.778,2.519,3.687       c0.252,0.209,0.466,0.243,0.446,0.213c-0.003,0.025,0.058-0.069,0.119-0.129l0.113-0.315c0.114-0.576-0.004-1.366-0.113-2.089       c-0.275-1.49-0.748-2.983-1.238-4.463c-0.492-1.48-1.048-2.958-1.642-4.394l-0.935-2.266l1.985,1.435       c1.075,0.778,2.582,1.46,3.616,1.063c0.488-0.171,0.942-0.743,1.031-1.251c0.118-0.584-0.103-1.311-0.314-1.985       c-0.509-1.37-1.304-2.668-2.099-3.953C352.468,329.048,351.561,327.823,350.636,326.604z"/>
				</g>
				<g style="opacity:0.48;">
					<path style="fill:#AF312F;" d="M366.874,371.072c1.532-2.842,3.223-5.498,4.857-8.193l2.434-4.044l2.356-4.145       c-0.486,3.215-1.911,6.197-3.556,8.944c-0.855,1.361-1.764,2.688-2.778,3.935C369.181,368.818,368.104,370.016,366.874,371.072       z"/>
				</g>
				<g style="opacity:0.48;">
					<path style="fill:#AF312F;" d="M439.792,317.516c0.491-2.683,0.954-5.364,1.313-8.061c0.4-2.689,0.743-5.385,1.005-8.087       c0.544-5.398,0.904-10.817,0.776-16.225c-0.032-2.702-0.155-5.403-0.439-8.087c-0.29-2.684-0.78-5.334-1.373-7.96       c-0.612-2.623-1.501-5.178-2.668-7.603c-1.131-2.446-2.63-4.723-4.462-6.748c2.066,1.793,3.724,4.035,5.093,6.421       c1.324,2.416,2.356,4.994,3.114,7.643c1.511,5.313,2.037,10.833,2.181,16.312c0.009,5.487-0.336,10.967-1.122,16.381       C442.422,306.913,441.36,312.286,439.792,317.516z"/>
				</g>
				<g style="opacity:0.2;">
					<path style="fill:#AF312F;" d="M342.002,335.601c-8.529,33.159-14.089,49.624-30.771,41.63       c-0.261-2.664,0.043-5.647,0.942-8.876c6.994-24.92,8.731-85.085,11.96-91.181c0-0.014,0.015-0.014,0.015-0.029       c2.838-1.303,6.733-2.114,10.729,0.145C342.639,281.663,350.705,301.776,342.002,335.601z"/>
				</g>
				<g>
					<g>
						<path style="fill:#FFC893;" d="M326.728,306.036c-0.766,1.593-0.972,3.389-1.154,5.148        c-1.231,11.884-1.867,23.853-4.021,35.605c-0.871,4.75-1.987,9.453-2.82,14.21c-0.199,1.137-0.339,2.443,0.411,3.321        c0.606,0.71,1.664,0.91,2.57,0.683c0.906-0.226,1.681-0.811,2.352-1.461c1.672-1.617,2.844-3.683,3.783-5.811        c1.11-2.513,1.924-5.145,2.722-7.773c3.476-11.447,6.715-23.117,7.069-35.076c0.109-3.678-0.353-8.316-3.148-11.076        C332.016,301.362,328.041,303.305,326.728,306.036z"/>
					</g>
					<g>
						<path style="fill:#FFC893;" d="M334.297,296.274c0.096,0.727,0.336,1.466,0.86,1.978c0.447,0.437,1.052,0.664,1.638,0.881        c0.956,0.353,2.062,0.697,2.951,0.198c2.117-1.187,1.382-5.703-0.3-6.98C336.704,290.271,333.932,293.511,334.297,296.274z"/>
					</g>
					<g>
						<path style="fill:#FFC893;" d="M328.121,286.335c0.04,1.018,0.236,2.072,0.843,2.89c0.953,1.287,2.812,1.713,4.329,1.198        c1.517-0.514,2.673-1.833,3.253-3.326c0.393-1.011,0.54-2.176,0.103-3.169c-0.674-1.531-3.241-3.07-4.916-2.897        C329.06,281.309,328.028,284.01,328.121,286.335z"/>
					</g>
					<g>
						<path style="fill:#FFC893;" d="M323.962,296.572c0.248,0.222,0.574,0.339,0.9,0.405c2.575,0.515,6.066-3.193,2.828-4.646        C325.409,291.308,321.807,294.637,323.962,296.572z"/>
					</g>
				</g>
			</g>
			<g>
				<path style="fill:#AF312F;" d="M386.872,104.253c-0.481,0.869-0.512,2.072,0.2,2.765c0.44,0.429,1.07,0.588,1.674,0.701      c2.175,0.405,4.425,0.407,6.602,0.008c1.297-0.238,2.662-0.681,3.444-1.743c1.777-2.414,0.781-8.166-2.907-7.828      C393.137,98.409,388.166,101.913,386.872,104.253z"/>
			</g>
			<g>
				<path style="fill:#AF312F;" d="M325.035,92.011c-0.964-0.24-2.134,0.04-2.62,0.906c-0.3,0.535-0.292,1.186-0.245,1.798      c0.17,2.206,0.748,4.381,1.696,6.381c0.564,1.192,1.345,2.397,2.572,2.878c2.791,1.094,8.092-1.353,6.813-4.829      C332.299,96.556,327.629,92.658,325.035,92.011z"/>
			</g>
			<g>
				<g>
					<path style="fill:#FF9D3D;" d="M290.384,153.795c-0.019,0.078-0.058,0.156-0.078,0.233l-8.727,22.254l-17.006,43.419       c0,0-24.217,12.186-34.615-6.394c-0.913-1.652-1.574-3.499-1.963-5.52c-1.107-5.539-0.311-12.322,1.846-19.397       c1.982-6.608,5.151-13.488,9.038-19.863c3.46-5.694,7.483-11,11.758-15.373c4.898-4.995,10.107-8.785,15.16-10.534       c0,0-6.53-19.824,9.018-28.376c4.062-0.019,7.23,1.089,9.698,2.974c3.012,2.274,4.975,5.714,6.18,9.601c0,0,0,0.039,0.02,0.116       C293.746,136.828,291.919,149.558,290.384,153.795z"/>
				</g>
				<g style="opacity:0.2;">
					<path style="fill:#AF312F;" d="M290.384,153.795c-0.019,0.078-0.058,0.156-0.078,0.233l-8.727,22.254l-17.006,43.419       c0,0-24.217,12.186-34.615-6.394c-0.913-1.652-1.574-3.499-1.963-5.52c-1.107-5.539-0.311-12.322,1.846-19.397       c1.982-6.608,5.151-13.488,9.038-19.863c3.46-5.694,7.483-11,11.758-15.373c4.898-4.995,10.107-8.785,15.16-10.534       c0,0-6.53-19.824,9.018-28.376c4.062-0.019,7.23,1.089,9.698,2.974c3.012,2.274,4.975,5.714,6.18,9.601c0,0,0,0.039,0.02,0.116       C293.746,136.828,291.919,149.558,290.384,153.795z"/>
				</g>
				<g style="opacity:0.48;">
					<g>
						<path style="fill:#AF312F;" d="M290.692,126.824c1.727,7.205,2.014,14.73,1.348,22.159c-0.673,7.432-2.736,14.808-6.034,21.54        c-3.342,6.695-7.41,12.957-11.97,18.805c-4.526,5.872-9.417,11.451-14.77,16.555c2.316-2.88,4.621-5.754,6.811-8.716        c2.245-2.915,4.425-5.878,6.498-8.909c4.164-6.041,8.106-12.235,11.302-18.771c3.231-6.507,5.264-13.512,6.347-20.725        c0.54-3.604,0.829-7.257,0.88-10.92C291.23,134.175,291.071,130.498,290.692,126.824z"/>
					</g>
				</g>
				<g>
					<path style="fill:#AF312F;" d="M284.524,117.224c-2.26,2.253-4.246,4.354-5.883,6.754c-0.844,1.172-1.588,2.414-2.26,3.721       c-0.716,1.299-1.252,2.687-1.981,4.145c-0.251-1.582-0.195-3.239,0.252-4.802c0.376-1.591,1.13-3.075,2.05-4.424       c0.95-1.331,2.09-2.528,3.424-3.453C281.44,118.231,282.921,117.494,284.524,117.224z"/>
				</g>
				<g style="opacity:0.48;">
					<g>
						<path style="fill:#AF312F;" d="M265.79,142.61c2.522,1.376,4.757,2.618,7.159,3.569c1.18,0.508,2.395,0.923,3.649,1.296        c1.256,0.409,2.555,0.664,3.958,1.105c-1.336,0.546-2.801,0.812-4.252,0.722c-1.463-0.025-2.902-0.395-4.258-0.932        c-1.344-0.571-2.613-1.321-3.686-2.3C267.284,145.111,266.342,143.969,265.79,142.61z"/>
					</g>
				</g>
			</g>
			<g style="opacity:0.48;">
				<g>
					<path style="fill:#AF312F;" d="M360.086,175.088c5.632,0.036,11.12,0.357,16.62,0.463c2.746,0.066,5.485,0.058,8.232,0.021       c2.745-0.089,5.478-0.248,8.296-0.484c-5.174,2.354-10.98,2.905-16.579,2.832c-2.815-0.091-5.621-0.325-8.393-0.788       C365.492,176.678,362.741,176.064,360.086,175.088z"/>
				</g>
			</g>
			<g>
				<path style="fill:#FF9D3D;" d="M459.117,162.982c0,0,14.85,38.372,11.806,54.67c-3.043,16.299-20.235,42.992-62.639,35.136      c0,0-16.717-3.856-18.092-29.16c-1.375-25.304-4.758-49.272,13.141-57.275c17.899-8.004,34.55-6.789,39.422,2.586      C442.754,168.94,453.038,161.315,459.117,162.982z"/>
			</g>
			<g style="opacity:0.48;">
				<g>
					<path style="fill:#AF312F;" d="M431.155,183.091c2.257,1.983,4.185,4.297,5.932,6.728c1.756,2.432,3.26,5.043,4.584,7.749       c1.264,2.736,2.297,5.592,2.974,8.54c0.644,2.954,0.887,6.015,0.54,8.991c-0.642-2.938-1.377-5.737-2.32-8.487       c-1.006-2.725-2.082-5.411-3.336-8.032C437.039,193.322,434.134,188.271,431.155,183.091z"/>
				</g>
			</g>
			<g>
				<path style="fill:#AF312F;" d="M416.409,171.359c2.571-1.171,4.81-2.333,6.155-4.149c0.669-0.888,1.208-1.908,1.475-3.113      c0.21-0.581,0.225-1.226,0.389-1.87c0.094-0.655,0.129-1.326,0.292-2.049c0.352,0.615,0.633,1.277,0.869,1.964      c0.113,0.703,0.356,1.424,0.287,2.175c0.086,1.506-0.511,3.07-1.433,4.336c-0.975,1.249-2.325,2.136-3.744,2.56      C419.287,171.645,417.803,171.748,416.409,171.359z"/>
			</g>
			<g>
				<path style="fill:#AF312F;" d="M433.253,176.759c-0.074,0.02-0.123,0.094-0.268,0.038c-0.125-0.209,0.021-0.284,0.027-0.361      c0.082-0.149,0.168-0.271,0.253-0.4l0.53-0.711l1.08-1.293c0.701-0.847,1.425-1.626,2.077-2.453      c1.381-1.616,2.527-3.261,3.97-5.227c0.399,2.442-0.626,4.897-2.149,6.742c-0.788,0.917-1.689,1.723-2.707,2.343      c-0.499,0.32-1.037,0.58-1.577,0.814l-0.828,0.304l-0.402,0.137c-0.076,0.015-0.096,0.063-0.147-0.02      C433.083,176.691,433.191,176.738,433.253,176.759z"/>
			</g>
			<g style="opacity:0.48;">
				<g>
					<path style="fill:#AF312F;" d="M411.265,244.62c-8.941,2.202-17.082,6.381-23.911,12.226c-3.437,2.892-6.513,6.196-9.399,9.679       c-2.906,3.482-5.4,7.294-7.984,11.118c1.762-4.242,3.771-8.461,6.506-12.23c2.66-3.812,5.788-7.327,9.347-10.376       C392.939,248.993,402.011,244.952,411.265,244.62z"/>
				</g>
			</g>
			<g>
				<path style="fill:#AF312F;" d="M477.004,269.029c-3.129,0.719-6.394,0.874-9.62,0.777c-2.624-0.097-5.228-0.35-7.813-0.777      c-2.079-0.331-4.392-0.972-5.345-2.837c-1.166-2.274,0.389-5.053,2.352-6.686c3.965-3.304,9.329-4.14,14.207-5.792      c1.671-0.564,3.576-1.652,5.597-2.702C476.732,256.998,476.927,263.023,477.004,269.029z"/>
			</g>
			<g>
				<path style="fill:#AF312F;" d="M476.655,293.265c-0.486,7.483-1.593,14.343-3.207,20.602c-3.829-1.438-7.464-3.887-10.417-6.278      c-5.19-4.179-11.059-11.681-1.671-14.907c4.606-1.574,9.582-0.059,14.227,0.486      C475.936,293.207,476.285,293.246,476.655,293.265z"/>
			</g>
			<g>
				<path style="fill:#AF312F;" d="M467.617,330.426c-3.071,6.589-6.705,12.322-10.651,17.317      c-6.045-2.566-11.098-7.502-11.506-14.266c-0.155-2.449,1.38-4.47,3.615-5.403c3.712-1.555,8.941-0.855,13.411,0.447      c1.769,0.525,3.421,1.147,4.82,1.749C467.403,330.309,467.5,330.368,467.617,330.426z"/>
			</g>
			<g>
				<path style="fill:#AF312F;" d="M443.089,361.717c-5.87,4.762-11.758,8.318-16.948,10.942c0,0,0-0.019-0.019,0      c-0.622-0.427-1.244-0.855-1.866-1.302c-7.599-5.422-14.674-13.197-14.79-22.506c-0.039-3.907,1.632-8.279,5.306-9.582      c3.595-1.263,7.56,0.913,9.99,3.829c2.449,2.896,3.906,6.511,6.2,9.543c2.721,3.576,6.453,6.161,10.379,8.28      C441.884,361.212,442.467,361.465,443.089,361.717z"/>
			</g>
			<g>
				<path style="fill:#AF312F;" d="M256.565,179.314c-1.38,0.35-2.837-0.02-4.178-0.486c-5.442-1.924-10.165-5.636-13.508-10.301      c3.46-5.694,7.483-11,11.758-15.373c0.525,2.274,0.778,4.723,1.691,6.88c1.011,2.391,2.818,4.315,4.451,6.336      c1.632,2.002,3.149,4.256,3.421,6.841C260.472,175.777,259.073,178.692,256.565,179.314z"/>
			</g>
			<g>
				<path style="fill:#AF312F;" d="M245.098,199.819c0.175,1.827-0.797,3.634-2.196,4.82c-1.4,1.205-3.188,1.866-4.956,2.332      c-3.227,0.875-6.647,1.205-9.951,0.816c-1.107-5.539-0.311-12.322,1.846-19.397c2.313,1.885,4.878,3.479,7.58,4.684      c1.633,0.758,3.323,1.38,4.801,2.41C243.68,196.515,244.923,198.031,245.098,199.819z"/>
			</g>
			<g>
				<path style="fill:#AF312F;" d="M423.77,205.688c-0.972,2.41-2.896,4.334-4.956,5.908c-6.083,4.645-13.683,6.802-21.224,8.124      c-2.215-6.55-3.731-13.236-4.703-19.28c5.364-0.039,10.651-0.797,15.84-2.488c2.41-0.778,4.781-1.73,7.308-1.963      c2.507-0.233,5.267,0.389,6.9,2.313C424.625,200.285,424.742,203.278,423.77,205.688z"/>
			</g>
			<g>
				<path style="fill:#AF312F;" d="M428.046,244.696c-1.982,2.585-4.237,4.995-6.802,6.958c-4.975-2.449-9.154-6.161-12.672-10.632      c1.613-0.972,3.129-2.099,4.567-3.44c2.293-2.138,4.256-4.606,6.608-6.686c2.332-2.079,5.189-3.809,8.318-3.965      c0.991-0.058,2.021,0.058,2.877,0.583c1.322,0.836,1.885,2.468,2.021,4.023C433.449,236.319,430.981,240.886,428.046,244.696z"/>
			</g>
			<g style="opacity:0.48;">
				<g>
					<path style="fill:#AF312F;" d="M471.057,214.007c-1.385,10.535-4.749,21.12-11.462,29.682       c-3.368,4.215-7.661,7.836-12.737,9.96c-5.097,2.15-10.733,2.524-16.144,1.88c-5.452-0.692-10.711-2.855-15.115-6.144       c-4.428-3.273-8.023-7.499-10.964-12.056c-5.859-9.185-9.345-19.575-11.671-30.064c-1.114-5.27-1.899-10.6-2.353-15.971       c-0.208-2.689-0.357-5.381-0.304-8.108c0.037-1.373,0.078-2.717,0.356-4.187c0.432-1.458,0.825-2.722,1.503-3.991       c2.462-5.131,7.19-8.808,12.196-10.935c5.032-2.215,10.373-3.332,15.661-4.185c5.289-0.831,11.123-1.026,16.164,1.593       c2.496,1.27,4.612,3.232,6.133,5.534c1.476,2.28,2.858,4.815,2.877,7.733c0.024,1.431-0.441,2.928-1.377,4.061       c-0.974,1.126-2.198,1.789-3.406,2.419c-2.455,1.216-5.13,1.861-7.813,2.136c-5.397,0.536-10.835-0.787-15.535-3.292       c4.817,2.277,10.226,3.346,15.465,2.668c2.605-0.354,5.179-1.071,7.473-2.307c1.125-0.626,2.27-1.332,3.013-2.267       c0.732-0.961,1.076-2.17,1.017-3.404c-0.064-2.494-1.367-4.872-2.81-6.985c-1.464-2.119-3.425-3.853-5.716-4.96       c-4.606-2.289-10.077-2.046-15.178-1.131c-5.208,0.962-10.382,2.155-15.132,4.258c-4.739,2.06-8.932,5.429-11.095,10.013       c-0.59,1.083-0.971,2.399-1.301,3.485c-0.213,1.154-0.262,2.489-0.284,3.78c-0.033,2.61,0.129,5.251,0.35,7.88       c0.478,5.26,1.293,10.501,2.411,15.666c2.209,10.308,5.577,20.509,11.169,29.399c2.805,4.411,6.221,8.467,10.372,11.576       c4.142,3.099,9.018,5.22,14.147,5.989c5.127,0.714,10.521,0.464,15.328-1.464c4.839-1.903,9.03-5.292,12.406-9.311       c3.387-4.032,6.05-8.685,8.045-13.598C468.73,224.432,470.083,219.251,471.057,214.007z"/>
				</g>
			</g>
		</g>
		<g>
			<polygon style="fill:#FF5555;" points="335.559,188.579 337.977,194.856 349.443,197.625 356.784,190.108 348.403,174.188      346.172,174.779    "/>
		</g>
		<g>
			<path style="fill:#FF5555;" d="M338.387,194.856c0,0-12.618,26.938-17.063,50.446l17.305,17.915l17.596-19.923     c0,0-5.006-32.447-7.428-49.274L338.387,194.856z"/>
		</g>
		<g>
			<path style="fill:#FFFFFF;" d="M310.045,162.85c0,0,27.887,9.305,38.358,11.339l-14.576,17.277     C333.827,191.466,312.773,168.087,310.045,162.85z"/>
		</g>
		<g>
			<path style="fill:#FFFFFF;" d="M348.403,174.188l6.079,19.831c0,0,26.499-13.632,34.432-17.256     C388.913,176.763,362.849,175.397,348.403,174.188z"/>
		</g>
	</g>
	<g>
		<path style="fill:#6CE1C1;" d="M146.637,292.484c-1.894,1.227-3.464,0.924-4.798-0.91c-1.965-2.713-4.145-5.361-6.253-7.924    l-0.233-0.282c-0.056-0.042-0.27-0.134-0.395-0.123c-1.144,0.169-2.295,0.38-3.448,0.588c-1.854,0.338-3.772,0.685-5.696,0.87    c-0.964,0.09-1.09,0.257-1.37,1.155c-0.816,2.614-1.71,5.204-2.647,7.926l-1.499,4.38l-17.314-3.658l0.225-1.984    c0.052-0.472,0.091-0.838,0.14-1.199l0.343-2.604c0.338-2.583,0.676-5.165,1.066-7.741c0.06-0.396,0.065-0.428-0.47-0.792    c-1.456-0.988-2.879-2.026-4.301-3.065c-1.242-0.91-2.485-1.817-3.753-2.692c-0.105-0.049-0.451-0.065-0.582-0.014    c-1.563,0.738-3.107,1.53-4.651,2.322c-1.009,0.516-2.02,1.035-3.036,1.539c-2.208,1.095-3.422,1.697-4.875,0.859l-0.252-0.146    L74.9,266.392l-0.021-0.296c-0.096-1.38,0.835-2.079,2.375-3.236c2.542-1.905,5.117-3.836,7.612-5.845    c0.058-0.074,0.154-0.394,0.139-0.528c-0.22-1.394-0.479-2.783-0.738-4.174c-0.308-1.648-0.615-3.299-0.859-4.956    c-0.089-0.609-0.089-0.609-0.495-0.729c-2.859-0.838-5.699-1.736-8.524-2.627l-3.869-1.218l-0.029-0.838    c-0.137-3.935,1.924-13.042,3.615-15.975l0.392-0.681l4.035,0.491c2.802,0.336,5.636,0.674,8.457,1.095    c0.707,0.097,0.785,0.116,1.23-0.616c1.639-2.704,3.498-5.199,5.263-7.493c0.649-0.843,0.647-0.995,0.341-1.553    c-0.983-1.796-1.902-3.628-2.82-5.459c-0.659-1.313-1.317-2.625-2.001-3.926c-1.024-1.954,0.067-3.037,0.809-3.509l11.501-7.318    c1.163-0.743,2.232-0.472,3.177,0.801l0.909,1.151c1.876,2.352,3.754,4.706,5.547,7.121c0.435,0.586,0.631,0.694,1.512,0.484    c2.427-0.597,4.845-1.072,7.404-1.576l2.453-0.488l4.147-12.478l0.896,0.042c5.293,0.241,10.429,1.38,15.699,3.486l0.857,0.34    l-1.696,12.755l2.156,1.553c2.354,1.69,4.579,3.285,6.76,4.993c0.477,0.373,0.508,0.357,1.012,0.095    c1.767-0.931,3.55-1.829,5.332-2.727c1.353-0.683,2.705-1.363,4.05-2.06c0.53-0.278,1.958-1.021,3.209,0.428    c3.486,4.053,5.856,7.676,7.458,11.406c0.762,1.778-0.163,2.764-0.925,3.352c-1.288,0.993-2.57,2-3.851,3.007    c-1.558,1.225-3.116,2.449-4.689,3.653c-0.39,0.299-0.39,0.299-0.304,0.745c0.6,3.1,1.112,6.417,1.566,10.144    c0.02,0.153,0.044,0.225,0.053,0.248c-0.006-0.042,0.085,0.032,0.281,0.095c2.872,0.912,5.736,1.836,8.643,2.776l3.932,1.269    l-0.074,0.935c-0.463,5.804-1.604,10.853-3.489,15.441l-0.343,0.833l-13.36-1.604l-6.695,9.466l0.992,1.963    c1.049,2.07,2.17,4.283,3.264,6.507c0.169,0.345,0.321,0.634,0.45,0.88c1.135,2.167,0.776,2.755-1.258,4.329L146.637,292.484z     M154.937,284.488c0.357-0.275,0.722-0.558,0.919-0.738c-0.075-0.164-0.198-0.398-0.31-0.613    c-0.138-0.264-0.299-0.569-0.478-0.935c-1.09-2.218-2.206-4.422-3.251-6.482l-1.636-3.241l8.333-11.783l12.963,1.558    c1.516-3.924,2.449-8.088,2.905-12.961l-2.142-0.692c-2.903-0.938-5.765-1.861-8.631-2.771c-0.867-0.275-1.781-0.764-1.97-2.315    c-0.448-3.672-0.953-6.936-1.541-9.982c-0.259-1.343,0.086-2.234,1.191-3.077c1.563-1.197,3.114-2.417,4.665-3.634    c1.286-1.012,2.573-2.021,3.867-3.021c0.205-0.157,0.272-0.241,0.292-0.271c-0.009-0.007-0.023-0.097-0.097-0.269    c-1.504-3.5-3.753-6.931-7.076-10.795c0.045-0.037-0.032-0.019-0.322,0.13c-1.354,0.701-2.713,1.387-4.073,2.072    c-1.77,0.891-3.541,1.785-5.295,2.708c-1.343,0.706-2.381,0.613-3.578-0.326c-2.141-1.676-4.345-3.259-6.68-4.933l-3.312-2.389    l1.639-12.32c-4.423-1.678-8.751-2.644-13.177-2.935l-4.012,12.07l-3.81,0.764c-2.533,0.498-4.924,0.97-7.299,1.551    c-1.756,0.435-2.945,0.021-3.978-1.373c-1.778-2.391-3.638-4.725-5.497-7.056l-0.96-1.215c-0.031-0.042-0.068-0.093-0.105-0.139    l-11.395,7.243c-0.132,0.03-0.126,0.134,0.017,0.407c0.69,1.313,1.354,2.639,2.02,3.965c0.906,1.806,1.811,3.611,2.78,5.382    c1.014,1.852,0.252,3.107-0.542,4.137c-1.722,2.241-3.535,4.674-5.115,7.278c-0.92,1.516-1.898,1.991-3.606,1.729    c-2.799-0.414-5.609-0.75-8.389-1.083l-2.436-0.296c-1.307,2.919-2.812,9.644-2.95,13.198l2.239,0.706    c2.808,0.887,5.633,1.778,8.476,2.614c1.546,0.451,1.987,1.389,2.174,2.658c0.24,1.627,0.543,3.248,0.845,4.868    c0.263,1.41,0.527,2.822,0.75,4.239c0.133,0.847-0.201,2.104-0.995,2.743c-2.526,2.033-5.117,3.977-7.624,5.857    c-0.58,0.435-1.141,0.857-1.383,1.107l7.132,11.318c0.326,0.056,0.942-0.25,2.435-0.991l0,0c1.007-0.498,2.007-1.012,3.007-1.523    c1.568-0.806,3.136-1.609,4.727-2.359c0.858-0.405,2.173-0.315,2.932,0.208c1.287,0.887,2.548,1.808,3.808,2.729    c1.399,1.023,2.8,2.046,4.234,3.019c0.92,0.627,1.735,1.435,1.48,3.109c-0.387,2.558-0.722,5.125-1.058,7.693l-0.344,2.609    c-0.041,0.306-0.075,0.616-0.117,0.995l13.151,2.778l0.823-2.398c0.931-2.699,1.816-5.267,2.625-7.859    c0.479-1.537,1.243-2.604,3.409-2.81c1.823-0.174,3.691-0.514,5.497-0.84c1.178-0.215,2.355-0.428,3.537-0.602    c0.885-0.134,2.008,0.289,2.56,0.963l0.232,0.282c2.131,2.588,4.334,5.264,6.342,8.038c0.615,0.845,0.804,0.822,1.595,0.308    L154.937,284.488z M123.733,261.72c-5.604,0.002-11.065-2.753-14.236-7.783h0.001c-2.367-3.755-3.123-8.216-2.13-12.561    c1.01-4.426,3.702-8.2,7.579-10.626c7.924-4.963,18.387-2.648,23.312,5.169c2.366,3.755,3.122,8.216,2.129,12.563    c-1.01,4.424-3.702,8.197-7.578,10.623C129.984,260.875,126.836,261.72,123.733,261.72z M124.027,230.508    c-2.674,0-5.386,0.727-7.822,2.252c-3.338,2.09-5.655,5.336-6.526,9.144c-0.851,3.727-0.204,7.551,1.824,10.769l0,0    c4.232,6.716,13.228,8.697,20.049,4.424c3.339-2.09,5.657-5.336,6.526-9.144c0.852-3.727,0.204-7.551-1.823-10.769    C133.533,232.869,128.843,230.508,124.027,230.508z"/>
	</g>
	<g>
		<path style="fill:#6CE1C1;" d="M197.529,217.212c1.271-0.091,1.062,0.001,1.226-1.178c0.199-1.436,0.374-2.876,0.535-4.125    c1.693-0.65,3.276-1.258,4.911-1.885c1.302,1.142,2.663,2.337,4.032,3.539c1.78-1.2,3.235-2.668,4.55-4.334    c-1.031-1.335-2.032-2.639-3.044-3.935c-0.181-0.233-0.243-0.397-0.083-0.713c0.626-1.236,1.221-2.489,1.76-3.764    c0.156-0.368,0.329-0.455,0.681-0.477c1.452-0.089,2.902-0.213,4.354-0.308c0.361-0.024,0.55-0.129,0.627-0.531    c0.344-1.804,0.295-3.608,0.09-5.419c-0.04-0.358-0.252-0.417-0.555-0.453c-1.404-0.165-2.804-0.363-4.208-0.518    c-0.405-0.045-0.582-0.167-0.718-0.595c-0.467-1.478-1.02-2.928-1.583-4.505c1.039-1.183,2.218-2.526,3.396-3.869    c-1.215-1.817-2.626-3.358-4.336-4.646c-1.451,1.132-2.862,2.233-4.141,3.23c-1.394-0.584-2.676-1.16-3.991-1.651    c-0.497-0.185-0.683-0.418-0.705-0.94c-0.058-1.39-0.17-2.779-0.274-4.167c-0.02-0.275,0.03-0.631-0.42-0.642    c-1.831-0.048-3.661-0.097-5.492-0.144c-0.389-0.01-0.532,0.19-0.575,0.573c-0.159,1.425-0.381,2.844-0.517,4.271    c-0.052,0.55-0.325,0.706-0.791,0.863c-1.152,0.389-2.302,0.804-3.403,1.318c-0.474,0.221-0.706,0.184-1.071-0.154    c-1.172-1.088-2.386-2.13-3.559-3.168c-1.162,0.576-3.836,3.135-4.626,4.408c1.005,1.278,2.008,2.581,3.046,3.855    c0.26,0.319,0.229,0.526,0.062,0.878c-0.541,1.137-1.002,2.311-1.533,3.454c-0.089,0.192-0.357,0.407-0.559,0.424    c-1.281,0.111-2.567,0.178-3.852,0.244c-0.718,0.037-1.008,0.05-1.16,0.314l-0.197,5.837c0.18,0.378,0.525,0.428,1.454,0.554    c1.149,0.155,2.304,0.269,3.449,0.447c0.209,0.032,0.484,0.244,0.559,0.439c0.482,1.254,0.891,2.535,1.381,3.785    c0.143,0.364,0.154,0.586-0.116,0.883c-0.951,1.045-1.873,2.115-2.805,3.176c-0.151,0.172-0.296,0.349-0.553,0.654    c1.448,1.52,2.881,3.023,4.349,4.564c1.359-1.045,2.61-1.976,3.82-2.956c0.427-0.345,0.716-0.419,1.246-0.127    c1.082,0.597,2.247,1.043,3.362,1.584c0.171,0.083,0.35,0.333,0.367,0.519c0.13,1.427,0.263,2.857,0.307,4.288    c0.021,0.687,0.298,0.925,0.929,0.937L197.529,217.212z M186.874,195.909c0.176-5.217,4.548-9.304,9.765-9.129l0,0    c5.217,0.176,9.304,4.548,9.128,9.765l0,0c-0.176,5.217-4.548,9.304-9.765,9.128l0,0    C190.785,205.498,186.698,201.126,186.874,195.909L186.874,195.909z"/>
	</g>
</g>















</svg>
