<?xml version="1.0" encoding="UTF-8"?>
<!-- Generator: Adobe Illustrator 25.2.3, SVG Export Plug-In . SVG Version: 6.00 Build 0)  -->
<svg xmlns="http://www.w3.org/2000/svg" xmlns:xlink="http://www.w3.org/1999/xlink" version="1.1" id="Capa_1" x="0px" y="0px" viewBox="0 0 512 512" style="enable-background:new 0 0 512 512;" xml:space="preserve" width="512" height="512">
<g>
	<g>
		<path style="fill:#9CF0E7;" d="M74.79,423.325c68.132,50.919,168.324,61.843,247.646,33.967    c43.704-15.358,83.556-41.66,113.876-76.787c37.92-43.932,60.581-102.813,71.356-159.401    c10.659-55.981,3.45-112.624-42.014-151.312C420.743,31.573,365.241,29.808,317.9,64.517    c-36.455,26.728-71.917,79.191-122.087,77.254c-51.144-1.975-106.806,9.601-147.324,42.447    C6.379,218.353-9.862,274.753,5.941,326.478C18.46,367.453,43.173,399.695,74.79,423.325z"/>
	</g>
	<g>
		<path style="fill:#6CE1C1;" d="M381.686,86.893c-3.56-1.902-3.466-1.691-5.873,1.897c-2.931,4.372-5.789,8.793-8.298,12.612    c-6.56-0.569-12.69-1.1-19.021-1.649c-2.434-5.797-4.978-11.856-7.537-17.954c-7.715,1.09-14.794,3.569-21.734,6.918    c1.244,5.994,2.442,11.84,3.682,17.679c0.222,1.048,0.163,1.683-0.86,2.459c-4.005,3.038-7.939,6.183-11.725,9.488    c-1.091,0.953-1.798,0.962-2.98,0.474c-4.881-2.014-9.81-3.915-14.7-5.91c-1.215-0.495-1.999-0.453-2.889,0.738    c-3.988,5.342-6.693,11.306-8.902,17.541c-0.437,1.234,0.159,1.763,1.092,2.361c4.32,2.767,8.573,5.638,12.911,8.375    c1.25,0.789,1.635,1.472,1.397,3.082c-0.822,5.564-1.32,11.174-1.991,17.218c-5.27,2.212-11.25,4.723-17.228,7.233    c1.079,7.861,3.237,15.13,6.77,22.049c6.534-1.389,12.89-2.739,18.646-3.963c3.623,4.121,6.892,8.038,10.402,11.726    c1.326,1.394,1.567,2.45,0.808,4.189c-2.02,4.63-3.86,9.339-5.725,14.035c-0.369,0.928-1.099,2.01,0.351,2.763    c5.898,3.063,11.794,6.133,17.693,9.195c1.254,0.651,2.04,0.225,2.788-0.957c2.784-4.398,5.762-8.675,8.47-13.118    c1.045-1.714,2.181-1.787,3.954-1.561c4.378,0.559,8.792,1.033,13.198,1.104c1.899,0.03,2.598,0.52,3.251,2.205    c2.096,5.412,4.405,10.742,6.585,15.992c4.706-0.033,17.5-4.136,22.101-7.039c-1.249-5.767-2.452-11.613-3.817-17.421    c-0.341-1.453,0.086-2.081,1.193-2.964c3.572-2.85,6.943-5.951,10.488-8.838c0.596-0.485,1.812-0.759,2.498-0.496    c4.358,1.673,8.66,3.497,12.958,5.321c2.403,1.02,3.37,1.441,4.285,0.818l9.914-18.738c0.013-1.52-1.033-2.23-3.867-4.116    c-3.504-2.331-7.091-4.538-10.546-6.937c-0.631-0.438-1.193-1.567-1.128-2.32c0.42-4.856,1.118-9.688,1.505-14.546    c0.112-1.414,0.428-2.156,1.78-2.696c4.763-1.899,9.474-3.927,14.202-5.911c0.767-0.322,1.522-0.67,2.844-1.255    c-2.313-7.262-4.6-14.443-6.945-21.804c-6.096,1.253-11.655,2.301-17.163,3.577c-1.941,0.45-3.003,0.231-4.267-1.564    c-2.583-3.668-5.677-6.973-8.455-10.51c-0.427-0.542-0.615-1.641-0.374-2.279c1.842-4.865,3.678-9.741,5.811-14.482    c1.023-2.275,0.498-3.492-1.542-4.533L381.686,86.893z M382.621,173.344c-8.861,16.748-29.622,23.142-46.37,14.281h0    c-16.748-8.861-23.142-29.622-14.281-46.37l0,0c8.861-16.748,29.622-23.142,46.37-14.281l0,0    C385.088,135.835,391.482,156.596,382.621,173.344L382.621,173.344z"/>
	</g>
	<g>
		<g>
			<g>
				<g>
					<path style="fill:#FF9D3D;" d="M446.553,400.629c-2.883,1.872-5.947,3.486-9.122,4.882       c-10.143,4.509-21.533,6.905-32.648,8.997c-5.025,0.956-10.008,1.84-14.79,2.83c-10.283,2.144-20.617,4.654-30.453,8.288       c-8.278,3.041-16.217,6.89-23.441,11.971c-13.396,9.421-36.562,4.249-26.197-14.988c0.754-1.419,1.706-2.919,2.853-4.486       c6.913-9.489,17.718-15.321,30.685-19.24c9.679-2.942,20.558-4.786,31.964-6.279c10.218-1.33,20.834-2.387,31.368-3.643       c16.964-2.034,31.352-10.759,41.178-23.7c4.057-5.33,7.327-11.374,9.69-17.947c1.463-4.086,2.557-8.208,3.243-12.293       l0.002-0.015c3.385-19.994-2.736-39.322-20.6-51.533c-7.042-4.82-14.886-8.446-22.937-11.246       c-1.201-0.414-9.89-1.965-10.379-3.042c-9.611-20.833,7.85-20.607,7.85-20.607c15.108,3.102,29.957,8.887,42.053,18.192       c6.832,5.227,12.792,11.592,17.443,19.237c2.015,3.306,3.751,6.73,5.193,10.252C494.633,332.811,479.865,379,446.553,400.629z"/>
				</g>
				<g style="opacity:0.2;">
					<path style="fill:#AF312F;" d="M446.553,400.629c-2.883,1.872-5.947,3.486-9.122,4.882       c-10.143,4.509-21.533,6.905-32.648,8.997c-5.025,0.956-10.008,1.84-14.79,2.83c-10.283,2.144-20.617,4.654-30.453,8.288       c-8.278,3.041-16.217,6.89-23.441,11.971c-13.396,9.421-36.562,4.249-26.197-14.988c0.754-1.419,1.706-2.919,2.853-4.486       c6.913-9.489,17.718-15.321,30.685-19.24c9.679-2.942,20.558-4.786,31.964-6.279c10.218-1.33,20.834-2.387,31.368-3.643       c16.964-2.034,31.352-10.759,41.178-23.7c4.057-5.33,7.327-11.374,9.69-17.947c1.463-4.086,2.557-8.208,3.243-12.293       l0.002-0.015c3.385-19.994-2.736-39.322-20.6-51.533c-7.042-4.82-14.886-8.446-22.937-11.246       c-1.201-0.414-9.89-1.965-10.379-3.042c-9.611-20.833,7.85-20.607,7.85-20.607c15.108,3.102,29.957,8.887,42.053,18.192       c6.832,5.227,12.792,11.592,17.443,19.237c2.015,3.306,3.751,6.73,5.193,10.252C494.633,332.811,479.865,379,446.553,400.629z"/>
				</g>
			</g>
			<g>
				<path style="fill:#AF312F;" d="M359.54,425.626c-8.278,3.041-16.217,6.89-23.441,11.971      c-13.396,9.421-36.562,4.249-26.197-14.988c2.645,1.668,8.259,6.029,9.967,13.72C319.87,436.329,337.377,411.581,359.54,425.626      z"/>
			</g>
			<g>
				<path style="fill:#AF312F;" d="M364.078,407.53c-8.45-0.121-16.24-5.153-20.638-8.647c9.679-2.942,20.558-4.786,31.964-6.279      C374.687,399.062,372.202,407.653,364.078,407.53z"/>
			</g>
			<g>
				<path style="fill:#AF312F;" d="M437.431,405.511c-10.143,4.509-21.533,6.905-32.648,8.997      c1.669-6.606,5.561-15.485,14.538-18.29C428.248,393.436,434.147,399.902,437.431,405.511z"/>
			</g>
			<g>
				<path style="fill:#AF312F;" d="M468.731,356.25c-3.127,8.052-14.423,9.094-20.781,9.012c4.057-5.33,7.327-11.374,9.69-17.947      c1.463-4.086,2.557-8.208,3.243-12.293C465.219,339.642,471.784,348.389,468.731,356.25z"/>
			</g>
			<g>
				<path style="fill:#AF312F;" d="M479.509,296.26c-4.005,1.562-8.819,1.32-13.868-3.646c-9.194-9.062-9.41-20.153-8.767-25.843      c6.832,5.227,12.792,11.592,17.443,19.237C476.331,289.314,478.066,292.738,479.509,296.26z"/>
			</g>
		</g>
		<g>
			<g>
				<g>
					<path style="fill:#FF9D3D;" d="M315.336,324.721c0,0-4.543,16.088,3.545,27.948c0,0-28.603,52.481-14.726,56.163       c13.877,3.683,12.966-30.622,30.128-39.127c9.489-4.702,5.892-16.41,5.892-16.41s43.664,1.909,65.396-23.269       s24.572-54.331,11.246-81.819C403.491,220.719,315.336,324.721,315.336,324.721z"/>
				</g>
				<g style="opacity:0.2;">
					<path style="fill:#AF312F;" d="M315.336,324.721c0,0-4.543,16.088,3.545,27.948c0,0-28.603,52.481-14.726,56.163       c13.877,3.683,12.966-30.622,30.128-39.127c9.489-4.702,5.892-16.41,5.892-16.41s43.664,1.909,65.396-23.269       s24.572-54.331,11.246-81.819C403.491,220.719,315.336,324.721,315.336,324.721z"/>
				</g>
			</g>
			<g>
				<path style="fill:#AF312F;" d="M307.751,408.493c-0.645-1.06-0.974-2.202-1.17-3.354c-0.207-1.155-0.222-2.328-0.126-3.502      c0.15-1.168,0.392-2.341,0.892-3.442c0.494-1.094,1.197-2.144,2.212-2.856l-0.622,6.552      C308.691,404.027,308.484,406.165,307.751,408.493z"/>
			</g>
		</g>
		<g>
			<path style="fill:#FF9D3D;" d="M416.653,229.836c-2.358-11.74-6.992-23.816-14.637-35.67     c-5.16-8.012-11.678-15.913-19.817-23.541c-5.41-5.098-11.55-10.064-18.446-14.861c-1.508-1.044-3.05-2.096-4.644-3.13     c-5.798-3.78-11.504-7.077-17.105-9.96c-10.161-5.223-19.973-9.019-29.35-11.673c-8.603-2.419-16.826-3.876-24.662-4.58     c-10.807-0.979-20.835-0.506-29.955,0.853c-8.051,1.219-15.397,3.109-21.946,5.329c-7.117,2.421-13.268,5.207-18.358,7.886     c-10.694,5.639-16.595,10.753-16.595,10.753c-36.947-3.099-57.231,10.864-68.364,27.87c-3.652,5.585-6.31,11.498-8.254,17.248     c-5.992,17.73-5.106,33.869-5.106,33.869l25.645,21.068l-2.658,8.968c-4.244-2.115-6.792-3.194-6.792-3.194     s-15.768-10.867-38.518-0.694c-17.885,7.998-32.442,24.172-36.707,43.502c-1.058,4.794-1.476,9.721-1.3,14.625     c-1.297,0.127-2.581,0.311-3.873,0.588c-16.731,3.662-29.082,19.509-26.725,24.385c0.282,0.576,0.611,1.116,1.01,1.631     c3.917,5.09,13.389,7.209,24.184,6.935c8.409-0.198,16.062,4.318,19.831,6.982c1.728,2.723,3.588,5.494,5.575,8.284     c0.078,0.1,0.147,0.213,0.224,0.313c2.261,3.178,4.681,6.404,7.239,9.601c1.9,2.483,3.937,4.857,5.965,7.234     c4.69,5.492,9.762,10.873,15.048,15.953c1.86,1.788,3.736,3.558,5.661,5.276c4.207,3.764,8.541,7.316,12.924,10.555     c3.989,2.948,8.025,5.628,12.069,7.989c3.553,2.857,7.489,6.943,9.594,12.192c4.332,10.841,10.625,19.138,17.436,19.731     c0.121,0.014,0.254,0.023,0.37,0.026c4.28,0.2,12.27-9.841,14.227-22.051c5.472-0.88,10.978-2.556,16.275-4.987     c4.933-2.254,9.68-5.144,14.028-8.599c1.349-1.074,2.651-2.186,3.91-3.369c4.831-4.446,9.03-9.68,12.309-15.538     c0.663-1.221,1.302-2.46,1.883-3.726c2.056-4.371,3.602-9.065,4.51-14.042c0.104-0.565,0.192-1.138,0.288-1.71     c0,0,6.567-2.969,5.705-5.802c16.633,8.779,56.066,27.523,87.783-9.986c6.867-8.121,10.669-15.791,12.385-22.89     c12.813-0.664,25.917-5.236,39.013-13.581c5.271-3.359,10.545-7.321,15.779-11.881c0.119-0.102,0.228-0.192,0.347-0.295     c6.709-5.868,13.486-15.965,18.199-28.695c2.359-6.305,4.199-13.27,5.282-20.692C419.12,253.588,419.08,241.885,416.653,229.836z     "/>
		</g>
		<g>
			<g>
				<g>
					<path style="fill:#FFFFFF;" d="M189.934,352.893c7.501,2.103,15.098,8.889,17.609,16.304c0.535,1.585,0.832,3.227,0.84,4.918       c-0.004,7.347-4.316,15.111-9.888,19.813c-0.12,0.118-0.25,0.227-0.38,0.335c-5.711,4.642-13.523,5.688-20.344,3.034       c-7.981-3.11-16.237-10.786-16.181-19.903c0.026-3.599,1.117-7.339,2.982-10.796l-0.01-0.01       C169.5,357.358,179.883,350.086,189.934,352.893z"/>
				</g>
				<g>
					<path style="fill:#AF312F;" d="M189.934,352.893c4.239,1.193,8.04,3.625,11.267,6.598c1.608,1.501,3.055,3.184,4.275,5.029       c1.228,1.836,2.238,3.846,2.83,6.014c0.6,2.168,0.655,4.482,0.353,6.698c-0.291,2.229-0.906,4.409-1.757,6.489       c-1.716,4.157-4.362,7.93-7.75,10.985l0.058-0.053c-4.067,3.63-9.386,5.469-14.741,5.245c-2.656-0.111-5.323-0.671-7.748-1.743       c-2.421-1.031-4.694-2.364-6.769-3.962c-4.094-3.197-7.559-7.579-8.733-12.813c-0.609-2.601-0.474-5.316,0.099-7.836       c0.563-2.54,1.56-4.947,2.826-7.176l0.085,0.573l-0.01-0.01l-0.257-0.27l0.172-0.303c1.3-2.288,2.899-4.391,4.726-6.258       c1.834-1.858,3.888-3.496,6.129-4.815c2.244-1.314,4.7-2.262,7.249-2.736C184.786,352.085,187.444,352.176,189.934,352.893z        M189.934,352.893c-2.497-0.691-5.148-0.754-7.681-0.263c-2.542,0.475-4.946,1.527-7.126,2.884       c-2.188,1.357-4.149,3.06-5.842,4.983c-1.699,1.918-3.151,4.047-4.296,6.32l-0.085-0.572l0.01,0.009l0.253,0.24l-0.169,0.334       c-1.114,2.212-1.948,4.564-2.356,6.976c-0.419,2.415-0.406,4.868,0.257,7.162c1.315,4.612,4.573,8.523,8.455,11.385       c3.899,2.885,8.459,4.954,13.215,5.164c1.188,0.053,2.378-0.007,3.558-0.154c1.172-0.187,2.343-0.419,3.473-0.792       c1.126-0.376,2.239-0.82,3.276-1.409c0.535-0.265,1.021-0.615,1.532-0.923c0.455-0.345,1.015-0.715,1.372-1.037l0.058-0.053       c3.266-2.661,5.976-6.114,7.8-9.984c0.908-1.937,1.597-3.983,1.98-6.091c0.393-2.109,0.451-4.272-0.016-6.371       c-0.942-4.211-3.441-8.014-6.534-11.074C197.966,356.554,194.142,354.147,189.934,352.893z"/>
				</g>
			</g>
			<g>
				<path style="fill:#AF312F;" d="M198.427,365.504c-3.473-4.734-9.607-7.799-15.523-6.876      c-9.425,1.471-16.379,11.653-14.091,20.872c1.229,4.949,5.036,9.613,9.758,11.611c12.619,5.34,25.669-8.927,22.018-21.317      C200.14,368.267,199.393,366.822,198.427,365.504z"/>
			</g>
			<g style="opacity:0.21;">
				<path style="fill:#AF312F;" d="M164.571,366.599c9.321,26.723,31.17,27.359,33.924,27.329c-0.12,0.118-0.25,0.227-0.38,0.335      c-5.711,4.642-13.523,5.688-20.344,3.034c-7.981-3.11-16.237-10.786-16.181-19.903      C161.616,373.795,162.707,370.055,164.571,366.599z"/>
			</g>
		</g>
		<g>
			<path style="fill:#AF312F;" d="M156.258,380.049c-0.316-0.27-0.677-0.529-1.091-0.55c-0.516-0.025-0.971,0.322-1.344,0.679     c-1.76,1.685-2.873,4.029-3.069,6.457c-0.048,0.591-0.04,1.203,0.177,1.755c0.264,0.674,0.813,1.194,1.38,1.645     c0.895,0.713,1.897,1.322,3.006,1.606C162.142,393.381,159.148,382.521,156.258,380.049z"/>
		</g>
		<g>
			<path style="fill:#AF312F;" d="M55.213,315.09c0,0,0.011-0.004,0.026,0.002c0.245-0.089,2.307-0.718,4.887-0.69     c0.011-0.005,0.026,0.002,0.037-0.003c1.444,0.014,3.302,0.497,5.142,1.399c3.254,1.583-12.431,12.864-26.052,17.211     c-4.465,1.425-8.078,3.845-9.757,8.102c-0.395-0.516-0.724-1.059-1.014-1.631C26.129,334.606,38.483,318.756,55.213,315.09z"/>
		</g>
		<g>
			<path style="fill:#AF312F;" d="M174.558,407.298c14.405,19.082-2.058,45.21-8.937,44.882c-0.117-0.003-0.249-0.011-0.37-0.025     c0.917-1.68,1.926-4.309,2.149-8.023c0.209-3.747-2.037-32.433,2.929-35.275C171.818,407.992,173.313,407.483,174.558,407.298z"/>
		</g>
		<g>
			<path style="fill:#FFFFFF;" d="M58.038,322.849c0,0,2.306-5.186,7.267-7.051c3.254,1.583,6.441,4.452,7.203,8.308     c1.856,9.498-19.634,4.556-33.255,8.902c2.592-2.712,6.959-6.126,13.056-7.026c0,0-4.869-2.129-4.72-3.373     c0.167-1.2,6.508,0.701,6.861,0.81c-0.224-0.138-2.825-1.724-2.211-2.93C52.884,319.234,58.038,322.849,58.038,322.849z"/>
		</g>
		<g>
			<path style="fill:#FFFFFF;" d="M170.329,408.857c11.079,9.259,1.472,19.135,1.472,19.135s3.158-0.586,3.39,1.385     c0.21,1.89-3.101,1.461-3.386,1.426c0.12,0.104,2.655,2.18,2.606,3.446c-0.047,1.304-3.121-0.432-3.121-0.432     c0.735,5.087-2.229,8.724-3.889,10.316c0.209-3.747-0.383-8.585-2.693-14.645C160.446,418.347,165.364,411.698,170.329,408.857z"/>
		</g>
		<g>
			<path style="fill:#AF312F;" d="M92.515,380.458c2.882-3.529,6.152-6.755,9.709-9.598c1.91-1.515,3.981-2.961,6.358-3.524     c2.376-0.563,5.155-0.067,6.729,1.792c2.157,2.511,1.456,6.302,0.331,9.409c-1.964,5.402-4.831,10.409-7.143,15.655     c-0.317,0.729-0.643,1.471-0.937,2.219C102.277,391.331,97.206,385.95,92.515,380.458z"/>
		</g>
		<g>
			<path style="fill:#AF312F;" d="M79.087,363.31c1.232-0.873,2.495-1.662,3.839-2.33c1.631-0.834,3.419-1.544,5.248-1.383     c1.826,0.14,3.665,1.386,3.974,3.212c0.319,1.814-0.935,3.49-2.047,4.984c-1.302,1.736-2.485,3.546-3.55,5.43     c-2.559-3.197-4.979-6.423-7.239-9.601C79.233,363.523,79.165,363.41,79.087,363.31z"/>
		</g>
		<g>
			<path style="fill:#AF312F;" d="M123.088,392.57c1.57-0.423,3.503,0.054,4.276,1.478c0.382,0.701,0.447,1.534,0.472,2.333     c0.195,4.592,0.127,11.016-1.693,15.858c-4.379-3.233-8.709-6.781-12.918-10.56c1.798-2.278,3.747-4.439,5.839-6.442     C120.241,394.117,121.523,393.005,123.088,392.57z"/>
		</g>
		<g>
			<path style="fill:#AF312F;" d="M92.558,285.818c2.581,1.324,5.032,2.921,7.433,4.552c3.419,2.349,7.056,5.249,7.662,9.349     c0.214,1.375,0.035,2.823-0.628,4.037c-1.38,2.54-4.617,3.582-7.492,3.279c-2.881-0.288-5.524-1.638-8.163-2.823     c-2.854-1.301-5.884-2.438-9.025-2.797c-1.175-0.139-2.282,0.04-3.359,0.259C82.519,295.796,87.098,290.458,92.558,285.818z"/>
		</g>
		<g>
			<path style="fill:#AF312F;" d="M77.502,304.271c2.171,0.802,4.208,1.93,5.938,3.584c1.998,1.927,4.602,4.783,2.95,7.719     c-0.431,0.783-1.164,1.333-2.007,1.684c-3.408,1.435-6.85-0.507-10.302-0.595c-0.478-0.007-0.968,0.018-1.469,0.048     C73.754,312.37,75.399,308.217,77.502,304.271z"/>
		</g>
		<g>
			<path style="fill:#AF312F;" d="M108.795,275.398c1.343,2.111,2.308,4.456,2.831,6.909c0.356,1.623,0.49,3.391-0.223,4.882     c-0.72,1.507-2.546,2.578-4.087,1.962c-0.755-0.302-1.328-0.936-1.904-1.517c-2.107-2.126-4.693-3.769-7.503-4.78     c-0.378-0.138-0.791-0.235-1.2-0.321c1.023-0.748,2.067-1.478,3.135-2.181C102.926,278.321,105.918,276.688,108.795,275.398z"/>
		</g>
		<g>
			<g>
				<path style="fill:#AF312F;" d="M148.794,353.178c0,0,0.473,6.838,3.161,7.579c2.689,0.741,2.649-6.795-0.621-10.914      c0,0-9.313-1.495-9.855,2.663C140.937,356.663,148.794,353.178,148.794,353.178z"/>
			</g>
			<g>
				<path style="fill:#AF312F;" d="M181.726,328.878c-2.542,1.964-5.128,3.866-7.694,5.794l-7.771,5.685l-7.829,5.603      c-2.619,1.853-5.21,3.747-7.854,5.567l-1.323,0.911l0.404-1.539c0.785-2.989,1.67-5.926,2.615-8.853      c0.944-2.925,1.968-5.826,3.107-8.682c1.135-2.857,2.356-5.68,3.685-8.451c1.373-2.75,2.835-5.458,4.494-8.039      c-1.437,2.711-2.786,5.457-3.984,8.273c-1.195,2.815-2.336,5.651-3.361,8.532c-2.023,5.764-3.924,11.593-5.403,17.505      l-0.919-0.629c2.604-1.875,5.262-3.674,7.89-5.515l7.916-5.478l7.974-5.396C176.357,332.4,179.02,330.608,181.726,328.878z"/>
			</g>
			<g style="opacity:0.48;">
				<path style="fill:#AF312F;" d="M159.407,354.947c3.11,1.096,6.947,0.956,10.519-0.918c5.177-2.717,9.365-7.712,9.316-13.443      c-0.03-3.557-1.537-6.516-3.417-8.975c-3.603-4.714-7.547-9.078-13.433-10.836c-2.135-0.638-4.466-0.951-6.915-0.476      c-3.752,0.727-7.628,3.388-10.161,6.976c-2.533,3.587-3.663,8.017-2.963,11.612c0.862,4.422,4.308,8.009,7.636,10.232      C152.955,351.098,155.987,353.742,159.407,354.947z"/>
			</g>
		</g>
		<g style="opacity:0.48;">
			<path style="fill:#EB4949;" d="M136.045,310.718c3.943,0.671,7.548-2.32,6.478-6.632c-1.433-5.775-8.678-12.013-14.682-12.282     c-5.068-0.227-7.671,5.796-5.471,9.461c1.859,3.098,4.736,5.454,7.853,7.153C131.673,309.207,133.836,310.342,136.045,310.718z"/>
		</g>
		<g>
			<path style="fill:#AF312F;" d="M211.584,386.011c2.489,0.426,4.615,1.952,6.573,3.537c2.978,2.43,5.78,5.114,8.211,8.08     c-3.276,5.874-7.481,11.095-12.312,15.55c-0.027-0.156-0.06-0.296-0.097-0.448c-1.526-6.182-5.101-11.612-7.779-17.325     c-0.961-2.026-1.808-4.395-0.938-6.466C206.214,386.62,209.11,385.591,211.584,386.011z"/>
		</g>
		<g>
			<path style="fill:#AF312F;" d="M228.536,393.296c-1.47-1.847-2.852-3.459-4.831-4.969c-1.076-0.813-2.207-1.578-3.087-2.61     c-0.876-1.021-1.463-2.4-1.202-3.72c0.353-1.759,2.075-2.901,3.79-3.43c3.176-0.95,6.609-0.399,9.599,1.052     C232.806,379.62,231.811,387.164,228.536,393.296z"/>
		</g>
		<g>
			<path style="fill:#AF312F;" d="M206.798,406.613c0.987,0.796,1.592,1.969,2.036,3.157c0.802,2.169,1.166,4.457,1.321,6.768     c-4.36,3.462-9.1,6.351-14.03,8.6c0.193-0.491,0.422-0.959,0.633-1.407c2.101-4.382,3.651-9.009,4.594-13.768     c0.285-1.441,0.635-3.064,1.892-3.807C204.339,405.52,205.8,405.822,206.798,406.613z"/>
		</g>
		<g style="opacity:0.48;">
			<path style="fill:#AF312F;" d="M174.741,286.913c-1.283-1.233-2.563-2.467-3.869-3.67c-1.309-1.196-2.637-2.382-4.015-3.463     l-0.65-0.509l0.84-0.111c0.973-0.128,2.028-0.414,2.734-0.993c0.348-0.291,0.557-0.654,0.576-1.056     c0.029-0.233-0.013-0.328-0.081-0.412c-0.076-0.081-0.24-0.163-0.449-0.204c-0.868-0.152-1.938,0.05-2.929,0.251     c-1.005,0.221-2.018,0.515-2.988,0.848l-1.358,0.467l0.712-1.258c0.434-0.766,0.826-1.601,1.121-2.429     c0.281-0.81,0.511-1.741,0.323-2.361c-0.053-0.157-0.06-0.098-0.026-0.102c0.001,0.009-0.137-0.004-0.299,0.086     c-0.32,0.141-0.683,0.392-1.016,0.671c-0.671,0.556-1.324,1.21-1.925,1.862l-0.426,0.463l-0.446-0.434     c-1.948-1.894-4.138-3.622-6.444-5.095c-2.325-1.442-4.815-2.658-7.469-3.197l-1.363-0.277l1.268-0.543     c1.042-0.446,2.159-1.035,2.816-1.874c0.074-0.106,0.142-0.214,0.186-0.325c0.044-0.083,0.012-0.054,0.031-0.041     c-0.007,0.01,0.009,0.003-0.025-0.029c-0.097-0.125-0.385-0.267-0.639-0.366c-0.533-0.208-1.117-0.362-1.697-0.503     c-2.343-0.544-4.758-0.841-7.162-1.153c2.428,0.071,4.849,0.249,7.269,0.631c0.605,0.106,1.21,0.216,1.814,0.43     c0.303,0.121,0.607,0.2,0.926,0.523c0.08,0.076,0.152,0.207,0.188,0.365c0.017,0.163-0.03,0.346-0.062,0.396     c-0.063,0.175-0.15,0.327-0.245,0.474c-0.82,1.109-1.934,1.706-3.072,2.263l-0.095-0.819c1.42,0.227,2.797,0.638,4.124,1.162     c1.308,0.565,2.565,1.23,3.777,1.961c2.409,1.498,4.643,3.208,6.718,5.17l-0.871,0.029c0.643-0.725,1.301-1.396,2.073-2.009     c0.384-0.306,0.788-0.6,1.319-0.828c0.255-0.107,0.593-0.224,1.051-0.125c0.486,0.128,0.773,0.606,0.834,0.896     c0.29,1.205-0.079,2.158-0.377,3.078c-0.342,0.915-0.753,1.762-1.245,2.605l-0.646-0.79c1.037-0.341,2.065-0.624,3.131-0.844     c1.07-0.198,2.142-0.414,3.367-0.157c0.302,0.08,0.652,0.213,0.929,0.535c0.281,0.327,0.321,0.804,0.264,1.089     c-0.055,0.662-0.464,1.262-0.945,1.619c-0.989,0.719-2.089,0.932-3.198,1.044l0.191-0.62c1.386,1.157,2.632,2.432,3.862,3.722     C172.383,284.247,173.584,285.561,174.741,286.913z"/>
		</g>
		<g style="opacity:0.48;">
			<path style="fill:#AF312F;" d="M233.05,378.159c1.006-0.699,1.97-1.453,2.886-2.252c0.894-0.808,1.776-1.69,2.311-2.71     c0.273-0.515,0.368-1.041,0.175-1.499c-0.17-0.462-0.635-0.731-1.167-0.858c-1.075-0.244-2.317-0.078-3.43,0.185l-1.54,0.363     l1.122-1.133c0.912-0.921,1.762-1.946,2.533-2.99c0.742-1.055,1.444-2.184,1.737-3.363c0.177-0.591,0.156-1.161,0.024-1.684     c-0.147-0.549-0.455-0.961-0.91-1.174c-0.923-0.443-2.304-0.179-3.397,0.254l-0.84,0.333l-0.006-0.897     c-0.018-2.458-0.278-4.98-0.682-7.443c-0.403-2.473-1.026-4.903-1.734-7.305c-0.703-2.407-1.66-4.735-2.775-6.982     c-1.048-2.294-2.486-4.368-3.944-6.439c1.67,1.897,3.227,3.931,4.467,6.16c1.242,2.223,2.311,4.554,3.137,6.97     c0.863,2.405,1.472,4.895,1.937,7.406c0.448,2.522,0.751,5.043,0.808,7.644l-0.846-0.564c0.704-0.275,1.376-0.447,2.118-0.521     c0.728-0.065,1.529-0.028,2.281,0.349c0.766,0.366,1.296,1.151,1.471,1.894c0.195,0.764,0.173,1.581-0.044,2.273     c-0.385,1.422-1.162,2.593-1.962,3.705c-0.82,1.107-1.748,2.092-2.755,3.034l-0.417-0.77c1.264-0.233,2.53-0.37,3.844-0.024     c0.632,0.17,1.351,0.604,1.59,1.335c0.261,0.695,0.058,1.488-0.293,2.013c-0.691,1.108-1.65,1.915-2.616,2.677     C235.156,376.897,234.122,377.565,233.05,378.159z"/>
		</g>
		<g>
			<g style="opacity:0.48;">
				<path style="fill:#EB4949;" d="M208.673,366.956c3.81,2.233,8.787,0.468,9.463-4.499c0.905-6.652-4.024-16.04-10.137-18.645      c-5.161-2.2-10.354,3.155-9.59,7.875c0.645,3.99,2.653,7.59,5.181,10.589C204.765,363.671,206.538,365.705,208.673,366.956z"/>
			</g>
			<g>
				<path style="fill:#AF312F;" d="M230.793,362.579c-4.221-1.072-8.277-2.541-12.293-4.107c-4-1.606-7.959-3.311-11.751-5.416      c4.222,1.069,8.278,2.539,12.294,4.107C223.04,358.771,226.999,360.477,230.793,362.579z"/>
			</g>
			<g>
				<path style="fill:#AF312F;" d="M226.522,372.737c-3.715-1.989-7.178-4.326-10.58-6.748c-3.376-2.457-6.689-5.002-9.748-7.898      c3.717,1.986,7.18,4.324,10.58,6.748C220.149,367.299,223.462,369.844,226.522,372.737z"/>
			</g>
			<g>
				<path style="fill:#AF312F;" d="M216.505,381.9c-2.463-3.458-4.552-7.125-6.549-10.844c-1.96-3.739-3.827-7.531-5.315-11.533      c2.466,3.457,4.554,7.124,6.549,10.844C213.147,374.108,215.013,377.899,216.505,381.9z"/>
			</g>
		</g>
		<g>
			<path style="fill:#AF312F;" d="M134.461,302.314c-2.955-2.475-5.641-5.201-8.261-7.988c-2.593-2.812-5.119-5.687-7.372-8.815     c2.958,2.473,5.643,5.199,8.261,7.988C129.68,296.312,132.205,299.188,134.461,302.314z"/>
		</g>
		<g>
			<path style="fill:#AF312F;" d="M112.261,292.194c3.332,1.625,6.462,3.558,9.542,5.566c3.06,2.039,6.07,4.155,8.874,6.58     c-3.334-1.623-6.464-3.556-9.543-5.567C118.076,296.733,115.068,294.617,112.261,292.194z"/>
		</g>
		<g>
			<path style="fill:#AF312F;" d="M108.421,303.293c3.67-0.012,7.292,0.341,10.904,0.784c3.607,0.479,7.202,1.05,10.749,1.988     c-3.67,0.014-7.293-0.339-10.904-0.784C115.564,304.8,111.969,304.229,108.421,303.293z"/>
		</g>
		<g>
			<g>
				<g>
					<path style="fill:#FFFFFF;" d="M127.967,298.063c7.501,2.102,15.098,8.889,17.609,16.304c0.535,1.585,0.832,3.227,0.839,4.918       c-0.003,7.347-4.315,15.111-9.887,19.813c-0.12,0.119-0.25,0.227-0.38,0.335c-5.711,4.641-13.523,5.688-20.344,3.034       c-7.981-3.11-16.237-10.785-16.181-19.903c0.026-3.599,1.117-7.339,2.981-10.796l-0.01-0.01       C107.533,302.528,117.916,295.255,127.967,298.063z"/>
				</g>
				<g>
					<path style="fill:#AF312F;" d="M127.967,298.063c4.239,1.193,8.041,3.625,11.267,6.597c1.608,1.501,3.055,3.184,4.275,5.028       c1.228,1.837,2.238,3.846,2.829,6.015c0.6,2.169,0.655,4.482,0.353,6.698c-0.292,2.229-0.906,4.409-1.757,6.489       c-1.715,4.157-4.362,7.93-7.749,10.985l0.058-0.053c-4.068,3.631-9.386,5.469-14.741,5.245c-2.656-0.11-5.323-0.67-7.748-1.743       c-2.421-1.031-4.694-2.364-6.769-3.962c-4.094-3.197-7.559-7.579-8.733-12.813c-0.609-2.601-0.474-5.317,0.099-7.836       c0.563-2.54,1.56-4.947,2.826-7.176l0.078,0.567l-0.009-0.01l-0.247-0.269l0.168-0.296c1.301-2.288,2.899-4.391,4.726-6.258       c1.834-1.858,3.888-3.496,6.129-4.815c2.243-1.314,4.7-2.262,7.249-2.735C122.82,297.254,125.477,297.346,127.967,298.063z        M127.967,298.063c-2.497-0.691-5.148-0.754-7.681-0.263c-2.542,0.475-4.946,1.527-7.126,2.884       c-2.188,1.357-4.148,3.06-5.842,4.982c-1.699,1.918-3.151,4.047-4.296,6.32l-0.079-0.565l0.01,0.01l0.243,0.239l-0.165,0.328       c-1.114,2.212-1.947,4.564-2.355,6.976c-0.419,2.415-0.406,4.867,0.257,7.162c1.315,4.613,4.573,8.523,8.455,11.385       c3.899,2.884,8.459,4.954,13.215,5.164c1.188,0.053,2.379-0.008,3.558-0.154c1.172-0.187,2.342-0.419,3.473-0.792       c1.126-0.376,2.239-0.82,3.276-1.409c0.536-0.265,1.02-0.615,1.531-0.923c0.455-0.344,1.016-0.716,1.372-1.036l0.059-0.053       c3.267-2.661,5.976-6.114,7.8-9.984c0.908-1.937,1.597-3.983,1.98-6.091c0.393-2.109,0.451-4.272-0.016-6.371       c-0.942-4.211-3.441-8.014-6.534-11.074C136,301.724,132.176,299.317,127.967,298.063z"/>
				</g>
			</g>
			<g>
				<path style="fill:#AF312F;" d="M136.461,310.674c-3.473-4.735-9.607-7.8-15.523-6.876c-9.425,1.472-16.379,11.654-14.091,20.872      c1.228,4.949,5.036,9.613,9.758,11.611c12.619,5.34,25.669-8.927,22.018-21.317      C138.173,313.437,137.427,311.991,136.461,310.674z"/>
			</g>
			<g style="opacity:0.21;">
				<path style="fill:#AF312F;" d="M102.604,311.768c9.321,26.723,31.17,27.359,33.924,27.329c-0.12,0.119-0.25,0.227-0.38,0.335      c-5.711,4.641-13.523,5.688-20.344,3.034c-7.981-3.11-16.237-10.785-16.181-19.903      C99.649,318.965,100.74,315.225,102.604,311.768z"/>
			</g>
		</g>
		<g>
			
				<ellipse transform="matrix(0.0308 -0.9995 0.9995 0.0308 -195.8807 415.215)" style="fill:#FF5555;" cx="116.166" cy="308.614" rx="50.218" ry="50.218"/>
		</g>
		<g>
			<path style="fill:#FF5555;" d="M130.576,286.585c-1.367,0-2.754-0.283-4.083-0.878c-5.031-2.257-7.279-8.166-5.021-13.197     l44.986-100.242c2.257-5.031,8.166-7.271,13.197-5.022c5.031,2.257,7.279,8.166,5.022,13.197L139.69,280.686     C138.028,284.388,134.388,286.585,130.576,286.585z"/>
		</g>
		<g>
			<path style="fill:#FF9D3D;" d="M157.831,219.62c1.234,0.687,24.164,17.519,25.68,25.823c1.516,8.305-1.619,11.782-1.619,11.782     s1.665,15.156-16.438,17.562c-18.103,2.406-53.661-21.811-44.786-60.276S157.831,219.62,157.831,219.62z"/>
		</g>
		<g>
			<path style="fill:#AF312F;" d="M180.668,253.497c-2.171,0.783-4.502,1.02-6.815,0.948c-2.322-0.066-4.641-0.552-6.854-1.374     c-2.212-0.829-4.256-2.157-5.939-3.808c-1.751-1.598-2.902-3.741-3.653-5.878c1.655,1.617,3.102,3.215,4.91,4.39     c1.758,1.191,3.579,2.265,5.585,2.97C171.863,252.288,176.137,252.998,180.668,253.497z"/>
		</g>
		<g>
			<path style="fill:#AF312F;" d="M170.779,270.493c-1.727,0.35-3.454,0.067-5.108-0.302c-1.669-0.375-3.266-1.025-4.791-1.84     c-1.495-0.861-2.95-1.875-4.083-3.252c-1.141-1.336-2.017-2.986-2.157-4.719c2.195,2.628,4.664,4.264,7.447,5.788     c1.36,0.781,2.79,1.477,4.234,2.195C167.781,269.049,169.222,269.822,170.779,270.493z"/>
		</g>
		<g style="opacity:0.48;">
			<g>
				<path style="fill:#AF312F;" d="M154.683,214.247c0.831,2.048,2.5,3.57,4.101,5.007c1.652,1.414,3.459,2.642,5.319,3.77      c1.832,1.14,3.786,2.187,5.658,3.419c1.861,1.224,3.664,2.545,5.381,3.979c3.431,2.862,6.554,6.209,8.786,10.267      c1.089,2.035,1.901,4.304,2.069,6.728c0.213,2.418-0.422,4.94-1.663,7.031l0.178-0.688c0.033,2.183-0.192,4.225-0.584,6.309      c-0.411,2.064-1.006,4.117-1.951,6.057c-0.93,1.937-2.25,3.75-3.958,5.169c-1.712,1.416-3.812,2.342-5.959,2.718l0.275-0.095      c-2.483,1.037-4.9,1.384-7.393,1.519c-2.476,0.11-4.94-0.131-7.342-0.597c-2.399-0.503-4.71-1.312-6.93-2.279      c-1.119-0.463-2.173-1.068-3.257-1.592l-3.081-1.886c2.168,1.046,4.344,2.039,6.601,2.805c2.253,0.775,4.568,1.308,6.893,1.664      c2.329,0.324,4.682,0.426,6.997,0.201c2.279-0.224,4.66-0.756,6.569-1.678l0.129-0.062l0.148-0.034      c1.822-0.408,3.519-1.192,4.899-2.403c1.382-1.206,2.451-2.769,3.247-4.484c0.817-1.708,1.346-3.579,1.707-5.481      c0.351-1.892,0.524-3.897,0.502-5.761l-0.005-0.403l0.183-0.286c2.155-3.371,1.584-7.721-0.355-11.389      c-1.9-3.732-4.83-6.973-7.958-9.925c-1.584-1.467-3.266-2.839-5.015-4.121c-1.734-1.286-3.621-2.395-5.441-3.7      c-1.797-1.306-3.53-2.711-5.095-4.295C156.814,218.149,155.268,216.403,154.683,214.247z"/>
			</g>
		</g>
		<g>
			<path style="fill:#FFC893;" d="M308.368,247.393c0.951-0.957-0.895-6.583-1.322-7.755c-0.931-2.557-2.226-4.982-3.876-7.148     c-3.143-4.127-7.516-7.213-12.447-8.818c-11.686-3.803-23.986,1.104-32.482,9.334c-2.675,2.591-5.32,5.555-7.3,8.715     c-2.212,3.532-3.621,7.625-6.731,10.533c-3.578,3.346-8.411,4.541-12.951,5.978c-5.141,1.627-8.872,4.005-13.04,7.317     c-8.682,6.896-14.161,17.767-14.337,28.872c-0.25,15.715,9.575,28.251,22.659,35.845c14.413,8.366,29.099,5.49,44.758,2.788     c1.62-0.28,13.25-3.077,14.123-1.803C285.416,331.246,260.746,295.27,308.368,247.393z"/>
		</g>
		<g style="opacity:0.48;">
			<g>
				<path style="fill:#AF312F;" d="M178.437,211.741c2.328,2.2,4.773,4.388,7.572,5.726c0.701,0.303,1.403,0.58,2.098,0.679      c0.341,0.052,0.689,0.045,0.891-0.025c0.208-0.093,0.174-0.088,0.218-0.277c0.061-0.984-0.839-2.616-1.628-3.779l-2.297-3.385      l3.633,2.04c1.774,0.996,3.552,2.025,5.35,2.976c1.799,0.934,3.626,1.877,5.425,2.567c0.443,0.162,0.898,0.31,1.272,0.376      c0.164,0.03,0.374,0.041,0.342,0.031c0.11-0.02,0.297-0.082,0.374-0.118c0.13-0.147-0.026,0.139,0.016-0.042      c-0.009-0.174-0.175-0.566-0.389-0.92c-0.91-1.494-2.415-2.977-3.858-4.25l-1.691-1.492l2.16-0.619      c2.608-0.747,5.268-1.717,7.831-2.779c2.56-1.1,5.083-2.293,7.521-3.652c2.44-1.362,4.709-2.987,6.92-4.702      c2.199-1.742,4.126-3.784,5.939-5.979c-1.406,2.47-3.199,4.733-5.218,6.782c-2.05,2.015-4.337,3.785-6.728,5.385      c-2.405,1.58-4.915,3.008-7.533,4.204c-2.621,1.216-5.266,2.274-8.101,3.096l0.469-2.11c1.637,1.441,3.161,2.839,4.439,4.85      c0.296,0.533,0.609,1.085,0.71,1.942c0.054,0.411-0.013,0.977-0.28,1.464c-0.272,0.519-0.704,0.809-1.082,1.02      c-0.391,0.182-0.696,0.276-1.093,0.349c-0.543,0.079-0.851,0-1.193-0.049c-0.638-0.127-1.161-0.316-1.683-0.512      c-2.046-0.8-3.862-1.809-5.67-2.859c-1.801-1.054-3.568-2.127-5.287-3.317l1.336-1.346c0.438,0.767,0.796,1.506,1.107,2.324      c0.269,0.831,0.624,1.648,0.406,2.839c-0.082,0.615-0.779,1.286-1.363,1.352c-0.581,0.123-1.055,0.048-1.5-0.043      c-0.891-0.198-1.682-0.557-2.409-0.989c-1.443-0.876-2.673-1.965-3.837-3.099C180.462,214.263,179.403,213.033,178.437,211.741z      "/>
			</g>
		</g>
		<g style="opacity:0.48;">
			<g>
				<path style="fill:#AF312F;" d="M353.102,231.533c-11.76,0.318-23.369,3.681-33.524,9.434      c-10.15,5.788-18.764,14.133-24.879,24.041c-3.074,4.934-5.606,10.228-7.8,15.628c-2.176,5.407-3.939,10.975-5.027,16.674      c-1.055,5.693-1.483,11.52-0.85,17.242c0.634,5.639,2.238,11.479,5.328,15.967l1.207,1.753l-2.06,0.162      c-5.569,0.439-11.175,1.141-16.692,2.105c-5.51,0.993-11.013,2.166-16.197,4.075c-2.555,0.985-5.098,2.13-7.113,3.77      c-0.96,0.793-1.894,1.828-2.539,2.853c-0.3,0.502-0.532,1.039-0.531,1.393c0.005,0.332,0.108,0.517,0.488,0.811      c0.787,0.557,2.175,0.848,3.474,0.999c1.332,0.154,2.712,0.199,4.095,0.198c2.771-0.005,5.573-0.201,8.371-0.433      c5.621-0.488,11.186-1.108,16.742-2.068c5.562-0.901,11.191-1.928,16.978-1.962c2.884-0.007,5.804,0.274,8.626,1.015      c2.882,0.757,5.345,2.043,8.021,2.283c2.636,0.33,5.319-0.483,6.793-2.65c1.494-2.109,2.015-4.976,1.976-7.623l-0.014-0.973      l0.904,0.308c3.435,1.168,7.1,1.945,10.752,2.444c3.665,0.497,7.378,0.655,11.08,0.503c7.405-0.315,14.765-2.074,21.521-5.239      c-6.619,3.447-13.993,5.46-21.478,5.977c-3.742,0.26-7.511,0.208-11.249-0.19c-3.744-0.404-7.438-1.062-11.081-2.248l0.89-0.665      c0.077,2.953-0.376,5.962-2.106,8.551c-0.865,1.265-2.146,2.326-3.619,2.859c-1.466,0.558-3.035,0.675-4.521,0.539      c-3.013-0.236-5.706-1.58-8.296-2.187c-2.659-0.649-5.416-0.869-8.179-0.814c-5.541,0.108-11.068,1.266-16.649,2.175      c-5.581,0.998-11.257,1.665-16.896,2.186c-2.832,0.251-5.674,0.467-8.557,0.49c-1.442,0.009-2.893-0.027-4.37-0.188      c-1.474-0.205-2.993-0.365-4.571-1.399c-0.781-0.492-1.534-1.632-1.468-2.741c0.035-1.077,0.456-1.854,0.853-2.563      c0.859-1.368,1.844-2.457,3.044-3.477c2.38-1.946,5.078-3.143,7.769-4.207c5.428-2.019,11.019-3.285,16.636-4.235      c5.625-0.948,11.254-1.622,16.957-2.039l-0.853,1.915c-3.58-5.276-5.038-11.209-5.728-17.194      c-0.63-5.996-0.147-12.033,0.972-17.893c1.171-5.857,2.95-11.572,5.287-17.035c2.324-5.461,4.978-10.785,8.214-15.791      c6.436-9.998,15.345-18.462,25.824-24.046c5.239-2.781,10.796-4.936,16.529-6.371      C341.313,232.218,347.212,231.383,353.102,231.533z"/>
			</g>
		</g>
		<g>
			<path style="fill:#AF312F;" d="M254.722,349.634c-0.803-2.156-0.022-4.649,1.562-6.337c1.613-1.683,4.004-2.549,6.207-2.032     c-0.868,0.766-1.683,1.307-2.409,1.918c-0.74,0.578-1.381,1.191-1.984,1.826C256.862,346.274,255.903,347.732,254.722,349.634z"/>
		</g>
		<g>
			
				<ellipse transform="matrix(0.2265 -0.974 0.974 0.2265 -210.7384 351.8631)" style="fill:#FFFFFF;" cx="116.166" cy="308.614" rx="43.515" ry="43.515"/>
		</g>
		<g>
			<g>
				<g>
					<path style="fill:#FFFFFF;" d="M123.492,276.263c10.492,2.941,21.117,12.433,24.63,22.805c0.749,2.216,1.164,4.514,1.174,6.878       c-0.005,10.277-6.036,21.136-13.83,27.713c-0.168,0.166-0.35,0.318-0.531,0.469c-7.988,6.492-18.915,7.957-28.456,4.244       c-11.163-4.35-22.712-15.086-22.633-27.839c0.036-5.033,1.562-10.265,4.17-15.1l-0.014-0.014       C94.91,282.508,109.433,272.336,123.492,276.263z"/>
				</g>
				<g>
					<path style="fill:#AF312F;" d="M123.492,276.263c5.929,1.668,11.247,5.07,15.759,9.228c2.249,2.1,4.273,4.454,5.979,7.034       c1.717,2.569,3.131,5.38,3.958,8.413c0.839,3.033,0.917,6.268,0.494,9.369c-0.408,3.118-1.267,6.167-2.457,9.077       c-2.399,5.814-6.102,11.091-10.839,15.365l0.082-0.075c-5.69,5.078-13.129,7.65-20.619,7.336       c-3.715-0.154-7.446-0.938-10.838-2.438c-3.386-1.442-6.566-3.306-9.469-5.542c-5.727-4.471-10.573-10.601-12.215-17.922       c-0.852-3.638-0.663-7.436,0.138-10.959c0.788-3.553,2.182-6.92,3.953-10.037l0.11,0.793l-0.013-0.014l-0.346-0.376       l0.235-0.415c1.819-3.2,4.055-6.142,6.611-8.752c2.566-2.599,5.438-4.89,8.573-6.735c3.138-1.838,6.574-3.165,10.139-3.826       C116.293,275.132,120.009,275.26,123.492,276.263z M123.492,276.263c-3.493-0.967-7.202-1.055-10.744-0.368       c-3.556,0.665-6.918,2.136-9.968,4.034c-3.06,1.898-5.802,4.28-8.172,6.969c-2.376,2.683-4.408,5.661-6.009,8.84l-0.11-0.79       l0.014,0.014l0.34,0.334l-0.231,0.459c-1.558,3.094-2.724,6.384-3.294,9.758c-0.586,3.378-0.568,6.808,0.359,10.017       c1.84,6.452,6.396,11.921,11.826,15.925c5.453,4.034,11.832,6.929,18.484,7.223c1.662,0.075,3.327-0.011,4.977-0.215       c1.64-0.262,3.277-0.586,4.858-1.107c1.576-0.526,3.132-1.147,4.582-1.972c0.749-0.37,1.427-0.859,2.142-1.291       c0.637-0.482,1.422-1.001,1.919-1.449l0.082-0.075c4.569-3.722,8.359-8.551,10.91-13.965c1.27-2.71,2.234-5.572,2.77-8.52       c0.55-2.95,0.631-5.975-0.023-8.911c-1.317-5.89-4.814-11.209-9.14-15.49C134.727,281.384,129.378,278.017,123.492,276.263z"/>
				</g>
			</g>
			<g>
				<path style="fill:#AF312F;" d="M135.372,293.903c-4.857-6.622-13.438-10.91-21.712-9.618c-13.183,2.059-22.91,16.3-19.71,29.193      c1.718,6.923,7.044,13.446,13.649,16.24c17.65,7.469,35.904-12.486,30.797-29.816      C137.767,297.768,136.723,295.746,135.372,293.903z"/>
			</g>
			<g style="opacity:0.21;">
				<path style="fill:#AF312F;" d="M76.949,289.729c17.951,51.464,60.471,53.412,65.775,53.355      c-0.231,0.228-0.843,0.606-1.093,0.815c-10.998,8.939-26.812,11.419-39.948,6.307c-15.37-5.99-28.065-20.901-28.926-38.438      C72.328,303.049,73.358,296.386,76.949,289.729z"/>
			</g>
		</g>
		<g style="opacity:0.48;">
			<g>
				<path style="fill:#AF312F;" d="M236.829,297.565c0.743,1.102,1.492,2.188,2.349,3.148c0.819,0.898,1.92,1.909,2.68,1.881      c0.079-0.083,0.009,0.028,0.071-0.122c0.054-0.087,0.129-0.328,0.159-0.583c0.07-0.519,0.074-1.126,0.018-1.74      c-0.075-1.222-0.277-2.514-0.536-3.722l-1.754-8.152l3.978,7.426c0.527,0.984,1.157,2.03,1.864,2.889      c0.687,0.85,1.556,1.644,2.191,1.77c0.675,0.046,0.75,0.087,0.918-0.959c0.072-0.957-0.213-2.174-0.528-3.219l-0.651-2.165      l1.972,0.837c0.668,0.283,1.599,0.486,2.449,0.55c0.871,0.079,1.768,0.083,2.655-0.065c1.796-0.219,3.53-0.956,5.19-1.917      c-0.658,0.695-1.383,1.354-2.219,1.87c-0.812,0.555-1.722,0.979-2.673,1.31c-0.958,0.311-1.97,0.483-2.995,0.53      c-1.045,0.021-2.017-0.043-3.149-0.373l1.321-1.328c0.523,1.278,0.906,2.503,0.944,4.035c-0.009,0.739-0.105,1.711-0.909,2.541      c-0.837,0.814-1.927,0.921-2.821,0.752c-1.823-0.438-2.776-1.603-3.624-2.637c-0.833-1.087-1.492-2.177-2.07-3.413l2.224-0.726      c0.198,1.386,0.328,2.716,0.308,4.13c-0.019,0.701-0.085,1.421-0.282,2.19c-0.108,0.381-0.231,0.795-0.576,1.229      c-0.261,0.46-1.057,0.785-1.615,0.687c-1.006-0.17-1.578-0.736-2.087-1.247c-0.502-0.528-0.878-1.119-1.219-1.71      C237.748,300.071,237.199,298.849,236.829,297.565z"/>
			</g>
		</g>
		<g style="opacity:0.48;">
			<g>
				<path style="fill:#AF312F;" d="M202.833,152.577c3.045,0.492,5.958,1.696,8.642,3.251c2.705,1.54,5.16,3.528,7.302,5.81      c2.115,2.3,3.982,4.863,5.278,7.705c1.415,2.778,2.205,5.828,2.612,8.856c-1.409-2.745-2.658-5.444-4.314-7.908      c-1.563-2.505-3.385-4.82-5.396-6.947C212.977,159.025,208.181,155.521,202.833,152.577z"/>
			</g>
		</g>
		<g>
			<path style="fill:#AF312F;" d="M132.773,179.113c6.174,1.826,11.74,5.678,15.903,10.62c0.898,1.075,1.786,2.337,1.668,3.711     c-0.129,1.463-1.37,2.622-2.761,3.076c-1.38,0.464-2.895,0.351-4.339,0.198c-6.757-0.758-12.709-1.745-18.723-0.357     C126.463,190.612,129.121,184.698,132.773,179.113z"/>
		</g>
		<g>
			<path style="fill:#AF312F;" d="M369.848,207.852c8.705-8.117,20.295-12.781,32.167-13.685     c7.644,11.854,12.279,23.93,14.637,35.67c-4.332-1.908-8.836-3.246-14.106-3.681c-11.076-0.935-23.364,1.5-32.472-4.892     c-2.147-1.526-4.117-3.753-4.176-6.399C365.837,212.099,367.832,209.752,369.848,207.852z"/>
		</g>
		<g>
			<path style="fill:#AF312F;" d="M363.753,155.764c6.897,4.797,13.036,9.763,18.446,14.861c-5.202,3.295-9.742,7.519-14.479,11.394     c-3.182,2.59-7.442,5.157-11.123,3.368c-2.642-1.269-3.906-4.448-3.755-7.36c0.129-2.909,1.397-5.651,2.69-8.274     C357.914,164.915,360.513,160.05,363.753,155.764z"/>
		</g>
		<g>
			<path style="fill:#AF312F;" d="M312.654,131.002c9.377,2.654,19.189,6.45,29.35,11.673c-2.204,4.236-4.652,8.359-7.112,12.473     c-3.122,5.257-5.679,11.367-10.099,15.686c-3.285,3.194-6.993,4.609-11.034,2.031c-5.173-3.329-3.033-10.627-2.736-15.673     c0.443-7.278,0.876-14.544,1.296-21.819C312.398,133.949,312.506,132.489,312.654,131.002z"/>
		</g>
		<g>
			<path style="fill:#AF312F;" d="M258.037,127.276c9.12-1.36,19.148-1.832,29.955-0.854c-0.23,5.235-0.694,10.444-1.415,15.607     c-0.878,6.311-2.103,12.566-3.679,18.721c-1.026,4.005-2.876,8.637-6.908,9.466c-3.488,0.709-6.912-2.033-8.349-5.289     c-1.428-3.269-1.415-6.954-1.669-10.497c-0.492-7.033-2.169-13.977-4.93-20.46C260.089,131.718,258.999,129.516,258.037,127.276z     "/>
		</g>
		<g>
			<path style="fill:#AF312F;" d="M217.733,140.491c5.09-2.679,11.241-5.465,18.358-7.886c1.525,2.446,2.761,5.135,3.832,7.811     c1.357,3.409,2.518,7.017,2.272,10.675c-0.234,3.668-2.136,7.418-5.48,8.942c-0.581,0.268-1.214,0.477-1.853,0.445     c-1.433-0.067-2.551-1.236-3.454-2.354c-3.683-4.508-6.643-9.564-10.356-14.057C220.02,142.811,218.91,141.608,217.733,140.491z"/>
		</g>
		<g>
			<path style="fill:#AF312F;" d="M385.314,257.485c10.502,0.72,22.051,3.472,32.228,6.851c-1.083,7.422-2.923,14.387-5.281,20.692     c-5.028-2.316-10.035-4.734-15.036-6.911c-5.958-2.576-11.977-5.199-17.185-9.083     C372.824,263.672,377.488,256.945,385.314,257.485z"/>
		</g>
		<g>
			<path style="fill:#AF312F;" d="M364.671,298.634c1.124-1.31,3.059-1.534,4.771-1.424c4.341,0.273,8.487,2.094,12.046,4.588     c4.723,3.329,8.624,7.733,12.227,12.218c-5.234,4.56-10.508,8.522-15.779,11.881c-2.144-4.026-4.472-7.942-6.994-11.736     C368.42,310.369,360.461,303.508,364.671,298.634z"/>
		</g>
	</g>
	<g>
		<g>
			<path style="fill:#6CE1C1;" d="M501.828,219.91c0,9.736-4.083,18.524-10.636,24.751c-6.102,5.807-14.378,9.378-23.492,9.378     c-8.587,0-16.443-3.168-22.437-8.416c-7.174-6.258-11.692-15.45-11.692-25.713c0-18.865,15.279-34.144,34.129-34.144     C486.55,185.766,501.828,201.045,501.828,219.91z"/>
		</g>
		<g>
			<path style="fill:#FFFFFF;" d="M480.005,212.796c0,6.796-5.509,12.305-12.305,12.305s-12.305-5.509-12.305-12.305     c0-6.796,5.509-12.305,12.305-12.305S480.005,206,480.005,212.796z"/>
		</g>
		<g>
			<path style="fill:#FFFFFF;" d="M491.192,244.661c-6.102,5.807-14.378,9.378-23.492,9.378c-8.587,0-16.443-3.168-22.437-8.416     c2.453-7.857,7.204-18.648,15.419-22.716c2.112-1.056,4.441-1.661,7.018-1.661c2.608-0.109,5.015,0.451,7.22,1.522     C482.854,226.587,488.164,236.82,491.192,244.661z"/>
		</g>
	</g>
	<g>
		<g>
			<path style="fill:#FF5555;" d="M100.392,176.446c-5.782,0-11.352-2.091-15.688-5.887c-5.195-4.532-8.176-11.084-8.176-17.977     c0-13.163,10.706-23.874,23.864-23.874s23.864,10.711,23.864,23.874c0,6.604-2.642,12.749-7.437,17.305     C112.377,174.116,106.542,176.446,100.392,176.446z M100.392,131.204c-11.783,0-21.368,9.59-21.368,21.378     c0,6.172,2.669,12.039,7.323,16.098c3.881,3.398,8.87,5.27,14.046,5.27c5.507,0,10.73-2.084,14.706-5.872     c4.298-4.081,6.662-9.585,6.662-15.496C121.76,140.794,112.175,131.204,100.392,131.204z"/>
		</g>
		<g>
			<path style="fill:#FF5555;" d="M105.176,154.475c-0.004-0.002-0.009-0.003-0.013-0.005c2.046-1.481,3.383-3.883,3.383-6.602     c0-4.503-3.651-8.154-8.154-8.154c-4.503,0-8.154,3.651-8.154,8.154c0,2.776,1.39,5.225,3.51,6.697     c-0.002,0.001-0.004,0.002-0.007,0.003c-5.443,2.696-8.591,9.847-10.217,15.053c3.972,3.478,9.178,5.577,14.868,5.577     c6.04,0,11.524-2.367,15.567-6.215C113.953,163.786,110.434,157.006,105.176,154.475z"/>
		</g>
	</g>
	<g>
		<g>
			<path style="fill:#FF5555;" d="M56.595,210.666c-7.618,0-13.814-6.196-13.814-13.814s6.196-13.814,13.814-13.814     s13.814,6.196,13.814,13.814S64.213,210.666,56.595,210.666z M56.595,185.534c-6.24,0-11.318,5.078-11.318,11.318     s5.078,11.318,11.318,11.318s11.318-5.078,11.318-11.318S62.835,185.534,56.595,185.534z"/>
		</g>
		<g>
			<path style="fill:#FF5555;" d="M79.15,223.829c-0.332,0-0.663-0.132-0.909-0.392l-14.869-15.803     c-0.473-0.502-0.449-1.292,0.054-1.765c0.502-0.47,1.289-0.449,1.765,0.054l14.869,15.803c0.473,0.502,0.449,1.292-0.054,1.765     C79.765,223.717,79.457,223.829,79.15,223.829z"/>
		</g>
	</g>
</g>















</svg>
