<?xml version="1.0" encoding="UTF-8"?>
<!-- Generator: Adobe Illustrator 25.2.3, SVG Export Plug-In . SVG Version: 6.00 Build 0)  -->
<svg xmlns="http://www.w3.org/2000/svg" xmlns:xlink="http://www.w3.org/1999/xlink" version="1.1" id="Capa_1" x="0px" y="0px" viewBox="0 0 512 512" style="enable-background:new 0 0 512 512;" xml:space="preserve" width="512" height="512">
<g>
	<path style="fill:#9CF0E7;" d="M361.336,54.305c-44.987-9.011-76.09,19.189-113.606,37.893   c-43.537,21.706-90.35,28.738-136.609,41.814C52.346,150.626-4.228,188.692,2.481,257.285c4.044,41.345,30.68,80.531,62.901,105.7   c47.133,36.817,108.751,53.09,167.619,56.745c10.353,0.643,20.733,0.874,31.105,0.672c54.356-1.06,109.475-18.762,149.293-56.846   c50.063-47.883,79.042-126.763,68.346-195.711C472.433,107.823,418.667,65.789,361.336,54.305z"/>
	<g>
		<g>
			<path style="fill:#FF9D3D;" d="M365.923,343.852c0,0,19.13-5.707,20.932-17.31c1.802-11.603-17.86-51.013-2.861-77.037     c16.997-29.491,54.324-48.441,64.785-34.131c10.461,14.31-25.926,24.02-38.79,38.15c-22.79,25.033-9.726,44.2-5.341,61.651     c4.384,17.451,0.074,43.497-32.129,53.662C347.795,376.641,365.923,343.852,365.923,343.852z"/>
			<g>
				<path style="opacity:0.2;fill:#AF312F;" d="M440.199,233.174c-0.277,0.198-0.575,0.377-0.872,0.575      c-6.306,4.144-14.198,8.229-20.741,12.671c-3.351,2.261-6.326,4.62-8.606,7.099c-13.623,14.971-14.416,27.86-11.917,39.519      c1.666,7.833,4.838,15.13,6.603,22.129c1.269,5.096,1.804,10.946,1.13,16.894c-0.952,8.209-4.203,16.657-11.084,23.736v0.02      c-5.156,5.374-12.373,9.915-22.189,13.028c-24.727,7.793-6.603-25.005-6.603-25.005s19.135-5.691,20.92-17.291      c0.674-4.382-1.666-12.671-4.065-22.685c-0.635-2.657-1.27-5.453-1.864-8.308c-1.705-8.249-2.974-17.172-2.479-25.818      c0.397-7.118,2.003-14.059,5.552-20.226c7-12.155,17.43-22.486,28.039-29.446c1.606-1.071,3.232-2.062,4.858-2.974      c0.119-0.059,0.258-0.139,0.377-0.198c13.345-7.416,26.075-8.963,31.509-1.507C453.603,221.99,448.428,227.622,440.199,233.174z      "/>
				<path style="fill:#AF312F;" d="M394.719,355.8c-0.972-1.048-1.834-2.265-2.59-3.618c-1.484-2.668-2.09-5.759-2.107-8.826      c-0.028-1.681,0.155-3.413,0.883-4.944c1.557-3.282,5.283-4.924,8.837-5.678c1.979-0.422,4.012-0.65,6.048-0.674      C404.84,340.278,401.588,348.717,394.719,355.8z"/>
				<path style="fill:#AF312F;" d="M440.196,233.171c-0.284,0.193-0.568,0.386-0.868,0.577c-3.045-4.84,2.401-9.399,2.401-9.399      c-6.855,1.294-18.976-2.121-24.467-7.458c13.337-7.404,26.074-8.957,31.51-1.512C453.61,221.986,448.437,227.62,440.196,233.171      z"/>
			</g>
		</g>
		<g>
			<path style="fill:#FF9D3D;" d="M459.373,160.937c4.64-17.787-14.852-15.804-14.852-15.804     c-8.665-5.334-14.713-0.892-25.282,8.407c-2.32,2.042-5.493,5.017-9.439,8.15c-3.589,2.855-7.693,5.969-11.897,9.121     c-8.368,6.207-17.172,12.433-23.24,16.676c-4.699,3.272-7.773,5.374-7.773,5.374l-3.966,2.836l-7.1,5.083     c1.903-2.659,3.591-5.419,5.018-8.295c3.093-6.226,5.116-12.929,6.167-20.008c0.298-2.022,0.516-4.065,0.654-6.167     c0.079-0.991,0.119-2.003,0.159-2.994v-0.119c0.198-6.068-0.218-12.354-1.21-18.798c-0.079-0.496-0.138-0.952-0.238-1.448     c-0.119-0.813-0.277-1.646-0.436-2.479c-0.099-0.515-0.199-1.011-0.318-1.507c-1.149-5.336-3.17-10.324-6.059-15.009     c0.004,0.001,0.023,0.006,0.026,0.006c-0.368-0.703-12.701-23.211-16.417-33.972c-3.782-10.911-6.025-24.951-12.467-25.403     h-0.017c-5.84-0.401-19.178,11.965-22.14,26.223c-0.001,0.004-0.001,0.008-0.002,0.012c-3.089-0.915-6.278-1.783-9.61-2.581     c-0.496-0.099-1.011-0.238-1.527-0.337c-0.278-0.059-0.555-0.139-0.852-0.198c-4.6-1.071-9.419-2.003-14.456-2.816h-0.02     c-0.416-0.059-0.833-0.139-1.269-0.198c-1.705-0.278-3.45-0.536-5.215-0.774c-0.079-0.02-0.139-0.02-0.218-0.04     c-9.26-1.269-19.234-2.201-29.902-2.737c-0.635-0.04-1.269-0.059-1.904-0.099c-0.377-0.02-0.733-0.04-1.09-0.059     c-0.179,0-0.357-0.02-0.536-0.02c-1.091-0.04-2.181-0.079-3.212-0.099c-2.776-0.059-5.473-0.059-8.09-0.02     c-0.536,0.02-1.071,0.02-1.587,0.04c-0.001,0-0.001,0-0.002,0l-0.417-0.416c-1.757-1.824-4-4.502-4.267-4.803     c-3.464-4.067-5.523-9.405-8.552-13.773c-4.401-6.359-11.262-11.028-19.496-9.522c-0.519,0.1-0.987,0.301-1.439,0.636     c-1.155,0.837-2.125,2.393-2.895,4.452c-2.778,7.38-2.946,21.002-0.218,29.286c0.05,0.167,0.117,0.351,0.184,0.519     c0.001,0.002,0.002,0.004,0.003,0.007c-0.001,0-0.001,0-0.002,0.001c-15.487,5.592-25.937,14.475-33.095,24.866     c-0.496,0.714-0.952,1.448-1.428,2.181c-1.884,2.974-3.49,6.048-4.918,9.181c-0.079,0.139-0.139,0.297-0.178,0.456     c-0.734,1.586-1.388,3.192-1.983,4.818c-0.278,0.754-0.555,1.487-0.813,2.241c-1.289,3.807-2.36,7.674-3.212,11.54     c-0.119,0.436-0.198,0.873-0.278,1.289c-0.099,0.456-0.178,0.892-0.258,1.329c-0.416,2.042-0.714,4.085-0.932,6.048     c-0.02,0.099-0.02,0.178-0.04,0.297c-0.278,2.459-0.436,4.878-0.476,7.218c-0.02,1.071-0.02,2.122,0,3.173     c0.317,17.37,6.306,30.478,10.232,37.219c0.228,0.391,0.447,0.758,0.659,1.106c-13.441,18.916-20.103,45.429-20.103,45.429V285.9     l23.091,42.884c-1.764,20.341-1.208,41.592-0.019,59.236c0.253,3.686,0.536,7.19,0.83,10.517     c0.324,13.193,2.251,25.051,2.251,25.051l1.249,4.728c0.003,0.02,0.012,0.076,0.012,0.076l0.007-0.006l2.965,11.225     c0,0-9.373,5.684-9.373,11.791c0,3.024,37.792,16.023,58.955,2.419c0,0,7.634-16.764,7.014-41.446     c10.159,1.855,22.211,3.038,35.156,2.217c6.742-0.436,19.353-1.071,28.593-2.479c0.575-0.099,1.15-0.178,1.705-0.278     c0.139,4.561,1.229,10.569,1.646,16.2v7.496c0,0-8.249,7.099-8.903,12.849c-0.218,2.062,3.708,5.493,11.065,8.011     c5.057,1.745,11.739,3.054,19.79,3.193c12.849,0.238,29.188-2.499,48.026-11.204c0,0,1.963-10.133,4.204-24.588     c1.071-7,2.221-15.031,3.252-23.399c0.932-7.575,1.745-15.407,2.32-23.061c0.575-7.535,0.892-14.852,0.853-21.535     c0-0.119,0-0.238-0.02-0.357c0.02-1.031,0.04-2.082,0.04-3.113c0.02-6.127-0.159-12.274-0.476-18.342     c-0.317-6.246-0.793-12.393-1.368-18.381c-0.397-4.105-0.833-8.11-1.309-11.997c-0.853-6.999-1.824-13.583-2.776-19.591     c-1.181-7.371-2.374-13.852-3.41-19.104c19.544-9.626,37.483-21.175,52.606-32.868c0.754-0.575,1.507-1.15,2.261-1.745     c2.737-2.162,5.374-4.323,7.892-6.464c0.833-0.714,1.646-1.408,2.459-2.102c19.73-17.113,33.035-32.817,35.851-41.899     C466.988,162.424,459.373,160.937,459.373,160.937z"/>
			<path style="fill:#AF312F;" d="M390.185,219.656c-1.587,4.065-11.699,4.938-19.77-6.187c-4.283-5.889-6.464-13.166-7.496-17.767     l3.966-2.835c0,0,3.074-2.102,7.773-5.374C377.276,203.714,391.652,215.948,390.185,219.656z"/>
			<path style="fill:#AF312F;" d="M425.723,221.733c-0.813,0.694-1.626,1.388-2.459,2.102c-2.518,2.142-5.155,4.303-7.892,6.464     c-0.753,0.595-1.507,1.17-2.26,1.745c-1.111-1.983-2.102-4.045-2.974-6.207c-0.873-2.181-1.685-4.442-1.725-7.238     c-0.02-1.904,0.575-4.521,2.558-6.425c2.558-2.439,5.017-1.646,6.405-0.416C420.588,214.614,422.848,218.52,425.723,221.733z"/>
			<path style="fill:#AF312F;" d="M426.338,200.297c1.003-1.168,1.348-2.803,1.226-4.336c-0.505-6.525-4.192-13.864-7.227-19.537     c-2.836-5.342-6.36-10.332-10.534-14.734c-3.598,2.853-7.701,5.976-11.909,9.118c1.006,0.884,1.922,1.666,2.607,2.357     c3.752,3.742,6.467,8.132,9.113,12.573c1.583,2.661,3.133,5.359,4.878,7.962C416.502,196.711,422.166,205.097,426.338,200.297z"/>
			<path style="fill:#FFC893;" d="M451.315,161.471c-1.61-2.508-4.439-4.064-7.366-4.623c-3.972-0.759-8.456,0.052-12.232,1.391     c-2.334,0.828-5.132,2.423-5.758,4.994c-0.223,0.914-0.094,1.909,0.354,2.737c1.28,2.365,4.655,2.678,7.038,2.751     c3.053,0.093,3.418,2.546,4.554,4.877c0.743,1.523,1.626,3.132,3.128,4.026c4.228,2.515,8.641-1.145,10.266-5.005     C452.821,169.003,453.504,164.879,451.315,161.471z"/>
			<path style="fill:#FFC893;" d="M453.084,149.241c-0.576-0.449-1.374-0.526-2.089-0.375c-0.715,0.151-1.368,0.503-2.01,0.852     c-0.288,0.156-0.581,0.316-0.802,0.557c-0.516,0.56-0.527,1.434-0.291,2.158c0.449,1.376,1.627,2.395,2.885,3.11     c0.663,0.377,1.388,0.696,2.151,0.708C456.721,156.31,454.802,150.578,453.084,149.241z"/>
			<path style="fill:#FFC893;" d="M431.397,150.596c-0.011,0.357,0.104,0.708,0.262,1.028c0.57,1.147,1.758,1.963,3.033,2.085     c2.6,0.248,5.311-2.803,3.035-4.991C436.063,147.118,431.479,147.888,431.397,150.596z"/>
			<path style="fill:#FFC893;" d="M455.373,169.54c0.342,0.658,1.001,1.183,1.742,1.214c0.47,0.019,0.933-0.157,1.322-0.422     c1.531-1.04,2.103-4.59-0.235-5.113C456.06,164.741,454.496,167.851,455.373,169.54z"/>
		</g>
		<g>
			<path style="fill:#AF312F;" d="M173.692,458.116c-0.277-0.807-0.304-1.671-0.195-2.515c0.106-0.848,0.4-1.679,0.836-2.441     c0.443-0.757,1.077-1.418,1.825-1.874c0.728-0.49,1.605-0.698,2.438-0.723c-0.672,0.534-1.311,0.952-1.824,1.509     c-0.517,0.536-0.987,1.094-1.341,1.741C174.67,455.079,174.195,456.518,173.692,458.116z"/>
			<path style="fill:#AF312F;" d="M161.721,454.712c-0.242-0.751-0.27-1.533-0.197-2.303c0.073-0.772,0.275-1.538,0.611-2.263     c0.356-0.713,0.838-1.39,1.48-1.897c0.65-0.5,1.449-0.791,2.229-0.784c-0.614,0.504-1.11,0.967-1.53,1.496     c-0.394,0.55-0.738,1.116-1.026,1.733c-0.309,0.607-0.537,1.266-0.795,1.932C162.25,453.298,162.008,453.985,161.721,454.712z"/>
			<path style="opacity:0.48;fill:#AF312F;" d="M178.596,429.056c0.228,0.918,0.495,1.823,0.823,2.694     c0.341,0.851,0.757,1.732,1.351,2.296c0.556,0.587,1.412,0.355,2.013-0.191c0.613-0.545,1.065-1.372,1.39-2.144l0.531-1.261     l0.501,1.283c0.372,0.955,0.826,1.915,1.326,2.816c0.497,0.9,1.066,1.771,1.745,2.436c0.347,0.312,0.714,0.551,1.067,0.653     c0.408,0.103,0.803,0.073,1.178-0.081c0.751-0.31,1.397-1.159,1.789-1.978l0.866-1.811l0.27,1.961     c0.132,0.961,0.513,2.002,0.991,2.922c0.489,0.929,1.111,1.806,1.895,2.53c0.79,0.707,1.657,1.364,2.637,1.841     c0.468,0.286,1,0.432,1.503,0.658l1.583,0.498c-0.546-0.085-1.108-0.13-1.654-0.252c-0.533-0.164-1.1-0.249-1.616-0.482     c-1.082-0.351-2.064-0.969-2.967-1.678c-0.904-0.718-1.659-1.621-2.276-2.606c-0.617-1.003-1.04-2.066-1.269-3.292l1.136,0.15     c-0.477,1.101-1.173,2.112-2.395,2.689c-0.607,0.268-1.331,0.324-1.962,0.168c-0.687-0.174-1.21-0.572-1.65-0.976     c-0.839-0.845-1.425-1.801-1.949-2.771c-0.501-0.986-0.923-1.98-1.287-3.029l1.032,0.021c-0.433,0.945-0.997,1.773-1.837,2.444     c-0.42,0.322-0.947,0.58-1.524,0.615c-0.28,0.011-0.57-0.016-0.871-0.133c-0.269-0.126-0.513-0.297-0.687-0.499     c-0.732-0.798-0.975-1.762-1.237-2.677C178.81,430.941,178.658,430.001,178.596,429.056z"/>
			<path style="opacity:0.48;fill:#AF312F;" d="M165.522,439.611c3.762-0.594,7.617-0.338,11.354,0.38     c1.87,0.371,3.714,0.889,5.493,1.578c1.794,0.646,3.481,1.578,5.068,2.609c-1.811-0.586-3.575-1.187-5.38-1.661     c-1.798-0.482-3.601-0.933-5.43-1.273c-1.821-0.374-3.659-0.672-5.508-0.942C169.268,440.053,167.41,439.803,165.522,439.611z"/>
		</g>
		<path style="fill:#FFC893;" d="M289.218,410.105c-0.456,0.515-1.109,1.234-1.645,1.73c-9.24,1.408-23.557,2.32-30.299,2.756    c-36.248,2.3-65.575-11.084-65.575-11.084l-4.799,4.105c-10.728-5.513-20.424-12.393-28.693-19.591    c-18.441-16.042-29.843-33.67-29.843-41.364c0-22.565,18.263-88.636,18.263-88.636s40.868-46.737,104.222-25.778    c7.793,2.578,14.693,6.702,20.721,12.036C314.502,282.211,315.551,380.361,289.218,410.105z"/>
		<path style="fill:#AF312F;" d="M318.505,94.176c-5.539-2.293-9.74-3.297-9.957-3.364c2.962-14.258,16.299-26.625,22.14-26.223    h0.017c0.82,3.313,1.774,7.28-0.719,15.798c-0.251,0.837-0.435,1.657-0.586,2.46C327.106,94.744,323.776,96.368,318.505,94.176z"/>
		<path style="opacity:0.48;fill:#EB4949;" d="M288.008,180.627c-3.915,2.311-4.851,7.553-0.757,10.512    c5.482,3.961,16.349,4.061,21.759-0.111c4.567-3.522,2.406-10.661-2.193-12.229c-3.888-1.325-8.114-1.259-12.067-0.447    C292.913,178.73,290.203,179.332,288.008,180.627z"/>
		<path style="opacity:0.48;fill:#EB4949;" d="M193.677,168.954c3.248,3.18,2.902,8.495-1.782,10.387    c-6.271,2.534-16.846,0.029-21.1-5.316c-3.591-4.512,0.215-10.927,5.056-11.348c4.092-0.356,8.18,0.719,11.823,2.455    C189.369,165.938,191.856,167.171,193.677,168.954z"/>
		<path style="fill:#AF312F;" d="M275.597,83.599c-4.64,5.453-8.328,12.017-11.421,17.271c-2.201,3.728-4.224,7.575-6.088,11.481    c-1.428,2.935-3.966,5.87-7.416,6.345c-4.303,0.595-8.169-2.181-10.351-5.711c-2.736-4.422-2.836-9.677-2.062-14.674    c0.952-6.266,3.55-12.235,7.218-17.489c10.668,0.536,20.642,1.467,29.902,2.737C275.458,83.579,275.517,83.579,275.597,83.599z"/>
		<path style="fill:#FFFFFF;" d="M226.456,271.727c-0.107,0-0.108,0.167,0,0.167S226.564,271.727,226.456,271.727z"/>
		<path style="fill:#AF312F;" d="M159.19,149.333c-4.669,0.385-9.338-1.54-13.404-4.167c0.084-0.435,0.167-0.87,0.268-1.322    c0.084-0.418,0.167-0.854,0.268-1.289c0.87-3.865,1.925-7.731,3.23-11.547C157.801,139.744,167.943,148.597,159.19,149.333z"/>
		<path style="fill:#AF312F;" d="M156.529,161.148c-3.18,1.557-7.832,1.439-12.183,0.753c-0.017-1.037-0.017-2.092,0-3.163    c0.05-2.343,0.201-4.753,0.485-7.23c0.017-0.1,0.017-0.184,0.033-0.285C153.668,154.437,162.136,158.403,156.529,161.148z"/>
		<path style="fill:#AF312F;" d="M159.759,128.448c-2.527-0.569-5.087-2.326-7.43-4.502c0.05-0.151,0.117-0.301,0.184-0.452    c1.422-3.129,3.046-6.208,4.92-9.171C162.035,122.039,165.616,129.77,159.759,128.448z"/>
		<path style="fill:#AF312F;" d="M296.556,87.397c-4.382,4.937-8.963,11.481-12.334,12.195c-7.277,1.527-10.133-5.592-5.334-12.79    c0.575-0.872,1.229-1.685,1.924-2.419c0.436,0.059,0.853,0.139,1.269,0.198h0.02C287.138,85.394,291.956,86.326,296.556,87.397z"/>
		<path style="fill:#AF312F;" d="M241.947,80.765c-3.45,4.799-7.118,11.362-10.549,12.453c-5.79,1.884-10.232-2.677-7.714-5.85    c2.201-2.816,4.7-5.037,6.96-6.722c2.617-0.04,5.314-0.04,8.09,0.02C239.765,80.686,240.856,80.725,241.947,80.765z"/>
		<path style="opacity:0.48;fill:#AF312F;" d="M150.715,191.44c1.104,2.188,2.215,4.368,3.425,6.485    c0.592,1.065,1.212,2.112,1.871,3.125c0.661,0.998,1.383,2.004,2.214,2.726l0.207,0.18l-0.03,0.295    c-0.104,1.025-0.152,2.101-0.05,3.114c0.083,0.981,0.425,2.084,0.997,2.243c0.27,0.082,0.427,0.046,0.694-0.302    c0.237-0.337,0.416-0.809,0.556-1.286c0.277-0.967,0.409-2.038,0.489-3.057l0.204-2.618l1.018,2.407    c0.439,1.039,0.956,2.085,1.526,3.068c0.573,0.979,1.207,1.943,1.97,2.681c0.373,0.372,0.807,0.671,1.196,0.735    c0.43,0.072,0.799,0.001,0.95-0.307c0.384-0.711,0.182-2.013-0.106-3.024l-0.376-1.318l1.067,0.809    c1.541,1.168,3.196,2.225,4.868,3.226c1.68,0.997,3.433,1.87,5.291,2.521c-1.931-0.407-3.771-1.18-5.555-2.029    c-1.78-0.872-3.475-1.883-5.135-2.992l0.69-0.509c0.209,0.599,0.356,1.181,0.441,1.811c0.064,0.624,0.113,1.304-0.24,2.032    c-0.186,0.351-0.542,0.689-0.94,0.808c-0.2,0.077-0.394,0.118-0.578,0.116c-0.188,0.02-0.376,0.019-0.566-0.03    c-0.774-0.13-1.339-0.559-1.806-0.984c-0.951-0.868-1.626-1.885-2.241-2.919c-0.614-1.04-1.148-2.094-1.631-3.21l1.222-0.211    c-0.07,1.14-0.232,2.23-0.552,3.348c-0.175,0.555-0.37,1.117-0.762,1.668c-0.118,0.135-0.23,0.271-0.362,0.398    c-0.168,0.113-0.318,0.246-0.517,0.319c-0.412,0.162-0.869,0.145-1.235,0.001c-0.772-0.28-1.176-0.979-1.384-1.548    c-0.211-0.593-0.286-1.174-0.338-1.747c-0.074-1.148-0.016-2.249,0.16-3.371l0.176,0.474c-0.971-0.942-1.62-2.001-2.258-3.068    c-0.622-1.073-1.193-2.165-1.734-3.269C152.512,196.003,151.541,193.749,150.715,191.44z"/>
		<g>
			<g>
				<path style="fill:#FFFFFF;" d="M313.486,170.678c-8.049,4.602-20.149,5.372-28.532,1.305c-1.791-0.87-3.431-1.991-4.87-3.397      c-6.225-6.142-9.204-16.283-8.535-24.935c0-0.201,0.017-0.402,0.033-0.603c0.837-8.719,6.477-16.216,14.425-19.78      c9.305-4.167,22.709-4.753,30.39,2.912c3.029,3.029,5.288,7.079,6.66,11.547h0.017      C326.773,149.626,324.263,164.503,313.486,170.678z"/>
				<path style="fill:#AF312F;" d="M313.486,170.678c-4.554,2.593-9.792,3.786-15.006,4.026c-2.616,0.104-5.249-0.08-7.828-0.591      c-2.578-0.501-5.12-1.33-7.443-2.643c-2.329-1.306-4.323-3.19-5.941-5.298c-1.636-2.108-2.96-4.447-4.003-6.902      c-2.071-4.918-3.04-10.302-2.786-15.701l-0.003,0.083c0.33-6.424,3.207-12.438,7.842-16.757c2.3-2.144,4.985-3.924,7.903-5.079      c2.882-1.187,5.898-1.998,8.973-2.422c6.104-0.806,12.68-0.095,18.074,3.247c2.701,1.64,4.885,4.002,6.543,6.58      c1.684,2.586,2.896,5.431,3.734,8.358l-0.487-0.36l0.016,0l0.387,0.009l0.1,0.35c0.86,3.006,1.316,6.112,1.38,9.216      c0.052,3.104-0.267,6.211-1.017,9.212c-0.756,2.998-1.996,5.875-3.725,8.432C318.468,166.988,316.173,169.165,313.486,170.678z       M313.486,170.678c2.674-1.538,4.943-3.732,6.645-6.288c1.722-2.552,2.846-5.467,3.522-8.45c0.682-2.989,0.884-6.075,0.68-9.121      c-0.198-3.046-0.781-6.062-1.744-8.94l0.486,0.358l-0.016,0l-0.364,0.008l-0.124-0.369c-0.938-2.801-2.23-5.483-3.933-7.858      c-1.695-2.385-3.79-4.443-6.301-5.816c-2.496-1.407-5.302-2.202-8.154-2.571c-2.857-0.37-5.783-0.288-8.644,0.17      c-5.725,0.894-11.328,3.035-15.508,6.925c-1.044,0.97-1.993,2.038-2.86,3.169c-0.826,1.159-1.612,2.353-2.242,3.634      c-0.624,1.279-1.179,2.603-1.545,3.984c-0.223,0.68-0.332,1.388-0.496,2.084c-0.088,0.682-0.242,1.461-0.266,2.053l-0.003,0.083      c-0.46,5.017,0.222,10.211,1.998,15c0.893,2.392,2.063,4.688,3.539,6.776c1.469,2.096,3.267,3.954,5.447,5.308      c4.376,2.711,9.693,3.755,14.873,3.684C303.673,174.43,308.908,173.202,313.486,170.678z"/>
			</g>
			<path style="fill:#AF312F;" d="M295.699,167.341c6.915,1.012,14.638-1.627,18.798-7.413c6.627-9.219,3.805-23.62-5.92-29.383     c-5.221-3.094-12.356-3.762-17.995-1.429c-15.069,6.235-13.879,29.217-0.326,36.474     C291.926,166.485,293.775,167.06,295.699,167.341z"/>
			<path style="opacity:0.21;fill:#AF312F;" d="M323.058,137.728c-30.441-14.425-49.234,3.565-51.51,5.924     c0-0.201,0.017-0.402,0.033-0.603c0.837-8.719,6.477-16.216,14.425-19.78c9.305-4.167,22.709-4.753,30.39,2.912     C319.427,129.21,321.686,133.259,323.058,137.728z"/>
		</g>
		<g>
			<g>
				<path style="fill:#FFFFFF;" d="M210.806,155.519c-3.866,7.045-12.702,9.723-20.232,9.455c-1.037-0.05-2.058-0.184-3.046-0.418      c-11.949-2.795-18.977-18.977-14.542-30.323c0.435-1.172,1.021-2.293,1.723-3.347c6.192-9.204,22.04-12.685,31.277-6.192      c2.226,1.589,3.665,4.116,4.686,6.593c0.703,1.69,1.289,3.581,1.724,5.573C213.801,143.102,213.684,150.281,210.806,155.519z"/>
				<path style="fill:#AF312F;" d="M210.806,155.519c-0.705,1.227-1.529,2.389-2.524,3.403c-1.008,0.993-2.106,1.907-3.322,2.64      c-2.414,1.491-5.113,2.522-7.904,3.086c-1.394,0.291-2.809,0.501-4.235,0.591c-1.421,0.101-2.87,0.126-4.31-0.08      c-2.862-0.468-5.635-1.596-7.988-3.339c-4.747-3.468-7.9-8.807-9.318-14.498c-0.677-2.864-0.935-5.862-0.57-8.84l0.417-2.214      c0.187-0.726,0.438-1.438,0.657-2.157c0.467-1.428,1.181-2.82,2.036-4.066c3.542-5.032,9.162-8.006,14.903-9.14      c2.889-0.575,5.87-0.653,8.779-0.231c2.903,0.429,5.753,1.408,8.203,3.05c1.274,0.744,2.349,1.888,3.183,3.076      c0.843,1.205,1.488,2.512,2.025,3.845c1.081,2.665,1.719,5.466,2.137,8.276c0.41,2.814,0.51,5.675,0.206,8.495      C212.888,150.23,212.18,153.035,210.806,155.519z M210.806,155.519c2.663-5.06,2.808-11.043,1.816-16.54      c-0.516-2.77-1.341-5.483-2.524-8.012c-1.183-2.503-2.763-4.9-5.155-6.158c-4.729-2.776-10.583-3.003-15.824-1.748      c-2.645,0.616-5.187,1.655-7.474,3.061c-2.288,1.396-4.32,3.206-5.789,5.364c-0.754,1.076-1.365,2.224-1.79,3.481      c-0.197,0.633-0.43,1.256-0.603,1.896l-0.392,1.955c-0.375,2.642-0.267,5.377,0.278,8.032      c1.053,5.291,3.684,10.484,7.953,13.964c2.111,1.753,4.644,2.955,7.339,3.557c1.354,0.272,2.753,0.327,4.157,0.306      c1.401-0.015,2.808-0.122,4.192-0.378c2.767-0.475,5.492-1.373,7.919-2.82c1.219-0.716,2.322-1.613,3.338-2.592      C209.251,157.889,210.087,156.738,210.806,155.519z"/>
			</g>
			<path style="fill:#AF312F;" d="M183.886,154.598c0.477,0.419,4.887,6.098,14.977,3.26c10.09-2.837,9.302-15.765,7.883-20.022     c-1.419-4.257-6.464-13.085-17.973-10.248C177.264,130.427,175.688,147.397,183.886,154.598z"/>
			<path style="opacity:0.21;fill:#AF312F;" d="M212.396,136.86c-13.304-8.1-30.541-5.071-39.41-2.627     c0.435-1.172,1.021-2.293,1.723-3.347c6.192-9.204,22.04-12.685,31.277-6.192c2.226,1.589,3.665,4.116,4.686,6.593     C211.375,132.978,211.961,134.869,212.396,136.86z"/>
		</g>
		<path style="fill:#AF312F;" d="M365.629,138.958c-28.633,15.864-37.57-3.263-25.956-6.276c7.782-2.025,14.994-6.175,19.747-8.986    C362.383,128.448,364.458,133.535,365.629,138.958z"/>
		<path style="fill:#AF312F;" d="M367.822,163.189v0.117c-0.067,0.552-0.1,1.088-0.151,1.623    c-10.442,3.899-23.161,5.974-33.051,1.54c-3.732-1.673-6.895-5.372-5.539-9.103c0.552-1.49,1.791-2.761,3.28-3.682    c4.401-2.744,10.409-3.18,15.647-3.715c5.957-0.619,13.053-3.146,18.609-5.573C367.604,150.839,368.023,157.131,367.822,163.189z"/>
		<path style="fill:#AF312F;" d="M367.002,172.477c-1.038,7.079-3.063,13.773-6.158,19.998c-7.129,1.155-14.777-0.519-20.902-4.184    c-2.728-1.64-5.138-4.267-4.435-7.681c0.921-4.518,6.962-4.987,10.626-4.903C356.074,175.941,363.22,173.916,367.002,172.477z"/>
		<g>
			<path style="fill:#AF312F;" d="M311.166,459.577c-0.719-1.163-1.274-2.547-1.311-4.019c-0.075-1.47,0.388-2.985,1.227-4.212     c0.852-1.227,2.016-2.165,3.271-2.837c1.257-0.676,2.606-1.118,3.988-1.329c-1.204,0.712-2.382,1.391-3.457,2.174     c-1.063,0.791-2.044,1.664-2.747,2.715c-0.727,1.032-1.157,2.236-1.288,3.516C310.703,456.872,310.932,458.203,311.166,459.577z"/>
			<path style="fill:#AF312F;" d="M291.388,456.382c-0.473-1.106-0.691-2.298-0.772-3.497c-0.078-1.202,0.01-2.426,0.305-3.622     c0.32-1.187,0.84-2.346,1.622-3.319c0.795-0.968,1.869-1.67,3.004-2.027c-0.879,0.829-1.626,1.648-2.188,2.601     c-0.528,0.967-0.929,1.985-1.2,3.06c-0.289,1.071-0.425,2.19-0.55,3.323C291.505,454.035,291.438,455.188,291.388,456.382z"/>
			<path style="opacity:0.48;fill:#AF312F;" d="M289.218,426.809c0.163,0.796,0.522,1.556,1.068,2.105     c0.546,0.562,1.324,0.777,2.073,0.732c0.753-0.058,1.451-0.341,1.914-0.9c0.464-0.537,0.744-1.297,0.829-1.99l0.117-0.955     l0.678,0.725c1.105,1.182,2.472,2.339,3.914,2.729c0.695,0.183,1.481,0.051,1.76-0.344c0.324-0.389,0.319-1.254,0.13-1.922     l-0.249-0.878l0.912,0.071c3.967,0.309,7.995,0.427,11.98,0.218c1.996-0.078,3.991-0.266,5.945-0.655     c1.957-0.359,3.908-0.872,5.674-1.87c-1.604,1.259-3.576,1.958-5.525,2.517c-1.973,0.524-3.992,0.844-6.015,1.053     c-2.025,0.195-4.059,0.292-6.09,0.273c-2.034-0.019-4.054-0.082-6.094-0.287l0.664-0.806c0.134,0.514,0.192,0.968,0.168,1.49     c-0.029,0.505-0.156,1.075-0.536,1.557c-0.378,0.493-0.979,0.737-1.491,0.804c-0.525,0.09-1.047,0.017-1.522-0.107     c-0.948-0.278-1.745-0.778-2.442-1.352c-0.7-0.583-1.31-1.214-1.879-1.929l0.794-0.23c-0.173,0.909-0.539,1.721-1.175,2.391     c-0.631,0.673-1.586,0.999-2.455,0.95c-0.868-0.031-1.768-0.399-2.301-1.083C289.514,428.454,289.268,427.619,289.218,426.809z"/>
			<path style="opacity:0.48;fill:#AF312F;" d="M289.218,435.523c2.917-0.506,5.882-0.672,8.844-0.699     c2.965-0.035,5.93,0.179,8.878,0.542c2.944,0.392,5.865,1.011,8.708,1.879c2.84,0.883,5.591,2.062,8.134,3.571     c-1.414-0.46-2.743-1.076-4.173-1.437c-1.382-0.482-2.806-0.827-4.221-1.185c-2.853-0.631-5.714-1.203-8.616-1.561     c-2.896-0.388-5.811-0.632-8.737-0.83c-1.463-0.097-2.93-0.161-4.398-0.191C292.167,435.533,290.697,435.542,289.218,435.523z"/>
		</g>
		<g>
			<path style="fill:#AF312F;" d="M150.265,178.105c4.441-1.51,8.966-2.643,13.512-3.683c4.555-1.002,9.13-1.91,13.791-2.436     c-4.44,1.513-8.965,2.645-13.512,3.683C159.501,176.668,154.925,177.575,150.265,178.105z"/>
			<path style="fill:#AF312F;" d="M148.053,166.683c4.513-0.406,9.017-0.425,13.52-0.349c4.502,0.115,9.001,0.327,13.492,0.929     c-4.513,0.409-9.018,0.427-13.52,0.349C157.044,167.495,152.545,167.282,148.053,166.683z"/>
			<path style="fill:#AF312F;" d="M151.605,152.683c4.232,1.62,8.286,3.584,12.296,5.632c3.993,2.083,7.941,4.251,11.709,6.767     c-4.233-1.617-8.286-3.582-12.296-5.632C159.323,157.365,155.375,155.196,151.605,152.683z"/>
		</g>
		<path style="fill:#FFFFFF;" d="M322.504,90.36c0,0-3.247-0.217-4.117-0.97c-0.887-0.753,4.117-0.87,4.117-0.87    c-2.493-1.071-4.535-3.999-3.681-4.05c0.87-0.067,3.782,2.109,3.782,2.109c-3.029-4.435-0.87-11.129,2.494-10.694    c1.439,0.184,2.996,3.38,4.301,6.961c-2.292,11.898,4.854,20.651,6.159,21.755c-5.322-4.836-11.782-8.234-17.053-10.426    C319.341,91.766,322.504,90.36,322.504,90.36z"/>
		<g>
			<path style="fill:#AF312F;" d="M240.458,144.061c0,0-3.951-5.722-6.267-4.904c-2.316,0.817,3.622,9.478,6.075,10.431     c2.452,0.954,8.638-7.298,7.412-9.069C246.452,138.748,240.458,144.061,240.458,144.061z"/>
			<path style="fill:#AF312F;" d="M245.862,180.197c-0.633-2.588-1.173-5.193-1.748-7.793l-1.555-7.832     c-0.523-2.611-0.938-5.241-1.376-7.869c-0.411-2.638-0.845-5.255-1.067-7.963l1.236,0.172c-1.728,4.846-3.271,9.772-4.784,14.695     c-0.752,2.464-1.481,4.937-2.129,7.431c-0.687,2.485-1.282,4.992-1.8,7.525c0.236-2.576,0.711-5.125,1.198-7.667     c0.523-2.536,1.154-5.046,1.794-7.554c0.628-2.512,1.391-4.984,2.141-7.46c0.762-2.474,1.545-4.934,2.378-7.393l1.001-2.951     l0.235,3.124c0.195,2.595,0.574,5.241,0.949,7.863l1.198,7.88l1.201,7.887L245.862,180.197z"/>
			<path style="opacity:0.48;fill:#AF312F;" d="M229.066,149.518c-4.27,0.647-8.497,2.929-11.217,6.788     c-3.942,5.593-5.182,12.899-1.131,18.572c2.514,3.521,6.273,5.623,10.107,7.019c7.347,2.675,14.833,4.814,22.693,3.276     c2.851-0.558,5.696-1.549,8.125-3.388c3.722-2.819,6.237-7.63,6.591-12.612c0.355-4.982-1.458-10.019-4.753-13.203     c-4.053-3.917-10.437-5.56-15.739-5.912C239.02,149.743,233.761,148.807,229.066,149.518z"/>
		</g>
		<g>
			<path style="fill:#AF312F;" d="M305.869,187.998c4.66,0.529,9.236,1.436,13.791,2.436c4.547,1.037,9.072,2.169,13.512,3.683     c-4.661-0.526-9.237-1.434-13.792-2.436C314.835,190.641,310.309,189.508,305.869,187.998z"/>
			<path style="fill:#AF312F;" d="M335.384,182.695c-4.491,0.599-8.991,0.811-13.493,0.929c-4.502,0.078-9.007,0.06-13.52-0.349     c4.491-0.602,8.991-0.814,13.492-0.929C326.367,182.27,330.871,182.289,335.384,182.695z"/>
			<path style="fill:#AF312F;" d="M331.832,168.694c-3.77,2.513-7.718,4.683-11.71,6.767c-4.009,2.051-8.063,4.015-12.296,5.632     c3.769-2.516,7.717-4.685,11.709-6.767C323.546,172.278,327.6,170.315,331.832,168.694z"/>
		</g>
		<path style="opacity:0.48;fill:#AF312F;" d="M215.235,257.872c-1.907-1.121-3.87-2.15-5.905-2.98    c-1.019-0.407-2.06-0.762-3.116-0.98c-1.037-0.199-2.17-0.323-3.022,0.111c-0.405,0.217-0.757,0.575-0.744,0.936    c-0.021,0.37,0.242,0.81,0.575,1.186c0.677,0.765,1.585,1.386,2.493,1.965c1.849,1.13,3.838,2.096,5.829,2.967l1.569,0.686    l-1.672,0.374c-1.52,0.34-3.046,0.725-4.538,1.165c-0.747,0.221-1.486,0.46-2.202,0.729c-0.678,0.263-1.487,0.602-1.839,0.952    c-0.044,0.037-0.039,0.06-0.031,0.03c0.02-0.021,0.009-0.155-0.009-0.184c-0.047-0.076-0.008-0.001,0.123,0.038    c0.249,0.093,0.622,0.14,0.98,0.164c0.732,0.046,1.506,0.009,2.274-0.046c1.539-0.102,3.1-0.299,4.63-0.544l2.029-0.325    l-1.512,1.382c-1.23,1.123-2.438,2.3-3.589,3.51c-1.142,1.214-2.271,2.467-3.156,3.819c-0.211,0.337-0.415,0.683-0.552,1.023    c-0.145,0.33-0.185,0.696-0.118,0.766c0.155,0.351,0.941,0.414,1.683,0.152c1.497-0.48,2.952-1.399,4.284-2.348l1.475-1.052    l-0.869,1.577c-0.594,1.078-1.08,2.283-1.452,3.494c-0.373,1.217-0.652,2.466-0.808,3.734c-0.167,1.267-0.206,2.555-0.094,3.833    c0.076,1.285,0.351,2.547,0.677,3.8c-0.415-1.221-0.806-2.473-0.946-3.771c-0.186-1.29-0.222-2.605-0.125-3.91    c0.09-1.305,0.287-2.611,0.641-3.876c0.347-1.273,0.785-2.499,1.398-3.709l0.606,0.525c-1.377,1.048-2.779,2.027-4.485,2.65    c-0.432,0.144-0.894,0.26-1.421,0.247c-0.526,0.013-1.155-0.261-1.512-0.831c-0.334-0.706-0.095-1.246,0.049-1.682    c0.175-0.447,0.401-0.833,0.633-1.213c0.952-1.488,2.088-2.766,3.242-4.025c1.163-1.252,2.363-2.448,3.615-3.618l0.517,1.056    c-1.579,0.272-3.147,0.489-4.753,0.613c-0.805,0.048-1.61,0.081-2.451,0.019c-0.425-0.04-0.846-0.076-1.338-0.258    c-0.231-0.099-0.563-0.233-0.789-0.664c-0.113-0.2-0.126-0.551-0.036-0.753c0.078-0.21,0.196-0.359,0.293-0.456    c0.412-0.406,0.789-0.574,1.173-0.766c0.382-0.18,0.762-0.331,1.143-0.473c0.762-0.277,1.527-0.515,2.294-0.732    c1.536-0.434,3.073-0.803,4.634-1.134l-0.103,1.06c-2.057-0.91-4.04-1.927-5.918-3.185c-0.929-0.641-1.855-1.307-2.621-2.229    c-0.362-0.458-0.755-1.023-0.715-1.782c0.056-0.784,0.666-1.276,1.21-1.545c1.189-0.522,2.399-0.301,3.487-0.046    c1.098,0.293,2.137,0.716,3.147,1.187C211.515,255.457,213.426,256.595,215.235,257.872z"/>
		<path style="opacity:0.48;fill:#AF312F;" d="M333.172,272.816c5.071-1.451,10.039-2.743,14.965-4.263    c2.473-0.716,4.916-1.519,7.367-2.331c2.465-0.789,4.878-1.707,7.415-2.488c-4.192,3.231-9.088,5.459-14.13,6.983    c-2.532,0.745-5.105,1.355-7.719,1.716C338.463,272.809,335.818,273.014,333.172,272.816z"/>
		<path style="fill:#AF312F;" d="M366.692,303.607c-3.51,1.805-7.357,3.034-11.243,3.748c-0.218,0.04-0.436,0.079-0.654,0.119    c-7.039,1.17-14.257,0.793-21.316-0.159c-1.824-0.238-3.688-0.515-5.294-1.448c-1.586-0.912-2.875-2.598-2.776-4.442    c0.079-2.042,1.785-3.668,3.529-4.759c5.215-3.272,11.58-3.986,17.549-5.453c3.609-0.892,6.92-2.201,10.153-3.688    c2.439-1.11,4.818-2.32,7.277-3.51C364.868,290.024,365.839,296.608,366.692,303.607z"/>
		<path style="fill:#AF312F;" d="M369.369,333.985c-2.697,0.317-5.453,0.198-8.15-0.139c-2.895-0.377-5.77-0.992-8.467-2.102    c-1.784-0.754-3.648-1.904-4.184-3.768c-0.575-1.983,0.575-4.144,2.221-5.393c1.646-1.229,3.688-1.785,5.671-2.36    c2.637-0.773,7.02-3.034,11.541-4.62C368.576,321.592,369.052,327.739,369.369,333.985z"/>
		<path style="fill:#AF312F;" d="M369.805,355.44c0.02,0.119,0.02,0.238,0.02,0.357c0.04,6.682-0.278,13.999-0.853,21.534    c-0.139,0.02-0.278,0.059-0.416,0.079c-7.694,1.23-15.903,0.496-23.696-0.654c-5.354-0.773-10.727-1.745-15.824-3.549    c-0.456-0.159-0.892-0.337-1.348-0.516c-3.232-1.388-6.365-3.668-6.683-7.059c-0.377-4.164,3.768-7.376,7.773-8.507    c5.552-1.566,11.441-0.853,17.192-0.793h0.476c8.051,0,15.546-1.547,23.061-3.887c0.119-0.04,0.218-0.059,0.337-0.119    C369.845,353.358,369.825,354.41,369.805,355.44z"/>
		<path style="fill:#AF312F;" d="M366.652,400.393c-1.031,8.368-2.181,16.399-3.252,23.398c-2.657-0.178-5.274-0.813-7.733-1.864    c-3.074-1.329-5.87-3.311-8.07-5.869c-0.833-0.992-1.606-2.082-1.864-3.351c-0.634-3.232,2.241-6.068,5.116-7.634    c3.748-2.062,8.725-3.986,13.603-4.541C365.185,400.453,365.919,400.393,366.652,400.393z"/>
		<path style="opacity:0.48;fill:#AF312F;" d="M266.588,349.255c1.801,0.822,3.527,1.795,5.218,2.844    c1.692,1.056,3.327,2.21,4.727,3.801c0.346,0.404,0.675,0.846,0.924,1.403c0.243,0.533,0.421,1.3,0.111,2.054    c-0.239,0.62-0.779,1.202-1.426,1.494c-0.644,0.282-1.291,0.328-1.874,0.301c-2.32-0.24-4.106-1.218-5.926-2.28l1.515-1.401    c0.839,1.455,1.542,2.929,2.203,4.466c0.624,1.553,1.267,3.1,1.439,4.984c0.027,0.482,0.032,0.993-0.12,1.579    c-0.109,0.561-0.622,1.325-1.228,1.624c-0.56,0.347-1.376,0.432-1.99,0.253c-0.626-0.168-1.078-0.481-1.468-0.793    c-1.494-1.304-2.247-2.787-3.02-4.355l1.895-0.66c0.401,2.001,0.513,3.923,0.436,5.894c-0.071,1.956-0.358,3.91-0.899,5.797    c-1.039,3.78-3.567,7.196-6.945,8.988c1.491-1.183,2.789-2.57,3.724-4.172c0.945-1.595,1.548-3.352,1.954-5.137    c0.379-1.797,0.518-3.643,0.453-5.482c-0.074-1.823-0.293-3.705-0.684-5.417l-1.781-7.797l3.676,7.137    c0.672,1.305,1.588,2.695,2.562,3.509c0.543,0.412,0.817,0.444,0.998,0.309c0.114-0.088,0.085-0.047,0.164-0.271    c0.05-0.198,0.061-0.508,0.036-0.832c-0.149-1.348-0.665-2.873-1.247-4.311c-0.587-1.45-1.297-2.893-2.01-4.278l-1.876-3.647    l3.391,2.245c1.503,0.995,3.295,1.945,4.909,2.185c0.829,0.097,1.354-0.042,1.642-0.6c0.228-0.309-0.091-1.214-0.646-1.917    c-1.099-1.467-2.623-2.739-4.108-3.992C269.801,351.543,268.2,350.398,266.588,349.255z"/>
		<g>
			<path style="fill:#FF5555;" d="M490.565,220.88l-2.241,21.931l-5.988-6.861c0.337-4.561,0.992-13.821,0.992-13.821l-3.907,10.47     l-5.235-6.008l0.139-6.762l-2.776,3.748l-4.105-4.719l3.014-19.909L490.565,220.88z"/>
			<path style="fill:#FF5555;" d="M512,221.316l-22.03-0.139l-19.651-22.327l20.127-0.873l2.816,3.054     c-2.895,0.774-7.02,1.923-7.02,1.923h8.804l10.827,11.719l-7.912,0.773l9.895,1.388L512,221.316z"/>
			<path style="fill:#AF312F;" d="M496.024,229.097c-0.613,0-1.222-0.247-1.669-0.733L363.962,86.12     c-0.844-0.921-0.782-2.352,0.139-3.196c0.921-0.846,2.352-0.78,3.196,0.139l130.394,142.244c0.844,0.921,0.782,2.352-0.139,3.196     C497.118,228.901,496.57,229.097,496.024,229.097z"/>
			<polygon style="fill:#FF5555;" points="361.456,78.961 374.256,129.11 382.894,103.423 409.464,100.121    "/>
		</g>
		<path style="fill:#AF312F;" d="M380.91,295.556c-1.705-8.249-2.974-17.172-2.479-25.818c3.748,2.34,8.646,6.802,10.331,13.424    C390.289,289.152,385.47,293.177,380.91,295.556z"/>
		<path style="fill:#FF5555;" d="M227.712,243.556c0,0,8.063,13.26,9.556,15.193h14.201l5.845-11.878l-6.254-13.43l-15.613,1.18    L227.712,243.556z"/>
		<path style="fill:#FFFFFF;" d="M242.081,229.432l16.488,21.451c0,0,36-17.243,52.969-28.717    C306.42,222.576,261.688,228.803,242.081,229.432z"/>
		<path style="fill:#FFFFFF;" d="M242.081,229.432c-3.889,6.874-6.325,11.537-11.884,19.504c0,0-29.37-18.868-41.439-29.187    C198.644,221.907,226.42,228.394,242.081,229.432z"/>
		<path style="fill:#FF5555;" d="M237.268,258.749l-15.087,48.444c0,0,12.632,30.861,23.681,48.668c0,0,13.434-29.812,18.417-47.981    l-12.811-49.131H237.268z"/>
		<g>
			
				<ellipse transform="matrix(0.984 -0.1783 0.1783 0.984 -54.4293 25.4686)" style="fill:#FF5555;" cx="114.504" cy="315.604" rx="114.24" ry="121.642"/>
			
				<ellipse transform="matrix(0.984 -0.1783 0.1783 0.984 -54.2835 27.046)" style="fill:#FFFFFF;" cx="123.366" cy="315.604" rx="114.24" ry="121.642"/>
			
				<ellipse transform="matrix(0.984 -0.1783 0.1783 0.984 -54.2907 27.0505)" style="fill:#FF5555;" cx="123.366" cy="315.604" rx="97.818" ry="104.156"/>
			
				<ellipse transform="matrix(0.984 -0.1783 0.1783 0.984 -54.2871 27.0483)" style="fill:#FFFFFF;" cx="123.366" cy="315.604" rx="80.307" ry="85.51"/>
			
				<ellipse transform="matrix(0.984 -0.1783 0.1783 0.984 -54.2922 27.0514)" style="fill:#FF5555;" cx="123.366" cy="315.604" rx="59.791" ry="63.665"/>
			
				<ellipse transform="matrix(0.984 -0.1783 0.1783 0.984 -54.289 27.0494)" style="fill:#FFFFFF;" cx="123.366" cy="315.604" rx="34.897" ry="37.158"/>
			<path style="fill:#FF5555;" d="M137.871,312.976c1.546,8.53-3.696,16.622-11.707,18.073c-8.011,1.452-15.758-4.287-17.303-12.817     c-1.545-8.53,3.696-16.622,11.707-18.073C128.579,298.707,136.326,304.446,137.871,312.976z"/>
			<g>
				<g>
					<path style="fill:#9CF0E7;" d="M263.544,261.05l19.656,9.981l-8.556,3.119c-4.134-1.955-12.538-5.898-12.538-5.898l8.363,7.412       l-7.49,2.723l-6.259-2.563l2.498,3.938l-5.88,2.132l-17.49-9.976L263.544,261.05z"/>
					<path style="fill:#9CF0E7;" d="M271.664,241.207l-8.056,20.505l-27.903,10.301l6.428-19.092l3.862-1.529       c-0.32,2.979-0.731,7.242-0.731,7.242l3.168-8.215l14.83-5.885l-2.125,7.66l4.855-8.732L271.664,241.207z"/>
					<path style="fill:#AF312F;" d="M124.499,317.865c-0.904,0-1.757-0.543-2.107-1.436c-0.456-1.162,0.117-2.476,1.28-2.931       l146.567-57.505c1.166-0.457,2.476,0.115,2.932,1.279c0.456,1.162-0.117,2.476-1.28,2.931l-146.567,57.505       C125.053,317.814,124.773,317.865,124.499,317.865z"/>
				</g>
				<g>
					<path style="fill:#6CE1C1;" d="M272.794,326.431l13.443,17.472l-9.065-0.869c-2.889-3.545-8.777-10.722-8.777-10.722       l4.357,10.29l-7.932-0.767l-4.546-5.008l0.559,4.63l-6.225-0.608l-11.491-16.534L272.794,326.431z"/>
					<path style="fill:#6CE1C1;" d="M288.666,312.018l-16.1,15.038l-29.619-2.717l14.022-14.464l4.144,0.283       c-1.572,2.551-3.778,6.221-3.778,6.221l6.396-6.05l15.919,1.073l-5.216,5.999l8.142-5.791L288.666,312.018z"/>
					<path style="fill:#AF312F;" d="M280.854,329.269c-0.054,0-0.108-0.002-0.164-0.007l-157.045-11.205       c-1.246-0.088-2.183-1.171-2.095-2.416c0.09-1.246,1.168-2.182,2.418-2.094l157.045,11.205c1.246,0.088,2.183,1.17,2.095,2.416       C283.023,328.359,282.03,329.269,280.854,329.269z"/>
				</g>
			</g>
			<path style="fill:#AF312F;" d="M98.483,241.207c0,0,6.515-16.49,19.909-26.529"/>
			<path style="fill:#AF312F;" d="M112.014,241.207c0,0,5.161-13.895,13.911-18.901"/>
			<path style="fill:#AF312F;" d="M90.67,222.111c0,0,18.193,1.471,23.834,6.881"/>
			<path style="fill:#AF312F;" d="M117.544,391.313c1.156,0.289,12.425,9.247,18.494,19.361"/>
			<path style="fill:#AF312F;" d="M130.837,382.065c0,0,12.137,14.16,15.026,26.874"/>
			<path style="fill:#AF312F;" d="M117.544,410.673c0,0,6.935-12.137,17.338-15.171"/>
		</g>
		<g>
			
				<ellipse transform="matrix(0.6485 -0.7612 0.7612 0.6485 -9.7335 278.6063)" style="opacity:0.39;fill:#FFFFFF;" cx="296.826" cy="149.843" rx="36.664" ry="36.664"/>
			
				<ellipse transform="matrix(0.9973 -0.0733 0.0733 0.9973 -10.1285 14.361)" style="opacity:0.39;fill:#FFFFFF;" cx="190.622" cy="145.193" rx="32.939" ry="36.664"/>
			<path style="fill:#AF312F;" d="M191.177,182.744c-17.745,0-32.949-15.342-34.415-35.283     c-1.527-20.784,12.442-38.812,31.14-40.188c18.707-1.347,35.154,14.419,36.681,35.201c1.527,20.785-12.442,38.812-31.141,40.188     C192.685,182.718,191.927,182.744,191.177,182.744z M190.168,109.453c-0.697,0-1.395,0.024-2.099,0.077     c-17.455,1.283-30.486,18.224-29.051,37.763c1.436,19.541,16.805,34.408,34.259,33.111c17.455-1.283,30.488-18.224,29.052-37.763     C220.95,123.889,206.738,109.453,190.168,109.453z"/>
			<path style="fill:#AF312F;" d="M257.907,148.109c-14.816-10.613-33.227-2.321-33.412-2.235l-1.895-4.108     c0.849-0.391,21.008-9.454,37.94,2.664L257.907,148.109z"/>
			<path style="fill:#AF312F;" d="M296.195,187.683c-9.055,0-17.712-3.209-24.637-9.186c-7.643-6.595-12.26-15.773-12.999-25.84     c-1.527-20.785,14.138-38.936,34.923-40.464c20.779-1.529,38.935,14.138,40.463,34.923c1.527,20.785-14.138,38.936-34.923,40.464     C298.078,187.648,297.134,187.683,296.195,187.683z M296.278,114.352c-0.871,0-1.747,0.031-2.63,0.097     c-19.54,1.436-34.269,18.501-32.833,38.039c0.696,9.467,5.036,18.094,12.221,24.296c7.184,6.2,16.337,9.235,25.821,8.537     c19.54-1.436,34.269-18.501,32.833-38.039C330.319,128.623,314.696,114.352,296.278,114.352z"/>
		</g>
		<path style="opacity:0.48;fill:#AF312F;" d="M301.933,228.397c2.093-0.975,4.191-1.93,6.251-2.96    c2.064-1.017,4.127-2.039,6.085-3.21l1.079-0.645l-0.418,1.218c-0.208,0.607-0.375,1.271-0.444,1.899    c-0.077,0.615-0.004,1.293,0.243,1.514c0.094,0.105,0.336,0.172,0.521,0.152c0.142-0.007,0.373-0.134,0.581-0.331    c0.425-0.396,0.797-0.95,1.13-1.517c0.661-1.15,1.197-2.405,1.671-3.676c0.463-1.264,0.899-2.597,1.155-3.853l0.43-2.106    l0.79,1.988c0.38,0.955,0.862,1.93,1.435,2.772c0.565,0.824,1.339,1.615,1.994,1.41c0.722-0.156,1.365-1.079,1.788-1.99    c0.43-0.934,0.764-1.968,1.009-2.977l0.09-0.374l0.358-0.029c2.445-0.199,4.929-0.721,7.3-1.482    c1.199-0.358,2.372-0.804,3.515-1.318c1.152-0.503,2.242-1.13,3.327-1.78c-1.003,0.765-2.046,1.5-3.173,2.087    c-1.115,0.609-2.27,1.154-3.46,1.611c-2.393,0.895-4.856,1.54-7.431,1.873l0.449-0.403c-0.202,1.128-0.504,2.201-0.98,3.257    c-0.239,0.525-0.519,1.044-0.904,1.528c-0.379,0.474-0.904,0.951-1.629,1.13c-0.349,0.085-0.747,0.083-1.112-0.027    c-0.356-0.109-0.651-0.289-0.908-0.484c-0.509-0.396-0.886-0.859-1.229-1.331c-0.672-0.957-1.179-1.946-1.626-3.013l1.22-0.119    c-0.296,1.453-0.769,2.742-1.267,4.065c-0.512,1.308-1.082,2.596-1.817,3.833c-0.378,0.614-0.781,1.223-1.376,1.766    c-0.3,0.259-0.678,0.541-1.232,0.596c-0.498,0.033-0.981-0.095-1.386-0.479c-0.724-0.833-0.57-1.716-0.492-2.426    c0.119-0.741,0.325-1.416,0.596-2.104l0.661,0.572c-2.061,1.094-4.168,2.052-6.306,2.934    C306.275,226.825,304.125,227.668,301.933,228.397z"/>
	</g>
	<path style="fill:#AF312F;" d="M197.811,85.917c-2.259,0.502-4.384,1.004-6.024,1.422c-2.728-8.284-2.56-21.906,0.218-29.286   c0.77-2.059,1.74-3.615,2.895-4.452c0,0,2.962,1.489,5.037,8.736c0.753,2.644,1.406,5.171,2.209,7.514   C204.053,75.391,205.174,84.243,197.811,85.917z"/>
	<path style="fill:#FFFFFF;" d="M197.811,85.917c0.469-2.694,3.297-6.426,3.548-6.744c-0.218,0.084-2.527,1.071-3.598,0.469   c-1.121-0.636,2.728-2.159,2.728-2.159s-2.962,0.235-3.196-0.653c-0.251-0.87,2.761-0.636,2.761-0.636   c-2.125-1.288-5.974-7.062-3.33-8.585c1.724-0.987,4.016,0.837,5.422,2.243c1.908,5.539,4.702,10.024,12.032,12.584   C214.178,82.436,205.174,84.243,197.811,85.917z"/>
</g>















</svg>
