<?xml version="1.0" encoding="UTF-8"?>
<!-- Generator: Adobe Illustrator 25.2.3, SVG Export Plug-In . SVG Version: 6.00 Build 0)  -->
<svg xmlns="http://www.w3.org/2000/svg" xmlns:xlink="http://www.w3.org/1999/xlink" version="1.1" id="Capa_1" x="0px" y="0px" viewBox="0 0 512 512" style="enable-background:new 0 0 512 512;" xml:space="preserve" width="512" height="512">
<g>
	<g>
		<path style="fill:#9CF0E7;" d="M319.989,45.68c-56.014,25.198-83.145,90.104-133.872,124.736    c-20.435,13.951-43.998,22.481-66.014,33.776c-24.684,12.664-47.8,29.154-65.123,50.824    c-77.841,97.374,20.424,214.749,119.552,239.548c113.58,28.415,245.893-24.789,299.755-130.489    c4.429-8.691,8.287-17.673,11.526-26.874c33.327-94.676,20.015-213.003-60.198-281.137    C396.083,30.979,354.422,30.19,319.989,45.68z"/>
	</g>
	<g>
		<path style="fill:#FF5555;" d="M93.888,256.41c-0.341,1.57-1.276,2.202-2.644,2.054c-1.372-0.185-2.755-0.289-4.134-0.388    c-0.217,0.316-0.429,0.637-0.639,0.96c-0.454,0.689-0.908,1.377-1.412,2.027c0.617,1.103,1.153,2.108,1.713,3.164l1.259,2.352    l-7.405,5.05l-1.99-2.36c-0.684-0.829-1.37-1.659-2.041-2.5c-0.733,0.151-1.412,0.272-2.093,0.392    c-0.546,0.099-1.093,0.197-1.637,0.306c-0.2,0.627-0.385,1.259-0.568,1.891l-0.397,1.348c-0.323,1.049-0.6,1.957-1.691,2.273    l-0.296,0.086l-6.689-1.335l-0.242-0.197c-0.782-0.637-0.691-1.476-0.592-2.362c0.141-1.259,0.279-2.493,0.38-3.732    c-0.422-0.281-0.852-0.555-1.281-0.829c-0.568-0.363-1.133-0.728-1.688-1.108c-1.047,0.597-2.093,1.17-3.135,1.74l-1.97,1.081    l-0.666-0.58c-1.271-1.111-3.703-4.559-4.201-6.186l-0.247-0.812l1.676-1.372c0.921-0.758,1.849-1.523,2.799-2.261    c-0.36-1.345-0.587-2.609-0.782-3.791l0,0c-0.837-0.225-1.639-0.467-2.441-0.708c-0.602-0.183-1.205-0.363-1.809-0.533    c-1.271-0.358-1.558-1.35-1.4-2.16l1.096-5.724c0.052-0.262,0.392-1.572,2.034-1.358l0.56,0.049    c1.284,0.111,2.567,0.225,3.846,0.378c0.565-0.97,1.121-1.844,1.698-2.752l0.316-0.501l-2.779-5.09l0.701-0.669    c1.711-1.632,3.661-2.935,5.964-3.981l0.884-0.402l3.614,4.399l0.736-0.138c1.143-0.212,2.241-0.42,3.345-0.583    c0.222-0.782,0.444-1.53,0.669-2.276l0.538-1.827c0.368-1.298,1.34-1.454,1.849-1.414c2.387,0.118,4.302,0.469,6.03,1.101    c0.531,0.193,1.402,0.718,1.274,2.056l-0.195,2.12c-0.067,0.748-0.133,1.493-0.207,2.241c1.096,0.701,2.152,1.432,3.189,2.182    c1.168-0.634,2.315-1.251,3.48-1.878l1.748-0.94l0.664,0.728c1.753,1.918,3.051,3.828,3.972,5.835l0.407,0.886l-4.564,3.749    l0.822,3.981l0.634,0.188c0.923,0.276,1.906,0.568,2.886,0.871l0.39,0.114c1.471,0.415,1.669,1.126,1.538,2.471L93.888,256.41z     M92.232,251.609l-0.148-0.044c-0.97-0.301-1.943-0.59-2.858-0.861l-2.083-0.624l-1.437-6.951l4.216-3.466    c-0.642-1.217-1.446-2.384-2.463-3.584c-1.269,0.684-2.515,1.353-3.759,2.031c-0.736,0.41-1.449,0.365-2.11-0.123    c-1.165-0.852-2.35-1.674-3.569-2.444c-0.736-0.462-1.054-1.113-0.965-1.99c0.081-0.824,0.156-1.646,0.23-2.471l0.158-1.72    c-1.247-0.41-2.634-0.659-4.3-0.775l-0.415,1.407c-0.244,0.817-0.489,1.637-0.718,2.456c-0.259,0.916-0.842,1.427-1.782,1.565    c-1.148,0.165-2.286,0.378-3.468,0.6l-2.212,0.405l-3.31-4.028c-1.365,0.694-2.582,1.501-3.68,2.444l2.547,4.668l-1.113,1.767    c-0.585,0.918-1.148,1.802-1.666,2.713c-0.543,0.938-1.306,1.338-2.36,1.205c-1.286-0.158-2.579-0.269-3.868-0.38l-0.035-0.005    l-0.839,4.391c0.452,0.131,0.896,0.264,1.338,0.397c0.834,0.252,1.669,0.504,2.51,0.726c1.424,0.37,1.622,1.548,1.696,1.99    c0.195,1.185,0.422,2.446,0.765,3.658c0.286,1.019,0.037,1.792-0.785,2.436c-0.982,0.76-1.94,1.548-2.886,2.325l-0.286,0.234    c0.568,1.076,1.669,2.681,2.52,3.661l0.355-0.195c1.113-0.61,2.234-1.222,3.342-1.859c1.133-0.647,1.965-0.072,2.276,0.141    c0.587,0.407,1.185,0.79,1.782,1.172c0.526,0.336,1.052,0.674,1.565,1.022c0.494,0.338,0.96,1.066,0.898,1.807    c-0.104,1.372-0.257,2.745-0.41,4.117c-0.002,0.022-0.005,0.042-0.007,0.062l4.458,0.889c0.042-0.133,0.086-0.281,0.126-0.407    l0.39-1.316c0.217-0.753,0.437-1.503,0.679-2.246c0.212-0.649,0.844-1.219,1.503-1.355c0.664-0.136,1.335-0.257,2.004-0.378    c0.731-0.131,1.461-0.262,2.187-0.417c0.333-0.067,1.36-0.284,2.16,0.726c0.716,0.903,1.449,1.792,2.182,2.678l0.494,0.6    l3.651-2.491l-0.19-0.355c-0.575-1.084-1.123-2.115-1.698-3.127c-0.355-0.62-0.721-1.58,0.188-2.732    c0.476-0.607,0.901-1.256,1.328-1.906c0.284-0.434,0.57-0.866,0.866-1.291c0.378-0.528,1.118-0.857,1.735-0.827    c1.545,0.111,2.984,0.215,4.408,0.397L92.232,251.609z M72.566,267.527h-0.002H72.566z M72.954,267.192l-0.002,0.002    L72.954,267.192z M62.794,265.111c0,0.002,0,0.007,0,0.01C62.794,265.118,62.794,265.113,62.794,265.111z M86.895,258.061    c0.002,0,0.005,0,0.005,0S86.898,258.061,86.895,258.061z M50.107,248.393v0.005C50.107,248.395,50.107,248.395,50.107,248.393z     M51.203,242.666v0.002C51.203,242.668,51.203,242.668,51.203,242.666z M71.29,260.801c-0.728,0-1.466-0.072-2.209-0.22l0,0    c-2.96-0.59-5.514-2.296-7.19-4.806s-2.273-5.522-1.683-8.481c0.587-2.96,2.296-5.512,4.803-7.19    c2.51-1.678,5.524-2.273,8.481-1.686c2.96,0.587,5.514,2.296,7.19,4.806c1.676,2.508,2.276,5.522,1.686,8.481    C81.302,257.074,76.567,260.801,71.29,260.801z M69.575,258.103c2.301,0.454,4.638-0.01,6.586-1.311    c1.948-1.301,3.273-3.283,3.73-5.581c0.457-2.298-0.007-4.636-1.308-6.586c-1.303-1.948-3.285-3.273-5.583-3.73    c-2.303-0.457-4.638,0.01-6.583,1.311c-1.948,1.301-3.273,3.283-3.73,5.581c-0.457,2.298,0.007,4.636,1.308,6.583    S67.277,257.644,69.575,258.103L69.575,258.103z"/>
	</g>
	<g>
		<path style="fill:#6CE1C1;" d="M362.897,166.988l-0.889-0.114c-4.502-0.583-14.477-4.628-17.496-7.099l-0.649-0.531l1.288-4.421    c0.911-3.142,1.832-6.319,2.839-9.466c0.269-0.837,0.274-0.968-0.501-1.632c-2.797-2.397-5.388-5.09-7.556-7.405    c-0.869-0.931-1.091-0.96-1.822-0.708c-2.231,0.782-4.49,1.488-6.746,2.192c-1.627,0.506-3.253,1.012-4.868,1.55    c-2.355,0.775-3.335-0.622-3.722-1.523l-6.196-14.497c-0.908-2.12,0.879-3.039,1.466-3.34l1.513-0.839    c2.972-1.664,6.045-3.384,9.13-4.976c0.79-0.405,0.98-0.629,0.894-1.738c-0.225-2.898-0.316-5.766-0.41-8.805l-0.099-2.888    l-13.448-7.064l0.197-0.936c1.264-5.983,3.525-11.619,6.909-17.229l0.506-0.844l14.223,4.322l2.222-2.214    c2.367-2.37,4.606-4.608,6.963-6.776c0.553-0.508,0.548-0.585,0.326-1.249c-0.726-2.185-1.414-4.379-2.105-6.576    c-0.526-1.678-1.054-3.357-1.597-5.031c-0.21-0.639-0.775-2.35,1.044-3.456c5.267-3.211,9.839-5.233,14.386-6.361    c2.088-0.516,3.019,0.681,3.53,1.629c0.896,1.661,1.804,3.315,2.715,4.969c1.103,2.004,2.209,4.011,3.288,6.03    c0.279,0.526,0.279,0.553,0.891,0.541c3.643-0.101,7.529-0.064,11.861,0.114c0.247,0.015,0.346-0.022,0.346-0.022    c-0.002,0,0.062-0.064,0.207-0.351c1.56-3.071,3.135-6.131,4.729-9.234l2.204-4.285l0.97,0.239    c6.62,1.639,12.001,3.819,16.94,6.862l0.817,0.506l-4.329,14.929l9.636,9.506l2.345-0.738c2.599-0.822,5.386-1.703,8.183-2.55    c0.422-0.128,0.78-0.247,1.089-0.348c2.624-0.879,3.174-0.397,4.579,2.194l0.301,0.553c0.042,0.079,0.163,0.21,0.269,0.326    l0.457,0.617l3.648,8.713c0.121,0.449,0.165,0.694,0.207,0.938c0.072,0.42,0.141,0.817,0.272,1.118    c1.014,2.33,0.397,4.021-1.891,5.169c-3.537,1.772-7.04,3.804-10.424,5.771c-0.249,0.165-0.415,0.467-0.427,0.602    c-0.022,1.348,0.002,2.7,0.025,4.056c0.037,2.18,0.074,4.431-0.077,6.66c-0.081,1.165,0.126,1.382,1.121,1.881    c2.826,1.419,5.611,2.923,8.538,4.502l4.643,2.491l-7.351,18.895l-2.147-0.607c-0.518-0.146-0.921-0.257-1.318-0.378l-3.011-0.911    c-2.851-0.859-5.699-1.72-8.533-2.636c-0.471-0.153-0.541-0.17-1.096,0.415c-1.4,1.471-2.846,2.895-4.292,4.317    c-1.276,1.254-2.552,2.508-3.791,3.796c-0.101,0.131-0.197,0.585-0.153,0.76c0.548,1.923,1.163,3.833,1.777,5.744    c0.402,1.251,0.805,2.503,1.19,3.759l0,0c0.827,2.691,1.284,4.172,0.084,5.625l-0.197,0.239l-15.81,6.677l-0.316-0.03    c-1.54-0.141-2.155-1.323-3.177-3.28c-1.728-3.313-3.443-6.603-5.235-9.765c-0.091-0.114-0.494-0.311-0.669-0.313    c-1.634-0.002-3.263,0.025-4.897,0.062c-1.94,0.042-3.88,0.081-5.82,0.052c-0.785-0.032-0.795,0.017-1.024,0.489    c-1.491,3.105-3.048,6.176-4.594,9.232L362.897,166.988z M346.774,158.302c3.078,2.059,10.639,5.107,14.689,5.919l1.261-2.498    c1.54-3.039,3.088-6.094,4.574-9.185c0.785-1.629,1.938-1.915,3.345-1.92c1.906,0.03,3.811-0.01,5.722-0.052    c1.656-0.037,3.313-0.062,4.969-0.062c0.943,0.007,2.301,0.62,2.853,1.597c1.809,3.199,3.537,6.507,5.206,9.708    c0.452,0.864,0.864,1.654,1.111,1.955l14.381-6.072c0.128-0.4-0.064-1.126-0.661-3.073h-0.002c-0.38-1.247-0.78-2.486-1.18-3.727    c-0.622-1.935-1.244-3.873-1.802-5.825c-0.294-1.029,0.052-2.466,0.765-3.206c1.254-1.303,2.547-2.574,3.838-3.843    c1.427-1.402,2.853-2.804,4.231-4.255c0.861-0.906,1.908-1.666,3.71-1.079c2.816,0.911,5.65,1.765,8.484,2.621l3.011,0.911    c0.368,0.111,0.741,0.215,1.212,0.348l5.707-14.667l-2.678-1.439c-2.903-1.567-5.667-3.058-8.469-4.468    c-1.627-0.815-2.678-1.859-2.51-4.312c0.143-2.12,0.106-4.32,0.072-6.445c-0.025-1.38-0.047-2.762-0.025-4.142    c0.015-0.997,0.684-2.162,1.525-2.651c3.577-2.078,7.114-4.132,10.723-5.939c1.081-0.541,1.18-0.807,0.703-1.901    c-0.252-0.58-0.353-1.17-0.444-1.693c-0.035-0.202-0.069-0.405-0.116-0.605l-3.569-8.387c-0.195-0.212-0.437-0.479-0.624-0.827    l-0.304-0.558c-0.272-0.499-0.548-1.012-0.721-1.259c-0.207,0.049-0.541,0.16-0.842,0.262c-0.323,0.106-0.703,0.232-1.153,0.368    c-2.784,0.844-5.561,1.72-8.153,2.54l-3.799,1.197l-11.791-11.633l4.214-14.519c-4.243-2.503-8.876-4.369-14.432-5.818l-1.286,2.5    c-1.595,3.1-3.167,6.156-4.722,9.222c-0.462,0.908-1.187,1.794-2.913,1.757c-4.278-0.178-8.099-0.212-11.69-0.114    c-1.567,0.02-2.454-0.506-3.189-1.878c-1.074-2.009-2.172-4.006-3.271-6.001c-0.913-1.661-1.827-3.32-2.728-4.989    c-0.188-0.348-0.284-0.422-0.294-0.427c0,0,0.01-0.002-0.044-0.002c-0.054,0-0.168,0.007-0.36,0.054    c-4.288,1.064-8.634,2.992-13.675,6.065c-0.089,0.027-0.077,0.153,0.042,0.513c0.548,1.686,1.079,3.372,1.607,5.06    c0.686,2.18,1.37,4.362,2.093,6.531c0.541,1.619,0.247,2.752-1.017,3.91c-2.315,2.13-4.534,4.349-6.884,6.702l-3.3,3.285    l-13.773-4.186c-2.789,4.794-4.724,9.609-5.894,14.672l13.045,6.85l0.151,4.367c0.094,3.006,0.183,5.848,0.405,8.689    c0.158,2.036-0.518,3.285-2.256,4.179c-3.046,1.572-6.099,3.28-9.054,4.934l-1.592,0.881c-0.079,0.042-0.183,0.094-0.269,0.143    l6.168,14.452c0.062,0.148,0.111,0.215,0.131,0.237c0.012-0.012,0.153-0.015,0.469-0.118c1.629-0.543,3.271-1.054,4.912-1.565    c2.229-0.694,4.458-1.39,6.66-2.162c2.241-0.782,3.456,0.242,4.505,1.365c2.123,2.268,4.653,4.897,7.356,7.213    c1.516,1.298,1.859,2.471,1.266,4.322c-1.002,3.125-1.915,6.28-2.819,9.4L346.774,158.302z M375.553,126.122    c-2.451,0-4.905-0.479-7.25-1.437c-4.833-1.972-8.615-5.729-10.646-10.582c-4.157-9.925,0.427-21.364,10.214-25.498    c4.702-1.987,9.908-2.012,14.655-0.072c4.833,1.972,8.615,5.732,10.644,10.582c4.157,9.925-0.422,21.364-10.212,25.498l0,0    C380.578,125.619,378.068,126.122,375.553,126.122z M375.276,89.628c-2.182,0-4.359,0.437-6.423,1.308    c-8.506,3.591-12.485,13.549-8.866,22.191c1.772,4.228,5.063,7.504,9.271,9.219c4.122,1.686,8.639,1.661,12.717-0.062    c8.508-3.594,12.485-13.549,8.864-22.191c-1.77-4.228-5.063-7.504-9.269-9.219C379.534,90.042,377.401,89.628,375.276,89.628z"/>
	</g>
	<g>
		<g>
			<path style="fill:#FF9D3D;" d="M445.981,289.859c-0.014-0.505-0.042-1.023-0.07-1.542c-0.364-6.306-1.261-12.444-2.551-18.372     c-1.527-7.077-3.629-13.859-6.054-20.235c-12.71-33.324-34.697-56.068-34.697-56.068S329.598,116.945,287.572,74.19     c-2.775-2.831-5.409-5.507-7.876-7.988c-2.592-2.621-5.003-5.031-7.203-7.217c-4.596-4.568-8.254-8.128-10.65-10.314     c-1.051-0.953-1.85-1.654-2.397-2.06c-0.812-0.813-1.653-1.584-2.522-2.326c-1.598-1.401-3.307-2.705-5.087-3.896     c-1.065-0.715-2.144-1.388-3.266-2.018c-3.305-1.87-6.893-3.358-10.69-4.517c0.282-1.169,0.508-2.343,0.652-3.528     c0.007-0.013,0.003-0.024,0.003-0.024c1.821-15.507-8.16-30.863-13.064-30.283c-0.58,0.072-1.143,0.194-1.706,0.385     c-5.551,1.862-10.194,9.393-13.17,18.778c-2.332,7.309-8.504,12.562-11.92,15.015c-2.964,0.705-6.014,1.515-9.13,2.436     c-3.77,1.107-7.637,2.368-11.547,3.77c-1.584,0.546-3.167,1.149-4.765,1.766c-7.175,2.746-14.378,5.956-21.315,9.543     c-1.766,0.925-3.532,1.85-5.255,2.831c-4.512,2.494-8.856,5.171-12.935,7.988c-3.738,2.563-7.256,5.25-10.5,8.036     c-3.518,2.209-8.203,4.38-13.345,4.632c-10.63,0.508-19.652,3.462-22.189,9.156c-0.048,0.101-0.095,0.212-0.133,0.311     c-1.445,3.628,4.829,13.497,14.766,18.817c-0.866,4.978-1.055,10.226-0.534,15.509c0.042,0.505,0.098,0.995,0.168,1.499     c0.407,3.377,1.107,6.755,2.088,10.09c0.294,1.023,0.631,2.046,0.98,3.069c0.519,1.472,1.093,2.929,1.738,4.358     c0,0,0.378,1.065,1.079,2.985c0.869,2.481,2.284,6.404,4.05,11.253c1.009,2.775,2.144,5.872,3.363,9.179     c1.373,3.742,2.872,7.763,4.428,11.925c3.265,8.661,6.811,17.938,10.286,26.626c2.073,5.199,4.12,10.174,6.039,14.686     c2.663,6.222,5.101,11.547,7.091,15.289c3.503,6.573,20.46,48.067,46.076,64.925c63.51,41.76,166.299,71.301,166.299,71.301     l12.78,8.814c0,0-2.872,19.563-4.54,40.527c-1.682,20.978,1.43,31.433,10.748,34.277c9.319,2.845,3.728-33.478,9.319-45.754     c5.592-12.276,14.28-27.565,6.839-35.454c0,0,15.976-7.427,30.774-22.127c5.759-5.717,11.351-12.542,15.723-20.446     c3.069-5.493,5.535-11.519,7.091-18.078C445.561,302.303,446.219,296.277,445.981,289.859z"/>
		</g>
		<g>
			<path style="fill:#FF9D3D;" d="M102.382,271.796c0,0,1.754-12.294,9.906-22.743c7.369-9.444,20.283-17.323,36.126-14.281     c33.372,6.407,35.989,39.561,35.989,39.561l-35.989,0.873L102.382,271.796z"/>
		</g>
		<g>
			<g>
				<path style="fill:#FF9D3D;" d="M205.93,306.061c0,0-35.373,61.267,24.094,123.547c0,0-72.122-31.993-90.38-26.376      c-18.258,5.616-6.612,22.832,17.692,26.376c24.304,3.544,57.383,20.043,72.688,29.416c15.305,9.373,25.155-8.593,26.614-19.005      c0,0,79.436-26.614,56.145-89.401C289.492,287.832,205.93,306.061,205.93,306.061z"/>
			</g>
			<g style="opacity:0.2;">
				<path style="fill:#AF312F;" d="M256.634,440.021c-1.416,10.09-10.721,27.284-25.225,19.773      c-0.462-0.224-0.925-0.491-1.387-0.771c-15.303-9.375-48.375-25.869-72.688-29.415c-8.016-1.163-14.644-3.826-19.297-7.063      c-9.431-6.572-10.623-15.541,1.611-19.311c18.26-5.62,90.374,26.373,90.374,26.373c-59.46-62.276-24.09-123.543-24.09-123.543      s83.563-18.232,106.853,44.549C336.077,413.409,256.634,440.021,256.634,440.021z"/>
			</g>
			<g style="opacity:0.2;">
				<path style="fill:#AF312F;" d="M231.41,459.794c-0.462-0.224-0.925-0.491-1.387-0.771      c-15.303-9.375-48.375-25.869-72.688-29.415c-8.016-1.163-14.644-3.826-19.297-7.063c-0.883-3.349-0.995-7.875,3.938-9.613      c8.212-2.873,41.956,8.66,64.813,21.09C226.715,444.856,235.179,454.848,231.41,459.794z"/>
			</g>
			<g>
				<path style="fill:#AF312F;" d="M141.975,412.933c-0.73-0.923-1.079-2.031-1.2-3.172c-0.13-1.148,0.054-2.356,0.542-3.496      c0.503-1.132,1.443-2.123,2.548-2.656c1.087-0.593,2.336-0.641,3.442-0.376c-0.905,0.768-1.717,1.294-2.301,1.986      c-0.581,0.668-1.079,1.303-1.393,2.101C142.888,408.87,142.559,410.722,141.975,412.933z"/>
			</g>
		</g>
		<g>
			<g>
				<g>
					<path style="fill:#FF9D3D;" d="M358.222,443.589c-3.826,23.879-27.172,30.816-50.239,32.932       c-6.825,0.63-13.621,0.827-19.885,0.939c-3.966,0.056-7.735,0.084-11.141,0.14c-13.271,0.238-22.744,7.806-30.017,15.779       c-7.511,8.198-12.668,16.802-17.223,18.246c-6.81,2.144-17.685-4.933-7.525-20.418v-0.014       c3.251-4.933,8.632-10.734,16.97-17.363c2.2-1.738,4.414-3.265,6.671-4.596c6.082-3.574,12.332-5.718,18.582-6.979       c23.669-4.75,47.478,3.209,62.935-5.717c2.676-1.556,5.115-3.616,7.245-6.334c2.705-3.461,4.204-7.357,4.806-11.505       c3.532-24.776-25.589-58.409-25.589-58.409l14.644-12.766c0,0,8.534,9.795,16.564,23.963c3.812,6.74,7.512,14.462,10.118,22.59       C358.222,423.661,359.778,433.821,358.222,443.589z"/>
				</g>
				<g style="opacity:0.2;">
					<path style="fill:#AF312F;" d="M358.222,443.589c-3.826,23.879-27.172,30.816-50.239,32.932       c-6.825,0.63-13.621,0.827-19.885,0.939c-3.966,0.056-7.735,0.084-11.141,0.14c-13.271,0.238-22.744,7.806-30.017,15.779       c-7.511,8.198-12.668,16.802-17.223,18.246c-6.81,2.144-17.685-4.933-7.525-20.418v-0.014       c3.251-4.933,8.632-10.734,16.97-17.363c2.2-1.738,4.414-3.265,6.671-4.596c6.082-3.574,12.332-5.718,18.582-6.979       c23.669-4.75,47.478,3.209,62.935-5.717c2.676-1.556,5.115-3.616,7.245-6.334c2.705-3.461,4.204-7.357,4.806-11.505       c3.532-24.776-25.589-58.409-25.589-58.409l14.644-12.766c0,0,8.534,9.795,16.564,23.963c3.812,6.74,7.512,14.462,10.118,22.59       C358.222,423.661,359.778,433.821,358.222,443.589z"/>
				</g>
			</g>
			<g>
				<path style="fill:#AF312F;" d="M246.941,493.379c-7.511,8.198-12.668,16.802-17.223,18.246      c-6.81,2.144-17.685-4.933-7.525-20.418v-0.014C230.573,487.073,240.536,485.167,246.941,493.379z"/>
			</g>
			<g>
				<path style="fill:#AF312F;" d="M264.415,462.255c-0.168,3.938-1.429,9.487-6.881,10.945c-5.451,1.471-9.459-1.528-11.701-3.966      C251.915,465.66,258.165,463.516,264.415,462.255z"/>
			</g>
			<g>
				<path style="fill:#AF312F;" d="M307.984,476.521c-6.825,0.63-13.621,0.827-19.885,0.939c2.018-3.742,5.353-7.609,10.678-8.282      C304.116,468.505,306.722,472.415,307.984,476.521z"/>
			</g>
			<g>
				<path style="fill:#AF312F;" d="M344.363,455.43c-4.162,5.199-11.814,3.307-17.013,1.107c2.676-1.556,5.115-3.616,7.245-6.334      c2.705-3.461,4.204-7.357,4.806-11.505C343.55,442.93,348.735,449.965,344.363,455.43z"/>
			</g>
			<g>
				<path style="fill:#AF312F;" d="M355.139,414.077c-3.769,0.785-8.072,0.616-10.776-2.887c-3.377-4.372-1.584-13.229,0.658-19.703      C348.833,398.227,352.533,405.949,355.139,414.077z"/>
			</g>
		</g>
		<g>
			<path style="fill:#FFC893;" d="M355.481,366.176c0,0-71.147,58.647-122.646-19.003c-51.486-77.649-20.053-141.06,2.088-153.532     c22.155-12.472,64.448,5.059,84.95,33.633l-11.547,8.66c-2.719-0.575-5.984-0.939-5.984,1.374c0,2.536,4.47,3.545,7.231,3.938     c0.042,0.196,0.098,0.392,0.14,0.588c-3.728,0.687-11.337,2.298-11.337,3.756c0.014,2.578,6.685,1.752,6.685,1.752     S276.431,314.957,355.481,366.176z"/>
		</g>
		<g>
			<g>
				<g>
					<path style="fill:#FFFFFF;" d="M241.665,87.287c-4.043,5.839-12.15,10.366-19.288,10.324c-1.525-0.01-3.028-0.243-4.487-0.739       c-6.33-2.189-11.738-8.214-14.132-14.414c-0.066-0.139-0.121-0.283-0.176-0.427c-2.301-6.302-0.879-13.345,3.437-18.434       c5.054-5.953,14.124-10.784,21.964-8.023c3.093,1.093,5.992,3.146,8.416,5.78l0.012-0.006       C243.896,68.35,247.074,79.46,241.665,87.287z"/>
				</g>
				<g>
					<path style="fill:#AF312F;" d="M241.665,87.287c-2.29,3.297-5.516,5.85-9.039,7.741c-1.773,0.937-3.653,1.681-5.605,2.182       c-1.947,0.508-3.979,0.777-6.02,0.639c-2.044-0.131-4.048-0.773-5.865-1.694c-1.829-0.915-3.521-2.094-5.056-3.446       c-3.063-2.715-5.517-6.117-7.133-9.938l0.027,0.061c-1.905-4.565-1.904-9.681-0.123-14.211       c0.883-2.248,2.155-4.371,3.794-6.137c1.604-1.775,3.424-3.335,5.413-4.645c3.961-2.575,8.753-4.256,13.596-3.72       c2.415,0.245,4.708,1.162,6.707,2.4c2.019,1.235,3.797,2.805,5.342,4.555l-0.477-0.095l0.012-0.005l0.284-0.123l0.192,0.218       c1.586,1.797,2.925,3.796,3.992,5.923c1.059,2.13,1.862,4.385,2.334,6.707c0.466,2.323,0.556,4.721,0.206,7.058       C243.891,83.091,243.023,85.354,241.665,87.287z M241.665,87.287c1.339-1.946,2.183-4.212,2.514-6.54       c0.347-2.332,0.158-4.717-0.36-7.001c-0.517-2.29-1.399-4.488-2.548-6.523c-1.145-2.037-2.546-3.926-4.163-5.593l0.476,0.094       l-0.012,0.006l-0.261,0.128l-0.217-0.224c-1.574-1.622-3.353-3.045-5.312-4.12c-1.958-1.085-4.081-1.81-6.263-1.926       c-2.183-0.144-4.379,0.235-6.466,0.922c-2.092,0.688-4.082,1.71-5.902,2.971c-3.655,2.506-6.809,5.829-8.409,9.883       c-0.401,1.012-0.703,2.06-0.929,3.125c-0.188,1.07-0.336,2.151-0.35,3.241c-0.01,1.087,0.043,2.182,0.245,3.254       c0.07,0.542,0.228,1.066,0.343,1.6c0.164,0.498,0.315,1.089,0.49,1.5l0.027,0.062c1.331,3.614,3.51,6.977,6.312,9.7       c1.404,1.359,2.967,2.56,4.673,3.516c1.705,0.965,3.556,1.656,5.507,1.874c3.915,0.434,7.934-0.595,11.491-2.353       C236.121,93.12,239.334,90.541,241.665,87.287z"/>
				</g>
			</g>
			<g>
				<path style="fill:#AF312F;" d="M228.271,90.854c5.113-1.584,9.579-5.959,10.543-11.331c1.536-8.56-5.17-17.581-13.794-18.351      c-4.63-0.414-9.782,1.481-12.908,4.955c-8.355,9.286,0.057,24.775,11.82,25.315C225.38,91.508,226.848,91.295,228.271,90.854z"/>
			</g>
			<g style="opacity:0.21;">
				<path style="fill:#AF312F;" d="M237.399,61.354c-25.801,0.083-32.848,18.722-33.641,21.104      c-0.066-0.139-0.121-0.283-0.176-0.427c-2.301-6.302-0.879-13.345,3.437-18.434c5.054-5.953,14.124-10.784,21.964-8.023      C232.076,56.666,234.975,58.719,237.399,61.354z"/>
			</g>
		</g>
		<g>
			<g>
				<g>
					<path style="fill:#FFFFFF;" d="M170.277,128.524c-4.043,5.839-12.151,10.366-19.288,10.324c-1.525-0.01-3.029-0.243-4.487-0.74       c-6.331-2.189-11.738-8.213-14.133-14.414c-0.066-0.139-0.121-0.283-0.176-0.427c-2.301-6.302-0.879-13.345,3.437-18.434       c5.054-5.952,14.125-10.784,21.964-8.024c3.094,1.093,5.992,3.146,8.416,5.781l0.011-0.006       C172.507,109.587,175.686,120.697,170.277,128.524z"/>
				</g>
				<g>
					<path style="fill:#AF312F;" d="M170.277,128.524c-2.29,3.297-5.516,5.85-9.039,7.742c-1.773,0.937-3.653,1.681-5.605,2.182       c-1.947,0.508-3.979,0.777-6.02,0.639c-2.044-0.131-4.048-0.773-5.865-1.694c-1.83-0.915-3.522-2.094-5.056-3.446       c-3.063-2.715-5.517-6.117-7.132-9.938l0.026,0.061c-1.904-4.564-1.904-9.681-0.123-14.21c0.883-2.248,2.155-4.371,3.794-6.137       c1.604-1.775,3.424-3.335,5.412-4.645c3.962-2.575,8.753-4.256,13.596-3.72c2.415,0.245,4.708,1.162,6.707,2.399       c2.019,1.235,3.797,2.806,5.342,4.555l-0.486-0.091l0.011-0.005l0.288-0.133l0.197,0.223c1.586,1.797,2.925,3.796,3.992,5.923       c1.059,2.131,1.863,4.385,2.334,6.707c0.466,2.323,0.556,4.721,0.206,7.059C172.503,124.328,171.634,126.591,170.277,128.524z        M170.277,128.524c1.339-1.946,2.183-4.212,2.514-6.54c0.347-2.332,0.158-4.717-0.36-7.001       c-0.517-2.29-1.399-4.488-2.548-6.523c-1.145-2.037-2.546-3.926-4.163-5.593l0.485,0.09l-0.011,0.006l-0.265,0.138       l-0.222-0.229c-1.574-1.623-3.353-3.046-5.312-4.12c-1.958-1.085-4.081-1.81-6.263-1.926c-2.183-0.145-4.379,0.235-6.466,0.922       c-2.092,0.688-4.082,1.71-5.902,2.971c-3.655,2.505-6.809,5.828-8.409,9.883c-0.401,1.012-0.703,2.06-0.928,3.125       c-0.188,1.07-0.336,2.151-0.35,3.241c-0.01,1.087,0.043,2.181,0.244,3.254c0.07,0.542,0.228,1.066,0.343,1.6       c0.163,0.498,0.315,1.088,0.49,1.5l0.027,0.061c1.331,3.614,3.51,6.977,6.312,9.7c1.404,1.359,2.966,2.56,4.673,3.516       c1.704,0.965,3.556,1.656,5.507,1.875c3.915,0.434,7.935-0.595,11.491-2.353C164.733,134.357,167.945,131.778,170.277,128.524z       "/>
				</g>
			</g>
			<g>
				<path style="fill:#AF312F;" d="M156.883,132.091c5.113-1.584,9.579-5.959,10.543-11.331c1.536-8.559-5.17-17.58-13.794-18.351      c-4.63-0.414-9.782,1.481-12.908,4.955c-8.355,9.286,0.057,24.775,11.82,25.315C153.992,132.745,155.46,132.532,156.883,132.091      z"/>
			</g>
			<g style="opacity:0.21;">
				<path style="fill:#AF312F;" d="M166.011,102.591c-25.801,0.083-32.848,18.722-33.641,21.104      c-0.066-0.139-0.121-0.283-0.176-0.427c-2.301-6.302-0.879-13.345,3.437-18.434c5.054-5.952,14.125-10.784,21.964-8.024      C160.688,97.903,163.586,99.956,166.011,102.591z"/>
			</g>
		</g>
		<g>
			<path style="fill:#AF312F;" d="M188.561,91.766c0,0-6.033-1.627-7.471,0.47c-1.438,2.097,5.067,4.304,9.589,2.711     c0,0,4.058-7.581,0.637-9.284C187.896,83.959,188.561,91.766,188.561,91.766z"/>
		</g>
		<g>
			<path style="fill:#AF312F;" d="M238.539,30.305c0,0,0.001,0.011-0.009,0.022c0.004,0.238-0.067,2.202-0.859,4.416     c0.001,0.011-0.009,0.022-0.009,0.033c-0.442,1.24-1.411,2.697-2.735,4.015c-2.332,2.333-7.387-14.539-7.081-27.57     c0.1-4.271-0.91-8.105-4.079-10.817c0.562-0.187,1.128-0.309,1.708-0.389C230.374-0.563,240.357,14.798,238.539,30.305z"/>
		</g>
		<g>
			<path style="fill:#AF312F;" d="M123.581,105.72c-20.728,6.738-38.347-15.222-36.018-21.052c0.037-0.1,0.084-0.211,0.132-0.311     c1.174,1.29,3.14,2.942,6.275,4.239c3.166,1.295,11.148,7.083,17.057,6.896c0,0,11.497,0.997,12.469,6.121     C123.798,103.152,123.792,104.592,123.581,105.72z"/>
		</g>
		<g>
			<path style="fill:#FFFFFF;" d="M231.013,30.432c0,0,3.783,3.529,3.914,8.36c-2.332,2.333-5.753,4.226-9.302,3.735     c-8.737-1.226,1.914-18.274,2.22-31.305c1.566,3.041,3.209,7.819,2.171,13.341c0,0,3.283-3.562,4.311-3.064     c0.984,0.501-2.54,5.399-2.739,5.671c0.185-0.152,2.326-1.921,3.182-1.034C235.662,27.065,231.013,30.432,231.013,30.432z"/>
		</g>
		<g>
			<path style="fill:#FFFFFF;" d="M123.496,101.612c-11.274,6.793-16.927-4.424-16.927-4.424s-0.435,2.896-2.202,2.509     c-1.691-0.381-0.336-3.107-0.221-3.342c-0.125,0.073-2.668,1.64-3.744,1.22c-1.109-0.428,1.3-2.56,1.3-2.56     c-4.602-0.88-6.855-4.516-7.732-6.42c3.166,1.295,7.512,2.223,13.421,2.035C118.258,90.272,122.524,96.488,123.496,101.612z"/>
		</g>
		<g>
			<path style="fill:#AF312F;" d="M184.442,66.528c-0.218,2.211-1.474,4.455-3.544,5.267c-2.799,1.107-5.863-0.627-8.201-2.515     c-4.072-3.294-7.536-7.255-11.364-10.814c-2.667-2.473-5.562-4.792-8.816-6.438c-0.19-0.096-0.392-0.203-0.593-0.309     c6.929-3.597,14.143-6.8,21.309-9.545c4.349,5.301,7.772,11.354,10.062,17.823C184.033,62.094,184.67,64.305,184.442,66.528z"/>
		</g>
		<g>
			<path style="fill:#AF312F;" d="M190.604,47.294c-0.673,1.525-2.296,2.742-3.948,2.467c-1.663-0.274-2.736-1.852-3.69-3.243     c-1.371-2.014-2.888-3.921-4.537-5.701c-0.128-0.143-0.277-0.275-0.427-0.417c3.906-1.404,7.767-2.664,11.54-3.767     c0.669,1.852,1.157,3.77,1.432,5.723C191.209,44.009,191.287,45.758,190.604,47.294z"/>
		</g>
		<g>
			<path style="fill:#AF312F;" d="M151.583,65.748c-0.102,1.479-1.089,3.002-2.546,3.245c-0.718,0.121-1.455-0.071-2.15-0.287     c-4.015-1.198-9.53-3.168-13.162-6.176c4.088-2.812,8.434-5.488,12.942-7.991c1.428,2.227,2.711,4.549,3.814,6.948     C151.096,62.834,151.674,64.27,151.583,65.748z"/>
		</g>
		<g style="opacity:0.48;">
			<path style="fill:#AF312F;" d="M184.829,102.278c-1.87,2.354-2.89,5.703-2.338,9.338c0.801,5.27,3.859,10.364,8.813,12.027     c3.075,1.032,6.072,0.614,8.751-0.275c5.134-1.703,10.067-3.803,13.333-8.352c1.185-1.65,2.147-3.566,2.467-5.817     c0.489-3.45-0.651-7.582-2.989-10.831c-2.338-3.25-5.819-5.541-9.125-6.007c-4.067-0.573-8.183,1.33-11.089,3.537     C190.064,97.863,186.885,99.689,184.829,102.278z"/>
		</g>
		<g style="opacity:0.48;">
			<path style="fill:#EB4949;" d="M238.135,96.836c-1.751,3.198-0.246,7.195,3.788,7.555c5.402,0.483,12.933-3.905,14.951-8.998     c1.704-4.3-2.713-8.335-6.525-7.529c-3.223,0.68-6.109,2.459-8.5,4.64C240.738,93.518,239.116,95.044,238.135,96.836z"/>
		</g>
		<g style="opacity:0.48;">
			<path style="fill:#EB4949;" d="M149.799,141.825c-2.702,2.297-2.724,6.451,0.816,8.181c4.741,2.316,13.108,0.947,16.711-2.979     c3.042-3.314,0.432-8.515-3.312-9.108c-3.164-0.502-6.405,0.111-9.335,1.261C153.317,139.714,151.314,140.537,149.799,141.825z"/>
		</g>
		<g style="opacity:0.48;">
			<path style="fill:#AF312F;" d="M227.266,141.687c1.446-0.734,2.892-1.467,4.319-2.231c1.423-0.769,2.841-1.557,4.184-2.423     l0.591-0.382l-0.145,0.708c-0.18,0.881-0.251,1.875,0.04,2.665c0.148,0.391,0.403,0.687,0.751,0.826     c0.194,0.096,0.299,0.091,0.4,0.054c0.101-0.045,0.223-0.167,0.323-0.336c0.396-0.712,0.539-1.694,0.661-2.611     c0.109-0.933,0.158-1.894,0.159-2.831l0.002-1.224l0.814,0.924c0.533,0.604,1.136,1.191,1.764,1.694     c0.617,0.484,1.35,0.964,1.958,0.99c0.155,0.002,0.124-0.024,0.126-0.007c-0.001-0.013,0.05-0.136,0.021-0.304     c-0.027-0.325-0.136-0.714-0.277-1.086c-0.28-0.747-0.65-1.505-1.035-2.218l-0.254-0.472l0.473-0.239     c2.215-1.119,4.355-2.493,6.313-4.044c1.935-1.577,3.725-3.365,4.978-5.499l0.6-1.021l0.086,1.173     c0.076,1.034,0.253,2.172,0.786,2.995c0.07,0.096,0.144,0.188,0.228,0.26c0.058,0.062,0.048,0.03,0.036,0.043     c-0.002-0.009,0.005,0.006,0.043-0.014c0.144-0.051,0.351-0.258,0.513-0.448c0.339-0.399,0.644-0.857,0.938-1.317     c1.162-1.861,2.133-3.855,3.11-5.837c-0.79,2.068-1.667,4.1-2.719,6.068c-0.272,0.489-0.548,0.976-0.911,1.431     c-0.193,0.224-0.354,0.462-0.719,0.636c-0.087,0.045-0.218,0.067-0.36,0.052c-0.14-0.032-0.279-0.123-0.313-0.167     c-0.13-0.105-0.234-0.225-0.331-0.349c-0.706-1.029-0.889-2.167-1.028-3.309l0.686,0.151c-0.619,1.153-1.382,2.215-2.229,3.2     c-0.876,0.957-1.821,1.841-2.811,2.667c-2.006,1.628-4.143,3.042-6.449,4.244l0.219-0.71c0.432,0.768,0.814,1.534,1.112,2.378     c0.149,0.421,0.281,0.854,0.32,1.373c0.017,0.248,0.015,0.568-0.198,0.921c-0.246,0.368-0.726,0.469-0.99,0.438     c-1.108-0.106-1.819-0.703-2.521-1.232c-0.685-0.564-1.293-1.17-1.871-1.842l0.816-0.3c-0.014,0.993-0.076,1.962-0.203,2.945     c-0.147,0.979-0.28,1.966-0.859,2.936c-0.156,0.235-0.373,0.492-0.723,0.631c-0.356,0.141-0.768,0.038-0.996-0.095     c-0.547-0.241-0.938-0.764-1.102-1.28c-0.325-1.057-0.183-2.068,0.048-3.053l0.447,0.326c-1.407,0.851-2.875,1.548-4.351,2.228     C230.261,140.441,228.773,141.088,227.266,141.687z"/>
		</g>
		<g style="opacity:0.48;">
			<path style="fill:#AF312F;" d="M137.713,168.223c0.566,0.963,1.185,1.891,1.849,2.778c0.674,0.868,1.415,1.731,2.31,2.29     c0.45,0.284,0.929,0.409,1.367,0.263c0.439-0.126,0.72-0.538,0.872-1.016c0.297-0.969,0.229-2.109,0.064-3.143l-0.211-1.331     l0.891,1.024c0.777,0.893,1.652,1.736,2.552,2.507c0.912,0.747,1.893,1.461,2.952,1.809c0.528,0.201,1.056,0.222,1.547,0.136     c0.515-0.098,0.921-0.357,1.151-0.765c0.472-0.828,0.32-2.105-0.002-3.135l-0.23-0.734l0.762,0.05     c2.24,0.146,4.551,0.074,6.818-0.131c2.277-0.205,4.529-0.609,6.76-1.099c2.235-0.484,4.416-1.203,6.532-2.072     c2.154-0.807,4.134-1.981,6.108-3.176c-1.839,1.386-3.793,2.664-5.903,3.638c-2.104,0.978-4.294,1.793-6.544,2.38     c-2.243,0.621-4.546,1.011-6.859,1.266c-2.32,0.24-4.633,0.348-6.997,0.226l0.532-0.684c0.202,0.654,0.314,1.274,0.332,1.949     c0.011,0.662-0.075,1.382-0.462,2.032c-0.378,0.663-1.116,1.088-1.797,1.198c-0.7,0.125-1.434,0.053-2.046-0.188     c-1.26-0.44-2.273-1.222-3.229-2.021c-0.95-0.817-1.787-1.724-2.576-2.699l0.68-0.307c0.129,1.161,0.171,2.32-0.226,3.485     c-0.195,0.56-0.632,1.178-1.304,1.345c-0.642,0.19-1.342-0.043-1.796-0.395c-0.959-0.697-1.632-1.62-2.262-2.547     C138.727,170.218,138.186,169.235,137.713,168.223z"/>
		</g>
		<g>
			<path style="fill:#AF312F;" d="M199.705,127.373c-0.928-2.777-1.794-5.572-2.687-8.359l-2.577-8.39l-2.495-8.414     c-0.817-2.809-1.676-5.606-2.459-8.425l-0.366-1.319l1.128,0.754c2.342,1.564,4.61,3.199,6.852,4.883     c2.24,1.683,4.435,3.427,6.559,5.255c2.126,1.825,4.197,3.715,6.192,5.681c1.965,1.997,3.866,4.059,5.602,6.251     c-1.903-2.05-3.866-4.032-5.933-5.905c-2.068-1.87-4.172-3.7-6.347-5.442c-4.361-3.465-8.821-6.835-13.476-9.873l0.762-0.565     c0.838,2.803,1.602,5.627,2.407,8.439l2.371,8.45l2.288,8.474C198.255,121.702,199.011,124.528,199.705,127.373z"/>
		</g>
		<g>
			<g>
				<path style="fill:#AF312F;" d="M240.729,98.511c3.324-0.947,6.697-1.585,10.082-2.146c3.391-0.531,6.793-0.984,10.246-1.125      c-3.323,0.95-6.696,1.587-10.082,2.147C247.585,97.915,244.182,98.368,240.729,98.511z"/>
			</g>
			<g>
				<path style="fill:#AF312F;" d="M259.451,86.831c-2.891,1.669-5.904,3.051-8.948,4.361c-3.056,1.281-6.142,2.49-9.353,3.408      c2.89-1.672,5.904-3.053,8.948-4.361C253.155,88.96,256.242,87.751,259.451,86.831z"/>
			</g>
			<g>
				<path style="fill:#AF312F;" d="M253.202,78.234c-1.862,2.771-3.962,5.336-6.119,7.851c-2.181,2.495-4.421,4.938-6.901,7.174      c1.861-2.773,3.96-5.338,6.119-7.852C248.484,82.914,250.725,80.471,253.202,78.234z"/>
			</g>
		</g>
		<g>
			<g>
				<path style="fill:#AF312F;" d="M165.468,142.816c-2.601,2.275-5.38,4.291-8.202,6.244c-2.84,1.927-5.724,3.789-8.787,5.39      c2.6-2.277,5.379-4.293,8.202-6.244C159.522,146.281,162.406,144.419,165.468,142.816z"/>
			</g>
			<g>
				<path style="fill:#AF312F;" d="M143.851,147.248c2.96-1.544,6.03-2.794,9.127-3.973c3.108-1.149,6.243-2.225,9.49-3.004      c-2.959,1.546-6.029,2.797-9.127,3.973C150.232,145.391,147.097,146.467,143.851,147.248z"/>
			</g>
			<g>
				<path style="fill:#AF312F;" d="M142.457,136.711c3.337-0.085,6.645,0.142,9.944,0.445c3.297,0.335,6.586,0.748,9.845,1.476      c-3.338,0.087-6.645-0.14-9.944-0.445C149.005,137.85,145.715,137.437,142.457,136.711z"/>
			</g>
		</g>
		<g>
			<path style="fill:#6CE1C1;" d="M213.425,177.112c0,0,0.643,6.592,7.718,7.075c7.075,0.482,14.631-9.96,13.988-16.476     c-0.643-6.516-19.164-6.033-19.164-6.033L213.425,177.112z"/>
		</g>
		<g>
			<polygon style="fill:#FFFFFF;" points="215.967,161.677 233.079,173.743 259.451,140.276    "/>
		</g>
		<g style="opacity:0.48;">
			<g>
				<path style="fill:#AF312F;" d="M311.731,236.705c-1.774-0.252-3.502-0.782-5.276-0.926c-0.877-0.08-1.778-0.122-2.594,0.082      c-0.853,0.163-1.369,0.851-1.192,1.657c0.311,1.572,2.295,2.237,3.887,2.674c1.69,0.454,3.468,0.606,5.201,0.727l4.004,0.28      l-3.944,0.816c-3.515,0.728-7.101,1.427-10.443,2.574c-0.798,0.288-1.687,0.65-2.162,1.045c-0.02,0.038-0.045,0.065-0.081,0.088      c0.053-0.001,0.045-0.146,0.038-0.118c0.032,0.086,0.023,0.177,0.093,0.239c0.095,0.144,0.341,0.326,0.698,0.435      c1.427,0.46,3.324,0.362,4.99,0.176l1.446-0.162l-0.514,1.397c-2.112,5.739-3.317,11.925-4.079,18.051      c-0.724,6.157-0.848,12.385-0.288,18.553c1.119,12.33,4.668,24.422,10.455,35.39c5.831,10.955,13.683,20.782,22.709,29.381      c9.009,8.645,19.211,16.005,29.868,22.632c-11.039-5.957-21.65-12.906-30.979-21.433c-4.765-4.148-9.049-8.825-13.13-13.664      c-3.933-4.968-7.473-10.25-10.52-15.821c-6.069-11.154-9.833-23.606-10.769-36.291c-0.515-6.336-0.326-12.717,0.474-19.015      c0.801-6.309,2.223-12.497,4.613-18.479l0.932,1.234c-1.915,0.131-3.75,0.261-5.787-0.423c-0.492-0.18-1.073-0.494-1.467-1.11      c-0.217-0.309-0.283-0.672-0.319-1.035c-0.017-0.193,0.093-0.556,0.209-0.766c0.115-0.146,0.241-0.287,0.372-0.418      c0.958-0.727,1.824-0.961,2.721-1.284c3.56-1.095,7.129-1.721,10.746-2.267l0.06,1.097c-1.829-0.212-3.628-0.451-5.384-1.009      c-0.875-0.274-1.745-0.608-2.552-1.105c-0.768-0.492-1.616-1.247-1.699-2.318c-0.056-0.499,0.027-1.048,0.375-1.477      c0.343-0.426,0.844-0.62,1.304-0.716c0.939-0.184,1.857-0.093,2.749,0.048C308.291,235.705,309.983,236.344,311.731,236.705z"/>
			</g>
		</g>
		<g style="opacity:0.48;">
			<g>
				<path style="fill:#AF312F;" d="M267.825,248.011c-1.814-1.052-3.677-2.036-5.62-2.67c-0.961-0.303-1.977-0.518-2.859-0.42      c-0.437,0.041-0.816,0.176-1.085,0.398c-0.131,0.18-0.118,0.11,0.058,0.5c0.951,1.364,2.9,2.528,4.598,3.561      c1.779,1.018,3.596,2.043,5.433,2.94l5.019,2.449l-5.657-0.268c-2.726-0.129-5.623-0.317-8.143,0.102      c-0.563,0.064-1.275,0.392-1.147,0.328c0.031-0.028,0.109-0.241,0.088-0.29c0.028,0.068-0.01,0.131,0.034,0.21      c0.027,0.147,0.132,0.331,0.269,0.52c0.579,0.781,1.828,1.501,2.921,1.987l0.923,0.412l-0.18,0.916      c-0.389,1.974-0.55,4.125-0.634,6.212c-0.081,2.104,0.007,4.217,0.262,6.313c0.24,2.101,0.733,4.159,1.32,6.201      c0.585,2.055,1.543,3.965,2.544,5.888c-1.335-1.694-2.537-3.545-3.402-5.562c-0.905-1.997-1.589-4.11-1.993-6.275      c-0.434-2.159-0.696-4.356-0.782-6.563c-0.075-2.222,0.046-4.39,0.382-6.666l0.743,1.326c-1.497-0.591-2.852-1.25-4.061-2.69      c-0.283-0.375-0.557-0.808-0.703-1.351c-0.098-0.252-0.102-0.556-0.133-0.835c-0.024-0.401,0.155-0.973,0.419-1.272      c0.533-0.64,1.033-0.8,1.461-0.976c0.438-0.161,0.832-0.243,1.23-0.314c1.561-0.246,3.015-0.25,4.473-0.225      c1.458,0.028,2.882,0.131,4.337,0.305l-0.638,2.18c-1.881-1.035-3.711-2.082-5.464-3.317c-0.878-0.611-1.741-1.252-2.575-1.954      c-0.82-0.734-1.662-1.418-2.293-2.597c-0.151-0.291-0.278-0.695-0.241-1.16c0.04-0.507,0.381-0.91,0.695-1.15      c0.579-0.403,1.255-0.547,1.859-0.556c1.222,0.015,2.262,0.427,3.246,0.866C264.481,245.435,266.229,246.638,267.825,248.011z"/>
			</g>
		</g>
		<g>
			<path style="fill:#AF312F;" d="M379.802,439.762c-1.107,0.157-2.189-0.139-3.143-0.625c-0.971-0.478-1.811-1.202-2.492-2.051     c-1.322-1.719-1.967-3.997-1.32-6.096c0.716,0.862,1.202,1.666,1.741,2.412c0.514,0.752,1.029,1.45,1.566,2.126     C377.212,436.918,378.364,438.147,379.802,439.762z"/>
		</g>
		<g>
			<path style="fill:#FF5555;" d="M247.074,307.951c6.452-5.566,10.543-13.795,10.543-22.985c0-16.763-13.589-30.351-30.352-30.351     c-4.906,0-9.536,1.171-13.637,3.238l-20.76-31.097l-39.11,26.106c4.221,57.384-13.497,52.118-30.258,52.118     c-11,0-20.614-5.844-25.953-14.588L55.087,318.74l23.155,34.677c-7.395,5.535-12.181,14.365-12.181,24.314     c0,16.762,13.589,30.351,30.351,30.351c5.661,0,10.956-1.554,15.491-4.252l20.175,30.214l45.684-30.493     c-2.957-4.681-4.653-10.216-4.653-16.144c0-16.76,13.593-30.353,30.353-30.353c10.216,0,19.255,5.045,24.748,12.794     l41.634-27.789L247.074,307.951z"/>
		</g>
		<g>
			<path style="fill:#FF5555;" d="M437.337,176.13l14.39-36.217l-48.977-19.465c-3.391,13.047-15.247,22.688-29.359,22.688     c-16.774,0-30.353-13.593-30.353-30.353c0-5.283,1.345-10.258,3.728-14.588L297.788,78.73l-13.194,33.197     c-3.372-1.293-7.031-2.008-10.857-2.008c-16.763,0-30.352,13.589-30.352,30.351c0,12.668,7.764,23.519,18.79,28.066     l-15.593,39.234l48.767,19.381c4.358-11.435,15.415-19.563,28.377-19.563c16.76,0,30.353,13.593,30.353,30.353     c0,4.12-0.827,8.044-2.312,11.631l48.767,19.381l14.388-36.212c3.619,1.523,7.594,2.367,11.767,2.367     c16.763,0,30.351-13.589,30.351-30.351C457.042,191.541,448.847,180.443,437.337,176.13z"/>
		</g>
		<g>
			<path style="fill:#AF312F;" d="M272.493,58.985c-0.785,0.785-1.611,1.514-2.494,2.172c-2.2,1.654-4.708,2.887-7.357,3.644     c-2.186,0.616-4.54,0.897-6.698,0.21c-0.533-0.168-1.065-0.42-1.374-0.883c-0.448-0.673-0.266-1.569,0-2.34     c1.051-3.069,3.083-5.689,4.835-8.422c0.883-1.359,1.724-2.83,2.312-4.372c0.056-0.112,0.098-0.21,0.126-0.322     C264.239,50.858,267.896,54.417,272.493,58.985z"/>
		</g>
		<g>
			<path style="fill:#AF312F;" d="M287.572,74.19c-3.097,2.999-7.231,4.933-11.519,5.031c-1.079,0.042-2.158-0.056-3.237-0.266     c-0.715-0.14-1.444-0.35-1.976-0.827c-2.368-2.144,0.686-5.521,3.041-7.553c0.659-0.574,1.262-1.037,1.682-1.345     c1.331-0.981,2.663-2.2,4.134-3.027C282.163,68.683,284.797,71.359,287.572,74.19z"/>
		</g>
		<g>
			<path style="fill:#AF312F;" d="M256.924,44.285c-0.238,0.673-0.533,1.331-0.925,1.906c-0.336,0.504-0.743,0.939-1.247,1.275     c-0.981,0.645-2.2,0.813-3.378,0.855c-0.728,0.028-1.359-0.056-1.906-0.224c-3.938-1.135-3.447-6.531-0.897-9.725     c1.121,0.63,2.2,1.303,3.265,2.018C253.617,41.58,255.326,42.884,256.924,44.285z"/>
		</g>
		<g>
			<path style="fill:#AF312F;" d="M125.267,143.627c-0.379,2.354-2.438,4.05-4.513,5.241c-1.836,1.065-3.784,1.934-5.802,2.578     c-1.009,0.322-2.032,0.588-3.055,0.799c-1.765-4.849-3.181-8.772-4.05-11.253c0.112,0.028,0.238,0.028,0.364,0.042     c0.21,0.028,0.434,0.042,0.658,0.056c4.358,0.266,8.716-0.35,13.061-0.757c0.658-0.07,1.359-0.126,1.976,0.14     C125.042,140.965,125.477,142.408,125.267,143.627z"/>
		</g>
		<g>
			<path style="fill:#AF312F;" d="M113.916,125.648c-0.336,1.892-2.158,3.139-3.952,3.812c-1.892,0.728-3.882,1.051-5.914,1.121     c-0.981-3.335-1.681-6.713-2.088-10.09c2.845-0.224,5.913-0.701,8.548,0.252C112.557,121.486,114.308,123.518,113.916,125.648z"/>
		</g>
		<g>
			<path style="fill:#AF312F;" d="M128.476,161.606c0.014,0.491-0.084,0.967-0.266,1.43c-0.14,0.42-0.336,0.813-0.546,1.205     c-1.906,3.601-4.68,6.713-7.974,9.108c-1.555-4.162-3.055-8.184-4.428-11.925c1.528-0.841,3.055-1.626,4.61-2.34     c0.617-0.28,1.261-0.533,1.92-0.729c1.065-0.308,2.158-0.463,3.237-0.266C126.78,158.397,128.434,159.841,128.476,161.606z"/>
		</g>
		<g>
			<g>
				<path style="fill:#FF9D3D;" d="M343.568,119.064c0,0,3.748,38.711,25.156,40.832c21.409,2.121,28.983-18.72,27.505-40.832      C394.75,96.952,360.389,87.864,343.568,119.064z"/>
			</g>
			<g>
				<path style="fill:#AF312F;" d="M362.624,158.136c1.484-3.709,2.887-7.176,3.778-10.775c0.485-1.788,0.715-3.604,0.888-5.447      c0.158-1.86-0.006-3.707-0.14-5.733c1.123,1.65,1.9,3.622,2.112,5.67c0.237,2.042,0.083,4.134-0.407,6.118      c-0.529,1.975-1.293,3.873-2.344,5.595C365.468,155.284,364.215,156.887,362.624,158.136z"/>
			</g>
			<g>
				<path style="fill:#AF312F;" d="M381.37,159.563c0.987-3.56,2.052-6.826,2.778-10.175c0.39-1.665,0.612-3.338,0.811-5.038      c0.162-1.71,0.132-3.413,0.106-5.29c1.028,1.542,1.661,3.381,1.866,5.256c0.207,1.877,0.067,3.78-0.315,5.612      c-0.437,1.819-1.056,3.583-1.935,5.212C383.812,156.768,382.758,158.309,381.37,159.563z"/>
			</g>
		</g>
		<g>
			<g>
				<path style="fill:#FF9D3D;" d="M154.334,272.522c0,0-0.019,40.24-24.813,42.852c-21.395,2.254-28.984-18.72-27.505-40.832      C103.494,252.431,137.512,241.322,154.334,272.522z"/>
			</g>
			<g>
				<path style="fill:#AF312F;" d="M135.621,313.615c-1.592-1.25-2.844-2.852-3.886-4.571c-1.052-1.722-1.815-3.62-2.344-5.595      c-0.491-1.985-0.645-4.076-0.408-6.118c0.212-2.048,0.989-4.02,2.112-5.67c-0.135,2.027-0.299,3.873-0.14,5.733      c0.172,1.843,0.403,3.659,0.888,5.447C132.733,306.44,134.136,309.907,135.621,313.615z"/>
			</g>
			<g>
				<path style="fill:#AF312F;" d="M116.875,315.042c-1.388-1.254-2.442-2.795-3.311-4.422c-0.879-1.629-1.498-3.393-1.935-5.212      c-0.383-1.832-0.522-3.735-0.315-5.612c0.205-1.875,0.838-3.714,1.866-5.256c-0.025,1.877-0.056,3.58,0.106,5.29      c0.199,1.699,0.421,3.373,0.811,5.038C114.823,308.216,115.888,311.482,116.875,315.042z"/>
			</g>
		</g>
		<g>
			<path style="fill:#AF312F;" d="M444.215,307.936c-10.356,0.056-21.174-2.551-30.536-5.942c-3.882-1.415-6.362-4.765-2.438-8.058     c2.298-1.934,6.11-2.578,9.025-2.788c1.597-0.112,3.153-0.154,4.512-0.224c7.077-0.35,14.14-0.715,21.203-1.065     C446.219,296.277,445.56,302.303,444.215,307.936z"/>
		</g>
		<g>
			<path style="fill:#AF312F;" d="M437.124,326.014c-4.372,7.904-9.964,14.728-15.723,20.446     c-9.095-4.036-16.9-10.805-21.399-19.647c-1.387-2.733-2.452-6.04-1.079-8.773c1.752-3.461,6.488-4.148,10.272-3.279     c4.148,0.939,7.876,3.153,11.645,5.101C426.124,322.58,431.631,324.192,437.124,326.014z"/>
		</g>
		<g>
			<path style="fill:#AF312F;" d="M443.36,269.945c-9.011,0.981-18.064,4.302-26.836,2.116c-0.897-0.238-1.85-0.546-2.452-1.275     c-0.701-0.841-0.743-2.06-0.574-3.139c0.701-4.386,4.4-7.623,8.086-10.104c4.877-3.265,10.174-5.914,15.723-7.834     C439.731,256.086,441.833,262.869,443.36,269.945z"/>
		</g>
		<g>
			<path style="fill:#AF312F;" d="M150.085,199.863c-0.056,0.981-0.575,1.878-1.107,2.691c-3.265,5.003-7.778,9.151-12.963,12.108     c-1.92-4.512-3.966-9.487-6.04-14.686c3.644-1.093,7.273-2.242,10.945-3.377c1.836-0.575,3.784-1.093,5.662-0.686     C148.459,196.318,150.211,197.944,150.085,199.863z"/>
		</g>
		<g>
			<g style="opacity:0.39;">
				<path style="fill:#FFFFFF;" d="M251.092,56.28c9.388,13.092,6.385,31.316-6.707,40.704c-13.092,9.388-31.316,6.385-40.704-6.707      c-9.388-13.092-6.385-31.316,6.707-40.704C223.48,40.185,241.704,43.188,251.092,56.28z"/>
			</g>
			<g style="opacity:0.39;">
				<path style="fill:#FFFFFF;" d="M174.662,98.924c9.388,13.092,6.385,31.316-6.707,40.704      c-13.092,9.388-31.316,6.385-40.704-6.707c-9.388-13.093-6.385-31.316,6.707-40.705      C147.05,82.829,165.274,85.832,174.662,98.924z"/>
			</g>
			<g>
				<path style="fill:#AF312F;" d="M150.917,146.222c-1.661,0-3.337-0.136-5.011-0.412c-8.022-1.323-15.047-5.687-19.784-12.295      c-4.737-6.605-6.62-14.662-5.297-22.682c1.321-8.022,5.687-15.05,12.295-19.786c13.633-9.777,32.689-6.64,42.466,7      c4.739,6.605,6.62,14.662,5.297,22.682c-1.321,8.022-5.687,15.047-12.295,19.784      C163.36,144.262,157.226,146.222,150.917,146.222z M150.816,87.882c-5.63,0-11.31,1.696-16.225,5.218      c-12.505,8.97-15.383,26.439-6.415,38.943c8.968,12.507,26.441,15.383,38.941,6.415c6.057-4.344,10.061-10.787,11.273-18.14      c1.212-7.356-0.513-14.744-4.858-20.801l0,0C168.089,91.928,159.512,87.882,150.816,87.882z"/>
			</g>
			<g>
				<path style="fill:#AF312F;" d="M170.437,94.69l-1.279-2.182c0.072-0.042,7.4-4.332,27.589-15.282l1.205,2.222      C177.812,90.37,170.508,94.648,170.437,94.69z"/>
			</g>
			<g>
				<path style="fill:#AF312F;" d="M227.056,103.969c-9.486,0-18.839-4.411-24.775-12.69c-4.737-6.605-6.618-14.662-5.295-22.682      c1.321-8.022,5.687-15.047,12.295-19.784c6.603-4.739,14.662-6.625,22.682-5.297c8.022,1.321,15.047,5.687,19.784,12.295l0,0      c4.739,6.605,6.62,14.662,5.297,22.682c-1.321,8.022-5.687,15.047-12.295,19.784      C239.393,102.12,233.195,103.969,227.056,103.969z M226.957,45.631c-5.786,0-11.411,1.797-16.205,5.235      c-12.505,8.968-15.383,26.436-6.418,38.941c8.972,12.505,26.439,15.385,38.943,6.415c6.057-4.344,10.061-10.787,11.273-18.14      c1.212-7.356-0.513-14.744-4.858-20.801l0,0c-4.344-6.057-10.787-10.061-18.14-11.273      C230.018,45.757,228.48,45.631,226.957,45.631z"/>
			</g>
		</g>
		<g>
			<path style="fill:#FFFFFF;" d="M158.259,176.733c0,0,49.152-12.465,57.708-15.056c0,4.931-0.514,17.895-0.514,17.895     L158.259,176.733z"/>
		</g>
		<g>
			<g>
				<path style="fill:#6CE1C1;" d="M227.012,180.973c0,0-1.694,4.626-6.168,10.793c-0.48,0.682-1.011,1.39-1.592,2.123      c-2.426,3.084-5.485,6.445-9.327,9.757c-0.632,0.556-1.315,1.112-1.997,1.668c-2.983,2.376-6.344,4.701-10.186,6.85      c-0.733,0.404-1.492,0.809-2.275,1.213c-3.589,1.845-7.557,3.539-11.93,4.954c-0.784,0.253-1.593,0.506-2.427,0.733      c-3.741,1.112-7.76,2.022-12.107,2.705c-0.809,0.126-1.643,0.227-2.503,0.329c-3.867,0.506-7.936,0.834-12.259,0.91      c-0.834,0.025-1.668,0.025-2.528,0.025c-0.809,0-1.618,0-2.452-0.025c-4.525-0.101-8.771-0.379-12.739-0.809      c-0.86-0.101-1.719-0.202-2.553-0.303c-5.738-0.758-10.919-1.82-15.696-3.109c-0.936-0.227-1.845-0.48-2.755-0.758      c-4.019-1.137-7.76-2.426-11.248-3.741c-1.011-0.404-2.022-0.784-3.008-1.163c-6.42-2.553-12.107-5.106-17.668-7.077      c-1.062-0.404-2.098-0.758-3.135-1.087c-6.344-1.997-12.638-3.109-19.74-2.376c-0.885,0.076-1.769,0.202-2.654,0.354      c-5.182,0.834-10.818,2.654-17.213,5.763c-0.758,0.354-1.516,0.733-2.3,1.137c-2.073,1.062-4.221,2.275-6.445,3.614      L9.158,202.129l14.433-19.538l1.643-2.25l1.516-2.047c0,0,6.016-3.64,15.368-6.471c0.809-0.253,1.643-0.48,2.502-0.708      c6.016-1.618,13.194-2.806,20.903-2.578c0.91,0.025,1.87,0.076,2.806,0.177c6.799,0.506,13.978,2.199,21.08,5.738      c1.062,0.48,2.098,1.036,3.16,1.643c2.3,1.314,4.6,2.856,6.876,4.6c2.957,2.275,6.066,4.474,9.327,6.546      c0.986,0.657,1.972,1.264,2.983,1.87c6.117,3.741,12.663,7.077,19.462,9.782c0.885,0.354,1.77,0.708,2.68,1.036      c5.106,1.896,10.313,3.438,15.544,4.55c0.885,0.177,1.745,0.329,2.629,0.506c4.019,0.708,8.038,1.137,12.031,1.289      c0.885,0.025,1.719,0.025,2.578,0.025c3.893,0,7.76-0.329,11.526-1.011c0.834-0.126,1.668-0.303,2.477-0.48      c3.842-0.834,7.608-2.073,11.248-3.716c0.784-0.354,1.568-0.708,2.325-1.087c2.932-1.517,5.788-3.286,8.518-5.359      c0.682-0.506,1.365-1.062,2.022-1.618c2.78-2.3,5.434-4.954,7.962-7.987c0.556-0.657,1.113-1.34,1.643-2.047      c1.137-1.491,2.249-3.058,3.336-4.701L227.012,180.973z"/>
			</g>
			<g>
				<path style="fill:#9CF0E7;" d="M40.854,208.701c-0.758,0.354-1.516,0.733-2.3,1.137c-5.207-9.554-10.313-18.856-14.964-27.248      l1.643-2.25C30.036,188.91,35.344,198.566,40.854,208.701z"/>
			</g>
			<g>
				<path style="fill:#9CF0E7;" d="M60.721,202.584c-0.885,0.076-1.769,0.202-2.654,0.354l-15.949-31.115      c0.809-0.253,1.643-0.48,2.502-0.708L60.721,202.584z"/>
			</g>
			<g>
				<path style="fill:#9CF0E7;" d="M83.596,206.047c-1.062-0.404-2.098-0.758-3.135-1.087      c-5.156-12.739-10.464-25.706-14.938-36.423c0.91,0.025,1.87,0.076,2.806,0.177c1.947,4.701,4.221,10.237,6.875,16.682      C78.111,192.525,81.018,199.652,83.596,206.047z"/>
			</g>
			<g>
				<path style="fill:#9CF0E7;" d="M104.272,214.287c-1.011-0.404-2.022-0.784-3.008-1.163l-11.855-38.672      c1.062,0.48,2.098,1.036,3.16,1.643L104.272,214.287z"/>
			</g>
			<g>
				<path style="fill:#9CF0E7;" d="M118.275,218.786c-0.936-0.227-1.845-0.48-2.755-0.758l-6.749-30.786      c0.986,0.657,1.972,1.264,2.983,1.87L118.275,218.786z"/>
			</g>
			<g>
				<path style="fill:#9CF0E7;" d="M136.524,222.199c-0.86-0.101-1.719-0.202-2.553-0.303l-2.755-23.001      c0.885,0.354,1.77,0.708,2.68,1.036L136.524,222.199z"/>
			</g>
			<g>
				<path style="fill:#9CF0E7;" d="M154.243,223.007c-0.834,0.025-1.668,0.025-2.528,0.025l-2.275-18.553      c0.885,0.177,1.745,0.329,2.629,0.506L154.243,223.007z"/>
			</g>
			<g>
				<path style="fill:#9CF0E7;" d="M169.004,221.769c-0.809,0.126-1.643,0.227-2.503,0.329l-2.401-15.823      c0.885,0.025,1.719,0.025,2.578,0.025L169.004,221.769z"/>
			</g>
			<g>
				<path style="fill:#9CF0E7;" d="M183.538,218.331c-0.784,0.253-1.593,0.506-2.427,0.733l-2.906-13.775      c0.834-0.126,1.668-0.303,2.477-0.48L183.538,218.331z"/>
			</g>
			<g>
				<path style="fill:#9CF0E7;" d="M197.743,212.164c-0.733,0.404-1.492,0.809-2.275,1.213l-3.539-12.284      c0.784-0.354,1.568-0.708,2.325-1.087L197.743,212.164z"/>
			</g>
			<g>
				<path style="fill:#9CF0E7;" d="M209.926,203.646c-0.632,0.556-1.315,1.112-1.997,1.668l-5.156-10.666      c0.682-0.506,1.365-1.062,2.022-1.618L209.926,203.646z"/>
			</g>
			<g>
				<path style="fill:#9CF0E7;" d="M220.845,191.766c-0.48,0.682-1.011,1.39-1.592,2.123l-6.496-8.847      c0.556-0.657,1.113-1.34,1.643-2.047L220.845,191.766z"/>
			</g>
		</g>
	</g>
	<g>
		<path style="fill:#6CE1C1;" d="M332.26,38.615c0.135-1.467,0.201-1.212-1.114-1.62c-1.602-0.496-3.213-0.966-4.607-1.384    c-0.424-2.055-0.821-3.975-1.231-5.958c1.548-1.272,3.166-2.601,4.794-3.938c-1.036-2.256-2.438-4.192-4.094-6.005    c-1.716,0.926-3.392,1.825-5.062,2.736c-0.3,0.163-0.499,0.203-0.829-0.039c-1.293-0.946-2.612-1.86-3.966-2.715    c-0.39-0.246-0.458-0.461-0.417-0.867c0.17-1.674,0.301-3.352,0.464-5.027c0.041-0.416-0.044-0.652-0.489-0.815    c-1.995-0.73-4.062-1.013-6.167-1.118c-0.417-0.021-0.524,0.209-0.621,0.549c-0.451,1.571-0.94,3.131-1.38,4.705    c-0.127,0.454-0.3,0.633-0.814,0.707c-1.774,0.256-3.532,0.615-5.438,0.962c-1.156-1.407-2.467-3.004-3.779-4.6    c-2.302,1.046-4.324,2.368-6.115,4.077c1.02,1.868,2.011,3.685,2.91,5.331c-0.928,1.482-1.826,2.837-2.632,4.245    c-0.305,0.532-0.605,0.702-1.205,0.629c-1.598-0.195-3.203-0.327-4.807-0.468c-0.317-0.028-0.714-0.152-0.812,0.359    c-0.398,2.08-0.797,4.16-1.194,6.24c-0.085,0.442,0.117,0.643,0.546,0.764c1.596,0.449,3.174,0.968,4.777,1.39    c0.618,0.163,0.744,0.503,0.837,1.065c0.229,1.388,0.486,2.778,0.866,4.13c0.164,0.583,0.078,0.841-0.377,1.194    c-1.461,1.133-2.878,2.324-4.282,3.468c0.439,1.434,2.858,4.966,4.164,6.106c1.647-0.907,3.322-1.807,4.971-2.753    c0.412-0.237,0.643-0.163,1.014,0.094c1.196,0.831,2.45,1.577,3.655,2.396c0.202,0.138,0.397,0.484,0.379,0.717    c-0.113,1.483-0.279,2.963-0.443,4.441c-0.093,0.827-0.133,1.16,0.141,1.383l6.625,1.319c0.465-0.135,0.587-0.519,0.904-1.556    c0.392-1.282,0.739-2.579,1.157-3.852c0.076-0.233,0.37-0.507,0.605-0.556c1.521-0.315,3.06-0.542,4.578-0.867    c0.442-0.095,0.697-0.066,0.985,0.298c1.014,1.281,2.062,2.535,3.099,3.797c0.168,0.204,0.343,0.403,0.642,0.753    c2.007-1.368,3.99-2.721,6.024-4.108c-0.938-1.747-1.765-3.349-2.657-4.914c-0.314-0.552-0.345-0.896,0.088-1.446    c0.884-1.123,1.612-2.369,2.438-3.54c0.127-0.18,0.445-0.337,0.661-0.322c1.653,0.119,3.31,0.235,4.952,0.454    c0.788,0.105,1.111-0.167,1.243-0.884L332.26,38.615z M305.951,46.782c-5.921-1.179-9.766-6.934-8.587-12.856l0,0    c1.178-5.921,6.934-9.766,12.855-8.587l0,0c5.921,1.179,9.766,6.934,8.587,12.855l0,0    C317.628,44.116,311.872,47.961,305.951,46.782L305.951,46.782z"/>
	</g>
</g>















</svg>
