<?xml version="1.0" encoding="UTF-8"?>
<!-- Generator: Adobe Illustrator 25.2.3, SVG Export Plug-In . SVG Version: 6.00 Build 0)  -->
<svg xmlns="http://www.w3.org/2000/svg" xmlns:xlink="http://www.w3.org/1999/xlink" version="1.1" id="Capa_1" x="0px" y="0px" viewBox="0 0 512 512" style="enable-background:new 0 0 512 512;" xml:space="preserve" width="512" height="512">
<g>
	<path style="fill:#9CF0E7;" d="M462.28,245.158c1.825-24.133,3.327-48.356,2.105-72.433c-1.169-23.047-5.016-46.727-16.302-67.161   c-19.128-34.632-50.514-57.486-90.251-62.431c-5.404-0.672-10.842-1.084-16.283-1.295   C173.544,35.321,47.715,131.154,38.035,308.913C30.349,450.082,253.484,541.02,361.608,503.532   c89.177-30.922,92.945-147.626,98.203-225.459C460.549,267.135,461.448,256.156,462.28,245.158z"/>
	<g>
		<g>
			<path style="fill:#FF9D3D;" d="M243.7,389.661c0.101,7.207-0.303,14.43-1.21,21.57c-2.251,17.554-8.147,34.925-18.798,48.145     c-7.593,9.424-17.605,16.732-30.439,20.478c-0.538,0.184-1.109,0.336-1.663,0.487c-19.94,5.258-40.771-1.059-55.234-15.522     c-10.634-10.634-15.993-23.72-18.563-37.696v-0.017c-1.495-8.114-2.05-16.53-2.133-24.929     c-0.067-5.812,0.034-11.726,0.084-17.689c0.151-15.018,0.05-30.288-3.377-44.601c-3.679-15.405-13.372-29.347-29.667-32.875     c-2.738-0.588-5.46-0.739-8.164-0.588c-10.046,0.504-20.024,4.855-30.137,4.855c-19.621,0-33.497-28.306,9.76-31.683     c2.755-0.218,5.728-0.336,8.954-0.336c1.512,0,3.024,0.033,4.536,0.084c25.181,0.974,47.423,12.23,58.09,35.798     c8.786,19.403,9.122,41.879,8.853,62.626c-0.118,8.635,0.017,17.269,0.806,25.853c1.041,11.575,3.242,24.695,8.971,35.429     c3.36,6.316,7.946,11.81,14.228,15.657c2.789,1.713,5.661,3.024,8.568,3.981c21.318,6.888,44.5-6.299,51.774-28.054     c1.361-4.082,2.268-8.534,2.537-12.834c0.151-2.52-1.008-7.291,0.605-9.407c0.017-0.034,20.562-26.693,21.2-27.533     C242.44,382.589,243.683,387.746,243.7,389.661z"/>
			<path style="opacity:0.2;fill:#AF312F;" d="M243.7,389.661c0.101,7.207-0.303,14.43-1.21,21.57     c-2.251,17.554-8.147,34.925-18.798,48.145c-7.593,9.424-17.605,16.732-30.439,20.478c-0.538,0.184-1.109,0.336-1.663,0.487     c-19.94,5.258-40.771-1.059-55.234-15.522c-10.634-10.634-15.993-23.72-18.563-37.696v-0.017     c-1.495-8.114-2.05-16.53-2.133-24.929c-0.067-5.812,0.034-11.726,0.084-17.689c0.151-15.018,0.05-30.288-3.377-44.601     c-3.679-15.405-13.372-29.347-29.667-32.875c-2.738-0.588-5.46-0.739-8.164-0.588c-10.046,0.504-20.024,4.855-30.137,4.855     c-19.621,0-33.497-28.306,9.76-31.683c2.755-0.218,5.728-0.336,8.954-0.336c1.512,0,3.024,0.033,4.536,0.084     c25.181,0.974,47.423,12.23,58.09,35.798c8.786,19.403,9.122,41.879,8.853,62.626c-0.118,8.635,0.017,17.269,0.806,25.853     c1.041,11.575,3.242,24.695,8.971,35.429c3.36,6.316,7.946,11.81,14.228,15.657c2.789,1.713,5.661,3.024,8.568,3.981     c21.318,6.888,44.5-6.299,51.774-28.054c1.361-4.082,2.268-8.534,2.537-12.834c0.151-2.52-1.008-7.291,0.605-9.407     c0.017-0.034,20.562-26.693,21.2-27.533C242.44,382.589,243.683,387.746,243.7,389.661z"/>
		</g>
		<path style="fill:#AF312F;" d="M74.536,306.423c-10.046,0.504-20.024,4.855-30.137,4.855c-19.621,0-33.497-28.306,9.76-31.683    c-1.714,6.316-6.081,11.877-6.081,11.877C65.7,289.692,72.201,299.939,74.536,306.423z"/>
		<path style="fill:#AF312F;" d="M117.793,427.106c-1.495-8.114-2.05-16.53-2.133-24.929c-0.067-5.812,0.034-11.726,0.084-17.689    c7.795,2.873,15.472,7.912,16.648,16.698C134.055,413.415,124.899,422.234,117.793,427.106z"/>
		<path style="fill:#AF312F;" d="M167.165,458.688c-2.822,4.788-7.946,9.424-16.648,5.51c-11.154-5.006-8.584-18.008-6.148-25.148    c3.36,6.316,7.946,11.81,14.228,15.657C161.386,456.42,164.259,457.73,167.165,458.688z"/>
		<path style="fill:#AF312F;" d="M223.693,459.376c-7.593,9.424-17.605,16.732-30.439,20.478c0.235-6.837,2.486-17.37,13.456-22.191    C213.412,454.723,219.174,456.353,223.693,459.376z"/>
	</g>
	<g>
		<path style="fill:#FF9D3D;" d="M486.012,344.014c-4.922-11.305-27.029-4.922-27.029-4.922c-0.185-0.218-0.369-0.42-0.554-0.621    c-15.707-16.043-77.073,25.198-77.073,25.198c-3.3-18.646-13.12-32.439-22.273-41.572c-1.898-7.553-3.965-14.836-5.961-21.689    c0.482,0.68,1.005,1.144,1.515,1.059c1.667-0.276,0.835-5.268,0.835-5.268s4.185,6.796,8.035,5.279    c2.574-1.014-2.161-6.457-2.161-6.457s10.292-4.029,8.553-11.826c-0.001-0.003-0.002-0.004-0.002-0.007    c11.234-9.708,24.984-23.922,36.569-42.853c0.103-0.144,0.185-0.309,0.288-0.453c3.091-5.089,5.934-10.796,8.51-16.895    c1.895-4.492,3.626-9.189,5.233-14.031c2.04-6.181,3.853-12.589,5.398-19.058c1.504-6.243,2.74-12.527,3.75-18.708    c1.071-6.552,1.875-12.98,2.369-19.12c1.71-20.954,0.02-38.302-5.501-44.689c0,0-4.78-4.1-8.427-0.742    c0,0-3.173-8.159-9.828-7.623c-6.634,0.515-9.354,5.707-9.354,5.707s-9.251-1.957-13.763,9.024    c-2.724,6.616-11.569,36.351-23.207,62.168c-0.551-4.954-1.821-9.897-3.874-14.742c1.132-0.673,2.212-1.401,3.209-2.203    c0.013-0.007,0.024-0.004,0.027-0.014c1.183-0.945,2.268-1.977,3.284-3.075c0.013-0.007,0.017-0.018,0.017-0.018    c10.546-11.482,11.453-29.749,7.146-32.148c-0.512-0.282-1.039-0.512-1.606-0.686c-5.582-1.741-13.744,1.637-21.642,7.49    c-3.44,2.539-7.472,3.851-11.1,4.522c-3.638-2.969-7.655-5.966-12.011-8.918c-3.245-2.21-6.666-4.387-10.227-6.508    c-1.436-0.873-2.903-1.717-4.393-2.554c-6.664-3.784-13.711-7.314-20.88-10.374c-1.828-0.787-3.664-1.552-5.51-2.264    c-4.79-1.888-9.611-3.541-14.373-4.909c-4.223-1.217-8.405-2.205-12.496-2.932c-0.972-2.968-1.602-6.316-1.346-9.76    c0.8-10.597-1.023-19.9-6.353-23.112c-0.094-0.06-0.203-0.113-0.292-0.17c-3.463-2.206-25.28,33.11-25.28,33.11    c0.046,0.295,0.114,0.591,0.182,0.887c0.064,0.282,0.154,0.535,0.228,0.806c-5.277,2.102-10.356,5.235-14.965,9.181    c7.617-10.177,24.247-34.5,17.247-44.38c0,0,3.049-7.108-2.72-11.497c-6.696-5.089-14.299-0.597-14.299-0.597    s-14.546-4.43-38.467,31.132c-2.761,4.1-5.645,8.736-8.654,13.969c-0.185,0.33-0.371,0.659-0.556,0.989    c-0.721,1.298-1.442,2.637-2.164,4.038c-2.926,4.533-5.666,9.128-8.221,13.722c-2.308,4.08-4.45,8.2-6.469,12.3    c-5.254,10.693-9.622,21.449-13.269,32.059c-1.937,5.584-3.647,11.147-5.171,16.627c-16.967,60.83-11.418,114.39-9.809,126.565    l-22.662,5.482c0,0-22.465,35.784,2.681,75.036c25.146,39.253,49.679,39.866,73.599,41.706s50.906-6.133,84.025,12.266    c23.228,12.905,45.646,22.986,66.56,15.903c37.943,1.199,50.266-34.647,50.266-34.647c3.662,0.806,7.526-0.622,12.398-4.401    c1.411-1.092,2.923-2.369,4.519-3.864c6.317-5.88,14.229-14.867,24.913-27.113c20.259-23.199,65.969-26.912,72.184-35.429    C486.381,346.349,486.549,345.241,486.012,344.014z"/>
		<path style="opacity:0.2;fill:#AF312F;" d="M485.492,347.391c-6.216,8.517-51.925,12.229-72.184,35.429    c-10.684,12.246-18.596,21.233-24.913,27.113c-1.596,1.495-3.108,2.772-4.519,3.864c-4.872,3.78-8.736,5.208-12.398,4.401    c0,0-17.965,48.371-63.46,28.644c0,0,9.585-15.494,26.014-41.045c16.412-25.551,11.253-64.518,6.687-97.161    c-1.495-1.629,33.648,16.211,40.519,55.033c0,0,61.366-41.241,77.073-25.198c0.185,0.201,0.37,0.403,0.554,0.621    c0,0,22.107-6.383,27.029,4.922C486.433,345.241,486.265,346.349,485.492,347.391z"/>
		<path style="opacity:0.2;fill:#AF312F;" d="M485.609,347.542c-0.857,1.176-2.486,2.268-4.704,3.326    c-2.889,1.394-6.787,2.738-11.289,4.183c-0.974,0.302-1.982,0.621-3.024,0.957c-0.571,0.185-1.159,0.37-1.764,0.554    c-16.631,5.174-38.889,12.061-51.404,26.408c-5.897,6.753-10.936,12.515-15.321,17.303c-0.269,0.302-0.538,0.588-0.806,0.874    c-3.259,3.528-6.165,6.501-8.786,8.937c-1.596,1.495-3.108,2.772-4.519,3.864c-1.209-0.991-2.201-2.368-2.789-4.25    c-1.697-5.359,2.705-12.364,5.359-16.648c5.527-8.886,12.834-16.715,20.797-23.468c18.143-15.387,41.829-25.601,65.784-26.122    C477.764,343.342,482.636,344.115,485.609,347.542z"/>
		<path style="fill:#AF312F;" d="M430.311,343.297c1.219-0.596,2.542-0.818,3.864-0.859c1.328-0.044,2.669,0.154,3.97,0.571    c1.282,0.465,2.526,1.152,3.516,2.142c0.985,0.995,1.647,2.293,1.805,3.621c-1.04-0.886-1.943-1.603-2.939-2.18    c-1.018-0.534-2.04-0.997-3.135-1.359C435.197,344.48,432.87,344.035,430.311,343.297z"/>
		<path style="fill:#AF312F;" d="M459.528,344.63c-0.105-2.567-0.901-4.378-2.352-5.732c-0.679-0.737-1.618-1.274-2.536-1.916    c-0.972-0.58-1.998-1.133-3.062-1.882c1.263-0.209,2.536-0.127,3.779,0.194c1.227,0.371,2.457,0.936,3.456,1.92    c0.981,0.965,1.722,2.297,1.829,3.695C460.781,342.287,460.393,343.662,459.528,344.63z"/>
		<path style="fill:#FFC893;" d="M464.828,356.563c-16.631,5.174-38.889,12.061-51.404,26.408    c-5.897,6.753-10.936,12.515-15.321,17.303c-0.269,0.302-0.538,0.588-0.806,0.874c-1.411-1.814-1.898-4.452-1.512-6.787    c0.689-4.049,3.36-7.459,6.148-10.466c12.599-13.658,29.163-24.258,47.641-27.517c4.082-0.722,8.651-1.495,12.767-0.639    C463.233,355.925,464.073,356.194,464.828,356.563z"/>
		<path style="fill:#FFC893;" d="M480.905,350.868c-2.889,1.394-6.787,2.738-11.289,4.183c-0.151-0.168-0.269-0.353-0.369-0.571    c-0.538-1.125-0.05-2.536,0.874-3.376c0.924-0.823,2.167-1.193,3.41-1.361C475.664,349.457,478.923,349.524,480.905,350.868z"/>
		<path style="fill:#FFC893;" d="M451.32,349.882c-0.321,0.635-0.415,1.511,0.126,1.974c0.258,0.221,0.606,0.298,0.939,0.365    c1.591,0.319,3.464,0.597,4.827-0.511c0.943-0.766,1.396-2.081,0.589-3.106C456.084,346.424,452.392,347.762,451.32,349.882z"/>
	</g>
	<path style="fill:#AF312F;" d="M224.233,96.651c-4.136-21.367,19.785-36.135,25.277-33.112c0.094,0.049,0.199,0.109,0.293,0.169   c-1.423,1.006-3.3,2.751-4.969,5.698c-1.671,2.979-5.857,6.278-6.395,12.157c-0.976,10.813-4.926,15.172-10.124,15.507   C226.752,97.181,225.325,96.998,224.233,96.651z"/>
	<g>
		<path style="fill:#AF312F;" d="M364.598,155.866c0,0-0.006,0.009-0.021,0.012c-0.136,0.195-1.342,1.742-3.279,3.071    c-0.006,0.009-0.021,0.012-0.027,0.022c-1.083,0.745-2.72,1.357-4.562,1.649c-3.252,0.523-4.186-5.24-4.186-5.24    s6.714-10.847,14.585-21.212c2.58-3.398,4.006-7.091,3.028-11.14c0.564,0.178,1.094,0.41,1.609,0.685    C376.05,126.111,375.141,144.381,364.598,155.866z"/>
		<path style="fill:#FFFFFF;" d="M358.434,151.566c0,0,0.996,5.069-1.724,9.055c-3.252,0.523-7.128,0.054-9.712-2.42    c-6.353-6.104,12.24-13.667,20.111-24.032c-0.511,3.377-1.978,8.205-6.048,12.065c0,0,4.741-0.962,5.28,0.043    c0.503,0.981-5.214,2.883-5.535,2.987c0.239-0.015,3.006-0.195,3.18,1.025C364.165,151.561,358.434,151.566,358.434,151.566z"/>
	</g>
	<path style="fill:#FFFFFF;" d="M228.315,97.07c-5.349-12.006,6.459-16.232,6.459-16.232s-2.817-0.786-2.217-2.489   c0.585-1.629,3.121,0.048,3.339,0.19c-0.057-0.133-1.298-2.845-0.751-3.86c0.561-1.047,2.378,1.603,2.378,1.603   c1.436-4.453,5.315-6.24,7.31-6.875c-1.671,2.979-3.124,7.171-3.662,13.05C240.195,93.269,233.512,96.735,228.315,97.07z"/>
	<path style="fill:#AF312F;" d="M354.8,209.227c-2.622-0.311-5.221-0.895-7.786-1.525c-3.663-0.919-7.686-2.239-9.504-5.545   c-0.619-1.105-0.926-2.398-0.746-3.643c0.371-2.605,2.802-4.522,5.351-5.176c2.549-0.669,5.233-0.356,7.86-0.183   c2.848,0.204,5.793,0.213,8.588-0.478c1.047-0.255,1.934-0.758,2.784-1.287C360.198,197.526,357.986,203.534,354.8,209.227z"/>
	<path style="fill:#AF312F;" d="M361.788,188.704c-2.107,0.005-4.202-0.311-6.203-1.173c-2.316-1.01-5.444-2.62-4.967-5.649   c0.119-0.805,0.57-1.507,1.178-2.074c2.452-2.305,6.005-1.742,8.978-2.763c0.41-0.146,0.82-0.323,1.238-0.507   C362.415,180.604,362.33,184.67,361.788,188.704z"/>
	<path style="fill:#AF312F;" d="M344.254,223.27c-1.815-1.375-3.383-3.069-4.608-4.996c-0.819-1.272-1.494-2.737-1.359-4.236   c0.136-1.514,1.354-3.007,2.864-2.971c0.74,0.018,1.43,0.377,2.106,0.69c2.472,1.145,5.2,1.727,7.918,1.697   c0.366-0.003,0.75-0.051,1.125-0.107c-0.635,0.963-1.294,1.917-1.983,2.856C348.333,218.913,346.3,221.256,344.254,223.27z"/>
	<g>
		<path style="fill:#AF312F;" d="M301.807,112.099c0,0-2.574-5.684-5.102-5.462c-2.529,0.221-0.103,6.638,3.994,9.114    c0,0,8.42-1.681,7.563-5.4C307.404,106.632,301.807,112.099,301.807,112.099z"/>
		<path style="fill:#AF312F;" d="M281.423,143.283c1.545-2.482,3.148-4.926,4.725-7.385l4.825-7.317l4.901-7.265    c1.647-2.412,3.256-4.851,4.934-7.242l0.84-1.197l0.144,1.441c0.279,2.799,0.456,5.586,0.579,8.384    c0.123,2.795,0.17,5.595,0.105,8.393c-0.062,2.798-0.208,5.594-0.462,8.38c-0.298,2.782-0.686,5.556-1.282,8.285    c0.365-2.769,0.645-5.54,0.773-8.322c0.126-2.781,0.2-5.563,0.159-8.346c-0.103-5.56-0.332-11.136-0.946-16.65l0.984,0.245    c-1.627,2.426-3.323,4.805-4.982,7.21l-5.015,7.186l-5.09,7.135C284.885,138.573,283.183,140.948,281.423,143.283z"/>
		<path style="opacity:0.48;fill:#AF312F;" d="M292.191,113.957c-3.002,0.052-6.231,1.39-8.683,4.122    c-3.555,3.961-5.543,9.552-3.681,14.426c1.155,3.025,3.379,5.071,5.764,6.573c4.571,2.878,9.32,5.35,14.9,4.982    c2.024-0.133,4.112-0.606,6.05-1.789c2.97-1.811,5.433-5.312,6.455-9.177c1.022-3.864,0.581-8.002-1.158-10.847    c-2.139-3.5-6.217-5.466-9.762-6.306C298.917,115.193,295.491,113.9,292.191,113.957z"/>
	</g>
	<path style="opacity:0.48;fill:#EB4949;" d="M321.645,159.77c-4.297,0.816-6.852,5.256-4.111,9.268   c3.671,5.372,13.476,9.004,19.732,6.991c5.281-1.7,5.652-8.867,2-11.784c-3.087-2.466-6.934-3.784-10.777-4.337   C326.703,159.651,324.053,159.313,321.645,159.77z"/>
	<path style="opacity:0.48;fill:#EB4949;" d="M234.492,119.242c-4.473-0.42-8.987,3.479-8.257,8.502   c0.978,6.726,8.612,13.448,15.511,13.194c5.825-0.214,9.537-7.622,7.426-11.767c-1.783-3.504-4.829-6.03-8.229-7.751   C239.363,120.62,236.998,119.478,234.492,119.242z"/>
	<path style="fill:#AF312F;" d="M205.431,149.007c-2.259,0.427-4.557-0.201-6.731-0.931c-3.312-1.128-6.554-2.528-9.57-4.288   c0.931-6.052,2.861-11.84,5.569-17.174c0.072,0.125,0.145,0.234,0.224,0.351c3.264,4.79,8.037,8.288,12.136,12.312   c1.463,1.423,2.937,3.176,2.852,5.219C209.818,146.783,207.674,148.58,205.431,149.007z"/>
	<path style="fill:#AF312F;" d="M197.877,159.047c-2.408,1.819-5.592,2.423-8.604,2.135c-0.074-0.003-0.141-0.013-0.214-0.03   c-0.778-4.414-0.949-8.779-0.595-13.043c1.84,1.109,3.722,2.109,5.89,2.77c1.176,0.352,2.384,0.646,3.462,1.247   c1.071,0.593,2.01,1.583,2.206,2.793C200.279,156.53,199.173,158.051,197.877,159.047z"/>
	<path style="fill:#AF312F;" d="M202.975,129.912c-1.094-0.366-1.983-1.174-2.739-2.047c-1.373-1.596-2.409-3.433-3.275-5.355   c2.621-4.338,5.748-8.307,9.24-11.791c-0.009,0.48-0.055,0.952-0.094,1.401c-0.402,4.406-0.256,8.845,0.451,13.204   c0.215,1.32,0.431,2.816-0.406,3.848C205.42,130.063,204.077,130.27,202.975,129.912z"/>
	<g>
		<path style="fill:#AF312F;" d="M211.991,121.423c3.435,0.544,6.776,1.41,10.094,2.355c3.309,0.977,6.595,2.034,9.787,3.417    c-3.436-0.542-6.777-1.408-10.095-2.355C218.469,123.861,215.183,122.803,211.991,121.423z"/>
		<path style="fill:#AF312F;" d="M214.784,113.269c3.119,1.297,6.072,2.883,8.983,4.541c2.895,1.687,5.747,3.446,8.432,5.498    c-3.121-1.294-6.073-2.881-8.984-4.541C220.322,117.079,217.469,115.319,214.784,113.269z"/>
		<path style="fill:#AF312F;" d="M221.858,105.4c2.265,2.534,4.254,5.257,6.174,8.027c1.893,2.789,3.718,5.625,5.263,8.652    c-2.267-2.532-4.256-5.256-6.174-8.027C225.23,111.263,223.406,108.426,221.858,105.4z"/>
	</g>
	<g>
		<path style="fill:#AF312F;" d="M332.485,168.977c3.307,1.174,6.464,2.647,9.583,4.193c3.105,1.576,6.172,3.228,9.088,5.181    c-3.308-1.171-6.465-2.645-9.583-4.193C338.469,172.58,335.402,170.928,332.485,168.977z"/>
		<path style="fill:#AF312F;" d="M354.637,170.565c-3.359-0.329-6.643-0.985-9.908-1.721c-3.258-0.768-6.497-1.618-9.66-2.797    c3.36,0.327,6.644,0.983,9.909,1.721C348.235,168.538,351.474,169.388,354.637,170.565z"/>
		<path style="fill:#AF312F;" d="M354.39,159.876c-3.127,1.175-6.33,2.023-9.551,2.792c-3.229,0.736-6.477,1.39-9.802,1.715    c3.126-1.177,6.329-2.025,9.551-2.792C347.818,160.858,351.066,160.204,354.39,159.876z"/>
	</g>
	<g>
		<g>
			<path style="fill:#FFFFFF;" d="M327.518,158.466c-6.035-2.769-11.693-9.244-13.061-15.46c-0.291-1.328-0.378-2.667-0.22-4     c0.718-5.79,5.059-11.268,10.151-14.147c0.112-0.076,0.23-0.142,0.349-0.208c5.201-2.811,11.801-2.477,17.217,0.626     c6.336,3.635,12.457,10.908,11.524,18.084c-0.372,2.832-1.643,5.618-3.53,8.065l0.007,0.009     C344.949,157.978,335.606,162.169,327.518,158.466z"/>
			<path style="fill:#AF312F;" d="M327.518,158.466c-3.41-1.568-6.335-4.049-8.73-6.87c-1.192-1.422-2.231-2.963-3.067-4.597     c-0.843-1.629-1.488-3.363-1.768-5.16c-0.288-1.798-0.109-3.629,0.357-5.331c0.459-1.713,1.182-3.34,2.092-4.853     c1.831-3.021,4.399-5.602,7.514-7.508l-0.054,0.033c3.737-2.258,8.339-2.918,12.772-1.947c2.198,0.481,4.363,1.318,6.275,2.523     c1.914,1.172,3.675,2.559,5.245,4.127c3.095,3.127,5.551,7.094,6.018,11.392c0.254,2.14-0.122,4.26-0.844,6.16     c-0.715,1.918-1.779,3.667-3.048,5.236l-0.01-0.458l0.007,0.009l0.18,0.249l-0.169,0.209c-1.304,1.61-2.838,3.03-4.539,4.23     c-1.706,1.192-3.574,2.179-5.566,2.885c-1.994,0.703-4.129,1.086-6.296,1.081C331.721,159.866,329.519,159.4,327.518,158.466z      M327.518,158.466c2.01,0.915,4.209,1.358,6.363,1.346c2.161,0.002,4.263-0.47,6.208-1.216c1.952-0.745,3.748-1.796,5.344-3.06     c1.599-1.26,3.014-2.722,4.187-4.343l0.011,0.457l-0.007-0.009l-0.179-0.225l0.169-0.234c1.142-1.578,2.064-3.308,2.638-5.148     c0.583-1.841,0.811-3.775,0.483-5.682c-0.646-3.83-2.975-7.395-5.926-10.226c-2.962-2.851-6.554-5.159-10.489-6.03     c-0.983-0.218-1.979-0.347-2.975-0.406c-0.994-0.026-1.989-0.017-2.966,0.109c-0.974,0.129-1.942,0.314-2.862,0.625     c-0.471,0.129-0.909,0.333-1.364,0.501c-0.412,0.204-0.915,0.413-1.242,0.613l-0.054,0.033c-2.976,1.613-5.566,3.932-7.459,6.711     c-0.944,1.392-1.716,2.902-2.239,4.507c-0.532,1.604-0.791,3.3-0.606,5.023c0.374,3.458,2.083,6.826,4.358,9.696     C321.193,154.389,324.14,156.853,327.518,158.466z"/>
		</g>
		<path style="fill:#AF312F;" d="M321.68,147.268c2.428,4.246,7.233,7.572,12.243,7.721c7.983,0.238,14.757-6.755,13.75-14.358    c-0.54-4.082-3.254-8.322-6.987-10.597c-9.977-6.08-22.219,3.228-20.387,13.534C320.524,144.837,321.005,146.086,321.68,147.268z"/>
		<path style="opacity:0.21;fill:#AF312F;" d="M349.947,151.427c-5.154-22.442-23.266-26.183-25.56-26.568    c0.112-0.076,0.23-0.142,0.349-0.208c5.201-2.811,11.801-2.477,17.217,0.626c6.336,3.635,12.457,10.908,11.524,18.084    C353.105,146.193,351.834,148.979,349.947,151.427z"/>
	</g>
	<g>
		<g>
			<path style="fill:#FFFFFF;" d="M261.054,126.784c-7.067,0.496-15.702-2.362-20.198-7.039c-0.96-1-1.734-2.106-2.277-3.324     c-2.329-5.303-1.114-12.063,2.147-16.953c0.065-0.118,0.141-0.231,0.218-0.344c3.399-4.883,9.732-7.735,16.394-7.651     c7.796,0.102,17.276,3.425,20.122,10.019c1.12,2.604,1.376,5.597,0.883,8.591l0.012,0.004     C277.07,118.076,270.52,126.111,261.054,126.784z"/>
			<path style="fill:#AF312F;" d="M261.054,126.784c-3.995,0.277-8.011-0.458-11.706-1.736c-1.849-0.652-3.617-1.478-5.244-2.481     c-1.63-0.996-3.13-2.175-4.323-3.581c-1.2-1.404-1.981-3.058-2.427-4.739c-0.459-1.687-0.627-3.425-0.561-5.154     c0.144-3.46,1.205-6.894,3.125-10.008l-0.032,0.054c2.317-3.711,6.272-6.467,10.912-7.742c2.301-0.633,4.754-0.945,7.164-0.822     c2.393,0.094,4.755,0.446,7.033,1.042c4.508,1.208,8.855,3.44,11.517,6.902c1.345,1.714,2.092,3.709,2.403,5.681     c0.326,1.984,0.239,3.989-0.134,5.937l-0.254-0.391l0.011,0.004l0.305,0.125l-0.051,0.265c-0.384,2-1.079,3.947-2.046,5.784     c-0.975,1.834-2.207,3.567-3.701,5.12c-1.497,1.55-3.292,2.894-5.317,3.92C265.702,125.985,263.406,126.633,261.054,126.784z      M261.054,126.784c2.35-0.172,4.632-0.839,6.637-1.873c2.019-1.025,3.735-2.43,5.165-3.994c1.436-1.566,2.568-3.322,3.403-5.164     c0.841-1.84,1.404-3.767,1.659-5.714l0.254,0.39l-0.012-0.004l-0.292-0.105l0.038-0.286c0.248-1.896,0.213-3.817-0.204-5.667     c-0.409-1.855-1.199-3.622-2.493-5.099c-2.586-2.975-6.606-4.923-10.827-5.946c-4.242-1.035-8.789-1.304-12.913-0.179     c-1.031,0.28-2.027,0.644-2.987,1.066c-0.941,0.45-1.866,0.931-2.712,1.504c-0.842,0.574-1.65,1.193-2.348,1.897     c-0.373,0.335-0.675,0.717-1.014,1.078c-0.279,0.371-0.639,0.788-0.842,1.116l-0.033,0.054c-1.942,2.797-3.158,6.016-3.486,9.299     c-0.16,1.642-0.098,3.303,0.244,4.927c0.334,1.628,0.971,3.204,2.036,4.593c2.14,2.786,5.48,4.86,9.09,6.238     C253.039,126.298,257.066,127.008,261.054,126.784z"/>
		</g>
		<path style="fill:#AF312F;" d="M249.805,119.963c4.466,2.485,10.672,3.049,15.426,0.795c7.574-3.592,10.275-12.807,5.397-18.845    c-2.619-3.242-7.348-5.585-12.01-5.759c-12.461-0.466-19.066,13.333-12.019,21.295    C247.467,118.429,248.562,119.272,249.805,119.963z"/>
		<path style="opacity:0.21;fill:#AF312F;" d="M278.342,110.084c-16.434-16.782-35.277-11.375-37.617-10.615    c0.065-0.118,0.141-0.231,0.218-0.344c3.399-4.883,9.732-7.735,16.394-7.651c7.796,0.102,17.276,3.425,20.122,10.019    C278.58,104.097,278.836,107.089,278.342,110.084z"/>
	</g>
	<path style="fill:#FFC893;" d="M196.212,70.567c-0.731,0.641-1.429,1.364-1.797,2.266s-0.345,2.02,0.274,2.771   c0.39,0.472,0.962,0.749,1.533,0.967c1.548,0.591,3.222,0.845,4.874,0.74c0.426-0.027,0.865-0.076,1.272,0.053   c1.315,0.416,1.433,2.194,2.018,3.45c0.985,2.115,3.798,2.905,5.99,2.135c2.192-0.77,3.783-2.738,4.761-4.856   c0.924-2.002,1.403-4.27,0.984-6.436C214.263,62.056,201.108,66.277,196.212,70.567z"/>
	<path style="fill:#FFC893;" d="M213.611,59.753c-0.11,0.434-0.213,0.918,0.003,1.31c0.119,0.215,0.321,0.372,0.53,0.501   c1.059,0.647,2.408,0.675,3.602,0.338c3.037-0.858,6.8-3.754,3.21-6.522C217.214,52.493,214.472,56.346,213.611,59.753z"/>
	<path style="fill:#FFC893;" d="M219.233,69.172c-0.233,0.685-0.256,1.422-0.236,2.144c0.005,0.181,0.015,0.369,0.101,0.529   c0.1,0.186,0.286,0.306,0.505,0.419c1.205,0.611,2.669,0.753,3.924,0.253C227.646,70.877,220.847,64.434,219.233,69.172z"/>
	<path style="fill:#FFC893;" d="M240.779,417.22c-2.048-1.014-4.168-1.865-6.369-2.486c-6.538-1.845-13.561-1.394-20.21-2.903   c-7.933-1.801-15.756-4.35-22.974-8.138c-14.771-7.751-25.294-20.671-29.256-36.953c-0.237-0.975-0.694-2.162-0.694-3.166   c-11.287-57.566,26.981-111.446,93.122-111.597C332.485,251.8,356.8,339.695,358.43,381.001   c1.63,41.306-28.984,62.587-43.031,65.077c-10.492,1.86-26.872,0.606-36.284-3.52c-11.597-5.083-17.944-11.081-27.96-18.7   C247.91,421.391,244.463,419.044,240.779,417.22z"/>
	<path style="fill:#FFC893;" d="M200.656,61.259c0.497,0.855,1.496,1.362,2.484,1.363c2.885,0.003,5.221-3.925,2.271-5.648   C202.258,55.132,198.602,57.727,200.656,61.259z"/>
	<path style="fill:#FFC893;" d="M397.344,121.109c-1.187,1.246-2.238,2.668-2.773,4.304c-0.152,0.466-0.262,0.963-0.168,1.444   c0.11,0.564,0.486,1.039,0.895,1.442c1.491,1.468,3.606,2.28,5.695,2.188c2.181-0.096,4.441-1.109,6.464-0.288   c0.923,0.375,1.658,1.09,2.468,1.67c2.039,1.46,4.756,2.068,7.136,1.275c2.38-0.793,4.266-3.108,4.24-5.617   c-0.023-2.18-1.364-4.113-2.794-5.758c-2.226-2.56-6.18-7.321-9.971-6.867C404.422,115.393,400.136,118.178,397.344,121.109z"/>
	<path style="fill:#FFC893;" d="M405.669,107.979c0.062,0.913,0.216,1.821,0.458,2.704c0.118,0.431,0.27,0.877,0.598,1.181   c0.431,0.4,1.068,0.468,1.656,0.481c0.462,0.01,0.936-0.003,1.364-0.178c2.164-0.884,3.461-5.16,1.418-6.732   C408.993,103.766,405.475,105.135,405.669,107.979z"/>
	<path style="fill:#FFC893;" d="M419.316,113.278c0.028,0.328,0.105,0.657,0.273,0.94c0.411,0.695,1.3,0.987,2.104,0.918   c2.211-0.188,4.254-3.389,2.168-5.065C421.77,108.393,419.133,111.115,419.316,113.278z"/>
	<path style="fill:#FFC893;" d="M393.431,110.691c-0.131,0.801,0.213,1.635,0.783,2.213c0.57,0.578,1.343,0.923,2.135,1.103   c0.496,0.113,1.041,0.161,1.491-0.075c0.711-0.372,0.919-1.281,0.992-2.081c0.143-1.562-0.323-3.282-2.136-3.552   C395.399,108.106,393.642,109.395,393.431,110.691z"/>
	<path style="opacity:0.48;fill:#AF312F;" d="M273.516,291.465c2.82,0.424,5.539,1.345,8.148,2.488   c2.616,1.141,5.094,2.596,7.436,4.253c2.331,1.673,4.45,3.661,6.297,5.862c1.858,2.196,3.3,4.742,4.28,7.4   c-1.84-2.185-3.602-4.28-5.623-6.15c-2.026-1.845-4.081-3.644-6.333-5.211C283.283,296.881,278.506,294.147,273.516,291.465z"/>
	<path style="opacity:0.48;fill:#AF312F;" d="M275.39,304.844c1.578-1.959,3.512-3.589,5.573-5.019   c2.062-1.439,4.312-2.606,6.657-3.56c2.358-0.922,4.855-1.53,7.382-1.78c2.529-0.257,5.11,0.005,7.502,0.718   c-2.506,0.262-4.879,0.523-7.212,1.093c-2.316,0.595-4.603,1.249-6.817,2.157C284.012,300.193,279.762,302.441,275.39,304.844z"/>
	<path style="opacity:0.48;fill:#AF312F;" d="M254.205,211.211c1.486,0.645,2.97,1.291,4.465,1.904   c1.497,0.605,3.005,1.195,4.524,1.68l0.716,0.229l-0.682,0.361c-0.789,0.419-1.599,0.997-2.017,1.715   c-0.204,0.359-0.268,0.735-0.156,1.084c0.049,0.208,0.115,0.276,0.2,0.326c0.09,0.045,0.257,0.062,0.447,0.031   c0.789-0.146,1.638-0.658,2.42-1.144c0.787-0.507,1.558-1.08,2.281-1.672l1.01-0.829l-0.209,1.299   c-0.127,0.792-0.196,1.628-0.185,2.429c0.018,0.78,0.117,1.647,0.474,2.117c0.095,0.117,0.082,0.064,0.055,0.079   c-0.004-0.008,0.118-0.04,0.228-0.168c0.229-0.222,0.459-0.551,0.655-0.895c0.396-0.688,0.746-1.453,1.051-2.199l0.216-0.53   l0.518,0.228c2.264,0.997,4.68,1.776,7.115,2.302c2.442,0.491,4.951,0.739,7.387,0.356l1.251-0.196l-0.91,0.865   c-0.747,0.711-1.513,1.568-1.808,2.493c-0.029,0.114-0.054,0.227-0.056,0.336c-0.011,0.085,0.007,0.05-0.013,0.045   c0.003-0.011-0.008,0.001,0.03,0.017c0.122,0.076,0.413,0.106,0.662,0.11c0.521,0.008,1.068-0.045,1.608-0.109   c2.172-0.279,4.327-0.792,6.477-1.29c-2.094,0.71-4.217,1.327-6.402,1.769c-0.55,0.102-1.101,0.2-1.684,0.209   c-0.297-0.007-0.582,0.022-0.956-0.153c-0.093-0.039-0.196-0.129-0.277-0.252c-0.067-0.133-0.085-0.305-0.073-0.358   c-0.002-0.169,0.025-0.326,0.059-0.482c0.348-1.207,1.108-2.069,1.902-2.906l0.341,0.669c-1.284,0.257-2.589,0.344-3.888,0.318   c-1.295-0.067-2.578-0.235-3.845-0.474c-2.531-0.513-4.979-1.263-7.372-2.279l0.734-0.301c-0.319,0.823-0.667,1.603-1.131,2.372   c-0.231,0.383-0.482,0.762-0.862,1.125c-0.183,0.172-0.435,0.379-0.857,0.44c-0.455,0.045-0.852-0.272-0.996-0.5   c-0.63-0.937-0.618-1.866-0.655-2.746c0.001-0.889,0.083-1.743,0.235-2.618l0.802,0.47c-0.776,0.62-1.564,1.188-2.403,1.714   c-0.85,0.509-1.696,1.033-2.822,1.202c-0.283,0.028-0.624,0.025-0.963-0.161c-0.343-0.19-0.529-0.584-0.571-0.845   c-0.163-0.582-0.005-1.224,0.293-1.682c0.615-0.928,1.486-1.458,2.397-1.906l0.034,0.59c-1.55-0.547-3.018-1.24-4.477-1.95   C257.063,212.738,255.621,211.998,254.205,211.211z"/>
	<path style="fill:#FF9D3D;" d="M119.404,301.9c-0.73-1.287-1.483-2.563-2.261-3.823c-4.578-7.421-10.876-15.813-20.766-14.798   c-11.836,1.214-3.945,18.182,0,30.184c3.945,12.002,33.384,83.018,49.469,83.322c10.5,0.198,0.188-28.232-1.103-32.224   c-4.341-13.413-9.512-26.585-14.664-39.702C126.994,317.002,123.569,309.247,119.404,301.9z"/>
	<path style="opacity:0.2;fill:#AF312F;" d="M119.255,301.9c-0.73-1.287-1.483-2.563-2.261-3.823   c-4.578-7.421-10.876-15.813-20.766-14.798c-11.836,1.214-3.945,18.182,0,30.184c3.945,12.002,33.384,83.018,49.469,83.322   c10.5,0.198,0.189-28.232-1.103-32.224c-4.34-13.413-9.512-26.585-14.664-39.702C126.847,317.002,123.421,309.247,119.255,301.9z"/>
	<path style="opacity:0.48;fill:#AF312F;" d="M192.678,163.192c-0.636,0.916-1.22,1.865-1.748,2.838   c-0.506,0.973-0.979,2.006-1.112,3.046c-0.069,0.526,0.017,1.004,0.326,1.335c0.292,0.34,0.774,0.422,1.268,0.361   c0.995-0.133,2.001-0.669,2.868-1.246l1.199-0.799l-0.598,1.323c-0.486,1.075-0.886,2.22-1.212,3.355   c-0.298,1.136-0.539,2.321-0.414,3.42c0.036,0.56,0.235,1.04,0.513,1.444c0.3,0.422,0.694,0.675,1.149,0.713   c0.928,0.085,2.023-0.579,2.817-1.295l0.611-0.551l0.29,0.763c0.795,2.091,1.818,4.161,2.944,6.134   c1.129,1.982,2.431,3.857,3.797,5.682c1.364,1.83,2.919,3.513,4.584,5.076c1.622,1.624,3.507,2.938,5.409,4.241   c-2.027-1.088-4.001-2.329-5.766-3.838c-1.765-1.502-3.417-3.152-4.889-4.951c-1.5-1.778-2.81-3.709-4.003-5.704   c-1.183-2.009-2.242-4.064-3.116-6.265l0.901,0.212c-0.513,0.458-1.032,0.818-1.642,1.117c-0.6,0.286-1.295,0.509-2.057,0.426   c-0.77-0.069-1.471-0.571-1.856-1.148c-0.409-0.59-0.649-1.294-0.684-1.953c-0.123-1.335,0.169-2.581,0.498-3.784   c0.349-1.205,0.827-2.34,1.388-3.463l0.6,0.524c-1.005,0.6-2.041,1.119-3.272,1.241c-0.593,0.056-1.344-0.087-1.78-0.635   c-0.444-0.51-0.522-1.251-0.389-1.81c0.238-1.164,0.8-2.157,1.383-3.114C191.282,164.937,191.952,164.039,192.678,163.192z"/>
	<path style="opacity:0.48;fill:#AF312F;" d="M370.026,391.149c0.988-2.155,1.998-4.285,2.835-6.479   c0.858-2.171,1.645-4.397,2.035-6.584l1.012-5.671l0.715,5.785c0.083,0.671,0.207,1.384,0.373,2.035   c0.154,0.622,0.405,1.359,0.611,1.556c0.148,0.03-0.369-0.173-0.441-0.027c-0.215,0.227,0.009-0.072,0.016-0.334   c0.092-0.572,0.124-1.271,0.126-1.963c-0.043-2.801-0.371-5.723-0.714-8.572l-0.981-8.152l3.16,7.569   c0.593,1.42,1.249,2.962,2.106,4.116c0.208,0.277,0.447,0.533,0.624,0.661c0.212,0.18,0.189-0.023-0.154,0.28   c0.029,0.008,0.174-0.388,0.217-0.723c0.062-0.355,0.088-0.748,0.111-1.139c0.098-1.586-0.004-3.233-0.045-4.878l-0.277-4.96   c0.505,1.59,0.867,3.211,1.228,4.84c0.365,1.633,0.609,3.28,0.727,5c0.015,0.435,0.027,0.869-0.009,1.335   c-0.062,0.476-0.037,0.929-0.462,1.636c-0.156,0.19-0.326,0.396-0.673,0.52c-0.344,0.12-0.479,0.1-0.71,0.093   c-0.417-0.034-0.753-0.184-1.006-0.338c-0.521-0.318-0.846-0.685-1.161-1.043c-1.171-1.463-1.939-2.945-2.627-4.562l2.179-0.584   c0.443,2.952,0.778,5.867,0.738,8.927c-0.016,0.771-0.052,1.543-0.251,2.407c-0.158,0.433-0.118,0.912-0.918,1.603   c-0.424,0.28-0.784,0.374-1.339,0.291c-0.515-0.11-0.843-0.415-1.042-0.653c-0.697-0.974-0.77-1.723-0.934-2.515   c-0.124-0.784-0.186-1.527-0.212-2.316l1.727,0.114c-0.601,2.437-1.657,4.597-2.782,6.7   C372.655,387.202,371.436,389.239,370.026,391.149z"/>
	<path style="opacity:0.48;fill:#AF312F;" d="M351.156,257.96c-0.409,1.443-0.739,2.916-0.907,4.377   c-0.067,0.717-0.098,1.491,0.118,2.069c0.232,0.574,0.62,0.504,1.194,0.118c1.059-0.816,1.962-2.042,2.808-3.225   c0.838-1.206,1.625-2.478,2.34-3.751l1.58-2.813l-0.078,3.278c-0.032,1.316-0.007,2.675,0.129,3.961   c0.072,0.634,0.177,1.285,0.353,1.775c0.055,0.228,0.26,0.432,0.099,0.278c-0.025-0.019-0.168-0.058-0.168-0.058   c0.01-0.01,0.011,0.007,0.031-0.007c0.027-0.007,0.08-0.017,0.155-0.064c0.687-0.392,1.479-1.634,2.047-2.735   c0.591-1.146,1.122-2.389,1.576-3.592l1.772-4.697l0.424,4.996c0.126,1.482,0.916,3.291,1.701,3.292   c0.604,0.318,1.721-1.191,2.259-2.749c1.159-3.18,1.771-6.774,2.178-10.256l0.099-0.844l0.808-0.074   c1.908-0.174,3.916-0.525,5.841-1c1.937-0.479,3.841-1.102,5.692-1.859c1.851-0.756,3.66-1.631,5.374-2.685   c1.734-1.031,3.289-2.323,4.821-3.671c-1.31,1.553-2.754,3.039-4.418,4.255c-1.648,1.225-3.379,2.389-5.257,3.256   c-1.862,0.9-3.79,1.665-5.768,2.285c-1.991,0.611-3.971,1.119-6.103,1.411l0.906-0.917c-0.308,3.68-0.73,7.299-2.028,10.917   c-0.35,0.901-0.731,1.808-1.401,2.692c-0.321,0.437-0.763,0.88-1.357,1.217c-0.576,0.345-1.446,0.483-2.085,0.318   c-1.45-0.276-2.323-1.46-2.749-2.402c-0.446-1.006-0.666-1.94-0.774-3.007l2.196,0.299c-0.512,1.345-1.09,2.6-1.792,3.854   c-0.77,1.225-1.352,2.521-3.048,3.53c-0.224,0.114-0.503,0.21-0.812,0.247c-0.148,0.028-0.319,0.014-0.478,0.006   c-0.166-0.012-0.483-0.094-0.649-0.21c-0.754-0.519-0.811-1.01-0.98-1.408c-0.236-0.813-0.28-1.528-0.325-2.249   c-0.062-1.434-0.001-2.807,0.118-4.212l1.501,0.465c-0.835,1.294-1.706,2.526-2.656,3.729c-0.971,1.183-1.921,2.396-3.359,3.27   c-0.366,0.197-0.81,0.412-1.385,0.326c-0.574-0.077-0.981-0.631-1.064-1.049c-0.212-0.872-0.061-1.637,0.074-2.393   C350.018,260.753,350.555,259.337,351.156,257.96z"/>
	<path style="opacity:0.48;fill:#AF312F;" d="M123.689,237.491c0.07,1.525,0.206,3.041,0.452,4.521   c0.255,1.458,0.664,2.968,1.419,4.035c0.192,0.254,0.408,0.463,0.636,0.591c0.114,0.063,0.232,0.103,0.35,0.135   c0.072,0.003,0.086-0.005,0.12-0.021c0.197-0.078,0.576-0.787,0.742-1.424c0.389-1.336,0.544-2.855,0.643-4.284l0.477-6.833   l1.506,6.73c0.381,1.703,0.866,3.436,1.439,5.089c0.569,1.647,1.215,3.308,2.115,4.614c0.433,0.635,1.01,1.152,1.35,1.202   c0.278,0.067,0.37,0.012,0.4,0.007c0.038-0.023,0.182-0.176,0.268-0.486c0.366-1.281,0.123-3.188-0.166-4.789l-1.391-7.705   l3.452,6.969c0.796,1.606,1.895,3.219,3.059,4.681c1.164,1.485,2.484,2.854,3.971,4.018c1.484,1.166,3.133,2.121,4.901,2.832   c1.771,0.721,3.691,1.053,5.648,1.175c-3.891,0.548-8.071-0.529-11.404-2.819c-1.689-1.115-3.218-2.462-4.589-3.947   c-1.363-1.515-2.533-3.113-3.561-4.963l2.061-0.737c0.392,1.914,0.751,3.705,0.229,5.957c-0.161,0.552-0.469,1.242-1.177,1.746   c-0.736,0.493-1.619,0.499-2.214,0.353c-1.461-0.387-2.144-1.369-2.742-2.173c-1.121-1.704-1.763-3.467-2.329-5.243   c-0.537-1.788-0.956-3.562-1.289-5.404l1.983-0.103c-0.211,1.592-0.517,3.104-1.101,4.655c-0.364,0.734-0.553,1.636-1.781,2.23   c-0.328,0.116-0.706,0.1-1.002,0.008c-0.246-0.085-0.477-0.194-0.686-0.336c-0.414-0.284-0.717-0.651-0.953-1.023   c-0.892-1.523-0.972-3.125-1.075-4.66C123.384,240.539,123.465,239.004,123.689,237.491z"/>
	<path style="fill:#FFC893;" d="M115.714,311.94c-2.461-4.02-5.719-7.927-9.4-7.697c-4.483,0.28,2.612,18.765,3.258,20.534   c3.426,9.388,7.35,18.599,11.86,27.519c2.282,4.513,4.713,8.951,7.301,13.296c2.273,3.816,4.696,9.4,8.218,12.209   c3.989,3.182,0.938-9.124,0.635-10.312c-2.552-10.007-6.156-19.709-10.02-29.274c-2.663-6.592-5.069-13.309-8.296-19.656   C118.446,316.938,117.232,314.417,115.714,311.94z"/>
	<path style="fill:#FFC893;" d="M98.376,288.379c-0.804,0.506-1.328,1.388-1.342,2.416c-0.029,2.219,1.119,4.343,2.631,5.904   c1.137,1.174,3.746,3.358,5.481,2.235c1.144-0.741,0.812-3.11,0.646-4.223c-0.306-2.046-1.431-4.311-3.017-5.668   c-0.824-0.705-1.89-1.174-2.973-1.113C99.275,287.959,98.789,288.119,98.376,288.379z"/>
	<path style="fill:#FFC893;" d="M109.473,300.89c0.168,0.632,0.411,1.277,0.903,1.708c0.659,0.577,1.608,0.645,2.483,0.684   c3.433,0.155,2.018-5.164,0.388-6.479c-0.902-0.727-2.021-0.923-3.05-0.332C108.621,297.375,109.081,299.411,109.473,300.89z"/>
	<path style="fill:#FFC893;" d="M96.637,302.651c-0.323,0.509-0.235,1.166-0.136,1.76c0.093,0.556,0.186,1.112,0.279,1.668   c0.053,0.319,0.11,0.647,0.271,0.927c0.323,0.561,0.995,0.816,1.632,0.934c0.577,0.106,1.211,0.124,1.709-0.187   c1.272-0.794,1.619-3.907,0.68-5.029C100.231,301.717,97.368,301.5,96.637,302.651z"/>
	<g>
		<g>
			<path style="fill:#FF5555;" d="M276.555,238.259c-0.185-0.504-0.42-1.025-0.672-1.545c-1.159-2.352-2.721-4.637-3.914-6.249     c-0.403-0.538-0.756-1.008-1.059-1.378c-0.454-0.588-0.756-0.941-0.756-0.941s-3.797-0.655-7.778-1.344     c-0.957-0.168-1.932-0.336-2.856-0.487c-3.091-0.537-5.745-0.957-6.048-0.957c0,0-1.965,3.041-4.032,6.316     c-0.655,1.041-1.31,2.1-1.932,3.108c-1.344,2.218-2.436,4.099-2.621,4.687c-0.067,0.235,0.084,0.773,0.437,1.545     c0.185,0.42,0.437,0.941,0.722,1.495c0.789,1.512,1.915,3.427,3.124,5.443c0.302,0.487,0.605,0.974,0.907,1.478     c1.176,1.915,2.385,3.83,3.444,5.476c0.319,0.504,0.622,0.974,0.907,1.411c1.277,1.982,2.15,3.31,2.15,3.31     c-0.789,1.377-1.646,2.755-2.553,4.132c-0.353,0.538-0.705,1.075-1.075,1.613c-1.613,2.369-3.377,4.737-5.225,7.072     c-0.403,0.504-0.806,0.991-1.192,1.478c-2.134,2.604-4.368,5.174-6.686,7.694c-0.42,0.454-0.84,0.907-1.243,1.344     c-2.05,2.167-4.133,4.3-6.232,6.367c-0.437,0.453-0.89,0.89-1.344,1.327c-2.352,2.284-4.72,4.502-7.072,6.635     c-0.454,0.42-0.907,0.823-1.361,1.21c-2.587,2.318-5.124,4.519-7.56,6.568c-0.47,0.403-0.941,0.806-1.411,1.193     c-2.621,2.167-5.123,4.183-7.425,5.997c-0.504,0.42-1.008,0.806-1.495,1.193c-1.932,1.495-3.696,2.839-5.258,4.015     c-0.504,0.386-1.008,0.756-1.462,1.092c-3.628,2.705-5.829,4.217-5.829,4.217c1.193,11.02-1.915,28.524-1.915,28.524     c3.847,0.101,7.526-0.269,11.054-1.025c0.571-0.118,1.125-0.252,1.697-0.42c2.368-0.588,4.67-1.377,6.887-2.335     c0.554-0.218,1.092-0.471,1.63-0.739c2.721-1.26,5.342-2.789,7.845-4.536c0.537-0.353,1.075-0.739,1.613-1.142     c3.696-2.722,7.156-5.88,10.348-9.357c0.487-0.521,0.958-1.025,1.428-1.562c2.436-2.755,4.72-5.678,6.871-8.718     c0.437-0.605,0.873-1.243,1.294-1.865c2.604-3.814,4.989-7.761,7.156-11.743c0.369-0.689,0.739-1.361,1.092-2.049     c2.033-3.814,3.864-7.644,5.527-11.356c0.319-0.756,0.655-1.512,0.957-2.251c1.798-4.149,3.36-8.164,4.687-11.843     c0.286-0.756,0.554-1.512,0.806-2.234c3.813-10.869,5.577-18.496,5.577-18.496s5.628-7.627,8.702-12.465     c0.017,0.017,0.017,0.017,0.017,0c0.571-0.924,1.058-1.73,1.378-2.369c0.134-0.235,0.235-0.437,0.319-0.622     C277.832,242.576,277.446,240.443,276.555,238.259z"/>
			<path style="fill:#6CE1C1;" d="M202.994,349.853c-0.571,0.168-1.126,0.302-1.697,0.42c0.554-13.137-1.73-25.198-3.309-31.716     c0.454-0.336,0.957-0.705,1.462-1.092C201.028,323.848,203.481,336.229,202.994,349.853z"/>
			<path style="fill:#6CE1C1;" d="M211.511,346.779c-0.537,0.269-1.075,0.521-1.629,0.739c-0.554-14.128-3.057-26.424-5.174-34.068     c0.487-0.386,0.991-0.773,1.495-1.193C208.436,320.085,210.923,332.651,211.511,346.779z"/>
			<path style="fill:#6CE1C1;" d="M220.968,341.101c-0.537,0.403-1.075,0.789-1.613,1.142c-0.807-14.833-3.326-27.18-5.728-35.983     c0.47-0.386,0.941-0.789,1.411-1.193C217.457,313.82,220.078,326.2,220.968,341.101z"/>
			<path style="fill:#6CE1C1;" d="M232.744,330.182c-0.47,0.537-0.941,1.042-1.428,1.562c-2.201-12.532-5.628-24.392-8.718-33.245     c0.453-0.386,0.907-0.789,1.361-1.21C227.049,306.092,230.476,317.818,232.744,330.182z"/>
			<path style="fill:#6CE1C1;" d="M240.909,319.599c-0.42,0.621-0.857,1.26-1.294,1.865c-2.553-11.272-5.779-22.158-8.584-30.809     c0.454-0.437,0.907-0.874,1.344-1.327C235.113,297.76,238.305,308.461,240.909,319.599z"/>
			<path style="fill:#6CE1C1;" d="M249.157,305.807c-0.353,0.689-0.722,1.36-1.092,2.049c-2.856-8.803-6.333-17.572-9.458-24.896     c0.403-0.437,0.823-0.89,1.243-1.344C242.891,288.689,246.301,297.172,249.157,305.807z"/>
			<path style="fill:#6CE1C1;" d="M255.641,292.2c-0.302,0.739-0.638,1.495-0.957,2.251c-2.721-7.408-5.628-14.565-8.147-20.528     c0.386-0.487,0.789-0.974,1.193-1.478C250.148,278.139,252.953,285.01,255.641,292.2z"/>
			<path style="fill:#6CE1C1;" d="M261.134,278.122c-0.252,0.722-0.521,1.478-0.806,2.234c-2.503-5.325-5.057-10.466-7.375-14.985     c0.37-0.537,0.722-1.075,1.075-1.613C256.246,268.077,258.698,272.982,261.134,278.122z"/>
			<path style="fill:#6CE1C1;" d="M262.377,226.802c-5.93,2.789-10.886,5.527-14.867,7.979c0.622-1.008,1.277-2.066,1.932-3.108     c2.94-1.714,6.299-3.528,10.079-5.359C260.445,226.466,261.42,226.634,262.377,226.802z"/>
			<path style="fill:#6CE1C1;" d="M271.969,230.464c-9.76,3.612-19.15,8.332-25.92,12.045c-0.286-0.554-0.537-1.075-0.722-1.495     c6.753-3.712,15.976-8.315,25.584-11.927C271.213,229.456,271.566,229.926,271.969,230.464z"/>
			<path style="fill:#6CE1C1;" d="M276.555,238.259c-10.096,4.032-19.52,8.08-26.475,11.171c-0.302-0.504-0.605-0.991-0.907-1.478     c7.039-3.141,16.564-7.206,26.71-11.238C276.135,237.234,276.371,237.755,276.555,238.259z"/>
			<path style="fill:#6CE1C1;" d="M276.807,244.793c-0.319,0.638-0.806,1.445-1.377,2.369c0,0.017,0,0.017-0.017,0     c-8.265,3.293-15.673,6.669-20.982,9.155c-0.286-0.437-0.588-0.907-0.907-1.411C259.538,252.101,267.753,248.338,276.807,244.793     z"/>
		</g>
		<path style="fill:#FFFFFF;" d="M262.219,225.357c0,0-4.993,10.96-12.337,20.971c0,0-44.042-32.047-47.574-57.285    C202.307,189.043,233.994,218.42,262.219,225.357z"/>
		<path style="fill:#FFFFFF;" d="M261.447,225.161c0,0,5.495,12.299,12.245,31.879c0,0,31.063-12.521,49.579-22.508    C323.271,234.532,276.062,229.839,261.447,225.161z"/>
	</g>
	<path style="fill:#AF312F;" d="M190.807,102.681c-1.422,2.637-4.986,3.07-7.953,2.74c-7.85-0.886-13.969-4.924-20.624-8.282   c0.185-0.33,0.371-0.659,0.556-0.989c3.008-5.233,5.893-9.869,8.654-13.969c3.915,2.596,6.923,6.47,10.899,9.066   c2.205,1.442,4.698,2.493,6.614,4.306C190.848,97.386,192.043,100.353,190.807,102.681z"/>
	<path style="fill:#AF312F;" d="M163.384,125.139c-0.701,2.431-3.42,3.585-5.975,3.812c-0.268,0.041-0.536,0.062-0.804,0.062   c-2.534,0.041-5.007-0.412-7.479-0.948h-0.02c-1.236-0.268-2.493-0.556-3.729-0.865c2.019-4.1,4.162-8.221,6.469-12.3   c0.618,0.206,1.236,0.392,1.854,0.598c1.648,0.577,3.276,1.216,4.801,2.06c0.536,0.309,1.071,0.639,1.586,1.01   C162.23,120.071,164.105,122.625,163.384,125.139z"/>
	<path style="fill:#AF312F;" d="M155.163,166.717c0.082,1.463-0.639,2.72-1.731,3.729c-1.009,0.927-2.308,1.648-3.585,2.163   c-4.265,1.689-8.819,2.328-13.392,2.678c-1.545,0.124-3.091,0.206-4.615,0.309c-1.628,0.103-3.276,0.185-4.904,0.288   c1.525-5.48,3.235-11.043,5.171-16.627c2.699,0.144,5.378,0.371,7.953,0.556c0.886,0.062,1.772,0.124,2.637,0.165   c3.77,0.206,7.871,0.618,10.631,3.214c0.268,0.247,0.515,0.515,0.721,0.783C154.689,164.78,155.121,165.708,155.163,166.717z"/>
	<path style="fill:#AF312F;" d="M432.014,152.068c-0.494,6.14-1.298,12.568-2.369,19.12c-4.718,0.412-9.478-0.289-14.072-1.484   c-2.081-0.536-4.182-1.195-5.913-2.493c-1.71-1.298-3.008-3.317-2.905-5.481c0.103-2.369,1.896-4.388,3.997-5.48   c2.101-1.092,4.512-1.401,6.881-1.71c3.235-0.412,6.47-0.824,9.684-1.236C428.594,153.139,430.222,152.645,432.014,152.068z"/>
	<path style="fill:#AF312F;" d="M425.895,189.896c-1.545,6.469-3.359,12.877-5.398,19.058c-3.977-1.03-7.685-3.09-11.003-5.542   c-2.06-1.525-4.079-3.297-5.171-5.625c-1.113-2.328-1.113-5.336,0.598-7.273c2.246-2.534,6.181-2.287,9.539-1.834   C418.189,189.196,422.063,189.505,425.895,189.896z"/>
	<path style="fill:#AF312F;" d="M415.263,222.986c-2.576,6.099-5.419,11.806-8.51,16.895c-0.103,0.144-0.185,0.309-0.288,0.453   c-3.091-0.289-6.119-1.113-8.736-2.782c-3.441-2.205-6.016-5.975-6.099-10.075c-0.021-1.03,0.124-2.081,0.556-3.029   c1.071-2.349,3.75-3.626,6.325-3.812s5.11,0.515,7.644,1.071C408.32,222.182,411.884,222.388,415.263,222.986z"/>
	<g>
		<g>
			<path style="fill:#FF5555;" d="M412.214,12.375l-23.447,7.191c-0.371-1.69-0.886-3.42-1.545-5.13     c5.13-2.246,13.454-5.934,21.716-9.581C409.989,6.75,411.163,9.285,412.214,12.375z"/>
			<path style="fill:#FF5555;" d="M415.284,32.34c0,3.008-0.185,6.222-0.639,9.622c-9.89-2.678-20.398-5.501-25.342-6.84     c0.247-1.731,0.392-3.626,0.412-5.604L415.284,32.34z"/>
		</g>
		<g>
			<path style="fill:#FFFFFF;" d="M329.615,63.148c0,0-4.848-0.169-6.385,2.669c-1.537,2.838,0,5.439,0,5.439     s-2.886,2.66-2.886,6.413c0,4.407,3.843,7.347,7.566,8.878c4.327,1.779,9.237,1.957,13.67,0.449     c3.311-1.126,4.469-4.503,4.706-7.699c0,0,4.144-5.321-0.588-8.631C340.966,67.354,329.615,63.148,329.615,63.148z"/>
			<path style="fill:#FF9D3D;" d="M326.376,63.666c0,0,7.084-14.716,0.583-24.684c-8.122-12.453,1.962-44.73,30.315-38.092     c8.524,1.996,17.293,5.981,22.221,13.561c4.005,6.161,4.567,13.726,2.692,20.715c-1.055,3.932-2.67,7.928-4.993,11.286     c-2.344,3.387-5.479,5.592-9.298,7.033c-3.758,1.418-7.757,2.143-10.993,4.685c-2.02,1.587-3.766,3.503-5.334,5.53     c-0.999,1.291-1.923,2.639-2.798,4.016c-0.465,0.731-2.297,4.95-2.951,5.082C345.819,72.798,329.724,76.045,326.376,63.666z"/>
			<path style="fill:#FFFFFF;" d="M334.744,41.681c0.821,1.808,1.779,3.552,3.083,4.936c1.194,1.397,2.987,2.442,4.438,2.36     c1.435-0.243,2.917-1.522,3.982-2.986c1.1-1.46,2.015-3.14,2.498-4.841c0.22-0.816,0.359-1.721,0.197-2.242     c-0.074-0.07-0.091-0.174-0.134-0.251c-0.084-0.006-0.103-0.09-0.164-0.124c-0.144-0.031-0.046-0.063-0.254,0.042     c-0.392,0.293-0.817,1.17-1.036,2.007c-0.233,0.864-0.385,1.786-0.465,2.719c-0.134,1.869-0.013,3.794,0.456,5.64     c0.424,1.863,1.291,3.634,2.679,5.073c-1.742-1.03-2.945-2.834-3.771-4.707c-0.781-1.914-1.179-3.977-1.197-6.063     c-0.015-1.045,0.063-2.1,0.3-3.16c0.271-1.052,0.52-2.155,1.605-3.215c0.534-0.556,1.734-0.818,2.511-0.449     c0.391,0.157,0.723,0.453,1.045,0.723c0.253,0.307,0.426,0.676,0.601,1.03c0.416,1.409,0.131,2.527-0.111,3.611     c-0.652,2.095-1.687,3.94-3.026,5.592c-0.689,0.81-1.45,1.574-2.362,2.212c-0.876,0.659-2.012,1.149-3.264,1.213     c-2.577-0.14-4.265-1.792-5.431-3.481C335.819,45.559,335.067,43.656,334.744,41.681z"/>
			<path style="fill:#FF5555;" d="M323.23,71.255c2.999,3.267,6.564,5.467,10.466,6.719c1.967,0.577,4.002,0.965,6.104,1.132     c1.048,0.125,2.113,0.08,3.194,0.164c1.078,0.007,2.162-0.049,3.293,0.025c-1.019,0.436-2.078,0.802-3.157,1.121     c-1.096,0.19-2.202,0.491-3.335,0.524c-2.266,0.208-4.574-0.107-6.8-0.724c-2.195-0.729-4.276-1.853-5.983-3.397     C325.303,75.301,323.899,73.405,323.23,71.255z"/>
			<path style="fill:#FFFFFF;" d="M351.593,7.724c0.127,0.341,0.333,0.657,0.617,0.884c0.46,0.369,1.075,0.474,1.663,0.521     c0.995,0.08,2.051,0.014,2.898-0.514c2.354-1.468,0.492-4.015-1.514-4.596C353.214,3.429,350.802,5.601,351.593,7.724z"/>
			<path style="fill:#FFFFFF;" d="M335.539,10.486c-0.516,0.663-0.966,1.413-1.079,2.246c-0.113,0.833,0.177,1.761,0.878,2.224     c0.428,0.282,0.957,0.366,1.469,0.388c1.296,0.056,2.605-0.245,3.746-0.862c1.272-0.688,2.32-1.747,3.621-2.379     c0.746-0.362,1.56-0.576,2.283-0.983s1.373-1.076,1.446-1.902c0.291-3.303-3.979-3.145-6.04-2.679     C339.395,7.097,337.099,8.482,335.539,10.486z"/>
		</g>
	</g>
</g>















</svg>
