<?xml version="1.0" encoding="UTF-8"?>
<!-- Generator: Adobe Illustrator 25.2.3, SVG Export Plug-In . SVG Version: 6.00 Build 0)  -->
<svg xmlns="http://www.w3.org/2000/svg" xmlns:xlink="http://www.w3.org/1999/xlink" version="1.1" id="Capa_1" x="0px" y="0px" viewBox="0 0 512 512" style="enable-background:new 0 0 512 512;" xml:space="preserve" width="512" height="512">
<g>
	<g>
		<path style="fill:#9BEFE6;" d="M322.718,130.959c-2.691-1.111-5.425-2.155-8.199-3.128c-47.097-16.519-99.078-9.692-145.484,5.723    c-31.033,10.308-61.131,24.392-86.754,44.708c-56.423,44.739-79.882,123.446-48.54,189.9    c43.866,93.008,169.176,117.67,262.264,106.636c42.641-5.054,80.988-28,106.216-62.818    C468.616,320.344,427.601,174.264,322.718,130.959z"/>
		<path style="fill:#FF5555;" d="M348.87,409.091c-6.743-4.486-13.647-8.734-20.296-13.351c-1.215-0.843-2.296-3.016-2.171-4.465    c0.808-9.345,2.153-18.646,2.897-27.995c0.216-2.72,0.823-4.15,3.425-5.188c9.166-3.654,18.233-7.557,27.333-11.375    c1.476-0.619,2.929-1.291,5.473-2.416c-4.451-13.976-8.853-27.796-13.366-41.963c-11.732,2.411-22.431,4.429-33.031,6.884    c-3.737,0.865-5.78,0.445-8.213-3.009c-4.972-7.059-10.925-13.421-16.272-20.227c-0.821-1.044-1.184-3.159-0.719-4.385    c3.544-9.363,7.079-18.748,11.184-27.872c1.97-4.378,0.958-6.72-2.968-8.724c-1.509-0.77-2.739-2.086-4.096-3.152    c-6.775-3.584-13.549-7.168-20.323-10.753c-0.85-0.163-1.752-0.193-2.54-0.51c-8.258-3.314-6.671-3.255-11.302,3.65    c-5.642,8.413-11.143,16.922-15.971,24.272c-12.624-1.094-24.422-2.117-36.608-3.174c-4.684-11.158-9.579-22.818-14.506-34.554    c-14.847,2.099-28.473,6.868-41.829,13.315c2.394,11.535,4.699,22.788,7.087,34.023c0.428,2.016,0.314,3.24-1.656,4.733    c-7.708,5.847-15.279,11.9-22.565,18.26c-2.101,1.833-3.46,1.851-5.736,0.912c-9.395-3.877-18.881-7.535-28.292-11.374    c-2.338-0.953-3.848-0.872-5.559,1.42c-7.675,10.281-12.881,21.759-17.132,33.758c-0.842,2.375,0.306,3.393,2.102,4.544    c8.315,5.325,16.499,10.851,24.849,16.118c2.406,1.517,3.146,2.832,2.688,5.931c-1.582,10.707-2.541,21.506-3.833,33.137    c-10.143,4.258-21.652,9.089-33.156,13.92c2.076,15.129,6.23,29.119,13.029,42.435c12.574-2.673,24.807-5.272,35.886-7.627    c6.973,7.93,13.264,15.469,20.018,22.567c2.552,2.683,3.015,4.716,1.555,8.061c-3.887,8.91-7.429,17.974-11.017,27.012    c-0.709,1.786-2.115,3.869,0.676,5.319c11.352,5.896,22.698,11.804,34.051,17.696c2.413,1.253,3.926,0.434,5.365-1.842    c5.358-8.464,11.089-16.696,16.302-25.246c2.011-3.298,4.197-3.439,7.61-3.003c8.426,1.076,16.921,1.988,25.401,2.124    c3.655,0.058,5.001,1.001,6.256,4.244c4.034,10.416,8.477,20.674,12.673,30.778c9.058-0.064,33.679-7.96,42.534-13.546    c-2.403-11.1-4.718-22.35-7.345-33.527c-0.657-2.796,0.166-4.005,2.297-5.704c6.875-5.485,13.363-11.453,20.184-17.01    c1.147-0.934,3.487-1.461,4.807-0.954c8.388,3.219,16.666,6.731,24.939,10.242c4.625,1.963,6.484,2.772,8.247,1.575l19.08-36.063    C356.337,414.087,354.324,412.72,348.87,409.091z M241.197,378.039c-6.597,12.469-22.053,17.229-34.523,10.632h0    c-12.469-6.597-17.229-22.054-10.632-34.523l0,0c6.597-12.469,22.053-17.229,34.523-10.632l0,0    C243.011,350.181,247.715,365.801,241.197,378.039L241.197,378.039z"/>
		<path style="fill:#6CE0C0;" d="M454.473,329.806c-3.231-1.748-2.824-1.378-4.786,1.546c-2.389,3.562-4.718,7.165-6.762,10.277    c-5.345-0.463-10.341-0.897-15.5-1.344c-1.798-4.282-3.669-8.739-5.557-13.236c-0.343-0.817-1.205-1.31-2.079-1.16    c-5.211,0.895-10.079,2.564-14.845,4.757c-0.808,0.372-1.244,1.267-1.064,2.138c0.904,4.365,1.784,8.643,2.692,12.916    c0.214,1.006,0.108,1.546-1.227,2.356c-3.094,1.878-5.927,4.136-8.407,6.771c-1.282,1.362-1.88,1.477-3.05,0.994    c-3.978-1.642-7.994-3.191-11.979-4.816c-0.99-0.404-1.629-0.369-2.354,0.601c-3.25,4.353-5.454,9.213-7.254,14.294    c-0.356,1.006,0.129,1.437,0.89,1.924c3.521,2.255,6.986,4.595,10.521,6.825c1.019,0.642,1.332,1.199,1.138,2.511    c-0.67,4.534-1.076,9.106-1.623,14.031c-3.706,1.556-7.844,3.293-12.039,5.054c-1.2,0.504-1.878,1.774-1.657,3.057    c0.831,4.811,2.191,9.353,4.188,13.715c0.545,1.19,1.834,1.855,3.115,1.583c4.573-0.972,9.002-1.913,13.065-2.777    c2.952,3.358,5.616,6.55,8.476,9.555c1.865,1.961,1.095,3.101-1.947,7.696c-1.302,1.966-1.758,2.941-3.374,5.526    c-0.484,0.775-0.036,2.334,1.795,3.554c4.246,2.831,8.642,5.866,13.392,8.222c1.384,0.687,2.413-0.092,3.103-1.183    c2.269-3.584,4.695-7.069,6.903-10.69c0.852-1.396,1.777-1.456,3.222-1.272c3.568,0.456,7.165,0.842,10.755,0.899    c1.548,0.025,2.117,0.424,2.649,1.797c1.503,3.88,3.14,7.709,4.721,11.486c0.409,0.977,1.427,1.534,2.474,1.372    c4.016-0.621,10.769-2.797,14.621-4.703c0.933-0.462,1.42-1.503,1.201-2.521c-0.892-4.158-1.771-8.358-2.752-12.533    c-0.278-1.184,0.07-1.696,0.972-2.415c2.911-2.322,5.658-4.85,8.546-7.202c0.486-0.396,1.477-0.618,2.035-0.404    c3.552,1.363,7.057,2.85,10.559,4.337c1.049,0.445,1.762,0.75,2.312,0.859c0.587,0.117,1.176-0.184,1.456-0.714l7.589-14.344    c0.188-0.356,0.233-0.78,0.085-1.154c-0.314-0.795-1.229-1.411-3.022-2.604c-2.855-1.899-5.778-3.698-8.594-5.653    c-0.56-0.389-0.973-1.271-0.914-1.951c0.343-3.937,0.908-7.855,1.221-11.793c0.092-1.152,0.349-1.757,1.45-2.196    c3.881-1.547,7.72-3.2,11.573-4.816c0.203-0.085,0.405-0.173,0.622-0.268c0.964-0.425,1.454-1.513,1.134-2.517    c-1.507-4.731-3.005-9.434-4.528-14.217c-0.323-1.014-1.367-1.625-2.41-1.414c-4.257,0.862-8.218,1.63-12.146,2.54    c-1.582,0.366-2.447,0.189-3.478-1.274c-2.117-3.005-4.654-5.712-6.928-8.612c-0.355-0.453-0.471-1.269-0.267-1.808    c1.501-3.965,2.997-7.939,4.736-11.802c0.834-1.854,0.405-2.845-1.257-3.694L454.473,329.806z M455.235,400.255    c-7.221,13.648-24.138,18.858-37.786,11.637h0c-13.648-7.221-18.858-24.139-11.637-37.786l0,0    c7.221-13.648,24.138-18.858,37.787-11.637l0,0C457.246,369.689,462.456,386.606,455.235,400.255L455.235,400.255z"/>
		<g>
			<g>
				<g>
					<path style="fill:#FF9C3D;" d="M316.676,316.268c0,0,5.207,8.187,12.057,26.305c6.85,18.119,18.222,30.156,28.747,32.31       c10.525,2.154,7.506-6.403,2.174-33.009c-5.332-26.606-7.215-77.052-8.776-75.884c-1.56,1.168-10.616-1.529-13.725,0.482       c-3.11,2.011-15.315,36.018-15.315,36.018L316.676,316.268z"/>
				</g>
				<g style="opacity:0.2;">
					<path style="fill:#AE312F;" d="M316.676,316.268c0,0,5.207,8.187,12.057,26.305c6.85,18.119,18.222,30.156,28.747,32.31       c10.525,2.154,7.506-6.403,2.174-33.009c-5.332-26.606-7.215-77.052-8.776-75.884c-1.56,1.168-10.616-1.529-13.725,0.482       c-3.11,2.011-15.315,36.018-15.315,36.018L316.676,316.268z"/>
				</g>
				<g>
					<g>
						<g>
							<path style="fill:#FF9C3D;" d="M130.05,115.693c-6.085,22.403-16.329,10.244-16.329,10.244         c-13.451-8.068-24.465-15.105-31.174-25.077c-2.935-4.34-4.873-8.522-6.221-12.601c-3.082-9.349-3.003-18.154-4.363-27.219         c-0.884-5.972-2.391-12.046-5.836-18.46c-3.422-6.357-8.658-13.111-13.474-19.185c-5.451-6.912-10.346-12.964-11.366-16.624         c-1.054-3.785-0.102-7.49,6.165-6.652c1.756,0.238,3.445,0.669,5.088,1.292h0.011C62.626,5.253,70.66,16.109,76.405,29.56         c1.768,4.136,3.32,8.522,4.657,13.02c1.088,3.66,1.949,7.468,2.686,11.253c2.187,11.377,3.173,22.675,5.292,30.097         c1.484,5.19,4.351,9.643,7.909,13.44c4.272,4.567,9.564,8.17,14.641,10.924C121.189,113.495,130.05,115.693,130.05,115.693z"/>
						</g>
						<g style="opacity:0.2;">
							<path style="fill:#AE312F;" d="M130.05,115.693c-6.085,22.403-16.329,10.244-16.329,10.244         c-13.451-8.068-24.465-15.105-31.174-25.077c-2.935-4.34-4.873-8.522-6.221-12.601c-3.082-9.349-3.003-18.154-4.363-27.219         c-0.884-5.972-2.391-12.046-5.836-18.46c-3.422-6.357-8.658-13.111-13.474-19.185c-5.451-6.912-10.346-12.964-11.366-16.624         c-1.054-3.785-0.102-7.49,6.165-6.652c1.756,0.238,3.445,0.669,5.088,1.292h0.011C62.626,5.253,70.66,16.109,76.405,29.56         c1.768,4.136,3.32,8.522,4.657,13.02c1.088,3.66,1.949,7.468,2.686,11.253c2.187,11.377,3.173,22.675,5.292,30.097         c1.484,5.19,4.351,9.643,7.909,13.44c4.272,4.567,9.564,8.17,14.641,10.924C121.189,113.495,130.05,115.693,130.05,115.693z"/>
						</g>
					</g>
					<g>
						<path style="fill:#AE312F;" d="M52.654,23.395c-5.451-6.912-10.346-12.964-11.366-16.624c-1.054-3.785-0.102-7.49,6.165-6.652        c1.756,0.238,3.445,0.669,5.088,1.292h0.011c1.779,2.618,3.388,5.655,4.317,9.009C58.626,16.721,55.589,20.936,52.654,23.395z        "/>
					</g>
					<g>
						<path style="fill:#AE312F;" d="M83.748,53.833c-2.663-1.371-5.564-4.102-7.468-9.519c-2.187-6.233-1.292-11.287,0.125-14.754        c1.768,4.136,3.32,8.522,4.657,13.02C82.15,46.24,83.012,50.048,83.748,53.833z"/>
					</g>
					<g>
						<path style="fill:#AE312F;" d="M76.326,88.259c-3.082-9.349-3.003-18.154-4.363-27.219        C71.963,61.04,85.051,72.224,76.326,88.259z"/>
					</g>
					<g>
						<path style="fill:#AE312F;" d="M111.59,108.293c-3.139,2.55-6.969,4.578-9.734,2.584c-3.819-2.754-4.714-9.541-4.907-13.508        C101.222,101.936,106.514,105.54,111.59,108.293z"/>
					</g>
				</g>
				<g>
					<path style="fill:#FF9C3D;" d="M348.882,273.359c-3.226,38.963-36.227,47.095-36.227,47.095s2.339,24.623-8.868,24.623       c-10.925,0-18.68-15.944-18.68-15.944s-7.509-0.038-16.66-3.717c-5.321-2.132-11.208-5.49-16.491-10.774l-0.151-0.151       c-2.755-2.792-4.906-6.509-6.566-10.66c-1.943-4.849-3.246-10.264-4.095-15.434c-1.924-11.623-1.641-22.019-1.641-22.019       c-42.038-2.604-60.812-29.812-60.812-29.812c-9.962,0.377-19.208-1.056-19.208-1.056c9.943,10.34,23.189,42.925,15.377,43.604       c-7.83,0.679-11.736-12.396-16.717-20.68c-4.962-8.283-29.113-17.642-33.019-28.019c-3.906-10.396,13.132-19.378,13.132-19.378       c-7.491-6.792-13.604-15.566-17.925-25.113c-2.094-4.66-3.793-9.51-4.981-14.415c-0.981-3.943-1.642-7.906-1.962-11.83       c-0.17-1.963-0.226-3.943-0.17-5.944c0.113-4.906,0.849-9.812,2.151-14.604c2.226-8.189,6.038-16.057,11.019-22.944       c2.736-3.774,5.811-7.283,9.151-10.396c1.17-1.094,2.377-2.113,3.604-3.113c6.491-5.226,13.661-8.943,21.227-11.472       c7.226-2.396,14.811-3.698,22.529-4.132c12.246-0.698,24.793,0.812,36.698,3.547c0.717,0.17,1.434,0.34,2.151,0.51       c5.34,1.302,10.924,2.906,16.642,4.849c5.189,1.755,10.472,3.792,15.793,6.17c5.283,2.34,10.604,5.019,15.849,8.076       c6.17,3.585,12.264,7.66,18.114,12.321c0.491,0.359,0.981,0.755,1.472,1.151c5.415,4.434,10.642,9.359,15.51,14.849       c1.094,1.208,2.151,2.453,3.189,3.717c3.887,4.679,7.528,9.736,10.868,15.208c2.49,4.113,4.849,8.434,7,13.019       c4.34,9.246,7.906,19.491,10.453,30.831C337.693,205.962,351.769,238.547,348.882,273.359z"/>
				</g>
				<g>
					<g>
						<path style="fill:#FF9C3D;" d="M365.425,215.113c0.006-0.005,0.012-0.008,0.018-0.013c11.054-8.262,9.931-32.359,6.789-36.314        c-0.269-0.337-0.538-0.522-0.828-0.55c-5.785-0.57-11.133,0.976-15.664,4.564c-3.807,3.019-7.068,6.873-11.61,8.843        c-2.451,1.066-5.044,1.982-7.66,2.564l0.001,0.002c-0.715-0.232-1.426-0.454-2.127-0.65c-1.551-0.432-3.048-0.784-4.5-1.044        c-1.712-0.306-3.591-0.685-5.624-1.091c-1.175-0.234-2.399-0.492-3.67-0.736c-5.741-1.139-12.505-2.381-20.11-3.075        c-1.778-0.169-3.61-0.314-5.476-0.4c-4.421-0.252-9.092-0.296-13.986-0.02c-1.857,0.1-3.754,0.261-5.671,0.456        c0.002-0.006,0.005-0.011,0.007-0.017c0,0-7.069-4.277-10.815-10.747c-3.668-6.337-10.041-12-18.069-11.288        c-0.162,0.008-0.334,0.024-0.497,0.04c-7.621,0.9-7.839,21.782-4.981,30.836c-0.256,0.107-0.507,0.196-0.763,0.306        c0,0-6.527,3-11.874,11.176c-1.206,1.856-2.363,3.984-3.365,6.403c-0.673,1.626-1.279,3.399-1.78,5.297        c-0.511,1.889-0.908,3.911-1.189,6.086c-0.539,4.139-0.621,8.813-0.081,14.057c0.046,0.48,0.092,0.961,0.157,1.44        c0.322,2.623,0.806,5.119,1.461,7.498c1.162,4.314,2.827,8.248,4.977,11.823c8.502,14.269,24.311,22.926,44.11,27.779        c8.372,2.059,17.46,3.409,27.01,4.239c30.243,2.59,53.536-1.019,65.598-18.083c1.671-2.356,3.113-4.98,4.354-7.883        c0.306-0.725,0.599-1.478,0.882-2.259c1.416-3.845,2.445-8.165,3.095-12.967l0.056-0.393c0.107-0.843,0.203-1.695,0.274-2.516        c0.276-3.114,0.306-6.086,0.11-8.917C373.323,229.856,370.078,221.742,365.425,215.113z"/>
					</g>
					<g>
						<path style="fill:#AE312F;" d="M365.443,215.101c-8.681,6.477-18.806-1.611-23.548-9.531        c-0.498-0.839-0.938-1.679-1.316-2.493c-0.294-0.641,0.498-1.954,2.264-1.737c2.928,0.359,10.038,3.852,15.437,3.028        c6.062-0.926,5.999-11.942,9.036-18.99c1.265-2.947,2.773-5.428,4.916-6.59C375.374,182.742,376.497,206.839,365.443,215.101z        "/>
					</g>
					<g>
						<path style="fill:#AE312F;" d="M314.449,222.46c-4.742-0.607-5.186-7.476-7.28-18.365c-1.632-8.515-5.243-14.344-6.737-16.481        c7.612,0.699,14.38,1.933,20.112,3.073C326.302,203.594,319.024,223.046,314.449,222.46z"/>
					</g>
					<g>
						<path style="fill:#AE312F;" d="M326.771,200.3c-1.506-3.594-2.231-7.013-2.55-8.878c2.035,0.412,3.915,0.784,5.624,1.097        c1.45,0.261,2.956,0.605,4.507,1.039C335.157,200.04,328.37,204.123,326.771,200.3z"/>
					</g>
					<g>
						<path style="fill:#AE312F;" d="M293.037,201.334c-3.25,0.142-5.895-2.304-7.732-7.736c-1.027-3.051-2.894-5.151-4.322-6.402        c4.892-0.272,9.555-0.233,13.983,0.012C298.89,194.211,295.994,201.192,293.037,201.334z"/>
					</g>
					<g>
						<path style="fill:#AE312F;" d="M253.083,201.355c-5.392,0.709-9.997-0.078-11.351-2.86        c-3.625-7.418-4.059-31.881,4.202-32.856c0.163-0.017,0.335-0.033,0.497-0.04c1.23,0.507,2.95,1.388,4.67,2.865        C253.34,170.385,256.072,200.962,253.083,201.355z"/>
					</g>
					<g>
						<path style="fill:#FFFFFF;" d="M356.256,209.504c-6.495,0.398-8.63-4.93-8.77-5.308c0.024,0.258,0.252,2.829-1.756,2.128        c-2.108-0.733-1.541-3.911-1.541-3.911s-0.613,2.208-2.293,3.156c-0.498-0.839-0.938-1.679-1.316-2.493        c-0.879-1.917-1.769-3.826-2.659-5.735c-0.369-0.803-0.769-2.48-1.426-3.112c0.584,0.528,11.341,10.182,19.995,8.86        c6.062-0.926,7.789-10.664,10.826-17.713c-0.115,4.739-4,15.316-4,15.316s2.452-2.474,3.737-1.658        c1.223,0.78-2.183,3.992-2.496,4.292c0.249-0.1,3.25-1.248,3.578,0.467C368.484,205.587,362.99,209.089,356.256,209.504z"/>
					</g>
					<g>
						<path style="fill:#FFFFFF;" d="M262.357,198.884c-3.058,1.225-6.285,2.078-9.274,2.471c-2.166-0.428-3.928-1.277-4.284-2.854        c-1.053-4.623,2.953-5.207,2.953-5.207s-2.071-1.54-2.339-2.765c-0.248-1.166,2.395,0.778,2.644,0.971        c-0.208-0.291-2.216-3.061-1.607-3.768c0.498-0.569,1.336,0.492,1.696,1.001c-0.604-1.041-2.679-5.058,0.307-7.35        c0,0-8.429-10.716-1.353-12.92c2.239,1.921,4.492,4.846,5.669,9.239C259.223,186.889,256.556,192.302,262.357,198.884z"/>
					</g>
					<g>
						<g>
							<g>
								<path style="fill:#FFFFFF;" d="M350.137,276.453c-4.968,0.754-11.234-1.22-14.677-4.913          c-0.735-0.79-1.345-1.676-1.798-2.668c-1.947-4.32-1.472-10.028,0.556-14.271c0.039-0.102,0.087-0.2,0.134-0.298          c2.126-4.244,6.441-6.932,11.155-7.181c5.517-0.289,12.407,2.033,14.792,7.407c0.94,2.123,1.29,4.611,1.111,7.137          l0.009,0.003C360.965,268.407,356.791,275.436,350.137,276.453z"/>
							</g>
							<g>
								<path style="fill:#AE312F;" d="M350.137,276.453c-2.809,0.43-5.688,0.006-8.379-0.874c-1.347-0.451-2.648-1.053-3.86-1.809          c-1.217-0.748-2.354-1.656-3.29-2.775c-0.941-1.117-1.602-2.47-2.023-3.858c-0.432-1.394-0.66-2.847-0.721-4.305          c-0.113-2.918,0.425-5.861,1.601-8.592l-0.025,0.059c1.443-3.283,4.106-5.81,7.363-7.123          c1.612-0.652,3.356-1.038,5.089-1.047c1.716-0.034,3.422,0.149,5.082,0.546c3.284,0.812,6.517,2.499,8.607,5.319          c1.055,1.394,1.694,3.052,2.017,4.699c0.335,1.659,0.376,3.348,0.212,5.001l-0.256-0.4l0.008,0.003l0.284,0.118          l-0.028,0.281c-0.336,3.396-1.577,6.652-3.51,9.397c-0.977,1.366-2.177,2.569-3.551,3.524          C353.379,275.567,351.791,276.216,350.137,276.453z M350.137,276.453c1.651-0.258,3.225-0.927,4.581-1.889          c1.368-0.954,2.494-2.217,3.41-3.594c1.841-2.766,2.759-6.072,2.896-9.327l0.256,0.398l-0.008-0.003l-0.267-0.091          l0.011-0.309c0.056-1.589-0.088-3.183-0.496-4.693c-0.403-1.517-1.063-2.929-2.055-4.076          c-1.986-2.308-4.905-3.712-7.917-4.346c-3.031-0.65-6.213-0.644-9.015,0.466c-1.407,0.551-2.695,1.372-3.825,2.373          c-0.556,0.509-1.086,1.054-1.535,1.664c-0.242,0.292-0.433,0.62-0.65,0.932c-0.173,0.313-0.407,0.685-0.523,0.944          l-0.026,0.059c-1.219,2.395-1.913,5.121-1.977,7.861c-0.029,1.371,0.098,2.748,0.42,4.082          c0.317,1.339,0.843,2.618,1.661,3.727c1.643,2.226,4.11,3.814,6.735,4.8C344.443,276.428,347.331,276.826,350.137,276.453z"/>
							</g>
						</g>
						<g>
							<path style="fill:#AE312F;" d="M341.798,271.292c3.298,1.862,7.717,2.037,10.95-0.076c5.15-3.365,6.537-11.196,2.747-16.008         c-2.035-2.584-5.511-4.315-8.817-4.237c-8.835,0.209-12.722,12.058-7.289,18.373         C340.058,270.122,340.881,270.774,341.798,271.292z"/>
						</g>
						<g style="opacity:0.21;">
							<path style="fill:#AE312F;" d="M361.411,261.667c-12.569-13.237-25.582-7.814-27.193-7.066         c0.039-0.102,0.087-0.2,0.134-0.298c2.126-4.244,6.441-6.932,11.155-7.181c5.517-0.289,12.407,2.033,14.792,7.407         C361.239,256.652,361.59,259.14,361.411,261.667z"/>
						</g>
					</g>
					<g>
						<g>
							<g>
								<path style="fill:#FFFFFF;" d="M284.812,274.899c-5.365,1.771-12.684,0.762-17.197-2.683          c-0.964-0.737-1.807-1.605-2.496-2.62c-2.972-4.423-3.52-10.84-2.07-15.926c0.024-0.12,0.059-0.238,0.093-0.356          c1.558-5.105,5.836-8.897,11.015-10.061c6.062-1.359,14.137-0.082,17.794,5.427c1.441,2.176,2.299,4.869,2.576,7.704          l0.01,0.002C295.302,263.94,291.997,272.52,284.812,274.899z"/>
							</g>
							<g>
								<path style="fill:#AE312F;" d="M284.812,274.899c-3.033,1.001-6.306,1.075-9.452,0.6c-1.577-0.25-3.13-0.674-4.614-1.288          c-1.486-0.604-2.912-1.401-4.153-2.466c-1.246-1.062-2.224-2.434-2.946-3.892c-0.734-1.461-1.253-3.026-1.589-4.626          c-0.662-3.204-0.608-6.557,0.188-9.785l-0.015,0.062c0.98-3.87,3.446-7.15,6.783-9.2c1.653-1.017,3.499-1.767,5.405-2.103          c1.885-0.36,3.802-0.478,5.706-0.354c3.775,0.274,7.655,1.522,10.491,4.224c1.425,1.332,2.444,3.035,3.116,4.791          c0.687,1.765,1.056,3.624,1.191,5.482l-0.318-0.351l0.01,0.002l0.297,0.068l0.021,0.281          c0.277,3.817-0.465,7.66-2.085,11.067c-0.822,1.699-1.921,3.261-3.264,4.578          C288.238,273.304,286.601,274.324,284.812,274.899z M284.812,274.899c1.782-0.596,3.402-1.633,4.726-2.954          c1.337-1.315,2.353-2.924,3.112-4.623c1.526-3.412,1.942-7.251,1.492-10.896l0.317,0.349l-0.01-0.002l-0.278-0.047          l-0.039-0.304c-0.231-1.778-0.686-3.524-1.42-5.132c-0.729-1.615-1.728-3.071-3.05-4.17c-2.648-2.215-6.17-3.237-9.648-3.38          c-3.499-0.154-7.054,0.449-9.978,2.228c-1.467,0.885-2.754,2.047-3.822,3.384c-0.523,0.676-1.011,1.387-1.395,2.154          c-0.215,0.373-0.364,0.776-0.547,1.166c-0.134,0.386-0.322,0.839-0.404,1.163l-0.015,0.063          c-0.894,2.905-1.138,6.069-0.681,9.128c0.232,1.529,0.639,3.036,1.255,4.457c0.611,1.427,1.443,2.749,2.567,3.823          c2.257,2.156,5.287,3.366,8.385,3.959C275.378,275.267,281.335,276.065,284.812,274.899z"/>
							</g>
						</g>
						<g>
							<path style="fill:#AE312F;" d="M274.596,270.748c4.006,1.443,8.939,0.805,12.125-2.146         c5.076-4.701,5.139-13.643,0.031-18.264c-2.742-2.481-6.922-3.746-10.572-3.037c-9.755,1.895-11.834,15.763-4.621,21.741         C272.447,269.779,273.481,270.346,274.596,270.748z"/>
						</g>
						<g style="opacity:0.21;">
							<path style="fill:#AE312F;" d="M294.528,256.385c-16.427-12.309-29.832-3.847-31.478-2.714         c0.024-0.12,0.059-0.238,0.093-0.356c1.558-5.105,5.836-8.897,11.015-10.061c6.062-1.359,14.137-0.082,17.794,5.427         C293.393,250.857,294.25,253.55,294.528,256.385z"/>
						</g>
					</g>
					<g>
						<g>
							<path style="fill:#AE312F;" d="M316.535,267.804c0,0-2.607-4.742-4.17-4.332c-1.563,0.409-0.798,4.914,3.609,7.404         c0,0,7.15-3.991,4.949-5.919C319.518,263.725,316.535,267.804,316.535,267.804z"/>
						</g>
						<g style="opacity:0.48;">
							<path style="fill:#AE312F;" d="M306.173,270.83c-2.662,0.617-5.217,2.264-6.743,4.832c-2.213,3.721-2.636,8.391,0.197,11.771         c1.758,2.098,4.233,3.239,6.72,3.932c4.766,1.328,9.594,2.309,14.476,0.953c1.771-0.492,3.517-1.256,4.96-2.536         c2.21-1.96,3.56-5.119,3.539-8.279c-0.021-3.16-1.411-6.249-3.646-8.096c-2.749-2.272-6.857-2.995-10.218-2.958         C312.463,270.484,309.1,270.151,306.173,270.83z"/>
						</g>
					</g>
					<g style="opacity:0.48;">
						<path style="fill:#EA4949;" d="M338.039,277.828c-2.681,2.122-2.842,6.127,0.511,7.917c4.49,2.396,12.597,1.364,16.202-2.299        c3.043-3.092,0.702-8.196-2.885-8.897c-3.032-0.592-6.175-0.113-9.037,0.896C341.5,275.913,339.541,276.639,338.039,277.828z"/>
					</g>
					<g style="opacity:0.48;">
						<path style="fill:#EA4949;" d="M266.993,276.032c-3.145,1.008-4.651,4.571-2.226,7.325c3.246,3.688,10.928,5.506,15.432,3.42        c3.802-1.761,3.419-7.165,0.413-9.015c-2.541-1.564-5.545-2.197-8.476-2.257C270.772,275.477,268.755,275.468,266.993,276.032        z"/>
					</g>
					<g>
						<path style="fill:#AE312F;" d="M373.875,248.477c-1.023-0.055-2.031-0.231-3.009-0.555c-1.242-0.414-2.514-1.182-2.873-2.437        c-0.316-1.08,0.139-2.269,0.897-3.098c0.757-0.82,1.788-1.349,2.812-1.814c0.763-0.347,1.524-0.684,2.284-1.012        C374.18,242.393,374.15,245.366,373.875,248.477z"/>
					</g>
					<g>
						<path style="fill:#AE312F;" d="M373.549,251.393c-0.652,4.802-1.685,9.111-3.104,12.964c-1.026-0.396-2.013-0.881-2.944-1.435        c-1.898-1.122-3.825-2.975-3.47-5.159c0.296-1.795,2.023-2.964,3.658-3.775C369.393,253.148,371.46,252.137,373.549,251.393z"/>
					</g>
					<g>
						<g>
							<path style="fill:#AE312F;" d="M347.72,280.214c2.908,0.637,5.713,1.558,8.492,2.548c2.77,1.018,5.513,2.108,8.153,3.484         c-2.908-0.635-5.713-1.556-8.492-2.548C353.104,282.678,350.361,281.588,347.72,280.214z"/>
						</g>
						<g>
							<path style="fill:#AE312F;" d="M366.67,279.255c-2.874,0.089-5.717-0.123-8.552-0.407c-2.832-0.315-5.656-0.705-8.448-1.397         c2.875-0.091,5.718,0.12,8.552,0.407C361.054,278.175,363.878,278.565,366.67,279.255z"/>
						</g>
						<g>
							<path style="fill:#AE312F;" d="M365.564,270.183c-2.543,1.344-5.189,2.404-7.86,3.395c-2.682,0.963-5.39,1.854-8.201,2.46         c2.542-1.346,5.188-2.406,7.86-3.395C360.046,271.682,362.753,270.791,365.564,270.183z"/>
						</g>
					</g>
					<g>
						<g>
							<path style="fill:#AE312F;" d="M272.649,282.079c-2.902,0.664-5.831,1.029-8.768,1.32c-2.939,0.261-5.885,0.446-8.86,0.329         c2.901-0.667,5.831-1.031,8.767-1.32C266.729,282.149,269.675,281.964,272.649,282.079z"/>
						</g>
						<g>
							<path style="fill:#AE312F;" d="M254.551,276.382c2.876,0.035,5.707,0.368,8.527,0.774c2.816,0.436,5.62,0.947,8.38,1.758         c-2.876-0.033-5.707-0.366-8.527-0.774C260.115,277.702,257.31,277.191,254.551,276.382z"/>
						</g>
						<g>
							<path style="fill:#AE312F;" d="M257.904,267.88c2.567,1.295,4.964,2.84,7.318,4.445c2.337,1.63,4.631,3.322,6.753,5.264         c-2.569-1.294-4.965-2.838-7.318-4.445C262.32,271.512,260.026,269.82,257.904,267.88z"/>
						</g>
					</g>
					<g>
						<path style="fill:#AE312F;" d="M238.932,260.811c-0.931,0.488-2.003,0.608-3.054,0.64c-2.489,0.084-4.964-0.278-7.382-0.891        c-2.15-3.575-3.815-7.509-4.977-11.823c2.538,1.686,5.366,2.951,8.326,3.694c1.615,0.399,3.266,0.653,4.821,1.266        c1.545,0.604,3.008,1.631,3.72,3.143c0.226,0.476,0.372,1.025,0.327,1.55C240.64,259.439,239.864,260.342,238.932,260.811z"/>
					</g>
					<g>
						<path style="fill:#AE312F;" d="M243.956,244.757c-3.823,3.507-9.964,0.472-13.901-1.145c-2.781-1.136-5.497-2.429-8.155-3.811        c-0.541-5.244-0.459-9.918,0.081-14.057c7.51,3.452,18.494,9.041,20,9.876c1.268,0.701,2.474,1.596,3.204,2.84        C246.402,240.492,245.641,243.206,243.956,244.757z"/>
					</g>
					<g>
						<path style="fill:#AE312F;" d="M240.726,227.081c-5.118-0.551-9.65-2.768-14.053-5.28c-1.189-0.669-2.362-1.377-3.502-2.144        c0.501-1.898,1.107-3.67,1.78-5.297c1.002-2.419,2.159-4.547,3.365-6.403c1.356,1.235,2.739,2.458,4.131,3.671        c3.739,3.265,8.022,5.937,11.645,9.296c0.642,0.587,1.261,1.242,1.607,2.05C247.039,226.136,243.042,227.341,240.726,227.081z        "/>
					</g>
					<g>
						<path style="fill:#AE312F;" d="M308.86,292.02l3.506-10.597c0.562-1.771,1.151-3.532,1.679-5.309        c0.544-1.77,1.068-3.552,1.443-5.338l0.366-1.737l0.585,1.661c1.209,3.43,2.072,6.932,2.585,10.508        c0.264,1.784,0.416,3.584,0.485,5.383c0.044,1.801-0.039,3.604-0.256,5.384c-0.003-1.795-0.018-3.58-0.223-5.355        c-0.172-1.774-0.4-3.542-0.752-5.288c-0.349-1.745-0.724-3.485-1.192-5.201c-0.463-1.713-0.97-3.432-1.576-5.079l0.951-0.076        c-0.396,1.855-0.944,3.642-1.511,5.422c-0.591,1.771-1.183,3.54-1.854,5.28c-0.66,1.743-1.333,3.48-2.025,5.209        C310.344,288.604,309.641,290.328,308.86,292.02z"/>
					</g>
				</g>
				<g style="opacity:0.48;">
					<g>
						<path style="fill:#AE312F;" d="M192.131,156.057c1.208-0.447,2.457-0.793,3.738-1.008c1.275-0.191,2.625-0.291,3.924,0.19        c0.627,0.267,1.272,0.662,1.53,1.47c0.121,0.428-0.083,0.881-0.321,1.161c-0.244,0.295-0.533,0.5-0.823,0.685        c-1.183,0.7-2.435,1.077-3.728,1.398l-0.176-0.894c1.067-0.24,2.126-0.423,3.223-0.501c1.104-0.033,2.192-0.192,3.483,0.429        c0.316,0.175,0.675,0.536,0.781,1.003c0.135,0.478-0.047,0.977-0.245,1.271c-0.413,0.616-0.902,0.944-1.38,1.272        c-0.483,0.316-0.976,0.58-1.476,0.822l-0.755,0.345l-0.383,0.161l-0.194,0.078l-0.099,0.038l-0.051,0.019l-0.028,0.01        l-0.054,0.018c-0.169,0.053-0.399,0.035-0.552-0.037l0.646-1.439c2.271,0.999,4.022,2.77,5.377,4.672        c1.346,1.929,2.377,4.02,3.227,6.156c1.701,4.281,2.762,8.746,3.486,13.249c1.627,8.988,0.716,18.545-2.687,27.075        c-1.711,4.268-4.077,8.304-7.143,11.766c-3.094,3.431-6.889,6.228-11.079,8.123c-8.465,3.785-17.961,3.896-26.776,2.341        c8.91,0.935,18.205,0.286,26.197-3.569c7.97-3.901,13.853-11.171,16.995-19.372c3.153-8.27,3.921-17.293,2.512-26.063        c-0.657-4.389-1.651-8.755-3.236-12.868c-0.79-2.052-1.751-4.038-2.965-5.817c-1.191-1.783-2.694-3.366-4.547-4.251        l0.646-1.439c-0.146-0.075-0.367-0.096-0.529-0.045c-0.078,0.024-0.016,0.005-0.031,0.01l0.019-0.006l0.043-0.014l0.088-0.029        l0.179-0.062l0.359-0.131l0.71-0.284c0.467-0.199,0.924-0.417,1.344-0.663c0.411-0.24,0.82-0.536,1.01-0.804        c0.146-0.266,0.155-0.227-0.075-0.451c-0.62-0.372-1.774-0.418-2.763-0.394c-1.026,0.035-2.08,0.13-3.102,0.277l-0.176-0.894        c1.214-0.23,2.477-0.549,3.544-1.111c0.518-0.278,1.006-0.698,0.914-1.115c-0.099-0.447-0.61-0.907-1.138-1.136        c-1.11-0.494-2.436-0.473-3.693-0.373C194.633,155.444,193.366,155.698,192.131,156.057z"/>
					</g>
				</g>
				<g>
					<path style="fill:#AE312F;" d="M278.902,297.805c4.096-1.595,8.513-2.506,12.992-2.444c2.231,0.077,4.493,0.354,6.645,1.082       c1.107,0.271,2.111,0.831,3.168,1.258c0.955,0.616,2.028,1.078,2.887,1.842c1.888,1.287,3.456,3.159,4.564,5.139       c1.144,1.985,1.986,4.099,2.652,6.249c1.315,4.309,1.964,8.769,2.134,13.24c0.087,4.47-0.242,8.974-1.453,13.359       c-0.63,2.175-1.453,4.373-3.049,6.248c-0.808,0.908-1.895,1.737-3.22,2.01c-0.695,0.157-1.234,0.105-1.82,0.118       c-0.578,0.027-1.155-0.04-1.732-0.106c-4.682-0.485-8.7-3.324-11.548-6.71c-2.865-3.446-4.975-7.369-6.737-11.395       c2.185,3.806,4.476,7.598,7.508,10.699c2.92,3.145,6.741,5.545,10.931,5.784c0.518,0.036,1.035,0.076,1.557,0.026       c0.511-0.03,1.079-0.024,1.456-0.149c0.834-0.198,1.59-0.749,2.222-1.48c1.256-1.504,2.027-3.525,2.572-5.56       c1.077-4.114,1.337-8.48,1.196-12.78c-0.099-4.309-0.668-8.632-1.861-12.75c-1.223-4.078-3.038-8.101-6.373-10.665       c-0.756-0.745-1.727-1.198-2.584-1.816c-0.963-0.431-1.872-1.002-2.899-1.298c-1.985-0.778-4.127-1.123-6.269-1.313       C287.528,295.989,283.139,296.664,278.902,297.805z"/>
				</g>
				<g>
					<path style="fill:#AE312F;" d="M166.042,273.087c0.998-1.934,1.972-3.526,2.747-5.226c0.426-0.829,0.733-1.693,1.057-2.581       c0.341-0.897,0.528-1.832,0.878-2.897c0.527,0.951,0.817,2.068,0.753,3.171c-0.019,1.109-0.305,2.21-0.771,3.207       c-0.489,0.987-1.112,1.9-1.905,2.643C168.019,272.147,167.111,272.776,166.042,273.087z"/>
				</g>
				<g>
					<path style="fill:#AE312F;" d="M300.937,344.09c0.421-1.44,0.753-2.803,1.033-4.169c0.253-1.366,0.506-2.712,0.597-4.08       c0.123-1.361,0.199-2.732,0.177-4.127c0.016-1.402-0.096-2.806-0.073-4.324c1.661,2.508,2.263,5.633,2.004,8.65       c-0.147,1.512-0.524,3.003-1.138,4.386C302.93,341.805,302.103,343.116,300.937,344.09z"/>
				</g>
				<g>
					<path style="fill:#AE312F;" d="M326.181,170.482c-2.266-0.091-4.555-0.419-6.822-0.691       c-11.728-1.371-23.672-0.986-35.298,1.144c-7.479,1.371-15.071,3.468-22.562,2.198c-1.938-0.329-4.102-1.099-4.805-2.935       c-0.578-1.553,0.136-3.354,1.348-4.487c1.201-1.133,2.799-1.734,4.352-2.278c12.556-4.363,25.848-6.55,39.129-6.527       c4.963,0.011,11.524-0.26,17.655,0.555C321.682,161.575,324.028,165.904,326.181,170.482z"/>
				</g>
				<g>
					<path style="fill:#AE312F;" d="M305.126,138.549c-0.816,0.034-1.621,0.079-2.425,0.147c-8.012,0.703-15.309,3.864-22.766,6.267       c-5.689,1.824-14.845,4.986-19.706,0.045c-1.507-1.519-1.428-3.309-0.714-5.088c2.72-6.674,10.187-10.901,17.553-13.825       c3.649-1.439,7.332-2.572,11.082-3.558c0.487,0.374,0.974,0.771,1.462,1.167C295.041,128.135,300.254,133.064,305.126,138.549z       "/>
				</g>
				<g>
					<path style="fill:#AE312F;" d="M270.032,110.22c-2.414,1.722-5.167,2.901-7.807,4.227c-4.125,2.074-8.046,4.567-11.672,7.411       c-1.892,1.484-3.728,3.071-5.915,4.045c-1.621,0.714-3.592,1.042-5.122,0.147c-1.586-0.929-2.255-2.958-2.051-4.782       c0.204-1.825,1.133-3.479,2.13-5.009c3.853-5.915,8.873-10.289,14.584-14.119C259.47,104.497,264.785,107.171,270.032,110.22z"/>
				</g>
				<g>
					<path style="fill:#AE312F;" d="M238.393,95.976c-2.89,2.232-5.575,4.725-8.012,7.445c-4.374,4.861-8.272,10.675-14.357,13.066       c-1.904,0.737-4.204,1.054-5.87-0.113c-2.017-1.405-2.244-4.283-1.881-6.708c1.11-7.479,5.745-13.745,11.32-19.037       c0.714,0.17,1.439,0.34,2.153,0.51C227.084,92.44,232.671,94.038,238.393,95.976z"/>
				</g>
				<g>
					<path style="fill:#AE312F;" d="M136.305,175.332c-3.071,2.085-6.153,4.181-9.235,6.266c-2.199,1.473-4.442,2.958-6.743,4.317       c-2.096-4.657-3.785-9.507-4.975-14.403c5.349-2.062,10.901-3.751,16.125-5.19c1.677-0.465,3.422-0.906,5.145-0.657       c1.722,0.249,3.433,1.348,3.887,3.026C141.246,171.4,138.628,173.746,136.305,175.332z"/>
				</g>
				<g>
					<path style="fill:#AE312F;" d="M142.3,143.75c-0.261,1.439-1.53,2.459-2.776,3.207c-4.419,2.652-9.598,3.638-14.663,4.59       c-3.887,0.725-7.762,1.45-11.649,2.187c0.113-4.907,0.861-9.813,2.164-14.607c6.709-0.737,13.485-0.839,20.216-0.317       c1.564,0.125,3.184,0.295,4.555,1.065C141.518,140.657,142.572,142.198,142.3,143.75z"/>
				</g>
				<g>
					<path style="fill:#AE312F;" d="M157.054,125.937c-1.643,1.79-4.442,1.926-6.833,1.451c-6.493-1.269-11.785-5.779-17.666-8.816       c-2.062-1.065-4.102-1.813-6.165-2.38c2.731-3.785,5.802-7.286,9.145-10.391c1.179-1.099,2.38-2.13,3.615-3.116       c2.754,1.122,5.383,2.606,7.887,4.227c4.759,3.105,9.394,7.116,10.935,12.578C158.583,121.676,158.583,124.26,157.054,125.937z       "/>
				</g>
				<g>
					<path style="fill:#AE312F;" d="M186.335,104.95c-1.258,2.969-4.057,5.417-7.275,5.621c-3.252,0.204-6.278-1.813-8.34-4.34       c-2.063-2.516-3.4-5.541-5.088-8.318c-1.485-2.448-3.264-4.68-5.269-6.708c7.23-2.402,14.822-3.706,22.539-4.136       c1.79,2.516,3.105,5.36,3.83,8.363C187.491,98.571,187.593,101.97,186.335,104.95z"/>
				</g>
			</g>
			<g>
				<path style="fill:#AE312F;" d="M354.385,370.979c1.207-2.343,1.806-4.556,2.129-6.886c0.167-1.162,0.212-2.346,0.259-3.564      c0.035-1.223-0.007-2.462,0.087-3.807c0.754,1.101,1.272,2.336,1.558,3.638c0.3,1.301,0.35,2.664,0.195,4.016      c-0.212,1.342-0.616,2.675-1.333,3.842C356.581,369.374,355.624,370.425,354.385,370.979z"/>
			</g>
		</g>
		<path style="fill:#AE312F;" d="M281.995,311.095c-2.189,4.17-7.246,7.321-10.434,10.736c-1.038,1.132-2.057,2.359-3.113,3.585    c-5.321-2.132-11.208-5.49-16.491-10.774c1.056-1.302,2.264-2.472,3.566-3.51c5.924-4.793,13.604-7.415,21.227-7.227    c1.83,0.038,3.83,0.34,5.019,1.717C283.032,307.095,282.9,309.378,281.995,311.095z"/>
		<path style="fill:#AE312F;" d="M254.334,297.227c-1.698,1.906-5.189,4.585-9.094,6.604c-1.943-4.849-3.246-10.264-4.095-15.434    c2.925-0.811,6.019-1.076,9.038-0.698c2.604,0.321,5.566,1.472,6.189,4.019C256.862,293.698,255.692,295.717,254.334,297.227z"/>
		<path style="fill:#FFFFFF;" d="M83.628,270.775c-1.057-0.25-2.123-0.462-3.175-0.733c-0.192-0.049-0.429-0.272-0.481-0.46    c-0.334-1.213-0.599-2.445-0.941-3.656c-0.1-0.352-0.09-0.56,0.189-0.812c0.982-0.887,1.94-1.8,2.907-2.705    c0.157-0.147,0.308-0.299,0.576-0.559c-1.211-1.55-2.409-3.083-3.637-4.654c-1.363,0.85-2.614,1.603-3.833,2.406    c-0.429,0.283-0.706,0.325-1.173,0.004c-0.954-0.656-1.999-1.179-2.989-1.785c-0.152-0.093-0.296-0.342-0.295-0.518    c0.009-1.343,0.016-2.688,0.107-4.027c0.044-0.642-0.193-0.89-0.78-0.959c-0.226-0.027-0.442-0.135-0.662-0.206    c-1.019-0.135-2.038-0.27-3.057-0.405c-0.114,0.019-0.229,0.057-0.343,0.054c-1.193-0.032-0.991-0.098-1.251,0.986    c-0.317,1.321-0.612,2.648-0.877,3.797c-1.639,0.451-3.17,0.872-4.752,1.307c-1.109-1.185-2.268-2.423-3.435-3.669    c-1.769,0.956-3.26,2.191-4.64,3.625c0.839,1.339,1.653,2.646,2.477,3.948c0.148,0.234,0.19,0.393,0.012,0.673    c-0.697,1.095-1.367,2.209-1.986,3.348c-0.179,0.328-0.349,0.394-0.679,0.382c-1.362-0.05-2.726-0.068-4.088-0.111    c-0.338-0.011-0.524,0.07-0.633,0.438c-0.486,1.651-0.606,3.337-0.581,5.044c0.005,0.338,0.197,0.412,0.476,0.473    c1.294,0.282,2.581,0.595,3.876,0.869c0.373,0.079,0.528,0.21,0.615,0.621c0.3,1.42,0.683,2.823,1.063,4.346    c-1.077,1.008-2.299,2.152-3.521,3.296c0.966,1.806,2.141,3.372,3.617,4.729c1.457-0.922,2.874-1.819,4.157-2.632    c1.247,0.672,2.389,1.327,3.569,1.905c0.446,0.219,0.599,0.453,0.571,0.941c-0.074,1.302-0.096,2.607-0.126,3.91    c-0.006,0.258-0.086,0.585,0.333,0.637c1.703,0.212,3.405,0.426,5.107,0.638c0.362,0.045,0.514-0.129,0.589-0.482    c0.279-1.314,0.616-2.617,0.873-3.935c0.099-0.509,0.367-0.628,0.817-0.732c1.11-0.257,2.221-0.539,3.293-0.917    c0.463-0.163,0.676-0.107,0.985,0.242c0.993,1.122,2.03,2.205,3.029,3.28c1.136-0.43,3.864-2.571,4.718-3.686    c-0.82-1.284-1.635-2.591-2.487-3.874c-0.213-0.321-0.166-0.511,0.023-0.824c0.609-1.01,1.147-2.063,1.745-3.08    c0.101-0.171,0.371-0.346,0.56-0.344c1.205,0.014,2.41,0.069,3.614,0.125c0.673,0.031,0.945,0.046,1.111-0.186l0.718-5.425    C84.799,271.055,84.483,270.977,83.628,270.775z M74.022,272.602c-0.642,4.849-5.093,8.259-9.942,7.617h0    c-4.848-0.642-8.259-5.093-7.617-9.942l0,0c0.642-4.849,5.093-8.259,9.942-7.617l0,0    C71.254,263.303,74.664,267.754,74.022,272.602L74.022,272.602z"/>
	</g>
	<g>
		<path style="fill:#FFFFFF;" d="M113.218,222.332c-0.026,0.855-0.647,1.232-1.306,1.633c-0.965,0.586-1.913,1.161-2.841,1.763    c0.03,0.453,0.069,0.906,0.109,1.359c0.051,0.588,0.101,1.174,0.133,1.763c0.969,0.394,1.92,0.801,2.867,1.205l1.842,0.783    l-0.048,0.75c-0.101,1.592-1.257,5.06-2.061,6.185l-0.409,0.571l-1.864-0.416c-1.019-0.225-2.051-0.452-3.074-0.707    c-0.769,1-1.562,1.871-2.25,2.604c-0.009,0.008-0.017,0.014-0.024,0.019c0.295,0.7,0.559,1.386,0.823,2.073    c0.197,0.512,0.394,1.025,0.601,1.534c0.421,1.041-0.099,1.749-0.726,2.065l-4.589,2.324c-0.285,0.145-1.267,0.521-1.968-0.654    l-0.303-0.471c-0.603-0.929-1.205-1.859-1.776-2.808c-0.999,0.135-1.91,0.222-2.856,0.315l-0.573,0.056l-2.062,4.633l-0.793-0.114    c-2.048-0.296-3.998-0.934-5.964-1.952l-0.733-0.379l1.133-4.837l-0.491-0.434c-0.775-0.681-1.521-1.335-2.238-2.014    c-0.666,0.267-1.298,0.512-1.931,0.756l-1.618,0.633c-1.076,0.421-1.662-0.13-1.919-0.497c-1.196-1.702-1.978-3.204-2.462-4.727    c-0.146-0.457-0.245-1.318,0.73-1.929l1.571-0.996c0.572-0.365,1.144-0.73,1.721-1.089c-0.099-1.146-0.157-2.277-0.188-3.406    l-4.772-2.07l0.148-0.825c0.399-2.228,1.035-4.142,1.942-5.851l0.378-0.712l5.058,1.117l2.385-2.754l-0.168-0.434    c-0.319-0.817-0.658-1.692-0.988-2.569l-0.13-0.332c-0.488-1.205-0.108-1.711,0.874-2.328l3.934-1.966    c1.041-0.533,1.983-0.264,2.578,0.755c0.612,1.047,1.287,2.058,1.964,3.067c0.348-0.021,0.696-0.05,1.045-0.079    c0.738-0.062,1.523-0.128,2.211-0.118c0.448-1.034,0.866-1.947,1.305-2.904l0.949-2.085l7.415,2.344l-0.586,2.663    c-0.209,0.902-0.419,1.804-0.645,2.702c0.505,0.428,0.957,0.831,1.408,1.234c0.371,0.331,0.742,0.662,1.119,0.986    c0.536-0.197,1.07-0.408,1.605-0.619l1.213-0.473c0.926-0.349,1.655-0.626,2.437-0.067L113.218,222.332z M85.818,245.327    c1.248,0.58,2.492,0.99,3.77,1.241l1.902-4.272l1.804-0.181c0.954-0.092,1.871-0.18,2.783-0.311    c0.911-0.126,1.59,0.181,2.055,0.953c0.57,0.95,1.173,1.88,1.775,2.809l0.074,0.115l3.61-1.828    c-0.156-0.396-0.305-0.784-0.455-1.172c-0.271-0.707-0.542-1.413-0.839-2.11c-0.494-1.16,0.183-1.883,0.472-2.192    c0.684-0.728,1.472-1.592,2.149-2.493c0.549-0.731,1.188-0.961,2.056-0.743c1.04,0.26,2.087,0.49,3.122,0.719l0.419,0.093    c0.457-0.975,1.005-2.644,1.236-3.776l-0.405-0.173c-1.007-0.43-2.02-0.863-3.042-1.275c-0.934-0.379-1.076-1.105-1.101-1.617    c-0.029-0.616-0.083-1.229-0.136-1.843c-0.048-0.543-0.094-1.087-0.126-1.633c-0.03-0.503,0.219-1.193,0.751-1.541    c1.017-0.666,2.058-1.298,3.098-1.93c0.03-0.019,0.06-0.036,0.088-0.054l-1.803-3.599c-0.127,0.046-0.272,0.1-0.402,0.149v0.001    l-1.186,0.461c-0.623,0.246-1.245,0.491-1.874,0.716c-0.55,0.199-1.262,0.071-1.696-0.296c-0.455-0.385-0.899-0.781-1.344-1.177    c-0.482-0.431-0.964-0.862-1.462-1.276c-0.226-0.188-0.916-0.764-0.644-1.842c0.243-0.958,0.466-1.918,0.689-2.878l0.174-0.746    l-3.788-1.198l-0.174,0.382c-0.446,0.974-0.87,1.899-1.267,2.836c-0.238,0.561-0.697,1.305-1.942,1.305    c-0.017-0.005-0.032-0.001-0.049,0c-0.671,0-1.341,0.056-2.011,0.111c-0.454,0.037-0.909,0.074-1.365,0.097    c-0.569,0.03-1.165-0.28-1.464-0.728c-0.751-1.118-1.461-2.178-2.108-3.272c-0.226,0.092-0.4,0.133-0.547,0.169l-2.589,1.268    c-0.09,0.09-0.188,0.178-0.315,0.259c-0.047,0.029-0.089,0.055-0.127,0.08l0.061,0.155c0.326,0.869,0.663,1.735,0.978,2.545    l0.63,1.624l-4.045,4.672l-4.696-1.038c-0.521,1.12-0.915,2.324-1.211,3.698l3.461,1.499c0.662,0.282,1.008,0.783,1.026,1.488    c0.029,1.26,0.091,2.517,0.207,3.768c0.07,0.738-0.207,1.29-0.847,1.687c-0.624,0.387-1.244,0.782-1.862,1.177l-1.31,0.831    c0.387,1.095,0.967,2.2,1.8,3.432l1.304-0.509c0.686-0.265,1.371-0.53,2.052-0.807c0.751-0.305,1.402-0.182,1.987,0.381    c0.733,0.699,1.496,1.37,2.292,2.068l1.445,1.278L85.818,245.327z M90.987,213.183c0.001,0,0.001,0.001,0.001,0.001    S90.988,213.183,90.987,213.183z M93.376,235.402c-2.565,0-5.029-1.398-6.242-3.818c-0.825-1.645-0.955-3.516-0.369-5.267    c0.595-1.78,1.855-3.224,3.548-4.065c3.465-1.723,7.675-0.341,9.386,3.077l0.001,0.001c0.824,1.644,0.954,3.515,0.368,5.266    c-0.595,1.78-1.854,3.224-3.547,4.065C95.51,235.164,94.434,235.402,93.376,235.402z M93.463,223.629    c-0.743,0-1.497,0.168-2.207,0.52c-1.186,0.589-2.066,1.597-2.482,2.84c-0.406,1.214-0.316,2.508,0.255,3.646    c1.19,2.375,4.129,3.329,6.549,2.128c1.185-0.589,2.066-1.597,2.481-2.839c0.406-1.215,0.316-2.509-0.255-3.647    C96.963,224.598,95.25,223.629,93.463,223.629z"/>
	</g>
</g>















</svg>
