<?xml version="1.0" encoding="UTF-8"?>
<!-- Generator: Adobe Illustrator 25.2.3, SVG Export Plug-In . SVG Version: 6.00 Build 0)  -->
<svg xmlns="http://www.w3.org/2000/svg" xmlns:xlink="http://www.w3.org/1999/xlink" version="1.1" id="Capa_1" x="0px" y="0px" viewBox="0 0 512 512" style="enable-background:new 0 0 512 512;" xml:space="preserve" width="512" height="512">
<g>
	<path style="fill:#9BEFE6;" d="M209.886,113.84c-54.748,11.304-109.057,36.393-150.16,74.712   C24.121,221.747,3.945,271.672,2.385,319.955c-1.99,61.569,25.925,125.707,78.533,159.612   c36.251,23.364,80.644,30.332,123.737,32.092c36.886,1.507,76.447-1.262,105.96-23.44c26.517-19.927,35.38-48.224,37.792-80.181   c0.901-11.937,1.439-24.035,4.873-35.502c7.965-26.598,31.019-37.174,52.11-51.565c21.658-14.778,42.177-32.8,53.025-57.222   c30.259-68.121-31.237-124.669-91.25-144.133C317.289,103.441,260.896,103.308,209.886,113.84z"/>
	<g>
		<path style="fill:#AE312F;" d="M402.806,433.495c-0.076,0-0.153-0.007-0.228-0.024c-0.597-0.125-0.978-0.709-0.853-1.305    c2.337-11.16,8.072-37.307,10.818-39.076c0.625-0.403,1.331-0.48,2.04-0.239c2.787,0.954,5.242,7.553,5.707,8.864    c0.202,0.575-0.099,1.204-0.672,1.408c-0.579,0.202-1.204-0.097-1.408-0.672c-1.167-3.299-3.159-7.109-4.342-7.514    c-1.658,1.51-6.355,20.352-9.984,37.68C403.775,433.138,403.316,433.495,402.806,433.495z"/>
		<path style="fill:#AE312F;" d="M323.408,469.836c-0.116,0-0.237-0.019-0.353-0.058c-0.577-0.196-0.887-0.821-0.691-1.398    c3.448-10.193,14.946-43.615,18.149-45.717c0.786-0.517,1.686-0.661,2.61-0.403c3.032,0.84,5.584,5.974,5.864,6.558    c0.265,0.547,0.035,1.206-0.513,1.471c-0.547,0.269-1.208,0.034-1.473-0.513c-0.896-1.854-2.903-4.958-4.469-5.393    c-0.31-0.082-0.553-0.047-0.81,0.123c-1.951,1.572-10.357,24.144-17.27,44.58C324.297,469.547,323.869,469.836,323.408,469.836z"/>
		<g>
			<path style="opacity:0.39;fill:#FFFFFF;" d="M403.051,432.25c4.905,8.498,1.789,19.481-6.961,24.532     c-8.75,5.05-19.819,2.255-24.724-6.243c-4.905-8.498-1.789-19.481,6.961-24.532C387.076,420.957,398.146,423.751,403.051,432.25z     "/>
			<path style="opacity:0.39;fill:#FFFFFF;" d="M352.813,454.298c4.905,8.498,2.51,19.065-5.351,23.602     c-7.861,4.537-18.209,1.326-23.115-7.172c-4.905-8.498-2.509-19.065,5.351-23.603C337.559,442.589,347.907,445.8,352.813,454.298     z"/>
			<path style="fill:#AE312F;" d="M339.745,480.938c-6.364,0-12.75-3.551-16.348-9.784c-5.201-9.011-2.632-20.268,5.724-25.09     c8.358-4.828,19.391-1.421,24.592,7.589l0,0c5.201,9.011,2.632,20.268-5.727,25.092     C345.412,480.233,342.58,480.938,339.745,480.938z M337.372,446.072c-2.462,0-4.917,0.612-7.148,1.9     c-7.305,4.217-9.51,14.121-4.919,22.079c4.596,7.955,14.274,11.003,21.579,6.786c7.305-4.219,9.513-14.124,4.921-22.081l0,0     C348.614,449.23,342.972,446.072,337.372,446.072z"/>
			<path style="fill:#AE312F;" d="M353.91,455.447l-1.688-1.419c0.297-0.356,7.404-8.686,17.537-7.088l-0.345,2.179     C360.537,447.703,353.977,455.367,353.91,455.447z"/>
			<path style="fill:#AE312F;" d="M386.535,460.547c-1.594,0-3.192-0.196-4.766-0.595c-4.962-1.253-9.084-4.35-11.606-8.72     c-5.201-9.011-1.897-20.69,7.363-26.035c9.267-5.345,21.03-2.365,26.231,6.644l0,0c5.201,9.013,1.897,20.692-7.365,26.037     C393.336,459.642,389.951,460.547,386.535,460.547z M387.393,424.745c-2.968,0-5.991,0.76-8.763,2.36     c-8.207,4.738-11.149,15.067-6.558,23.025c2.223,3.851,5.858,6.579,10.236,7.684c4.389,1.111,9,0.454,12.982-1.843     c8.21-4.738,11.151-15.069,6.56-23.027l0,0C398.807,427.674,393.209,424.745,387.393,424.745z"/>
		</g>
	</g>
	<g>
		<g>
			<path style="fill:#FF9C3D;" d="M134.369,433.726c0,0,17.277-6.562,31.951-30.35c14.674-23.788-43.454-57.896-43.454-57.896     s-28.144,32.361-40.019,51.921C70.972,416.961,134.369,433.726,134.369,433.726z"/>
		</g>
		<g>
			<path style="fill:#FF9C3D;" d="M501.809,0.013c-8.11,0.437-12.648,7.719-17.498,18.028c-3.852,8.187-7.891,18.308-14.082,28.414     c-3.431,5.63-7.532,11.26-12.632,16.546c-1.154,1.185-2.355,2.339-3.618,3.431c-26.917,23.439-77.491,25.591-104.533,47.783     c-1.076,0.873-2.09,1.778-3.072,2.714c-11.743,11.057-16.889,25.045-19.041,36.726c-1.278,6.898-1.511,12.971-1.45,17.182     c-56.278-15.773-92.561,0.612-118.59,31.062c-26.377,30.857-34.928,93.451-34.928,93.451l63.988,125.978     c0,0-27.93,6.606-50.606,25.566c-16.351,13.672-25.394,28.552-22.054,39.146c0,3.516,0.337,5.071,1.659,7.145     c3.029,4.75,7.955,5.688,16.779,4.757c6.039,3.145,13.538-1.209,18.837-4.419c15.347-9.295,34.598-27.297,83.671-47.744     c49.074-20.447,72.935-81.875,74.63-98.552c0,0,23.189-8.652,36.363-46.073c0,0,3.883,41.645,20.613,42.017     c16.729,0.372-2.23-17.487,0.372-42.017c2.603-24.53,1.487-47.951-21.934-37.914c0,0-2.045-60.818-51.188-85.701     c2.575-12.166,11.022-39.163,36.331-48.649c12.944-4.85,26.449-9.872,39.735-15.751c9.404-4.164,18.714-8.764,27.619-14.051     c10.652-6.331,20.757-13.661,29.818-22.41c8.858-8.546,16.469-19.681,22.114-30.816C510.916,22.594,514.081-0.626,501.809,0.013z     "/>
		</g>
		<g>
			<g>
				<path style="fill:#FF5555;" d="M180.585,175.783l-1.214,17.531c0,0-1.554,0.68-3.958,1.943c-0.346,0.173-1.682-0.5-2.061-0.297      c-0.419,0.225,0.115,1.329-0.343,1.584c-1.554,0.85-3.302,1.87-5.124,3.035c-0.367,0.232-1.784-0.283-2.153-0.038      c-0.365,0.241,0.318,1.242-0.056,1.495c-2.768,1.894-5.585,4.055-8.086,6.459c-0.275,0.264-1.587-0.064-1.857,0.208      c-0.327,0.328,0.39,1.257,0.085,1.589c-1.36,1.457-2.574,2.987-3.569,4.589c-0.923,1.457-1.506,3.035-1.87,4.735      c-0.091,0.375-1.244,0.273-1.305,0.659c-0.07,0.439,0.956,1.365,0.917,1.818c-0.219,2.064-0.17,4.274-0.024,6.58      c0.011,0.188-1.063,0.526-1.024,1.044c0.042,0.555,1.198,1.291,1.218,1.53c0.194,2.598,0.485,5.342,0.631,8.159      c0.024,0.395-0.918,0.797-0.902,1.201c0.015,0.415,0.987,0.833,1,1.252c0.073,3.084-0.049,6.289-0.607,9.567      c-0.059,0.389-0.916,0.66-0.989,1.049c-0.078,0.412,0.628,0.943,0.528,1.355c-0.607,2.622-1.53,5.269-2.889,7.94      c-0.167,0.369-1.722,0.552-1.927,0.93c-0.213,0.393,0.924,0.981,0.689,1.376c-0.534,0.947-1.165,1.918-1.845,2.865      c-0.923,1.311-1.918,2.671-2.89,4.104c-0.303,0.417-1.722,0.631-2.022,1.068c-0.276,0.402,0.565,1.026,0.298,1.433      c-2.04,3.035-4.031,6.289-5.658,9.786c-0.206,0.425-1.619,0.846-1.811,1.283c-0.191,0.437,0.839,0.89,0.669,1.339      c-1.165,2.914-2.064,6.022-2.476,9.276c-0.064,0.448-1.149,1.003-1.192,1.461c-0.039,0.411,0.96,0.724,0.949,1.137      c-0.437,7.454,1.603,15.734,7.965,24.937l-3.302,7.722c0,0-21.319-10.684-23.213-27.317c-0.064-0.438,1.017-0.976,0.996-1.413      c-0.018-0.388-1.142-0.676-1.142-1.063c0-2.064,0.291-4.177,0.995-6.386c0.607-1.918,1.287-3.788,2.016-5.609      c0.2-0.481,1.284-0.808,1.488-1.288c0.167-0.394-0.546-0.941-0.372-1.334c1.797-4.031,3.813-7.867,5.779-11.704      c0.23-0.46,1.24-0.747,1.477-1.207c0.188-0.365-0.397-0.904-0.214-1.27c1.627-3.254,3.157-6.556,4.443-9.98      c0.162-0.432,1.227-0.645,1.382-1.081c0.124-0.348-0.661-0.919-0.532-1.274c0.825-2.574,1.505-5.269,1.942-8.061      c0.075-0.412,1.064-0.761,1.116-1.17c0.05-0.387-0.836-0.833-0.801-1.234c0.364-3.157,0.389-6.483-0.024-10.053      c-0.04-0.435,0.778-0.731,0.717-1.18c-0.051-0.378-0.977-0.908-1.033-1.296c-0.364-2.283-0.874-4.686-1.603-7.187      c-0.461-1.651-0.801-3.302-1.02-4.88c-0.062-0.448,0.644-0.741,0.604-1.186c-0.038-0.423-0.823-0.998-0.847-1.412      c-0.17-3.327,0.195-6.508,0.947-9.519c0.101-0.415,1.015-0.347,1.132-0.752c0.109-0.377-0.581-1.228-0.452-1.603      c1.457-4.468,3.739-8.547,6.386-12.117c0.266-0.372,1.259-0.11,1.529-0.462c0.223-0.29-0.279-1.195-0.048-1.481      c2.525-3.133,5.245-5.828,7.794-8.086c0.328-0.291,1.466,0.084,1.791-0.189c0.325-0.273-0.164-1.195,0.151-1.437      c2.088-1.748,3.958-3.084,5.366-4.055c0.429-0.282,1.477,0.172,1.809-0.043c0.44-0.285,0.127-1.213,0.376-1.365      c0.292-0.17,0.437-0.267,0.437-0.267L180.585,175.783z"/>
			</g>
			<g>
				<path style="fill:#FFFFFF;" d="M175.413,195.256c-0.728,0.364-1.53,0.801-2.404,1.287l-21.878-15.346      c0.995-0.656,1.748-1.141,2.185-1.408L175.413,195.256z"/>
			</g>
			<g>
				<path style="fill:#FFFFFF;" d="M167.886,199.578c-0.728,0.461-1.457,0.947-2.209,1.457l-21.854-14.156      c0.656-0.583,1.311-1.141,1.943-1.627L167.886,199.578z"/>
			</g>
			<g>
				<path style="fill:#FFFFFF;" d="M157.59,207.494c-0.607,0.583-1.214,1.19-1.772,1.797l-21.271-12.384      c0.486-0.68,0.971-1.311,1.482-1.942L157.59,207.494z"/>
			</g>
			<g>
				<path style="fill:#FFFFFF;" d="M150.379,218.615c-0.195,0.801-0.316,1.627-0.388,2.477l-22.509-9.713      c0.194-0.801,0.413-1.578,0.68-2.355L150.379,218.615z"/>
			</g>
			<g>
				<path style="fill:#FFFFFF;" d="M150.161,230.246l-23.383-6.75c-0.121-0.874-0.194-1.748-0.243-2.598l23.432,6.774      C150.015,228.498,150.088,229.372,150.161,230.246z"/>
			</g>
			<g>
				<path style="fill:#FFFFFF;" d="M150.889,240.857l-21.174-2.817c-0.073-0.801-0.194-1.627-0.316-2.477l21.392,2.841      C150.84,239.206,150.865,240.032,150.889,240.857z"/>
			</g>
			<g>
				<path style="fill:#FFFFFF;" d="M150.282,250.424c-0.121,0.801-0.267,1.602-0.461,2.404l-20.397-2.331      c0.146-0.801,0.243-1.578,0.316-2.404L150.282,250.424z"/>
			</g>
			<g>
				<path style="fill:#FFFFFF;" d="M146.931,260.768c-0.34,0.753-0.777,1.53-1.238,2.307l-19.061-2.161      c0.292-0.777,0.558-1.554,0.85-2.355L146.931,260.768z"/>
			</g>
			<g>
				<path style="fill:#FFFFFF;" d="M140.958,270.044c-0.583,0.801-1.165,1.651-1.724,2.501l-18.308,0.826      c0.413-0.826,0.85-1.651,1.263-2.477L140.958,270.044z"/>
			</g>
			<g>
				<path style="fill:#FFFFFF;" d="M133.576,282.33c-0.413,0.85-0.801,1.724-1.141,2.622l-18.405,2.744      c0.364-0.874,0.729-1.748,1.117-2.623L133.576,282.33z"/>
			</g>
			<g>
				<path style="fill:#FFFFFF;" d="M129.958,294.228c-0.122,0.85-0.219,1.724-0.243,2.598l-18.551,5.342      c-0.121-0.825-0.146-1.651-0.146-2.477L129.958,294.228z"/>
			</g>
		</g>
		<g>
			<g>
				<path style="fill:#AE312F;" d="M499.11,45.862c-7.423-5.973,3.15-19.759,3.15-19.759c-9.092,0-14.597-3.649-17.95-8.062      c4.85-10.308,9.388-17.591,17.498-18.028C514.081-0.626,510.916,22.594,499.11,45.862z"/>
			</g>
			<g>
				<path style="fill:#AE312F;" d="M470.104,69.13c-6.035,1.934-11.93-0.25-16.125-2.698c1.263-1.092,2.464-2.246,3.618-3.431      c5.1-5.287,9.201-10.916,12.632-16.546C473.706,54.361,477.667,66.712,470.104,69.13z"/>
			</g>
			<g>
				<path style="fill:#AE312F;" d="M447.179,99.087c-8.904,5.287-18.215,9.887-27.618,14.051c0.265-6.456,2.324-14.02,9.778-17.732      C436.123,92.007,442.423,94.97,447.179,99.087z"/>
			</g>
			<g>
				<path style="fill:#AE312F;" d="M346.436,144.781c-6.129,6.581-13.459,8.53-19.104,8.873c2.152-11.68,7.298-25.669,19.041-36.726      C350.132,124.757,353.844,136.796,346.436,144.781z"/>
			</g>
		</g>
		<g style="opacity:0.2;">
			<path style="fill:#AE312F;" d="M501.902,0.096c-8.11,0.437-12.648,7.719-17.498,18.028c-3.852,8.187-7.891,18.308-14.082,28.414     c-3.431,5.63-7.532,11.26-12.632,16.546c-1.155,1.185-2.355,2.339-3.618,3.431c-26.917,23.439-77.491,25.591-104.533,47.783     c-1.076,0.873-2.09,1.778-3.073,2.713c-11.743,11.057-16.889,25.046-19.041,36.726c-1.271,6.863-1.601,12.89-1.543,17.099     c-2.054-0.579-4-1.108-6.005-1.598c-14.204-3.478-28.992-5.256-43.606-4.057c-18.344,1.505-35.928,8.059-50.555,19.262     c-12.357,9.464-22.534,21.03-29.922,34.744c-4.024,7.47-7.544,15.682-10.383,23.674c-2.796,7.871-4.764,15.918-7.088,23.924     c-0.032,0.109-0.063,0.234-0.094,0.343c-4.086,16.172-5.739,28.258-5.739,28.258l63.986,125.976c0,0-6.83,1.606-16.484,5.552     c-0.437,0.171-0.873,0.359-1.31,0.545c-1.341,0.562-2.729,1.17-4.164,1.809c-2.418,1.107-4.928,2.339-7.532,3.696     c-0.265,0.141-0.546,0.281-0.811,0.421c-1.996,1.076-4.039,2.23-6.098,3.478c-4.757,2.87-9.591,6.223-14.207,10.075     c-0.25,0.203-0.484,0.405-0.733,0.624c-15.892,13.489-24.609,28.071-21.319,38.519c0,3.509,0.328,5.068,1.653,7.142     c3.025,4.741,7.953,5.692,16.78,4.757c6.035,3.15,13.536-1.216,18.839-4.413c9.045-5.489,19.462-14.004,36.539-24.25     c0.249-0.156,0.499-0.297,0.764-0.452c3.836-2.292,8-4.663,12.585-7.111c0.655-0.359,1.31-0.702,1.98-1.061     c0.343-0.171,0.686-0.359,1.029-0.546c0.359-0.171,0.717-0.374,1.091-0.561c8.5-4.413,18.278-9.029,29.677-13.77     c2.152-0.904,4.257-1.871,6.316-2.932c7.158-3.633,13.724-8.14,19.712-13.224c8.437-7.142,15.735-15.392,21.926-23.922     c7.657-10.511,13.63-21.412,17.965-31.128c5.302-11.868,8.172-21.942,8.718-27.338c0,0,23.189-8.655,36.367-46.083     c0,0,3.883,41.654,20.601,42.013c16.733,0.374-2.23-17.482,0.374-42.013c2.604-24.531,1.497-47.954-21.927-37.911     c0,0-0.094-2.62-0.671-7.002c-0.218-1.622-0.499-3.478-0.858-5.536c-0.53-2.916-1.216-6.207-2.152-9.778     c-0.624-2.355-1.341-4.85-2.183-7.423c-1.825-5.661-4.258-11.712-7.455-17.778c-3.368-6.441-7.595-12.897-12.913-18.901     c-6.543-7.411-14.769-14.099-24.986-19.268c2.583-12.182,11.038-39.139,36.324-48.617c12.944-4.85,26.449-9.872,39.736-15.751     c9.404-4.164,18.714-8.764,27.619-14.051c10.652-6.331,20.757-13.661,29.818-22.41c8.858-8.546,16.469-19.681,22.114-30.816     C511.009,22.678,514.174-0.543,501.902,0.096z"/>
		</g>
		<g>
			<path style="fill:#FF9C3D;" d="M279.476,363.2c-0.035,3.888-0.447,7.803-1.217,11.687c-3.061,15.438-11.69,31.859-25.061,40.734     c-5.688,3.776-11.821,5.642-18.578,5.642c0,0-0.281,0.031-0.826,0.062c-2.246,0.172-8.936,0.577-18.059,0.109     c-17.778-0.873-44.867-4.975-66.637-20.273c-2.87-1.996-5.661-4.211-8.312-6.643c-1.793-1.653-3.446-3.337-4.959-5.068     c-11.53-13.154-15.78-30.832-12.415-47.924c2.175-11.05,7.071-21.522,13.991-30.394c5.084-6.519,11.041-11.852,17.341-15.377     c7.985-4.476,17.841-6.067,28.445-5.552c11.609,0.564,22.928,3.346,33.841,7.242c8.791,3.139,17.268,7.118,25.42,11.659     c9.368,5.219,18.723,11.526,25.521,19.934C275.943,338.898,279.588,350.913,279.476,363.2z"/>
		</g>
		<g>
			<g>
				<path style="fill:#FF9C3D;" d="M145.483,316.728c-0.157-0.249-0.313-0.499-0.453-0.756c-10.711-18.297,2.88-41.933,8.241-41.362      c0.091,0.007,0.194,0.021,0.288,0.039c5.301,0.82,9.981,8.781,13.058,19.029c3.144,10.429,12.761,16.463,12.761,16.463      S157.02,335.114,145.483,316.728z"/>
			</g>
			<g>
				<path style="fill:#AE312F;" d="M145.031,315.975c-10.71-18.305,2.877-41.941,8.238-41.364c0.091,0.007,0.194,0.021,0.288,0.038      c-0.763,1.525-1.625,3.929-1.903,7.372c-0.269,3.474,0.679,30.227-3.277,32.672      C147.191,315.438,146.009,315.852,145.031,315.975z"/>
			</g>
			<g>
				<path style="fill:#FFFFFF;" d="M148.377,314.693c-8.389-9.044-0.611-17.844-0.611-17.844s-2.482,0.419-2.608-1.422      c-0.111-1.765,2.462-1.235,2.683-1.191c-0.091-0.101-2.011-2.131-1.937-3.306c0.073-1.21,2.424,0.525,2.424,0.525      c-0.431-4.757,1.986-8.021,3.326-9.435c-0.269,3.474,0.058,7.994,1.691,13.719C156.359,306.262,152.333,312.248,148.377,314.693      z"/>
			</g>
		</g>
		<g>
			<path style="fill:#AE312F;" d="M278.045,377.161c-0.187,0.764-0.39,1.544-0.608,2.308c-0.967,3.493-2.23,6.956-3.774,10.371     c-0.125,0.265-0.25,0.546-0.39,0.842c-0.031,0.062-0.047,0.109-0.078,0.171c-0.702-0.281-1.419-0.593-2.106-0.904     c-3.509-1.591-7.376-3.634-9.217-7.205c-0.624-1.201-0.967-2.527-0.826-3.712c0.25-2.495,2.495-3.914,4.881-4.086     c2.401-0.187,4.959,0.608,7.47,1.263C274.926,376.63,276.485,376.974,278.045,377.161z"/>
		</g>
		<g>
			<path style="fill:#AE312F;" d="M279.711,363.188c-0.031,1.747-0.125,3.462-0.297,5.224c-0.047,0.452-0.109,0.889-0.156,1.325     c-0.062,0.452-0.14,0.936-0.203,1.419c-0.031,0.172-0.046,0.343-0.078,0.515c-3.166-1.778-6.815-4.273-6.534-7.283     c0.062-0.889,0.608-1.56,1.388-2.043c1.591-0.982,3.664-1.029,5.863-0.889C279.711,362.034,279.711,362.611,279.711,363.188z"/>
		</g>
		<g>
			<path style="fill:#AE312F;" d="M269.822,397.477c-0.031,0.047-0.047,0.078-0.078,0.125c-0.109,0.203-0.234,0.39-0.343,0.593     c-1.185,1.98-2.401,3.821-3.633,5.49c-0.156,0.218-0.312,0.437-0.468,0.639c-0.718-0.92-1.388-1.902-1.981-2.916     c-0.811-1.403-1.497-2.963-1.419-4.413c0.062-1.451,1.17-2.698,2.604-2.386c0.702,0.156,1.373,0.639,2.028,1.076     C267.592,396.385,268.699,396.994,269.822,397.477z"/>
		</g>
		<g>
			<g>
				<g>
					<path style="fill:#FFFFFF;" d="M228.533,413.089c-6.028,0.947-13.684-1.414-17.939-5.881c-0.908-0.955-1.666-2.029-2.235-3.231       c-2.446-5.238-1.972-12.177,0.418-17.346c0.046-0.123,0.102-0.243,0.158-0.363c2.509-5.17,7.707-8.463,13.437-8.795       c6.704-0.385,15.125,2.395,18.124,8.911c1.181,2.574,1.653,5.595,1.481,8.667l0.01,0.004       C241.556,403.244,236.607,411.813,228.533,413.089z"/>
				</g>
				<g>
					<path style="fill:#AE312F;" d="M228.533,413.089c-3.417,0.532-6.925,0.035-10.201-1.03c-1.64-0.545-3.223-1.271-4.701-2.183       c-1.48-0.904-2.862-2.003-4.005-3.347c-1.148-1.342-1.962-2.965-2.491-4.64c-0.539-1.681-0.833-3.435-0.924-5.197       c-0.176-3.527,0.447-7.094,1.842-10.395l-0.024,0.057c1.686-3.935,4.886-6.99,8.782-8.572c1.934-0.782,4.022-1.241,6.1-1.261       c2.063-0.048,4.119,0.165,6.118,0.633c3.96,0.958,7.853,2.948,10.411,6.283c1.29,1.649,2.095,3.62,2.527,5.599       c0.446,1.991,0.541,4.032,0.385,6.036l-0.242-0.373l0.01,0.004l0.263,0.107l-0.021,0.264c-0.16,2.05-0.593,4.068-1.267,5.995       c-0.682,1.922-1.593,3.762-2.746,5.435c-1.156,1.67-2.586,3.151-4.241,4.32C232.453,411.99,230.535,412.789,228.533,413.089z        M228.533,413.089c1.999-0.32,3.904-1.138,5.54-2.315c1.649-1.168,3.008-2.704,4.105-4.384       c1.103-1.682,1.928-3.536,2.489-5.458c0.567-1.92,0.887-3.909,0.943-5.896l0.242,0.371l-0.011-0.003l-0.25-0.088l0.008-0.285       c0.054-1.943-0.139-3.891-0.652-5.74c-0.507-1.856-1.33-3.595-2.56-5.011c-2.459-2.853-6.059-4.574-9.76-5.365       c-3.722-0.789-7.653-0.796-11.118,0.594c-1.732,0.694-3.326,1.71-4.703,2.968c-0.68,0.636-1.325,1.318-1.867,2.079       c-0.293,0.365-0.524,0.773-0.784,1.162c-0.21,0.395-0.486,0.844-0.632,1.191l-0.024,0.058       c-1.439,2.978-2.213,6.338-2.209,9.698c0.004,1.68,0.2,3.364,0.634,4.99c0.428,1.63,1.112,3.185,2.144,4.522       c2.073,2.681,5.101,4.57,8.312,5.742C221.602,413.095,225.118,413.567,228.533,413.089z"/>
				</g>
			</g>
			<g>
				<path style="fill:#AE312F;" d="M218.298,406.868c4.044,2.243,9.422,2.428,13.315-0.159c6.202-4.121,7.747-13.645,3.05-19.47      c-2.522-3.127-6.78-5.21-10.799-5.095c-10.741,0.307-15.253,14.731-8.531,22.372      C216.161,405.457,217.173,406.244,218.298,406.868z"/>
			</g>
			<g style="opacity:0.21;">
				<path style="fill:#AE312F;" d="M241.976,395.051c-15.526-16.009-31.253-9.339-33.2-8.42c0.046-0.123,0.102-0.243,0.158-0.363      c2.509-5.17,7.707-8.463,13.437-8.795c6.704-0.385,15.125,2.395,18.124,8.911C241.676,388.958,242.148,391.98,241.976,395.051z"/>
			</g>
		</g>
		<g>
			<g>
				<g>
					<path style="fill:#FFFFFF;" d="M156.892,389.375c-6.028,0.947-13.684-1.414-17.939-5.88c-0.908-0.955-1.667-2.029-2.235-3.232       c-2.446-5.238-1.972-12.177,0.417-17.345c0.046-0.124,0.102-0.243,0.158-0.363c2.508-5.17,7.707-8.463,13.436-8.795       c6.704-0.385,15.125,2.395,18.124,8.911c1.181,2.574,1.653,5.595,1.481,8.667l0.01,0.004       C169.915,379.531,164.965,388.099,156.892,389.375z"/>
				</g>
				<g>
					<path style="fill:#AE312F;" d="M156.892,389.375c-3.417,0.533-6.925,0.035-10.201-1.03c-1.639-0.545-3.223-1.271-4.7-2.184       c-1.48-0.904-2.862-2.003-4.005-3.346c-1.148-1.342-1.962-2.965-2.491-4.641c-0.539-1.68-0.833-3.435-0.925-5.197       c-0.176-3.527,0.447-7.094,1.842-10.395l-0.024,0.057c1.686-3.935,4.886-6.99,8.782-8.572c1.934-0.783,4.022-1.241,6.1-1.26       c2.063-0.048,4.118,0.165,6.118,0.632c3.96,0.958,7.853,2.949,10.411,6.283c1.29,1.649,2.095,3.62,2.527,5.599       c0.446,1.991,0.541,4.032,0.385,6.036l-0.245-0.374l0.01,0.004l0.266,0.106l-0.021,0.266c-0.16,2.05-0.593,4.068-1.267,5.994       c-0.682,1.923-1.593,3.762-2.746,5.436c-1.156,1.67-2.586,3.151-4.241,4.32C160.812,388.276,158.894,389.075,156.892,389.375z        M156.892,389.375c1.999-0.32,3.904-1.138,5.54-2.314c1.649-1.169,3.008-2.704,4.106-4.384       c1.102-1.682,1.928-3.536,2.489-5.458c0.566-1.92,0.887-3.908,0.943-5.896l0.245,0.372l-0.01-0.003l-0.253-0.087l0.008-0.287       c0.054-1.943-0.139-3.891-0.652-5.74c-0.507-1.856-1.33-3.595-2.56-5.011c-2.459-2.853-6.058-4.574-9.76-5.365       c-3.722-0.789-7.653-0.796-11.117,0.594c-1.733,0.694-3.326,1.71-4.704,2.968c-0.68,0.635-1.325,1.319-1.868,2.079       c-0.293,0.365-0.523,0.773-0.784,1.162c-0.209,0.395-0.486,0.844-0.631,1.191l-0.024,0.057       c-1.438,2.978-2.213,6.338-2.209,9.698c0.004,1.68,0.2,3.364,0.634,4.99c0.428,1.63,1.112,3.185,2.144,4.522       c2.073,2.681,5.101,4.57,8.312,5.741C149.961,389.382,153.477,389.854,156.892,389.375z"/>
				</g>
			</g>
			<g>
				<path style="fill:#AE312F;" d="M146.657,383.155c4.044,2.242,9.422,2.427,13.315-0.159c6.203-4.121,7.747-13.646,3.05-19.47      c-2.521-3.127-6.78-5.21-10.799-5.095c-10.74,0.308-15.253,14.731-8.531,22.372C144.52,381.744,145.532,382.531,146.657,383.155      z"/>
			</g>
			<g style="opacity:0.21;">
				<path style="fill:#AE312F;" d="M170.335,371.338c-15.526-16.009-31.254-9.34-33.2-8.421c0.046-0.124,0.102-0.243,0.158-0.363      c2.508-5.17,7.707-8.463,13.436-8.795c6.704-0.385,15.125,2.395,18.124,8.911C170.035,365.245,170.507,368.266,170.335,371.338z      "/>
			</g>
		</g>
		<g>
			<g>
				<path style="fill:#AE312F;" d="M185.542,386.306c0,0-2.131-4.957-4.311-4.825c-2.18,0.132-0.187,5.716,3.303,7.945      c0,0,7.273-1.252,6.59-4.476C190.441,381.727,185.542,386.306,185.542,386.306z"/>
			</g>
			<g>
				<path style="fill:#AE312F;" d="M167.535,412.698c1.367-2.101,2.783-4.168,4.178-6.251l4.262-6.191l4.326-6.145      c1.453-2.04,2.875-4.103,4.354-6.125l0.738-1.008l0.102,1.234c0.199,2.415,0.31,4.818,0.374,7.23      c0.065,2.41,0.064,4.822-0.033,7.231c-0.095,2.409-0.261,4.816-0.521,7.212c-0.298,2.392-0.672,4.776-1.226,7.118      c0.356-2.38,0.637-4.763,0.79-7.157c0.149-2.394,0.254-4.789,0.26-7.187c-0.007-4.791-0.122-9.598-0.568-14.358l0.839,0.226      c-1.437,2.052-2.932,4.062-4.395,6.095l-4.423,6.076l-4.487,6.03C170.584,408.721,169.084,410.727,167.535,412.698z"/>
			</g>
			<g style="opacity:0.48;">
				<path style="fill:#AE312F;" d="M177.238,387.684c-2.585-0.025-5.384,1.052-7.536,3.349c-3.119,3.33-4.912,8.1-3.382,12.343      c0.95,2.633,2.834,4.448,4.865,5.797c3.892,2.586,7.944,4.826,12.752,4.639c1.744-0.068,3.549-0.427,5.234-1.4      c2.584-1.491,4.755-4.45,5.692-7.756c0.938-3.306,0.618-6.881-0.836-9.373c-1.789-3.065-5.271-4.854-8.31-5.66      C183.009,388.906,180.08,387.711,177.238,387.684z"/>
			</g>
		</g>
		<g style="opacity:0.48;">
			<path style="fill:#EA4949;" d="M233.794,421.325c-2.246,0.172-8.936,0.577-18.059,0.109c-1.17-2.214-0.047-4.803,2.339-5.833     c1.606-0.702,3.524-0.889,4.803-0.982c2.776-0.234,5.692,0.078,8.25,1.31C233.046,416.849,234.122,419.204,233.794,421.325z"/>
		</g>
		<g style="opacity:0.48;">
			<path style="fill:#EA4949;" d="M149.098,401.161c-2.87-1.996-5.661-4.211-8.312-6.643c-1.793-1.653-3.446-3.337-4.959-5.068     c0.749-0.702,1.747-1.154,2.87-1.263c1.762-0.172,3.649,0.265,4.913,0.577c2.713,0.686,5.349,1.934,7.345,3.977     C153.184,395.032,152.513,399.882,149.098,401.161z"/>
		</g>
		<g>
			<path style="fill:#AE312F;" d="M138.393,343.843c0.093,1.98-1.622,3.649-3.524,4.164c-1.903,0.499-3.93,0.109-5.832-0.39     c-2.199-0.561-4.351-1.263-6.441-2.136v-0.016c0.562-4.382,1.575-8.686,2.979-12.85c0.125-0.359,0.25-0.718,0.374-1.061     c2.901,2.994,6.456,5.318,9.622,8C136.943,340.677,138.331,342.081,138.393,343.843z"/>
		</g>
		<g>
			<path style="fill:#AE312F;" d="M128.231,359.953c-1.435,1.185-3.244,1.903-5.162,2.214v-0.031     c-0.406-2.573-0.64-5.115-0.671-7.688c-0.015-0.655-0.031-1.31-0.015-1.965c0.592,0.187,1.2,0.343,1.84,0.483     c1.154,0.234,2.339,0.406,3.415,0.873c1.076,0.452,2.058,1.263,2.355,2.324C130.367,357.567,129.432,358.986,128.231,359.953z"/>
		</g>
		<g>
			<path style="fill:#AE312F;" d="M134.917,326.572c-0.577,0.795-1.715,1.06-2.682,0.826c-0.967-0.25-1.778-0.889-2.511-1.591     c-0.312-0.312-0.608-0.64-0.889-0.967c0.156-0.343,0.312-0.67,0.484-1.029c1.325-2.713,2.807-5.333,4.429-7.813     c0.016-0.031,0.047-0.063,0.062-0.094c0.172,2.479,0.577,4.928,1.17,7.329C135.276,324.342,135.556,325.621,134.917,326.572z"/>
		</g>
		<g style="opacity:0.48;">
			<path style="fill:#AE312F;" d="M127.865,374.825c-0.473,0.911-0.901,1.844-1.255,2.798c-0.35,0.948-0.627,1.953-0.605,2.907     c0.024,0.468,0.158,0.915,0.478,1.161c0.362,0.273,0.786,0.413,1.213,0.359c0.861-0.119,1.665-0.819,2.24-1.534l2.397-2.98     l-1.721,3.422c-0.339,0.675-0.615,1.427-0.778,2.161c-0.154,0.732-0.176,1.503,0.122,2.036c0.312,0.529,0.939,0.755,1.647,0.673     c0.698-0.079,1.444-0.365,2.081-0.71l0.525-0.285l0.169,0.57c0.447,1.504,1.186,2.999,2.004,4.394     c0.837,1.395,1.79,2.729,2.875,3.953c1.093,1.214,2.267,2.372,3.579,3.365c0.623,0.542,1.321,0.982,1.993,1.463     c0.686,0.46,1.412,0.859,2.114,1.305c-1.515-0.676-2.995-1.458-4.371-2.411c-1.398-0.924-2.646-2.058-3.833-3.245     c-1.19-1.191-2.206-2.549-3.109-3.974c-0.901-1.437-1.642-2.94-2.163-4.611l0.694,0.285c-0.772,0.43-1.563,0.731-2.47,0.833     c-0.45,0.042-0.939,0.01-1.405-0.178c-0.465-0.189-0.873-0.528-1.127-0.973c-0.484-0.913-0.36-1.864-0.177-2.685     c0.211-0.834,0.514-1.6,0.917-2.355l0.676,0.441c-0.366,0.44-0.765,0.791-1.23,1.102c-0.46,0.303-0.994,0.553-1.592,0.599     c-0.603,0.048-1.21-0.193-1.642-0.565c-0.496-0.43-0.618-1.069-0.619-1.607c0.019-1.108,0.432-2.088,0.852-3.029     C126.777,376.573,127.287,375.674,127.865,374.825z"/>
		</g>
		<g>
			<g>
				<path style="fill:#AE312F;" d="M117.864,391.69c3.312-0.109,6.601,0.069,9.885,0.318c3.281,0.277,6.557,0.626,9.809,1.263      c-3.312,0.111-6.601-0.067-9.884-0.318C124.391,392.675,121.116,392.326,117.864,391.69z"/>
			</g>
			<g>
				<path style="fill:#AE312F;" d="M118.76,383.525c3.134,0.652,6.177,1.577,9.198,2.569c3.012,1.019,6.001,2.106,8.898,3.469      c-3.135-0.65-6.178-1.575-9.198-2.569C124.647,385.973,121.658,384.885,118.76,383.525z"/>
			</g>
			<g>
				<path style="fill:#AE312F;" d="M124.082,374.825c2.529,1.964,4.855,4.133,7.132,6.352c2.257,2.24,4.463,4.531,6.466,7.029      c-2.53-1.962-4.856-4.132-7.131-6.353C128.292,379.612,126.086,377.321,124.082,374.825z"/>
			</g>
		</g>
		<g>
			<g>
				<path style="fill:#AE312F;" d="M231.265,421.058c3.312-0.125,6.601,0.038,9.886,0.271c3.283,0.261,6.56,0.594,9.815,1.216      c-3.312,0.126-6.602-0.036-9.886-0.27C237.798,422.011,234.521,421.678,231.265,421.058z"/>
			</g>
			<g>
				<path style="fill:#AE312F;" d="M251.652,416.182c-3.074,0.895-6.195,1.507-9.328,2.049c-3.138,0.514-6.288,0.957-9.486,1.114      c3.073-0.898,6.195-1.509,9.328-2.05C245.305,416.784,248.455,416.342,251.652,416.182z"/>
			</g>
			<g>
				<path style="fill:#AE312F;" d="M247.053,405.721c-2.367,2.155-4.901,4.078-7.477,5.943c-2.592,1.841-5.226,3.624-8.029,5.172      c2.366-2.158,4.9-4.08,7.477-5.943C241.617,409.052,244.251,407.27,247.053,405.721z"/>
			</g>
		</g>
		<g>
			<g style="opacity:0.1;">
				<path style="fill:#AE312F;" d="M200.058,382.022C199.771,382.157,200.058,382.022,200.058,382.022L200.058,382.022z"/>
			</g>
		</g>
		<g>
			<path style="fill:#AE312F;" d="M232.381,302.835c-2.604,7.766-6.597,15.111-10.37,22.316c-1.84,3.494-3.93,6.831-6.254,9.965     c-0.733,0.982-1.512,1.996-2.542,2.573c-1.856,1.076-4.148,0.53-5.817-0.686c-3.01-2.183-4.554-6.238-4.71-10.277     c-0.187-4.055,0.842-8.094,2.059-11.977c1.778-5.708,4.195-13.318,7.766-19.4c0.515,0.156,1.014,0.312,1.528,0.468     c4.788,1.497,9.544,3.259,14.145,5.193c0.452,0.187,0.874,0.39,1.326,0.577C230.478,301.993,231.445,302.414,232.381,302.835z"/>
		</g>
		<g>
			<path style="fill:#AE312F;" d="M257.658,317.919c-0.717,0.826-1.451,1.653-2.137,2.48c-2.168,2.604-4.148,5.458-6.565,7.735     c-2.417,2.261-5.412,3.977-8.374,3.743c-1.778-0.141-3.587-1.139-4.211-3.025c-0.468-1.404-0.25-3.01,0.14-4.507     c1.357-5.318,4.289-10.23,7.345-15.049c0.951,0.515,1.887,1.045,2.807,1.575c0.842,0.468,1.669,0.951,2.48,1.45     c2.121,1.279,4.163,2.589,6.082,3.915c0.499,0.327,0.982,0.655,1.45,0.982C257.002,317.451,257.33,317.685,257.658,317.919z"/>
		</g>
		<g>
			<path style="fill:#AE312F;" d="M200.967,292.277c-2.246,5.677-5.193,11.041-8.125,16.328c-0.889,1.638-2.261,3.509-3.868,3.119     c-1.341-0.328-1.918-2.106-2.121-3.681c-0.78-5.91,0.686-11.883,2.62-17.513c0.999,0.094,2.028,0.203,3.041,0.343     c1.294,0.156,2.589,0.343,3.883,0.561c0.063,0.016,0.125,0.016,0.187,0.031C198.035,291.716,199.501,291.981,200.967,292.277z"/>
		</g>
		<g>
			<g>
				<path style="fill:#FF9C3D;" d="M265.154,355.967c0,0-8.635-3.306-14.043-9.793c-2.941-3.54-4.92-8.031-4.002-13.458      c0,0,23.124-26.402,31.444-25.732c1.004,0.078,1.865,0.951,2.539,2.386C286.098,319.802,282.382,360.723,265.154,355.967z"/>
			</g>
			<g>
				<path style="fill:#AE312F;" d="M265.556,356.06c-0.13-0.016-0.272-0.062-0.402-0.094c0,0,5.179-19.54,8.378-29.053      c3.084-9.185,4.131-18.293,5.867-18.449c0.617-0.062,1.176,0.281,1.693,0.905C286.055,319.724,282.44,360.084,265.556,356.06z"/>
			</g>
			<g>
				<path style="fill:#FFFFFF;" d="M271.609,343.928c0,0,2.023,3.259,1.406,3.836c-0.616,0.577-2.639-2.012-2.639-2.012      s-0.373,7.314-4.82,10.308c-0.13-0.016-0.272-0.062-0.402-0.094c0,0-8.635-3.306-14.043-9.793c0.918-0.094,1.98-0.14,3.17-0.14      c10.644,0,16.052-9.607,19.251-19.119c0.932,2.745,3.156,10.885-1.564,15.002c0,0,4.117,0.39,4.346,1.248      C276.544,344.021,271.609,343.928,271.609,343.928z"/>
			</g>
		</g>
		<g style="opacity:0.48;">
			<path style="fill:#AE312F;" d="M203.424,404.886c0,0,3.772,7.154,13.138,10.146"/>
		</g>
		<g style="opacity:0.48;">
			<path style="fill:#AE312F;" d="M155.431,394.579c0,0,5.864-0.206,11.728-7.224"/>
		</g>
		<g style="opacity:0.48;">
			<g>
				<path style="fill:#AE312F;" d="M322.181,311.776c1.338,4.731,3.084,9.337,5.369,13.649c2.223,4.331,4.932,8.425,8.299,11.861      c3.369,3.409,7.341,6.227,11.849,7.742c2.311,0.523,4.584,1.34,6.866,1.131c2.287-0.13,4.551-0.786,6.661-1.814      c4.269-1.998,8.007-5.175,11.37-8.634c3.375-3.481,6.335-7.366,9.205-11.313c2.843-3.972,5.459-8.118,7.905-12.365      c1.243-2.112,2.446-4.251,3.586-6.424c0.57-1.087,1.126-2.181,1.659-3.287l0.791-1.663l0.364-0.845l0.163-0.43      c0.013-0.1,0.171-0.395,0.005-0.343c0.181-0.057,0.035,0.252,0.035,0.354l-0.124,0.446l-0.288,0.879l-0.641,1.735      c-0.454,1.146-0.941,2.278-1.438,3.406c-0.996,2.255-2.058,4.482-3.164,6.688c-2.27,4.381-4.744,8.662-7.455,12.805      c-2.691,4.157-5.756,8.084-9.152,11.738c-3.425,3.608-7.247,6.998-11.886,9.243c-2.32,1.09-4.876,1.81-7.505,1.921      c-2.691,0.182-5.15-0.733-7.6-1.335c-4.817-1.718-9.103-4.723-12.434-8.48C327.93,330.904,324.023,321.412,322.181,311.776z"/>
			</g>
		</g>
		<g>
			<path style="fill:#AE312F;" d="M418.77,343.054c-1.068-0.048-2.05-0.449-2.921-0.989c-0.889-0.531-1.636-1.267-2.278-2.086     c-0.614-0.838-1.116-1.775-1.359-2.794c-0.287-0.997-0.305-2.073-0.051-3.091c0.65,0.856,1.099,1.656,1.626,2.401     c0.507,0.747,0.995,1.472,1.542,2.16C416.37,340.087,417.521,341.387,418.77,343.054z"/>
		</g>
		<g>
			<path style="fill:#AE312F;" d="M223.761,364.96c-0.841,0.398-1.738,1.185-1.492,2.082c0.109,0.397,0.424,0.7,0.738,0.966     c2.373,2.013,5.464,3.162,8.576,3.187c4.131,0.033,4.995-4.105,1.68-6.307C230.891,363.313,226.122,363.845,223.761,364.96z"/>
		</g>
		<g>
			<path style="fill:#AE312F;" d="M162.259,348.195c0.925-0.099,2.031-0.549,2.093-1.477c0.028-0.411-0.171-0.8-0.38-1.154     c-1.58-2.681-4.123-4.781-7.054-5.826c-3.891-1.387-6.065,2.238-3.658,5.406C154.983,347.411,159.662,348.474,162.259,348.195z"/>
		</g>
		<g>
			<path style="fill:#AE312F;" d="M181.904,498.653c0.335-2.596,1.082-5.108,2.006-7.545c0.922-2.442,2.096-4.789,3.446-7.041     c1.409-2.216,3.003-4.332,4.871-6.199c1.899-1.834,4.066-3.424,6.472-4.444c-1.909,1.795-3.611,3.635-5.193,5.592     c-1.522,2.005-2.956,4.061-4.277,6.207C186.584,489.521,184.3,494.035,181.904,498.653z"/>
		</g>
		<g>
			<path style="fill:#AE312F;" d="M163.692,486.039c0.612-2.139,1.617-4.133,2.783-6.012c1.163-1.888,2.561-3.627,4.09-5.247     c1.543-1.607,3.298-3.023,5.19-4.211c1.884-1.199,3.992-2.058,6.149-2.534c-1.796,1.321-3.532,2.531-5.141,3.927     c-1.591,1.402-3.176,2.794-4.617,4.35C169.183,479.348,166.503,482.636,163.692,486.039z"/>
		</g>
		<g>
			<path style="fill:#AE312F;" d="M210.09,460.328c-1.419,0.25-2.869-0.171-4.211-0.702c-6.596-2.573-11.867-7.47-17.95-10.947     c-0.639-0.359-1.684-0.733-2.916-1.154c0.249-0.218,0.483-0.421,0.733-0.624c4.616-3.852,9.45-7.205,14.207-10.074     c4.086,2.168,7.657,5.318,10.651,8.873c1.918,2.277,3.696,4.881,3.945,7.844C214.799,456.507,213.022,459.829,210.09,460.328z"/>
		</g>
		<g>
			<path style="fill:#AE312F;" d="M310.662,429.621c-5.989,5.084-12.554,9.591-19.712,13.225c-1.029-5.287-2.526-10.48-4.522-15.47     c-0.764-1.902-1.638-3.758-2.527-5.598c-2.277-4.757-4.6-9.466-5.068-14.878c-0.577-6.815,6.597-7.517,11.447-5.271     c2.745,1.263,5.053,3.306,7.127,5.505C303.254,413.294,308.135,421.216,310.662,429.621z"/>
		</g>
		<g>
			<path style="fill:#AE312F;" d="M260.196,281.267c-5.973-0.889-11.478-3.322-17.045-5.411c-13.88-5.193-28.757-8.328-43.822-9.326     c-7.08-0.468-14.113-0.094-21.131,0.218c1.263-5.006,2.776-10.402,4.523-15.938c5.489,0.25,10.979,0.655,16.437,1.248     c17.435,1.902,34.511,5.723,50.169,12.538c6.877,2.994,14.191,6.721,16.686,13.022     C267.401,281.096,263.362,281.751,260.196,281.267z"/>
		</g>
		<g>
			<path style="fill:#AE312F;" d="M303.722,230.771c-2.51,1.107-5.661,0.483-8.39-0.452c-12.367-4.164-21.739-13.209-32.438-20.195     c-13.833-9.014-29.63-14.41-46.052-18.683c1.185-1.123,2.402-2.23,3.634-3.291c1.669-1.45,3.368-2.838,5.115-4.164     c4.663-3.571,9.606-6.721,14.877-9.404c1.341,0.53,2.667,1.092,3.992,1.653c22.02,9.388,42.465,22.394,57.701,39.283     c2.105,2.355,4.18,4.866,4.866,7.751C307.714,226.17,306.638,229.492,303.722,230.771z"/>
		</g>
		<g>
			<path style="fill:#AE312F;" d="M260.539,243.013c-0.764,0.561-1.809,0.655-2.76,0.639c-6.628-0.016-12.85-2.901-18.979-5.411     c-14.878-6.129-30.504-10.289-46.411-12.659c0.858-1.84,1.762-3.794,2.698-5.571c0.811-1.559,1.653-3.088,2.526-4.585     c0.702-1.248,1.451-2.48,2.199-3.665c0.592-0.936,1.201-1.871,1.809-2.776c9.653,2.215,19.088,4.975,28.087,7.907     c11.79,3.852,23.938,9.31,30.597,19.743C261.569,238.615,262.442,241.609,260.539,243.013z"/>
		</g>
		<g>
			<path style="fill:#AE312F;" d="M326.89,196.5c-0.545,2.199-1.466,4.476-3.041,5.599c-1.809,1.294-4.008,0.811-5.832-0.14     c-7.86-4.055-11.759-14.925-16.266-24.11c-2.37-4.834-5.115-8.711-8.25-12.828c7.47,0.624,15.361,1.241,23.704,3.284     c2.745,0.671,5.673,1.622,8.511,2.465c0.031,0.016,0.135,0.052,0.166,0.068c0.406,2.168,0.555,4.127,0.867,6.294     C327.716,183.494,328.465,190.168,326.89,196.5z"/>
		</g>
		<g>
			<path style="fill:#AE312F;" d="M381.369,215.301c-6.051,7.86-14.347,13.989-23.689,17.342c-2.916,1.045-6.004,1.84-9.076,1.513     c-1.061-0.109-2.152-0.374-2.979-1.061c-2.168-1.809-1.404-5.318-0.109-7.829c3.93-7.579,10.76-13.147,16.437-19.509     c2.511-2.838,4.819-5.941,6.503-9.357C373.774,202.404,378,208.86,381.369,215.301z"/>
		</g>
		<g>
			<path style="fill:#AE312F;" d="M394.016,255.816c-2.027,0.796-4.086,1.513-6.129,2.137c-4.897,1.497-9.965,2.651-15.096,2.651     c-1.918,0-4.289-0.53-4.757-2.386c-0.436-1.793,1.232-3.337,2.745-4.398c5.427-3.836,10.964-7.516,16.593-11.025     c1.201-0.749,2.432-1.513,3.634-2.292c0.936,3.571,1.622,6.862,2.152,9.778v0.016     C393.517,252.339,393.798,254.194,394.016,255.816z"/>
		</g>
		<g>
			<path style="fill:#AE312F;" d="M350.553,374.15c-4.336,9.716-10.308,20.617-17.965,31.127c-3.041-3.868-4.928-9.45-5.661-13.24     c-1.045-5.458-0.281-11.805,3.93-15.455c3.399-2.948,8.265-3.477,12.772-3.306C345.953,373.355,348.292,373.605,350.553,374.15z"/>
		</g>
		<g>
			<g>
				<path style="fill:#FFFFFF;" d="M28.897,253.723c0,0,5.791,46.134,28.61,73.827l47.733-17.013c0,0-17.274-35.936-16.299-79.176      C88.941,231.361,50.115,240.451,28.897,253.723z"/>
			</g>
			<g>
				<path style="fill:#6CE0C0;" d="M40.408,264.003c-0.582,0-1.068-0.456-1.099-1.043c-0.031-0.608,0.435-1.126,1.042-1.158      c1.291-0.068,2.575-0.575,3.673-1.429c-0.381-0.672-0.628-1.433-0.691-2.233c-0.117-1.497,0.555-3.108,1.714-4.107      c0.939-0.811,2.068-1.114,3.175-0.858c0.467,0.109,0.81,0.507,0.85,0.984c0.177,2.18-0.556,4.451-2.023,6.295      c0.398,0.251,0.848,0.392,1.284,0.384c0.642-0.012,1.313-0.44,1.71-1.091c0.148-0.244,0.453-0.854,0.217-1.458      c-0.026-0.054-0.051-0.109-0.073-0.165c-0.229-0.549,0.019-1.18,0.56-1.426c0.545-0.247,1.182-0.016,1.443,0.515      c0.029,0.057,0.055,0.115,0.081,0.174c0.354,0.701,1.141,1.045,1.782,1.135c0.67,0.091,1.58-0.041,2.102-0.699      c0.097-0.122,0.184-0.254,0.272-0.384c0.26-0.387,0.584-0.869,1.111-1.215c1.133-0.739,2.354-0.423,3.335-0.169      c0.447,0.116,0.87,0.226,1.225,0.231c0.006,0,0.012,0,0.017,0c0.647,0,1.142-0.561,1.37-1.047      c0.23-0.488,0.348-1.236-0.076-1.735c-0.37-0.433-0.347-1.076,0.049-1.483c0.398-0.41,1.041-0.446,1.481-0.087      c0.62,0.503,1.595,0.557,2.269,0.131c0.067-0.042,0.129-0.089,0.189-0.14c-0.282-0.764-0.296-1.836,0.223-2.577      c0.373-0.531,0.954-0.813,1.597-0.751c0.471,0.04,0.864,0.375,0.976,0.835c0.209,0.849,0.118,1.751-0.212,2.556      c1.055,1.282,2.932,1.92,4.524,1.423c0.336-0.105,0.658-0.25,0.981-0.392c0.503-0.223,1.025-0.452,1.621-0.59      c1.25-0.283,2.844-0.012,3.604,1.251c0.314,0.521,0.146,1.197-0.375,1.511c-0.519,0.313-1.198,0.147-1.511-0.375      c-0.152-0.25-0.7-0.359-1.222-0.24c-0.427,0.099-0.826,0.282-1.229,0.459c-0.397,0.175-0.796,0.348-1.21,0.478      c-2.294,0.722-4.893-0.048-6.543-1.747c-0.075,0.056-0.153,0.11-0.232,0.16c-0.738,0.468-1.624,0.669-2.492,0.612      c-0.026,0.543-0.165,1.1-0.418,1.64c-0.682,1.447-2.021,2.323-3.414,2.31c-0.62-0.01-1.218-0.165-1.745-0.301      c-0.783-0.204-1.283-0.313-1.575-0.122c-0.155,0.101-0.318,0.344-0.492,0.601c-0.12,0.18-0.242,0.358-0.374,0.526      c-0.92,1.158-2.514,1.743-4.129,1.51c-0.536-0.074-1.043-0.23-1.503-0.456c-0.088,0.219-0.197,0.436-0.325,0.645      c-0.792,1.299-2.153,2.122-3.553,2.148c-0.978,0.006-2.062-0.359-2.903-1.004c-1.471,1.171-3.226,1.87-5.002,1.965      C40.448,264.003,40.427,264.003,40.408,264.003z M46.862,255.444c-0.146,0.075-0.273,0.168-0.378,0.258      c-0.625,0.538-1.017,1.469-0.955,2.265c0.017,0.226,0.062,0.448,0.129,0.665C46.331,257.648,46.746,256.546,46.862,255.444z"/>
			</g>
			<g>
				<path style="fill:#6CE0C0;" d="M46.848,278.929c-0.586,0-1.073-0.462-1.099-1.054c-0.026-0.608,0.445-1.122,1.053-1.148      c0.916-0.04,1.813-0.487,2.439-1.169c-0.769-1.001-1.372-2.101-1.925-3.106c-0.874-1.596-0.768-2.986,0.284-3.718      c1.118-0.78,2.485-0.181,3.285,0.708c1.403,1.562,1.825,3.889,1.078,5.845c1.062,0.956,2.321,1.41,3.42,1.227      c0.673-0.115,1.278-0.552,1.623-1.087c-0.19-0.808,0.044-1.596,0.654-2.126c0.304-0.265,0.728-0.34,1.106-0.201      c0.378,0.14,0.649,0.474,0.707,0.873c0.066,0.45,0.044,0.9-0.054,1.335c0.104,0.081,0.197,0.108,0.264,0.111      c0.863-0.053,1.478-1.258,1.646-1.626c0.133-0.293,0.387-0.512,0.696-0.601c0.312-0.088,0.643-0.038,0.909,0.137      c0.521,0.341,1.062,0.48,1.47,0.384c0.156-0.035,0.307-0.127,0.416-0.239c-0.421-0.154-0.817-0.378-1.17-0.67      c-0.282-0.234-0.429-0.594-0.393-0.958c0.038-0.366,0.254-0.688,0.578-0.86c0.636-0.341,1.421-0.317,2.096,0.062      c0.223,0.124,0.422,0.28,0.593,0.458c0.244-0.031,0.479-0.109,0.686-0.232c0.212-0.127,0.395-0.303,0.539-0.509      c-0.115-0.193-0.208-0.409-0.259-0.653c-0.118-0.563,0.052-1.179,0.444-1.608c0.356-0.39,0.842-0.585,1.358-0.521      c0.472,0.056,0.855,0.41,0.95,0.876c0.088,0.436,0.099,0.878,0.042,1.309c1.803,1.265,4.06,1.899,6.254,1.738      c0.908-0.067,1.534-0.286,1.862-0.653c0.04-0.044,0.074-0.099,0.102-0.158c-0.232-0.425-0.411-0.879-0.522-1.355      c-0.1-0.429,0.065-0.875,0.418-1.137c0.356-0.26,0.834-0.285,1.21-0.065c0.62,0.362,1.026,0.981,1.144,1.739      c0.015,0.095,0.025,0.19,0.03,0.287c0.743,0.929,1.948,1.52,3.125,1.427c0.625-0.059,1.139,0.399,1.188,1.006      c0.051,0.607-0.4,1.139-1.006,1.188c-1.485,0.136-2.992-0.412-4.145-1.362c-0.728,0.753-1.793,1.171-3.247,1.278      c-2.543,0.188-5.15-0.493-7.293-1.871c-0.294,0.368-0.652,0.686-1.064,0.932c-0.374,0.224-0.779,0.381-1.197,0.471      c-0.214,1.057-1.092,1.96-2.246,2.225c-0.677,0.155-1.401,0.098-2.118-0.158c-0.784,1.163-1.827,1.848-2.964,1.917      c-0.497,0.037-1.002-0.101-1.441-0.357c-0.667,0.721-1.581,1.248-2.621,1.425c-1.651,0.289-3.478-0.286-4.991-1.525      c-1.007,1.042-2.403,1.707-3.866,1.769C46.88,278.929,46.864,278.929,46.848,278.929z M48.96,270.672      c0.038,0.171,0.123,0.418,0.288,0.721c0.276,0.503,0.557,1.014,0.855,1.509c-0.076-0.732-0.37-1.447-0.857-1.989      C49.15,270.806,49.048,270.726,48.96,270.672z"/>
			</g>
			<g>
				<path style="fill:#6CE0C0;" d="M52.201,292.128c-0.238,0-0.478-0.076-0.679-0.236c-1.168-0.916-1.448-2.728-0.636-4.124      c0.586-1.01,1.675-1.773,3.064-2.145c2.193-0.583,4.604-0.043,6.446,1.271c2.62-1.059,5.531-2.072,8.584-1.85      c0.771,0.055,1.519,0.187,2.245,0.329c-0.546-0.291-1.068-0.638-1.558-1.048c-0.85-0.71-1.162-1.579-0.856-2.383      c0.33-0.872,1.294-1.316,2.431-1.143c1.978,0.31,3.686,1.795,4.339,3.673c1.055,0.171,2.135,0.241,3.165,0.275      c0.971,0.03,1.98,0.029,2.687-0.397c0.303-0.182,0.557-0.53,0.634-0.867c0.042-0.188,0.025-0.342-0.052-0.457      c-0.338-0.507-0.201-1.19,0.305-1.527c0.508-0.338,1.188-0.201,1.527,0.305c0.412,0.617,0.542,1.385,0.368,2.162      c-0.209,0.929-0.825,1.779-1.648,2.273c-1.22,0.734-2.648,0.753-3.895,0.709c-0.962-0.031-1.964-0.092-2.966-0.23      c-0.148,0.428-0.415,0.777-0.784,1.007c-0.609,0.376-1.267,0.296-1.584,0.259c-0.702-0.085-1.398-0.223-2.093-0.361      c-0.838-0.167-1.628-0.325-2.421-0.382c-2.264-0.161-4.565,0.522-6.71,1.344c0.198,0.273,0.378,0.56,0.535,0.862      c0.252,0.483,0.113,1.078-0.326,1.398c-1.891,1.383-4.652,1.267-6.419-0.27c-0.275-0.24-0.414-0.6-0.371-0.963      c0.044-0.361,0.264-0.679,0.587-0.846c0.561-0.292,1.131-0.553,1.699-0.8c-1.047-0.404-2.215-0.508-3.298-0.215      c-0.476,0.128-1.335,0.443-1.73,1.124c-0.254,0.437-0.211,1.049,0.09,1.285c0.479,0.375,0.563,1.068,0.186,1.546      C52.851,291.984,52.528,292.128,52.201,292.128z M59.984,289.446c-0.109,0.045-0.217,0.09-0.326,0.134      c0.13-0.014,0.259-0.037,0.385-0.067C60.024,289.491,60.004,289.468,59.984,289.446z"/>
			</g>
			<g>
				<path style="fill:#6CE0C0;" d="M59.605,305.977c-0.03,0-0.06,0-0.09-0.001c-1.507-0.026-2.903-0.698-3.737-1.799      c-0.367-0.485-0.271-1.177,0.214-1.543c0.486-0.366,1.176-0.27,1.543,0.214c0.428,0.566,1.182,0.912,2.017,0.927      c0.862-0.044,1.6-0.308,2.048-0.856c0.171-0.211,0.299-0.46,0.382-0.734c-0.062-0.039-0.125-0.077-0.188-0.117      c-0.99-0.627-2.029-1.822-2.12-3.08c-0.053-0.728,0.222-1.391,0.772-1.864c0.327-0.285,0.794-0.346,1.186-0.161      c1.25,0.588,2.196,1.816,2.532,3.285c0.052,0.227,0.088,0.454,0.109,0.681c1.244,0.59,2.715,0.984,4.069,0.587      c0.838-0.244,1.622-0.992,1.951-1.859c0.165-0.432,0.283-1.069-0.081-1.646c-0.267-0.424-0.214-0.974,0.128-1.34      c0.342-0.366,0.885-0.455,1.328-0.216c2.036,1.1,4.497,1.43,6.755,0.911c0.871-0.201,1.754-0.779,2.054-1.342      c0.145-0.272,0.108-0.455,0.058-0.584c-0.136-0.355-0.079-0.754,0.152-1.057c0.229-0.301,0.586-0.468,0.977-0.432      c1.777,0.157,3.554,0.037,5.29-0.364c0.341-0.079,0.632-0.171,0.87-0.274c-0.722-0.638-1.001-1.326-0.83-2.048      c0.06-0.257,0.211-0.483,0.425-0.638c0.694-0.504,1.613-0.468,2.337,0.094c0.588,0.456,1.043,1.267,1,2.118l4.075,3.245      c0.475,0.379,0.554,1.071,0.175,1.548c-0.378,0.474-1.07,0.555-1.548,0.175l-3.805-3.029c-0.799,0.63-1.785,0.859-2.203,0.956      c-1.55,0.358-3.12,0.522-4.722,0.483c-0.057,0.285-0.159,0.567-0.307,0.843c-0.737,1.383-2.348,2.186-3.503,2.453      c-2.059,0.476-4.261,0.374-6.282-0.268c-0.038,0.394-0.132,0.794-0.284,1.193c-0.58,1.528-1.88,2.751-3.393,3.192      c-1.51,0.442-3.208,0.286-5-0.436c-0.161,0.403-0.379,0.78-0.649,1.112C62.458,305.356,61.078,305.977,59.605,305.977z"/>
			</g>
		</g>
		<g>
			<g>
				<path style="fill:#FFFFFF;" d="M170.781,138.574c0,0,30.831,19.877,47.188,64.398l44.065-27.19c0,0-17.617-50.294-39.789-67.998      L170.781,138.574z"/>
			</g>
			<g>
				<path style="fill:#6CE0C0;" d="M188.706,143.018c-0.114,0-0.228-0.005-0.342-0.015c-0.607-0.049-1.056-0.582-1.006-1.189      c0.049-0.607,0.573-1.061,1.189-1.006c0.606,0.046,1.247-0.184,1.768-0.64c0.15-0.131,0.282-0.274,0.396-0.427      c-0.11-0.074-0.216-0.152-0.319-0.23c-1.66-1.261-2.641-2.947-2.693-4.629c-0.009-0.301,0.105-0.592,0.316-0.807      c0.211-0.214,0.51-0.322,0.8-0.329c1.198,0.016,2.391,0.564,3.272,1.501c0.881,0.938,1.352,2.163,1.294,3.36      c-0.001,0.015-0.002,0.03-0.002,0.045c1.123,0.4,2.379,0.465,3.429-0.129c0.708-0.399,1.237-1.278,1.318-2.187      c0.032-0.368,0.013-1.02-0.426-1.501c-0.082-0.071-0.161-0.146-0.239-0.224c-0.413-0.416-0.427-1.084-0.032-1.518      c0.398-0.433,1.064-0.481,1.514-0.108c0.094,0.076,0.182,0.157,0.267,0.242c0.707,0.578,1.745,0.783,2.605,0.49      c0.942-0.316,1.693-1.226,1.825-2.212c0.045-0.332,0.239-0.627,0.526-0.799c0.289-0.17,0.637-0.201,0.953-0.086      c1.47,0.557,3.174-0.257,4.28-1.197l0.211-0.183c0.408-0.356,0.87-0.76,1.488-1.01c0.68-0.274,1.355-0.283,1.952-0.29      c0.186-0.002,0.373-0.004,0.558-0.017c0.386-0.026,0.77-0.111,1.138-0.244c-0.253-0.422-0.199-0.976,0.162-1.34      c0.85-0.859,2.029-1.392,3.234-1.461c0.397-0.018,0.764,0.163,0.981,0.489c0.216,0.325,0.244,0.741,0.072,1.093      c-1.008,2.068-3.143,3.505-5.439,3.661c-0.224,0.015-0.452,0.018-0.679,0.022c-0.442,0.005-0.858,0.011-1.155,0.13      c-0.272,0.111-0.558,0.36-0.862,0.626l-0.234,0.203c-1.326,1.127-3.316,2.096-5.317,1.862c-0.538,1.311-1.641,2.388-2.991,2.843      c-0.701,0.237-1.45,0.301-2.18,0.202c0.003,0.171-0.003,0.344-0.018,0.521c-0.145,1.649-1.077,3.148-2.43,3.912      c-1.641,0.927-3.538,0.867-5.194,0.295c-0.25,0.398-0.561,0.767-0.928,1.087C190.892,142.594,189.793,143.018,188.706,143.018z"/>
			</g>
			<g>
				<path style="fill:#6CE0C0;" d="M205.349,155.42c-0.4,0-0.786-0.218-0.981-0.599l-2.462-4.797      c-2.44-0.958-4.515-2.701-5.378-5.262c-0.393-1.156,0.071-1.798,0.383-2.078c0.261-0.236,0.729-0.499,1.488-0.397      c2.158,0.283,3.284,2.475,3.825,3.528l1.232,2.402c1.33,0.413,2.755,0.566,4.061,0.451c1.049-0.088,2.169-0.48,2.309-1.155      c0.074-0.359-0.101-0.829-0.304-1.374c-0.246-0.658-0.525-1.403-0.459-2.253c0.024-0.309,0.176-0.593,0.419-0.783      c0.243-0.188,0.555-0.268,0.86-0.218c0.004,0.001,0.008,0.001,0.011,0.002c-0.118-0.059-0.237-0.12-0.353-0.185      c-0.354-0.194-0.573-0.567-0.571-0.97s0.224-0.773,0.58-0.965c2.062-1.106,3.853-0.953,4.674,0.409      c0.102,0.167,0.18,0.344,0.233,0.529c1.694-0.023,3.384-0.565,4.721-1.597c0.281-0.216,0.649-0.283,0.987-0.184      c0.339,0.101,0.609,0.359,0.726,0.693c0.468,1.341,1.239,2.393,2.169,2.964c0.992,0.608,2.252,0.647,3.066,0.1      c0.397-0.268,0.701-0.755,0.793-1.271c0.043-0.247,0.075-0.721-0.206-1.11c-0.357-0.493-0.247-1.181,0.246-1.537      c0.492-0.359,1.181-0.246,1.537,0.246c0.563,0.775,0.772,1.765,0.592,2.786c-0.198,1.115-0.828,2.105-1.728,2.713      c-1.533,1.033-3.723,1.011-5.451-0.048c-1.213-0.744-2.02-1.821-2.549-2.841c-1.611,0.897-3.474,1.326-5.332,1.276      c-0.317,0.449-0.758,0.815-1.255,1.028c-0.564,0.241-1.171,0.328-1.699,0.308c0.017,0.045,0.034,0.091,0.052,0.138      c0.282,0.755,0.602,1.61,0.399,2.593c-0.337,1.62-1.937,2.705-4.282,2.902c-0.954,0.082-1.947,0.051-2.935-0.09l1.562,3.045      c0.277,0.541,0.065,1.205-0.478,1.482C205.69,155.381,205.517,155.42,205.349,155.42z M199.081,145.022      c0.212,0.359,0.461,0.692,0.741,0.997C199.595,145.643,199.349,145.293,199.081,145.022z"/>
			</g>
			<g>
				<path style="fill:#6CE0C0;" d="M211.015,167.676c-1.564,0-3.019-0.578-4.07-1.144c-0.536-0.288-0.736-0.956-0.446-1.492      c0.288-0.536,0.957-0.738,1.492-0.446c1.043,0.56,2.582,1.147,4.014,0.75c1.048-0.293,2.069-1.377,1.861-2.463      c-0.085-0.433-0.343-0.816-0.61-1.111c-1.512-0.116-2.881-0.788-3.788-1.869c-0.286-0.34-0.339-0.82-0.134-1.214      c0.205-0.394,0.626-0.633,1.07-0.59c1.349,0.113,2.648,0.631,3.707,1.47c0.788-0.08,1.496-0.401,1.991-0.917      c0.162-0.17,0.31-0.355,0.457-0.54c0.275-0.346,0.556-0.687,0.887-0.978c0.716-0.625,1.553-0.946,2.291-1.229l2.169-0.831      c0.488-0.187,1.789-0.685,2.804,0.139c1.085,0.883,0.729,2.201,0.517,2.989c-0.076,0.282-0.155,0.573-0.168,0.782      c-0.037,0.637,0.772,1.264,1.576,1.504c1.053,0.315,2.381,0.071,3.303-0.604c0.445-0.327,0.979-0.892,0.991-1.721      c0.002-0.158-0.011-0.318-0.023-0.478c-0.031-0.433-0.071-0.973,0.097-1.535c0.538-1.788,2.631-2.38,4.326-2.032      c0.513,0.105,1.015,0.275,1.514,0.446c0.635,0.218,1.234,0.424,1.797,0.439c1.091,0.079,2.11-0.803,2.211-1.748      c0.047-0.442-0.161-0.94-0.545-1.299c-0.327-0.308-0.72-0.442-1.064-0.387c-0.6,0.112-1.17-0.294-1.276-0.893      c-0.106-0.599,0.294-1.17,0.893-1.276c1.037-0.187,2.112,0.162,2.951,0.947c0.893,0.836,1.353,2.011,1.23,3.145      c-0.224,2.075-2.257,3.781-4.463,3.714c-0.899-0.025-1.689-0.296-2.451-0.558c-0.411-0.141-0.822-0.285-1.244-0.372      c-0.723-0.152-1.632,0.036-1.77,0.508c-0.052,0.171-0.031,0.447-0.01,0.74c0.016,0.224,0.031,0.449,0.028,0.671      c-0.02,1.353-0.692,2.584-1.89,3.463c-1.474,1.082-3.527,1.451-5.235,0.94c-1.592-0.473-3.256-1.847-3.146-3.741      c0.025-0.436,0.139-0.857,0.239-1.229c0.056-0.205,0.142-0.524,0.158-0.708c-0.061,0.048-0.242,0.087-0.563,0.211l-2.17,0.831      c-0.594,0.228-1.209,0.465-1.629,0.83c-0.232,0.204-0.422,0.451-0.616,0.695c-0.189,0.237-0.379,0.472-0.588,0.691      c-0.551,0.573-1.239,1.008-2.006,1.281c0.16,0.328,0.275,0.666,0.342,1.008c0.457,2.372-1.425,4.443-3.431,5.002      C212.064,167.612,211.533,167.676,211.015,167.676z"/>
			</g>
			<g>
				<path style="fill:#6CE0C0;" d="M229.235,183.972c-0.308,0-0.627-0.024-0.958-0.072c-4.512-0.657-7.298-4.696-9.636-8.963      c-0.293-0.533-0.097-1.202,0.437-1.495c0.535-0.294,1.205-0.097,1.495,0.437c2.064,3.767,4.465,7.324,8.022,7.842      c0.679,0.096,1.245,0.048,1.68-0.146c0.767-0.347,1.327-1.295,1.428-2.416c0.038-0.414,0.02-0.837-0.031-1.264      c-0.035-0.051-0.069-0.102-0.101-0.155c-0.561-0.906-0.708-1.92-0.411-2.855c0.147-0.467,0.565-0.783,1.074-0.768      c0.489,0.011,0.912,0.343,1.039,0.815c0.172,0.641,0.355,1.322,0.483,2.032c0.262,0.247,0.585,0.417,0.911,0.468      c0.968,0.145,2.108-0.45,2.777-1.457c0.606-0.909,0.928-2.146,0.987-3.782c0.015-0.415,0.261-0.786,0.639-0.96      c0.376-0.173,0.821-0.122,1.145,0.138c1.184,0.939,2.867,1.204,4.279,0.679c1.417-0.526,2.515-1.824,2.799-3.307      c0.105-0.586,0.212-1.18,0.659-1.676c0.405-0.455,1.105-0.489,1.555-0.082c0.453,0.408,0.488,1.104,0.082,1.555      c-0.031,0.054-0.072,0.285-0.1,0.438c-0.458,2.403-2.105,4.349-4.228,5.137c-1.535,0.571-3.28,0.518-4.799-0.087      c-0.21,1.248-0.601,2.293-1.184,3.168c-1.147,1.725-3.122,2.704-4.948,2.415c-0.152-0.024-0.301-0.057-0.45-0.099      c-0.213,1.859-1.238,3.41-2.7,4.071C230.604,183.841,229.952,183.972,229.235,183.972z"/>
			</g>
		</g>
		<g>
			<g>
				<path style="fill:#FFFFFF;" d="M152.107,379.828c0,0-47.319-17.995-101.693-23.149c0,0-16.703,51.709-16.348,81.561      c0,0,62.508,15.288,105.467,16.522C139.532,454.763,153.457,413.329,152.107,379.828z"/>
			</g>
			<g>
				<path style="fill:#6CE0C0;" d="M47.406,435.035c-0.423,0-0.826-0.244-1.008-0.655c-0.246-0.556,0.004-1.207,0.56-1.453      l5.236-2.32c1.361-0.603,2.838-1.347,3.16-2.538c0.329-1.214-0.715-2.607-1.918-3.357c-0.077-0.048-0.159-0.096-0.242-0.139      c-0.967,0.241-1.956,0.199-2.701,0.166c-0.436-0.018-0.819-0.293-0.978-0.698s-0.065-0.867,0.242-1.177      c0.923-0.935,2.252-1.014,3.477-0.645c0.063-0.035,0.125-0.075,0.183-0.118c0.247-0.183,0.418-0.59,0.39-0.928      c-0.012-0.14-0.052-0.227-0.117-0.26c-0.446-0.225-0.685-0.721-0.583-1.21c0.102-0.488,0.519-0.846,1.017-0.874      c1.062-0.057,2.146-0.189,2.885-0.758c0.574-0.443,0.827-1.291,0.51-1.712c-0.222-0.295-0.72-0.485-1.247-0.687      c-0.759-0.29-1.619-0.62-2.221-1.424c-0.451-0.6-0.608-1.291-0.694-1.825c-0.589-3.652,0.921-7.009,2.381-10.257      c0.464-1.033,0.928-2.063,1.319-3.098c0.243-0.645,0.735-2.216,0.044-2.852c-0.119-0.11-0.257-0.193-0.393-0.281      c-0.24-0.155-0.476-0.314-0.686-0.507c-1.42-1.304-1.236-3.508-0.318-5.013c0.487-0.798,1.111-1.429,1.714-2.039      c0.334-0.338,0.67-0.674,0.971-1.04c1.915-2.323,2.115-5.975,0.466-8.495c-0.333-0.51-0.19-1.192,0.318-1.525      c0.509-0.332,1.192-0.189,1.525,0.318c2.19,3.347,1.933,8.016-0.61,11.102c-0.343,0.417-0.724,0.803-1.105,1.188      c-0.539,0.544-1.048,1.058-1.4,1.637c-0.433,0.712-0.585,1.774-0.072,2.245c0.119,0.109,0.257,0.191,0.393,0.279      c0.242,0.157,0.48,0.317,0.691,0.512c0.846,0.78,1.625,2.324,0.523,5.248c-0.407,1.078-0.887,2.15-1.371,3.225      c-1.387,3.087-2.699,6.003-2.215,9.002c0.046,0.285,0.119,0.639,0.281,0.854c0.222,0.297,0.72,0.487,1.248,0.689      c0.756,0.289,1.614,0.618,2.218,1.419c1.161,1.54,0.458,3.716-0.925,4.782c-0.714,0.55-1.538,0.846-2.369,1.013      c0.008,0.052,0.013,0.104,0.017,0.158c0.071,0.828-0.205,1.694-0.716,2.341c1.576,1.253,2.757,3.241,2.194,5.318      c-0.623,2.305-3.076,3.392-4.394,3.976l-5.236,2.32C47.706,435.005,47.555,435.035,47.406,435.035z"/>
			</g>
			<g>
				<path style="fill:#6CE0C0;" d="M68.724,434.045c-0.331,0-0.664-0.031-0.994-0.096c-0.597-0.115-0.987-0.694-0.871-1.291      c0.117-0.597,0.7-0.984,1.291-0.871c1.662,0.329,3.577-0.879,4.002-2.526c0.425-1.647-0.66-3.625-2.278-4.15      c-0.571-0.185-0.888-0.794-0.714-1.367c0.174-0.575,0.774-0.908,1.354-0.74c1.054,0.297,2.194,0.241,3.216-0.158      c1.051-0.412,2.107-1.434,1.994-2.517c-0.04-0.373-0.387-0.764-0.828-0.944c-0.472,0.171-0.94,0.286-1.36,0.39      c-0.465,0.114-0.955-0.086-1.206-0.497c-0.25-0.411-0.204-0.937,0.114-1.299c0.557-0.635,1.348-0.935,2.209-0.888      c0.127-0.068,0.245-0.143,0.353-0.228c0.15-0.119,0.274-0.271,0.36-0.428c-0.575-0.029-1.136-0.203-1.615-0.529      c-0.244-0.167-0.411-0.424-0.464-0.713c-0.054-0.29,0.013-0.59,0.182-0.831c0.442-0.626,1.191-0.941,2.011-0.852      c0.372,0.042,0.724,0.165,1.034,0.348c0.026-0.023,0.052-0.046,0.076-0.071c0.483-0.484,0.732-1.285,0.685-2.2      c-0.139-2.715-2.479-4.853-4.741-6.92c-0.465-0.425-0.925-0.845-1.365-1.268c-0.966-0.929-2.026-2.081-2.556-3.584      c-0.618-1.755-0.287-3.644,0.845-4.813c1.723-1.776,4.168-1.312,6.322-0.906c1.759,0.333,3.424,0.649,4.357-0.243      c0.334-0.319,0.499-0.843,0.439-1.401c-0.06-0.558-0.332-1.036-0.728-1.276c-0.396-0.242-0.599-0.707-0.506-1.162      c0.092-0.455,0.461-0.802,0.921-0.869c1.483-0.215,3.016-0.438,4.326-1.052c1.31-0.615,2.254-1.625,2.525-2.7      c0.204-0.808,0.103-1.765-0.003-2.78c-0.143-1.354-0.301-2.852,0.337-4.159c-0.071-0.026-0.147-0.046-0.226-0.06      c-0.324-0.054-0.64,0.01-0.848,0.174c-0.48,0.376-1.17,0.296-1.548-0.177c-0.379-0.476-0.299-1.169,0.177-1.548      c0.704-0.558,1.65-0.783,2.597-0.618c0.945,0.165,1.759,0.698,2.231,1.462c0.258,0.417,0.209,0.956-0.122,1.32      c-0.685,0.754-0.557,1.969-0.41,3.377c0.123,1.162,0.25,2.363-0.051,3.55c-0.439,1.733-1.796,3.247-3.726,4.154      c-0.988,0.464-2.04,0.739-3.069,0.936c0.159,0.372,0.265,0.774,0.31,1.193c0.133,1.234-0.281,2.442-1.108,3.231      c-1.752,1.673-4.162,1.215-6.288,0.814c-2.136-0.405-3.493-0.588-4.331,0.274c-0.631,0.652-0.63,1.749-0.348,2.547      c0.375,1.068,1.224,1.978,2.005,2.729c0.426,0.41,0.873,0.817,1.323,1.229c2.471,2.258,5.27,4.815,5.456,8.434      c0.079,1.535-0.404,2.944-1.325,3.867c-0.145,0.146-0.3,0.279-0.464,0.396c0.075,0.813-0.214,1.67-0.799,2.357      c0.57,0.542,0.948,1.252,1.026,2.008c0.239,2.291-1.585,4.093-3.382,4.795c-0.358,0.141-0.727,0.252-1.101,0.333      c0.892,1.324,1.259,3.003,0.852,4.582C73.647,432.278,71.23,434.045,68.724,434.045z"/>
			</g>
			<g>
				<path style="fill:#6CE0C0;" d="M94.301,433.291c-0.336,0-0.667-0.153-0.883-0.441c-0.365-0.487-0.265-1.178,0.222-1.542      c2.065-1.546,3.14-2.95,3.383-4.421c0.142-0.864-0.195-1.888-0.838-2.547c-0.099-0.102-0.218-0.208-0.356-0.301      c-0.532-0.052-1.058-0.157-1.568-0.319c-0.489-0.156-0.807-0.631-0.763-1.143c0.043-0.513,0.437-0.927,0.945-0.997      c0.701-0.095,1.384,0.006,2.018,0.295c1.247,0.029,2.458-0.335,3.449-1.049c0.368-0.266,1.002-0.81,1.124-1.482      c0.123-0.674-0.342-1.498-1.081-1.917c-0.617-0.352-1.349-0.454-2.001-0.429c-0.345,0.06-0.695,0.094-1.047,0.098      c-0.647,0-1.062-0.432-1.11-1.007c-0.049-0.575,0.353-1.091,0.923-1.182c0.342-0.055,0.677-0.089,1.003-0.104      c1.281-0.259,2.46-1.057,3.145-2.169c0.489-0.797,0.631-1.637,0.381-2.247c-0.116-0.283-0.392-0.538-0.701-0.652      c-0.059-0.022-0.146-0.046-0.243-0.055c-0.187,0.058-0.374,0.108-0.558,0.15c-0.539,0.119-1.088-0.172-1.28-0.693      s0.033-1.101,0.525-1.357c0.285-0.148,0.59-0.243,0.907-0.283c1.187-0.413,2.445-1.243,2.767-2.507      c0.158-0.62-0.091-1.413-0.608-1.932c-0.016-0.017-0.034-0.034-0.054-0.053c-0.622-0.083-1.191-0.223-1.674-0.373      c-0.471-0.146-0.787-0.588-0.774-1.082c0.014-0.494,0.354-0.917,0.832-1.038c0.823-0.208,1.67-0.075,2.418,0.359      c0.679,0.04,1.408-0.031,2.104-0.305c1.165-0.459,2.011-1.518,2.06-2.572c0.024-0.52-0.205-1.097-0.598-1.507      c-0.188-0.197-0.581-0.525-1.102-0.525c-0.002-0.001-0.006-0.001-0.008,0c-0.606,0-1.098-0.489-1.101-1.095      c-0.003-0.608,0.485-1.104,1.093-1.108c1.281-0.01,2.605-0.02,3.72-0.47c0.87-0.351,1.774-1.138,1.833-2.109      c0.062-1.038-0.882-1.991-1.847-2.396c-1.222-0.513-2.673-0.493-4.07-0.472c-0.567-0.063-1.108-0.479-1.116-1.086      s0.478-1.108,1.086-1.116c1.547-0.025,3.307-0.047,4.953,0.644c1.991,0.836,3.303,2.711,3.192,4.559      c-0.102,1.698-1.362,3.276-3.207,4.02c-0.415,0.167-0.837,0.289-1.262,0.379c0.442,0.724,0.672,1.568,0.635,2.383      c-0.088,1.922-1.475,3.739-3.451,4.52c-0.379,0.15-0.76,0.258-1.139,0.333c0.345,0.83,0.435,1.748,0.219,2.587      c-0.331,1.298-1.158,2.294-2.164,3.014c0.276,0.294,0.5,0.633,0.651,1.001c0.525,1.277,0.328,2.821-0.541,4.237      c-0.422,0.684-0.969,1.286-1.603,1.784c1.5,0.902,2.345,2.6,2.061,4.167c-0.196,1.077-0.888,2.07-2.004,2.875      c-0.797,0.574-1.707,0.986-2.662,1.224c0.593,1.036,0.845,2.277,0.658,3.41c-0.449,2.716-2.632,4.626-4.234,5.826      C94.762,433.22,94.53,433.291,94.301,433.291z"/>
			</g>
			<g>
				<path style="fill:#6CE0C0;" d="M120.744,435.404c0.962,1.576,2.941,2.917,4.855,2.417c1.162-0.304,2.051-1.284,2.547-2.38      c0.807-1.793-0.08-3.045,2.582-2.287c2.226,0.634,6.727,0.176,7.343-2.686c0.128-0.595-0.046-1.222-0.352-1.748      c-1.365-2.351-4.216-3.496-6.611-4.451c-2.663-1.063-6.138-2.188-8.769-0.423c-2.021,1.356-2.694,4.03-2.727,6.464      c-0.024,1.688,0.197,3.427,1.02,4.902C120.668,435.277,120.705,435.341,120.744,435.404z"/>
			</g>
			<g>
				<path style="fill:#6CE0C0;" d="M118.525,421.401c0.865,0.571,1.751,1.152,2.756,1.406c0.521,0.132,1.159,0.136,1.501-0.279      c1.423-1.721,0.101-5.195-2.084-5.496C118.322,416.706,116.206,419.869,118.525,421.401z"/>
			</g>
			<g>
				<path style="fill:#6CE0C0;" d="M127.928,417.946c-1.098-0.04-2.71,0.542-2.275,1.945c0.116,0.373,0.356,0.695,0.616,0.986      c0.53,0.595,1.358,1.301,2.219,1.005c0.463-0.159,0.774-0.585,1.046-0.993c0.208-0.312,0.413-0.634,0.515-0.994      c0.102-0.361,0.089-0.771-0.12-1.083C129.568,418.274,128.754,417.976,127.928,417.946z"/>
			</g>
			<g>
				<path style="fill:#6CE0C0;" d="M114.949,425.551c-0.418,1.016-0.431,2.73,1.036,2.808c0.39,0.021,0.775-0.094,1.139-0.236      c0.742-0.291,1.69-0.824,1.712-1.734c0.011-0.49-0.281-0.929-0.569-1.325c-0.221-0.303-0.452-0.607-0.754-0.828      c-0.303-0.221-0.693-0.351-1.058-0.263C115.825,424.126,115.264,424.786,114.949,425.551z"/>
			</g>
		</g>
		<g>
			<path style="fill:#AE312F;" d="M252.867,460.608c-0.671,0.359-1.326,0.702-1.98,1.061c-4.585,2.448-10.409,5.811-14.245,8.103     c-12.989-26.926-29.385-34.76-32.395-35.447c0.265-0.14,2.381-1.304,2.647-1.445c2.604-1.357,5.115-2.589,7.532-3.696     c1.435-0.639,2.823-1.247,4.164-1.809C239.86,431.431,248.422,451.657,252.867,460.608z"/>
		</g>
		<g>
			<path style="fill:#FF5555;" d="M253.896,460.063c-0.343,0.187-0.686,0.374-1.029,0.546c-5.1,2.683-9.715,5.287-13.911,7.782     c-13.505-28.133-27.697-34.247-32.063-35.51c2.604-1.357,5.115-2.589,7.532-3.696c1.903-0.858,3.728-1.638,5.474-2.355     C240.718,431.321,249.342,450.893,253.896,460.063z"/>
		</g>
		<g>
			<path style="fill:#AE312F;" d="M247.254,447.054c-1.464,2.731-4.639,4.525-7.624,4.984c-4.183,0.643-9.23-0.526-12.809-2.757     c-4.934-3.076-7.231-5.943-7.95-9.567c-0.48-2.416,0.73-3.877,1.018-5.467c3.231-8.101,11.05-8.521,18.769-4.697     C246.392,433.355,251.764,438.635,247.254,447.054z"/>
		</g>
		<g>
			<path style="fill:#AE312F;" d="M248.36,442.768c-0.109,0.249-0.249,0.499-0.405,0.717c-2.401,3.571-9.341,4.039-16.125,0.951     c-6.768-3.072-10.963-8.609-9.872-12.757c0.063-0.281,0.156-0.546,0.28-0.795c1.918-4.211,9.31-4.959,16.515-1.669     C245.974,432.491,250.262,438.557,248.36,442.768z"/>
		</g>
		<g>
			<path style="fill:#FFFFFF;" d="M247.954,443.485c-2.401,3.571-9.341,4.039-16.125,0.951c-6.768-3.072-10.963-8.609-9.872-12.757     c2.402-3.571,9.341-4.039,16.11-0.951C244.851,433.801,249.046,439.337,247.954,443.485z"/>
		</g>
		<g>
			<path style="fill:#AE312F;" d="M226.374,431.197c1.832,0.705,3.479,1.669,5.092,2.686c1.579,1.071,3.127,2.151,4.554,3.518     l-1.702,1.225c-1.056-2.614-1.981-5.287-2.428-8.17c1.826,2.276,3.174,4.762,4.39,7.306l2.112,4.418l-3.814-3.193     C231.77,436.638,228.797,434.246,226.374,431.197z"/>
		</g>
		<g>
			<g>
				<path style="fill:#FF9C3D;" d="M66.66,446.632c-0.807,4.663-0.454,9.912,1.113,14.367c3.711,10.553,16.076,15.602,26.495,15.759      c7.061,0.106,14.031-2.862,18.95-7.91c3.423-3.513,6.554-8.294,6.788-13.338c0.252-5.448-3.604-9.17-7.958-11.837      c-10.499-6.43-23.653-7.436-35.113-3.063C75.018,441.341,67.065,444.293,66.66,446.632z"/>
			</g>
			<g>
				<path style="fill:#AE312F;" d="M81.382,457.228c1.969-1.169,3.855-2.355,5.678-3.591c1.801-1.264,3.567-2.547,5.122-4.037      c1.574-1.466,2.944-3.098,4.113-4.891c1.107-1.838,1.844-3.857,2.436-6.093c0.332,2.261,0.03,4.686-0.908,6.881      c-0.969,2.175-2.445,4.087-4.14,5.714c-1.732,1.594-3.689,2.89-5.762,3.907C85.849,456.125,83.665,456.915,81.382,457.228z"/>
			</g>
			<g>
				<path style="fill:#AE312F;" d="M96,464.767l5.899-3.748c1.905-1.284,3.809-2.548,5.547-3.996      c1.756-1.417,3.434-2.923,4.897-4.624c1.439-1.723,2.664-3.6,3.656-5.775c-0.089,2.382-0.976,4.741-2.273,6.797      c-1.302,2.072-3.057,3.783-4.903,5.32c-1.88,1.506-3.935,2.752-6.084,3.77C100.589,463.524,98.349,464.356,96,464.767z"/>
			</g>
		</g>
	</g>
</g>















</svg>
