<?xml version="1.0" encoding="UTF-8"?>
<!-- Generator: Adobe Illustrator 25.2.3, SVG Export Plug-In . SVG Version: 6.00 Build 0)  -->
<svg xmlns="http://www.w3.org/2000/svg" xmlns:xlink="http://www.w3.org/1999/xlink" version="1.1" id="Capa_1" x="0px" y="0px" viewBox="0 0 512 512" style="enable-background:new 0 0 512 512;" xml:space="preserve" width="512" height="512">
<g>
	<g>
		<path style="fill:#9BEFE6;" d="M348.935,95.984c-42.021-23.265-92.261-30.655-140.079-25.729    c-38.704,3.987-77.955,17.44-106.261,45.047c-62.528,60.983-67.618,168.345-4.524,230.072    c39.658,38.798,93.302,61.574,147.945,68.566c52.391,6.703,117.464,3.242,158.24-35.934    c29.737-28.569,39.564-72.165,41.383-113.362c2.415-54.687-22.271-108.218-62.719-144.543    C372.443,110.691,361.029,102.68,348.935,95.984z"/>
	</g>
	<g>
		<g>
			<g>
				<path style="fill:#FF9C3D;" d="M456.336,337.837c-1.974,0.683-3.74,1.306-5.358,2.063c-5.966,2.746-9.825,7.213-14.411,22.826      c-1.736,5.877-3.443,12.541-5.788,19.146c-2.048,5.758-4.571,11.487-8.014,16.593v0.015      c-6.902,10.211-17.424,17.973-34.997,18.76h-0.015c-7.48,0.341-13.862-1.365-19.294-4.289      c-21.03-11.354-27.606-41.066-27.606-41.066l9.974-15.955l0.89-1.796c0,0,6.085,48.487,36.139,48.517      c0.802,0,1.633-0.03,2.479-0.104c4.571-0.386,8.385-2.137,11.636-4.853c7.139-6.011,11.606-16.756,15.391-28.244      c2.82-8.548,5.284-17.513,8.222-25.245v-0.015c2.538-6.708,5.447-12.482,9.246-16.251c2.182-2.182,4.645-3.681,7.525-4.334      c11.844-2.672,17.661,0.282,19.413,4.393C463.624,332.316,461.1,336.204,456.336,337.837z"/>
			</g>
			<g style="opacity:0.2;">
				<path style="fill:#AE312F;" d="M456.336,337.837c-1.974,0.683-3.74,1.306-5.358,2.063c-5.966,2.746-9.825,7.213-14.411,22.826      c-1.736,5.877-3.443,12.541-5.788,19.146c-2.048,5.758-4.571,11.487-8.014,16.593v0.015      c-6.902,10.211-17.424,17.973-34.997,18.76h-0.015c-7.48,0.341-13.862-1.365-19.294-4.289      c-21.03-11.354-27.606-41.066-27.606-41.066l9.974-15.955l0.89-1.796c0,0,6.085,48.487,36.139,48.517      c0.802,0,1.633-0.03,2.479-0.104c4.571-0.386,8.385-2.137,11.636-4.853c7.139-6.011,11.606-16.756,15.391-28.244      c2.82-8.548,5.284-17.513,8.222-25.245v-0.015c2.538-6.708,5.447-12.482,9.246-16.251c2.182-2.182,4.645-3.681,7.525-4.334      c11.844-2.672,17.661,0.282,19.413,4.393C463.624,332.316,461.1,336.204,456.336,337.837z"/>
			</g>
		</g>
		<g>
			<path style="fill:#AE312F;" d="M456.336,337.837c-1.974,0.683-3.74,1.306-5.358,2.063c0.178-3.978,4.453-8.208,4.453-8.208     c-10.167,1.455-16.89-1.321-20.6-3.755c2.182-2.182,4.645-3.681,7.525-4.334c11.844-2.672,17.661,0.282,19.413,4.393     C463.624,332.316,461.1,336.204,456.336,337.837z"/>
		</g>
		<g>
			<path style="fill:#AE312F;" d="M429.176,360.47c-2.137,5.937-7.792,8.148-11.814,8.979c2.82-8.548,5.284-17.513,8.222-25.245     C428.167,347.885,431.432,354.207,429.176,360.47z"/>
		</g>
		<g>
			<path style="fill:#AE312F;" d="M430.779,381.872c-2.048,5.758-4.571,11.487-8.014,16.593c-1.529-4.022-2.716-8.92-1.322-12.497     C423.047,381.842,427.38,381.456,430.779,381.872z"/>
		</g>
		<g>
			<path style="fill:#AE312F;" d="M396.243,409.536c-4.304,0.297-6.901-3.369-8.385-6.886c0.802,0,1.633-0.03,2.479-0.104     c4.571-0.386,8.385-2.137,11.636-4.853C402.328,401.759,402.15,409.136,396.243,409.536z"/>
		</g>
		<g>
			<path style="fill:#AE312F;" d="M387.768,417.239h-0.015c-7.48,0.341-13.862-1.365-19.294-4.289     C378.136,407.191,384.563,412.816,387.768,417.239z"/>
		</g>
	</g>
	<g>
		<path style="fill:#FF9C3D;" d="M435.172,282.716c-0.564-3.072-1.528-5.016-3.948-7.347c-1.024-5.684-8.801-6.115-13.194-4.838    c-5.818,0.267-12.689,1.84-12.689,1.84c-13.046,2.909-33.928,13.58-33.928,13.58c-1.736-9.825-4.898-17.646-8.474-23.776    c-2.79-4.779-5.817-8.534-8.623-11.428c-5.021-5.179-9.308-7.563-10.211-8.035c-0.028-0.08-0.053-0.153-0.079-0.23    c6.435-5.513,11.317-11.815,14.764-18.759c2.965-5.962,4.904-12.372,5.898-19.151c0.288-1.939,0.497-3.894,0.641-5.898    c0.064-0.962,0.112-1.923,0.144-2.885v-0.112c0.193-5.801-0.208-11.827-1.154-17.997c-0.08-0.465-0.145-0.914-0.225-1.379    c-0.128-0.785-0.272-1.587-0.416-2.388c-0.097-0.481-0.193-0.962-0.305-1.442c-1.102-5.098-3.048-9.883-5.803-14.363    c0.003,0,0.015,0.004,0.017,0.004c-0.352-0.673-12.164-22.228-15.721-32.533c-3.622-10.449-5.77-23.895-11.94-24.327h-0.016    c-5.593-0.385-18.366,11.459-21.203,25.113c-0.001,0.005-0.002,0.01-0.003,0.015c-2.956-0.875-6.008-1.704-9.196-2.467    c-0.481-0.112-0.977-0.241-1.474-0.336c-4.647-1.09-9.52-2.052-14.648-2.885h-0.016c-2.099-0.337-4.247-0.657-6.426-0.962    c-9.408-1.298-19.568-2.212-30.465-2.725c-0.353-0.016-0.706-0.032-1.042-0.048c-1.218-0.048-2.42-0.096-3.59-0.112    c-3.205-0.08-6.282-0.064-9.263,0.016l-0.4-0.4c-1.683-1.747-3.83-4.311-4.087-4.599c-3.317-3.895-5.289-9.007-8.189-13.19    c-4.215-6.089-10.786-10.561-18.671-9.119c-0.497,0.096-0.945,0.288-1.378,0.609c-1.106,0.802-2.035,2.292-2.772,4.263    c-2.66,7.067-2.821,20.113-0.209,28.046c0.048,0.16,0.112,0.336,0.176,0.497c-14.824,5.368-24.84,13.879-31.684,23.815    c-0.48,0.689-0.929,1.394-1.378,2.099c-1.795,2.837-3.35,5.786-4.712,8.783c-0.064,0.144-0.128,0.288-0.176,0.433    c-0.689,1.522-1.314,3.061-1.891,4.615c-0.272,0.721-0.529,1.426-0.769,2.148c-1.25,3.654-2.26,7.356-3.093,11.058    c-0.096,0.417-0.176,0.834-0.256,1.234c-0.096,0.433-0.176,0.849-0.256,1.266c-0.385,1.971-0.673,3.911-0.882,5.801    c-0.016,0.096-0.016,0.176-0.032,0.273c-0.272,2.372-0.417,4.68-0.465,6.923c-0.016,1.026-0.016,2.035,0,3.029    c0.305,16.651,6.041,29.2,9.792,35.642c0.141,0.243,0.274,0.462,0.41,0.688c-12.95,18.743-19.361,44.301-19.361,44.301v40.016    l8.129,15.098c0.265,9.712,0.625,19.461,1.254,29.184c0.772,11.947,1.9,23.865,3.696,35.664c1.069,7.124,2.39,14.203,4.007,21.209    c0.802,3.517,1.692,7.035,2.657,10.508c1.291,4.645,2.716,9.261,4.319,13.832c1.722,4.927,3.636,9.795,5.758,14.604    c0.132,0.291,0.263,0.583,0.394,0.875l0.006,0.02c0,0-9.321,5.653-9.321,11.726c0,3.007,37.584,15.935,58.631,2.406    c0,0,2.513-5.506,4.535-14.833h0.002c0,0,0.006-0.034,0.007-0.039c1.458-6.736,2.637-15.476,2.452-25.578    c2.611,0.451,18.017,2.981,29.436,1.87l3.424,25.792v1.202c0,0-8.203,7.076-8.845,12.788c-0.643,5.712,42.978,21.03,90.481-0.914    l0.012,0.002c0,0,0.012-0.029,0.023-0.058c0.207-0.396,1.653-3.336,3.037-10.408c0.004-0.015,0.007-0.027,0.012-0.042    c0.994-3.592,2.152-8.029,3.384-13.209c1.38-5.699,2.865-12.319,4.304-19.68c0.564-2.835,1.128-5.788,1.677-8.845    c0.994-5.506,1.944-11.339,2.835-17.454c0.623-4.393,1.217-8.934,1.766-13.595c0.697-6.04,1.321-12.304,1.811-18.73    c0.237-3.013,0.43-6.055,0.608-9.127c0.134-2.404,0.252-4.824,0.342-7.257c7.317,0.015,14.055-1.158,20.199-3.236    c8.208-2.76,15.391-7.109,21.579-12.304c4.319-3.621,8.163-7.644,11.532-11.829C430.156,307.694,436.122,288.043,435.172,282.716z    "/>
	</g>
	<g>
		<path style="fill:#FFC792;" d="M159.399,321.842c0,0,16.726-47.558,76.481-39.208c51.242,7.16,74.16,118.674,26.629,147.056    c-30.148,18.003-79.552-8.145-94.002-36.056C148.781,355.53,159.399,321.842,159.399,321.842z"/>
	</g>
	<g>
		<path style="fill:#AE312F;" d="M318.243,129.586c-5.305-2.196-9.327-3.157-9.536-3.221c2.837-13.654,15.609-25.498,21.202-25.113    h0.016c0.785,3.173,1.699,6.971-0.689,15.129c-0.24,0.802-0.417,1.587-0.561,2.356    C326.481,130.131,323.291,131.685,318.243,129.586z"/>
	</g>
	<g>
		<path style="fill:#AE312F;" d="M202.647,121.108c-2.089,0.675-3.937,1.232-5.593,1.859c-2.962-8.017-2.628-21.475,0.032-28.542    c0.737-1.971,1.667-3.462,2.772-4.263c0,0,2.837,1.427,4.824,8.366c0.721,2.532,1.346,4.952,2.115,7.196    C208.625,111.028,209.528,118.883,202.647,121.108z"/>
	</g>
	<g style="opacity:0.48;">
		<path style="fill:#EA4949;" d="M286.611,200.067c-4.975,1.845-7.134,7.674-3.042,11.919c5.478,5.684,17.942,8.045,25.019,4.371    c5.975-3.102,4.969-11.749,0.01-14.501c-4.192-2.326-9.061-3.125-13.77-3.008C292.639,198.902,289.4,199.033,286.611,200.067z"/>
	</g>
	<g style="opacity:0.48;">
		<path style="fill:#EA4949;" d="M201.743,185.615c3.679,3.602,3.286,9.62-2.017,11.763c-7.102,2.87-19.078,0.033-23.896-6.021    c-4.067-5.11,0.244-12.375,5.726-12.852c4.634-0.403,9.264,0.815,13.39,2.78C196.864,182.199,199.682,183.596,201.743,185.615z"/>
	</g>
	<g>
		<path style="fill:#AE312F;" d="M276.944,119.73c-6.891,5.144-12.388,13.397-16.731,19.6c-2.388,3.398-4.6,6.923-6.683,10.513    c-1.571,2.692-4.231,5.289-7.548,5.481c-4.167,0.24-7.645-2.693-9.455-6.234c-2.276-4.423-1.971-9.455-0.866-14.167    c1.571-6.666,5.113-12.853,9.776-17.965c0.336,0.016,0.689,0.032,1.042,0.048C257.376,117.518,267.537,118.432,276.944,119.73z"/>
	</g>
	<g>
		<path style="fill:#FFFFFF;" d="M233.118,300.996c-0.107,0-0.107,0.167,0,0.167C233.225,301.163,233.225,300.996,233.118,300.996z"/>
	</g>
	<g>
		<path style="fill:#AE312F;" d="M165.675,182.408c-4.471,0.369-8.943-1.475-12.837-3.991c0.08-0.417,0.16-0.833,0.256-1.266    c0.08-0.401,0.16-0.817,0.256-1.234c0.833-3.702,1.843-7.404,3.093-11.058C164.345,173.225,174.057,181.702,165.675,182.408z"/>
	</g>
	<g>
		<path style="fill:#AE312F;" d="M163.127,193.722c-3.045,1.491-7.5,1.378-11.667,0.721c-0.016-0.993-0.016-2.003,0-3.029    c0.048-2.243,0.192-4.551,0.464-6.923c0.016-0.096,0.016-0.176,0.032-0.273C160.386,187.296,168.496,191.094,163.127,193.722z"/>
	</g>
	<g>
		<path style="fill:#AE312F;" d="M166.22,162.407c-2.42-0.545-4.872-2.228-7.116-4.311c0.048-0.144,0.112-0.288,0.176-0.433    c1.362-2.997,2.917-5.946,4.712-8.783C168.4,156.269,171.829,163.673,166.22,162.407z"/>
	</g>
	<g>
		<path style="fill:#AE312F;" d="M298.034,123.576c-1.843,1.651-3.91,3.494-5.401,4.888c-4.712,4.423-9.792,10.722-13.173,11.154    c-7.067,0.914-9.263-6.106-4.135-12.613c2.34-2.965,5.401-4.984,8.045-6.314h0.016    C288.515,121.524,293.387,122.486,298.034,123.576z"/>
	</g>
	<g>
		<path style="fill:#AE312F;" d="M241.847,116.845c-4.006,4.295-8.574,11.699-12.34,12.597c-5.673,1.346-9.568-3.334-6.923-6.186    c2.564-2.772,5.433-4.856,7.901-6.33C234.106,116.781,237.889,116.749,241.847,116.845z"/>
	</g>
	<g style="opacity:0.48;">
		<path style="fill:#AE312F;" d="M298.313,257.694c2.119-0.631,4.241-1.243,6.336-1.93c2.097-0.674,4.195-1.355,6.213-2.19    l1.113-0.46l-0.566,1.095c-0.282,0.545-0.533,1.151-0.686,1.737c-0.159,0.572-0.185,1.224,0.019,1.468    c0.074,0.112,0.294,0.21,0.473,0.217c0.135,0.013,0.372-0.075,0.597-0.232c0.458-0.316,0.888-0.789,1.282-1.279    c0.787-0.997,1.471-2.112,2.097-3.249c0.616-1.133,1.215-2.335,1.633-3.489l0.702-1.935l0.471,1.994    c0.226,0.958,0.546,1.949,0.972,2.827c0.42,0.86,1.043,1.717,1.692,1.614c0.706-0.047,1.444-0.831,1.972-1.635    c0.538-0.825,0.998-1.758,1.372-2.68l0.138-0.342l0.343,0.023c2.344,0.153,4.77,0.006,7.124-0.383    c1.186-0.171,2.359-0.43,3.515-0.757c1.161-0.316,2.282-0.758,3.4-1.222c-1.057,0.584-2.148,1.135-3.298,1.534    c-1.141,0.421-2.312,0.775-3.503,1.042c-2.392,0.512-4.816,0.779-7.302,0.735l0.481-0.319c-0.349,1.041-0.785,2.015-1.384,2.949    c-0.3,0.464-0.638,0.916-1.07,1.321c-0.425,0.396-0.989,0.774-1.701,0.843c-0.343,0.032-0.719-0.026-1.05-0.181    c-0.322-0.153-0.577-0.365-0.792-0.586c-0.427-0.447-0.719-0.938-0.978-1.433c-0.502-1-0.845-2.009-1.119-3.081l1.172,0.058    c-0.484,1.335-1.112,2.49-1.769,3.674c-0.668,1.168-1.388,2.308-2.257,3.377c-0.445,0.529-0.911,1.05-1.551,1.481    c-0.321,0.203-0.717,0.417-1.25,0.392c-0.477-0.039-0.916-0.227-1.246-0.647c-0.57-0.89-0.301-1.705-0.127-2.367    c0.217-0.685,0.506-1.296,0.859-1.91l0.546,0.635c-2.106,0.748-4.235,1.361-6.384,1.898    C302.647,256.813,300.492,257.31,298.313,257.694z"/>
	</g>
	<g style="opacity:0.48;">
		<path style="fill:#AE312F;" d="M157.794,221.15c1.098,2.176,2.203,4.344,3.407,6.45c0.589,1.059,1.205,2.1,1.861,3.107    c0.657,0.993,1.375,1.993,2.202,2.711l0.205,0.179l-0.03,0.293c-0.104,1.02-0.152,2.09-0.05,3.098    c0.082,0.975,0.423,2.073,0.991,2.231c0.269,0.082,0.424,0.046,0.69-0.3c0.236-0.335,0.414-0.804,0.554-1.279    c0.275-0.962,0.407-2.026,0.486-3.041l0.203-2.604l1.012,2.394c0.437,1.033,0.951,2.073,1.517,3.051    c0.57,0.974,1.2,1.932,1.959,2.667c0.372,0.369,0.802,0.667,1.19,0.731c0.427,0.072,0.795,0.001,0.944-0.305    c0.382-0.707,0.182-2.001-0.106-3.007l-0.374-1.311l1.061,0.804c1.533,1.162,3.179,2.213,4.841,3.209    c1.671,0.992,3.415,1.86,5.262,2.507c-1.921-0.405-3.75-1.174-5.525-2.018c-1.771-0.867-3.456-1.872-5.107-2.975l0.686-0.507    c0.207,0.596,0.354,1.174,0.439,1.801c0.064,0.62,0.112,1.297-0.238,2.02c-0.185,0.35-0.538,0.686-0.935,0.804    c-0.199,0.077-0.392,0.117-0.575,0.115c-0.187,0.02-0.373,0.019-0.562-0.03c-0.77-0.129-1.332-0.555-1.796-0.978    c-0.946-0.863-1.617-1.874-2.229-2.902c-0.61-1.035-1.141-2.083-1.622-3.192l1.215-0.21c-0.07,1.133-0.231,2.218-0.549,3.329    c-0.174,0.552-0.368,1.111-0.757,1.659c-0.117,0.135-0.228,0.27-0.36,0.396c-0.167,0.113-0.316,0.244-0.514,0.318    c-0.41,0.162-0.864,0.144-1.229,0.001c-0.767-0.279-1.17-0.974-1.376-1.54c-0.21-0.59-0.284-1.168-0.336-1.737    c-0.074-1.142-0.016-2.237,0.159-3.353l0.175,0.472c-0.966-0.938-1.611-1.99-2.246-3.051c-0.618-1.067-1.186-2.153-1.724-3.251    C159.58,225.688,158.615,223.447,157.794,221.15z"/>
	</g>
	<g>
		<g>
			<g>
				<path style="fill:#FFFFFF;" d="M310.409,192.693c-7.708,4.407-19.295,5.144-27.324,1.25c-1.715-0.833-3.285-1.907-4.663-3.253      c-5.962-5.882-8.814-15.593-8.173-23.879c0-0.192,0.016-0.384,0.032-0.577c0.801-8.349,6.202-15.529,13.814-18.943      c8.911-3.99,21.748-4.552,29.104,2.789c2.901,2.901,5.064,6.779,6.378,11.058h0.016      C323.134,172.532,320.73,186.779,310.409,192.693z"/>
			</g>
			<g>
				<path style="fill:#AE312F;" d="M310.409,192.693c-4.361,2.482-9.377,3.625-14.37,3.855c-2.505,0.1-5.027-0.076-7.497-0.566      c-2.469-0.479-4.903-1.273-7.127-2.531c-2.231-1.251-4.141-3.055-5.689-5.073c-1.567-2.018-2.835-4.259-3.833-6.61      c-1.983-4.71-2.911-9.866-2.668-15.036l-0.003,0.079c0.316-6.152,3.071-11.911,7.51-16.047c2.202-2.053,4.774-3.758,7.568-4.864      c2.76-1.137,5.648-1.914,8.593-2.32c5.846-0.772,12.144-0.09,17.309,3.109c2.587,1.57,4.677,3.833,6.266,6.301      c1.613,2.476,2.773,5.201,3.576,8.004l-0.467-0.345l0.016,0l0.37,0.008l0.096,0.335c0.823,2.878,1.26,5.853,1.321,8.826      c0.051,2.972-0.255,5.948-0.973,8.822c-0.724,2.871-1.912,5.627-3.567,8.075C315.181,189.158,312.982,191.243,310.409,192.693z       M310.409,192.693c2.56-1.473,4.734-3.574,6.364-6.022c1.649-2.444,2.725-5.235,3.373-8.092      c0.653-2.862,0.846-5.818,0.651-8.735c-0.19-2.917-0.748-5.806-1.671-8.561l0.466,0.343l-0.016,0l-0.349,0.008l-0.118-0.353      c-0.898-2.682-2.135-5.251-3.766-7.526c-1.623-2.284-3.63-4.255-6.035-5.569c-2.39-1.347-5.078-2.109-7.809-2.462      c-2.737-0.355-5.539-0.276-8.278,0.163c-5.483,0.856-10.849,2.906-14.851,6.632c-1,0.929-1.909,1.952-2.739,3.034      c-0.791,1.11-1.543,2.254-2.147,3.48c-0.598,1.225-1.129,2.493-1.479,3.815c-0.214,0.651-0.317,1.329-0.475,1.996      c-0.084,0.653-0.231,1.399-0.255,1.966l-0.003,0.079c-0.441,4.805,0.212,9.779,1.914,14.365      c0.855,2.291,1.976,4.489,3.389,6.489c1.407,2.007,3.129,3.787,5.216,5.083c4.191,2.597,9.282,3.596,14.243,3.528      C301.011,196.286,306.025,195.109,310.409,192.693z"/>
			</g>
		</g>
		<g>
			<path style="fill:#AE312F;" d="M293.376,189.497c6.622,0.969,14.018-1.558,18.002-7.099c6.347-8.829,3.644-22.62-5.669-28.138     c-5-2.963-11.833-3.603-17.233-1.368c-14.431,5.971-13.291,27.98-0.312,34.93C289.762,188.677,291.533,189.227,293.376,189.497z"/>
		</g>
		<g style="opacity:0.21;">
			<path style="fill:#AE312F;" d="M319.576,161.137c-29.152-13.815-47.149,3.414-49.328,5.673c0-0.192,0.016-0.384,0.032-0.577     c0.801-8.349,6.202-15.529,13.814-18.943c8.911-3.99,21.748-4.552,29.104,2.789C316.098,152.98,318.262,156.858,319.576,161.137z     "/>
		</g>
	</g>
	<g>
		<g>
			<g>
				<path style="fill:#FFFFFF;" d="M215.807,170.112c-3.702,6.747-12.164,9.311-19.375,9.055c-0.993-0.048-1.971-0.176-2.917-0.4      c-11.443-2.677-18.174-18.174-13.927-29.04c0.417-1.122,0.977-2.195,1.651-3.205c5.93-8.814,21.107-12.147,29.953-5.929      c2.131,1.523,3.51,3.942,4.487,6.314c0.673,1.618,1.234,3.429,1.651,5.337C218.676,158.22,218.564,165.096,215.807,170.112z"/>
			</g>
			<g>
				<path style="fill:#AE312F;" d="M215.807,170.112c-0.675,1.175-1.464,2.288-2.417,3.259c-0.966,0.951-2.017,1.826-3.182,2.528      c-2.312,1.428-4.896,2.415-7.569,2.956c-1.335,0.278-2.69,0.479-4.056,0.566c-1.361,0.097-2.749,0.121-4.128-0.076      c-2.741-0.448-5.396-1.528-7.649-3.197c-4.546-3.321-7.566-8.434-8.924-13.884c-0.649-2.742-0.896-5.613-0.545-8.466l0.399-2.12      c0.179-0.696,0.419-1.377,0.629-2.065c0.448-1.368,1.131-2.7,1.95-3.894c3.392-4.82,8.773-7.667,14.272-8.753      c2.767-0.55,5.622-0.625,8.407-0.221c2.78,0.411,5.51,1.349,7.856,2.921c1.22,0.712,2.25,1.808,3.049,2.946      c0.808,1.155,1.425,2.406,1.939,3.682c1.035,2.552,1.647,5.234,2.046,7.925c0.392,2.695,0.488,5.434,0.197,8.136      C217.801,165.047,217.123,167.732,215.807,170.112z M215.807,170.112c2.55-4.846,2.689-10.575,1.739-15.839      c-0.494-2.652-1.284-5.251-2.417-7.673c-1.133-2.397-2.646-4.692-4.937-5.898c-4.529-2.658-10.135-2.876-15.154-1.674      c-2.533,0.59-4.967,1.585-7.157,2.931c-2.191,1.337-4.136,3.07-5.544,5.137c-0.722,1.031-1.308,2.13-1.715,3.333      c-0.188,0.606-0.412,1.203-0.578,1.816l-0.375,1.872c-0.359,2.531-0.255,5.149,0.266,7.692      c1.008,5.067,3.528,10.041,7.616,13.373c2.021,1.679,4.448,2.83,7.029,3.407c1.297,0.261,2.637,0.314,3.981,0.293      c1.342-0.015,2.69-0.117,4.015-0.362c2.65-0.454,5.259-1.315,7.584-2.7c1.167-0.686,2.224-1.545,3.197-2.482      C214.318,172.381,215.118,171.279,215.807,170.112z"/>
			</g>
		</g>
		<g>
			<path style="fill:#AE312F;" d="M190.027,169.23c0.456,0.401,4.68,5.84,14.343,3.122c9.663-2.717,8.908-15.097,7.549-19.174     c-1.359-4.077-6.19-12.531-17.212-9.814C183.686,146.082,182.176,162.333,190.027,169.23z"/>
		</g>
		<g style="opacity:0.21;">
			<path style="fill:#AE312F;" d="M217.33,152.243c-12.741-7.757-29.247-4.856-37.741-2.516c0.417-1.122,0.977-2.195,1.651-3.205     c5.93-8.814,21.107-12.147,29.953-5.929c2.131,1.523,3.51,3.942,4.487,6.314C216.352,148.524,216.913,150.335,217.33,152.243z"/>
		</g>
	</g>
	<g>
		<path style="fill:#AE312F;" d="M283.834,480.894c-0.715-1.157-1.267-2.533-1.304-3.997c-0.074-1.462,0.385-2.969,1.221-4.19    c0.847-1.22,2.005-2.153,3.253-2.822c1.25-0.672,2.591-1.112,3.966-1.321c-1.197,0.708-2.369,1.383-3.438,2.162    c-1.057,0.787-2.033,1.655-2.732,2.7c-0.723,1.026-1.151,2.224-1.281,3.497C283.373,478.204,283.601,479.527,283.834,480.894z"/>
	</g>
	<g>
		<path style="fill:#AE312F;" d="M263.843,477.663c-0.471-1.1-0.687-2.285-0.768-3.478c-0.078-1.195,0.01-2.412,0.303-3.602    c0.319-1.18,0.835-2.333,1.613-3.301c0.79-0.962,1.858-1.661,2.987-2.016c-0.874,0.824-1.617,1.639-2.175,2.586    c-0.525,0.962-0.924,1.974-1.194,3.043c-0.288,1.065-0.423,2.178-0.547,3.304C263.959,475.329,263.893,476.475,263.843,477.663z"/>
	</g>
	<g style="opacity:0.48;">
		<path style="fill:#AE312F;" d="M286.424,440.799c0.162,0.791,0.519,1.547,1.062,2.094c0.543,0.558,1.317,0.773,2.062,0.728    c0.749-0.058,1.443-0.339,1.903-0.895c0.461-0.535,0.74-1.29,0.825-1.979l0.116-0.95l0.674,0.721    c1.098,1.176,2.459,2.326,3.893,2.714c0.691,0.182,1.473,0.051,1.75-0.342c0.323-0.387,0.317-1.247,0.129-1.911l-0.247-0.873    l0.907,0.071c3.945,0.307,7.951,0.424,11.914,0.217c1.985-0.078,3.969-0.265,5.913-0.651c1.946-0.357,3.887-0.868,5.643-1.86    c-1.595,1.252-3.556,1.947-5.495,2.504c-1.962,0.521-3.97,0.839-5.982,1.047c-2.014,0.194-4.037,0.29-6.056,0.272    c-2.023-0.019-4.032-0.082-6.06-0.285l0.66-0.802c0.134,0.511,0.191,0.963,0.167,1.482c-0.029,0.502-0.155,1.069-0.533,1.549    c-0.376,0.49-0.974,0.733-1.483,0.8c-0.522,0.09-1.042,0.017-1.514-0.106c-0.943-0.276-1.735-0.774-2.429-1.345    c-0.696-0.58-1.303-1.207-1.868-1.918l0.79-0.229c-0.172,0.904-0.536,1.712-1.168,2.378c-0.627,0.669-1.577,0.994-2.442,0.945    c-0.863-0.031-1.758-0.397-2.288-1.078C286.719,442.435,286.474,441.605,286.424,440.799z"/>
	</g>
	<g>
		<path style="fill:#AE312F;" d="M363.373,172.471c-27.42,15.193-35.979-3.125-24.856-6.01c7.452-1.939,14.359-5.914,18.911-8.606    C360.264,162.407,362.251,167.279,363.373,172.471z"/>
	</g>
	<g>
		<path style="fill:#AE312F;" d="M365.472,195.677v0.112c-0.064,0.529-0.096,1.041-0.144,1.554c-10,3.734-22.18,5.721-31.651,1.475    c-3.574-1.603-6.603-5.144-5.305-8.718c0.529-1.427,1.715-2.645,3.141-3.526c4.215-2.628,9.968-3.045,14.984-3.558    c5.705-0.593,12.5-3.013,17.821-5.337C365.264,183.85,365.664,189.876,365.472,195.677z"/>
	</g>
	<g>
		<path style="fill:#AE312F;" d="M364.687,204.572c-0.994,6.779-2.933,13.19-5.898,19.151c-6.827,1.106-14.151-0.497-20.017-4.007    c-2.612-1.57-4.92-4.086-4.247-7.356c0.882-4.327,6.667-4.776,10.176-4.696C354.222,207.889,361.065,205.95,364.687,204.572z"/>
	</g>
	<g>
		<path style="fill:#AE312F;" d="M188.092,474.768c-0.275-0.803-0.302-1.662-0.194-2.501c0.105-0.844,0.398-1.67,0.831-2.428    c0.441-0.753,1.071-1.411,1.815-1.864c0.724-0.487,1.596-0.694,2.424-0.719c-0.668,0.531-1.304,0.947-1.814,1.501    c-0.514,0.533-0.981,1.088-1.334,1.731C189.064,471.747,188.592,473.179,188.092,474.768z"/>
	</g>
	<g>
		<path style="fill:#AE312F;" d="M172.91,471.522c-0.241-0.747-0.269-1.525-0.196-2.29c0.072-0.768,0.273-1.53,0.608-2.251    c0.354-0.709,0.833-1.381,1.472-1.887c0.647-0.497,1.442-0.787,2.217-0.78c-0.611,0.501-1.104,0.962-1.522,1.488    c-0.392,0.546-0.734,1.11-1.02,1.724c-0.307,0.604-0.534,1.259-0.79,1.921C173.437,470.116,173.195,470.799,172.91,471.522z"/>
	</g>
	<g style="opacity:0.48;">
		<path style="fill:#AE312F;" d="M191.453,439.528c0.227,0.913,0.492,1.812,0.819,2.68c0.339,0.846,0.753,1.723,1.344,2.284    c0.553,0.584,1.404,0.353,2.002-0.19c0.61-0.542,1.059-1.365,1.382-2.132l0.528-1.254l0.498,1.276    c0.37,0.95,0.821,1.905,1.318,2.8c0.494,0.895,1.06,1.761,1.735,2.423c0.346,0.31,0.71,0.548,1.062,0.649    c0.405,0.103,0.798,0.073,1.172-0.08c0.747-0.309,1.39-1.153,1.779-1.967l0.861-1.801l0.268,1.951    c0.131,0.956,0.51,1.991,0.986,2.906c0.487,0.924,1.105,1.796,1.885,2.516c0.786,0.703,1.648,1.357,2.622,1.831    c0.465,0.284,0.994,0.429,1.494,0.654l1.574,0.495c-0.543-0.084-1.102-0.129-1.645-0.251c-0.53-0.163-1.094-0.247-1.607-0.479    c-1.076-0.349-2.053-0.964-2.951-1.668c-0.899-0.714-1.649-1.612-2.263-2.592c-0.613-0.997-1.035-2.054-1.263-3.274l1.129,0.149    c-0.474,1.095-1.167,2.1-2.382,2.674c-0.603,0.267-1.323,0.323-1.95,0.167c-0.684-0.173-1.204-0.569-1.641-0.971    c-0.834-0.84-1.417-1.791-1.939-2.755c-0.498-0.981-0.918-1.969-1.28-3.013l1.026,0.022c-0.431,0.939-0.992,1.763-1.827,2.43    c-0.417,0.32-0.942,0.577-1.515,0.612c-0.279,0.011-0.567-0.016-0.866-0.133c-0.268-0.125-0.51-0.296-0.683-0.496    c-0.728-0.794-0.969-1.753-1.23-2.663C191.665,441.403,191.513,440.469,191.453,439.528z"/>
	</g>
	<g style="opacity:0.48;">
		<path style="fill:#AE312F;" d="M180.555,458.805c3.742-0.591,7.575-0.336,11.291,0.378c1.859,0.369,3.694,0.884,5.463,1.569    c1.784,0.642,3.462,1.57,5.04,2.595c-1.801-0.583-3.556-1.181-5.35-1.652c-1.789-0.479-3.581-0.928-5.4-1.266    c-1.811-0.372-3.639-0.668-5.478-0.937C184.28,459.245,182.433,458.997,180.555,458.805z"/>
	</g>
	<g style="opacity:0.48;">
		<path style="fill:#AE312F;" d="M261.685,458.63c2.902-0.503,5.85-0.668,8.796-0.695c2.949-0.035,5.897,0.178,8.829,0.539    c2.928,0.39,5.832,1.005,8.66,1.869c2.825,0.878,5.56,2.051,8.089,3.551c-1.406-0.458-2.728-1.07-4.15-1.43    c-1.375-0.479-2.791-0.822-4.198-1.178c-2.837-0.627-5.683-1.196-8.569-1.552c-2.88-0.386-5.779-0.629-8.688-0.826    c-1.455-0.096-2.914-0.159-4.374-0.189C264.618,458.64,263.156,458.649,261.685,458.63z"/>
	</g>
	<g>
		<g>
			<path style="fill:#AE312F;" d="M157.548,191.225c4.397-0.917,8.831-1.466,13.273-1.923c4.446-0.421,8.901-0.749,13.393-0.706     c-4.397,0.92-8.831,1.468-13.273,1.924C166.495,190.938,162.04,191.266,157.548,191.225z"/>
		</g>
		<g>
			<path style="fill:#AE312F;" d="M156.779,180.111c4.337,0.141,8.621,0.648,12.892,1.246c4.265,0.634,8.518,1.361,12.716,2.457     c-4.337-0.138-8.621-0.646-12.891-1.246C165.23,181.931,160.978,181.205,156.779,180.111z"/>
		</g>
		<g>
			<path style="fill:#AE312F;" d="M161.788,167.218c3.833,2.034,7.457,4.373,11.031,6.788c3.552,2.445,7.051,4.967,10.34,7.799     c-3.834-2.031-7.458-4.371-11.03-6.788C168.578,172.569,165.079,170.047,161.788,167.218z"/>
		</g>
	</g>
	<g>
		<path style="fill:#FFFFFF;" d="M322.073,125.931c0,0-3.109-0.208-3.942-0.929c-0.849-0.721,3.942-0.833,3.942-0.833    c-2.388-1.026-4.343-3.83-3.526-3.878c0.833-0.064,3.622,2.019,3.622,2.019c-2.901-4.247-0.833-10.657,2.388-10.241    c1.378,0.176,2.869,3.237,4.119,6.667c-2.196,11.395,4.648,19.776,5.898,20.834c-5.096-4.631-11.283-7.885-16.33-9.984    C319.045,127.278,322.073,125.931,322.073,125.931z"/>
	</g>
	<g>
		<path style="fill:#FFFFFF;" d="M202.647,121.108c0.449-2.58,3.157-6.154,3.398-6.459c-0.208,0.08-2.42,1.026-3.446,0.449    c-1.074-0.609,2.613-2.068,2.613-2.068s-2.837,0.224-3.061-0.625c-0.24-0.833,2.644-0.609,2.644-0.609    c-2.035-1.234-5.721-6.763-3.189-8.221c1.651-0.945,3.846,0.801,5.192,2.147c1.827,5.305,4.503,9.599,11.523,12.052    C218.321,117.774,209.699,119.505,202.647,121.108z"/>
	</g>
	<g>
		<g>
			<path style="fill:#AE312F;" d="M242.412,168.139c0,0-3.784-5.48-6.002-4.697c-2.218,0.783,3.469,9.076,5.818,9.989     c2.348,0.913,8.272-6.989,7.098-8.685C248.153,163.05,242.412,168.139,242.412,168.139z"/>
		</g>
		<g>
			<path style="fill:#AE312F;" d="M247.587,202.744c-0.606-2.478-1.123-4.973-1.674-7.463l-1.489-7.5     c-0.501-2.501-0.899-5.019-1.318-7.536c-0.393-2.526-0.809-5.032-1.022-7.627l1.183,0.165c-1.654,4.641-3.133,9.358-4.581,14.073     c-0.72,2.36-1.418,4.728-2.039,7.116c-0.658,2.379-1.227,4.781-1.723,7.207c0.226-2.467,0.681-4.908,1.147-7.343     c0.501-2.429,1.105-4.832,1.718-7.234c0.602-2.406,1.332-4.773,2.05-7.144c0.729-2.369,1.48-4.725,2.278-7.079l0.959-2.826     l0.225,2.992c0.187,2.485,0.55,5.019,0.909,7.53l1.147,7.547l1.15,7.553L247.587,202.744z"/>
		</g>
		<g style="opacity:0.48;">
			<path style="fill:#AE312F;" d="M231.503,173.365c-4.09,0.62-8.137,2.805-10.742,6.5c-3.775,5.356-4.962,12.353-1.083,17.786     c2.407,3.372,6.007,5.384,9.679,6.722c7.036,2.562,14.205,4.61,21.732,3.137c2.73-0.534,5.455-1.483,7.781-3.244     c3.564-2.699,5.972-7.307,6.312-12.078c0.34-4.771-1.397-9.594-4.552-12.644c-3.882-3.752-9.995-5.325-15.072-5.662     C241.036,173.581,235.999,172.684,231.503,173.365z"/>
		</g>
	</g>
	<g>
		<g>
			<path style="fill:#AE312F;" d="M302.902,208.706c4.463,0.507,8.845,1.375,13.207,2.332c4.354,0.994,8.688,2.078,12.94,3.527     c-4.464-0.504-8.846-1.373-13.208-2.333C311.488,211.237,307.155,210.152,302.902,208.706z"/>
		</g>
		<g>
			<path style="fill:#AE312F;" d="M331.167,203.627c-4.301,0.574-8.61,0.777-12.921,0.89c-4.312,0.075-8.626,0.058-12.948-0.334     c4.301-0.577,8.61-0.78,12.921-0.889C322.532,203.221,326.845,203.239,331.167,203.627z"/>
		</g>
		<g>
			<path style="fill:#AE312F;" d="M327.766,190.22c-3.611,2.407-7.392,4.484-11.214,6.481c-3.839,1.964-7.721,3.845-11.775,5.393     c3.609-2.409,7.39-4.486,11.214-6.481C319.831,193.652,323.713,191.771,327.766,190.22z"/>
		</g>
	</g>
	<g style="opacity:0.48;">
		<path style="fill:#AE312F;" d="M203.118,318.753c-1.897-1.115-3.848-2.138-5.872-2.964c-1.013-0.405-2.048-0.757-3.099-0.974    c-1.031-0.198-2.158-0.321-3.006,0.11c-0.403,0.216-0.753,0.572-0.74,0.931c-0.021,0.368,0.241,0.806,0.572,1.179    c0.673,0.76,1.576,1.379,2.48,1.953c1.839,1.124,3.817,2.084,5.797,2.95l1.561,0.683l-1.662,0.372    c-1.512,0.338-3.029,0.721-4.514,1.159c-0.742,0.219-1.477,0.458-2.189,0.725c-0.674,0.261-1.479,0.599-1.829,0.947    c-0.044,0.037-0.039,0.059-0.031,0.03c0.02-0.021,0.009-0.155-0.009-0.183c-0.047-0.076-0.008-0.001,0.123,0.038    c0.248,0.093,0.619,0.14,0.975,0.163c0.728,0.046,1.498,0.009,2.261-0.046c1.531-0.101,3.084-0.297,4.605-0.541l2.018-0.324    l-1.504,1.374c-1.223,1.117-2.425,2.288-3.569,3.491c-1.136,1.207-2.258,2.453-3.138,3.798c-0.211,0.336-0.413,0.679-0.549,1.017    c-0.144,0.328-0.184,0.692-0.117,0.761c0.154,0.349,0.936,0.412,1.674,0.151c1.489-0.478,2.936-1.391,4.261-2.336l1.467-1.046    l-0.864,1.568c-0.59,1.072-1.073,2.271-1.444,3.474c-0.371,1.21-0.649,2.453-0.804,3.714c-0.166,1.26-0.205,2.541-0.094,3.812    c0.076,1.278,0.349,2.534,0.673,3.78c-0.413-1.214-0.802-2.46-0.941-3.751c-0.186-1.283-0.221-2.59-0.124-3.888    c0.089-1.298,0.285-2.596,0.637-3.855c0.345-1.266,0.781-2.485,1.391-3.688l0.602,0.522c-1.37,1.042-2.764,2.016-4.461,2.635    c-0.43,0.144-0.89,0.259-1.413,0.246c-0.523,0.013-1.149-0.26-1.504-0.826c-0.332-0.702-0.094-1.239,0.049-1.673    c0.174-0.444,0.399-0.829,0.629-1.206c0.947-1.48,2.076-2.751,3.224-4.003c1.157-1.245,2.35-2.434,3.595-3.598l0.514,1.05    c-1.571,0.27-3.13,0.486-4.726,0.61c-0.8,0.048-1.601,0.08-2.438,0.019c-0.422-0.039-0.841-0.076-1.33-0.257    c-0.23-0.098-0.56-0.232-0.784-0.661c-0.113-0.2-0.125-0.548-0.036-0.749c0.077-0.209,0.195-0.357,0.291-0.454    c0.41-0.404,0.785-0.571,1.166-0.762c0.379-0.178,0.758-0.329,1.137-0.47c0.758-0.275,1.519-0.512,2.282-0.728    c1.528-0.431,3.057-0.799,4.609-1.127l-0.102,1.054c-2.045-0.905-4.017-1.917-5.885-3.167c-0.924-0.638-1.844-1.3-2.607-2.217    c-0.36-0.456-0.751-1.017-0.711-1.772c0.056-0.779,0.662-1.269,1.204-1.537c1.182-0.519,2.386-0.3,3.468-0.045    c1.092,0.291,2.125,0.712,3.13,1.18C199.418,316.352,201.319,317.484,203.118,318.753z"/>
	</g>
	<g>
		<path style="fill:#AE312F;" d="M288.658,137.789c-0.842,1.15-1.599,2.476-1.539,3.899c0.012,0.289,0.062,0.587,0.217,0.832    c0.445,0.708,1.471,0.669,2.298,0.545c3.712-0.555,7.518-1.14,10.795-2.971c0.967-0.54,1.958-1.308,2.121-2.404    c0.068-0.458-0.021-0.926-0.144-1.372c-0.467-1.695-1.452-3.244-2.789-4.385c-0.26-0.222-0.54-0.433-0.866-0.539    C294.698,130.077,290.636,135.087,288.658,137.789z"/>
	</g>
	<g>
		<path style="fill:#AE312F;" d="M216.426,139.473c1.132,0.877,2.478,1.703,4.095,1.831c0.329,0.026,0.673,0.02,0.98-0.083    c0.884-0.297,1.04-1.194,1.062-1.928c0.098-3.297,0.18-6.677-1.245-9.757c-0.42-0.909-1.093-1.867-2.296-2.147    c-0.503-0.117-1.047-0.1-1.575-0.049c-2.002,0.191-3.939,0.851-5.486,1.869c-0.301,0.198-0.594,0.415-0.776,0.684    C208.911,133.249,213.766,137.412,216.426,139.473z"/>
	</g>
	<g>
		<rect x="390.338" y="171.174" style="fill:#FF5555;" width="25.376" height="81.133"/>
	</g>
	<g>
		<rect x="434.412" y="140.007" style="fill:#6CE0C0;" width="25.376" height="112.3"/>
	</g>
	<g>
		<rect x="478.486" y="210.249" style="fill:#9BEFE6;" width="25.376" height="42.058"/>
	</g>
	<g>
		<rect x="374.514" y="262.34" style="fill:#6CE0C0;" width="137.486" height="2.398"/>
	</g>
	<g>
		<g>
			<path style="fill:#6CE0C0;" d="M188.324,263.546c0,52.005-42.15,94.155-94.155,94.155c-52.005,0-94.17-42.15-94.17-94.155     c0-52.005,42.165-94.169,94.17-94.169c34.091,0,63.937,18.107,80.47,45.237C183.322,228.877,188.324,245.633,188.324,263.546z"/>
		</g>
		<g style="opacity:0.23;">
			<path style="fill:#AE312F;" d="M188.324,263.546c0,52.005-42.15,94.155-94.155,94.155c-52.005,0-94.17-42.15-94.17-94.155     c0-52.005,42.165-94.169,94.17-94.169c34.091,0,63.937,18.107,80.47,45.237C183.322,228.877,188.324,245.633,188.324,263.546z"/>
		</g>
		<g>
			<path style="fill:#6CE0C0;" d="M194.778,263.553c0,51.999-42.155,94.153-94.154,94.153c-52.02,0-94.174-42.155-94.174-94.153     c0-52.02,42.155-94.175,94.174-94.175c33.414,0,62.713,17.375,79.43,43.597c0.361,0.53,0.7,1.082,1.039,1.634     c1.655,2.737,3.182,5.558,4.561,8.465C191.511,235.337,194.778,249.063,194.778,263.553z"/>
		</g>
		<g>
			<path style="fill:#FF5555;" d="M181.089,214.614l-80.471,48.932v-94.169C134.709,169.377,164.555,187.484,181.089,214.614z"/>
		</g>
	</g>
	<g style="opacity:0.48;">
		<g>
			<path style="fill:#AE312F;" d="M363.74,352.486c-3.637,0.716-7.405,1.144-11.162,0.775c-1.891-0.024-3.75-0.449-5.627-0.746     c-1.851-0.457-3.681-1.01-5.44-1.791c-3.513-1.531-6.765-3.769-9.384-6.608c-2.642-2.84-4.649-6.154-5.82-9.96l1.852,0.209     c-0.808,1.301-1.626,2.512-2.765,3.646c-0.301,0.277-0.595,0.555-1.036,0.788c-0.184,0.123-0.492,0.213-0.771,0.272     c-0.354,0.027-0.707-0.024-1.019-0.242c-0.639-0.489-0.673-1.168-0.665-1.551c-0.003-0.444,0.077-0.822,0.141-1.209     c0.337-1.494,0.93-2.833,1.509-4.173c0.589-1.334,1.241-2.634,1.955-3.899c-0.864,2.754-1.85,5.536-2.215,8.282     c-0.025,0.329-0.063,0.667-0.032,0.948c0.008,0.322,0.136,0.437,0.086,0.377c-0.155,0.079,0.498-0.233,0.871-0.732     c0.838-0.981,1.562-2.247,2.172-3.458l1.048-2.08l0.804,2.289c0.552,1.572,1.392,3.22,2.354,4.689     c0.946,1.5,2.034,2.911,3.259,4.192c2.448,2.563,5.357,4.665,8.577,6.199c3.204,1.571,6.715,2.549,10.307,3.1     C356.334,352.416,360.023,352.549,363.74,352.486z"/>
		</g>
	</g>
	<g style="opacity:0.48;">
		<g>
			<path style="fill:#AE312F;" d="M325.523,327.982c-0.791,1.412-1.8,2.637-3.235,3.605c-0.36,0.244-0.777,0.468-1.312,0.599     c-0.52,0.119-1.396,0.157-2.083-0.518c-0.34-0.401-0.524-0.96-0.492-1.218c-0.036-0.364-0.002-0.64,0.048-0.864     c0.072-0.525,0.226-0.896,0.355-1.324c0.642-1.554,1.459-2.892,2.417-4.144c0.949-1.249,2.012-2.409,3.294-3.393     c-0.457,1.546-1.064,2.964-1.686,4.351c-0.601,1.389-1.291,2.738-1.785,4.039c-0.105,0.3-0.256,0.643-0.29,0.881     c-0.139,0.29,0.084,0.434-0.201,0.132c-0.144-0.099-0.169,0,0.052-0.004c0.216-0.027,0.522-0.082,0.839-0.198     C322.723,329.448,324.078,328.661,325.523,327.982z"/>
		</g>
	</g>
	<g>
		<g style="opacity:0.39;">
			
				<ellipse transform="matrix(0.9252 -0.3795 0.3795 0.9252 -42.7626 124.1348)" style="fill:#FFFFFF;" cx="293.484" cy="170.534" rx="32.912" ry="32.913"/>
		</g>
		<g style="opacity:0.39;">
			<ellipse style="fill:#FFFFFF;" cx="198.71" cy="159.383" rx="29.568" ry="32.912"/>
		</g>
		<g>
			<path style="fill:#AE312F;" d="M198.771,193.296c-16.931,0-30.708-15.302-30.708-34.112c0-18.809,13.777-34.111,30.708-34.111     s30.708,15.302,30.708,34.111C229.479,177.994,215.702,193.296,198.771,193.296z M198.771,127.471     c-15.61,0-28.31,14.226-28.31,31.713c0,17.488,12.699,31.714,28.31,31.714s28.31-14.226,28.31-31.714     C227.08,141.698,214.381,127.471,198.771,127.471z"/>
		</g>
		<g>
			<path style="fill:#AE312F;" d="M259.287,165.781c-12.903-10.756-30.41-4.403-30.588-4.339l-0.841-2.246     c0.771-0.286,18.974-6.918,32.966,4.742L259.287,165.781z"/>
		</g>
		<g>
			<path style="fill:#AE312F;" d="M292.967,204.645c-18.81,0-34.111-15.302-34.111-34.111c0-18.81,15.301-34.112,34.111-34.112     s34.113,15.302,34.113,34.112C327.081,189.343,311.777,204.645,292.967,204.645z M292.967,138.82     c-17.486,0-31.713,14.226-31.713,31.714c0,17.486,14.226,31.713,31.713,31.713c17.489,0,31.715-14.226,31.715-31.713     C324.682,153.047,310.456,138.82,292.967,138.82z"/>
		</g>
	</g>
	<g>
		<path style="fill:#AE312F;" d="M407.874,284.881c1.943-2.495,3.973-4.592,5.762-6.865c1.826-2.269,3.35-4.501,4.399-7.485    c0.462,1.532,0.304,3.236-0.193,4.781c-0.49,1.564-1.371,2.938-2.336,4.203c-1.006,1.238-2.161,2.325-3.44,3.235    C410.791,283.661,409.415,284.441,407.874,284.881z"/>
	</g>
	<g>
		<path style="fill:#AE312F;" d="M418.035,292.949c2.404-3.021,4.979-5.643,7.32-8.442c1.2-1.368,2.326-2.785,3.337-4.264    c1-1.494,1.918-3.022,2.535-4.868c0.392,1.931-0.113,3.975-0.894,5.767c-0.77,1.831-1.913,3.439-3.155,4.92    c-1.274,1.459-2.657,2.804-4.194,3.955C421.463,291.179,419.84,292.219,418.035,292.949z"/>
	</g>
	<g style="opacity:0.48;">
		<g>
			<path style="fill:#AE312F;" d="M371.42,285.946c-4.185,2.241-7.929,4.795-11.179,7.928c-1.633,1.545-3.161,3.212-4.533,5.027     c-1.436,1.781-2.622,3.742-3.986,5.724c0.431-2.34,1.202-4.663,2.423-6.753c1.133-2.147,2.711-4.038,4.446-5.737     c1.765-1.675,3.768-3.099,5.942-4.163C366.691,286.898,369.02,286.112,371.42,285.946z"/>
		</g>
	</g>
	<g>
		<g>
			<polygon style="fill:#FF5555;" points="241.416,275.369 239.205,278.486 237.839,280.43 236.489,282.33 236.266,282.641      231.547,282.27 227.406,281.929 222.656,281.558 222.315,280.875 221.825,279.881 221.143,278.53 219.555,275.339      218.887,273.989 217.284,270.783 217.298,270.768 218.397,268.898 225.779,253.941 229.147,254.189 239.739,262.65      239.932,264.134 240.407,267.681 240.6,269.18 241.06,272.712 241.268,274.197    "/>
		</g>
		<g>
			<polygon style="fill:#FF5555;" points="249.653,374.896 246.314,378.414 244.28,380.551 240.14,384.914 238.106,387.052      237.528,387.66 235.494,389.797 229.142,396.476 225.61,392.691 224.482,391.474 224.155,391.133 223.027,389.916      220.727,387.452 219.584,386.235 216.824,383.267 215.681,382.05 212.757,378.904 211.629,377.701 207.593,373.367      207.399,373.16 207.622,371.824 208.706,365.116 208.958,363.498 209.848,358.021 210.1,356.404 210.991,350.942      211.243,349.339 212.134,343.863 212.401,342.23 213.276,336.783 213.544,335.151 214.419,329.689 214.686,328.071      215.414,323.604 215.666,321.986 216.289,318.113 216.556,316.495 217.18,312.606 217.447,311.003 218.07,307.115      218.338,305.497 218.961,301.624 219.228,299.991 219.852,296.147 220.104,294.514 220.727,290.656 220.994,289.023      221.618,285.179 221.885,283.547 222.315,280.875 222.508,279.688 222.552,279.391 223.562,279.376 236.043,279.213      236.073,279.406 236.281,280.875 236.489,282.33 236.786,284.408 236.993,285.892 237.498,289.439 237.706,290.908      238.21,294.44 238.418,295.924 238.923,299.472 239.131,300.956 239.635,304.503 239.858,305.972 240.348,309.519      240.57,311.003 241.075,314.551 241.283,316.035 241.861,320.116 242.069,321.6 242.781,326.602 242.989,328.086      243.702,333.073 243.909,334.557 244.622,339.559 244.844,341.043 245.542,346.03 245.765,347.514 246.477,352.515 246.685,354      247.56,360.129 247.768,361.613 248.51,366.897 248.733,368.381 249.267,372.225 249.49,373.709    "/>
		</g>
		<g>
			<polygon style="fill:#AE312F;" points="239.932,264.134 217.298,270.768 218.397,268.898 239.739,262.65    "/>
		</g>
		<g>
			<polygon style="fill:#AE312F;" points="240.6,269.18 219.555,275.339 218.887,273.989 240.407,267.681    "/>
		</g>
		<g>
			<polygon style="fill:#AE312F;" points="241.268,274.197 223.562,279.376 222.508,279.688 221.825,279.881 221.143,278.53      241.06,272.712    "/>
		</g>
		<g>
			<polygon style="fill:#AE312F;" points="239.205,278.486 237.839,280.43 236.281,280.875 231.547,282.27 221.618,285.179      221.885,283.547 227.406,281.929 236.073,279.406    "/>
		</g>
		<g>
			<polygon style="fill:#AE312F;" points="236.993,285.892 220.727,290.656 220.994,289.023 236.786,284.408    "/>
		</g>
		<g>
			<polygon style="fill:#AE312F;" points="237.706,290.908 219.852,296.147 220.104,294.514 237.498,289.439    "/>
		</g>
		<g>
			<polygon style="fill:#AE312F;" points="238.418,295.924 218.961,301.624 219.228,299.991 238.21,294.44    "/>
		</g>
		<g>
			<polygon style="fill:#AE312F;" points="239.131,300.956 218.07,307.115 218.338,305.497 238.923,299.472    "/>
		</g>
		<g>
			<polygon style="fill:#AE312F;" points="239.858,305.972 217.18,312.606 217.447,311.003 239.635,304.503    "/>
		</g>
		<g>
			<polygon style="fill:#AE312F;" points="240.57,311.003 216.289,318.113 216.556,316.495 240.348,309.519    "/>
		</g>
		<g>
			<polygon style="fill:#AE312F;" points="241.283,316.035 215.414,323.604 215.666,321.986 241.075,314.551    "/>
		</g>
		<g>
			<polygon style="fill:#AE312F;" points="242.069,321.6 214.419,329.689 214.686,328.071 241.861,320.116    "/>
		</g>
		<g>
			<polygon style="fill:#AE312F;" points="242.989,328.086 213.276,336.783 213.544,335.151 242.781,326.602    "/>
		</g>
		<g>
			<polygon style="fill:#AE312F;" points="243.909,334.557 212.134,343.863 212.401,342.23 243.702,333.073    "/>
		</g>
		<g>
			<polygon style="fill:#AE312F;" points="244.844,341.043 210.991,350.942 211.243,349.339 244.622,339.559    "/>
		</g>
		<g>
			<polygon style="fill:#AE312F;" points="245.765,347.514 209.848,358.021 210.1,356.404 245.542,346.03    "/>
		</g>
		<g>
			<polygon style="fill:#AE312F;" points="246.685,354 208.706,365.116 208.958,363.498 246.477,352.515    "/>
		</g>
		<g>
			<polygon style="fill:#AE312F;" points="247.768,361.613 207.593,373.367 207.399,373.16 207.622,371.824 247.56,360.129    "/>
		</g>
		<g>
			<polygon style="fill:#AE312F;" points="248.733,368.381 212.757,378.904 211.629,377.701 248.51,366.897    "/>
		</g>
		<g>
			<polygon style="fill:#AE312F;" points="249.49,373.709 216.824,383.267 215.681,382.05 249.267,372.225    "/>
		</g>
		<g>
			<polygon style="fill:#AE312F;" points="246.314,378.414 244.28,380.551 220.727,387.452 219.584,386.235    "/>
		</g>
		<g>
			<polygon style="fill:#AE312F;" points="237.528,387.66 235.494,389.797 225.61,392.691 224.482,391.474    "/>
		</g>
	</g>
	<g>
		<path style="fill:#FFFFFF;" d="M192.761,243.92c0,0,26.118,8.483,36.386,10.268l-12.458,18.185    C216.689,272.374,198.564,249.278,192.761,243.92z"/>
	</g>
	<g>
		<path style="fill:#FFFFFF;" d="M229.147,254.189l12.264,21.187c0,0,33.275-13.066,49.794-19.024    C291.204,256.352,249.698,257.578,229.147,254.189z"/>
	</g>
	<g>
		<path style="fill:#AE312F;" d="M362.182,368.485c-0.49,6.426-1.113,12.689-1.811,18.73c-6.872,2.375-14.441,3.221-21.431,3.31    c-4.942,0.059-18.107,1.098-19.338-5.773c-0.638-3.547,2.983-6.367,6.352-7.703c6.189-2.449,12.957-3.013,19.516-4.185    C351.154,371.869,356.735,370.399,362.182,368.485z"/>
	</g>
	<g>
		<path style="fill:#AE312F;" d="M358.605,400.809c-0.891,6.115-1.84,11.948-2.835,17.454c-1.988-0.223-3.963-0.624-5.877-1.217    c-0.965-0.297-1.93-0.638-2.82-1.113c-0.653-0.326-1.277-0.727-1.825-1.202c-0.698-0.608-1.292-1.351-1.677-2.182    c-0.356-0.742-0.549-1.544-0.52-2.375c0.134-2.909,2.924-4.972,5.64-6.07C352,402.754,355.384,401.997,358.605,400.809z"/>
	</g>
	<g>
		<path style="fill:#AE312F;" d="M354.093,427.109c-1.439,7.362-2.924,13.981-4.304,19.68c-0.534,0.074-1.069,0.119-1.603,0.148    c-3.102,0.193-6.204-0.089-9.202-0.965c-3.562-1.054-7.317-3.666-7.302-7.391c0.03-2.627,2.034-4.898,4.378-6.115    c2.33-1.202,5.002-1.573,7.569-2.122c1.811-0.386,3.621-0.846,5.402-1.41C350.754,428.43,352.445,427.821,354.093,427.109z"/>
	</g>
	<g>
		<path style="fill:#AE312F;" d="M362.939,262.175c-0.371,0.208-0.727,0.401-1.098,0.594c-2.627,1.395-5.284,2.746-7.97,4.052    c-2.657,1.276-6.04,2.449-8.356,0.608c-1.514-1.187-1.974-3.354-1.573-5.224c0.416-1.87,1.544-3.488,2.79-4.942    c2.182-2.538,4.749-4.853,7.584-6.515C357.121,253.641,360.148,257.396,362.939,262.175z"/>
	</g>
	<g>
		<path style="fill:#AE312F;" d="M416.442,324.732c-3.369,4.185-7.213,8.207-11.532,11.829c-0.831-0.445-1.633-0.92-2.39-1.455    c-3.918-2.701-6.961-6.486-9.736-10.344c-1.514-2.122-3.042-4.616-2.479-7.168c0.683-3.028,4.26-4.675,7.332-4.275    c3.087,0.401,5.729,2.33,8.133,4.289C409.393,320.561,412.747,322.773,416.442,324.732z"/>
	</g>
	<g>
		<path style="fill:#AE312F;" d="M383.331,348.864c-7.03,2.7-20.214,3.532-20.214,3.681c-2.82,0.297-5.417,0.356-7.822,0.237    c-0.148-0.401-0.253-0.816-0.327-1.247c-0.341-1.9-0.208-3.948,0.015-5.892c0.549-4.779,1.544-9.721,4.497-13.521    c1.009-1.306,2.389-2.494,3.948-2.879c0.401-0.104,0.831-0.148,1.261-0.119c1.024,0.074,1.989,0.52,2.879,1.054    c4.482,2.761,7.05,7.703,9.944,12.111c1.425,2.167,3.027,4.274,5.001,5.966C382.767,348.478,383.049,348.671,383.331,348.864z"/>
	</g>
	<g>
		<path style="fill:#AE312F;" d="M180.432,436.622c-0.638,2.597-3.799,3.517-6.456,3.77c-2.538,0.237-5.09,0.312-7.614,0.193    c-1.603-4.571-3.028-9.187-4.319-13.832c3.369,1.38,6.872,2.464,10.433,3.221c1.915,0.401,3.874,0.742,5.521,1.766    C179.646,432.778,180.893,434.737,180.432,436.622z"/>
	</g>
	<g>
		<path style="fill:#AE312F;" d="M171.779,408.943c-0.163,2.582-2.033,4.853-4.348,6.026c-2.301,1.172-4.987,1.41-7.569,1.306    c-0.163,0-0.312-0.015-0.475-0.03c-1.618-7.005-2.939-14.085-4.007-21.209c4.393,0.638,8.905,3.636,12.066,6.204    C169.806,403.184,171.958,405.885,171.779,408.943z"/>
	</g>
	<g>
		<g>
			<g>
				<path style="fill:#FF9C3D;" d="M101.985,138.547c0.011,1.785,0.249,3.506,0.682,5.161l1.245,0.476      c-0.498-1.666-0.79-3.419-0.844-5.226L101.985,138.547z M101.975,138.319c0,0.076,0,0.152,0.011,0.227      c0.011,1.785,0.249,3.506,0.682,5.161c0.098,0.444,0.227,0.877,0.368,1.298c1.212,3.733,3.42,7.023,6.308,9.554      c1.991,1.742,4.296,3.138,6.828,4.069h0.011c2.315,0.844,4.804,1.309,7.412,1.309c11.924,0,21.619-9.695,21.619-21.62      c0-8.472-4.902-15.82-12.021-19.358c-2.889-1.45-6.146-2.261-9.598-2.261c-0.065,0-0.119,0-0.184,0.011      c-2.11,0.011-4.144,0.335-6.059,0.92c-0.541,0.162-1.082,0.346-1.601,0.552c-2.002,0.779-3.863,1.85-5.518,3.17      c-0.336,0.249-0.649,0.519-0.963,0.801c-1.31,1.158-2.478,2.467-3.474,3.917c-0.205,0.303-0.411,0.606-0.595,0.92      c-0.866,1.385-1.569,2.868-2.088,4.436c-0.119,0.336-0.227,0.682-0.324,1.039c-0.454,1.58-0.725,3.235-0.79,4.945      C101.985,137.714,101.975,138.017,101.975,138.319z M103.067,138.958c-0.011-0.216-0.011-0.422-0.011-0.638      c0-0.173,0-0.346,0.011-0.508c0.032-1.71,0.292-3.376,0.736-4.956c0.086-0.346,0.195-0.703,0.314-1.039      c0.53-1.569,1.233-3.062,2.11-4.436c0.195-0.314,0.4-0.628,0.617-0.92c1.017-1.439,2.218-2.749,3.571-3.874      c0.325-0.271,0.66-0.53,0.996-0.79c1.775-1.31,3.755-2.337,5.897-3.019c0.584-0.195,1.168-0.357,1.774-0.487      c1.45-0.336,2.965-0.509,4.512-0.509c3.257,0,6.352,0.768,9.089,2.132c1.634,0.801,3.138,1.818,4.48,3.008      c4.274,3.766,6.968,9.273,6.968,15.398c0,11.329-9.219,20.537-20.537,20.537c-1.19,0-2.37-0.097-3.506-0.303      c-1.277-0.216-2.51-0.552-3.7-1.006h-0.011c-5.54-2.078-9.944-6.503-12.022-12.043c-0.162-0.433-0.314-0.877-0.444-1.32      C103.413,142.518,103.121,140.765,103.067,138.958z M101.985,138.547c0.011,1.785,0.249,3.506,0.682,5.161l1.245,0.476      c-0.498-1.666-0.79-3.419-0.844-5.226L101.985,138.547z"/>
			</g>
			<g>
				<path style="fill:#FF9C3D;" d="M97.289,136.967c0,1.645,0.346,3.354,0.952,5.064c0.152,0.454,0.336,0.898,0.53,1.353      c2.792,6.427,9.024,12.563,14.37,14.424l0.325,0.108c1.558,0.541,1.991,0.703,2.705,0.714h0.011      c0.065,0.011,0.13,0.011,0.195,0.011c0.195,0,0.411-0.011,0.671-0.022c0.433-0.011,1.006-0.032,1.861-0.032      c0.389,0,0.79-0.011,1.179-0.032c-1.277-0.216-2.51-0.552-3.7-1.006h-0.011c-0.671,0-1.006-0.108-2.564-0.649l-0.325-0.119      c-1.342-0.465-2.748-1.234-4.144-2.218c-3.56-2.51-7.044-6.481-9.1-10.615c-0.227-0.466-0.444-0.931-0.627-1.396      c-0.758-1.818-1.212-3.646-1.245-5.367v-0.216c0-0.314,0.011-0.627,0.022-0.931c0.075-1.71,0.357-3.354,0.833-4.923      c0.097-0.346,0.216-0.693,0.335-1.028c0.552-1.558,1.298-3.041,2.197-4.404c0.205-0.314,0.422-0.617,0.638-0.909      c1.06-1.439,2.305-2.727,3.7-3.831c0.325-0.27,0.671-0.53,1.017-0.768c1.84-1.298,3.917-2.305,6.135-2.932      c0.617-0.184,1.255-0.336,1.894-0.444c1.222-0.238,2.478-0.357,3.765-0.357c1.612,0,3.105,0.087,4.501,0.271      c3.409,0.433,6.298,1.439,9.154,3.127c0.043,0.021,0.087,0.054,0.119,0.076c1.634,0.801,3.138,1.818,4.48,3.008      c-1.006-1.58-2.305-2.965-3.971-3.96c-0.022-0.022-0.054-0.043-0.076-0.054c-4.209-2.489-8.451-3.549-14.207-3.549      c-1.937,0-3.809,0.26-5.594,0.736c-0.573,0.151-1.136,0.324-1.688,0.519c-2.067,0.747-3.993,1.796-5.713,3.095      c-0.336,0.249-0.66,0.519-0.974,0.801c-1.353,1.125-2.565,2.435-3.592,3.874c-0.216,0.292-0.422,0.606-0.617,0.909      c-0.887,1.374-1.623,2.846-2.186,4.404c-0.119,0.335-0.227,0.682-0.336,1.028c-0.476,1.569-0.779,3.214-0.876,4.913      c-0.022,0.379-0.043,0.757-0.033,1.136C97.289,136.837,97.289,136.902,97.289,136.967z"/>
			</g>
			<g>
				<path style="fill:#FF9C3D;" d="M111.626,116.614l1.623,0.628l2.499,0.941l1.558,0.595c0.584-0.195,1.168-0.357,1.774-0.487      l-1.731-0.66l-2.207-0.833l-1.829-0.703C112.741,116.246,112.178,116.419,111.626,116.614z"/>
			</g>
			<g>
				<path style="fill:#FF9C3D;" d="M104.939,120.509l1.158,0.433l3.171,1.212l1.147,0.433c0.325-0.271,0.66-0.53,0.996-0.79      l-1.18-0.444l-3.116-1.18l-1.201-0.465C105.577,119.957,105.253,120.228,104.939,120.509z"/>
			</g>
			<g>
				<path style="fill:#FF9C3D;" d="M100.73,125.292l1.028,0.389l3.441,1.309l1.028,0.39c0.195-0.314,0.4-0.628,0.617-0.92      l-1.05-0.39l-3.397-1.298l-1.05-0.39C101.13,124.675,100.925,124.989,100.73,125.292z"/>
			</g>
			<g>
				<path style="fill:#FF9C3D;" d="M98.209,130.724l1.017,0.389l3.56,1.352l1.017,0.39c0.086-0.346,0.195-0.703,0.314-1.039      l-1.006-0.39l-3.549-1.342l-1.017-0.389C98.425,130.031,98.317,130.377,98.209,130.724z"/>
			</g>
			<g>
				<path style="fill:#FF9C3D;" d="M97.3,136.772l1.071,0.411l3.614,1.363l1.082,0.411c-0.011-0.216-0.011-0.422-0.011-0.638      c0-0.173,0-0.346,0.011-0.508l-1.071-0.4l-3.603-1.374l-1.06-0.4C97.311,136.015,97.289,136.394,97.3,136.772z"/>
			</g>
			<g>
				<path style="fill:#FF9C3D;" d="M98.241,142.031c0.152,0.454,0.336,0.898,0.53,1.353l1.472,0.563l2.792,1.06l1.32,0.498      c-0.162-0.433-0.314-0.877-0.444-1.32l-1.245-0.476l-3.051-1.158L98.241,142.031z"/>
			</g>
		</g>
		<g>
			<path style="fill:#FF9C3D;" d="M123.021,140.291c-0.932-0.317-1.78-0.641-2.544-0.97c-0.764-0.329-1.422-0.726-1.972-1.193     c-0.553-0.466-0.981-1.022-1.288-1.67c-0.309-0.646-0.461-1.436-0.461-2.37c0-1.442,0.445-2.656,1.335-3.642     c0.89-0.986,2.164-1.659,3.818-2.02v-2.576c0.19-0.042,0.487-0.096,0.89-0.159s0.817-0.095,1.241-0.095     c0.827,0,1.473,0.143,1.939,0.429c0.466,0.287,0.7,0.897,0.7,1.829v0.413c1.316,0.171,2.37,0.509,3.167,1.019     c0.794,0.508,1.192,1.209,1.192,2.099c0,0.553-0.126,1.024-0.382,1.416c-0.255,0.393-0.562,0.727-0.923,1.002     c-0.466-0.296-1.091-0.556-1.876-0.78c-0.785-0.223-1.644-0.334-2.576-0.334c-0.956,0-1.656,0.133-2.101,0.398     c-0.445,0.265-0.668,0.6-0.668,1.001c0,0.319,0.138,0.579,0.415,0.78c0.274,0.201,0.689,0.388,1.239,0.556l1.686,0.541     c1.993,0.636,3.525,1.447,4.598,2.433c1.07,0.986,1.607,2.328,1.607,4.024c0,1.443-0.457,2.668-1.368,3.675     c-0.913,1.007-2.248,1.691-4.01,2.052v2.545c-0.19,0.042-0.487,0.096-0.89,0.159c-0.403,0.063-0.817,0.095-1.241,0.095     c-0.827,0-1.473-0.143-1.939-0.429c-0.468-0.287-0.7-0.897-0.7-1.829v-0.319c-0.764-0.084-1.459-0.223-2.085-0.413     s-1.166-0.434-1.621-0.732c-0.457-0.296-0.813-0.646-1.066-1.049c-0.255-0.403-0.382-0.86-0.382-1.368     c0-0.615,0.178-1.139,0.541-1.575c0.358-0.434,0.752-0.768,1.176-1.002c0.593,0.467,1.321,0.87,2.178,1.21     c0.86,0.34,1.799,0.508,2.815,0.508c1.04,0,1.771-0.158,2.197-0.477c0.424-0.319,0.635-0.689,0.635-1.114     c0-0.424-0.169-0.747-0.508-0.97c-0.34-0.224-0.817-0.44-1.431-0.652L123.021,140.291z"/>
		</g>
	</g>
	<g>
		<path style="fill:#6CE0C0;" d="M271.889,64.622c-1.245-0.5-1.006-0.491-1.705,0.55c-0.851,1.269-1.68,2.552-2.408,3.66    c-1.904-0.165-3.683-0.319-5.521-0.479c-0.707-1.682-1.445-3.441-2.188-5.211c-2.239,0.317-4.294,1.036-6.308,2.008    c0.361,1.74,0.709,3.436,1.069,5.131c0.065,0.304,0.047,0.489-0.25,0.714c-1.163,0.882-2.304,1.794-3.403,2.754    c-0.317,0.277-0.522,0.279-0.865,0.138c-1.417-0.585-2.847-1.136-4.267-1.715c-0.353-0.144-0.58-0.131-0.838,0.214    c-1.158,1.55-1.943,3.281-2.584,5.091c-0.127,0.358,0.046,0.512,0.317,0.685c1.254,0.803,2.488,1.636,3.747,2.43    c0.363,0.229,0.474,0.427,0.405,0.895c-0.238,1.615-0.383,3.243-0.578,4.997c-1.529,0.642-3.265,1.371-5,2.099    c0.313,2.282,0.94,4.391,1.965,6.399c1.896-0.403,3.741-0.795,5.412-1.15c1.051,1.196,2,2.333,3.019,3.403    c0.385,0.405,0.455,0.711,0.235,1.216c-0.586,1.344-1.12,2.71-1.661,4.073c-0.107,0.269-0.319,0.584,0.102,0.802    c1.712,0.889,3.423,1.78,5.135,2.669c0.364,0.189,0.592,0.065,0.809-0.278c0.808-1.276,1.672-2.518,2.458-3.807    c0.303-0.497,0.633-0.519,1.148-0.453c1.271,0.162,2.552,0.3,3.83,0.32c0.551,0.009,0.754,0.151,0.944,0.64    c0.608,1.571,1.279,3.118,1.911,4.641c1.366-0.01,5.079-1.2,6.414-2.043c-0.363-1.674-0.712-3.371-1.108-5.056    c-0.099-0.422,0.025-0.604,0.346-0.86c1.037-0.827,2.015-1.727,3.044-2.565c0.173-0.141,0.526-0.22,0.725-0.144    c1.265,0.485,2.513,1.015,3.761,1.545c0.697,0.296,0.978,0.418,1.244,0.237l2.877-5.439c0.004-0.441-0.3-0.647-1.122-1.194    c-1.017-0.677-2.058-1.317-3.061-2.013c-0.183-0.127-0.346-0.455-0.327-0.673c0.122-1.409,0.325-2.812,0.437-4.222    c0.033-0.41,0.124-0.626,0.517-0.782c1.382-0.551,2.75-1.139,4.122-1.715c0.223-0.093,0.442-0.195,0.826-0.364    c-0.671-2.108-1.335-4.192-2.016-6.328c-1.769,0.364-3.383,0.668-4.981,1.038c-0.564,0.13-0.872,0.067-1.239-0.454    c-0.75-1.065-1.647-2.024-2.454-3.05c-0.124-0.157-0.179-0.476-0.109-0.661c0.535-1.412,1.068-2.827,1.687-4.203    c0.297-0.66,0.145-1.014-0.448-1.316L271.889,64.622z M272.161,89.713c-2.572,4.861-8.597,6.717-13.458,4.145l0,0    c-4.861-2.572-6.717-8.597-4.145-13.458l0,0c2.572-4.861,8.597-6.717,13.458-4.145l0,0    C272.877,78.827,274.732,84.852,272.161,89.713L272.161,89.713z"/>
	</g>
	<g>
		<path style="fill:#6CE0C0;" d="M331.911,53.87c0.058,0.535-0.168,1.088-0.632,1.359c-0.383,0.224-0.853,0.314-1.338,0.407    c-1.293,0.251-2.49,0.482-3.67,0.746c-0.148,0.497-0.283,0.992-0.419,1.486c-0.176,0.632-0.349,1.265-0.543,1.89    c0.862,0.79,1.698,1.583,2.53,2.373l1.658,1.567l-0.344,0.776c-0.731,1.64-3.307,4.846-4.595,5.718l-0.658,0.446l-1.794-1.162    c-0.988-0.637-1.991-1.281-2.972-1.951c-1.216,0.761-2.384,1.364-3.389,1.863c-0.009,0.004-0.019,0.007-0.026,0.008    c0.035,0.843,0.047,1.657,0.056,2.471c0.007,0.628,0.014,1.255,0.035,1.883c0.037,1.265-0.792,1.812-1.579,1.902l-5.75,0.656    c-0.054,0.007-0.124,0.012-0.208,0.012c-0.482,0-1.38-0.18-1.618-1.477l-0.112-0.518c-0.281-1.246-0.56-2.492-0.796-3.746    c-1.105-0.249-2.101-0.512-3.134-0.786l-0.616-0.16l-3.984,4.079l-0.799-0.433c-2.042-1.113-3.85-2.548-5.527-4.389l-0.628-0.691    l3.087-4.657l-0.33-0.612c-0.557-1.029-1.091-2.02-1.588-3.026c-0.799,0.021-1.553,0.032-2.307,0.042l-1.972,0.035    c-0.023,0-0.044,0-0.066,0c-1.246,0-1.644-0.796-1.771-1.278c-0.597-2.266-0.834-4.156-0.747-5.95    c0.023-0.539,0.253-1.491,1.527-1.755l1.979-0.423c0.766-0.165,1.534-0.331,2.302-0.488c0.34-1.243,0.721-2.456,1.129-3.657    l-4.223-4.047l0.482-0.817c1.293-2.191,2.71-3.961,4.335-5.41l0.682-0.608l4.897,3.156l3.581-1.967l-0.005-0.36    c-0.016-1.031-0.035-2.142-0.04-3.252l-0.007-0.399c-0.044-1.47,0.557-1.855,1.836-2.123l4.919-0.535    c1.333-0.149,2.204,0.504,2.431,1.814c0.234,1.339,0.551,2.668,0.87,3.995c1.173,0.349,2.365,0.636,3.501,1.061    c0.885-0.924,1.693-1.734,2.544-2.586l1.785-1.795l6.888,5.358l-1.682,2.67c-0.557,0.847-1.117,1.692-1.689,2.53    c0.363,0.648,0.682,1.25,1.002,1.851c0.26,0.491,0.52,0.981,0.789,1.467c0.649,0.004,1.305-0.011,1.956-0.025l1.433-0.023    c0.876-0.011,1.599-0.013,2.162,0.41c0.3,0.226,0.456,0.597,0.496,0.971L331.911,53.87z M304.404,32.932l0.005,0.18    c0.005,1.101,0.023,2.202,0.04,3.224l0.026,1.806l-6.099,3.349l-4.544-2.928c-0.984,0.974-1.867,2.086-2.712,3.413l3.059,2.929    c0.245,0.237,1.043,1.001,0.323,2.387c-0.491,0.946-0.873,1.951-0.967,3.013c-0.106,1.2-0.64,1.877-1.668,2.086    c-0.831,0.17-1.661,0.349-2.49,0.528l-1.632,0.349c-0.019,1.301,0.159,2.688,0.553,4.306l1.586-0.027    c0.822-0.012,1.642-0.022,2.462-0.048c0.977-0.047,1.553,0.358,1.953,1.182c0.504,1.034,1.052,2.049,1.625,3.108l0.622,1.158    c0.24,0.447,0.215,0.99-0.066,1.413l-2.381,3.59c1.087,1.096,2.234,2.011,3.48,2.772l2.972-3.042    c0.433-0.443,1.071-0.621,1.671-0.464l1.002,0.261c1.042,0.275,2.047,0.542,3.059,0.761c1.024,0.22,1.614,0.813,1.801,1.813    c0.237,1.257,0.515,2.504,0.796,3.751l0.009,0.047l4.506-0.514c-0.009-0.486-0.016-0.961-0.021-1.438    c-0.009-0.84-0.021-1.68-0.059-2.52c-0.07-1.424,0.93-1.922,1.358-2.135c0.995-0.495,2.159-1.094,3.239-1.788    c0.869-0.559,1.628-0.554,2.466,0.021c0.998,0.683,2.017,1.339,3.021,1.987l0.386,0.248c0.862-0.847,2.087-2.387,2.773-3.486    l-0.372-0.352c-0.888-0.842-1.78-1.689-2.691-2.517c-0.841-0.764-0.707-1.588-0.532-2.141c0.208-0.658,0.389-1.32,0.572-1.983    c0.166-0.597,0.33-1.194,0.511-1.786c0.164-0.541,0.698-1.178,1.405-1.336c1.295-0.297,2.607-0.552,3.918-0.806    c0.075-0.014,0.143-0.027,0.204-0.037l-0.494-4.486c-0.003-0.003-0.005-0.004-0.008-0.007l-1.868,0.031    c-0.764,0.016-1.525,0.032-2.286,0.022c-0.658-0.007-1.365-0.42-1.679-0.983c-0.326-0.577-0.639-1.168-0.951-1.758    c-0.342-0.644-0.684-1.289-1.047-1.922c-0.166-0.29-0.668-1.168,0.042-2.2c0.616-0.894,1.213-1.799,1.81-2.703l0.513-0.776    l-3.516-2.733l-0.29,0.293c-0.864,0.865-1.686,1.686-2.48,2.532c-0.475,0.5-1.253,1.111-2.574,0.615    c-0.719-0.268-1.459-0.474-2.199-0.683c-0.499-0.139-0.995-0.279-1.485-0.434c-0.593-0.186-1.127-0.754-1.265-1.349    c-0.354-1.46-0.689-2.856-0.942-4.264L304.404,32.932z M325.991,56.445c-0.002,0.001-0.005,0.002-0.009,0.002    C325.987,56.447,325.989,56.446,325.991,56.445z M326.343,56.14c-0.002,0.011-0.005,0.02-0.009,0.03    C326.338,56.16,326.34,56.151,326.343,56.14z M325.326,46.66c0.002,0.002,0.002,0.005,0.005,0.007    C325.329,46.665,325.329,46.663,325.326,46.66z M324.944,46.427c0.007,0,0.014,0,0.021,0    C324.958,46.427,324.951,46.427,324.944,46.427z M312.109,36.082c0,0.004,0,0.006,0.002,0.009    C312.109,36.088,312.109,36.086,312.109,36.082z M311.784,35.786c0,0.001,0.002,0.001,0.002,0.001S311.784,35.787,311.784,35.786z     M308.688,60.942c-3.977,0-7.411-2.971-7.849-6.966c-0.225-2.058,0.368-4.084,1.67-5.702c1.326-1.647,3.22-2.677,5.335-2.902    c4.291-0.457,8.233,2.64,8.703,6.919l0,0c0.225,2.056-0.368,4.081-1.67,5.701c-1.326,1.647-3.22,2.678-5.338,2.904    C309.254,60.926,308.971,60.942,308.688,60.942z M308.697,47.725c-0.197,0-0.398,0.011-0.6,0.032    c-1.476,0.158-2.797,0.875-3.719,2.021c-0.899,1.118-1.312,2.517-1.155,3.936c0.326,2.965,3.021,5.116,6.064,4.798    c1.478-0.158,2.799-0.877,3.722-2.024c0.899-1.12,1.312-2.517,1.155-3.935C313.857,49.784,311.468,47.725,308.697,47.725z"/>
	</g>
</g>















</svg>
