<?xml version="1.0" encoding="UTF-8"?>
<!-- Generator: Adobe Illustrator 25.2.3, SVG Export Plug-In . SVG Version: 6.00 Build 0)  -->
<svg xmlns="http://www.w3.org/2000/svg" xmlns:xlink="http://www.w3.org/1999/xlink" version="1.1" id="Capa_1" x="0px" y="0px" viewBox="0 0 512.079 512.079" style="enable-background:new 0 0 512.079 512.079;" xml:space="preserve" width="512" height="512">
<g>
	<path style="fill:#67DDBD;" d="M333.819,438.522c0.24,23.785-68.912,43.767-154.457,44.632   c-85.544,0.865-155.087-17.716-155.327-41.5c-0.241-23.785,68.912-43.767,154.457-44.631   C264.036,396.157,333.578,414.737,333.819,438.522z"/>
	<path style="fill:#67DDBD;" d="M339.459,485.853c0.109,10.814-31.33,19.898-70.222,20.291   c-38.892,0.393-70.508-8.054-70.617-18.868c-0.109-10.813,31.33-19.898,70.222-20.291   C307.733,466.593,339.35,475.04,339.459,485.853z"/>
	<path style="fill:#67DDBD;" d="M354.914,458.539c0.035,3.476-5.143,6.347-11.566,6.412c-6.423,0.065-11.658-2.7-11.693-6.177   c-0.035-3.476,5.143-6.346,11.566-6.411C349.644,452.298,354.879,455.063,354.914,458.539z"/>
	<g>
		<g>
			<g>
				<path style="fill:#67DDBD;" d="M466.936,103.876c-22.78-7.186-45.451-4.123-66.994,5.257      c-11.616,5.077-22.561,11.237-32.775,18.848c-4.102,3.056-9.177,6.346-12.444,10.373c0,0-16.632,20.579-8.395,21.44      c1.348,0.136,3.362-0.233,6.243-1.341c20.384-7.765,43.685,13.922,56.558,5.546c12.862-8.392,1.885-18.589,1.885-18.589      s13.586-6.67,44.469,10.707c9.761,5.507,21.457,8.456,32.636,6.574c8.449-1.432,17.279-5.682,21.441-12.06      c3.223-4.865,3.731-10.978-0.722-18.029C500.04,118.619,482.365,108.75,466.936,103.876z"/>
			</g>
			<g>
				<path style="fill:#98EDE3;" d="M509.561,150.631c-77.106-83.54-160.62,6.188-160.62,6.188l-2.614,2.976      c1.348,0.136,3.362-0.233,6.243-1.341c20.384-7.765,43.685,13.922,56.558,5.546c12.862-8.392,1.885-18.589,1.885-18.589      s13.586-6.67,44.469,10.707c9.761,5.507,21.457,8.456,32.636,6.574C496.569,161.259,505.399,157.009,509.561,150.631z"/>
			</g>
		</g>
		<g>
			<g>
				<g>
					<path style="fill:#FF993D;" d="M45.754,339.975l5.31,23.985c0,0-17.78,6.563-37.728-9.964       c-4.017-3.321-7.041-7.657-9.169-12.629c-3.62-8.413-4.694-18.635-3.779-28.759c1.193-13.544,5.967-26.909,12.947-35.6       c8.453-10.541,15.672-20.008,20.465-28.321c3.898-6.722,6.205-12.669,6.344-17.82c0.04-1.173-0.159-2.446-0.517-3.759       c-0.895-3.321-2.844-7.021-4.932-10.72c0,0-0.02,0,0-0.02c-5.131-9.129-11.058-18.297-3.898-22.295       c5.509-3.063,12.609-1.611,18.814,2.784c6.424,4.535,11.873,12.192,13.604,21.221c3.421,17.78-4.057,38.961-17.462,52.068       c-1.173,1.154-2.367,2.327-3.52,3.52c-4.912,4.992-9.586,10.302-13.206,16.269v0.02c-5.29,8.751-8.234,18.814-6.026,31.006       C27.059,343.396,45.754,339.975,45.754,339.975z"/>
				</g>
				<g style="opacity:0.2;">
					<path style="fill:#AA312F;" d="M45.754,339.975l5.31,23.985c0,0-17.78,6.563-37.728-9.964       c-4.017-3.321-7.041-7.657-9.169-12.629c-3.62-8.413-4.694-18.635-3.779-28.759c1.193-13.544,5.967-26.909,12.947-35.6       c8.453-10.541,15.672-20.008,20.465-28.321c3.898-6.722,6.205-12.669,6.344-17.82c0.04-1.173-0.159-2.446-0.517-3.759       c-0.895-3.321-2.844-7.021-4.932-10.72c0,0-0.02,0,0-0.02c-5.131-9.129-11.058-18.297-3.898-22.295       c5.509-3.063,12.609-1.611,18.814,2.784c6.424,4.535,11.873,12.192,13.604,21.221c3.421,17.78-4.057,38.961-17.462,52.068       c-1.173,1.154-2.367,2.327-3.52,3.52c-4.912,4.992-9.586,10.302-13.206,16.269v0.02c-5.29,8.751-8.234,18.814-6.026,31.006       C27.059,343.396,45.754,339.975,45.754,339.975z"/>
				</g>
			</g>
			<g>
				<path style="fill:#AA312F;" d="M39.231,197.554c1.293,8.433-1.969,14.956-4.535,18.814c-5.131-9.129-11.058-18.297-3.898-22.295      c5.509-3.063,12.609-1.611,18.814,2.784C44.143,198.588,39.231,197.554,39.231,197.554z"/>
			</g>
			<g>
				<path style="fill:#AA312F;" d="M48.379,245.485c-4.634,4.813-10.66,4.296-14.578,3.202c3.898-6.722,6.205-12.669,6.344-17.82      c0.04-1.173-0.159-2.446-0.517-3.759C43.984,230.37,54.366,239.26,48.379,245.485z"/>
			</g>
			<g>
				<path style="fill:#AA312F;" d="M42.234,273.667c-4.912,4.992-9.586,10.302-13.206,16.269c-1.79-4.813-2.764-10.461,0.776-13.425      C33.702,273.249,38.654,273.13,42.234,273.667z"/>
			</g>
			<g>
				<path style="fill:#AA312F;" d="M4.167,341.367c-3.62-8.413-4.888-17.961-3.779-28.759c3.54,2.148,7.916,5.688,9.745,10.72      C12.66,330.29,7.011,338.066,4.167,341.367z"/>
			</g>
		</g>
		<g>
			<g>
				<path style="fill:#67DDBD;" d="M356.272,115.415c-11.317,9.188-9.078,28.729-9.078,28.729s-5.58,1.621-10.154,2.854      c-3.938,1.054-7.478,0.676-7.06-4.395c0.895-10.939-10.083-24.005-28.798-51.77c-18.715-27.764-17.661-79.951,13.067-84.546      c0.04,0,0.099-0.02,0.139-0.02c30.569-4.455,29.514,35.362,29.156,49.821c-0.338,14.479,3.083,31.066,3.083,31.066      s12.112-10.243,20.943-3.878C376.399,89.64,367.569,106.226,356.272,115.415z"/>
			</g>
			<g>
				<path style="fill:#98EDE3;" d="M337.04,146.998c-3.938,1.054-7.478,0.676-7.06-4.395c0.895-10.939-10.083-24.005-28.798-51.77      c-18.715-27.764-17.661-79.951,13.067-84.546c0.04,0,0.099-0.02,0.139-0.02c-2.228,7.041-8.811,32.577,1.83,62.768      C327.792,101.891,336.781,123.708,337.04,146.998z"/>
			</g>
		</g>
		<g>
			<path style="fill:#FF993D;" d="M272.02,160.326c0,0,18.383-19.901,36.245-23.424c17.862-3.523,88.38,17.927,91.065,54.218     c2.685,36.291-56.561,122.599-116.804,169.028c-60.242,46.429-129.873,98.659-159.323,90.654     c-29.451-8.005,4.934-96.753,16.218-116.387C150.705,314.781,230.376,202.206,272.02,160.326z"/>
		</g>
		<g style="opacity:0.4;">
			<path style="fill:#E64949;" d="M272.02,160.326c0,0,18.383-19.901,36.245-23.424c17.862-3.523,88.38,17.927,91.065,54.218     c2.685,36.291-56.561,122.599-116.804,169.028c-60.242,46.429-129.873,98.659-159.323,90.654     c-29.451-8.005,4.934-96.753,16.218-116.387C150.705,314.781,230.376,202.206,272.02,160.326z"/>
		</g>
		<g>
			<path style="fill:#FF993D;" d="M313.731,362.529c-0.398,5.33-1.154,11.098-2.446,17.025c-1.054,4.893-2.486,9.904-4.356,14.837     c-1.949,5.131-4.415,10.203-7.478,15.016c-1.154,1.83-2.406,3.6-3.739,5.33c-1.512,1.969-3.242,3.838-5.151,5.609     c-14.24,13.285-38.603,21.102-64.498,22.633c0,0-7.18,14.18-20.008,12.669h-0.08c-0.259-0.04-0.517-0.08-0.776-0.139     c-1.79-0.398-3.454-0.751-5.31-2.784c-1.989-2.506-2.944-6.464-3.003-11.297c0.139-6.762,1.909-15.215,4.892-23.727     c0.696-1.969,1.194-3.938,1.551-5.907c4.674-13.942,0.935-27.665,0.159-41.805c-0.06-1.094-0.099-2.168-0.119-3.262     c-0.08-4.694,2.068-9.149,6.543-11.058c4.912-2.108,9.328,1.85,12.351,5.37c7.935,9.288,13.425,28.619,12.987,35.004     c0,0,56.941-40.97,77.923-61.575c0,0,0.855,5.688,0.994,14.439C314.228,352.883,314.148,357.517,313.731,362.529z"/>
		</g>
		<g style="opacity:0.2;">
			<path style="fill:#AA312F;" d="M223.676,402.345c-0.099,1.173-0.159,1.85-0.159,1.85c-0.716,24.821-10.009,52.698-18.317,51.312     c-2.033-0.339-3.998-0.98-5.31-2.784c-1.83-2.506-3.122-6.285-3.003-11.297c0.04-2.208,0.259-4.574,0.636-7.08     c0.776-5.191,2.247-10.899,4.256-16.647c0.658-1.861,1.034-3.795,1.545-5.697c1.467-5.462,2.39-11.01,2.303-16.707     c-0.053-3.507-0.357-7.005-0.726-10.492c-0.497-4.912-1.134-9.845-1.412-14.817c0.895-1.83,2.287-3.321,4.216-4.216     c4.077-1.889,7.737,1.671,10.243,4.833C224.551,378.956,224.034,396.598,223.676,402.345z"/>
		</g>
		<g>
			<g>
				<path style="fill:#FF993D;" d="M335.329,267.422c-4.614,6.961-11.515,12.709-18.993,16.388      c-11.098,5.43-27.307,10.799-43.556,15.075c-6.682,1.77-13.365,3.361-19.689,4.694c-12.45,2.605-23.528,4.256-30.569,4.395      c0,0,3.341,4.833,1.114,6.126c-2.247,1.293-5.668-4.395-5.668-4.395s2.108,8.214-2.864,7.776      c-3.918-0.338-5.509-5.469-6.006-7.657c-11.873,12.967-26.153,19.59-37.45,22.971c-11.297,3.361-19.61,3.5-19.61,3.5      c-6.623,0.159-10.66-0.438-10.66-0.438c-19.292,31.185-31.498,82.682-29.586,96.916c0.553,4.115,0.799,5.783,2.146,9.413      c-0.597,0.557-1.279,1.108-1.875,1.586c-14.598,11.873-42.283,12.052-59.367-17.203c-2.486-4.256-4.753-9.129-6.722-14.698      c-2.108-5.967-3.858-12.689-5.191-20.266c-0.04-0.179-0.06-0.358-0.08-0.517c-1.114-6.364-1.71-12.291-1.889-17.76      c-0.358-10.064,0.676-18.655,2.526-25.954c1.531-6.086,3.64-11.257,6.006-15.632c8.413-15.593,19.968-21.002,19.968-21.002      c0.199-7.538,1.054-14.618,2.407-21.221c1.173-5.748,2.725-11.138,4.574-16.189c1.75-4.853,3.759-9.387,5.986-13.624      c3.6-6.921,7.717-13.067,11.993-18.456c2.208-2.804,4.475-5.41,6.742-7.816c4.435-4.733,8.87-8.691,12.927-11.973      c6.742-5.43,12.49-8.93,15.672-10.7c-0.119-0.477-0.259-0.935-0.378-1.412c-2.924-11.734-2.307-24.065,0.994-36.416      c1.094-4.117,2.486-8.134,4.117-12.072c2.307-5.469,5.131-10.72,8.393-15.692c1.989-3.023,4.137-5.947,6.424-8.751      c6.245-7.558,13.564-14.24,21.698-19.69c4.356-2.924,8.93-5.489,13.703-7.637c0.557-0.259,1.134-0.497,1.69-0.756      c4.256-1.81,8.612-3.321,13.107-4.475c1.631-0.418,3.282-0.796,4.932-1.114c1.909-0.378,3.838-0.716,5.768-0.975      c1.969-0.278,3.918-0.477,5.887-0.636c9.049-0.676,18.178-0.02,26.988,2.088c0.259,0.06,0.497,0.119,0.756,0.199      c4.316,1.054,8.532,2.466,12.629,4.236c1.372,0.597,2.725,1.233,4.057,1.909c0.06,0.02,0.099,0.06,0.159,0.08      c3.361,1.71,6.583,3.659,9.666,5.807c0.239,0.159,0.457,0.318,0.676,0.477c0.855,0.617,1.691,1.233,2.526,1.87      c0.477,0.378,0.955,0.756,1.432,1.134c1.969,1.591,3.798,3.262,5.469,5.032c1.054,1.054,2.009,2.128,2.904,3.242      c3.341,3.998,6.046,8.393,8.095,13.047c2.446,5.589,3.958,11.595,4.475,17.86c0.06,0.537,0.1,1.054,0.139,1.591      c0,0.02,0,0.02,0,0.02c0.06,1.014,0.099,2.049,0.099,3.083c0,1.014-0.02,2.009-0.079,3.023c-0.04,0.815-0.08,1.631-0.159,2.446      c-0.02,0.537-0.079,1.074-0.139,1.611c-0.059,0.557-0.119,1.094-0.199,1.651c-0.915,6.961-2.586,13.902-4.932,20.644      c-3.739,10.839-9.169,21.161-15.851,30.23c-6.245,8.472-13.265,16.786-21.32,23.826c-0.418,0.358-0.836,0.736-1.253,1.074      c8.214-0.656,21.36-1.87,34.407-2.983c8.85-0.756,17.681-1.492,24.861-1.949c2.864-0.199,5.469-0.338,7.717-0.438      c5.27-0.239,11.973-0.895,17.164,0.716C345.114,246.002,339.526,261.078,335.329,267.422z"/>
			</g>
			<g>
				<path style="fill:#AA312F;" d="M273.597,181.03c0,0-8.32-14.313,2.323-27.928l3.188,7.356      C279.108,160.458,272.475,165.96,273.597,181.03z"/>
			</g>
			<g>
				<path style="fill:#AA312F;" d="M242.086,230.229c0,0-17.856-12.048-32.706,0.106l7.326,3.255      C216.707,233.59,227.027,228.971,242.086,230.229z"/>
			</g>
			<g>
				<g>
					<path style="fill:#AA312F;" d="M254.661,193.404c0,0,0.515-5.632,2.482-5.977c1.968-0.345,1.218,8.162-0.139,9.816       c-1.357,1.655-9.035-1.721-8.873-3.466C248.293,192.033,254.661,193.404,254.661,193.404z"/>
				</g>
				<g>
					<path style="fill:#AA312F;" d="M265.261,221.164c-0.566-2.093-1.216-4.157-1.833-6.233l-2.002-6.179       c-0.667-2.061-1.406-4.096-2.135-6.138c-0.763-2.034-1.511-4.056-2.441-6.071l-0.943,0.72c3.137,2.763,6.215,5.616,9.268,8.483       c1.522,1.44,3.03,2.895,4.491,4.396c1.489,1.476,2.917,3.009,4.311,4.585c-1.181-1.743-2.529-3.366-3.88-4.983       c-1.377-1.595-2.822-3.126-4.272-4.654c-2.914-3.044-5.975-5.927-9.121-8.738l-2.198-1.964l1.255,2.684       c0.893,1.911,1.67,3.942,2.45,5.948l2.33,6.048l2.321,6.059C263.67,217.136,264.432,219.161,265.261,221.164z"/>
				</g>
				<g style="opacity:0.48;">
					<path style="fill:#AA312F;" d="M259.061,193.342c0.331-0.211,0.663-0.412,0.994-0.606c3.671-2.141,8.003-2.93,12.071-1.484       c4.175,1.484,7.705,4.737,8.473,9.239c0.592,3.468-0.349,6.842-1.74,9.855c-2.665,5.773-5.72,11.32-11.11,14.975       c-1.956,1.326-4.157,2.401-6.611,2.749c-3.759,0.533-7.977-0.771-11.056-3.421c-3.079-2.65-4.947-6.582-4.897-10.309       C245.297,205.937,252.12,197.755,259.061,193.342z"/>
				</g>
			</g>
			<g style="opacity:0.48;">
				<path style="fill:#E64949;" d="M294.021,162.809c0,2.884-0.179,5.788-0.577,8.731c-0.915,6.961-2.586,13.902-4.932,20.644      c-4.813,0.159-9.467-3.242-10.68-7.558c-0.855-3.023-0.517-6.165-0.259-8.293c0.577-4.554,2.307-8.97,5.788-12.251      C285.688,161.914,290.083,161.536,294.021,162.809z"/>
			</g>
			<g style="opacity:0.48;">
				<path style="fill:#E64949;" d="M251.341,246.241c-1.034,0.915-2.108,1.81-3.182,2.685c-3.64,2.963-7.498,5.648-11.575,7.995      c-5.788,3.301-11.993,5.648-18.417,7.041c-4.296-5.847-3.938-15.235,0.179-20.366c2.645-3.321,6.165-5.27,8.572-6.523      c5.151-2.685,10.899-3.858,16.567-1.989C247.025,236.257,250.028,240.871,251.341,246.241z"/>
			</g>
			<g>
				<g>
					<path style="fill:#AA312F;" d="M222.532,252.808c-3.596,1.295-7.026,2.917-10.415,4.62c-3.372,1.735-6.703,3.553-9.865,5.7       c3.598-1.292,7.028-2.915,10.415-4.62C216.038,256.771,219.368,254.954,222.532,252.808z"/>
				</g>
				<g>
					<path style="fill:#AA312F;" d="M198.208,254.575c3.675-0.366,7.267-1.09,10.838-1.901c3.563-0.848,7.105-1.784,10.563-3.083       c-3.676,0.363-7.267,1.087-10.838,1.902C205.209,252.342,201.667,253.279,198.208,254.575z"/>
				</g>
				<g>
					<path style="fill:#AA312F;" d="M198.186,242.828c3.462,1.288,7.006,2.217,10.57,3.058c3.572,0.806,7.165,1.522,10.842,1.876       c-3.461-1.29-7.005-2.219-10.57-3.058C205.456,243.901,201.863,243.186,198.186,242.828z"/>
				</g>
			</g>
			<g>
				<g>
					<path style="fill:#AA312F;" d="M287.644,174.91c2.413-2.927,5.071-5.613,7.789-8.241c2.742-2.604,5.546-5.147,8.595-7.449       c-2.411,2.928-5.07,5.615-7.789,8.241C293.496,170.064,290.693,172.607,287.644,174.91z"/>
				</g>
				<g>
					<path style="fill:#AA312F;" d="M297.538,153.233c-1.586,3.248-3.473,6.324-5.433,9.358c-1.99,3.016-4.056,5.99-6.425,8.789       c1.584-3.25,3.471-6.325,5.433-9.358C293.105,159.007,295.171,156.034,297.538,153.233z"/>
				</g>
				<g>
					<path style="fill:#AA312F;" d="M286.745,150.046c0.007,3.5-0.344,6.978-0.782,10.452c-0.474,3.471-1.037,6.936-1.961,10.381       c-0.01-3.5,0.341-6.978,0.782-10.451C285.26,156.956,285.824,153.491,286.745,150.046z"/>
				</g>
			</g>
			<g>
				<path style="fill:#FF993D;" d="M268.882,114.815l-18.397,17.522l-0.617,0.597c0,0-1.392-0.497-3.401-1.372      c-0.08-0.02-0.139-0.04-0.199-0.06c-0.06-0.04-0.099-0.06-0.139-0.06c-0.04-0.02-0.06-0.04-0.099-0.06      c-7.299-3.122-27.36-11.368-17.734-16.42c12.629-6.583,21.572-29.92,34.678-27.593c1.73,0.298,2.963,2.307,3.819,5.091      C269.3,100.415,268.882,114.815,268.882,114.815z"/>
			</g>
			<g>
				<path style="fill:#AA312F;" d="M268.882,115.932c-1.73,8.532-5.151,13.087-8.85,15.394c-3.321,2.088-5.988,0.777-8.673,0.539      c-1.87-0.139-5.349,0.655-5.349,0.655s0.02,0,0.02-0.02c3.898-2.128,4.972-9.646,8.413-25.398      c0.08-0.318,0.139-0.636,0.219-0.935c3.6-14.757,12.424-12.701,12.424-12.701C270.092,103.554,268.882,115.932,268.882,115.932z      "/>
			</g>
			<g>
				<path style="fill:#FFFFFF;" d="M260.032,131.326c-3.321,2.088-6.862,2.367-9.546,2.128c-1.87-0.139-3.321-0.557-4.017-0.776      c-0.08-0.02-0.139-0.04-0.199-0.06c-0.06-0.02-0.099-0.04-0.139-0.06c-0.08-0.02-0.119-0.04-0.119-0.04s0.02,0,0.02-0.02      c3.898-2.128,4.972-9.646,8.413-25.398c0.08-0.318,0.139-0.636,0.219-0.935c2.009,1.014,4.873,3.202,4.475,7.319      c-0.537,5.867-5.668,10.78-6.305,11.376c0.577-0.378,5.31-3.679,6.344-2.426c1.094,1.333-4.057,5.171-4.057,5.171      S261.026,125.26,260.032,131.326z"/>
			</g>
			<g>
				<path style="fill:#AA312F;" d="M289.308,140.256c-0.696,1.77-1.551,3.5-2.864,4.455c-1.949,1.432-4.654,0.517-5.887-1.989      c-0.935-1.85-1.034-4.256-0.776-6.484c0.259-2.208,0.855-4.336,1.193-6.523c0.139-0.835,0.199-1.671,0.239-2.506      C284.554,131.206,287.259,135.602,289.308,140.256z"/>
			</g>
			<g>
				<path style="fill:#AA312F;" d="M278.309,123.967c-0.06,0.219-0.119,0.438-0.179,0.656c-0.438,1.412-1.273,3.043-2.764,3.122      c-0.975,0.06-1.85-0.636-2.407-1.452c-1.372-1.989-1.909-5.907-1.551-8.492c0.477,0.378,0.955,0.756,1.432,1.134      C274.809,120.526,276.639,122.197,278.309,123.967z"/>
			</g>
			<g>
				<path style="fill:#AA312F;" d="M213.453,161.914c-1.293,0.219-2.605-0.119-3.858-0.517c-6.106-1.909-11.675-5.231-17.323-8.214      c-13.842-7.359-28.639-12.908-43.874-16.507c-0.398-0.099-0.815-0.179-1.233-0.259c6.245-7.558,13.564-14.24,21.698-19.69      c4.634,1.591,9.049,3.838,13.325,6.285c10.959,6.305,21.122,14.001,30.151,22.872c2.367,2.347,4.773,4.932,5.469,8.214      C218.505,157.36,216.755,161.377,213.453,161.914z"/>
			</g>
			<g>
				<path style="fill:#AA312F;" d="M214.607,121.739c-2.009,4.793-7.538,2.884-10.461,0.815c-3.103-2.188-5.628-5.111-8.512-7.617      c-0.855-0.736-1.73-1.412-2.705-2.049c-2.745-1.83-5.668-3.282-8.671-4.554c4.256-1.81,8.612-3.321,13.106-4.475      c1.631-0.418,3.282-0.796,4.932-1.114c1.909-0.378,3.838-0.716,5.768-0.975c1.81,2.546,3.321,5.33,4.475,8.214      C213.771,113.108,216.118,118.16,214.607,121.739z"/>
			</g>
			<g>
				<path style="fill:#AA312F;" d="M168.983,159.169c-0.119,2.168-2.784,3.043-4.932,3.262c-10.541,1.173-21.241,0.298-31.702-1.571      c2.307-5.469,5.131-10.72,8.393-15.692c6.464,1.472,12.808,3.48,18.934,6.006c3.142,1.313,6.384,2.864,8.393,5.609      C168.585,157.499,169.022,158.314,168.983,159.169z"/>
			</g>
			<g>
				<path style="fill:#AA312F;" d="M180.856,196.977c-1.273,3.878-3.421,7.14-6.305,9.507c-2.665,2.228-6.289,1.646-10.088,2.124      c-3.242,0.418,0.8-24.24,2.073-29.908c1.691-7.398,3.58-12.848,6.901-12.848c4.375,0,6.325,8.413,7.2,11.515      c0.796,2.864,1.352,5.768,1.531,8.671C182.387,189.698,182.029,193.378,180.856,196.977z"/>
			</g>
			<g style="opacity:0.48;">
				<g>
					<path style="fill:#AA312F;" d="M173.446,165.853c-2.284-0.294-4.591-0.321-6.797,0.102c-2.2,0.383-4.31,1.2-5.984,2.555       c-1.682,1.357-2.884,3.146-3.694,5.192c-0.854,2.036-1.456,4.218-1.972,6.435c-1.127,4.403-1.881,9.024-3.75,13.377       c-0.925,2.157-2.081,4.297-3.797,5.982c-1.722,1.658-3.885,2.805-6.162,3.221c4.434-1.599,7.222-5.483,8.532-9.754       c1.45-4.253,2.144-8.788,3.247-13.3c0.565-2.25,1.192-4.525,2.18-6.708c0.974-2.173,2.444-4.322,4.513-5.671       c2.034-1.388,4.419-2.091,6.769-2.291C168.891,164.88,171.249,165.121,173.446,165.853z"/>
				</g>
			</g>
			<g>
				<path style="fill:#FFFFFF;" d="M174.551,206.484c-2.665,2.228-5.986,3.699-9.785,4.177c-3.242,0.418-8.035,0.617-11.138-0.835      c0.636,0.239,5.509,1.551,8.89-12.251c1.571-6.404,2.745-13.206,4.017-18.874c1.253,0.557,2.983,1.75,3.858,4.554      c1.352,4.276-3.023,13.604-3.321,14.28c0.398-0.418,4.455-4.415,6.364-2.546c2.029,1.969-1.631,5.887-1.631,5.887      S175.765,202.268,174.551,206.484z"/>
			</g>
			<g style="opacity:0.48;">
				<g>
					<path style="fill:#AA312F;" d="M241.72,103.412c-1.01,2.87-2.677,5.351-4.55,7.65c-1.925,2.244-4.129,4.356-6.886,5.665       c1.714-2.496,3.511-4.701,5.364-6.943C237.53,107.578,239.422,105.387,241.72,103.412z"/>
				</g>
			</g>
			<g>
				<path style="fill:#AA312F;" d="M168.505,257.359c-10.322-5.171-19.709-12.589-27.128-21.38c5.37,2.009,16.01,4.753,27.605,4.037      C183.64,239.121,187.24,254.097,168.505,257.359z"/>
			</g>
			<g>
				<path style="fill:#AA312F;" d="M194.261,265.095c-4.196-0.477-8.353-1.313-12.43-2.486c-0.975-0.278-1.949-0.577-2.904-0.915      c4.634-1.074,10.342-1.79,13.643,0.139C193.923,262.629,194.38,263.783,194.261,265.095z"/>
			</g>
		</g>
		<g>
			<path style="fill:#AA312F;" d="M100.103,338.462c0.927-0.839,2.032-1.406,3.194-1.811c1.162-0.419,2.415-0.617,3.703-0.579     c1.275,0.076,2.62,0.38,3.723,1.174c1.101,0.79,1.81,1.996,1.995,3.214c-0.937-0.848-1.798-1.473-2.753-1.859     c-0.966-0.354-1.986-0.507-3.046-0.543C104.779,337.945,102.555,338.314,100.103,338.462z"/>
		</g>
		<g>
			<path style="fill:#AA312F;" d="M220.327,374.63c0.155-1.019,0.767-1.952,1.65-2.593c0.877-0.669,2.061-0.952,3.171-0.869     c1.131,0.085,2.102,0.584,2.947,1.158c0.81,0.626,1.474,1.391,1.928,2.304c-0.513-0.122-0.954-0.301-1.391-0.471     c-0.439-0.161-0.875-0.291-1.275-0.467c-0.842-0.218-1.616-0.529-2.381-0.543C223.475,372.99,222.008,373.478,220.327,374.63z"/>
		</g>
		<g>
			<path style="fill:#FF993D;" d="M235.251,396.041c0,0,40.495-108.986,77.923-61.575l-27.355,57.9L235.251,396.041z"/>
		</g>
		<g>
			<path style="fill:#AA312F;" d="M333.983,269.321c-1.665-2.981-4.308-4.685-7.293-5.393c-1.476-0.436-3.061-0.524-4.66-0.67     l-2.444-0.071c-0.825,0.003-1.656,0.012-2.519-0.065c0.773-0.356,1.578-0.626,2.39-0.903c0.821-0.221,1.667-0.369,2.516-0.512     c1.711-0.173,3.484-0.168,5.216,0.297c1.713,0.451,3.409,1.28,4.661,2.601C333.1,265.894,333.96,267.592,333.983,269.321z"/>
		</g>
		<g>
			<path style="fill:#AA312F;" d="M339.988,256.487c-3.164-2.785-6.874-4.371-10.757-5.117c-1.949-0.367-3.947-0.474-5.972-0.484     c-1.013-0.007-2.029,0.092-3.064,0.104c-1.027,0.084-2.056,0.202-3.128,0.222c0.955-0.446,1.946-0.825,2.95-1.183     c1.027-0.244,2.058-0.561,3.121-0.691c2.122-0.315,4.308-0.292,6.457,0.077c2.132,0.437,4.223,1.196,6.041,2.4     C337.447,253,339.058,254.563,339.988,256.487z"/>
		</g>
		<g>
			<path style="fill:#AA312F;" d="M309.355,242.383c-1.372,2.029-3.421,3.52-5.151,5.251c-2.128,2.148-3.799,4.714-5.748,7.021     c-1.949,2.307-4.336,4.415-7.239,5.231c-2.924,0.815-6.444,0-8.075-2.546c-1.253-1.929-1.213-4.395-0.796-6.643     c0.418-2.227,1.154-4.375,2.148-6.364C293.345,243.576,302.176,242.84,309.355,242.383z"/>
		</g>
		<g>
			<path style="fill:#AA312F;" d="M272.78,282.438c-0.835,5.43-0.835,10.998,0,16.448c-6.682,1.77-13.365,3.361-19.69,4.694     c-4.515-9.367,1.571-23.806,9.109-29.693c4.177-3.282,10.561-3.858,11.118,2.824C273.477,278.619,273.079,280.529,272.78,282.438     z"/>
		</g>
		<g>
			<path style="fill:#AA312F;" d="M122.941,249.821c0.04,1.154-0.139,2.387-0.895,3.222c-0.955,1.054-2.546,1.193-3.938,0.994     c-3.938-0.617-7.1-3.5-9.725-6.484c-3.799-4.316-6.802-9.049-9.367-14.121c4.435-4.733,8.87-8.691,12.927-11.973     c1.949,5.827,4.316,11.515,7.06,17.005C120.813,242.084,122.842,245.784,122.941,249.821z"/>
		</g>
		<g>
			<path style="fill:#AA312F;" d="M98.021,263.186c-2.128,2.506-6.066,2.387-9.208,1.412c-3.162-0.994-6.066-2.705-8.532-4.893     c3.6-6.921,7.717-13.067,11.993-18.456c0.099,0.378,0.219,0.776,0.338,1.154c0.835,2.705,1.949,5.35,3.321,7.836     c1.114,2.049,2.426,4.037,3.063,6.285C99.652,258.771,99.532,261.396,98.021,263.186z"/>
		</g>
		<g>
			<path style="fill:#AA312F;" d="M85.69,292.76c-0.656,1.074-1.929,1.631-3.182,1.71c-1.253,0.08-2.486-0.259-3.679-0.656     c-3.202-1.054-6.265-2.506-9.109-4.296c1.173-5.748,2.725-11.138,4.574-16.189c0.119,0.119,0.219,0.239,0.338,0.358     c2.864,3.063,5.151,6.603,7.796,9.845C84.258,285.799,87.559,289.657,85.69,292.76z"/>
		</g>
		<g>
			<path style="fill:#FFC48F;" d="M216.596,415.492c-1.71,11.118-7.339,27.526-14.379,27.068c-3.023-0.219-4.316-3.998-4.694-8.214     c0.776-5.191,2.227-10.906,4.256-16.647c0.696-1.969,1.277-4.529,1.551-5.907c2.447-10.161,2.526-17.959,1.571-26.989     c1.651-3.142,3.779-5.39,6.384-4.654C218.366,382.159,218.326,404.394,216.596,415.492z"/>
		</g>
		<g>
			<path style="fill:#FFC48F;" d="M216.839,380.105c-0.605,1.641-0.313,3.815,1.256,4.806c2.876,1.816,3.951-3.759,2.697-5.492     C219.754,377.984,217.422,378.524,216.839,380.105z"/>
		</g>
		<g>
			<path style="fill:#FFC48F;" d="M207.693,374.88c0.212,0.428,0.463,0.821,0.719,1.148c3.49,4.451,8.484-5.348,2.254-6.407     c-1.547-0.263-2.898,0.646-3.41,2.098C206.913,372.692,207.198,373.88,207.693,374.88z"/>
		</g>
		<g style="opacity:0.2;">
			<path style="fill:#AA312F;" d="M132.209,335.222c-0.02,1.571-0.239,3.361-0.696,5.33c-0.199,1.014-0.477,2.068-0.796,3.162     c-1.154,3.978-2.963,8.592-5.35,13.783c-4.037,8.791-3.62,16.01-2.566,20.664c-1.671,4.375-3.162,9.109-4.455,13.783     c-2.824,10.163-4.714,20.008-5.509,25.159c-5.211-14.32-10.083-40.771-7.677-55.588c2.407-14.857,14.459-36.933,22.076-34.526     C130.678,328.082,132.249,330.886,132.209,335.222z"/>
		</g>
		<g style="opacity:0.48;">
			<g>
				<path style="fill:#AA312F;" d="M127.246,326.988c-3.169-0.95-6.55-0.854-9.659-0.007c-3.137,0.787-6.043,2.296-8.654,4.179      c-5.148,3.893-9.352,9.007-12.728,14.544c-3.385,5.548-5.703,11.695-7.101,18.054c-0.641,3.194-1.046,6.446-1.139,9.721      c-0.144,3.275,0.03,6.572,0.555,9.838c-0.967-3.175-1.345-6.509-1.53-9.834c-0.105-3.336,0.134-6.68,0.609-9.998      c1.077-6.617,3.437-13.045,6.905-18.809c3.531-5.694,7.928-10.971,13.564-14.769c2.846-1.821,5.984-3.25,9.315-3.873      c1.661-0.307,3.362-0.373,5.031-0.241C124.083,325.912,125.743,326.286,127.246,326.988z"/>
			</g>
		</g>
		<g style="opacity:0.48;">
			<g>
				<path style="fill:#AA312F;" d="M96.536,343.31c-0.099-4.482-0.204-8.824-0.703-13.131c-0.222-2.155-0.627-4.271-1.077-6.389      c-0.488-2.115-1.172-4.162-1.924-6.293c2.974,3.427,4.445,7.988,4.975,12.454c0.229,2.253,0.283,4.519,0.077,6.763      C97.684,338.954,97.299,341.186,96.536,343.31z"/>
			</g>
		</g>
		<g style="opacity:0.48;">
			<g>
				<path style="fill:#AA312F;" d="M132.188,334.488c3.492,0.426,6.989,0.687,10.49,0.727c3.496,0.095,6.993,0.034,10.472-0.218      c6.949-0.517,13.868-1.537,20.534-3.486c6.683-1.866,13.115-4.609,19.066-8.191c1.521-0.846,2.92-1.882,4.378-2.834      c1.374-1.065,2.818-2.052,4.119-3.214c2.766-2.145,5.18-4.687,7.646-7.199c-4.197,5.641-9.37,10.649-15.323,14.539      c-5.899,3.977-12.512,6.859-19.343,8.811c-6.842,1.948-13.932,2.936-21.008,3.095      C146.147,336.658,139.041,336.142,132.188,334.488z"/>
			</g>
		</g>
		<g>
			<path style="fill:#AA312F;" d="M313.731,362.529c-2.029,0.895-3.68,1.492-4.535,1.77c-5.946,1.929-12.052,3.719-18.198,3.262     c-2.009-0.159-4.435-0.935-4.933-3.222c-0.457-2.108,1.054-4.077,2.566-5.35c4.773-4.017,10.62-5.529,16.249-7.021     c3.222-0.855,6.265-1.83,9.288-3.063C314.228,352.883,314.148,357.517,313.731,362.529z"/>
		</g>
		<g>
			<path style="fill:#AA312F;" d="M311.284,379.553c-1.054,4.893-2.486,9.904-4.356,14.837c-4.276-0.278-8.532-1.034-12.729-1.591     c-3.222-0.438-6.603-2.943-4.594-6.762c1.134-2.168,3.54-3.301,5.827-4.097C300.565,380.17,305.895,379.215,311.284,379.553z"/>
		</g>
		<g>
			<path style="fill:#AA312F;" d="M299.451,409.406c-1.154,1.83-2.406,3.6-3.739,5.33c-1.512,1.969-3.242,3.838-5.151,5.609     c-3.162-1.432-6.106-3.262-8.552-5.768c-1.949-2.009-2.228-4.912,0-6.802c2.884-2.466,8.174-1.193,12.251,0.04     c1.114,0.338,2.128,0.656,2.983,0.915C297.939,408.928,298.695,409.147,299.451,409.406z"/>
		</g>
		<g>
			<path style="fill:#FFC48F;" d="M132.209,335.222c-0.02,1.571-0.239,3.361-0.696,5.33c-0.855-0.895-1.034-2.705-0.457-3.938     C131.354,335.997,131.752,335.54,132.209,335.222z"/>
		</g>
		<g>
			<path style="fill:#FFC48F;" d="M125.367,357.497c-4.037,8.791-3.62,16.01-2.566,20.664c-1.671,4.375-3.162,9.109-4.455,13.783     c-1.134-4.037-2.188-9.924-2.566-18.297c-0.955-20.525,10.004-35.481,14.001-31.324c0.418,0.438,0.716,0.895,0.935,1.392     C129.564,347.692,127.754,352.306,125.367,357.497z"/>
		</g>
		<g>
			<path style="fill:#FFC48F;" d="M114.491,344.361c-0.569,0.329-0.995,0.859-1.348,1.414c-0.945,1.482-1.467,3.231-1.487,4.989     c-0.004,0.314,0.011,0.639,0.145,0.922c0.336,0.709,1.327,0.892,2.046,0.58c0.719-0.312,1.218-0.975,1.651-1.629     c0.558-0.844,1.065-1.723,1.515-2.629c0.309-0.622,0.597-1.279,0.609-1.974C117.652,344.268,115.927,343.53,114.491,344.361z"/>
		</g>
		<g>
			<path style="fill:#FFC48F;" d="M124.965,332.93c-0.14,0.048-0.274,0.102-0.399,0.16c-1.252,0.584-2.271,1.651-2.796,2.928     c-0.254,0.617-0.396,1.298-0.281,1.956c0.187,1.076,1.164,1.741,2.179,1.937c1.232,0.238,2.209-0.263,2.898-1.298     c0.85-1.278,1.568-3.444,0.996-4.954C127.153,332.579,125.922,332.604,124.965,332.93z"/>
		</g>
		<g>
			<path style="fill:#AA312F;" d="M71.848,334.347c-0.06,1.273-1.253,2.168-2.387,2.745c-4.694,2.426-10.104,2.983-15.195,4.395     c-4.594,1.293-8.97,3.282-12.927,5.887c1.531-6.086,3.64-11.257,6.006-15.632c3.401-1.034,6.961-1.631,10.74-1.631     c3.839-0.338,7.836-0.318,11.336,1.333C70.634,332,71.887,333.014,71.848,334.347z"/>
		</g>
		<g>
			<path style="fill:#AA312F;" d="M69.063,369.569c0.08,3.003-3.321,4.634-6.066,5.847c-8.333,3.659-15.096,10.004-22.295,15.672     c-1.114-6.364-1.71-12.291-1.889-17.76c6.504-4.157,13.862-6.901,21.499-7.935c1.83-0.259,3.719-0.398,5.449,0.199     C67.492,366.208,69.023,367.739,69.063,369.569z"/>
		</g>
		<g>
			<path style="fill:#AA312F;" d="M75.388,407.258c-5.091,3.958-10.998,6.901-15.652,11.376c-2.546,2.446-4.654,5.31-7.041,7.935     c-2.486-4.256-4.753-9.129-6.722-14.698c7.558-6.344,15.931-12.251,25.954-13.624c2.506-0.338,5.648-0.04,6.663,2.267     C79.684,402.982,77.516,405.607,75.388,407.258z"/>
		</g>
		<g style="opacity:0.2;">
			<g>
				<path style="fill:#AA312F;" d="M337.04,173.144c4.969,0.74,9.8,2.302,14.45,4.248c7.064,2.95,13.241,7.14,19.044,12.086      c0.028,0.024,0.056,0.048,0.085,0.072c5.619,5.228,9.991,11.285,13.297,18.226c-1.536-2.001-2.709-4.205-4.368-6.074      c-1.647-1.854-3.147-3.808-4.837-5.629c-3.417-3.56-7.12-6.845-11.174-9.658c-6.095-4.23-12.564-7.954-19.472-10.691      C341.777,174.735,339.425,173.918,337.04,173.144z"/>
			</g>
		</g>
		<g style="opacity:0.2;">
			<g>
				<path style="fill:#AA312F;" d="M330.029,223.32c7.132,1.837,13.829,5.315,19.76,9.732c5.9,4.458,11.112,9.917,14.864,16.255      c-5.006-5.377-10.261-10.345-16.057-14.665C342.831,230.28,336.592,226.62,330.029,223.32z"/>
			</g>
		</g>
		<g style="opacity:0.2;">
			<g>
				<path style="fill:#AA312F;" d="M332.935,213.372c3.903,0.872,7.53,2.546,10.945,4.537c3.384,2.044,6.588,4.43,9.217,7.445      c-3.585-1.76-6.88-3.777-10.232-5.737C339.543,217.606,336.195,215.676,332.935,213.372z"/>
			</g>
		</g>
		<g style="opacity:0.2;">
			<g>
				<path style="fill:#AA312F;" d="M319.648,184.973c6.455,2.176,12.512,5.415,18.17,9.201c5.625,3.833,10.891,8.245,15.314,13.426      c-5.488-4.021-10.847-8.041-16.427-11.78C331.157,192.034,325.427,188.56,319.648,184.973z"/>
			</g>
		</g>
		<g style="opacity:0.2;">
			<g>
				<path style="fill:#AA312F;" d="M198.619,334.189c3.379,0.483,6.531,1.702,9.532,3.185c2.973,1.537,5.821,3.357,8.209,5.797      c-3.225-1.104-6.157-2.563-9.107-4.024C204.332,337.631,201.42,336.131,198.619,334.189z"/>
			</g>
		</g>
		<g style="opacity:0.2;">
			<g>
				<path style="fill:#AA312F;" d="M218.224,333.038c3.58,0.238,7.002,1.529,10.09,3.308c3.059,1.827,5.854,4.189,7.802,7.203      c-3.043-1.874-5.845-3.778-8.809-5.489C224.373,336.301,221.344,334.78,218.224,333.038z"/>
			</g>
		</g>
		<g style="opacity:0.2;">
			<g>
				<path style="fill:#AA312F;" d="M136.724,376.562c2.994,0.336,5.768,1.475,8.338,2.919c2.54,1.495,4.917,3.324,6.707,5.749      c-2.763-1.182-5.206-2.622-7.7-4.027C141.606,379.747,139.134,378.356,136.724,376.562z"/>
			</g>
		</g>
		<g style="opacity:0.2;">
			<g>
				<path style="fill:#AA312F;" d="M158.457,376.61c5.256,1.263,10.202,3.599,14.77,6.473c4.538,2.921,8.747,6.416,12.11,10.648      c-4.432-3.075-8.704-6.153-13.178-8.972C167.716,381.893,163.119,379.322,158.457,376.61z"/>
			</g>
		</g>
	</g>
</g>















</svg>
