<?xml version="1.0" encoding="UTF-8"?>
<!-- Generator: Adobe Illustrator 25.2.3, SVG Export Plug-In . SVG Version: 6.00 Build 0)  -->
<svg xmlns="http://www.w3.org/2000/svg" xmlns:xlink="http://www.w3.org/1999/xlink" version="1.1" id="Capa_1" x="0px" y="0px" viewBox="0 0 512 512" style="enable-background:new 0 0 512 512;" xml:space="preserve" width="512" height="512">
<g>
	<g>
		<g>
			<path style="fill:#FF983D;" d="M496.01,374.449c-7.006,2.326-65.456,10.161-80.269,28.262c-4.011,4.893-7.54,7.3-10.562,8.209     h-0.027c-8.155,2.407-12.62-6.07-12.62-6.07s-45.91-18.636-94.066,1.551c-48.156,20.187,0-128.211,0-128.211     s16.604-4.652,38.69,0c22.086,4.679,29.867,11.177,29.092,13.985c-0.749,2.674-10.428,0.214-11.23,0.026     c1.096,0.481,19.011,8.69,33.744,28.931c11.444,15.749,15.642,35.402,13.343,58.156c0,0,51.044-23.155,76.766-22.755     c15.215,0.214,20.883,5.642,21.525,10.509C500.823,370.411,498.871,373.486,496.01,374.449z"/>
		</g>
		<g style="opacity:0.2;">
			<path style="fill:#A9312F;" d="M496.01,374.449c-7.006,2.326-65.456,10.161-80.269,28.262c-4.011,4.893-7.54,7.3-10.562,8.209     h-0.027c-8.155,2.407-12.62-6.07-12.62-6.07s-45.91-18.636-94.066,1.551c-48.156,20.187,0-128.211,0-128.211     s16.604-4.652,38.69,0c22.086,4.679,29.867,11.177,29.092,13.985c-0.749,2.674-10.428,0.214-11.23,0.026     c1.096,0.481,19.011,8.69,33.744,28.931c11.444,15.749,15.642,35.402,13.343,58.156c0,0,51.044-23.155,76.766-22.755     c15.215,0.214,20.883,5.642,21.525,10.509C500.823,370.411,498.871,373.486,496.01,374.449z"/>
		</g>
		<g style="opacity:0.2;">
			<path style="fill:#A9312F;" d="M496.01,374.449c-7.006,2.326-65.456,10.161-80.269,28.262c-4.011,4.893-7.54,7.3-10.562,8.209     h-0.027c-2.032-0.749-4.332-2.513-5.321-6.711c-1.952-8.369,72.327-50.001,100.563-37.166     C500.823,370.411,498.871,373.486,496.01,374.449z"/>
		</g>
		<g>
			<path style="fill:#A9312F;" d="M476.945,365.462c-1.297-0.809-2.492-1.524-3.697-2.198c-1.212-0.647-2.387-1.298-3.632-1.804     c-1.222-0.546-2.473-1.043-3.778-1.479c-1.303-0.473-2.655-0.827-4.1-1.39c2.871-1.068,6.126-0.742,8.938,0.483     c1.404,0.632,2.707,1.492,3.797,2.571C475.564,362.709,476.496,363.978,476.945,365.462z"/>
		</g>
	</g>
	<g>
		<path style="fill:#FF983D;" d="M274.257,123.941c0.187-0.508,0.401-1.043,0.588-1.551c1.257-3.235,2.193-6.524,2.834-9.786    c0.054-0.294,0.134-0.588,0.16-0.882c0.294-1.471,0.481-2.915,0.669-4.358c0.027-0.241,0.054-0.481,0.08-0.722v-0.08    c0.187-1.47,0.294-2.968,0.348-4.465c0.134-4.92-0.214-9.813-1.123-14.599c0-0.027,0-0.027,0-0.053    c-0.401-2.3-0.936-4.626-1.604-6.872c-0.053-0.187-0.107-0.401-0.16-0.562c-0.08-0.294-0.187-0.588-0.294-0.882    c-0.348-1.203-0.775-2.433-1.176-3.61c-0.054-0.107-0.107-0.214-0.134-0.321c-0.642-1.738-1.337-3.396-2.112-5.08    c-0.027-0.08-0.053-0.187-0.107-0.267c-0.802-1.738-1.658-3.423-2.567-5.054c-1.096-1.952-2.246-3.824-3.476-5.642    c-3.69-5.374-7.995-10.107-12.728-14.091c-3.609-3.903-8.904-10.856-10.027-19.225c-1.738-12.647-6.203-23.155-13.289-25.588    l-0.401-0.107c-5.749-1.738-22.353,12.701-23.77,30.829c-4.145,0-8.396,0.241-12.701,0.642c-1.257,0.107-2.54,0.241-3.797,0.374    c-4.732,0.535-9.364,1.511-14.176,2.393c-0.241,0.053-0.61-0.12-0.851-0.067c-2.112,0.401-4.198,0.829-6.31,1.283    c-0.588,0.133-1.177,0.267-1.765,0.428c-8.556,1.952-17.059,4.358-25.241,7.166c-0.695,0.241-1.417,0.481-2.112,0.749    c-1.23,0.401-2.46,0.856-3.663,1.31c-2.032,0.722-4.011,1.471-5.99,2.273c-2.594,0.989-5.107,2.032-7.567,3.075    c-1.47,0.641-2.941,1.283-4.358,1.952c-4.171,1.925-8.128,3.93-11.818,5.936c-4.171-1.631-8.636-4.091-12.112-7.861    c-8.048-8.69-16.925-14.492-23.904-13.717c-0.722,0.08-1.391,0.241-2.059,0.454c-5.642,1.872-8.663,23.664,1.23,39.653    c0.963,1.524,2.005,2.995,3.235,4.358c1.016,1.203,2.139,2.3,3.289,3.342c-3.663,5.481-6.337,11.311-8.102,17.3    c-1.07,3.61-1.791,7.3-2.219,11.043c-1.587,16.289,2.871,32.851,11.649,46.586c-4.169,4.22-11.512,11.575-17.637,17.305    c-4.626,4.305-9.866,9.572-15.107,15.562c-5.829,6.658-11.685,14.225-16.765,22.487c-3.369,5.455-6.391,11.203-8.85,17.193    c-3.209,7.781-5.455,15.963-6.257,24.385c-0.134,1.363-0.214,2.7-0.267,4.064c-0.16,4.358-0.214,8.556-0.187,12.54    c0.08,8.316,0.535,15.883,1.363,22.755c1.23,10.08,3.236,18.663,5.909,25.963c5.294,14.252,13.209,23.53,22.968,29.198    c0,0,0.749,8.797,3.877,21.845c1.31,5.401,2.995,11.524,5.241,18.048c1.925,5.695,4.278,11.711,7.086,17.835    c2.594,5.561,5.562,11.23,9.011,16.792c3.957,6.417,8.53,12.727,13.824,18.637c0.615,0.669,1.203,1.337,1.818,2.005    c5.08,5.588,10.214,10.695,15.375,15.348c8.61,7.781,17.273,14.278,25.99,19.519c7.861,4.733,15.722,8.449,23.61,11.123    c7.62,2.647,15.268,4.332,22.861,5.08c5.161,0.508,10.294,0.562,15.428,0.214c0.855-0.054,1.684-0.134,2.513-0.214    c32.246-2.754,33.022-13.182,44.011-29.091c11.257-16.31,39.708-41.319,47.514-44.706c0.101-0.044-0.107,0.027,0,0    c7.888-1.952-10.111-7.147-10.111-7.147s22.785-8.255,41.769-13.977c0,0,27.728-47.087-9.545-104.307c0,0,3.208-0.642,8.342-2.192    c5.963-1.792,14.546-4.813,23.797-9.465c7.006-3.503,14.385-7.941,21.284-13.503c1.578-1.257,3.129-2.567,4.626-3.931    c5.294-4.84,8.369-10.588,9.733-16.872c1.604-7.139,1.043-14.893-0.909-22.647c-1.925-7.888-5.267-15.722-9.171-22.861    c-3.449-6.364-7.326-12.139-11.016-16.818c-1.15-1.444-2.273-2.808-3.369-4.037c-3.022-3.396-6.872-7.086-11.391-10.803    c-4.305-3.583-9.225-7.166-14.679-10.562c-5.561-3.529-11.658-6.845-18.182-9.76c-5.909-2.674-12.166-5-18.664-6.818    c-8.414-2.386-17.274-3.92-26.381-4.291C256.085,143.54,266.286,139.946,274.257,123.941"/>
	</g>
	<g>
		<path style="fill:#FFC38E;" d="M302.386,298.021c-0.107,0.027-0.214,0.054-0.321,0.08    C302.065,298.101,302.172,298.074,302.386,298.021z"/>
	</g>
	<g>
		<path style="fill:#FFC38E;" d="M311.611,402.407c-18.984,5.722-42.016,13.945-42.016,13.945s-21.417-6.919-53.039,25.869    c0,0-4.465-64.012-44.145-78.691c-39.653-14.679-11.471-61.231-11.471-61.231l-8.717-37.648c0,0,0-39.893,35.348-48.049    c35.375-8.155,83.29,30.268,83.29,30.268s0.561,0.642,1.578,1.845c-7.861,4.652-14.733,10.481-18.289,17.621    c-11.845,23.717,13.396,35.027,38.878,33.102c2.861-0.214,5.882-0.668,9.038-1.337    C339.339,355.321,311.611,402.407,311.611,402.407z"/>
	</g>
	<g>
		<g>
			<path style="fill:#A9312F;" d="M85.842,79.905c0.134,1.578,4.802,2.699,3.118,3.795c-3.61,2.353-8.289,2.005-12.006,0.668     c-2.112-0.775-3.931-1.872-5.027-2.995c0-0.027-0.027-0.027-0.027-0.027c-1.979-2.005-4.523-3.041-4.657-3.308l0,0     c-9.84-15.963-5.29-38.858,0.325-40.703c0.669-0.214,1.364-0.374,2.059-0.455c-2.086,4.545-1.23,9.225,1.016,13.797     c0,0.027,0.027,0.027,0.027,0.054C76.286,62.122,85.361,73.14,85.842,79.905z"/>
		</g>
		<g>
			<path style="fill:#FFFFFF;" d="M91.152,79.689c-0.16,1.203-0.829,2.273-2.192,3.155c-3.61,2.326-8.289,2.005-12.006,0.642     c-2.326-5.321,0.027-11.096,0.027-11.096s-6.791-1.31-6.283-2.754c0.481-1.417,3.717-0.562,3.984-0.508     c-0.348-0.187-6.685-3.743-5.856-4.786c0.802-0.989,5.722,0.936,6.23,1.123c-3.663-5.134-4.439-10.722-4.412-14.786     c0,0.027,0.027,0.027,0.027,0.054C76.286,62.122,90.671,72.924,91.152,79.689z"/>
		</g>
	</g>
	<g>
		<path style="fill:#A9312F;" d="M97.313,144.501c-2.633,5.194-8.308,8.026-13.474,10.203c-2.836,1.164-5.4,2.301-8.275,3.233    c-1.087-1.805-2.418-3.749-3.399-5.828c-0.598-1.258-1.17-2.531-1.716-3.818c-0.736-1.805-1.426-3.619-2.03-5.428    c-0.818-2.466-1.516-4.962-2.037-7.468c0.48,0.148,1.013,0.269,1.551,0.303c3.904,0.35,8.043-0.347,12.064-1.298    c3.685-0.858,7.477-1.924,11.044-1.548c3.573,0.358,6.949,2.561,7.396,6.229C98.662,140.839,98.215,142.784,97.313,144.501z"/>
	</g>
	<g>
		<path style="fill:#A9312F;" d="M65.462,130.322c2.314-0.536,4.648-1.395,6.878-2.724c3.268-1.995,7.692-5.037,7.099-9.297    c-0.151-1.143-0.774-2.037-1.618-2.714c-3.402-2.76-8.743-1.165-12.901-1.965C64.921,113.621,63.368,120.972,65.462,130.322z"/>
	</g>
	<g>
		<path style="fill:#A9312F;" d="M155.533,68.944c0,0,3.678-6.545,6.686-6.017c3.009,0.529-0.568,7.969-5.738,10.51    c0,0-9.919-2.892-8.504-7.261C149.392,61.808,155.533,68.944,155.533,68.944z"/>
	</g>
	<g>
		<path style="fill:#A9312F;" d="M166.367,36.025c0.294,8.53-0.428,26.204-11.444,25.134c-10.615-1.07-14.573-11.658-15.91-17.22    C139.014,43.939,150.118,39.062,166.367,36.025z"/>
	</g>
	<g>
		<path style="fill:#A9312F;" d="M189.469,31.988c-0.401,4.064-1.738,11.417-5.883,11.23c-3.904-0.187-7.326-5.508-9.144-8.904    C174.442,34.314,182.605,32.488,189.469,31.988z"/>
	</g>
	<g>
		<path style="fill:#A9312F;" d="M129.361,47.523c-0.054,3.85-0.668,12.005-4.465,12.406c-3.396,0.374-6.07-4.332-7.46-7.38    C117.436,52.549,122.49,49.793,129.361,47.523z"/>
	</g>
	<g style="opacity:0.48;">
		<path style="fill:#A9312F;" d="M166.867,72.175c3.593,0.375,7.325,2.315,9.98,5.846c3.849,5.119,5.65,12.029,2.911,17.678    c-1.7,3.507-4.58,5.728-7.596,7.279c-5.779,2.974-11.731,5.443-18.381,4.421c-2.413-0.371-4.867-1.155-7.067-2.775    c-3.372-2.481-5.96-6.934-6.783-11.674c-0.823-4.739,0.137-9.654,2.518-12.884c2.928-3.972,8.022-5.905,12.36-6.543    C158.675,72.955,162.916,71.762,166.867,72.175z"/>
	</g>
	<g style="opacity:0.48;">
		<path style="fill:#E54949;" d="M125.043,96.779c8.185,3.226,11.569,12.959,4.644,19.859c-9.271,9.239-30.011,12.736-41.62,6.408    c-9.799-5.342-7.842-19.644,0.471-24.039c7.027-3.715,15.125-4.876,22.926-4.525C115.091,94.646,120.455,94.972,125.043,96.779z"/>
	</g>
	<g>
		<g>
			<path style="fill:#FFFFFF;" d="M213.242,44.873c0,0,11.881,0.284,13.283-5.366c1.402-5.65-4.572-24.856-0.075-33.616     c4.497-8.76-14.304,10.334-14.304,10.334s-2.728,16.171-3.117,16.171s0.011,10.624,2.046,11.578     C213.108,44.927,213.242,44.873,213.242,44.873z"/>
		</g>
		<g>
			<path style="fill:#A9312F;" d="M229.606,0.14c-7.219-2.166-31.658,21.23-21.417,45.321c1.39,0.134,3.102,0,4.92-0.535     c0.054,0,0.08-0.027,0.134-0.054c-9.171-12.754,3.583-20.642,3.583-20.642s-3.503-0.214-3.235-2.353     c0.294-2.086,3.69-0.749,3.984-0.615c-0.107-0.16-2.246-3.021-1.845-4.358c0.401-1.39,3.182,1.283,3.182,1.283     c0.562-5.374,4.412-8.449,6.631-9.76c0-0.08,0.027-0.134,0.054-0.214c1.203-3.877,2.995-6.391,4.412-7.941     C229.873,0.22,229.739,0.167,229.606,0.14z"/>
		</g>
	</g>
	<g style="opacity:0.48;">
		<path style="fill:#E54949;" d="M225.741,70.508c7.938,0.748,14.515,9.04,11.579,17.556c-3.933,11.402-19.467,20.592-31.411,17.864    c-10.084-2.302-14.101-16.446-9.049-22.974c4.269-5.519,10.416-8.912,16.912-10.787C216.792,71.297,221.294,70.089,225.741,70.508    z"/>
	</g>
	<g>
		<g>
			<path style="fill:#A9312F;" d="M257.772,84.748c-4.183-0.128-8.327,0.145-12.463,0.516c-4.131,0.412-8.253,0.924-12.337,1.842     c4.183,0.131,8.328-0.143,12.463-0.517C249.566,86.174,253.688,85.661,257.772,84.748z"/>
		</g>
		<g>
			<path style="fill:#A9312F;" d="M256.301,74.48c-3.979,0.832-7.826,2.045-11.64,3.351c-3.801,1.344-7.569,2.783-11.202,4.606     c3.98-0.829,7.826-2.042,11.64-3.35C248.898,77.74,252.666,76.301,256.301,74.48z"/>
		</g>
		<g>
			<path style="fill:#A9312F;" d="M249.705,63.589c-3.247,2.487-6.21,5.26-9.102,8.103c-2.864,2.872-5.658,5.815-8.165,9.047     c3.249-2.485,6.211-5.258,9.102-8.103C244.403,69.762,247.196,66.819,249.705,63.589z"/>
		</g>
	</g>
	<g>
		<g>
			<path style="fill:#A9312F;" d="M93.743,118.477c-4.173,0.645-8.236,1.677-12.272,2.805c-4.025,1.166-8.022,2.43-11.907,4.084     c4.174-0.642,8.237-1.675,12.271-2.805C85.859,121.392,89.856,120.129,93.743,118.477z"/>
		</g>
		<g>
			<path style="fill:#A9312F;" d="M67.197,115.379c4.046,0.366,8.075,0.328,12.1,0.191c4.024-0.176,8.044-0.454,12.048-1.138     c-4.046-0.368-8.075-0.33-12.101-0.191C75.221,114.421,71.201,114.699,67.197,115.379z"/>
		</g>
		<g>
			<path style="fill:#A9312F;" d="M69.889,102.799c3.433,2.091,7.029,3.814,10.665,5.445c3.652,1.595,7.346,3.098,11.203,4.229     c-3.432-2.094-7.028-3.816-10.665-5.446C77.439,105.435,73.746,103.932,69.889,102.799z"/>
		</g>
	</g>
	<g>
		<path style="fill:#A9312F;" d="M148.746,79.614c1.607,1.237,2.863,2.856,3.884,4.587c1.044,1.729,1.786,3.631,2.313,5.588    c0.493,1.965,0.771,3.999,0.655,6.027c-0.036,2.022-0.504,4.029-1.279,5.878c-0.302-2.01-0.42-3.898-0.756-5.764    c-0.292-1.86-0.652-3.688-1.147-5.485C151.516,86.814,150.203,83.336,148.746,79.614z"/>
	</g>
	<g>
		<path style="fill:#A9312F;" d="M165.569,75.747c0.595,2.122,1.112,4.183,1.633,6.228c0.552,2.034,1.047,4.06,1.706,6.02    c0.621,1.97,1.336,3.894,2.176,5.773c0.888,1.857,1.907,3.631,3.184,5.447c-1.985-0.98-3.646-2.6-4.947-4.425    c-1.299-1.84-2.192-3.908-2.902-6.007c-0.655-2.12-1.066-4.294-1.222-6.483C165.042,80.116,165.083,77.909,165.569,75.747z"/>
	</g>
	<g>
		<g>
			<path style="fill:#FFFFFF;" d="M67.706,69.164c0,0,164.7-30.975,171.39-32.255c6.69-1.28,25.077,41.345,22.28,42.499     c-2.797,1.153-64.762,13.082-68.301,13.197c-3.539,0.115-23.935-38.902-40.761-33.397c-16.827,5.506-12.333,45.747-15.838,46.923     c-3.505,1.177-64.546,9.248-69.077,9.236C63.019,115.354,67.706,69.164,67.706,69.164z"/>
		</g>
		<g>
			<path style="fill:#A9312F;" d="M243.882,71.346c-0.187,0.321-0.401,0.615-0.642,0.909c-0.989,1.23-2.407,2.112-4.118,2.406     l-34.386,5.829c-2.968,0.508-5.936-1.016-7.246-3.743l-6.23-12.727c-0.722-1.497-0.856-3.129-0.481-4.599     c0.588-2.46,2.54-4.519,5.268-5.053l34.225-6.819c3.102-0.615,6.203,0.936,7.514,3.797l6.364,13.717     C245.138,67.202,244.925,69.528,243.882,71.346z"/>
		</g>
		<g>
			<path style="fill:#FB5555;" d="M243.347,72.095c-0.027,0.053-0.054,0.107-0.107,0.16c-0.989,1.23-2.407,2.112-4.118,2.406     l-34.386,5.829c-2.968,0.508-5.936-1.016-7.246-3.743l-6.23-12.727c-0.722-1.497-0.856-3.129-0.481-4.599     c0.963-1.23,2.326-2.112,3.984-2.46l34.252-6.818c3.075-0.615,6.177,0.962,7.487,3.824l6.391,13.717     C243.561,69.127,243.668,70.678,243.347,72.095z"/>
		</g>
		<g>
			<path style="fill:#67DCBC;" d="M124.896,77.523l-0.455,14.412c-0.134,3.396-2.727,6.203-6.096,6.551l-34.252,3.636     c-2.112,0.214-4.064-0.535-5.455-1.898c-1.31-1.257-2.112-3.048-2.059-5.053l0.321-13.449c0.08-3.342,2.594-6.123,5.909-6.578     l34.385-4.599c3.102-0.401,5.936,1.337,7.112,3.984C124.709,75.438,124.923,76.454,124.896,77.523z"/>
		</g>
		<g>
			<path style="fill:#97ECE2;" d="M124.896,77.523l-0.455,14.412c-0.134,3.396-2.727,6.203-6.096,6.551l-34.252,3.636     c-2.112,0.214-4.064-0.535-5.455-1.898c-0.401-0.882-0.615-1.898-0.588-2.941l0.321-13.449c0.08-3.369,2.567-6.15,5.909-6.604     l34.386-4.572c2.166-0.294,4.225,0.481,5.642,1.872C124.709,75.438,124.923,76.454,124.896,77.523z"/>
		</g>
	</g>
	<g>
		<path style="fill:#A9312F;" d="M278.588,106.561c-2.647-0.053-5.294-0.241-7.915-0.481c-3.637-0.321-7.433-0.856-10.722-2.54    c-3.262-1.711-5.775-4.866-4.92-7.487c0.749-2.353,3.797-3.529,6.631-4.332c5.294-1.524,10.909-2.647,16.15-4.278    C277.813,87.443,280.598,98.933,278.588,106.561z"/>
	</g>
	<g>
		<path style="fill:#A9312F;" d="M274.257,123.941c-2.781-1.283-5.268-2.995-7.059-5.08c-1.578-1.818-2.594-4.118-1.497-5.775    c0.829-1.257,2.674-1.872,4.599-1.952c1.898-0.134,3.904,0.214,5.829,0.428c0.588,0.08,1.15,0.134,1.711,0.161    C277.839,111.721,277.24,118.27,274.257,123.941z"/>
	</g>
	<g>
		<path style="fill:#A9312F;" d="M275.754,79.127c-2.166-0.027-4.385-0.241-6.391-0.882c-2.193-0.749-4.037-2.166-3.957-3.61    c0.08-1.604,2.433-2.647,4.572-3.503c0.802-0.321,1.577-0.668,2.353-1.016C272.331,70.116,275.003,75.332,275.754,79.127z"/>
	</g>
	<g style="opacity:0.48;">
		<path style="fill:#A9312F;" d="M255.988,140.207c0.099,1.338,0.122,2.678,0.074,4.009c-0.071,1.319-0.213,2.678-0.712,3.837    c-0.504,1.184-1.635,1.593-2.69,0.782c-0.95-0.747-1.665-1.918-2.209-3.047l-0.753-1.56l-0.19,1.736    c-0.154,1.411-0.441,2.843-0.798,4.218c-0.385,1.36-0.862,2.735-1.664,3.797c-0.654,0.866-1.887,1.776-3.043,1.219    c-1.013-0.48-1.742-1.837-2.127-3.066l-0.296-0.944l-0.768,0.614c-2.104,1.68-4.43,3.199-6.804,4.554    c-6.603,3.776-13.929,6.339-21.526,6.988c-0.634,0.054-1.27,0.096-1.906,0.125c1.783-0.082,3.559,0.038,5.348-0.116    c1.814-0.156,3.618-0.43,5.396-0.819c3.579-0.783,7.072-2.054,10.371-3.634c0.982-0.47,1.95-0.969,2.906-1.489    c2.455-1.358,4.81-2.84,7.062-4.585l-1.063-0.331c0.252,0.788,0.569,1.479,1.017,2.162c0.447,0.664,1.031,1.32,1.871,1.7    c1.684,0.802,3.544-0.293,4.53-1.659c0.944-1.308,1.405-2.777,1.799-4.225c0.376-1.461,0.575-2.931,0.681-4.437l-0.943,0.176    c0.674,1.237,1.43,2.408,2.63,3.288c1.382,1.013,3.229,0.458,3.743-1.207c0.466-1.352,0.491-2.725,0.473-4.073    C256.367,142.869,256.222,141.529,255.988,140.207z"/>
	</g>
	<g style="opacity:0.48;">
		<path style="fill:#A9312F;" d="M148.34,182.022c-2.097,0.164-4.192,0.329-6.287,0.449c-2.094,0.11-4.195,0.197-6.265,0.15    l-0.976-0.022l0.685,0.732c0.792,0.848,1.542,1.9,1.752,2.959c0.154,0.779-0.188,2.111-1.212,1.561    c-0.907-0.513-1.732-1.5-2.487-2.427c-0.752-0.956-1.457-1.984-2.093-3.017l-0.89-1.446l-0.293,1.683    c-0.179,1.025-0.447,2.082-0.8,3.06c-0.329,0.889-0.744,1.938-1.579,2.47c-0.159,0.101-0.486-0.814-0.632-1.675    c-0.172-1.016-0.301-2.098-0.36-3.144l-0.042-0.742l-0.732,0.061c-3.201,0.267-6.497,0.202-9.709-0.182    c-3.205-0.429-6.392-1.187-9.22-2.686l-1.453-0.77l0.751,1.447c0.617,1.188,1.195,2.565,1.165,3.825    c-0.012,0.153-0.03,0.301-0.073,0.436c-0.023,0.109-0.03,0.058-0.003,0.06c0.001-0.014,0.01,0.005-0.044,0.008    c-0.182,0.042-0.552-0.045-0.859-0.145c-0.643-0.211-1.291-0.507-1.928-0.814c-2.548-1.262-4.976-2.802-7.406-4.322    c2.271,1.757,4.616,3.411,7.112,4.878c0.632,0.357,1.267,0.71,1.979,0.969c0.368,0.117,0.705,0.272,1.239,0.217    c0.13-0.009,0.295-0.075,0.446-0.192c0.138-0.135,0.233-0.339,0.241-0.409c0.073-0.207,0.107-0.412,0.131-0.617    c0.084-1.628-0.486-3.009-1.107-4.372l-0.701,0.677c1.468,0.859,3.033,1.517,4.638,2.034c1.619,0.465,3.265,0.802,4.922,1.043    c3.324,0.44,6.646,0.554,10.014,0.319l-0.774-0.681c0.044,1.145,0.141,2.251,0.386,3.39c0.121,0.568,0.269,1.139,0.583,1.746    c0.437,0.846,1.448,1.39,2.299,0.711c1.17-0.884,1.548-2.03,1.966-3.095c0.374-1.092,0.634-2.175,0.818-3.313l-1.182,0.237    c0.691,1.09,1.417,2.119,2.226,3.121c0.829,0.984,1.645,1.986,2.956,2.669c0.811,0.423,1.851,0.267,2.308-0.587    c0.446-0.645,0.523-1.5,0.351-2.188c-0.363-1.399-1.208-2.419-2.137-3.354l-0.291,0.71c2.134-0.017,4.229-0.246,6.32-0.501    C144.186,182.688,146.269,182.39,148.34,182.022z"/>
	</g>
	<g>
		<path style="fill:#FB5555;" d="M277.332,246.055c-1.658,0.802-3.289,1.711-4.893,2.674c-7.861,4.652-14.733,10.481-18.289,17.621    c-4.332,8.69-3.69,15.695,0.107,20.99c-11.631,3.102-21.391,4.118-21.391,4.118c-8.877-13.743-31.872-65.028-40.161-83.745h-0.027    c-0.321-0.749-0.615-1.47-0.909-2.112l55.268-19.572l15.642-4.037c0.615,1.096,1.604,4.599,2.861,9.679    C268.775,204.611,273.588,227.579,277.332,246.055z"/>
	</g>
	<g>
		<path style="fill:#FB5555;" d="M198.347,368.61l-8.182,1.818l-2.613-1.103c0,0-1.585,1.29-1.959,1.049    c-2.139-1.684-4.412-3.102-6.845-4.278c-0.936-0.481-1.898-0.909-2.888-1.31c-0.802-0.321-1.604-0.642-2.433-0.909    c-1.471-0.508-2.941-0.963-4.465-1.337c-2.112-0.562-4.251-0.989-6.444-1.31c-0.561-0.08-1.096-0.16-1.658-0.241    c-1.47-0.214-2.941-0.348-4.412-0.455c-1.203-0.107-2.406-0.16-3.61-0.214c-2.674-0.08-5.321-0.08-7.941,0.054    c-0.187,0-0.347,0-0.535,0.027c-1.925,0.054-3.85,0.214-5.722,0.375c-0.401,0.027-0.775,0.08-1.15,0.134    c-4.706,0.428-9.144,1.123-13.102,1.872l-18.69-43.664c2.621-1.47,5.268-2.62,7.941-3.262c1.684-0.401,3.396-0.802,5.161-1.176    h0.027c2.834-0.642,5.722-1.283,8.583-1.952c4.011-0.963,7.941-2.059,11.498-3.449c2.754-1.07,5.294-2.326,7.514-3.824    c5.722-3.877,9.225-9.492,8.369-18.235c-0.027-0.401-0.08-0.856-0.134-1.283c-0.241-1.711-0.695-3.342-1.364-4.866    c-2.7-6.31-8.85-10.829-17.701-13.102c-3.396-0.856-7.193-1.39-11.364-1.578c-4.171-0.187-8.717,0-13.583,0.588    c-3.556,0.428-7.273,1.043-11.15,1.925c-4.385,0.936-8.957,2.166-13.717,3.69l-6.283-14.626c0,0,5.615-1.284,14.332-3.289    c3.369-0.775,7.193-1.658,11.337-2.594c4.118-0.936,8.556-1.952,13.155-2.995c3.61-0.829,7.326-1.658,11.07-2.513    c4.893-1.096,9.866-2.219,14.733-3.316c4.144-0.936,8.209-1.845,12.086-2.727c4.786-1.07,9.331-2.086,13.423-2.968    c3.102-0.695,5.936-1.31,8.449-1.845c6.631-1.444,10.963-2.326,11.578-2.326C190.513,239.464,198.347,368.61,198.347,368.61z"/>
	</g>
	<g>
		<g>
			<g>
				<path style="fill:#FF983D;" d="M466.763,300.365v0.027c-7.647,9.465-15.161,19.813-19.974,30.482v0.027      c-2.406,5.348-4.117,10.776-4.813,16.204c-0.642,4.866-1.096,10.695-1.497,17.166c-2.059,33.958-2.433,86.151-17.22,117.783      c-5.669,12.166-13.476,21.284-24.332,25.134c-1.15,0.401-2.273,0.775-3.396,1.15c-42.167,13.262-63.076-12.219-72.729-32.728      c-9.946-21.016-31.578-52.594-53.209-59.011c0,0,0.588-28.075,33.904-22.22c0,0,16.952,13.449,26.31,36.231      c3.744,9.064,7.835,19.091,12.995,27.674c7.059,11.765,16.096,20.936,28.957,21.525c1.364,0.08,2.781,0.053,4.225-0.08      c18.904-1.765,28.557-27.354,31.418-56.365c0.962-9.546,1.15-19.439,0.722-28.984c-0.107-2.192-0.16-4.439-0.16-6.685      c-0.134-33.075,9.305-71.739,23.476-94.039c1.818-2.888,3.717-5.508,5.695-7.808c3.529-4.064,7.059-8.021,10.615-11.685      c3.476-3.637,6.979-6.952,10.455-9.813c11.31-9.332,22.46-13.77,32.942-7.513C501.256,262.851,483.742,279.402,466.763,300.365z      "/>
			</g>
			<g style="opacity:0.2;">
				<path style="fill:#A9312F;" d="M466.763,300.365v0.027c-7.647,9.465-15.161,19.813-19.974,30.482v0.027      c-2.406,5.348-4.117,10.776-4.813,16.204c-0.642,4.866-1.096,10.695-1.497,17.166c-2.059,33.958-2.433,86.151-17.22,117.783      c-5.669,12.166-13.476,21.284-24.332,25.134c-1.15,0.401-2.273,0.775-3.396,1.15c-42.167,13.262-63.076-12.219-72.729-32.728      c-9.946-21.016-31.578-52.594-53.209-59.011c0,0,0.588-28.075,33.904-22.22c0,0,16.952,13.449,26.31,36.231      c3.744,9.064,7.835,19.091,12.995,27.674c7.059,11.765,16.096,20.936,28.957,21.525c1.364,0.08,2.781,0.053,4.225-0.08      c18.904-1.765,28.557-27.354,31.418-56.365c0.962-9.546,1.15-19.439,0.722-28.984c-0.107-2.192-0.16-4.439-0.16-6.685      c-0.134-33.075,9.305-71.739,23.476-94.039c1.818-2.888,3.717-5.508,5.695-7.808c3.529-4.064,7.059-8.021,10.615-11.685      c3.476-3.637,6.979-6.952,10.455-9.813c11.31-9.332,22.46-13.77,32.942-7.513C501.256,262.851,483.742,279.402,466.763,300.365z      "/>
			</g>
		</g>
		<g>
			<path style="fill:#A9312F;" d="M480.908,275.017c-16.096,2.62-21.203-4.572-22.701-10.669     c11.31-9.332,22.078-17.393,34.436-8.349c11.413,8.352-8.901,23.402-25.88,44.365     C465.827,286.248,480.908,275.017,480.908,275.017z"/>
		</g>
		<g>
			<path style="fill:#A9312F;" d="M449.357,291.863c-5.695,2.941-12.754,2.647-17.915,1.791c1.818-2.888,3.844-6.23,5.823-8.529     c3.529-4.064,6.931-7.3,10.488-10.963C451.763,280.231,455.64,288.6,449.357,291.863z"/>
		</g>
		<g>
			<path style="fill:#A9312F;" d="M446.79,330.9c-2.406,5.348-3.429,11.257-4.124,16.685c-0.642,4.866-1.785,10.214-2.186,16.685     c-5.054-2.567-11.043-7.407-9.867-15.642C431.897,339.724,440.694,333.895,446.79,330.9z"/>
		</g>
		<g>
			<path style="fill:#A9312F;" d="M407.404,423.362c0.962-9.546,1.15-19.439,0.722-28.984c-0.107-2.192-0.16-4.439-0.16-6.685     c6.123,2.326,14.171,7.032,16.23,16.177C426.495,414.084,415.185,420.34,407.404,423.362z"/>
		</g>
		<g>
			<path style="fill:#A9312F;" d="M423.26,482.053c-5.669,12.166-13.476,21.284-24.332,25.134c-1.15,0.401-2.273,0.775-3.396,1.15     c1.845-6.925,5.829-17.38,13.877-23.583C414.998,480.448,419.73,480.555,423.26,482.053z"/>
		</g>
		<g>
			<path style="fill:#A9312F;" d="M371.762,479.807c-5.802,7.46-13.182,13.797-19.572,9.385c-9.064-6.283-9.759-22.139-9.385-30.91     C349.863,470.047,358.901,479.218,371.762,479.807z"/>
		</g>
	</g>
	<g>
		<path style="fill:#A9312F;" d="M150.201,302.266c-2.665-1.915-5.594-3.187-8.571-4.191c-2.996-0.962-6.085-1.563-9.211-1.877    l-2.351-0.225l-2.369-0.054c-1.583-0.14-3.167,0.071-4.766,0.032l-4.808,0.3c-1.604,0.17-3.214,0.358-4.872,0.43    c1.513-0.634,3.071-1.163,4.638-1.691c1.598-0.375,3.201-0.81,4.836-1.067c3.274-0.478,6.626-0.698,9.963-0.322    c3.322,0.384,6.639,1.153,9.688,2.585C145.397,297.608,148.28,299.554,150.201,302.266z"/>
	</g>
	<g>
		<path style="fill:#A9312F;" d="M154.181,283.667c-3.212-1.523-6.554-2.523-9.894-3.387c-3.357-0.813-6.75-1.392-10.177-1.713    c-3.429-0.268-6.88-0.404-10.35-0.255c-3.474,0.106-6.95,0.436-10.508,0.731c1.655-0.643,3.355-1.186,5.068-1.709    c1.74-0.366,3.476-0.882,5.261-1.053c3.55-0.574,7.173-0.552,10.77-0.314c3.587,0.388,7.152,1.115,10.535,2.373    C148.264,279.571,151.511,281.287,154.181,283.667z"/>
	</g>
	<g style="opacity:0.48;">
		<g>
			<path style="fill:#A9312F;" d="M314.338,233.394c-11.693,2.811-23.126,6.718-33.878,11.947     c-5.331,2.697-10.554,5.632-15.116,9.415c-4.552,3.743-8.572,8.191-10.851,13.539c-2.367,5.26-3.126,11.406-0.438,16.397     c2.623,5,7.809,8.295,13.22,10.299c5.46,2.06,11.342,3.074,17.238,3.354c5.9,0.262,11.873-0.161,17.592-1.447l0.281-0.035     c-0.005-0.017-0.014-0.018-0.014-0.018l0.091-0.019l0.306-0.061l0.366-0.06c0.002-0.018,0.005-0.015,0.005-0.015l0.29-0.069     l0.579-0.137l0.301-0.041c-0.235-0.02-0.556,0.119-0.704,0.31l0.558-0.307c11.751-2.934,23.208-7.469,33.994-13.191     c5.384-2.886,10.628-6.049,15.611-9.592c4.937-3.582,9.674-7.565,13.297-12.54c-3.305,5.205-7.943,9.44-12.761,13.252     c-4.854,3.808-10.03,7.199-15.408,10.223c-5.372,3.035-10.919,5.766-16.616,8.163c-5.697,2.428-11.557,4.382-17.607,5.927     l0.557-0.307c-0.219,0.209-0.61,0.365-0.917,0.363l0.3-0.04l-0.593,0.147l-0.297,0.073c-0.188,0.042-0.392,0.075-0.588,0.093     l0.365-0.059l-0.656,0.153l0.09-0.019c-0.179,0.041-0.365,0.071-0.547,0.089l0.28-0.034c-6.016,1.408-12.141,1.885-18.258,1.67     c-6.107-0.255-12.251-1.192-18.058-3.402c-5.711-2.184-11.44-5.769-14.463-11.603c-1.489-2.877-2.082-6.183-1.878-9.361     c0.202-3.193,1.141-6.242,2.394-9.079c2.49-5.775,6.885-10.454,11.709-14.162c4.822-3.789,10.239-6.644,15.697-9.229     c5.49-2.56,11.196-4.596,16.965-6.351C302.554,235.9,308.404,234.415,314.338,233.394z"/>
		</g>
	</g>
	<g>
		<path style="fill:#A9312F;" d="M282.124,299.438c-0.659-2.594-0.086-5.308,0.527-7.852c0.668-2.57,1.734-5.027,3.049-7.337    c2.677-4.579,6.511-8.56,11.212-10.937c-3.393,4-6.476,7.898-8.955,12.247c-1.277,2.143-2.372,4.389-3.388,6.689    C283.637,294.562,282.547,296.926,282.124,299.438z"/>
	</g>
	<g>
		<path style="fill:#A9312F;" d="M258.704,290.588c1.504-6.461,4.808-12.404,8.918-17.609c2.079-2.595,4.398-5.01,6.995-7.093    c2.519-2.17,5.44-3.846,8.413-5.247c-2.425,2.258-4.827,4.403-7.035,6.748c-2.23,2.31-4.367,4.694-6.334,7.222    c-2.02,2.482-3.905,5.081-5.719,7.745C262.153,285.034,260.374,287.743,258.704,290.588z"/>
	</g>
	<g style="opacity:0.48;">
		<g>
			<path style="fill:#A9312F;" d="M237.805,312.033c1.839-0.266,3.679-0.072,5.456,0.293c1.785,0.359,3.514,0.95,5.175,1.684     c3.285,1.526,6.356,3.637,8.569,6.59c-1.754-0.609-3.331-1.365-4.927-2.07l-4.716-2.141     C244.225,314.946,241.102,313.616,237.805,312.033z"/>
		</g>
	</g>
	<g style="opacity:0.48;">
		<g>
			<path style="fill:#A9312F;" d="M243.011,320.599c0.24-1.586,0.845-3.042,1.589-4.404c0.737-1.374,1.685-2.617,2.728-3.781     c2.124-2.253,4.876-4.156,8.049-4.612c-1.081,1.192-2.145,2.18-3.157,3.24c-0.994,1.067-2.024,2.064-2.981,3.151     C247.239,316.297,245.35,318.471,243.011,320.599z"/>
		</g>
	</g>
	<g>
		<path style="fill:#A9312F;" d="M301.129,154.65c-0.347,0.428-0.722,0.856-1.069,1.257c-4.92,5.562-10.642,10.375-16.952,14.252    c-2.567,1.578-5.401,3.021-8.369,2.781c-0.909-0.08-1.818-0.348-2.487-0.962c-1.123-1.07-1.123-2.834-0.909-4.385    c0.936-6.23,5.241-14.225,11.123-19.76C288.963,149.65,295.22,151.976,301.129,154.65z"/>
	</g>
	<g>
		<path style="fill:#A9312F;" d="M333.991,174.971c-4.599,3.69-9.706,6.738-15.08,9.145c-6.043,2.7-12.273,5.588-19.064,5.321    c-1.123-0.053-2.273-0.187-3.262-0.695c-2.808-1.497-1.684-4.385,1.07-7.594c5.187-5.989,16.15-13.102,18.342-14.546    c1.07-0.695,2.193-1.444,3.316-2.192C324.766,167.805,329.686,171.388,333.991,174.971z"/>
	</g>
	<g>
		<path style="fill:#A9312F;" d="M359.767,206.629c-5.695,0.749-11.311,2.112-16.712,4.011c-7.086,2.46-16.177,7.059-23.824,4.145    c-1.738-0.668-3.316-2.166-3.503-4.011c-0.294-2.62,1.738-5.134,4.332-7.299c2.754-2.273,6.15-4.171,8.102-5.401    c6.364-3.931,13.316-6.979,20.589-8.262C352.44,194.49,356.317,200.265,359.767,206.629z"/>
	</g>
	<g>
		<path style="fill:#A9312F;" d="M334.205,286.443c0.027-0.134,0.027-0.267,0.027-0.401c0.107-4.011-1.043-7.915-2.754-11.524    c-2.406-5.08-5.722-9.759-7.487-15.107c-0.535-1.578-0.909-3.289-0.454-4.866c0.695-2.353,3.155-3.85,5.588-4.064    c2.46-0.214,4.866,0.615,7.086,1.658c7.193,3.396,13.289,9.118,17.139,16.097c0.829,1.497,1.551,3.102,2.139,4.706    C348.59,278.502,341.21,282.94,334.205,286.443z"/>
	</g>
	<g>
		<path style="fill:#A9312F;" d="M369.847,252.138c-2.487-2.674-4.84-5.508-7.781-7.62c-4.358-3.128-9.733-4.492-14.519-6.925    c-1.872-0.936-3.69-2.086-4.866-3.824c-1.176-1.711-1.551-4.145-0.454-5.909c1.47-2.3,4.679-2.621,7.407-2.54    c6.925,0.241,13.075,2.059,19.305,4.171C370.89,237.245,371.451,244.999,369.847,252.138z"/>
	</g>
	<g>
		<path style="fill:#A9312F;" d="M39.227,301.39c-6.07,7.54-13.85,13.449-20.401,20.508c-2.674-7.299-4.679-15.883-5.909-25.963    c3.984-2.674,8.262-4.947,12.54-7.086c2.834-1.391,5.749-2.808,8.877-2.995c3.155-0.187,6.578,1.123,8.022,3.931    C44.254,293.582,41.874,298.074,39.227,301.39z"/>
	</g>
	<g>
		<path style="fill:#A9312F;" d="M39.815,263.876c-0.615,1.631-2.326,2.54-3.93,3.209c-6.15,2.487-12.835,3.262-19.305,4.733    c-1.684,0.374-3.369,0.829-5.027,1.364c-0.027-3.984,0.027-8.182,0.187-12.54c0.054-1.364,0.134-2.7,0.267-4.064    c6.631-1.096,13.449-0.668,20.107,0.294c1.979,0.294,4.038,0.642,5.669,1.792C39.441,259.839,40.51,262.004,39.815,263.876z"/>
	</g>
	<g>
		<path style="fill:#A9312F;" d="M55.484,229.196c-0.428,2.781-3.182,4.706-5.936,5.187c-2.781,0.455-5.615-0.214-8.342-0.802    c-8.022-1.738-15.348-2.112-22.942-1.39c2.46-5.989,5.481-11.738,8.85-17.193c7.299,0.562,14.519,2.487,21.204,5.535    C52.008,222.191,56.099,225.212,55.484,229.196z"/>
	</g>
	<g>
		<path style="fill:#A9312F;" d="M72.249,195.56c-1.016,2.513-3.797,3.957-6.497,4.144c-2.701,0.187-5.375-0.668-7.915-1.604    c-4.706-1.738-9.278-3.743-13.957-5.588c5.241-5.989,10.482-11.257,15.107-15.562c4.84,2.727,9.439,6.257,12.166,11.096    C72.436,190.346,73.238,193.126,72.249,195.56z"/>
	</g>
	<g>
		<path style="fill:#A9312F;" d="M82.383,338.449c-0.775,0.749-1.524,1.444-2.3,2.139c-5.989,5.508-11.765,10.214-17.46,12.086    c-0.883-1.043-1.658-2.192-2.326-3.423c-4.706-8.663-3.262-19.706,1.551-28.289c0.936-1.711,2.059-3.369,3.583-4.572    c1.551-1.177,3.61-1.845,5.481-1.337c2.433,0.668,3.957,3.021,4.92,5.348c1.738,4.091,2.407,8.556,3.904,12.727    C80.404,335,81.233,336.845,82.383,338.449z"/>
	</g>
	<g>
		<path style="fill:#FFFFFF;" d="M190.165,370.428l-3.503,0.775c-0.348-0.294-0.695-0.588-1.07-0.829L169.63,237.566    c3.102-0.695,5.936-1.31,8.449-1.845L190.165,370.428z"/>
	</g>
	<g>
		<path style="fill:#FFFFFF;" d="M175.86,364.787c-0.802-0.321-1.604-0.642-2.433-0.909c-1.471-0.508-2.941-0.963-4.465-1.337    l-14.171-75.322l-1.497-6.15l-9.171-37.808c4.144-0.936,8.209-1.845,12.086-2.727L175.86,364.787z"/>
	</g>
	<g>
		<path style="fill:#FFFFFF;" d="M129.389,246.576l6.203,21.391c-3.396-0.856-7.193-1.39-11.364-1.578l-5.909-17.3    C121.929,248.261,125.646,247.432,129.389,246.576z"/>
	</g>
	<g>
		<path style="fill:#FFFFFF;" d="M160.86,360.99c-1.47-0.214-2.941-0.348-4.412-0.455c-1.203-0.107-2.406-0.16-3.61-0.214    l-13.931-51.043c2.754-1.07,5.294-2.326,7.514-3.824L160.86,360.99z"/>
	</g>
	<g>
		<path style="fill:#FFFFFF;" d="M105.164,252.084l5.481,14.894c-3.556,0.428-7.273,1.043-11.15,1.925    c-2.487-6.096-4.465-11.016-5.669-14.225C97.196,253.903,101.019,253.02,105.164,252.084z"/>
	</g>
	<g>
		<path style="fill:#FFFFFF;" d="M144.362,360.401c-1.925,0.054-3.85,0.214-5.722,0.375c-0.401,0.027-0.775,0.08-1.15,0.134    c-7.968-19.466-18.69-46.231-18.69-46.231c2.834-0.642,5.749-1.257,8.61-1.952L144.362,360.401z"/>
	</g>
	<g style="opacity:0.48;">
		<g>
			<path style="fill:#A9312F;" d="M36.847,347.327c5.26,5.248,13.06,7.037,20.173,6.055c7.324-0.684,13.361-5.278,18.792-10.025     c5.464-4.846,10.57-10.112,16.025-15.089c5.443-4.934,11.284-9.789,18.423-12.578c1.79-0.708,3.685-1.109,5.447-1.514     l5.368-1.241c3.562-0.832,7.156-1.595,10.635-2.596c6.872-1.984,13.975-4.628,18.392-9.937c2.177-2.629,3.356-5.951,3.542-9.408     c0.145-3.465-0.261-7.062-1.774-10.123c-1.459-3.109-3.909-5.704-6.831-7.624c-2.915-1.951-6.276-3.243-9.723-4.16l-0.855-0.227     l0.003-0.867v-0.026l0.852,1.094c-6.299-1.566-12.919-1.957-19.475-1.608c-1.642,0.088-3.282,0.224-4.921,0.4l-4.886,0.779     c-3.254,0.546-6.543,0.933-9.72,1.886l-9.624,2.452c-3.194,0.877-6.331,1.962-9.456,3.072c-6.243,2.247-12.369,4.834-18.407,7.62     c5.879-3.11,11.922-5.925,18.109-8.403c3.096-1.229,6.209-2.436,9.392-3.437l9.638-2.729c3.187-1.033,6.509-1.503,9.798-2.13     l4.945-0.9c1.663-0.217,3.333-0.393,5.009-0.521c6.693-0.501,13.524-0.306,20.152,1.331l0.85,0.21l0.003,0.884v0.026     l-0.851-1.094c3.64,0.939,7.24,2.281,10.457,4.395c3.217,2.076,6.029,4.981,7.724,8.525c1.761,3.552,2.228,7.491,2.092,11.32     c-0.168,3.866-1.521,7.823-4.026,10.881c-2.468,3.094-5.791,5.257-9.179,6.898c-3.418,1.643-6.98,2.814-10.56,3.805     c-3.585,1.002-7.183,1.736-10.774,2.548l-5.368,1.2c-1.816,0.403-3.528,0.751-5.163,1.386     c-6.648,2.511-12.363,7.213-17.873,11.937c-5.5,4.797-10.742,9.967-16.373,14.741c-2.83,2.371-5.779,4.651-9.04,6.488     c-1.634,0.897-3.36,1.696-5.153,2.226c-1.815,0.593-3.68,0.707-5.513,1.036c-3.7,0.343-7.486,0.03-11.02-1.102     C42.586,352.03,39.288,350.08,36.847,347.327z"/>
		</g>
	</g>
	<g style="opacity:0.48;">
		<g>
			<path style="fill:#A9312F;" d="M273.134,417.461c-5.152-1.734-10.714-1.867-15.959-0.719c-5.273,1.082-10.252,3.283-14.931,5.907     c-4.67,2.664-9.098,5.751-13.255,9.171c-4.151,3.41-8.13,7.104-11.718,11.043l-1.445,1.586l-0.227-2.151     c-0.68-6.439-1.928-12.882-3.356-19.226c-1.487-6.34-3.279-12.614-5.577-18.694c-2.339-6.057-5.07-11.961-8.448-17.472     c-3.462-5.451-7.57-10.44-12.356-14.69l-0.062-0.055l-0.02-0.021l-0.026-0.026l0.082,0.075c-5.09-4.21-11.289-6.991-17.763-8.644     c-6.513-1.582-13.278-2.154-20.031-2.12c-6.761,0.055-13.52,0.771-20.228,1.779c-6.696,1.066-13.38,2.507-19.859,4.432     l-1.367,0.406l0.34-1.378c0.45-1.824,0.757-4.193-0.109-5.45c-0.222-0.266-0.513-0.411-0.886-0.484     c-0.193-0.066-0.401,0.075-0.685,0.403c-0.53,0.662-0.885,1.667-1.19,2.617c-1.127,3.942-1.626,8.164-1.983,12.317l-0.395,4.607     l-0.538-4.581c-0.229-1.953-0.647-3.959-1.462-5.74c-0.415-0.877-0.958-1.724-1.732-2.216c-0.376-0.239-0.851-0.413-1.191-0.319     c-0.36,0.114-0.655,0.506-0.865,0.926c-0.791,1.778-0.93,3.871-1.085,5.867c-0.118,2.022-0.125,4.054-0.045,6.083     c-0.172-2.024-0.259-4.057-0.234-6.093c0.065-2.03,0.095-4.098,0.896-6.082c0.225-0.472,0.536-1.007,1.153-1.244     c0.65-0.184,1.22,0.065,1.69,0.325c0.97,0.577,1.585,1.508,2.066,2.43c0.937,1.889,1.424,3.9,1.74,5.96l-0.933,0.026     c0.093-2.123,0.258-4.227,0.499-6.337c0.253-2.107,0.547-4.216,1.13-6.309c0.325-1.044,0.619-2.095,1.376-3.116     c0.341-0.468,1.088-1.114,1.983-0.955c0.667,0.091,1.369,0.421,1.83,0.974c0.854,1.126,0.944,2.378,0.947,3.487     c-0.015,1.139-0.162,2.207-0.423,3.318l-1.026-0.972c6.577-2.104,13.25-3.686,20.021-4.911     c6.769-1.202,13.635-1.962,20.539-2.061c6.898-0.082,13.852,0.449,20.639,2.049c6.749,1.673,13.339,4.547,18.835,9.034     l0.036,0.029l0.047,0.047l0.027,0.026l-0.082-0.075c5.108,4.407,9.294,9.703,12.842,15.339     c3.445,5.708,6.195,11.769,8.537,17.961c2.299,6.212,4.073,12.591,5.536,19.028c1.447,6.45,2.504,12.95,3.082,19.571     l-1.672-0.565c3.797-3.998,7.865-7.612,12.158-10.996c4.295-3.364,8.827-6.452,13.667-8.996c4.846-2.505,9.985-4.571,15.386-5.49     C262.421,415.086,268.179,415.09,273.134,417.461z"/>
		</g>
	</g>
	<g>
		<path style="fill:#A9312F;" d="M63.131,386.07c-3.877,2.059-7.995,3.663-12.219,4.92c-2.246-6.524-3.931-12.647-5.241-18.048    c2.674-0.321,5.294-0.829,7.915-1.471c0.856-0.214,1.684-0.454,2.513-0.695c4.973-1.444,9.519-3.61,14.76-3.877    c1.818-0.107,3.743,0.027,5.321,0.962C84.976,372.995,66.821,384.118,63.131,386.07z"/>
	</g>
	<g>
		<path style="fill:#A9312F;" d="M100.271,401.873c0.027,1.658-0.775,3.235-1.898,4.439c-3.102,3.342-7.674,6.177-11.498,8.636    c-6.417,4.064-13.048,7.54-19.867,10.669c-3.449-5.561-6.417-11.23-9.011-16.792c3.262-1.177,6.551-2.353,9.813-3.529    c5.294-1.899,10.508-4.064,15.963-5.508c3.422-0.882,8.663-3.075,12.594-2.059C98.453,398.29,100.217,399.493,100.271,401.873z"/>
	</g>
	<g>
		<path style="fill:#A9312F;" d="M167.705,456.312c-4.118,13.182-11.043,25.482-20.08,35.936    c-7.832-2.083-15.909-5.594-23.61-11.123l0.187-0.187c8.021-8.048,13.77-17.995,21.043-26.658    c3.342-3.957,7.139-7.728,11.899-9.76c3.155-1.337,7.193-1.711,9.652,0.668C169.63,447.916,168.881,452.569,167.705,456.312z"/>
	</g>
	<g>
		<path style="fill:#A9312F;" d="M188.427,497.329c1.765-5.053,3.128-10.214,3.824-15.508c0.241-1.952,0.374-4.064-0.615-5.776    c-1.818-3.182-6.738-3.235-9.706-1.043c-2.968,2.192-4.438,5.802-5.802,9.225c-1.791,4.412-3.583,8.824-5.642,13.102    C170.486,497.329,180.071,498.58,188.427,497.329z"/>
	</g>
	<g>
		<path style="fill:#A9312F;" d="M108.854,451.686c-3.449,3.476-7.059,6.791-10.829,9.92c-5.161-4.653-10.294-9.76-15.375-15.348    c3.931-2.219,7.647-4.84,11.364-7.407c3.824-2.674,27.781-19.867,29.198-8.77C124.255,438.397,113.934,446.526,108.854,451.686z"/>
	</g>
	<g>
		<path style="fill:#FFFFFF;" d="M82.532,257.272c0,0-2.684-4.54-1.949-8.948c0.735-4.408,8.817-4.776,8.817-4.776    s-1.47-4.308,1.469-6.838c2.939-2.53,7.232,0,7.232,0s-7.009-9.625-1.859-15.712c5.301-6.265,11.159,0.324,11.159,0.324    s1.837-4.96,7.898-4.776c6.062,0.184,5.511,8.22,5.511,8.22s-0.367-4.179,4.776-5.465c5.143-1.286,7.348,5.465,7.348,5.465    s-1.846-3.995,2.659-7.118c4.505-3.123,10.566,2.939,10.566,2.939s2.453-5.337,8.023-4.046c5.57,1.291,2.547,12.128,2.547,12.128    s1.665-5.715,9.085-5.878c7.42-0.163,8.449,8.082,8.449,8.082s0.434-3.49,5.635-4.225c5.202-0.735,9.61,14.879,2.63,16.348    c-6.98,1.47-8.633-4.98-8.633-4.98s0.28,6.082-6.748,6.633c-7.028,0.551-10.939-4.116-10.939-4.116l-24.48,5.518    c0,0,5.53,7.93,1.99,9.877c-3.54,1.947-5.193-3.844-5.193-3.844s-10.99,4.526-11.909-2.454l-11.452,2.454    c0,0,1.459,6.909-2.928,8.554c-4.387,1.645-8.409-3.367-8.409-3.367S89.256,264.567,82.532,257.272z"/>
	</g>
	<g style="opacity:0.48;">
		<path style="fill:#A9312F;" d="M107.401,221.322c0,0,7.642-1.075,8.81,8.715c0,0,7.599-0.884,9.206,8.618    c0,0-5.407-8.179-11.251-6.426C114.166,232.229,115.465,223.94,107.401,221.322z"/>
	</g>
	<g style="opacity:0.48;">
		<path style="fill:#A9312F;" d="M156.728,228.67c0,0-2.917-4.24-8.465-3.007c-5.549,1.233-3.329,10.058-3.329,10.058    s-9.524-0.765-8.461,9.262c0,0,0.984-8.446,10.086-8.272C146.559,236.71,143.862,223.415,156.728,228.67z"/>
	</g>
	<g>
		<path style="fill:#FB5555;" d="M68.187,115.332c11.585-1.368,22.176-2.678,33.729-4.222c5.777-0.753,11.553-1.528,17.297-2.446    c5.697-0.957,11.581-1.829,16.876-3.559l-0.637,0.635c3.398-13.585,1.01-29.709,9.861-42.947c0.622-0.772,1.223-1.559,2.032-2.193    c0.39-0.324,0.738-0.695,1.166-0.973l1.335-0.781c0.855-0.595,1.935-0.724,2.9-1.085c1.007-0.15,2.048-0.269,3.056-0.239    c4.091,0.243,7.679,2.067,10.81,4.174c6.245,4.374,11.237,9.985,15.596,16.075c2.073,3.033,4.154,6.036,6.393,8.891    c1.122,1.409,2.287,2.817,3.537,3.969c0.306,0.297,0.633,0.52,0.922,0.729l0.392,0.206c0.159-0.011,0.313-0.015,0.467-0.01    c0.255,0.036,0.717,0.005,1.17-0.04l1.332-0.108c7.221-0.845,14.487-2.148,21.712-3.416c14.432-2.729,28.966-5.106,43.243-8.583    c-7.002,2.275-14.222,3.774-21.371,5.488c-7.165,1.671-14.359,3.209-21.572,4.668c-7.224,1.441-14.411,2.909-21.775,3.946    l-1.413,0.148c-0.463,0.049-0.914,0.119-1.579,0.063l-0.91-0.073c-0.287-0.104-0.565-0.26-0.84-0.402    c-0.462-0.309-0.893-0.622-1.251-0.958c-1.464-1.332-2.652-2.767-3.832-4.219c-2.322-2.915-4.453-5.943-6.552-8.963    c-4.21-5.806-9.216-11.308-15.073-15.323c-2.929-1.955-6.196-3.5-9.502-3.661c-3.333-0.229-6.314,1.536-8.385,4.228    c-2.099,2.694-3.436,6.073-4.446,9.501c-1.002,3.45-1.671,7.023-2.189,10.624c-1.108,7.227-1.102,14.525-3.184,22.049    l-0.134,0.484l-0.504,0.152c-5.846,1.76-11.586,2.425-17.392,3.276c-5.792,0.789-11.593,1.43-17.395,2.05    c-5.802,0.625-11.618,1.095-17.429,1.596C78.834,114.573,74.008,114.969,68.187,115.332z"/>
	</g>
	<g style="opacity:0.48;">
		<path style="fill:#A9312F;" d="M265.54,191.669c-28.396,19.279-72.835,16.043-72.835,16.043h-0.027    c-0.321-0.749-0.615-1.47-0.909-2.112l55.268-19.572l15.642-4.037C263.294,183.086,264.283,186.589,265.54,191.669z"/>
	</g>
	<g>
		<path style="fill:#FFFFFF;" d="M268.188,181.869c-15.375,11.284-81.151,24.947-81.151,24.947l-3.449-7.888    c24.091-23.476,81.365-26.123,81.365-26.123l0.053,0.134L268.188,181.869z"/>
	</g>
	<g>
		<path style="fill:#FB5555;" d="M265.006,172.939c-22.953,16.515-81.418,25.99-81.418,25.99c8.749-8.525,24.171-16.398,37.34-20.3    c23.094-6.843,44.026-5.823,44.026-5.823L265.006,172.939z"/>
	</g>
	<g>
		<polygon style="fill:#FFFFFF;" points="215.925,184.29 195.689,133.08 154.679,84.834 162.112,83.377 201.345,131.405     221.903,182.226 219.744,183.671   "/>
	</g>
	<g>
		<path style="fill:#A9312F;" d="M249.194,427.511c1.491-0.966,3.152-1.549,4.854-1.934c1.705-0.404,3.479-0.518,5.268-0.387    c1.773,0.19,3.607,0.566,5.202,1.566c1.595,0.942,2.902,2.44,3.372,4.151c-1.402-1.113-2.769-1.82-4.228-2.301    c-1.452-0.478-3.003-0.688-4.568-0.815C255.939,427.486,252.693,427.672,249.194,427.511z"/>
	</g>
	<g>
		<path style="fill:#A9312F;" d="M152.458,86.375c0.386-1.091,1.377-2.262,2.434-3.036c1.082-0.828,2.386-1.388,3.763-1.65    c2.768-0.5,5.759,0.443,7.455,2.545c-2.688-0.238-4.839-0.392-6.998,0.026c-1.082,0.159-2.139,0.496-3.243,0.86    C154.796,85.467,153.602,86.058,152.458,86.375z"/>
	</g>
</g>















</svg>
