<?xml version="1.0" encoding="UTF-8"?>
<!-- Generator: Adobe Illustrator 25.2.3, SVG Export Plug-In . SVG Version: 6.00 Build 0)  -->
<svg xmlns="http://www.w3.org/2000/svg" xmlns:xlink="http://www.w3.org/1999/xlink" version="1.1" id="Capa_1" x="0px" y="0px" viewBox="0 0 512 512" style="enable-background:new 0 0 512 512;" xml:space="preserve" width="512" height="512">
<g>
	<g>
		<g>
			
				<ellipse transform="matrix(0.997 -0.0771 0.0771 0.997 -27.8935 22.1689)" style="fill:#67DCBC;" cx="273.105" cy="372.262" rx="111.883" ry="31.108"/>
		</g>
		<g>
			<path style="fill:#67DCBC;" d="M399.636,388.98c0.611,7.893-14.81,15.521-34.442,17.04c-19.632,1.519-36.042-3.649-36.653-11.541     c-0.611-7.892,14.81-15.521,34.442-17.04C382.616,375.921,399.026,381.088,399.636,388.98z"/>
		</g>
		<g>
			<path style="fill:#67DCBC;" d="M327.955,412.017c0.253,3.265-6.127,6.421-14.249,7.05c-8.122,0.628-14.912-1.51-15.164-4.775     c-0.253-3.265,6.127-6.421,14.249-7.05S327.703,408.752,327.955,412.017z"/>
		</g>
		<g>
			<path style="fill:#67DCBC;" d="M423.099,371.125c0.253,3.265-6.127,6.421-14.249,7.05c-8.122,0.628-14.911-1.51-15.164-4.775     c-0.253-3.265,6.127-6.421,14.249-7.05C416.058,365.722,422.847,367.859,423.099,371.125z"/>
		</g>
	</g>
	<g>
		<g>
			<g>
				<g>
					<path style="fill:#FF983D;" d="M118.47,242.743c-7.199-0.56-21.265,0.56-36.222,2.116c-5.228,0.539-10.58,1.12-15.767,1.722       c-11.182,1.265-21.7,2.531-28.982,3.257c-20.331,2.012-19.356-7.842-19.356-7.842c-15.041,1.037-11.12-12.468-11.12-12.468       c-8.112-12.987,15.041-20.642,30.476-24.895c0.934-0.27,1.846-0.519,2.718-0.747c3.879-1.037,9.294-2.075,15.248-3.07       c5.145-0.871,10.684-1.68,15.912-2.427c5.332-0.726,10.373-1.369,14.377-1.867c5.415-0.664,8.983-1.058,8.983-1.058       l23.733,21.638C118.47,217.101,133.614,243.905,118.47,242.743z"/>
				</g>
				<g style="opacity:0.48;">
					<g>
						<path style="fill:#A9312F;" d="M18.148,242.002c0.001-1.715,0.937-3.37,2.129-4.618c1.201-1.282,2.716-2.22,4.295-2.879        c0.787-0.358,1.615-0.557,2.427-0.814c0.832-0.164,1.657-0.35,2.494-0.435c1.673-0.172,3.354-0.137,5.01,0.148        c-0.797,0.304-1.59,0.516-2.375,0.732c-0.784,0.218-1.551,0.48-2.325,0.67c-1.519,0.491-3.03,0.93-4.443,1.564        c-1.446,0.562-2.79,1.302-4.033,2.188C20.099,239.465,18.966,240.542,18.148,242.002z"/>
					</g>
				</g>
				<g style="opacity:0.48;">
					<g>
						<path style="fill:#A9312F;" d="M7.013,229.534c0.722-1.731,1.995-3.194,3.427-4.409c1.437-1.231,3.107-2.171,4.852-2.899        c1.777-0.639,3.614-1.134,5.488-1.249c1.863-0.17,3.739-0.024,5.546,0.391c-1.819,0.43-3.576,0.724-5.291,1.17        c-1.718,0.416-3.376,0.957-4.998,1.572C12.816,225.411,9.798,227.118,7.013,229.534z"/>
					</g>
				</g>
			</g>
			<g>
				<path style="fill:#A9312F;" d="M56.854,214.715c-0.124,1.66-0.373,3.319-1.058,4.834c-0.685,1.514-1.867,2.863-3.423,3.423      c-2.738,0.975-5.83-0.705-7.552-3.05c-1.722-2.344-2.448-5.228-3.485-7.946c-0.892-2.344-2.033-4.585-3.403-6.68      c-0.145-0.228-0.29-0.436-0.436-0.664c0.934-0.27,1.846-0.519,2.718-0.747c3.879-1.037,9.294-2.075,15.248-3.07      c0.208,0.581,0.353,1.182,0.498,1.763C56.875,206.541,57.166,210.67,56.854,214.715z"/>
			</g>
			<g>
				<path style="fill:#A9312F;" d="M66.48,246.581c0.56-4.875,0.498-9.896,0.166-14.792c-0.145-2.199-0.353-4.46,0.373-6.535      c0.726-2.075,2.738-3.9,4.917-3.61c1.369,0.187,2.51,1.141,3.402,2.199c1.722,2.075,2.738,4.606,3.651,7.137      c1.597,4.481,2.863,9.149,3.257,13.879C77.019,245.399,71.667,245.979,66.48,246.581z"/>
			</g>
			<g>
				<path style="fill:#A9312F;" d="M86.604,199.903c0.042,2.344-1.203,4.751-3.299,5.768c-1.971,0.954-4.377,0.56-6.245-0.539      c-1.888-1.1-3.299-2.842-4.46-4.689c-0.415-0.664-0.83-1.348-1.224-2.054c5.332-0.726,10.373-1.369,14.377-1.867      C86.272,197.579,86.583,198.72,86.604,199.903z"/>
			</g>
		</g>
		<g>
			<g>
				<path style="fill:#FF983D;" d="M210.125,314.13c0,0,3.61,4.938,1.266,6.825c-2.199,1.784-5.332-2.801-5.726-3.381      c0.104,0.705,0.954,6.618-1.411,7.406c-3.776,1.265-4.128-2.199-4.128-2.199c-1.95,2.884-5.684,7.178-10.373,12.116      c-3.485,3.693-7.51,7.738-11.68,11.825c-13.277,13.008-28.214,26.534-33.297,30.517c-8.858,6.908-16.783-0.685-16.783-0.685      c-12.821,3.631-15.248-8.527-15.248-8.527c-11.701-9.066-1.037-26.181,9.502-38.795c4.356-5.228,8.713-9.688,11.431-12.468      c0.415-0.436,0.871-0.933,1.328-1.514c2.572-3.07,5.892-8.049,9.439-13.754c2.22-3.631,4.543-7.552,6.805-11.473      c8.112-14.149,15.477-28.235,15.477-28.235s62.466,34.604,60.516,38.214C225.311,303.632,210.125,314.13,210.125,314.13z"/>
			</g>
			<g style="opacity:0.48;">
				<g>
					<path style="fill:#A9312F;" d="M127.987,376.564c-0.427-1.629-0.382-3.352-0.082-5.01c0.287-1.669,0.887-3.287,1.717-4.776       c0.857-1.47,1.89-2.858,3.194-3.949c1.245-1.146,2.737-1.993,4.296-2.57c-1.094,1.282-2.205,2.402-3.149,3.659       c-0.978,1.217-1.827,2.508-2.573,3.85C129.855,370.444,128.82,373.357,127.987,376.564z"/>
				</g>
			</g>
			<g style="opacity:0.48;">
				<g>
					<path style="fill:#A9312F;" d="M112.742,368.022c-0.475-1.298-0.548-2.704-0.4-4.069c0.133-1.376,0.554-2.72,1.159-3.975       c0.632-1.239,1.435-2.409,2.476-3.332c0.99-0.966,2.211-1.673,3.498-2.118c-0.798,1.133-1.621,2.092-2.302,3.152       c-0.706,1.029-1.328,2.088-1.855,3.192C114.202,363.067,113.466,365.407,112.742,368.022z"/>
				</g>
			</g>
		</g>
		<g>
			<g>
				<path style="fill:#FF983D;" d="M511.294,108.143c-1.909,3.548-10.29,1.162-19.294,1.286c-3.195,0.021-6.473,0.373-9.564,1.452      c-2.697,0.913-5.269,2.365-7.51,4.626c-0.954,0.954-1.888,2.22-2.822,3.776c-6.846,11.244-14.232,36.658-29.936,51.097      c-1.058,0.975-2.178,1.909-3.319,2.78c-4.626,3.506-10.643,6.141-17.53,7.489c-8.257,1.639-17.8,1.452-27.758-1.162      l-3.631-12.364c0,0,30.849,1.846,43.67-7.635c2.967-2.199,5.477-5.332,7.759-9.025c2.531-4.045,4.771-8.775,7.116-13.734      c7.074-14.999,14.895-32.094,32.695-38.587c4.315-1.577,8.07-2.572,11.327-3.112      C511.169,91.962,513.555,103.974,511.294,108.143z"/>
			</g>
			<g style="opacity:0.2;">
				<path style="fill:#A9312F;" d="M511.294,108.143c-1.909,3.548-10.29,1.162-19.294,1.286c-3.195,0.021-6.473,0.373-9.564,1.452      c-2.697,0.913-5.269,2.365-7.51,4.626c-0.954,0.954-1.888,2.22-2.822,3.776c-6.846,11.244-14.232,36.658-29.936,51.097      c-1.058,0.975-2.178,1.909-3.319,2.78c-4.626,3.506-10.643,6.141-17.53,7.489c-8.257,1.639-17.8,1.452-27.758-1.162      l-3.631-12.364c0,0,30.849,1.846,43.67-7.635c2.967-2.199,5.477-5.332,7.759-9.025c2.531-4.045,4.771-8.775,7.116-13.734      c7.074-14.999,14.895-32.094,32.695-38.587c4.315-1.577,8.07-2.572,11.327-3.112      C511.169,91.962,513.555,103.974,511.294,108.143z"/>
			</g>
		</g>
		<g>
			<g>
				<path style="fill:#FF983D;" d="M313.249,281.932c0,0,19.684,29.388,66.261,21.625c0,0,0.555,18.575,10.258,26.061      c4.21,3.247,9.631,7.875,15.191,8.28c1.753,0.128,3.794-0.657,3.379-2.707c-0.337-1.662-2.017-2.954-3.104-4.138      c-1.125-1.225-2.385-2.322-3.509-3.545c-2.57-2.794-5.286-5.635-6.882-9.129c-1.395-3.054-1.27-6.113-1.264-9.376      c0.01-5.3-0.196-11.006-3.309-15.531c-2.114-3.073-5.33-5.087-8.819-6.272c0,0,23.288-12.092,17.189-32.107      c-6.099-20.015-76.797-3.62-76.797-3.62L313.249,281.932z"/>
			</g>
			<g style="opacity:0.2;">
				<path style="fill:#A9312F;" d="M313.249,281.932c0,0,19.684,29.388,66.261,21.625c0,0,0.555,18.575,10.258,26.061      c4.21,3.247,9.631,7.875,15.191,8.28c1.753,0.128,3.794-0.657,3.379-2.707c-0.337-1.662-2.017-2.954-3.104-4.138      c-1.125-1.225-2.385-2.322-3.509-3.545c-2.57-2.794-5.286-5.635-6.882-9.129c-1.395-3.054-1.27-6.113-1.264-9.376      c0.01-5.3-0.196-11.006-3.309-15.531c-2.114-3.073-5.33-5.087-8.819-6.272c0,0,23.288-12.092,17.189-32.107      c-6.099-20.015-76.797-3.62-76.797-3.62L313.249,281.932z"/>
			</g>
		</g>
		<g>
			<path style="fill:#FF983D;" d="M458.371,294.317c-3.962,9.336-24.273,0.124-33.422-7.489     c-10.788-8.983-18.796-25.704-18.796-25.704c-27.799,13.879-50.786,9.107-61.615,5.27c-0.394-0.125-0.768-0.27-1.12-0.394     c-0.021-0.021-0.062-0.042-0.104-0.042c-3.527-1.328-5.456-2.448-5.456-2.448c0.104,0.062,0.042,0.311-0.124,0.705     c-1.639,3.568-13.423,19.19-14.232,20.144c-11.867,13.775-27.011,24.978-44.5,30.372c-12.717,3.921-26.202,6.058-39.77,6.348     c-9.025,0.207-18.111-0.415-27.032-1.846l-0.021-0.021c-23.401-3.776-45.765-13.298-63.545-28.858     c-1.099-0.954-2.199-1.95-3.278-2.925c-10.684-9.937-19.958-21.368-27.364-33.92c-0.021-0.062-0.062-0.104-0.083-0.166     c-3.444-6.307-6.224-12.945-8.174-19.937c-1.743-6.224-2.842-10.29-2.863-13.174c1.037-3.444,3.485-6.286,7.966-7.801     c0.021-0.021,0.062-0.021,0.104-0.042c10.373-3.548,23.754,1.348,33.463,4.751c6.431-17.572,14.75-34.355,25.476-48.898     c3.278-3.216,6.929-6.452,10.996-9.688c9.979-7.946,20.746-14.896,32.135-20.559c4.191-2.075,8.464-3.962,12.8-5.664     c6.888-2.718,13.983-4.917,21.223-6.576c3.755-0.871,7.572-1.577,11.431-2.137c0.083-0.021,0.166-0.021,0.249-0.041     c4.627-0.664,9.481-1.183,14.46-1.515c5.332-0.353,10.788-0.519,16.265-0.436c7.095,0.104,14.211,0.622,21.036,1.618     c4.979,0.726,9.813,1.722,14.377,2.987c3.091,0.851,6.099,1.763,9.025,2.738c6.057,1.971,11.804,4.17,17.219,6.639     c6.12,2.718,11.825,5.768,17.136,9.107c6.348,4.004,12.095,8.423,17.24,13.298c6.659,6.265,12.323,13.298,16.929,21.078     c3.9,6.494,7.074,13.506,9.522,21.057c1.722,5.373,3.091,11.016,4.066,16.929c0.311,1.743,0.581,3.506,0.809,5.311     c0.394,3.05,0.664,6.12,0.809,9.191c0.208,4.128,0.187,8.257-0.083,12.385c-0.021,0.581-1.224,8.132-0.913,8.319     c6.12,3.651,6.12,7.157,11.867,18.568C438.226,282.285,462.312,284.961,458.371,294.317z"/>
		</g>
		<g>
			<path style="fill:#FFC38E;" d="M337.733,264.215c-1.639,3.568-13.423,19.19-14.232,20.144     c-11.867,13.775-27.011,24.978-44.5,30.372c-12.717,3.921-26.202,6.058-39.77,6.348c-9.025,0.207-18.111-0.415-27.032-1.846     l-0.021-0.021l-0.187-5.995c0,0,17.406-13.879,23.319-20.414c0,0,38.359,0.477,51.616-14.045     c13.257-14.501,19.833-26.16,36.015-28.65C322.941,250.108,327.34,259.734,337.733,264.215z"/>
		</g>
		<g style="opacity:0.2;">
			<path style="fill:#A9312F;" d="M257.509,170.547c-6.66-7.821-14.439-14.605-22.738-20.622     c-1.763-1.286-16.037-12.779-17.758-11.929c-11.389,5.664-22.156,12.614-32.135,20.559c-4.066,3.236-7.718,6.473-10.996,9.688     c-10.726,14.543-19.045,31.326-25.476,48.898c-9.709-3.402-23.09-8.298-33.463-4.751c-0.042,0.021-0.083,0.021-0.104,0.042     c-0.384,0.131-0.712,0.258-1.065,0.386l-19.037-17.357c0,0-3.568,0.394-8.983,1.058c-4.004,0.498-8.586,0.948-14.377,1.867     c-5.216,0.828-10.767,1.556-15.912,2.427c-5.954,0.996-11.369,2.033-15.248,3.07c-0.871,0.228-1.784,0.477-2.718,0.747     c-15.435,4.253-38.587,11.908-30.476,24.895c0,0-3.921,13.506,11.12,12.468c0,0-0.975,9.854,19.356,7.842     c7.282-0.726,17.8-1.992,28.982-3.257c5.186-0.602,10.539-1.182,15.767-1.722c11.72-1.219,22.876-2.167,30.627-2.252     c1.466,3.679,3.139,7.263,5.035,10.737c0.021,0.062,0.062,0.104,0.083,0.166c6.97,12.696,16.576,24.003,27.364,33.919     c1.079,0.975,2.179,1.971,3.278,2.925c0.532,0.465,1.091,0.895,1.631,1.35c-1.949,3.352-3.921,6.683-5.821,9.791     c-3.547,5.705-6.867,10.684-9.439,13.754c-0.457,0.581-0.913,1.079-1.328,1.514c-2.718,2.78-7.074,7.24-11.431,12.468     c-10.539,12.614-21.203,29.729-9.502,38.795c0,0,2.427,12.157,15.248,8.527c0,0,7.925,7.593,16.784,0.685     c5.083-3.983,20.02-17.51,33.297-30.517c4.17-4.087,8.195-8.132,11.68-11.825c4.688-4.937,8.423-9.232,10.373-12.116     c0,0,0.353,3.465,4.128,2.199c2.106-0.702,1.663-5.46,1.467-6.993c0.092,0.019,0.184,0.039,0.276,0.058     c0.946,1.298,3.509,4.438,5.393,2.91c0.56-0.451,0.774-1.078,0.785-1.769c8.933,1.448,18.013,2.094,27.056,1.893     c7.987-9.128,14.647-19.708,21.078-29.667c7.137-11.037,12.385-23.215,15.435-35.808     C282.86,226.271,278.068,194.758,257.509,170.547z"/>
		</g>
		<g>
			<path style="fill:#FF983D;" d="M260.704,236.125c-0.56,2.241-1.286,4.44-2.116,6.597c-0.726,1.846-1.535,3.672-2.427,5.456     c-1.971,3.942-4.377,7.676-7.137,11.12c-0.975,1.224-1.971,2.386-3.029,3.485c-1.411,1.535-2.904,2.967-4.44,4.253     c-2.635,2.303-5.436,4.253-8.382,5.871c-9.937,5.539-21.451,7.323-33.712,4.606c-1.535-0.332-3.07-0.726-4.605-1.182     c-9.004-2.635-17.821-5.809-26.41-9.522c-25.559-11.099-50.267-27.136-66.491-50.226c-9.17-13.049-12.904-25.932-12.759-37.799     c0.062-7.054,1.618-14.066,4.336-20.601c1.286-3.112,2.842-6.12,4.668-8.983c0.892-1.473,1.846-2.884,2.904-4.274     c0.581-0.809,1.203-1.618,1.846-2.386c2.801-3.402,6.016-6.535,9.522-9.294c1.846-1.452,3.776-2.822,5.767-4.046     c2.822-1.763,5.788-3.299,8.859-4.543c3.651-1.514,7.427-2.635,11.286-3.278c15.788-2.697,33.671,2.033,48.483,8.547     c2.282,0.996,4.481,2.054,6.597,3.112c3.216,1.618,6.182,3.257,9.004,4.958c1.224,0.705,2.406,1.452,3.568,2.199     c0.519,0.332,1.037,0.664,1.535,1.017c7.406,4.855,13.754,10.165,20.269,16.327c0.498,0.436,1.016,0.934,1.514,1.411     c1.017,0.975,2.033,1.971,3.07,2.967c0.705,0.705,1.411,1.411,2.116,2.116c2.303,2.303,4.543,4.709,6.68,7.24     c9.937,11.721,17.717,25.704,20.476,40.786C263.172,220.13,262.758,228.325,260.704,236.125z"/>
		</g>
		<g style="opacity:0.48;">
			<path style="fill:#A9312F;" d="M182.014,199.967c-3.957-2.595-8.484-3.686-13.602-4.288c-6.272-0.737-13.078,0.205-17.609,5.006     c-2.045,2.167-3.421,4.878-4.303,7.706c-7.044,22.575,20.41,34.64,32.408,28.93c6.68-3.179,13.248-9.112,14.404-16.806     C194.544,212.313,188.523,204.234,182.014,199.967z"/>
		</g>
		<g>
			<g>
				<g>
					<path style="fill:#FFFFFF;" d="M214.816,241.914c-7.326-0.752-15.494-5.852-19.026-12.356c-0.754-1.39-1.294-2.873-1.573-4.446       c-1.178-6.845,1.59-14.771,6.024-20.048c0.093-0.129,0.197-0.251,0.3-0.373c4.574-5.242,11.683-7.475,18.464-6.099       c7.935,1.614,16.861,7.436,18.275,15.938c0.554,3.357,0.14,7.017-1.041,10.536l0.011,0.008       C233.134,234.467,224.631,242.912,214.816,241.914z"/>
				</g>
				<g>
					<path style="fill:#A9312F;" d="M214.816,241.914c-4.14-0.431-8.073-2.085-11.553-4.339c-1.739-1.141-3.355-2.477-4.786-4       c-1.436-1.515-2.697-3.225-3.592-5.149c-0.903-1.922-1.323-4.064-1.394-6.175c-0.084-2.12,0.141-4.246,0.601-6.316       c0.934-4.14,2.796-8.071,5.459-11.45l-0.043,0.055c3.194-4.013,7.841-6.573,12.847-7.221c2.484-0.322,5.048-0.229,7.472,0.377       c2.415,0.568,4.742,1.442,6.927,2.593c4.32,2.31,8.244,5.822,10.18,10.489c0.986,2.316,1.3,4.858,1.176,7.293       c-0.112,2.452-0.649,4.852-1.466,7.131l-0.152-0.481l0.011,0.008l0.242,0.187l-0.101,0.286       c-0.839,2.339-1.974,4.562-3.372,6.596c-1.405,2.027-3.052,3.885-4.925,5.475c-1.877,1.586-4.01,2.867-6.309,3.718       C219.741,241.837,217.251,242.18,214.816,241.914z M214.816,241.914c2.438,0.243,4.918-0.124,7.199-0.988       c2.292-0.851,4.364-2.216,6.179-3.829c1.822-1.615,3.377-3.515,4.651-5.577c1.278-2.059,2.293-4.276,2.998-6.579l0.153,0.479       l-0.011-0.007l-0.244-0.146l0.091-0.335c0.687-2.241,1.089-4.569,1.085-6.886c0.006-2.321-0.397-4.612-1.384-6.652       c-0.961-2.056-2.404-3.86-4.072-5.412c-1.671-1.556-3.595-2.852-5.651-3.876c-4.105-2.066-8.701-3.269-13.183-2.695       c-1.12,0.142-2.223,0.392-3.303,0.72c-1.066,0.365-2.123,0.771-3.119,1.303c-0.992,0.535-1.96,1.13-2.833,1.85       c-0.458,0.334-0.854,0.74-1.282,1.112c-0.37,0.397-0.832,0.831-1.117,1.195l-0.043,0.055       c-2.617,3.017-4.582,6.678-5.653,10.586c-0.532,1.955-0.841,3.975-0.856,6.003c-0.023,2.031,0.275,4.059,1.052,5.94       c1.564,3.774,4.51,6.91,7.885,9.261C206.745,239.796,210.694,241.424,214.816,241.914z"/>
				</g>
			</g>
			<g>
				<path style="fill:#A9312F;" d="M204.876,231.531c3.997,3.852,10.204,5.721,15.566,3.909c8.544-2.887,13.383-13.491,9.77-21.71      c-1.94-4.413-6.238-8.145-10.958-9.247c-12.614-2.945-22.477,12.445-17.082,23.4      C202.836,229.233,203.764,230.46,204.876,231.531z"/>
			</g>
			<g style="opacity:0.21;">
				<path style="fill:#A9312F;" d="M236.239,225.066c-12.982-23.395-33.437-20.473-35.998-20.002c0.093-0.129,0.197-0.251,0.3-0.373      c4.574-5.242,11.683-7.475,18.464-6.099c7.935,1.614,16.861,7.436,18.275,15.938      C237.834,217.887,237.42,221.547,236.239,225.066z"/>
			</g>
		</g>
		<g>
			<g>
				<g>
					<path style="fill:#FFFFFF;" d="M136.856,196.345c-7.326-0.752-15.494-5.852-19.026-12.356c-0.753-1.39-1.294-2.873-1.573-4.446       c-1.179-6.845,1.589-14.771,6.024-20.047c0.093-0.13,0.197-0.252,0.3-0.373c4.573-5.242,11.683-7.474,18.464-6.099       c7.935,1.614,16.861,7.436,18.275,15.938c0.554,3.357,0.14,7.017-1.041,10.537l0.011,0.007       C155.174,188.899,146.671,197.344,136.856,196.345z"/>
				</g>
				<g>
					<path style="fill:#A9312F;" d="M136.856,196.345c-4.14-0.431-8.073-2.085-11.554-4.339c-1.738-1.142-3.355-2.478-4.785-4       c-1.436-1.515-2.696-3.225-3.591-5.149c-0.904-1.922-1.323-4.064-1.395-6.175c-0.084-2.12,0.141-4.247,0.601-6.317       c0.934-4.14,2.797-8.071,5.459-11.45l-0.042,0.054c3.193-4.013,7.842-6.572,12.847-7.22c2.484-0.322,5.048-0.229,7.472,0.377       c2.415,0.568,4.742,1.442,6.927,2.593c4.32,2.311,8.244,5.822,10.18,10.49c0.986,2.316,1.3,4.858,1.175,7.293       c-0.112,2.452-0.649,4.853-1.466,7.131l-0.161-0.487l0.011,0.008l0.253,0.187l-0.103,0.293       c-0.839,2.339-1.974,4.562-3.372,6.596c-1.405,2.028-3.052,3.885-4.925,5.475c-1.877,1.585-4.01,2.867-6.309,3.718       C141.781,196.268,139.291,196.612,136.856,196.345z M136.856,196.345c2.438,0.243,4.918-0.124,7.199-0.988       c2.292-0.852,4.364-2.216,6.179-3.829c1.822-1.615,3.377-3.516,4.651-5.578c1.278-2.059,2.293-4.276,2.999-6.579l0.161,0.485       l-0.011-0.007l-0.253-0.15l0.092-0.338c0.686-2.241,1.089-4.569,1.085-6.886c0.006-2.321-0.397-4.612-1.384-6.653       c-0.961-2.055-2.404-3.86-4.073-5.412c-1.671-1.556-3.595-2.852-5.651-3.876c-4.104-2.066-8.7-3.269-13.183-2.695       c-1.12,0.142-2.223,0.392-3.303,0.72c-1.066,0.364-2.123,0.771-3.119,1.303c-0.992,0.535-1.96,1.13-2.833,1.85       c-0.458,0.335-0.854,0.74-1.282,1.112c-0.371,0.398-0.831,0.83-1.117,1.196l-0.043,0.055       c-2.617,3.017-4.582,6.679-5.654,10.586c-0.532,1.955-0.841,3.975-0.856,6.004c-0.024,2.031,0.275,4.059,1.052,5.94       c1.564,3.773,4.51,6.91,7.885,9.261C128.784,194.228,132.734,195.856,136.856,196.345z"/>
				</g>
			</g>
			<g>
				<path style="fill:#A9312F;" d="M126.916,185.963c3.997,3.852,10.204,5.72,15.566,3.909c8.543-2.887,13.383-13.49,9.77-21.709      c-1.94-4.413-6.238-8.145-10.958-9.247c-12.614-2.944-22.476,12.445-17.083,23.4      C124.876,183.665,125.804,184.891,126.916,185.963z"/>
			</g>
			<g style="opacity:0.21;">
				<path style="fill:#A9312F;" d="M158.279,179.498c-12.982-23.395-33.437-20.473-35.998-20.002c0.093-0.13,0.197-0.252,0.3-0.373      c4.573-5.242,11.683-7.474,18.464-6.099c7.935,1.614,16.861,7.436,18.275,15.938      C159.874,172.318,159.46,175.978,158.279,179.498z"/>
			</g>
		</g>
		<g>
			<path style="fill:#A9312F;" d="M184.184,195.917c0,0-1.54-6.294-4.164-6.551s-1.375,6.756,2.334,10.067     c0,0,8.916-0.106,8.752-4.066C190.943,191.407,184.184,195.917,184.184,195.917z"/>
		</g>
		<g>
			<g>
				<path style="fill:#FF983D;" d="M263.959,200.667c0,0-0.006,0.01-0.021,0.014c-1.285,0.873-2.625,1.661-4.044,2.34      c-0.005,0.01-0.015,0.004-0.03,0.008c-2.828,1.362-5.954,2.304-9.362,2.68c-23.114,2.548-19.568-34.337-19.568-34.337      s12.372,4.333,22.689-0.124c9.365-4.066,18.416-5.566,23.653-2.493c0.533,0.31,1.012,0.666,1.464,1.071      C282.532,173.263,277.325,191.528,263.959,200.667z"/>
			</g>
			<g>
				<path style="fill:#A9312F;" d="M263.959,200.671c0,0-0.008,0.008-0.024,0.008c-0.183,0.165-1.767,1.447-4.038,2.337      c-0.008,0.008-0.024,0.008-0.032,0.016c-1.27,0.499-3.07,0.734-5.002,0.596l-5.583-5.433l22.316-18.883      c3.407-2.832,5.717-6.232,5.679-10.558c0.529,0.312,1.01,0.671,1.467,1.07C282.532,173.26,277.322,191.529,263.959,200.671z"/>
			</g>
			<g>
				<path style="fill:#FFFFFF;" d="M258.733,194.873c0,0-0.182,5.362-3.87,8.755c-3.413-0.234-7.223-1.619-9.256-4.729      c-4.993-7.667,15.592-10.951,25.989-19.588c-1.311,3.296-3.928,7.835-8.952,10.784c0,0,5.021,0.141,5.331,1.284      c0.279,1.111-5.951,1.691-6.3,1.721c0.245,0.041,3.087,0.509,2.976,1.784C264.532,196.215,258.733,194.873,258.733,194.873z"/>
			</g>
		</g>
		<g>
			<g>
				<path style="fill:#FF983D;" d="M147.831,132.536c-0.127-0.289-0.253-0.578-0.357-0.87      c-8.359-20.994,13.193-40.691,19.383-38.676c0.106,0.032,0.224,0.074,0.331,0.117c6.061,2.246,9.721,11.385,10.956,22.351      c1.272,11.166,11.206,19.735,11.206,19.735S157.144,153.839,147.831,132.536z"/>
			</g>
			<g>
				<path style="fill:#A9312F;" d="M147.474,131.668c-9.6-24.131,13.192-40.699,19.38-38.678c0.106,0.031,0.224,0.073,0.331,0.116      c-1.257,1.301-2.835,3.446-3.967,6.776l-5.746,16.566c1.097,11.222-5.752,14.857-5.752,14.857      C150.146,131.722,148.655,131.811,147.474,131.668z"/>
			</g>
			<g>
				<path style="fill:#FFFFFF;" d="M151.719,131.306c-7.782-11.214,3.448-17.812,3.448-17.812s-3.026-0.257-2.744-2.111      c0.281-1.775,3.193-0.555,3.443-0.452c-0.083-0.125-1.875-2.652-1.513-3.793c0.369-1.177,2.737,1.174,2.737,1.174      c0.603-4.821,4.215-7.395,6.127-8.43c-1.128,3.363-1.799,7.921-1.21,14.024C163.104,125.128,156.957,129.958,151.719,131.306z"/>
			</g>
		</g>
		<g style="opacity:0.48;">
			<path style="fill:#A9312F;" d="M154.67,257.383c1.39,0.947,2.779,1.893,4.187,2.807c1.411,0.907,2.836,1.801,4.294,2.589     l0.643,0.347l-0.715,0.222c-0.89,0.277-1.829,0.71-2.401,1.369c-0.281,0.33-0.422,0.71-0.375,1.095     c0.01,0.224,0.067,0.317,0.151,0.39c0.091,0.069,0.263,0.119,0.467,0.125c0.845,0.003,1.809-0.357,2.703-0.705     c0.902-0.367,1.8-0.804,2.652-1.271l1.113-0.61l-0.432,1.202c-0.282,0.786-0.514,1.628-0.656,2.45     c-0.131,0.803-0.2,1.708,0.08,2.273c0.076,0.142,0.084,0.101,0.07,0.111c0.012-0.008,0.148-0.023,0.287-0.133     c0.282-0.187,0.581-0.48,0.848-0.795c0.538-0.628,1.042-1.343,1.497-2.049l0.301-0.467l0.454,0.31     c2.124,1.452,4.443,2.709,6.831,3.711c2.401,0.969,4.92,1.701,7.485,1.772l1.228,0.034l-1.022,0.665     c-0.901,0.586-1.847,1.315-2.327,2.212c-0.052,0.112-0.099,0.225-0.122,0.337c-0.027,0.084-0.004,0.058-0.021,0.054     c0.007-0.006-0.003,0.007,0.034,0.032c0.118,0.106,0.41,0.19,0.664,0.242c0.532,0.108,1.101,0.156,1.665,0.193     c2.272,0.125,4.569,0.009,6.858-0.095c-2.274,0.317-4.558,0.537-6.872,0.565c-0.58-0.002-1.161-0.01-1.756-0.112     c-0.3-0.063-0.596-0.09-0.938-0.335c-0.085-0.057-0.17-0.165-0.228-0.301c-0.041-0.143-0.027-0.315-0.005-0.368     c0.03-0.171,0.087-0.325,0.151-0.476c0.582-1.156,1.524-1.891,2.491-2.589l0.206,0.699c-1.357,0.015-2.703-0.148-4.022-0.424     c-1.307-0.317-2.583-0.733-3.829-1.219c-2.481-1.008-4.836-2.242-7.08-3.735l0.754-0.156c-0.482,0.776-0.986,1.506-1.604,2.199     c-0.307,0.346-0.635,0.683-1.087,0.977c-0.217,0.14-0.509,0.298-0.936,0.28c-0.457-0.039-0.79-0.424-0.892-0.681     c-0.458-1.059-0.272-2.004-0.142-2.906c0.17-0.905,0.417-1.759,0.738-2.621l0.681,0.591c-0.909,0.484-1.821,0.913-2.777,1.289     c-0.963,0.356-1.926,0.73-3.097,0.688c-0.291-0.025-0.633-0.092-0.935-0.341c-0.306-0.253-0.418-0.679-0.412-0.952     c-0.055-0.617,0.225-1.234,0.612-1.641c0.797-0.823,1.787-1.201,2.798-1.483l-0.073,0.569c-1.477-0.853-2.845-1.837-4.2-2.837     C157.301,259.48,155.969,258.453,154.67,257.383z"/>
		</g>
		<g style="opacity:0.48;">
			<path style="fill:#A9312F;" d="M92.247,196.419c-0.592,0.995-1.125,2.022-1.599,3.07c-0.452,1.047-0.865,2.151-0.924,3.244     c-0.033,0.551,0.093,1.049,0.445,1.373c0.334,0.336,0.849,0.385,1.359,0.284c1.028-0.215,2.03-0.847,2.887-1.514l1.103-0.858     l-0.484,1.322c-0.423,1.153-0.751,2.369-1.001,3.572c-0.222,1.202-0.381,2.45-0.166,3.587c0.081,0.581,0.327,1.069,0.651,1.473     c0.346,0.418,0.785,0.658,1.27,0.662c0.989,0.015,2.072-0.762,2.846-1.57l0.552-0.576l0.336,0.716     c0.989,2.108,2.209,4.171,3.53,6.128c1.325,1.966,2.819,3.809,4.38,5.59c1.558,1.789,3.301,3.41,5.15,4.897     c1.81,1.552,3.867,2.764,5.941,3.959c-2.179-0.977-4.317-2.113-6.257-3.543c-1.941-1.422-3.777-3.003-5.436-4.754     c-1.686-1.727-3.192-3.624-4.58-5.597c-1.378-1.988-2.633-4.035-3.706-6.243l0.887,0.14c-0.493,0.51-1,0.923-1.604,1.277     c-0.596,0.341-1.293,0.623-2.077,0.597c-0.792-0.012-1.546-0.47-1.987-1.033c-0.464-0.574-0.765-1.277-0.852-1.953     c-0.23-1.365-0.027-2.676,0.22-3.945c0.267-1.272,0.672-2.485,1.163-3.689l0.619,0.464c-0.989,0.698-2.021,1.316-3.278,1.538     c-0.607,0.103-1.386,0.016-1.874-0.511c-0.494-0.488-0.632-1.241-0.54-1.829c0.153-1.22,0.656-2.293,1.182-3.329     C90.942,198.337,91.564,197.354,92.247,196.419z"/>
		</g>
		<g>
			<path style="fill:#67DCBC;" d="M160.176,225.066c0,0,9.986,10.496,19.02,7.935c9.033-2.562,1.3-26.004,1.3-26.004     S174.219,222.128,160.176,225.066z"/>
		</g>
		<g>
			<path style="fill:#67DCBC;" d="M178.467,229.814c0,0-5.794,4.935-6.542,9.559c-0.748,4.624,5.685,10.46,5.685,10.46     S184.561,236.127,178.467,229.814z"/>
		</g>
		<g>
			<path style="fill:#67DCBC;" d="M178.626,230.975c0,0,6.414-4.098,11.054-3.461c4.64,0.637,8.341,8.496,8.341,8.496     S182.882,238.648,178.626,230.975z"/>
		</g>
		<g>
			<path style="fill:#A9312F;" d="M182.354,196.885c0.457,2.354,0.338,4.806-0.112,7.176c-0.433,2.383-1.274,4.696-2.427,6.843     c-1.175,2.129-2.608,4.141-4.403,5.78c-1.715,1.714-3.787,3.023-5.935,4.033c1.68-1.713,3.364-3.288,4.774-5.107     c1.464-1.758,2.714-3.666,3.779-5.664C180.217,205.961,181.567,201.562,182.354,196.885z"/>
		</g>
		<g style="opacity:0.48;">
			<path style="fill:#E54949;" d="M125.572,212.534c1.261,0.038,2.544-0.08,3.724-0.526c3.813-1.44,5.653-6.172,4.754-10.148     c-0.899-3.976-3.951-7.164-7.408-9.325c-1.229-0.769-2.544-1.442-3.967-1.718c-1.628-0.316-3.319-0.093-4.918,0.344     c-2.378,0.65-4.669,1.811-6.326,3.636c-0.802,0.884-1.443,1.909-1.926,3C105.364,207.149,118.294,212.314,125.572,212.534z"/>
		</g>
		<g style="opacity:0.48;">
			<path style="fill:#E54949;" d="M203.132,241.647c-1.259,0.09-2.522,0.338-3.651,0.901c-3.647,1.82-4.997,6.715-3.699,10.578     c1.298,3.864,4.659,6.726,8.316,8.525c1.301,0.64,2.678,1.176,4.122,1.306c1.651,0.148,3.311-0.245,4.858-0.842     c2.299-0.888,4.461-2.276,5.923-4.26c0.708-0.961,1.242-2.046,1.612-3.18C223.782,244.951,210.395,241.126,203.132,241.647z"/>
		</g>
		<g>
			<g>
				<path style="fill:#A9312F;" d="M204.152,246.679c2.523,2.545,4.789,5.29,6.993,8.084c2.178,2.814,4.292,5.679,6.147,8.745      c-2.525-2.543-4.791-5.289-6.993-8.084C208.123,252.608,206.009,249.743,204.152,246.679z"/>
			</g>
			<g>
				<path style="fill:#A9312F;" d="M224.127,257.842c-2.963-1.791-5.725-3.838-8.437-5.947c-2.693-2.135-5.335-4.334-7.775-6.791      c2.965,1.789,5.726,3.836,8.437,5.947C219.044,253.188,221.686,255.388,224.127,257.842z"/>
			</g>
			<g>
				<path style="fill:#A9312F;" d="M228.811,247.866c-3.449-0.306-6.829-0.929-10.193-1.631c-3.357-0.733-6.697-1.546-9.968-2.68      c3.449,0.303,6.83,0.927,10.193,1.631C222.199,245.921,225.54,246.734,228.811,247.866z"/>
			</g>
		</g>
		<g>
			<g>
				<path style="fill:#A9312F;" d="M120.352,203.896c-3.368-1.225-6.589-2.74-9.774-4.327c-3.171-1.616-6.305-3.304-9.291-5.285      c3.369,1.223,6.59,2.738,9.774,4.327C114.231,200.228,117.365,201.917,120.352,203.896z"/>
			</g>
			<g>
				<path style="fill:#A9312F;" d="M105.513,186.477c2.883,1.916,5.555,4.08,8.174,6.304c2.599,2.248,5.144,4.558,7.476,7.118      c-2.885-1.914-5.556-4.078-8.175-6.303C110.392,191.345,107.847,189.034,105.513,186.477z"/>
			</g>
			<g>
				<path style="fill:#A9312F;" d="M114.387,179.94c1.747,2.989,3.195,6.107,4.57,9.256c1.345,3.162,2.615,6.356,3.584,9.68      c-1.749-2.988-3.197-6.106-4.57-9.256C116.628,186.457,115.358,183.263,114.387,179.94z"/>
			</g>
		</g>
		<g>
			<path style="fill:#A9312F;" d="M227.842,157.539c-7.448,6.099-17.385,13.838-21.327,15.435c-2.593,1.058-5.705,1.909-8.008,0.353     c-1.597-1.079-2.344-3.07-2.365-5c-0.021-1.909,0.581-3.776,1.203-5.601c1.577-4.647,6.265-13.692,10.228-21.513     C214.98,146.067,221.328,151.378,227.842,157.539z"/>
		</g>
		<g>
			<path style="fill:#A9312F;" d="M241.223,171.273c-1.639,0.685-3.299,1.286-4.979,1.826c-1.867,0.602-3.817,1.12-5.767,0.809     c-1.1-0.187-2.199-0.643-2.904-1.514c-1.078-1.369-0.975-3.402-0.166-4.937c0.892-1.743,2.863-3.942,5.02-5.539     c0.705,0.705,1.411,1.411,2.116,2.116C236.846,166.336,239.086,168.742,241.223,171.273z"/>
		</g>
		<g>
			<path style="fill:#A9312F;" d="M202.47,137.997c-1.017,1.286-2.261,2.427-3.527,3.444c-1.286,1.058-2.635,2.095-4.191,2.676     c-1.556,0.581-3.382,0.685-4.855-0.083c-2.427-1.266-3.195-4.357-3.319-7.095c-0.062-1.722-0.228-4.606,0.29-7.012     c2.282,0.996,4.542,1.914,6.658,2.972C196.743,134.517,199.648,136.296,202.47,137.997z"/>
		</g>
		<g style="opacity:0.48;">
			<g>
				<path style="fill:#A9312F;" d="M319.447,219.58c-3.515,0.155-7.076,0.317-10.437,1.359c-0.408,0.126-0.896,0.384-0.858,0.81      c0.02,0.227,0.194,0.408,0.372,0.551c0.856,0.685,1.986,0.912,3.075,1.043c3.605,0.436,7.254,0.069,10.863-0.325      c-4.013,2.011-8.079,4.058-11.413,7.063c2.431,0.822,5.023-0.457,7.268-1.698c-0.384,0.213-0.085,3.418-0.064,3.896      c0.18,4.192,1.155,8.343,2.818,12.194c2.141,4.955,5.394,8.964,9.296,12.632c2.345,2.351,5.582,4.285,8.509,5.819      c12.43,6.514,26.666,8.35,40.473,6.297c0.012-0.002,0.024-0.004,0.036-0.005c9.208-1.414,18.285-4.067,26.777-8.085      c-8.238,4.52-17.269,7.66-26.579,9.316c-9.607,1.709-18.78,1.254-28.282-0.726c-12.018-2.504-24.183-10.082-30.225-20.93      c-0.238-0.428-0.468-0.86-0.688-1.297c-2.761-5.475-4.102-11.658-3.857-17.785c0.432,0.279,0.863,0.559,1.295,0.838      c-2.271,0.982-4.878,1.952-7.136,0.942c-0.324-0.145-0.642-0.339-0.829-0.641c-0.281-0.453-0.198-1.061,0.072-1.521      c0.27-0.46,0.699-0.802,1.123-1.125c2.535-1.926,5.306-3.543,8.231-4.802c0.097,0.342,0.193,0.684,0.29,1.026      c-2.87,0.313-5.786,0.194-8.621-0.35c-1.236-0.237-2.578-0.639-3.244-1.707c-0.153-0.246-0.265-0.533-0.232-0.821      c0.076-0.649,0.803-0.982,1.432-1.158C312.318,219.441,315.913,219.507,319.447,219.58z"/>
			</g>
		</g>
		<g style="opacity:0.48;">
			<g>
				<path style="fill:#A9312F;" d="M210.722,314.139c4.578-4.306,9.35-8.278,14.016-12.364c2.36-2.011,4.659-4.082,6.934-6.174      c2.243-2.126,4.523-4.217,6.464-6.687c-1.275,2.896-3.242,5.447-5.332,7.791c-2.091,2.364-4.373,4.537-6.738,6.599      C221.303,307.388,216.243,311.118,210.722,314.139z"/>
			</g>
		</g>
		<g>
			<path style="fill:#A9312F;" d="M148.344,332.282c-1.058,1.556-3.153,2.033-5.021,2.033c-4.751,0-9.211-2.137-13.734-3.568     c-2.033-0.622-4.73-0.934-7.344-1.514c4.356-5.228,8.713-9.688,11.431-12.468c0.415-0.436,0.871-0.933,1.328-1.514     c4.378,2.075,8.112,5.415,11.265,9.107c0.975,1.12,1.909,2.303,2.407,3.693C149.174,329.419,149.174,331.079,148.344,332.282z"/>
		</g>
		<g>
			<path style="fill:#A9312F;" d="M189.753,334.896c-3.485,3.693-7.51,7.738-11.68,11.825c-0.975-2.075-2.054-4.108-3.257-6.079     c-0.685-1.12-2.344-3.008-3.859-5.021c-1.867-2.489-3.527-5.186-3.029-7.033c0.83-3.05,6.763-1.909,8.879-1.514     c3.776,0.726,7.344,2.614,10.249,5.083C188.051,332.988,188.944,333.9,189.753,334.896z"/>
		</g>
		<g>
			<path style="fill:#A9312F;" d="M166.6,307.885c-1.266,0.996-2.884,1.39-4.481,1.452c-6.12,0.187-11.037-4.232-16.099-7.012     c-0.519-0.291-1.037-0.56-1.577-0.83c2.22-3.631,4.543-7.552,6.805-11.473c5.643,1.805,10.726,5.767,14.916,10.124     c0.996,1.017,1.991,2.157,2.22,3.568C168.654,305.271,167.845,306.91,166.6,307.885z"/>
		</g>
		<g style="opacity:0.48;">
			<g>
				<path style="fill:#A9312F;" d="M405.234,331.053c-0.707,0.985-1.924,1.513-3.107,1.731c-1.207,0.232-2.439,0.103-3.591-0.184      c-1.158-0.301-2.228-0.808-3.205-1.437c-0.964-0.65-1.832-1.427-2.529-2.383c1.166,0.254,2.202,0.614,3.224,0.962      c1.035,0.299,2.015,0.673,3.017,0.897c0.988,0.284,1.983,0.469,2.996,0.572C403.054,331.285,404.089,331.308,405.234,331.053z"/>
			</g>
		</g>
		<g style="opacity:0.48;">
			<g>
				<path style="fill:#A9312F;" d="M450.97,284.381c-1.363,1.243-3.14,2.078-4.999,2.452c-1.865,0.404-3.806,0.325-5.665-0.011      c-1.869-0.347-3.618-1.079-5.254-1.954c-0.81-0.454-1.566-0.998-2.322-1.516c-0.705-0.603-1.406-1.198-2.044-1.862      c0.889,0.29,1.715,0.648,2.538,0.998l2.486,0.942c1.668,0.536,3.297,1.129,4.985,1.405c1.671,0.339,3.367,0.493,5.076,0.436      C447.487,285.208,449.187,284.892,450.97,284.381z"/>
			</g>
		</g>
		<g>
			<path style="fill:#A9312F;" d="M511.294,108.143c-1.909,3.548-10.29,1.162-19.294,1.286c4.108-4.087,12.613-4.128,12.613-4.128     c-6.576-2.075-10.186-6.514-12.116-10.269C511.169,91.962,513.555,103.974,511.294,108.143z"/>
		</g>
		<g>
			<path style="fill:#A9312F;" d="M442.168,170.381c-1.058,0.975-2.178,1.909-3.319,2.78c-4.626,3.506-10.643,6.141-17.53,7.489     c0.913-3.734,3.112-9.045,8.568-11.887C433.974,166.626,438.496,168.12,442.168,170.381z"/>
		</g>
		<g>
			<path style="fill:#A9312F;" d="M450.964,149.449c-3.278,2.427-6.908,1.971-9.605,1.017c2.531-4.045,4.771-8.775,7.116-13.734     C451.587,140.984,454.636,146.731,450.964,149.449z"/>
		</g>
		<g>
			<path style="fill:#A9312F;" d="M482.436,110.882c-2.697,0.913-5.269,2.365-7.51,4.626c-0.954,0.954-1.888,2.22-2.822,3.776     c-0.996-4.212-1.577-9.73,1.639-11.514C476.959,105.965,480.278,108.496,482.436,110.882z"/>
		</g>
		<g>
			<path style="fill:#A9312F;" d="M118.905,152.27c-0.83,0.415-1.805,0.394-2.738,0.29c-4.668-0.498-10.912-3.444-15.062-7.635     c0.581-0.809,1.203-1.618,1.846-2.386c2.801-3.402,6.016-6.535,9.522-9.294c0.27,0.456,0.519,0.913,0.788,1.369     c1.888,3.299,3.776,6.576,5.664,9.854c0.726,1.266,1.473,2.572,1.639,4.025C120.752,149.946,120.192,151.585,118.905,152.27z"/>
		</g>
		<g>
			<path style="fill:#A9312F;" d="M124.652,134.346c-2.676-0.892-4.689-2.925-6.411-5.145c2.822-1.763,5.788-3.299,8.859-4.543     c0.643,1.784,0.996,3.713,1.182,5.56C128.552,132.624,127.577,135.321,124.652,134.346z"/>
		</g>
		<g>
			<path style="fill:#A9312F;" d="M106.079,159.176c-0.01,0.363-0.102,0.718-0.307,1.022c-0.733,1.09-2.411,0.937-3.526,0.765     c-3.05-0.436-5.975-1.39-8.713-2.78c1.036-3.44,2.634-6.265,4.668-8.983c0.166,0.166,0.332,0.311,0.498,0.477     c2.489,2.448,5.02,4.917,6.908,7.862C105.898,157.993,106.095,158.595,106.079,159.176z"/>
		</g>
		<g>
			<path style="fill:#A9312F;" d="M256.16,248.178c-1.971,3.942-4.377,7.676-7.137,11.12c-0.975,1.224-1.971,2.386-3.029,3.485     c-6.95-6.659-12.406-15.041-7.635-18.236c0.789-0.539,1.909-0.726,2.988-0.767c3.382-0.145,6.618,0.581,9.668,1.805     C252.799,246.311,254.521,247.203,256.16,248.178z"/>
		</g>
		<g>
			<path style="fill:#A9312F;" d="M260.704,236.125c-0.56,2.241-1.286,4.44-2.116,6.597c-1.307-0.809-2.593-1.66-3.859-2.531     c-0.809-0.56-1.639-1.141-2.22-1.95c-0.249-0.332-0.436-0.747-0.415-1.182c0.042-1.037,1.266-1.556,2.303-1.68     C256.554,235.108,258.65,235.524,260.704,236.125z"/>
		</g>
		<g>
			<path style="fill:#A9312F;" d="M241.555,267.036c-2.635,2.303-5.436,4.253-8.382,5.871c-0.436-3.299-0.539-6.639,0.332-9.875     c0.602-2.22,2.448-3.008,3.983-1.162C238.92,263.53,240.269,265.252,241.555,267.036z"/>
		</g>
		<g>
			<path style="fill:#A9312F;" d="M270.745,166.066c-4.689,2.365-8.216-3.07-18.651-14.833c-6.037-6.784-15.414-14.024-22.281-18.9     c6.888-2.718,13.983-4.917,21.223-6.576C267.156,136.399,275.018,163.908,270.745,166.066z"/>
		</g>
		<g>
			<path style="fill:#A9312F;" d="M277.176,122.064c13.381,18.339,2.842,31.907-1.266,20.684     c-2.78-7.614-9.149-15.062-13.443-19.128C262.467,123.62,268.271,122.057,277.176,122.064z"/>
		</g>
		<g>
			<path style="fill:#A9312F;" d="M316.323,141.773c-0.27,3.05-0.871,6.12-2.386,8.775c-0.871,1.556-2.241,3.05-4.004,3.257     c-3.133,0.373-5.186-3.133-6.161-6.12c-1.764-5.373-2.884-10.954-4.876-16.244c-1.328-3.506-3.05-6.929-5.456-9.813     c8.157-0.021,14.367,0.434,21.036,1.618C316.282,129.242,316.904,135.549,316.323,141.773z"/>
		</g>
		<g>
			<path style="fill:#A9312F;" d="M355.097,135.611c-0.104,0.954-0.228,1.888-0.394,2.822c-1.12,6.493-3.257,12.821-6.369,18.651     c-2.49,4.626-5.829,9.149-10.663,11.224c-1.411,0.602-3.112,0.954-4.44,0.166c-2.137-1.266-1.888-4.377-1.265-6.763     c1.763-6.742,4.357-13.277,5.622-20.124c0.768-4.149,1.017-8.444,0.291-12.614C343.936,130.943,349.683,133.142,355.097,135.611z     "/>
		</g>
		<g>
			<path style="fill:#A9312F;" d="M389.473,158.017c-2.718,5.062-6.722,9.107-11.472,12.53c-3.278,2.386-11.535,7.884-13.651,1.348     c-1.182-3.672,1.93-8.008,3.61-11.535c0.249-0.498,0.456-0.975,0.622-1.432c1.494-4.17,2.365-8.775,3.319-12.925     c0.104-0.436,0.208-0.871,0.332-1.286C378.582,148.722,384.329,153.141,389.473,158.017z"/>
		</g>
		<g>
			<path style="fill:#A9312F;" d="M415.924,200.152c-7.593,3.423-16.182,4.564-24.397,3.195c-1.598-0.27-3.215-0.664-4.564-1.556     c-1.348-0.913-2.386-2.448-2.303-4.066c0.083-1.307,0.851-2.469,1.722-3.485c3.88-4.585,9.605-7.137,14.584-10.497     c1.95-1.328,3.859-2.863,5.436-4.647C410.302,185.588,413.948,192.172,415.924,200.152z"/>
		</g>
		<g>
			<path style="fill:#A9312F;" d="M421.609,231.582c-6.556,0.892-13.215,0.768-19.709-0.353c-2.178-0.373-4.751-1.266-5.186-3.423     c-0.249-1.328,0.456-2.676,1.494-3.547c1.016-0.851,2.323-1.328,3.589-1.722c6.016-1.929,12.323-3.153,18.194-5.456     C419.991,217.08,422.542,224.625,421.609,231.582z"/>
		</g>
	</g>
	<g>
		<g>
			<path style="fill:#FF983D;" d="M222.304,347.966c0.333,0.553-26.059,2.982-31.195,20.445     c-5.136,17.463,3.452,23.921,13.043,23.275c9.59-0.646,17.555-25.832,24.659-38.317c0,0,12.279,1.937,17.548-5.597     c0,0-10.052-5.812-19.074,1.076c0,0,10.137-17.563-4.071-24.065C223.214,324.783,215.072,335.943,222.304,347.966z"/>
		</g>
		<g>
			<path style="fill:#A9312F;" d="M207.976,379.549c0,1.439-1.166,2.605-2.605,2.605c-1.439,0-2.605-1.166-2.605-2.605     c0-1.439,1.166-2.605,2.605-2.605C206.81,376.944,207.976,378.11,207.976,379.549z"/>
		</g>
		<g style="opacity:0.48;">
			<g>
				<path style="fill:#A9312F;" d="M200.182,368.022c1.443-0.582,3.023-0.583,4.549-0.413c1.538,0.181,3.045,0.688,4.435,1.443      c1.386,0.765,2.592,1.883,3.477,3.184c0.938,1.275,1.388,2.832,1.544,4.328c-0.953-1.214-1.725-2.386-2.762-3.319      c-1.004-0.936-2.045-1.801-3.256-2.43c-1.177-0.679-2.454-1.203-3.784-1.669C203.046,368.715,201.665,368.28,200.182,368.022z"/>
			</g>
		</g>
	</g>
	<g style="opacity:0.48;">
		<g>
			<path style="fill:#A9312F;" d="M332.768,190.568c-0.338,0.071-0.518,0.408-0.721,0.664c-0.193,0.277-0.38,0.558-0.558,0.846     c-0.346,0.583-0.663,1.181-0.952,1.791c-0.55,1.198-1.146,2.506-1.272,3.628c-0.027,0.24,0.088,0.469-0.017,0.245     c-0.108-0.093,0.044-0.003,0.32-0.12c0.498-0.159,1.094-0.445,1.649-0.763c1.12-0.656,2.238-1.429,3.3-2.198l3.077-2.228     l-1.617,3.485c-0.736,1.588-1.175,3.687-0.318,4.818c0.212,0.327,0.468,0.464,0.529,0.481c0.058,0.046,0.33-0.042,0.616-0.327     c0.561-0.553,1.087-1.447,1.472-2.278l0.569-1.229l0.759,1.024c0.324,0.438,0.898,0.916,1.455,1.272     c0.575,0.371,1.221,0.636,1.894,0.852c1.361,0.415,2.852,0.436,4.35,0.286c-0.704,0.263-1.437,0.49-2.201,0.586     c-0.762,0.117-1.545,0.127-2.336,0.059c-0.788-0.096-1.568-0.32-2.311-0.654c-0.756-0.349-1.414-0.763-2.064-1.461l1.327-0.204     c-0.374,1.066-0.786,2.047-1.629,2.998c-0.408,0.438-1.069,1.009-2.058,0.955c-0.962-0.097-1.572-0.689-1.936-1.193     c-0.84-1.083-0.998-2.472-0.875-3.619c0.124-1.193,0.485-2.219,1.01-3.287l1.46,1.256c-1.159,0.829-2.337,1.557-3.628,2.2     c-0.658,0.308-1.303,0.629-2.138,0.791c-0.367,0.064-0.982,0.192-1.646-0.284c-0.365-0.313-0.433-0.638-0.487-0.943     c-0.023-0.271,0.006-0.495,0.035-0.719c0.385-1.582,1.162-2.711,1.964-3.874c0.415-0.564,0.855-1.108,1.318-1.629     C331.592,191.325,332.051,190.671,332.768,190.568z"/>
		</g>
	</g>
	<g>
		<g>
			<g>
				<path style="fill:#FF983D;" d="M46.044,170.757c0,0-20.814-10.033-36.453-1.939c-15.639,8.094-10.431,30.395,3.292,29.357      c21.888-1.654,35.621-20.948,35.621-20.948s3.43,8.318,16.051,3.897c0,0,0.001-8.819-12.163-9.563c0,0,8.507-3.904,2.856-16.421      C55.248,155.141,45.132,156.448,46.044,170.757z"/>
			</g>
			<g>
				<path style="fill:#A9312F;" d="M16.669,181.705c0,1.439-1.166,2.605-2.605,2.605c-1.439,0-2.605-1.167-2.605-2.605      c0-1.439,1.166-2.605,2.605-2.605C15.503,179.1,16.669,180.266,16.669,181.705z"/>
			</g>
			<g style="opacity:0.48;">
				<g>
					<path style="fill:#A9312F;" d="M18.148,170.601c1.805,0.465,3.461,1.403,4.935,2.574c1.48,1.173,2.734,2.672,3.647,4.387       c0.912,1.716,1.357,3.706,1.253,5.63c-0.01,1.94-0.737,3.769-1.658,5.347c0.126-1.863,0.354-3.595,0.078-5.289       c-0.215-1.675-0.657-3.295-1.474-4.761C23.392,175.502,20.924,173.005,18.148,170.601z"/>
				</g>
			</g>
		</g>
		<g style="opacity:0.48;">
			<g>
				<path style="fill:#A9312F;" d="M0.511,188.291c0.418-0.497,0.886-0.751,1.346-0.952c0.463-0.21,0.936-0.299,1.412-0.366      c0.958-0.063,1.931,0.026,2.959,0.738c-0.88,0.888-1.815,1.156-2.764,1.277C2.507,189.054,1.549,188.946,0.511,188.291z"/>
			</g>
		</g>
	</g>
</g>















</svg>
