<?xml version="1.0" encoding="UTF-8"?>
<!-- Generator: Adobe Illustrator 25.2.3, SVG Export Plug-In . SVG Version: 6.00 Build 0)  -->
<svg xmlns="http://www.w3.org/2000/svg" xmlns:xlink="http://www.w3.org/1999/xlink" version="1.1" id="Capa_1" x="0px" y="0px" viewBox="0 0 512 512" style="enable-background:new 0 0 512 512;" xml:space="preserve" width="512" height="512">
<g>
	<g>
		<g>
			<path style="fill:#FF983D;" d="M78.111,385.943c-48.127,1.029-49.13-80.922-49.13-80.922s-16.034,3.814-17.79-8.782l-0.1-0.728     c-0.301-3.412,0.376-7.904,2.534-13.876c8.707-24.038-11.542-65.415-13.474-83.481c-0.452-4.215,0.075-7.151,2.208-8.331     c11.266-6.248,25.067,18.543,30.186,36.459s3.086,48.252,3.086,48.252c29.684-30.035,83.406-23.185,83.406-23.185     S126.212,384.914,78.111,385.943z"/>
		</g>
		<g style="opacity:0.2;">
			<path style="fill:#A9312F;" d="M78.111,385.943c-48.127,1.029-49.13-80.922-49.13-80.922s-16.034,3.814-17.79-8.782l-0.1-0.728     c-0.301-3.412,0.376-7.904,2.534-13.876c8.707-24.038-11.542-65.415-13.474-83.481c-0.452-4.215,0.075-7.151,2.208-8.331     c11.266-6.248,25.067,18.543,30.186,36.459s3.086,48.252,3.086,48.252c29.684-30.035,83.406-23.185,83.406-23.185     S126.212,384.914,78.111,385.943z"/>
		</g>
	</g>
	<g>
		<g>
			<g>
				<path style="fill:#FF983D;" d="M479.433,318.395c-2.71,1.179-5.144,2.584-7.076,4.266c-5.27,4.592-11.141,16.561-17.59,30.914      c-4.115,9.209-8.506,19.371-13.123,29.157c-4.793,10.212-9.861,20.023-15.181,27.927      c-18.417,27.426-49.306,43.635-97.106,16.987c0,0-18.016-8.606,9.41-23.11c0,0,22.282,23.888,50.109,10.187      c0.251-0.125,0.477-0.251,0.728-0.402c8.732-4.492,15.055-12.095,20.375-21.554c8.607-15.306,14.528-35.505,23.561-55.504      c2.785-6.198,5.872-12.371,9.435-18.393c3.086-5.219,6.524-9.585,10.212-13.249c18.97-18.944,43.836-18.267,54.048-10.94      c2.108,1.506,3.588,3.287,4.291,5.244C515.491,311.118,493.686,312.071,479.433,318.395z"/>
			</g>
			<g style="opacity:0.2;">
				<path style="fill:#A9312F;" d="M479.433,318.395c-2.71,1.179-5.144,2.584-7.076,4.266c-5.27,4.592-11.141,16.561-17.59,30.914      c-4.115,9.209-8.506,19.371-13.123,29.157c-4.793,10.212-9.861,20.023-15.181,27.927      c-18.417,27.426-49.306,43.635-97.106,16.987c0,0-18.016-8.606,9.41-23.11c0,0,22.282,23.888,50.109,10.187      c0.251-0.125,0.477-0.251,0.728-0.402c8.732-4.492,15.055-12.095,20.375-21.554c8.607-15.306,14.528-35.505,23.561-55.504      c2.785-6.198,5.872-12.371,9.435-18.393c3.086-5.219,6.524-9.585,10.212-13.249c18.97-18.944,43.836-18.267,54.048-10.94      c2.108,1.506,3.588,3.287,4.291,5.244C515.491,311.118,493.686,312.071,479.433,318.395z"/>
			</g>
		</g>
		<g>
			<path style="fill:#A9312F;" d="M479.433,318.395c2.81-5.821,9.485-13.801,25.393-18.117c0,0,0-2.861,2.409-5.596     c2.108,1.506,3.588,3.287,4.291,5.244C515.491,311.118,493.686,312.071,479.433,318.395z"/>
		</g>
		<g>
			<path style="fill:#A9312F;" d="M454.743,331.493c-3.739,7.979-14.027,7.352-21.203,5.771c2.785-6.198,5.872-12.371,9.435-18.393     c3.086-5.219,6.524-9.585,10.212-13.249C455.847,310.993,459.234,321.907,454.743,331.493z"/>
		</g>
		<g>
			<path style="fill:#A9312F;" d="M454.768,353.574c-4.115,9.209-8.506,19.371-13.123,29.157     c-2.484-6.198-4.366-14.779-0.101-21.855C445.484,354.327,450.678,353.172,454.768,353.574z"/>
		</g>
		<g>
			<path style="fill:#A9312F;" d="M407.243,414.849c-6.047,3.563-12.747,1.857-17.64-0.527c8.732-4.492,15.055-12.095,20.375-21.554     C412.362,399.015,415.198,410.181,407.243,414.849z"/>
		</g>
	</g>
	<g>
		<path style="fill:#FF983D;" d="M402.752,286.553c-2.509,7.929-6.147,15.808-11.216,23.536c-1.204,1.832-2.484,3.638-3.839,5.445    c0,0,0,0.602-0.075,1.731c-0.251,4.742-1.355,18.869-5.922,37.061c-2.057,8.255-4.868,17.364-8.632,26.824    c-3.061,7.728-6.775,15.657-11.266,23.536c-4.466,7.854-9.686,15.632-15.808,23.11c-6.775,8.28-14.679,16.185-23.837,23.311    c-7.678,5.997-16.285,11.467-25.87,16.159c-7.076,3.488-14.679,6.574-22.884,9.159c-3.312,1.054-6.624,1.982-9.936,2.81    c-13.449,3.388-26.673,5.019-39.344,5.345c-12.923,0.351-25.293-0.627-36.86-2.459c-12.145-1.907-23.386-4.742-33.373-7.879    c-29.257-9.234-47.926-21.253-47.926-21.253s-30.863,19.421-53.17,8.004c-22.307-11.442-16.937-61.476-26.999-78.638    c-4.266-7.252-9.083-16.46-8.305-25.218c0.276-2.76,1.681-6.097,3.889-7.929c5.244-4.416,11.818,3.739,14.93,7.252    c11.542,12.973,20.45,28.63,23.386,45.918c0.577,3.413,0.878,6.901,0.728,10.363c0,0,2.359-8.532,7.979-18.644    c2.183-3.965,4.893-8.155,8.13-12.195c0,0-23.737-93.97,47.725-129.801c29.684-14.905,47.876-30.663,58.991-43.986    c15.607-18.794,17.238-32.77,17.238-32.77l175.243-9.033c0,0,7.151,9.535,14.654,24.741c2.961,5.972,5.947,12.822,8.582,20.325    c2.057,5.821,3.889,12.044,5.294,18.543c1.706,7.804,2.811,16.009,2.961,24.415C407.419,264.873,406.164,275.738,402.752,286.553z    "/>
	</g>
	<g>
		<path style="fill:#FFC38E;" d="M256.089,304.569c1.229,2.961,3.638,6.173,7.051,9.385v0.025    c-5.696,12.195-14.277,24.239-27.225,33.297c-13.148-11.191-43.158-29.232-90.231-16.36c-34.1,9.334-55.98,31.691-69.154,50.987    c0,0-23.737-93.97,47.725-129.801c29.684-14.905,47.876-30.663,58.991-43.986c10.288-3.814,31.039-8.205,57.235,3.237    c37.814,16.561,33.849,51.615,33.849,51.615C248.034,272.451,248.912,287.205,256.089,304.569z"/>
	</g>
	<g>
		<path style="fill:#FFFFFF;" d="M305.646,406.97c0.05,14.629-16.084,11.693-14.93,11.693c0-0.853-60.698-87.747-119.439-171.655    c-5.144-7.352-10.288-14.704-15.381-21.956C106.69,154.794,62.88,92.365,62.88,92.365l10.84-6.424l90.984,125.937l19.622,27.175    L305.646,406.97z"/>
	</g>
	<g style="opacity:0.2;">
		<path style="fill:#A9312F;" d="M184.325,239.053c-3.588,3.814-8.782,6.373-13.048,7.954c-5.144-7.352-10.288-14.704-15.381-21.956    l8.807-13.173L184.325,239.053z"/>
	</g>
	<g>
		<path style="fill:#FB5555;" d="M202.241,165.408c0,43.234-30.888,79.241-71.789,87.195c-5.52,1.079-11.216,1.631-17.037,1.631    c-49.055,0-88.826-39.771-88.826-88.826c0-33.975,19.07-63.508,47.123-78.438c12.421-6.624,26.623-10.388,41.703-10.388    C162.47,76.582,202.241,116.353,202.241,165.408z"/>
	</g>
	<g style="opacity:0.42;">
		<path style="fill:#FFFFFF;" d="M35.31,207.767c15.477-2.318,30.524-6.087,45.145-10.899c7.277-2.504,14.487-5.153,21.467-8.319    c6.994-3.11,13.902-6.427,20.459-10.349c13.27-7.563,25.568-16.748,36.643-27.326c11.098-10.579,20.678-22.738,29.365-35.778    c-5.906,14.501-14.444,28.126-25.149,39.868l-4.05,4.379c-1.404,1.407-2.874,2.747-4.309,4.125    c-1.422,1.396-2.916,2.708-4.439,3.989c-1.524,1.279-2.991,2.634-4.565,3.852c-6.233,4.964-12.902,9.35-19.744,13.411    c-13.835,7.882-28.698,13.851-44.026,17.761C66.796,206.35,50.998,208.562,35.31,207.767z"/>
	</g>
	<g style="opacity:0.2;">
		<path style="fill:#A9312F;" d="M202.241,165.408c0,43.234-30.888,79.241-71.789,87.195c28.078-14.93,47.198-44.463,47.198-78.488    c0-49.055-39.771-88.826-88.826-88.826c-5.847,0-11.592,0.577-17.113,1.681c12.421-6.624,26.623-10.388,41.703-10.388    C162.47,76.582,202.241,116.353,202.241,165.408z"/>
	</g>
	<g>
		<path style="fill:#FF983D;" d="M388.75,133.014c-0.251,4.617-0.979,9.134-2.208,13.525c-0.426,1.506-0.903,2.986-1.43,4.466    c-6.424,17.69-21.504,33.247-47.876,44.865c-52.066,22.959-144.116,5.182-144.116,5.182s-4.153-6.487-6.637-9.347    c-5.069-5.821-13.374-17.489-16.962-34.401c-0.201-1.003-0.402-2.032-0.577-3.086c-2.398-14.406-1.435-29.825,3.622-43.585    c0.57-1.55,1.132-3.104,1.798-4.617c5.043-11.467,13.575-22.106,27.626-30.487c8.682-5.194,19.497-9.535,32.896-12.696    c0.15-0.025,0.326-0.075,0.477-0.101c0.527-0.15,1.079-0.276,1.656-0.376c3.011-0.678,6.148-1.28,9.435-1.832    c1.179-0.201,2.443-0.412,3.672-0.588l8.047,6.03l24.605-9.375c2.284-0.1,4.526-0.206,6.759-0.282    c5.395-0.15,10.539-0.125,15.482,0.075c0.527,0,1.054,0.025,1.581,0.05c29.508,1.33,50.937,8.732,63.935,21.479    c0.602,0.577,1.179,1.154,1.731,1.756c3.061,3.312,5.596,6.951,7.603,10.915c1.301,2.569,2.272,5.276,3.312,7.954    c2.158,6.097,3.739,12.169,4.692,18.116l0.025,0.101c0.151,1.004,0.301,1.982,0.402,2.986c0.251,2.057,0.427,4.09,0.502,6.122    C388.901,128.272,388.901,130.655,388.75,133.014z"/>
	</g>
	<g>
		<path style="fill:#FF983D;" d="M238.828,63.275c-0.45,0.391-7.735,6.72-15.652,11.611c-2.713,1.656-5.49,3.155-8.104,4.183    c-4.233,1.677-8.024,2.134-10.298,0.082c-0.985-0.895-1.915-2.122-2.778-3.616c-0.096-0.151-0.196-0.318-0.277-0.472    c-4.216-7.573-6.608-20.898-5.281-28.622c0.365-2.153,1.021-3.855,1.991-4.888c0.378-0.411,0.798-0.695,1.285-0.89    c7.753-3.014,15.325,0.256,20.813,5.636c3.775,3.695,6.785,8.519,10.929,11.838c0.318,0.244,3.008,2.437,5.066,3.887l0.487,0.33    C237.907,62.977,238.625,63.365,238.828,63.275z"/>
	</g>
	<g>
		<path style="fill:#FF983D;" d="M372.477,79.91c-0.802-0.032-53.42-2.587-55.752-18.244c-0.22-1.499-0.31-3.023-0.279-4.536    c0.216-14.47,10.913-29.042,16.688-29.745l0.016-0.003c6.373-0.768,11.195,12.514,16.932,22.453    C355.728,59.64,371.986,79.293,372.477,79.91z"/>
	</g>
	<g>
		<path style="fill:#A9312F;" d="M333.756,55.858l-6.96,2.687c-5.836-1.199-10.124-1.391-10.349-1.415    c0.216-14.47,8.68-28.374,16.688-29.745l0.016-0.003c1.422,3.08,3.097,6.771,2.261,15.552c-0.088,0.864-0.114,1.698-0.111,2.511    L333.756,55.858z"/>
	</g>
	<g>
		<path style="fill:#A9312F;" d="M211.838,64.273l-4.507,8.273c-2.108,1.052-3.789,2.082-5.341,2.982    c-7.139-9.996-6.879-21.363-5.552-29.086c0.365-2.153,1.021-3.855,1.991-4.888c0,0,3.17,0.898,6.555,7.581    c1.231,2.439,2.342,4.783,3.565,6.919L211.838,64.273z"/>
	</g>
	<g style="opacity:0.48;">
		<path style="fill:#E54949;" d="M295.444,160.939c-4.222,4.755-3.747,13.612,2.368,17.486c8.188,5.187,21.969,2.709,27.493-5.473    c4.664-6.908-0.329-18.133-6.643-19.595c-5.337-1.236-10.664-0.1-15.408,2.198C301.049,156.624,297.81,158.274,295.444,160.939z"/>
	</g>
	<g style="opacity:0.48;">
		<path style="fill:#E54949;" d="M214.12,156.288c4.227,4.366,4.802,13.805-0.117,18.86c-6.588,6.768-18.927,6.306-24.677-1.479    c-4.855-6.573-1.74-19.225,3.624-21.76c4.534-2.143,9.324-1.777,13.733-0.09C208.731,152.604,211.751,153.842,214.12,156.288z"/>
	</g>
	<g>
		<path style="fill:#A9312F;" d="M282.777,56.59c-6.016,6.592-10.001,16.08-13.212,23.251c-1.768,3.93-3.331,7.956-4.751,12.022    c-1.074,3.051-3.276,6.218-6.619,7.064c-4.199,1.061-8.318-1.246-10.857-4.501c-3.186-4.062-3.861-9.25-3.657-14.268    c0.295-7.102,2.692-14.1,6.444-20.223c0.346-0.05,0.709-0.103,1.071-0.155C262.402,58.168,272.936,57.109,282.777,56.59z"/>
	</g>
	<g>
		<path style="fill:#FFFFFF;" d="M270.263,249.09c-0.105,0.02-0.074,0.184,0.031,0.164C270.4,249.233,270.369,249.07,270.263,249.09    z"/>
	</g>
	<g>
		<path style="fill:#A9312F;" d="M168.637,126.182c9.69,6.978,21.427,13.715,13.023,16.076c-4.485,1.251-9.493,0.244-13.954-1.557    C167.706,140.7,166.943,133.024,168.637,126.182z"/>
	</g>
	<g>
		<path style="fill:#A9312F;" d="M181.279,154.287c-2.811,2.115-7.374,2.874-11.749,3.02c-0.211-1.009-0.409-2.038-0.593-3.087    c-0.39-2.296-0.696-4.676-0.882-7.146c-0.002-0.101-0.019-0.183-0.021-0.284C177.228,148.275,186.235,150.557,181.279,154.287z"/>
	</g>
	<g>
		<path style="fill:#A9312F;" d="M178.298,121.768c-2.573-0.082-5.401-1.316-8.096-3c0.021-0.157,0.058-0.316,0.095-0.476    c0.801-3.321,1.808-6.631,3.081-9.873C179.317,115.086,184.262,121.96,178.298,121.768z"/>
	</g>
	<g>
		<path style="fill:#A9312F;" d="M305.023,56.378c-1.555,2.043-3.3,4.326-4.547,6.039c-3.935,5.431-7.879,12.844-11.24,13.947    c-7.023,2.315-10.636-4.408-6.684-12.044c1.804-3.479,4.528-6.137,6.962-8.011l0.017-0.003    C294.944,55.938,299.959,55.938,305.023,56.378z"/>
	</g>
	<g>
		<path style="fill:#A9312F;" d="M246.445,60.524c-3.242,5.162-6.446,13.602-10.108,15.254c-5.518,2.483-10.403-1.523-8.267-4.948    c2.07-3.328,4.585-6.012,6.812-7.999C238.729,61.649,242.409,60.953,246.445,60.524z"/>
	</g>
	<g style="opacity:0.48;">
		<path style="fill:#A9312F;" d="M331.576,193.003c2.036-1.059,4.078-2.097,6.079-3.208c2.005-1.098,4.01-2.203,5.903-3.449    l1.044-0.687l-0.363,1.227c-0.18,0.611-0.318,1.278-0.359,1.905c-0.05,0.615,0.051,1.284,0.307,1.493    c0.098,0.1,0.341,0.157,0.524,0.129c0.14-0.014,0.364-0.149,0.562-0.353c0.405-0.411,0.751-0.978,1.056-1.554    c0.607-1.17,1.085-2.439,1.501-3.722c0.406-1.275,0.78-2.617,0.98-3.876l0.336-2.109l0.87,1.939    c0.418,0.932,0.938,1.879,1.544,2.691c0.597,0.794,1.399,1.546,2.04,1.314c0.71-0.186,1.309-1.13,1.689-2.053    c0.387-0.946,0.673-1.986,0.873-3l0.074-0.375l0.354-0.044c2.419-0.303,4.862-0.929,7.185-1.786c1.175-0.407,2.32-0.9,3.433-1.46    c1.122-0.549,2.177-1.219,3.226-1.912c-0.963,0.803-1.967,1.578-3.06,2.209c-1.081,0.653-2.204,1.243-3.366,1.748    c-2.338,0.991-4.755,1.737-7.297,2.18l0.428-0.419c-0.152,1.129-0.406,2.208-0.833,3.277c-0.215,0.531-0.471,1.058-0.832,1.556    c-0.356,0.487-0.856,0.983-1.569,1.192c-0.343,0.1-0.738,0.114-1.106,0.021c-0.358-0.093-0.659-0.259-0.922-0.442    c-0.522-0.372-0.916-0.815-1.277-1.269c-0.707-0.921-1.255-1.881-1.744-2.921l1.205-0.17c-0.231,1.455-0.645,2.756-1.083,4.09    c-0.452,1.321-0.963,2.624-1.639,3.883c-0.349,0.626-0.723,1.248-1.29,1.813c-0.287,0.27-0.649,0.566-1.197,0.645    c-0.493,0.054-0.978-0.052-1.397-0.416c-0.755-0.795-0.639-1.679-0.592-2.388c0.087-0.741,0.261-1.42,0.502-2.115l0.681,0.54    c-2,1.174-4.05,2.217-6.135,3.185C335.82,191.255,333.721,192.185,331.576,193.003z"/>
	</g>
	<g style="opacity:0.48;">
		<path style="fill:#A9312F;" d="M181.286,184.94c1.488,1.928,2.982,3.847,4.56,5.687c0.778,0.928,1.579,1.834,2.413,2.698    c0.832,0.851,1.726,1.696,2.672,2.245l0.235,0.137l0.026,0.293c0.091,1.02,0.245,2.08,0.535,3.049    c0.264,0.942,0.806,1.954,1.394,2.002c0.279,0.03,0.425-0.035,0.621-0.424c0.169-0.373,0.254-0.867,0.302-1.359    c0.088-0.996,0.017-2.065-0.097-3.076l-0.292-2.594l1.445,2.159c0.623,0.932,1.324,1.855,2.064,2.708    c0.743,0.848,1.542,1.669,2.426,2.247c0.434,0.293,0.913,0.503,1.305,0.493c0.433-0.01,0.78-0.149,0.869-0.477    c0.242-0.766-0.2-1.999-0.671-2.931l-0.615-1.216l1.193,0.589c1.723,0.851,3.536,1.572,5.356,2.236    c1.826,0.659,3.701,1.181,5.637,1.467c-1.961-0.035-3.902-0.445-5.802-0.938c-1.901-0.516-3.744-1.186-5.573-1.957l0.578-0.627    c0.316,0.545,0.568,1.086,0.77,1.685c0.18,0.596,0.355,1.251,0.147,2.028c-0.115,0.378-0.399,0.774-0.766,0.965    c-0.18,0.113-0.363,0.189-0.542,0.222c-0.18,0.055-0.363,0.089-0.557,0.077c-0.781,0.018-1.412-0.294-1.947-0.621    c-1.091-0.669-1.941-1.534-2.734-2.428c-0.794-0.9-1.513-1.829-2.194-2.827l1.153-0.435c0.145,1.125,0.192,2.22,0.09,3.371    c-0.067,0.575-0.152,1.16-0.431,1.771c-0.09,0.154-0.173,0.308-0.279,0.457c-0.143,0.142-0.264,0.299-0.445,0.409    c-0.372,0.236-0.82,0.304-1.205,0.233c-0.806-0.129-1.331-0.735-1.641-1.251c-0.318-0.54-0.499-1.092-0.657-1.642    c-0.287-1.106-0.437-2.192-0.476-3.32l0.261,0.429c-1.125-0.738-1.957-1.649-2.779-2.571c-0.808-0.93-1.57-1.889-2.305-2.866    C183.895,189.057,182.525,187.04,181.286,184.94z"/>
	</g>
	<g>
		<g>
			<g>
				<path style="fill:#FFFFFF;" d="M319.674,146.52c-6.992,6.001-18.656,9.022-27.601,6.626c-1.911-0.513-3.722-1.3-5.39-2.402      c-7.227-4.826-12.037-14.165-13.006-22.734c-0.038-0.196-0.059-0.395-0.08-0.595c-0.819-8.666,3.279-17.04,10.368-22.01      c8.299-5.812,21.271-8.898,30.206-2.858c3.524,2.388,6.488,5.916,8.666,10.02l0.016-0.003      C328.693,123.482,329.033,138.472,319.674,146.52z"/>
			</g>
			<g>
				<path style="fill:#A9312F;" d="M319.674,146.52c-3.958,3.384-8.847,5.531-13.889,6.743c-2.533,0.592-5.138,0.907-7.751,0.892      c-2.61-0.005-5.247-0.337-7.76-1.183c-2.518-0.838-4.818-2.302-6.791-4.056c-1.991-1.75-3.723-3.785-5.201-5.985      c-2.944-4.412-4.899-9.484-5.664-14.801l0.012,0.081c-0.883-6.331,0.796-12.74,4.51-17.824c1.842-2.524,4.13-4.764,6.76-6.439      c2.59-1.699,5.381-3.056,8.302-4.047c5.806-1.931,12.358-2.471,18.248-0.222c2.944,1.093,5.518,2.99,7.62,5.194      c2.128,2.208,3.845,4.757,5.212,7.457l-0.543-0.26l0.016-0.003l0.361-0.061l0.166,0.324c1.403,2.772,2.446,5.713,3.09,8.731      c0.634,3.019,0.905,6.112,0.736,9.182c-0.175,3.068-0.846,6.109-2.054,8.928C323.845,141.983,322.012,144.539,319.674,146.52z       M319.674,146.52c2.321-2.002,4.124-4.569,5.305-7.384c1.202-2.814,1.752-5.869,1.853-8.907      c0.198-5.947-1.488-12.21-4.427-17.427c0,0,0.542,0.259,0.526,0.262l-0.34,0.073l-0.186-0.335      c-1.441-2.558-3.223-4.931-5.329-6.93c-9.433-8.948-24.834-6.133-34.03,1.797c-3.583,3.089-6.34,7.202-7.595,11.78      c-1.038,3.787-1.013,7.649-0.271,11.486c1.594,8.254,7.065,18.149,15.356,21.326c4.78,1.825,10.163,1.846,15.206,0.805      C310.801,152.022,315.68,149.841,319.674,146.52z"/>
			</g>
		</g>
		<g>
			<path style="fill:#A9312F;" d="M301.69,146.599c6.938-0.309,13.981-4.333,16.955-10.761c4.739-10.24-0.716-23.765-11.288-27.565     c-5.676-2.04-12.764-1.354-17.83,1.981c-13.537,8.912-8.065,31.117,6.524,35.658C297.847,146.471,299.759,146.685,301.69,146.599     z"/>
		</g>
		<g style="opacity:0.21;">
			<path style="fill:#A9312F;" d="M322.835,112.567c-32.414-8.368-47.38,12.713-49.159,15.443c-0.038-0.196-0.059-0.395-0.08-0.595     c-0.819-8.666,3.279-17.04,10.368-22.01c8.299-5.812,21.271-8.898,30.206-2.858C317.694,104.935,320.658,108.463,322.835,112.567     z"/>
		</g>
	</g>
	<g>
		<g>
			<g>
				<path style="fill:#FFFFFF;" d="M220.706,139.089c-2.451,7.601-10.572,11.871-17.972,13.023      c-1.022,0.145-2.043,0.206-3.051,0.163c-12.185-0.486-22.08-14.961-19.88-26.866c0.205-1.225,0.566-2.429,1.054-3.59      c4.317-10.144,19.13-16.514,29.364-11.909c2.47,1.134,4.349,3.33,5.809,5.556c1.003,1.517,1.929,3.253,2.728,5.115      C221.3,126.408,222.533,133.437,220.706,139.089z"/>
			</g>
			<g>
				<path style="fill:#A9312F;" d="M220.706,139.089c-0.458,1.329-1.044,2.618-1.825,3.794c-0.798,1.159-1.698,2.256-2.747,3.2      c-2.076,1.907-4.517,3.42-7.135,4.494c-1.305,0.545-2.647,1.016-4.022,1.371c-1.368,0.365-2.778,0.661-4.222,0.731      c-2.881,0.08-5.799-0.501-8.422-1.76c-5.283-2.494-9.362-7.113-11.813-12.401c-1.198-2.668-2.012-5.545-2.214-8.521      l-0.008-2.239c0.046-0.744,0.157-1.485,0.237-2.228c0.188-1.481,0.624-2.973,1.225-4.35c2.513-5.576,7.44-9.532,12.83-11.716      c2.712-1.102,5.607-1.738,8.524-1.872c2.914-0.126,5.879,0.295,8.577,1.438c1.383,0.487,2.647,1.402,3.684,2.405      c1.049,1.018,1.924,2.173,2.698,3.373c1.554,2.398,2.703,5.011,3.637,7.676c0.928,2.67,1.562,5.442,1.795,8.252      C221.746,133.536,221.581,136.406,220.706,139.089z M220.706,139.089c1.65-5.438,0.669-11.304-1.33-16.482      c-1.023-2.606-2.337-5.1-3.966-7.346c-1.623-2.221-3.615-4.264-6.186-5.043c-5.136-1.822-10.892-0.945-15.771,1.262      c-2.466,1.098-4.751,2.589-6.719,4.389c-1.971,1.792-3.614,3.939-4.644,6.321c-0.534,1.192-0.916,2.426-1.095,3.733      c-0.073,0.654-0.184,1.307-0.233,1.963l-0.016,1.981c0.13,2.649,0.749,5.297,1.778,7.787c2.02,4.966,5.562,9.541,10.381,12.136      c2.389,1.315,5.087,2.013,7.83,2.095c1.373,0.012,2.748-0.196,4.115-0.481c1.365-0.277,2.718-0.646,4.02-1.155      c2.612-0.982,5.102-2.37,7.2-4.238c1.055-0.928,1.963-2.01,2.772-3.156C219.633,141.693,220.233,140.413,220.706,139.089z"/>
			</g>
		</g>
		<g>
			<path style="fill:#A9312F;" d="M194.261,143.239c0.544,0.319,5.913,5.035,15.228,0.372c9.315-4.662,6.121-17.131,3.937-21.019     c-2.183-3.888-8.763-11.558-19.462-6.63C183.265,120.891,184.91,137.748,194.261,143.239z"/>
		</g>
		<g style="opacity:0.21;">
			<path style="fill:#A9312F;" d="M218.758,120.58c-14.503-5.41-30.757,0.78-38.955,4.828c0.205-1.225,0.566-2.429,1.054-3.59     c4.317-10.144,19.13-16.514,29.364-11.909c2.47,1.134,4.349,3.33,5.809,5.556C217.033,116.982,217.96,118.718,218.758,120.58z"/>
		</g>
	</g>
	<g>
		<path style="fill:#A9312F;" d="M388.133,118.361c-9.459,5.764-21.566,10.188-32.05,7.715c-3.955-0.933-7.736-3.949-7.113-7.845    c0.26-1.557,1.23-3.03,2.511-4.208c3.78-3.504,9.562-5.056,14.574-6.561c5.698-1.722,12.149-5.518,17.116-8.929    C383.17,98.533,387.74,109.694,388.133,118.361z"/>
	</g>
	<g>
		<path style="fill:#A9312F;" d="M174.453,175.343c4.051-2.307,8.255-4.261,12.496-6.129c4.257-1.832,8.553-3.576,13.003-4.964    c-4.049,2.309-8.254,4.263-12.496,6.128C183.198,172.208,178.902,173.952,174.453,175.343z"/>
	</g>
	<g>
		<path style="fill:#A9312F;" d="M170.152,164.611c4.328-1.242,8.721-2.106,13.129-2.876c4.415-0.733,8.846-1.37,13.342-1.624    c-4.328,1.246-8.721,2.109-13.129,2.876C179.079,163.716,174.649,164.353,170.152,164.611z"/>
	</g>
	<g>
		<path style="fill:#A9312F;" d="M170.993,150.281c4.434,0.787,8.758,1.943,13.056,3.19c4.287,1.283,8.547,2.66,12.697,4.408    c-4.434-0.784-8.759-1.941-13.056-3.19C179.404,153.403,175.144,152.026,170.993,150.281z"/>
	</g>
	<g>
		<path style="fill:#FFFFFF;" d="M329.982,54.071c0,0-3.209,0.397-4.199-0.175c-1.007-0.569,3.855-1.621,3.855-1.621    c-2.634-0.578-5.176-3.053-4.353-3.262c0.837-0.228,4.086,1.349,4.086,1.349c-3.788-3.76-2.937-10.698,0.428-10.904    c1.439-0.09,3.557,2.737,5.503,5.987c-0.006,12.042,8.61,19.244,10.091,20.077c-6.101-3.722-13.042-5.826-18.598-6.976    C327.16,56.036,329.982,54.071,329.982,54.071z"/>
	</g>
	<g>
		<path style="fill:#FFFFFF;" d="M207.331,72.546c-0.048-2.717,2.012-6.89,2.198-7.247c-0.196,0.122-2.265,1.519-3.424,1.132    c-1.213-0.41,2.258-2.619,2.258-2.619s-2.847,0.784-3.242-0.037c-0.408-0.802,2.575-1.139,2.575-1.139    c-2.316-0.859-7.155-5.771-4.86-7.754c1.497-1.287,4.076,0.063,5.712,1.171c2.901,5.048,6.469,8.901,14.103,10.025    C222.652,66.079,214.204,69.532,207.331,72.546z"/>
	</g>
	<g>
		<g>
			<path style="fill:#FB5555;" d="M234.651,138.634c-4.046,1.432-7.743,4.453-9.674,8.728c-2.798,6.198-2.638,13.561,2.379,18.337     c3.114,2.965,7.177,4.311,11.181,4.954c7.672,1.233,15.38,1.916,22.761-1.06c2.678-1.079,5.269-2.58,7.295-4.83     c3.103-3.449,4.655-8.616,4.067-13.545c-0.588-4.929-3.303-9.504-7.116-11.994c-4.69-3.063-11.229-3.469-16.468-2.818     C244.408,136.987,239.099,137.06,234.651,138.634z"/>
		</g>
		<g>
			<path style="fill:#A9312F;" d="M244.745,131.171c0,0-4.929-4.843-7.036-3.611c-2.107,1.232,5.313,8.57,7.885,9.041     c2.572,0.471,7.062-8.742,5.533-10.241C249.598,124.861,244.745,131.171,244.745,131.171z"/>
		</g>
		<g>
			<path style="fill:#A9312F;" d="M256.796,165.424c-1.103-2.407-2.119-4.849-3.168-7.278l-2.987-7.352     c-1-2.45-1.899-4.939-2.819-7.422c-0.895-2.497-1.81-4.97-2.535-7.572l1.238-0.063c-0.777,5.053-1.36,10.15-1.913,15.239     c-0.272,2.546-0.519,5.096-0.684,7.651c-0.205,2.554-0.315,5.112-0.345,7.681c-0.253-2.558-0.267-5.135-0.269-7.708     c0.035-2.573,0.18-5.141,0.334-7.708c0.142-2.569,0.423-5.126,0.69-7.682c0.279-2.557,0.583-5.106,0.935-7.661l0.423-3.068     l0.815,3.005c0.677,2.496,1.544,5.007,2.401,7.496l2.647,7.466l2.652,7.472L256.796,165.424z"/>
		</g>
	</g>
	<g>
		<path style="fill:#A9312F;" d="M321.363,161.086c4.647-0.358,9.283-0.331,13.916-0.209c4.632,0.159,9.261,0.415,13.878,1.06    c-4.648,0.36-9.283,0.333-13.917,0.209C330.609,161.983,325.98,161.727,321.363,161.086z"/>
	</g>
	<g>
		<path style="fill:#A9312F;" d="M348.387,150.945c-4.271,1.427-8.622,2.478-12.994,3.437c-4.379,0.921-8.779,1.748-13.26,2.196    c4.27-1.43,8.622-2.481,12.993-3.437C339.507,152.222,343.906,151.396,348.387,150.945z"/>
	</g>
	<g>
		<path style="fill:#A9312F;" d="M340.423,138.316c-3.208,3.16-6.654,6.017-10.158,8.801c-3.528,2.753-7.116,5.431-10.944,7.803    c3.206-3.162,6.653-6.02,10.158-8.801C333.009,143.367,336.597,140.69,340.423,138.316z"/>
	</g>
	<g style="opacity:0.48;">
		<g>
			<path style="fill:#A9312F;" d="M407.996,262.966c-0.837,8.157-2.581,16.215-4.934,24.088c-2.399,7.854-5.423,15.573-9.549,22.743     c-1.021,1.798-2.255,3.465-3.375,5.205c-1.127,1.737-2.285,3.454-3.614,5.049c-2.61,3.223-5.495,6.248-8.725,8.889     c-6.398,5.319-14.198,9.17-22.433,10.649c-16.308,3.296-33.272,2.154-49.261-2.047c-7.995-2.14-15.826-4.961-23.233-8.697     c-7.406-3.706-14.503-8.175-20.619-13.937l-0.397-0.374v-0.555v-0.024l0.404,0.935c-2.044-1.946-3.962-4.065-5.539-6.493     c-0.783-1.195-1.493-2.547-1.989-3.875c-0.495-1.304-1.043-2.583-1.47-3.92c-1.825-5.251-3.209-10.92-2.449-16.73     c0.72-5.821,4.279-11.072,8.849-14.396c4.537-3.452,9.707-5.734,14.966-7.543c10.801-3.428,22.271-2.691,33.03-0.414     c10.806,2.338,21.272,6.057,31.135,10.934c-10.064-4.422-20.577-7.87-31.349-9.844c-10.713-1.878-21.973-2.453-32.223,1.053     c-5.081,1.849-10.067,4.185-14.236,7.487c-4.233,3.226-7.172,7.881-7.827,13.042c-0.657,5.187,0.626,10.527,2.432,15.596     c0.417,1.283,0.963,2.532,1.45,3.796c0.477,1.246,1.065,2.337,1.791,3.441c1.434,2.183,3.241,4.166,5.189,5.996l0.405,0.38v0.556     v0.024l-0.397-0.928c5.858,5.455,12.804,9.793,20.054,13.359c7.27,3.56,14.884,6.441,22.709,8.565     c15.622,4.209,32.215,5.418,48.115,2.302c7.908-1.38,15.383-4.817,21.66-9.859c3.163-2.489,6.016-5.371,8.618-8.466     c1.326-1.532,2.489-3.193,3.623-4.874c1.127-1.684,2.371-3.295,3.405-5.042C400.478,295.016,405.47,279.12,407.996,262.966z"/>
		</g>
	</g>
	<g>
		<path style="fill:#A9312F;" d="M256.095,304.559c2.382-1.94,5.206-3.306,8.142-4.265c2.941-0.984,6.057-1.444,9.177-1.5    c1.562-0.05,3.122,0.144,4.673,0.295c1.529,0.339,3.082,0.533,4.54,1.112c2.983,0.889,5.704,2.49,8.101,4.358    c-2.954-0.859-5.733-1.816-8.635-2.269c-2.863-0.547-5.757-0.804-8.648-0.735C267.644,301.573,261.893,302.732,256.095,304.559z"/>
	</g>
	<g>
		<path style="fill:#A9312F;" d="M252.008,283.677c2.348-2.836,5.677-4.801,9.141-6.121c3.49-1.343,7.218-1.936,10.921-2.122    c3.719-0.195,7.412,0.272,11.017,0.971c1.795,0.392,3.555,0.931,5.306,1.436c1.703,0.698,3.421,1.303,5.074,2.075    c-1.833-0.172-3.601-0.511-5.383-0.756l-5.327-0.623c-3.544-0.245-7.069-0.576-10.574-0.342c-3.501,0.125-6.984,0.559-10.384,1.41    C258.433,280.523,255.049,281.668,252.008,283.677z"/>
	</g>
	<g style="opacity:0.48;">
		<g>
			<path style="fill:#A9312F;" d="M328.449,267.521c0.076-4.932,0.974-9.665,2.064-14.352c1.174-4.666,2.548-9.283,4.748-13.7     c-0.071,4.934-0.968,9.667-2.064,14.352C332.016,258.485,330.643,263.103,328.449,267.521z"/>
		</g>
	</g>
	<g style="opacity:0.48;">
		<g>
			<path style="fill:#A9312F;" d="M59.718,414.849c1.381-4.622,3.193-9.111,5.193-13.506c1.957-4.424,4.259-8.676,6.766-12.817     c4.693-8.479,10.48-16.326,16.962-23.555c12.94-14.479,29.464-25.887,47.808-32.536c18.363-6.269,38.276-9.14,57.538-5.574     c19.112,3.48,37.354,13.149,49.658,28.092c-6.485-7.129-14.41-12.829-22.925-17.153c-8.469-4.453-17.694-7.344-27.094-8.844     c-18.851-3.058-38.327-0.258-56.241,6.075c-18.01,6.294-34.126,17.437-47.188,31.373c-6.569,6.941-12.481,14.561-17.365,22.817     C67.448,397.179,63.186,405.869,59.718,414.849z"/>
		</g>
	</g>
	<g>
		<path style="fill:#FFFFFF;" d="M50.364,121.241c-1.163,1.656-2.003,3.589-2.097,5.61c-0.094,2.021,0.627,4.129,2.154,5.456    c2.525,2.193,6.351,1.755,9.584,0.897c3.736-0.992,7.555-2.505,9.965-5.528c2.41-3.022,2.826-7.913-0.012-10.538    C64.21,111.819,54.314,115.621,50.364,121.241z"/>
	</g>
	<g>
		<path style="fill:#FFFFFF;" d="M51.475,152.199c1.677,2.555,4.858,3.906,7.912,3.778c1.234-0.052,2.481-0.33,3.528-0.984    c1.431-0.893,2.358-2.387,3.233-3.829c0.527-0.868,1.066-1.766,1.215-2.771c0.693-4.665-6.516-8.42-10.435-7.302    C52.049,142.485,48.27,147.314,51.475,152.199z"/>
	</g>
	<g>
		<path style="fill:#A9312F;" d="M379.868,90.584c-0.376,0.151-0.778,0.301-1.154,0.426c-6.8,2.434-14.503,3.513-21.127,0.652    c-1.004-0.427-2.007-0.979-2.61-1.882c-1.154-1.681-0.502-4.115,0.928-5.57c1.405-1.48,3.388-2.233,5.295-2.936    c3.111-1.129,6.496-2.269,9.557-3.474C370.757,77.801,377.66,84.598,379.868,90.584z"/>
	</g>
	<g>
		<path style="fill:#A9312F;" d="M385.112,151.005c-4.065,0.753-8.305,0.577-12.27-0.652c-1.43-0.427-2.911-1.054-3.714-2.309    c-0.477-0.728-0.703-1.606-0.703-2.459c-0.075-3.011,2.233-5.621,4.868-7.051c2.66-1.43,5.671-1.932,8.582-2.785    c2.359-0.677,4.692-1.606,6.875-2.735C388.75,133.014,389.133,143.912,385.112,151.005z"/>
	</g>
	<g>
		<path style="fill:#A9312F;" d="M398.963,211.377c-8.858,4.667-18.919,7.277-28.655,5.32c-2.509-0.502-5.043-1.355-6.951-3.086    c-1.907-1.706-3.061-4.441-2.334-6.925c0.778-2.61,3.362-4.215,5.821-5.395c7.578-3.613,15.984-5.495,23.16-9.962    c0.125-0.075,0.251-0.176,0.376-0.276C393.342,197.024,396.328,203.874,398.963,211.377z"/>
	</g>
	<g>
		<path style="fill:#A9312F;" d="M407.218,254.335c-3.187,0.753-6.474,1.079-9.736,1.204c-7.452,0.251-15.131-0.678-21.73-4.115    c-2.986-1.556-5.972-4.015-6.223-7.377c-0.251-3.212,2.183-6.097,4.993-7.703c5.119-2.911,11.367-2.685,17.213-3.337    c3.212-0.351,6.399-0.979,9.51-1.907c0.979-0.276,1.982-0.728,3.011-1.179C406.484,238.511,407.239,245.924,407.218,254.335z"/>
	</g>
	<g>
		<path style="fill:#A9312F;" d="M402.777,286.553c-2.384,7.528-5.746,15.958-10.488,23.837c-0.251-0.1-0.502-0.201-0.753-0.301    c-4.391-1.757-8.506-4.441-12.32-7.302c-3.488-2.635-7.076-5.947-7.377-10.288c-0.402-5.445,4.918-9.936,10.313-10.689    c6.248-0.853,12.094,1.857,17.79,3.914c0.929,0.326,1.857,0.602,2.81,0.828C402.752,286.553,402.752,286.553,402.777,286.553z"/>
	</g>
	<g>
		<path style="fill:#A9312F;" d="M356.407,325.746c-0.753,3.638-2.459,7.001-4.441,10.137c-0.753,1.179-1.531,2.359-2.384,3.488    c-11.944,1.631-23.988,0.928-35.254-1.28c1.982-1.33,3.789-2.785,5.069-4.617c2.961-4.241,4.516-9.259,6.223-14.152    c1.706-4.893,3.714-9.836,7.327-13.525c3.613-3.714,9.234-5.897,14.077-4.09c4.968,1.832,7.753,7.177,8.983,12.345    C356.909,317.868,357.21,321.907,356.407,325.746z"/>
	</g>
	<g>
		<path style="fill:#A9312F;" d="M187.261,482.121c-12.145-1.907-23.386-4.742-33.373-7.879c1.48-11.091,5.019-22.056,7.929-26.347    c2.183-3.237,5.319-6.323,9.234-6.524c3.212-0.151,6.273,1.781,8.205,4.341c1.957,2.584,2.986,5.721,3.864,8.832    c2.133,7.703,3.488,15.632,4.015,23.612C187.211,479.461,187.261,480.791,187.261,482.121z"/>
	</g>
	<g>
		<path style="fill:#A9312F;" d="M381.7,354.327c-2.057,8.255-4.445,17.63-8.632,26.824c-2.785-0.151-5.596-0.602-8.331-1.054    c-8.431-1.405-17.063-3.137-24.214-7.804c-4.115-2.685-7.929-7.553-6.173-12.119c1.029-2.66,3.739-4.366,6.524-4.993    c2.76-0.627,5.671-0.376,8.506-0.151c8.004,0.577,16.034,0.627,24.038,0.176C375.979,355.054,378.839,354.603,381.7,354.327z"/>
	</g>
	<g>
		<path style="fill:#A9312F;" d="M263.466,479.235c-13.424,3.951-26.181,5.345-39.344,5.345c-0.201-1.757-0.376-3.438-0.577-5.018    c-1.48-12.371-2.986-24.741-4.466-37.111c-0.577-4.742-1.054-9.936,1.606-13.876c1.882-2.835,5.295-4.592,8.707-4.466    c6.599,0.226,11.116,6.524,14.578,12.145c1.706,2.785,3.413,5.545,5.094,8.331c6.449,10.488,13.073,21.454,14.328,33.699    C263.416,478.608,263.441,478.909,263.466,479.235z"/>
	</g>
	<g>
		<path style="fill:#A9312F;" d="M322.156,451.107c-7.678,5.997-16.285,11.467-25.87,16.159c-3.086-5.947-5.345-13.073-7.728-18.066    c-1.154-2.384-2.309-4.843-2.56-7.477c-0.401-3.99,1.506-8.105,4.768-10.413c3.262-2.284,7.778-2.685,11.417-0.979    c2.76,1.305,4.868,3.638,6.9,5.922c3.086,3.488,6.173,6.951,9.259,10.438C319.622,448.121,320.927,449.601,322.156,451.107z"/>
	</g>
	<g>
		<path style="fill:#A9312F;" d="M361.802,404.686c-4.466,7.854-9.686,15.632-15.808,23.11c-3.688-2.81-7.026-6.072-9.987-9.66    c-3.538-4.291-6.574-9.334-6.725-14.905c-0.075-2.584,0.678-5.445,2.835-6.875c1.832-1.229,4.266-1.154,6.449-0.803    C345.718,396.632,354.475,400.195,361.802,404.686z"/>
	</g>
	<g style="opacity:0.48;">
		<g>
			<path style="fill:#A9312F;" d="M121.959,281.649c1.872-1.685,4.136-2.849,6.451-3.774c2.323-0.936,4.763-1.533,7.221-1.967     c4.934-0.707,10.016-0.625,14.801,0.835c-2.476,0.423-4.881,0.632-7.271,0.933c-2.388,0.276-4.749,0.603-7.1,0.96     C131.352,279.393,126.743,280.333,121.959,281.649z"/>
		</g>
	</g>
	<g style="opacity:0.48;">
		<g>
			<path style="fill:#A9312F;" d="M127.868,269.524c2.067,0.614,3.946,1.655,5.694,2.849c1.765,1.184,3.361,2.597,4.84,4.12     c2.911,3.073,5.308,6.753,6.388,10.904c-1.541-1.511-2.848-3.074-4.246-4.563c-1.375-1.499-2.728-2.993-4.141-4.435     C133.641,275.44,130.76,272.653,127.868,269.524z"/>
		</g>
	</g>
	<g>
		<path style="fill:#A9312F;" d="M17.405,363.613c1.059-1.211,2.481-2.017,3.992-2.538c1.519-0.535,3.179-0.688,4.82-0.526    c1.634,0.196,3.258,0.734,4.59,1.691c1.378,0.875,2.426,2.168,3.117,3.583c-1.502-0.596-2.756-1.257-4.091-1.659    c-1.302-0.445-2.598-0.753-3.927-0.87C23.245,362.955,20.527,363.237,17.405,363.613z"/>
	</g>
	<g style="opacity:0.2;">
		<path style="fill:#A9312F;" d="M25.668,274.935c-1.054,26.824-14.478,21.303-14.478,21.303l-0.1-0.728    c-0.301-3.412,0.376-7.904,2.534-13.876c8.707-24.038-11.542-65.415-13.474-83.481c1.882-1.28,4.893-2.007,9.384,0.251    C18.492,202.871,26.722,248.087,25.668,274.935z"/>
	</g>
	<g>
		<path style="fill:#A9312F;" d="M15.764,207.928c1.194-1.855,3.687-2.402,5.777-1.84c2.093,0.629,3.802,2.229,4.217,4.338    c-1.066-0.282-1.886-0.643-2.69-0.931c-0.796-0.295-1.531-0.541-2.264-0.746C19.327,208.332,17.879,208.104,15.764,207.928z"/>
	</g>
	<g style="opacity:0.48;">
		<g>
			<path style="fill:#A9312F;" d="M206.679,367.738c-1.206-1.534-2.374-3.075-3.695-4.452c-0.674-0.667-1.305-1.374-2.023-1.92     c-0.682-0.536-1.494-1.063-2.025-1.079c-0.398-0.009-0.675,0.374-0.628,0.706c-0.003,0.43,0.415,1.223,0.934,1.881     c1.063,1.349,2.464,2.674,3.864,3.797l3.568,2.865l-4.59-0.452c-1.395-0.137-2.879-0.232-4.272-0.207     c-0.608,0.011-1.234,0.08-1.844,0.17c-0.46,0.068-1.343,0.178-1.415,0.483c-0.087,0.366,1.53,1.326,1.688,1.412     c1.208,0.661,2.605,1.19,3.96,1.632l1.723,0.562l-1.348,1.017c-0.483,0.365-1.003,0.948-1.356,1.533     c-0.353,0.603-0.625,1.262-0.689,1.974c-0.16,1.433,0.506,2.939,1.433,4.24c-0.601-0.525-1.218-1.086-1.642-1.812     c-0.468-0.699-0.74-1.544-0.839-2.424c-0.087-0.883,0.051-1.814,0.412-2.636c0.369-0.836,0.816-1.554,1.511-2.265     c0,0,0.375,1.579,0.375,1.579c-0.017-0.07-1.087-0.23-1.212-0.26c-0.423-0.102-0.842-0.214-1.259-0.339     c-1.54-0.462-3.111-1.034-4.312-2.144c-1.042-0.964-1.324-2.481-0.48-3.667c1.257-1.473,3.389-1.682,5.198-1.771     c1.612-0.08,3.137,0.02,4.726,0.23l-1.022,2.413c-1.583-1.331-3.019-2.694-4.228-4.482c-0.56-0.908-1.224-1.87-1.213-3.4     c0.029-1.621,1.679-2.962,3.243-2.651c1.419,0.309,2.148,1.132,2.887,1.86c0.716,0.756,1.314,1.555,1.852,2.393     C205.005,364.209,205.96,365.916,206.679,367.738z"/>
		</g>
	</g>
</g>















</svg>
