<?xml version="1.0" encoding="UTF-8"?>
<!-- Generator: Adobe Illustrator 25.2.3, SVG Export Plug-In . SVG Version: 6.00 Build 0)  -->
<svg xmlns="http://www.w3.org/2000/svg" xmlns:xlink="http://www.w3.org/1999/xlink" version="1.1" id="Capa_1" x="0px" y="0px" viewBox="0 0 512 512" style="enable-background:new 0 0 512 512;" xml:space="preserve" width="512" height="512">
<g>
	<g>
		<g>
			<path style="fill:#A9312F;" d="M372.115,491.284c29.594-5.6,48.685-14.397,48.685-24.295c0-16.918-55.717-30.633-124.448-30.633     c-68.731,0-124.448,13.715-124.448,30.633c0,16.918,55.717,30.633,124.448,30.633c9.83,0,19.38-0.289,28.553-0.819     c-1.298,1.226-2.042,2.548-2.042,3.934c0,6.221,14.294,11.264,31.926,11.264c17.632,0,31.926-5.043,31.926-11.264     C386.715,496.771,380.894,493.291,372.115,491.284z"/>
		</g>
		<g>
			<path style="fill:#A9312F;" d="M413.067,490.873c-6.446,0-11.671,1.843-11.671,4.118c0,2.274,5.225,4.118,11.671,4.118     c6.446,0,11.671-1.844,11.671-4.118C424.738,492.716,419.512,490.873,413.067,490.873z"/>
		</g>
	</g>
	<g>
		<path style="fill:#FB5555;" d="M380.323,446.313c-25.803,25.156-55.367,23.659-75.002,18.361    c-13.286-3.579-22.042-8.898-22.042-8.898s-27.441,20.383-84.769-1.881c-48.815-18.988-57.43-53.001-58.906-62.647v-0.02    c-0.263-1.678-0.303-2.609-0.303-2.609c-4.975-2.629-9.322-5.44-13.104-8.433c-43.881-34.357-12.962-88.328-12.962-88.328    s24.63-50.231,68.693-63.759c44.063-13.528,97.691,1.901,97.691,1.901l113.12,79.39    C392.74,309.392,423.578,404.13,380.323,446.313z"/>
	</g>
	<g>
		<g>
			<g>
				<path style="fill:#FF983D;" d="M400.85,333.361c0,0,14.468,37.446,11.915,51.063c-2.553,13.616-12.766,24.255-26.382,10.638      c-13.617-13.617,0-61.701,0-61.701H400.85z"/>
			</g>
			<g style="opacity:0.4;">
				<path style="fill:#A9312F;" d="M400.85,333.361c0,0,14.468,37.446,11.915,51.063c-2.553,13.616-12.766,24.255-26.382,10.638      c-13.617-13.617,0-61.701,0-61.701H400.85z"/>
			</g>
		</g>
		<g>
			<path style="fill:#A9312F;" d="M407.358,396.817c-1.15-0.992-2.05-2.193-2.828-3.459c-0.783-1.268-1.404-2.631-1.885-4.056     c-0.435-1.437-0.768-2.926-0.791-4.455c-0.021-1.521,0.217-3.083,0.913-4.431c0.327,2.982,1.021,5.552,1.899,8.229     C405.516,391.314,406.547,393.924,407.358,396.817z"/>
		</g>
		<g>
			<path style="fill:#A9312F;" d="M392.329,399.658c-0.535-2.907-0.575-5.701-0.663-8.486l-0.062-4.157     c-0.043-1.387-0.056-2.756-0.231-4.226c0.998,1.13,1.519,2.585,1.874,4.002c0.368,1.432,0.499,2.891,0.542,4.339     c0.007,1.45-0.063,2.894-0.305,4.321C393.257,396.876,392.924,398.293,392.329,399.658z"/>
		</g>
	</g>
	<g>
		<path style="fill:#67DCBC;" d="M222.877,237.437c0,0-38.484,9.972-43.156,23.56c-4.673,13.588,41.945,12.166,41.945,12.166    s-22.009,24.161-12.353,34.752c9.657,10.591,41.859-13.614,41.859-13.614s-4.732,36.47,12.371,39.059    c17.103,2.589,19.408-32.922,21.215-32.61c1.807,0.312,15.658,40.184,33.341,35.823c17.683-4.361,6.158-36.757,6.158-36.757    s30.817,28.658,43.443,15.264c12.627-13.395-12.44-65.156-15.482-64.507c-3.042,0.649-96.918-20.579-96.918-20.579    L222.877,237.437z"/>
	</g>
	<g>
		<path style="fill:#FF983D;" d="M340.678,274.451c0,0,18.07,66.126,51.38,66.492c33.31,0.365,38.81-96.69,10.486-123.787    C374.221,190.059,340.678,274.451,340.678,274.451z"/>
	</g>
	<g>
		<g>
			<g>
				<path style="fill:#FF983D;" d="M189.674,100.441c-2.79,6.026-4.206,12.497-2.77,19.413c0.121,0.546,0.243,1.112,0.405,1.658      c5.096,19.028,28.674,32.031,29.766,32.031l-23.073,14.58c-0.101-0.061-0.202-0.142-0.303-0.202      c-6.208-4.186-11.587-9.423-15.975-15.348c-4.125-5.602-7.381-11.81-9.646-18.361c-4.449-12.962-4.954-27.239-0.485-40.545      c4.226-12.558,12.497-21.698,21.334-30.838c1.82-1.88,3.66-3.761,5.5-5.682c2.265-2.366,3.802-4.873,4.671-7.502      c1.618-4.873,0.971-10.171-1.395-15.672c-1.82-4.206-4.307-8.129-7.017-11.809c-2.71-3.66-6.552-6.896-6.895-11.749      c-0.243-3.134,1.072-6.43,3.579-8.352c0.182-0.142,0.364-0.263,0.566-0.384c2.75-1.78,6.309-1.941,9.565-1.416      c9.706,1.577,17.188,8.17,20.93,17.026c0.243,0.546,0.445,1.092,0.647,1.638c1.415,3.903,2.245,7.967,2.629,12.093      c0.323,3.518,0.323,7.077,0,10.596c-1.577,16.197-10.434,28.533-20.161,40.888C197.217,88.005,192.647,93.971,189.674,100.441z"/>
			</g>
			<g style="opacity:0.4;">
				<path style="fill:#A9312F;" d="M189.674,100.441c-2.79,6.026-4.206,12.497-2.77,19.413c0.121,0.546,0.243,1.112,0.405,1.658      c5.096,19.028,28.674,32.031,29.766,32.031l-23.073,14.58c-0.101-0.061-0.202-0.142-0.303-0.202      c-6.208-4.186-11.587-9.423-15.975-15.348c-4.125-5.602-7.381-11.81-9.646-18.361c-4.449-12.962-4.954-27.239-0.485-40.545      c4.226-12.558,12.497-21.698,21.334-30.838c1.82-1.88,3.66-3.761,5.5-5.682c2.265-2.366,3.802-4.873,4.671-7.502      c1.618-4.873,0.971-10.171-1.395-15.672c-1.82-4.206-4.307-8.129-7.017-11.809c-2.71-3.66-6.552-6.896-6.895-11.749      c-0.243-3.134,1.072-6.43,3.579-8.352c0.182-0.142,0.364-0.263,0.566-0.384c2.75-1.78,6.309-1.941,9.565-1.416      c9.706,1.577,17.188,8.17,20.93,17.026c0.243,0.546,0.445,1.092,0.647,1.638c1.415,3.903,2.245,7.967,2.629,12.093      c0.323,3.518,0.323,7.077,0,10.596c-1.577,16.197-10.434,28.533-20.161,40.888C197.217,88.005,192.647,93.971,189.674,100.441z"/>
			</g>
		</g>
		<g>
			<path style="fill:#A9312F;" d="M177.723,152.573c-4.125-5.602-7.381-11.81-9.646-18.361c4.752-0.445,11.688-0.182,13.346,4.712     C183.143,144.019,180.15,149.438,177.723,152.573z"/>
		</g>
		<g>
			<path style="fill:#A9312F;" d="M186.904,119.854c0.121,0.546,0.243,1.112,0.405,1.658c-4.206-1.416-12.214-5.177-11-12.78     c1.031-6.572,8.291-8.069,13.366-8.291C186.884,106.467,185.468,112.938,186.904,119.854z"/>
		</g>
		<g>
			<path style="fill:#A9312F;" d="M201.221,64.487c-4.247,3.418-9.525,0.445-12.295-1.658c1.82-1.88,3.66-3.761,5.5-5.682     c2.265-2.366,3.802-4.873,4.671-7.502C201.484,53.183,205.771,60.827,201.221,64.487z"/>
		</g>
		<g>
			<path style="fill:#A9312F;" d="M218.429,17.29c-15.126,8.574-27.198-9.807-30.494-15.611c2.75-1.78,6.309-1.941,9.565-1.416     C207.206,1.841,214.688,8.433,218.429,17.29z"/>
		</g>
	</g>
	<g>
		<g>
			<g>
				<path style="fill:#FF983D;" d="M145.527,266.084l-17.386-13.57c0,0-31.38,22.05-39.437,36.892      c-2.925,5.388-0.979,10.799,2.074,12.366c5.356,2.749,16.114-1.645,24.217-5.157      C127.717,291.103,145.527,266.084,145.527,266.084z"/>
			</g>
			<g style="opacity:0.4;">
				<path style="fill:#A9312F;" d="M145.527,266.084l-17.386-13.57c0,0-31.38,22.05-39.437,36.892      c-2.925,5.388-0.979,10.799,2.074,12.366c5.356,2.749,16.114-1.645,24.217-5.157      C127.717,291.103,145.527,266.084,145.527,266.084z"/>
			</g>
		</g>
		<g>
			<path style="fill:#A9312F;" d="M97.574,302.439c0.182-1.546,0.733-3.005,1.438-4.368c0.7-1.373,1.622-2.625,2.659-3.777     c1.054-1.134,2.265-2.139,3.613-2.915c1.318-0.816,2.83-1.323,4.35-1.545c-1.17,1.037-2.327,1.886-3.374,2.887     c-1.051,0.977-2.086,1.948-3.031,3.017C101.267,297.818,99.525,300.068,97.574,302.439z"/>
		</g>
		<g>
			<path style="fill:#A9312F;" d="M87.506,294.302c0.587-1.381,1.497-2.562,2.479-3.64c0.982-1.088,2.101-2.027,3.259-2.906     c2.368-1.681,4.963-3.066,7.878-3.667c-1.044,1.071-2.155,1.964-3.265,2.843c-1.106,0.884-2.24,1.704-3.36,2.54     C92.223,291.115,89.987,292.708,87.506,294.302z"/>
		</g>
	</g>
	<g>
		<path style="fill:#FF983D;" d="M229.19,140.692c0,0-38.592,6.759-71.297,40.877s-39.035,64.25-27.079,79.428    c11.957,15.178,49.234-7.329,65.059-22.803c0,0,14.033,5.978,25.831,0c11.798-5.979-9.302-31.514-9.302-31.514L229.19,140.692z"/>
	</g>
	<g style="opacity:0.2;">
		<path style="fill:#A9312F;" d="M420.8,279.547c-0.019,5.347-0.328,10.674-0.907,15.827c-0.675,5.868-1.679,11.484-3.069,16.677    c-4.517,17.082-12.874,29.377-24.764,29.242c-33.314-0.367-51.381-66.494-51.381-66.494s33.546-84.386,61.862-57.287    c8.975,8.589,14.553,24.223,16.927,41.537C420.395,265.727,420.839,272.656,420.8,279.547z"/>
	</g>
	<g style="opacity:0.2;">
		<path style="fill:#A9312F;" d="M212.402,207.031c0,0,21.096,25.536,9.303,31.519s-25.825,0-25.825,0    c-15.827,15.48-53.118,37.986-65.066,22.795c-6.833-8.686-7.701-22.274-1.023-38.7c2.2-5.462,5.231-11.752,9.149-17.755    c2.586-3.957,5.559-7.822,8.917-11.971c3.03-3.706,6.369-7.159,10.037-11c2.779-2.895,5.598-5.927,8.435-8.437    c30.574-27.273,63.135-32.791,63.135-32.791L212.402,207.031z"/>
	</g>
	<g>
		<path style="fill:#FF983D;" d="M391.494,175.216c-1.326-2.321-2.821-4.528-4.396-6.676c-0.787-2.676-1.82-5.305-3.169-7.87    c0.862-0.532,1.696-1.074,2.482-1.682c10.305-8.039,12.977-22.051,9.757-24.628c-0.385-0.314-0.196-1.5-0.638-1.72    c-4.373-2.207-11.563-0.545-18.898,3.192c-5.707,2.898-12.448,2.318-15.916,1.73c-2.161-1.353-4.436-2.688-6.814-3.996    c-2.867-1.593-5.886-3.15-9.018-4.651c-1.251-0.621-2.54-1.205-3.838-1.798c-5.841-2.65-11.977-5.047-18.191-7.068    c-1.582-0.5-3.173-1.011-4.764-1.464c-4.124-1.215-8.269-2.222-12.34-3.002c-3.722-0.712-7.379-1.226-10.934-1.522    c-3.382-0.785-7.419-2.311-10.59-5.218c-6.537-6.013-13.59-9.643-18.47-7.805c-0.085,0.028-0.179,0.065-0.255,0.102    c-3.008,1.264-5.19,10.785-2.523,19.809c-16.443,5.457-54.796,26.517-66.601,56.176c-12.727,31.977,11.929,59.083,11.929,59.083    s5.011,8.824,8.198,16.306c3.187,7.482,3.75,19.381,20.082,18.681c16.332-0.7,16.453-24.187,16.453-24.187    c26.174,2.333,52.708,15.383,52.708,15.383c-14.385,9.161-15.11,25.058-4.463,32.323c5.923,4.042,18.49-3.503,29.807-9.818    c9.024-5.036,17.802-8.807,17.802-8.807c35.453-3.868,35.229-6.02,41.866-11.11C399.936,257.944,418.964,223.289,391.494,175.216z    "/>
	</g>
	<g>
		<g>
			<g>
				<path style="fill:#FFFFFF;" d="M354.392,194.274c-5.844,1.024-13.293-1.138-17.457-5.405c-0.889-0.912-1.633-1.943-2.194-3.102      c-2.414-5.047-2.007-11.798,0.273-16.86c0.043-0.121,0.097-0.238,0.151-0.355c2.395-5.067,7.416-8.356,12.974-8.776      c6.505-0.49,14.7,2.066,17.661,8.346c1.166,2.48,1.647,5.408,1.504,8.395l0.01,0.004      C366.957,184.485,362.218,192.895,354.392,194.274z"/>
			</g>
			<g>
				<path style="fill:#A9312F;" d="M354.392,194.274c-3.304,0.574-6.715,0.155-9.907-0.829c-1.598-0.504-3.144-1.185-4.587-2.051      c-1.445-0.859-2.798-1.909-3.913-3.203c-1.122-1.292-1.916-2.86-2.435-4.48c-0.53-1.625-0.822-3.322-0.919-5.028      c-0.184-3.414,0.398-6.87,1.72-10.073l-0.021,0.052c1.596-3.812,4.637-6.815,8.375-8.414c1.854-0.794,3.863-1.285,5.875-1.346      c1.997-0.089,3.992,0.078,5.938,0.491c3.855,0.844,7.667,2.705,10.191,5.898c1.272,1.579,2.073,3.481,2.51,5.395      c0.451,1.925,0.561,3.903,0.428,5.848l-0.224-0.34l0.01,0.004l0.229,0.092l-0.015,0.243c-0.137,1.997-0.53,3.969-1.167,5.852      c-0.644,1.88-1.514,3.681-2.617,5.324c-1.107,1.64-2.48,3.102-4.075,4.265C358.192,193.134,356.337,193.946,354.392,194.274z       M354.392,194.274c1.943-0.346,3.785-1.175,5.363-2.345c1.59-1.163,2.897-2.674,3.95-4.324c1.058-1.651,1.847-3.465,2.382-5.343      c0.539-1.876,0.84-3.817,0.881-5.757l0.224,0.338l-0.01-0.004l-0.221-0.077l0.007-0.258c0.041-1.888-0.168-3.786-0.679-5.581      c-0.504-1.8-1.319-3.488-2.531-4.853c-1.196-1.383-2.71-2.465-4.344-3.302c-1.636-0.839-3.412-1.422-5.23-1.765      c-3.634-0.702-7.461-0.626-10.81,0.802c-0.837,0.356-1.638,0.791-2.403,1.282c-0.746,0.517-1.476,1.063-2.132,1.694      c-0.652,0.632-1.271,1.306-1.791,2.056c-0.282,0.36-0.5,0.761-0.75,1.143c-0.2,0.389-0.463,0.826-0.604,1.172l-0.021,0.052      c-1.367,2.913-2.087,6.182-2.061,9.445c0.016,1.632,0.22,3.266,0.653,4.841c0.427,1.579,1.103,3.086,2.119,4.374      c2.039,2.582,5.01,4.367,8.143,5.45C347.671,194.402,351.089,194.798,354.392,194.274z"/>
			</g>
		</g>
		<g>
			<path style="fill:#A9312F;" d="M344.41,188.406c3.942,2.11,9.164,2.197,12.923-0.384c5.99-4.111,7.416-13.392,2.812-18.97     c-2.472-2.995-6.621-4.945-10.522-4.764c-10.423,0.484-14.693,14.575-8.109,21.884     C342.324,187.072,343.313,187.819,344.41,188.406z"/>
		</g>
		<g style="opacity:0.21;">
			<path style="fill:#A9312F;" d="M367.302,176.517c-15.193-15.287-30.408-8.536-32.289-7.61c0.043-0.121,0.097-0.238,0.151-0.355     c2.395-5.067,7.416-8.356,12.974-8.776c6.505-0.49,14.7,2.066,17.661,8.346C366.964,170.602,367.446,173.53,367.302,176.517z"/>
		</g>
	</g>
	<g>
		<g>
			<g>
				<path style="fill:#FFFFFF;" d="M287.98,176.044c-5.844,1.024-13.293-1.138-17.458-5.405c-0.889-0.912-1.633-1.943-2.194-3.101      c-2.415-5.048-2.008-11.798,0.273-16.861c0.044-0.121,0.098-0.238,0.151-0.355c2.395-5.067,7.416-8.355,12.975-8.776      c6.504-0.49,14.7,2.066,17.661,8.346c1.166,2.48,1.647,5.408,1.504,8.395l0.01,0.004      C300.545,166.255,295.807,174.665,287.98,176.044z"/>
			</g>
			<g>
				<path style="fill:#A9312F;" d="M287.98,176.044c-3.304,0.574-6.715,0.155-9.907-0.829c-1.598-0.504-3.144-1.185-4.587-2.051      c-1.445-0.859-2.797-1.909-3.913-3.204c-1.122-1.292-1.917-2.86-2.435-4.48c-0.53-1.625-0.822-3.322-0.919-5.028      c-0.184-3.414,0.398-6.87,1.721-10.072l-0.021,0.051c1.595-3.81,4.637-6.814,8.375-8.413c1.854-0.795,3.863-1.285,5.875-1.347      c1.996-0.089,3.991,0.078,5.938,0.491c3.856,0.844,7.667,2.705,10.191,5.898c1.272,1.579,2.073,3.481,2.511,5.395      c0.451,1.925,0.571,3.906,0.438,5.851l-0.241-0.345l0.01,0.004l0.248,0.093l-0.017,0.248c-0.137,1.997-0.539,3.967-1.177,5.849      c-0.645,1.88-1.513,3.681-2.617,5.324c-1.107,1.641-2.48,3.102-4.075,4.265C291.78,174.904,289.926,175.716,287.98,176.044z       M287.98,176.044c1.943-0.346,3.785-1.175,5.363-2.345c1.59-1.163,2.897-2.675,3.95-4.323c1.058-1.652,1.847-3.466,2.382-5.343      c0.539-1.877,0.839-3.818,0.882-5.757l0.231,0.341l-0.01-0.003l-0.229-0.063l-0.003-0.279c0.041-1.888-0.157-3.78-0.669-5.576      c-0.504-1.801-1.319-3.488-2.532-4.853c-1.195-1.382-2.71-2.465-4.343-3.302c-1.636-0.84-3.412-1.423-5.23-1.765      c-3.634-0.702-7.461-0.626-10.81,0.802c-0.837,0.356-1.637,0.791-2.402,1.282c-0.746,0.516-1.476,1.063-2.132,1.694      c-0.652,0.632-1.271,1.306-1.791,2.055c-0.281,0.359-0.5,0.761-0.75,1.143c-0.2,0.389-0.462,0.826-0.604,1.172l-0.021,0.052      c-1.367,2.912-2.087,6.182-2.061,9.445c0.016,1.632,0.22,3.266,0.653,4.841c0.427,1.579,1.103,3.086,2.118,4.374      c2.04,2.582,5.01,4.367,8.143,5.449C281.259,176.173,284.677,176.568,287.98,176.044z"/>
			</g>
		</g>
		<g>
			<path style="fill:#A9312F;" d="M277.998,170.176c3.942,2.109,9.164,2.196,12.923-0.384c5.989-4.111,7.415-13.392,2.812-18.97     c-2.471-2.995-6.621-4.945-10.521-4.764c-10.423,0.484-14.693,14.575-8.11,21.884     C275.913,168.842,276.901,169.589,277.998,170.176z"/>
		</g>
		<g style="opacity:0.21;">
			<path style="fill:#A9312F;" d="M300.891,158.287c-15.193-15.287-30.408-8.536-32.29-7.61c0.044-0.121,0.098-0.238,0.151-0.355     c2.395-5.067,7.416-8.355,12.975-8.776c6.504-0.49,14.7,2.066,17.661,8.346C300.553,152.372,301.034,155.3,300.891,158.287z"/>
		</g>
	</g>
	<g>
		<path style="fill:#A9312F;" d="M320.561,165.338c0,0-2.574-4.541-4.664-4.165c-2.09,0.376,0.416,5.538,4.017,7.291    c0,0,6.888-2.037,5.892-5.071C324.811,160.36,320.561,165.338,320.561,165.338z"/>
	</g>
	<g>
		<path style="fill:#A9312F;" d="M386.77,159.137c-0.139,0.142-1.709,1.094-3.49,1.923c-0.006,0.007-0.019,0.007-0.025,0.014    c-0.996,0.465-2.431,0.744-3.992,0.731l-4.402-4.425l16.634-15.966c2.597-2.448,4.283-5.298,4.036-8.774    c0.546,0.243,1.288,0.771,1.901,1.681C397.43,134.322,404.726,145.808,386.77,159.137z"/>
	</g>
	<g>
		<path style="fill:#A9312F;" d="M274.127,134.903c-16.171-8.366-16.081-30.548-8.627-33.765c0.081-0.035,0.175-0.074,0.262-0.104    c-0.078,1.455,0.094,3.593,1.163,6.217c1.089,2.642,1.455,10.292,5.034,13.694l4.558,11.496    C275.781,133.525,274.921,134.367,274.127,134.903z"/>
	</g>
	<g>
		<path style="fill:#FFFFFF;" d="M381.935,154.572c0,0,0.123,4.32-2.672,7.233c-2.755-0.017-5.888-0.939-7.68-3.337    c-4.399-5.913,11.986-9.588,19.911-17.054c-0.888,2.715-2.765,6.497-6.656,9.12c0,0,4.044-0.139,4.351,0.764    c0.28,0.879-4.7,1.659-4.979,1.7c0.199,0.021,2.507,0.255,2.482,1.285C386.664,155.36,381.935,154.572,381.935,154.572z"/>
	</g>
	<g>
		<path style="fill:#FFFFFF;" d="M276.519,132.442c-10.655-2.715-7.306-12.658-7.306-12.658s-1.977,1.441-2.784,0.164    c-0.766-1.228,1.65-2.024,1.856-2.093c-0.117-0.032-2.541-0.624-2.923-1.51c-0.397-0.911,2.285-0.73,2.285-0.73    c-2.178-3.252-1.339-6.725-0.722-8.364c1.089,2.642,3.087,5.77,6.667,9.172C280.185,122.672,278.994,128.857,276.519,132.442z"/>
	</g>
	<g>
		<path style="fill:#A9312F;" d="M333.144,148.076c-1.443,1.168-3.513,1.739-5.211,0.985c-2.301-1.014-3.069-3.853-3.319-6.351    c-0.432-4.354-0.11-8.738-0.242-13.102c-0.095-3.037-0.416-6.119-1.347-9.019c-0.054-0.169-0.109-0.352-0.164-0.534    c6.697,1.875,12.249,4.065,18.181,7.064c-0.598,5.696-2.187,11.284-4.688,16.442C335.54,145.231,334.599,146.907,333.144,148.076z    "/>
	</g>
	<g>
		<path style="fill:#A9312F;" d="M348.194,140.45c-1.302,0.496-2.978,0.245-3.784-0.898c-0.813-1.149-0.505-2.714-0.238-4.096    c0.392-1.997,0.636-4.018,0.726-6.043c0.01-0.16,0.001-0.326-0.003-0.498c3.339,1.458,6.201,2.878,9.013,4.649    c-0.708,1.484-1.562,2.9-2.562,4.21C350.502,138.881,349.508,139.954,348.194,140.45z"/>
	</g>
	<g>
		<path style="fill:#A9312F;" d="M314.322,128.086c-0.939,0.807-2.424,1.115-3.423,0.392c-0.493-0.356-0.812-0.906-1.092-1.447    c-1.645-3.09-3.71-7.524-4.054-11.449c4.566,0.599,8.164,1.42,12.346,3.003c-0.486,2.156-1.113,4.282-1.891,6.346    C315.768,126.087,315.254,127.273,314.322,128.086z"/>
	</g>
	<g style="opacity:0.48;">
		<path style="fill:#A9312F;" d="M312.122,169.289c-2.497,0.27-5.086,1.629-6.923,4.091c-2.662,3.569-3.895,8.377-1.976,12.297    c1.192,2.433,3.199,3.97,5.3,5.04c4.026,2.052,8.17,3.752,12.791,3.023c1.676-0.264,3.38-0.816,4.906-1.948    c2.338-1.734,4.124-4.837,4.684-8.134c0.56-3.297-0.122-6.711-1.785-8.95c-2.046-2.754-5.593-4.084-8.611-4.515    C317.819,169.81,314.867,168.992,312.122,169.289z"/>
	</g>
	<g style="opacity:0.48;">
		<path style="fill:#E54949;" d="M343.966,195.703c-2.928,0.836-4.421,4.077-2.267,6.686c2.884,3.495,9.912,5.396,14.124,3.606    c3.556-1.511,3.362-6.504,0.646-8.298c-2.296-1.516-5.048-2.188-7.747-2.329C347.466,195.303,345.607,195.235,343.966,195.703z"/>
	</g>
	<g style="opacity:0.48;">
		<path style="fill:#E54949;" d="M268.172,171.128c-2.951-0.258-5.433,2.167-4.384,5.287c1.406,4.177,7.13,8.347,11.579,8.185    c3.756-0.137,5.315-4.741,3.47-7.315c-1.559-2.175-3.825-3.742-6.229-4.809C271.492,171.98,269.826,171.272,268.172,171.128z"/>
	</g>
	<g style="opacity:0.48;">
		<path style="fill:#A9312F;" d="M330.544,222.63c1.343,0.176,2.685,0.353,4.029,0.5c1.344,0.141,2.693,0.267,4.028,0.304    l0.588,0.016l-0.434,0.419c-0.54,0.522-1.058,1.174-1.23,1.856c-0.082,0.339-0.046,0.663,0.128,0.924    c0.088,0.158,0.163,0.204,0.25,0.226c0.091,0.017,0.233-0.01,0.381-0.079c0.609-0.304,1.171-0.913,1.688-1.487    c0.516-0.592,1.003-1.231,1.446-1.876l0.579-0.843l0.126,1.021c0.082,0.668,0.221,1.357,0.417,2    c0.197,0.625,0.476,1.301,0.883,1.606c0.106,0.075,0.097,0.042,0.091,0.055c0.006-0.01,0.098-0.07,0.158-0.2    c0.135-0.237,0.243-0.556,0.321-0.879c0.159-0.647,0.262-1.344,0.333-2.017l0.048-0.445l0.439,0.059    c2.055,0.274,4.179,0.337,6.26,0.191c2.079-0.174,4.155-0.561,6.026-1.441l0.896-0.421l-0.494,0.849    c-0.435,0.749-0.851,1.616-0.871,2.435c0.003,0.1,0.01,0.197,0.034,0.287c0.011,0.07,0.018,0.043,0.004,0.047    c0.003-0.007,0,0.006,0.037,0.011c0.123,0.033,0.364-0.012,0.565-0.067c0.422-0.115,0.848-0.287,1.268-0.465    c1.679-0.734,3.29-1.65,4.898-2.556c-1.52,1.053-3.084,2.04-4.738,2.9c-0.418,0.209-0.838,0.414-1.303,0.557    c-0.239,0.064-0.462,0.151-0.796,0.099c-0.082-0.01-0.182-0.057-0.273-0.134c-0.081-0.088-0.134-0.217-0.137-0.263    c-0.04-0.134-0.055-0.266-0.064-0.397c-0.001-1.043,0.41-1.913,0.853-2.766l0.401,0.428c-0.971,0.503-1.998,0.874-3.046,1.154    c-1.055,0.246-2.124,0.41-3.196,0.512c-2.151,0.175-4.292,0.142-6.448-0.118l0.486-0.386c-0.065,0.733-0.163,1.441-0.356,2.164    c-0.096,0.361-0.209,0.721-0.427,1.097c-0.106,0.179-0.258,0.399-0.571,0.541c-0.343,0.138-0.722-0.019-0.889-0.166    c-0.714-0.596-0.922-1.343-1.156-2.039c-0.206-0.712-0.339-1.417-0.42-2.153l0.704,0.178c-0.478,0.677-0.978,1.317-1.53,1.934    c-0.563,0.605-1.12,1.223-1.978,1.619c-0.219,0.088-0.489,0.163-0.797,0.094c-0.312-0.071-0.547-0.337-0.642-0.535    c-0.263-0.424-0.286-0.969-0.155-1.403c0.275-0.881,0.85-1.512,1.474-2.082l0.154,0.436c-1.371-0.077-2.712-0.29-4.05-0.517    C333.197,223.184,331.866,222.928,330.544,222.63z"/>
	</g>
	<g style="opacity:0.48;">
		<path style="fill:#A9312F;" d="M230.148,176.412c-0.352,0.863-0.655,1.745-0.907,2.636c-0.235,0.888-0.432,1.817-0.349,2.694    c0.039,0.443,0.2,0.825,0.518,1.041c0.306,0.228,0.722,0.205,1.116,0.064c0.794-0.294,1.516-0.917,2.119-1.55l0.777-0.815    l-0.228,1.111c-0.199,0.969-0.315,1.977-0.371,2.965c-0.034,0.984-0.011,1.998,0.296,2.877c0.134,0.453,0.388,0.813,0.694,1.096    c0.326,0.292,0.704,0.43,1.091,0.376c0.79-0.106,1.56-0.854,2.08-1.59l0.371-0.525l0.353,0.531    c1.039,1.561,2.258,3.059,3.544,4.461c1.29,1.408,2.7,2.698,4.156,3.931c1.455,1.239,3.037,2.322,4.688,3.287    c1.628,1.02,3.411,1.74,5.205,2.445c-1.853-0.519-3.691-1.168-5.408-2.075c-1.716-0.901-3.367-1.942-4.898-3.139    c-1.549-1.175-2.975-2.506-4.317-3.912c-1.335-1.419-2.579-2.9-3.697-4.531l0.724,0.006c-0.332,0.465-0.687,0.855-1.125,1.209    c-0.434,0.343-0.956,0.65-1.584,0.723c-0.632,0.085-1.288-0.19-1.706-0.586c-0.438-0.402-0.762-0.926-0.912-1.454    c-0.346-1.06-0.341-2.129-0.295-3.169c0.061-1.045,0.239-2.06,0.486-3.078l0.548,0.296c-0.705,0.674-1.454,1.29-2.428,1.617    c-0.471,0.155-1.102,0.178-1.554-0.184c-0.452-0.33-0.652-0.913-0.648-1.392c-0.024-0.99,0.248-1.905,0.544-2.793    C229.337,178.096,229.715,177.239,230.148,176.412z"/>
	</g>
	<g>
		<path style="fill:#A9312F;" d="M305.937,192.861c1.106-2.181,2.259-4.337,3.392-6.503l3.474-6.457l3.536-6.421    c1.19-2.134,2.349-4.286,3.564-6.406l0.569-0.992l0.214,1.113c0.445,2.31,0.804,4.617,1.119,6.939    c0.315,2.319,0.566,4.648,0.726,6.983c0.163,2.335,0.255,4.675,0.257,7.015c-0.033,2.34-0.143,4.68-0.427,6.999    c0.101-2.334,0.127-4.665,0.028-6.993c-0.102-2.327-0.249-4.651-0.491-6.967c-0.5-4.625-1.114-9.255-2.041-13.805l0.783,0.121    c-1.174,2.143-2.404,4.255-3.604,6.384l-3.631,6.369l-3.694,6.334C308.456,188.671,307.22,190.779,305.937,192.861z"/>
	</g>
	<g>
		<g>
			<path style="fill:#A9312F;" d="M352.218,199.489c2.513,1.419,4.872,3.05,7.193,4.733c2.305,1.704,4.572,3.461,6.683,5.43     c-2.515-1.418-4.873-3.049-7.193-4.733C356.596,203.214,354.33,201.457,352.218,199.489z"/>
		</g>
		<g>
			<path style="fill:#A9312F;" d="M370.15,203.761c-2.689-0.739-5.279-1.719-7.844-2.759c-2.555-1.064-5.086-2.19-7.516-3.559     c2.69,0.736,5.28,1.717,7.845,2.759C365.189,201.269,367.719,202.394,370.15,203.761z"/>
		</g>
		<g>
			<path style="fill:#A9312F;" d="M371.593,195.001c-2.74,0.52-5.497,0.777-8.259,0.971c-2.763,0.168-5.53,0.27-8.315,0.109     c2.74-0.521,5.497-0.779,8.258-0.971C366.041,194.944,368.808,194.841,371.593,195.001z"/>
		</g>
	</g>
	<g>
		<g>
			<path style="fill:#A9312F;" d="M266.495,176.851c-2.879-0.211-5.708-0.679-8.525-1.21c-2.812-0.557-5.612-1.179-8.361-2.059     c2.879,0.209,5.709,0.677,8.526,1.21C260.945,175.351,263.745,175.972,266.495,176.851z"/>
		</g>
		<g>
			<path style="fill:#A9312F;" d="M251.173,166.603c2.655,0.853,5.2,1.944,7.718,3.093c2.507,1.173,4.987,2.406,7.356,3.878     c-2.656-0.851-5.201-1.942-7.719-3.093C256.022,169.307,253.542,168.074,251.173,166.603z"/>
		</g>
		<g>
			<path style="fill:#A9312F;" d="M256.617,159.59c2.009,1.934,3.816,4.033,5.572,6.172c1.736,2.156,3.421,4.353,4.901,6.718     c-2.011-1.933-3.817-4.032-5.572-6.172C259.784,164.151,258.099,161.953,256.617,159.59z"/>
		</g>
	</g>
	<g>
		<path style="fill:#A9312F;" d="M351.039,149.862c-1.956,2.228,3.228,6.796,5.014,7.615c2.994,1.372,7.054-3.249,4.029-5.572    C358.742,150.875,352.465,148.25,351.039,149.862z"/>
	</g>
	<g>
		<path style="fill:#A9312F;" d="M294.431,134.006c0.879,2.831-5.716,4.892-7.68,4.913c-3.294,0.034-5.12-5.84-1.411-6.73    C286.983,131.794,293.785,131.952,294.431,134.006z"/>
	</g>
	<g style="opacity:0.48;">
		<g>
			<path style="fill:#A9312F;" d="M399.453,252.506c-2.868,6.77-7.408,13.202-14.051,16.946c-6.652,3.748-14.371,4.473-21.658,5.297     c-3.672,0.419-7.318,0.869-10.87,1.66c-1.775,0.397-3.519,0.896-5.216,1.513c-1.711,0.611-3.371,1.402-5.049,2.119     c-6.68,3.057-12.981,6.854-19.325,10.701c-3.21,1.863-6.427,3.777-9.991,5.189c-1.787,0.689-3.679,1.225-5.682,1.381     c-2.029,0.089-4.059-0.371-5.859-1.242c-3.605-1.804-6.176-5.16-7.378-8.89c-1.166-3.768-0.845-7.858,0.489-11.449     c1.318-3.625,3.583-6.765,6.11-9.533c2.522-2.778,5.387-5.227,8.443-7.373c6.158-4.208,13.061-7.385,20.339-8.826     c-7.152,1.907-13.876,5.252-19.728,9.67c-2.933,2.197-5.675,4.655-8.057,7.429c-2.378,2.745-4.434,5.786-5.564,9.174     c-1.131,3.363-1.314,7.024-0.281,10.353c1.094,3.293,3.397,6.207,6.48,7.71c1.54,0.721,3.208,1.081,4.889,0.999     c1.696-0.152,3.394-0.633,5.053-1.291c3.319-1.343,6.482-3.256,9.655-5.127c6.346-3.772,12.787-7.583,19.612-10.634     c1.731-0.722,3.426-1.511,5.209-2.132c1.788-0.632,3.615-1.136,5.456-1.532c3.682-0.812,7.413-1.173,11.104-1.488     c7.335-0.626,14.826-1.167,21.325-4.587c3.241-1.654,6.108-4.014,8.511-6.789C395.808,258.961,397.785,255.809,399.453,252.506z"/>
		</g>
	</g>
	<g style="opacity:0.48;">
		<g>
			<path style="fill:#A9312F;" d="M249.615,221.913c1.424,4.612,2.433,9.351,3.169,14.135c0.732,4.785,1.071,9.656,0.743,14.537     c-0.366,4.833-1.344,9.885-4.362,14.064c-1.56,2.066-3.634,3.601-5.795,4.842c-2.191,1.224-4.595,2.128-7.115,2.482     c-2.512,0.362-5.128,0.212-7.589-0.544c-2.475-0.736-4.701-2.148-6.557-3.926c-1.885-1.823-3.136-4.14-4.023-6.458     c-0.894-2.331-1.505-4.694-2.171-6.989c-2.576-9.053-8.493-17.061-13.153-25.327l-0.032-0.05     c-3.161-5.495-6.066-11.215-7.987-17.298c-0.946-3.043-1.641-6.17-1.97-9.335c-0.364-3.166-0.219-6.358,0.191-9.49     c-0.185,3.156-0.134,6.315,0.362,9.419c0.481,3.103,1.316,6.137,2.393,9.076c2.096,5.915,5.101,11.453,8.403,16.798l-0.032-0.049     c2.642,4.174,5.174,8.16,7.659,12.36c1.221,2.099,2.383,4.242,3.447,6.439c1.094,2.157,1.992,4.568,2.664,6.881     c1.379,4.607,2.546,9.358,5.711,12.546c3.174,3.244,7.893,4.695,12.412,4.034c2.264-0.293,4.463-1.092,6.483-2.194     c2.017-1.129,3.903-2.522,5.286-4.296c2.808-3.625,3.955-8.409,4.439-13.096C253.006,240.974,251.712,231.298,249.615,221.913z"/>
		</g>
	</g>
	<g>
		<path style="fill:#A9312F;" d="M226.641,269.501c1.722-3.069,2.71-6.187,3.398-9.427c0.35-1.617,0.562-3.266,0.77-4.94    c0.197-1.679,0.302-3.377,0.55-5.147c0.63,1.66,0.997,3.408,1.109,5.182c0.128,1.776-0.005,3.573-0.349,5.338    c-0.398,1.752-0.981,3.479-1.892,5.042C229.33,267.099,228.175,268.562,226.641,269.501z"/>
	</g>
	<g>
		<path style="fill:#A9312F;" d="M241.32,269.48c-0.029-2.965,0.27-5.727,0.513-8.517l0.44-4.172    c0.17-1.401,0.287-2.802,0.572-4.276c1.179,2.744,1.367,5.761,1.102,8.656c-0.164,1.451-0.411,2.892-0.842,4.289    C242.684,266.855,242.14,268.227,241.32,269.48z"/>
	</g>
	<g>
		<path style="fill:#A9312F;" d="M305.753,296.276c-0.428-2.075-0.287-4.248,0.175-6.329c0.449-2.093,1.279-4.113,2.41-5.95    c1.159-1.812,2.534-3.514,4.235-4.826c1.631-1.386,3.549-2.385,5.526-3.08c-1.534,1.463-3.069,2.77-4.386,4.286    c-1.363,1.458-2.533,3.059-3.565,4.732C308.053,288.455,306.674,292.198,305.753,296.276z"/>
	</g>
	<g>
		<path style="fill:#A9312F;" d="M295.476,287.548c-0.241-1.592,0-3.219,0.474-4.751c0.466-1.544,1.218-3.003,2.173-4.314    c0.984-1.285,2.11-2.482,3.464-3.367c1.305-0.941,2.803-1.586,4.349-1.951c-1.13,1.148-2.267,2.12-3.276,3.217    c-1.035,1.058-1.966,2.184-2.823,3.357c-0.891,1.152-1.636,2.409-2.364,3.698C296.761,284.738,296.107,286.085,295.476,287.548z"/>
	</g>
	<g style="opacity:0.48;">
		<g>
			<path style="fill:#A9312F;" d="M384.128,160.572c2.58,4.375,4.651,9.055,6.189,13.94c0.78,2.436,1.414,4.93,1.79,7.475     c0.261,2.559,0.66,5.115,0.761,7.69c0.065,5.17-0.754,10.391-2.712,15.192c-1.944,4.767-4.868,9.251-8.98,12.295     c1.758-1.827,3.221-3.882,4.435-6.06c1.244-2.159,2.251-4.441,3.009-6.796c1.514-4.708,2.231-9.658,2.124-14.596     c-0.058-2.479-0.442-4.937-0.62-7.415c-0.241-2.474-0.841-4.907-1.375-7.349c-0.569-2.437-1.293-4.841-2.093-7.228     C385.915,165.31,385.005,162.955,384.128,160.572z"/>
		</g>
	</g>
	<g style="opacity:0.48;">
		<g>
			<path style="fill:#A9312F;" d="M221.705,165.282c-0.373-2.668-0.221-5.41,0.248-8.1c0.522-2.685,1.492-5.276,2.713-7.732     c2.461-4.935,6.159-9.107,10.186-12.754c2.048-1.798,4.191-3.472,6.424-5.02c2.308-1.428,4.556-2.944,6.95-4.2l7.261-3.576     c2.454-1.106,4.998-2.015,7.504-2.954c-2.316,1.382-4.764,2.474-7.043,3.888l-6.897,4.053c-2.233,1.441-4.431,2.938-6.613,4.432     c-2.138,1.556-4.216,3.2-6.174,4.964c-3.934,3.496-7.501,7.439-10.169,11.946C223.409,154.726,221.863,159.904,221.705,165.282z"/>
		</g>
	</g>
	<g style="opacity:0.4;">
		<path style="fill:#AC312F;" d="M322.793,401.38c0,0-0.02,34.458-17.472,63.294c-13.286-3.579-22.042-8.898-22.042-8.898    S312.136,430.398,322.793,401.38z"/>
	</g>
	<g style="opacity:0.4;">
		<path style="fill:#AC312F;" d="M139.605,391.229c-0.263-1.678-0.303-2.609-0.303-2.609c-4.975-2.629-9.322-5.44-13.104-8.433    c8.918-30.656,25.641-53.527,26.349-54.477C138.998,365.123,139.605,391.229,139.605,391.229z"/>
	</g>
	<g>
		<path style="fill:#FFFFFF;" d="M151.707,384.412c0.621,1.14,2.16,2.187,3.311,2.75c1.356,0.663,2.93,0.894,4.413,0.595    c7.705-1.556,7.559-14.328-0.434-15.189C153.615,371.988,149.196,379.801,151.707,384.412z"/>
	</g>
	<g>
		<path style="fill:#FFFFFF;" d="M163.321,396.32c-0.059,0.887,0.444,1.72,1.051,2.369c0.928,0.992,2.188,1.724,3.544,1.806    c1.356,0.083,2.786-0.567,3.437-1.76c1.151-2.107,0.546-5.359-2.196-5.662C167.183,392.856,163.48,393.933,163.321,396.32z"/>
	</g>
	<g>
		<path style="fill:#A9312F;" d="M223.384,233.532c-1.911,0.888-4.015,1.216-6.061,1.699c-2.914,0.695-5.385,1.795-7.759,3.069    c-1.892-3.165-3.86-6.292-5.771-9.438c-0.116-0.193-0.232-0.405-0.367-0.598c6.157-2.914,13.318-3.764,20.054-2.895    c0.83,0.096,1.66,0.231,2.393,0.618C229.715,228.031,225.855,232.393,223.384,233.532z"/>
	</g>
	<g>
		<path style="fill:#A9312F;" d="M223.326,201.395c-0.444,0.984-1.39,1.66-2.374,2.162c-2.644,1.313-5.655,1.583-8.551,2.123    c-3.899,0.714-7.682,1.969-11.234,3.687c-1.833,0.888-3.609,1.892-5.289,3.011c-0.058,0.038-0.116,0.077-0.193,0.135    c-1.988-5.443-3.165-11.118-2.934-16.966c2.336-0.849,4.806-1.37,7.257-1.699c6.061-0.83,12.334-0.637,18.201,1.177    c1.467,0.444,2.972,1.023,4.053,2.123C223.365,198.249,223.944,199.967,223.326,201.395z"/>
	</g>
	<g>
		<path style="fill:#A9312F;" d="M359.132,274.432c-4.15,0.521-8.281,1.274-12.334,2.799c0.019-1.371-0.154-2.76-0.579-4.092    c-0.502-1.525-1.293-2.953-1.698-4.497c-0.405-1.544-0.347-3.358,0.714-4.555c1.1-1.274,3.069-1.525,4.651-0.984    c1.602,0.54,2.895,1.698,4.034,2.953c2.181,2.413,3.918,5.192,5.154,8.203C359.093,274.316,359.113,274.374,359.132,274.432z"/>
	</g>
	<g>
		<path style="fill:#A9312F;" d="M388.49,266.866c-3.725,2.779-7.759,4.324-11.967,5.289c-0.637-1.177-1.544-2.278-2.2-3.262    c-2.915-4.343-6.485-8.164-8.416-13.144c-0.598-1.544-0.984-3.436,0.038-4.748c0.965-1.216,2.779-1.351,4.324-1.042    c2.278,0.463,4.324,1.679,6.254,2.972c3.146,2.104,6.176,4.671,8.492,7.663C386.27,262.195,387.718,264.492,388.49,266.866z"/>
	</g>
	<g>
		<path style="fill:#A9312F;" d="M421.024,279.547c-0.907,0.483-1.814,0.926-2.741,1.351c-4.343,1.949-9.265,3.359-13.82,1.969    c-2.027-0.598-4.053-2.027-4.362-4.111c-0.328-2.335,1.564-4.343,3.359-5.848c5.482-4.555,11.639-8.396,16.233-13.859    C420.619,265.727,421.062,272.656,421.024,279.547z"/>
	</g>
	<g>
		<path style="fill:#A9312F;" d="M419.893,295.374c-0.675,5.868-1.679,11.484-3.069,16.677c-2.393,0.869-4.922,1.37-7.45,1.698    c-1.795,0.232-3.687,0.367-5.405-0.232c-1.718-0.598-3.262-2.065-3.397-3.88c-0.154-1.853,1.158-3.551,2.722-4.536    c1.563-0.984,3.416-1.428,5.154-2.065c4.015-1.467,7.508-3.976,10.635-6.852C419.333,295.953,419.604,295.683,419.893,295.374z"/>
	</g>
	<g>
		<path style="fill:#A9312F;" d="M164.071,209.172c-2.123,1.332-4.96,0.965-7.2-0.135c-3.532-1.737-6.08-5.115-7.47-8.782    c-0.888-2.355-1.332-4.825-1.544-7.335c3.03-3.706,6.369-7.489,10.037-11.33c2.779-2.895,5.598-5.597,8.435-8.107    c-0.965,8.396,0.212,17.063,0.83,25.555C167.429,202.744,167.236,207.203,164.071,209.172z"/>
	</g>
	<g>
		<path style="fill:#A9312F;" d="M142.086,229.327c-0.386,1.351-1.37,2.586-2.741,2.914c-1.853,0.425-3.648-0.965-4.922-2.393    c-2.007-2.258-3.571-4.903-4.632-7.721c2.2-5.462,5.231-11.233,9.149-17.236c-0.097,1.621-0.27,3.281-0.097,4.517    c0.714,5.327,2.49,10.461,3.281,15.769C142.318,226.548,142.453,227.976,142.086,229.327z"/>
	</g>
	<g>
		<path style="fill:#A9312F;" d="M249.094,146.424c-0.541,1.428-2.181,2.123-3.706,2.22c-4.015,0.29-7.624-2.335-10.712-4.903    c-0.753-0.618-1.891-1.447-3.05-2.413c3.204-3.455,6.891-6.485,10.597-9.091c0.753,1.1,1.216,2.374,1.776,3.59    c0.849,1.892,1.911,3.687,3.165,5.347C248.341,142.738,249.769,144.61,249.094,146.424z"/>
	</g>
	<g>
		<path style="fill:#A9312F;" d="M259.247,131.33c-0.039,0.926-0.27,1.892-0.927,2.548c-0.502,0.502-1.216,0.753-1.93,0.811    c-1.911,0.116-3.59-1.216-4.98-2.548c-0.869-0.849-2.316-2.123-3.494-3.571c3.108-1.853,6.022-3.378,8.454-4.555    c0.598,0.656,1.1,1.37,1.486,2.065C258.745,127.682,259.324,129.497,259.247,131.33z"/>
	</g>
	<g>
		<path style="fill:#A9312F;" d="M391.076,198.423c-4.304-0.251-8.609-1.197-12.295-3.359c-2.49-1.467-3.069-4.227-0.598-6.041    c2.239-1.641,5.443-1.564,8.126-1.197c0.251,0.039,0.521,0.077,0.772,0.116c1.602,0.27,3.146,0.425,4.69,0.541    C391.925,192.169,391.636,195.469,391.076,198.423z"/>
	</g>
	<g>
		<path style="fill:#A9312F;" d="M391.037,181.398c-1.814,0.097-3.648,0.155-5.462,0.251c-1.197,0.058-2.432,0.097-3.571-0.251    c-1.158-0.367-2.22-1.216-2.509-2.374c-0.29-1.158,0.27-2.413,1.139-3.223c1.718-1.564,5.231-2.548,8.338-2.992    C389.899,175.84,390.574,178.696,391.037,181.398z"/>
	</g>
</g>















</svg>
