<?xml version="1.0" encoding="UTF-8"?>
<!-- Generator: Adobe Illustrator 25.2.3, SVG Export Plug-In . SVG Version: 6.00 Build 0)  -->
<svg xmlns="http://www.w3.org/2000/svg" xmlns:xlink="http://www.w3.org/1999/xlink" version="1.1" id="Capa_1" x="0px" y="0px" viewBox="0 0 512 512" style="enable-background:new 0 0 512 512;" xml:space="preserve" width="512" height="512">
<g>
	<g>
		<path style="fill:#97ECE2;" d="M25.264,248.665c0.222,1.78-11.198,5.612-17.897,7.688c-1.557-6.081-2.868-12.261-3.906-18.54    C7.49,239.42,24.992,246.44,25.264,248.665z"/>
	</g>
	<g>
		<g>
			<path style="fill:#FB5555;" d="M330.495,453.731c28.532-8.192,46.234-19.574,46.234-32.164     c0-24.948-69.446-45.172-155.112-45.172S66.506,396.619,66.506,421.567c0,24.948,69.446,45.172,155.112,45.172     c6.025,0,11.958-0.111,17.803-0.305c-3.834,2.647-5.956,5.556-5.956,8.609c0,12.241,34.077,22.165,76.112,22.165     s76.112-9.924,76.112-22.165C385.69,464.914,362.355,456.379,330.495,453.731z"/>
		</g>
		<g>
			<path style="fill:#FB5555;" d="M385.69,447.121c-7.799,0-14.122,1.841-14.122,4.112c0,2.271,6.322,4.113,14.122,4.113     c7.799,0,14.122-1.841,14.122-4.113C399.812,448.962,393.489,447.121,385.69,447.121z"/>
		</g>
	</g>
	<g>
		<path style="fill:#FF983D;" d="M82.46,166.554c-1.272,2.171-10.272,46.536-10.272,46.536l40.668,8.139l20.571-15.639    l-4.161-43.046L82.46,166.554z"/>
	</g>
	<g>
		<g>
			<path style="fill:#FF983D;" d="M505.511,399.636c-7.843,14.921-23.019,28.852-46.859,27.181     c-9.486-0.68-17.498-3.511-24.123-7.956c-8.41-5.521-14.61-13.619-18.829-22.934c-8.664-19.027-9.06-43.292-3.171-62.007     c11.043-35.109,51.984-101.363,51.984-101.363s7.135,44.169-7.135,76.023c-2.039,4.502-4.162,9.202-6.286,13.958     c-5.323,11.977-10.448,24.435-13.024,35.732c0,0,0,0,0,0.028c-3.624,15.941-2.209,29.503,10.844,36.043     c3.822,1.925,7.22,3.115,10.278,3.738h0.028c15.658,3.086,21.66-9.344,25.879-19.168c0.538-1.189,1.019-2.35,1.501-3.426     c4.105-9.202,10.164-13.987,16.988-11.779h0.028c1.869,0.566,3.794,1.671,5.719,3.341     C513.75,370.812,512.816,385.649,505.511,399.636z"/>
		</g>
		<g style="opacity:0.2;">
			<path style="fill:#A9312F;" d="M505.511,399.636c-7.843,14.921-23.019,28.852-46.859,27.181     c-9.486-0.68-17.498-3.511-24.123-7.956c-8.41-5.521-14.61-13.619-18.829-22.934c-8.664-19.027-9.06-43.292-3.171-62.007     c11.043-35.109,51.984-101.363,51.984-101.363s7.135,44.169-7.135,76.023c-2.039,4.502-4.162,9.202-6.286,13.958     c-5.323,11.977-10.448,24.435-13.024,35.732c0,0,0,0,0,0.028c-3.624,15.941-2.209,29.503,10.844,36.043     c3.822,1.925,7.22,3.115,10.278,3.738h0.028c15.658,3.086,21.66-9.344,25.879-19.168c0.538-1.189,1.019-2.35,1.501-3.426     c4.105-9.202,10.164-13.987,16.988-11.779h0.028c1.869,0.566,3.794,1.671,5.719,3.341     C513.75,370.812,512.816,385.649,505.511,399.636z"/>
		</g>
		<g>
			<path style="fill:#A9312F;" d="M505.511,399.636c-13.336-18.687-7.05-30.466-1.925-35.93h0.028     c1.869,0.566,3.794,1.671,5.719,3.341C513.75,370.812,512.816,385.649,505.511,399.636z"/>
		</g>
		<g>
			<path style="fill:#A9312F;" d="M476.093,407.79c-9.768-0.227-14.554-5.295-16.875-9.712c15.658,3.086,21.66-9.344,25.879-19.168     C486.994,389.67,488.438,408.045,476.093,407.79z"/>
		</g>
		<g>
			<path style="fill:#A9312F;" d="M434.529,418.861c-8.41-5.521-14.61-13.619-18.829-22.934     C432.66,395.87,434.613,411.103,434.529,418.861z"/>
		</g>
		<g>
			<path style="fill:#A9312F;" d="M451.092,322.537c-5.323,11.977-10.448,24.435-13.024,35.732     c-3.171-5.861-7.164-16.195-3.539-26.87C437.898,321.405,445.627,321.207,451.092,322.537z"/>
		</g>
	</g>
	<g>
		<path style="fill:#67DCBC;" d="M486.539,196.803c0,15.722-1.483,31.098-4.375,46.004c-3.411,18.021-8.85,35.325-16.068,51.69    c-4.326,9.888-9.319,19.455-14.881,28.601c-4.079,6.674-8.43,13.126-13.101,19.331c-6.996,9.369-14.634,18.194-22.891,26.426    c-8.825,8.8-18.293,16.958-28.379,24.3c-7.787,5.735-15.919,10.976-24.374,15.722c-6.18,3.51-12.533,6.724-19.035,9.666    c-6.724,3.041-13.621,5.809-20.666,8.232c-10.728,3.708-21.803,6.699-33.174,8.874c-14.091,2.744-28.601,4.227-43.433,4.4    c-0.964,0.025-1.928,0.025-2.892,0.025c-3.288,0-6.551-0.074-9.789-0.223c-15.524-0.593-30.677-2.645-45.336-6.056    c-13.052-3.016-25.709-7.094-37.871-12.162c-10.086-4.153-19.826-8.973-29.17-14.412c-6.081-3.56-12.014-7.342-17.749-11.396    c-16.562-11.668-31.592-25.338-44.743-40.664c-5.834-6.798-11.297-13.893-16.365-21.309c-5.785-8.479-11.05-17.329-15.747-26.5    c0,0-0.025-0.05-0.074-0.124c-6.254-12.31-11.52-25.19-15.648-38.588c-1.236-4.054-2.398-8.133-3.411-12.286    c-1.557-6.081-2.868-12.261-3.906-18.54C1.187,224.489,0,210.77,0,196.803H486.539z"/>
	</g>
	<g>
		<path style="fill:#97ECE2;" d="M246.162,440.047c-0.964,0.025-1.928,0.025-2.892,0.025c-3.288,0-6.551-0.074-9.789-0.223    c1.805-9.121,5.76-27.488,8.207-28.205C244.184,410.903,245.618,430.604,246.162,440.047z"/>
	</g>
	<g>
		<path style="fill:#97ECE2;" d="M188.144,433.793c-13.052-3.016-25.709-7.094-37.871-12.162l28.008-43.458    c0,0,14.56,4.153,15.055,5.933C193.681,385.441,190.072,417.28,188.144,433.793z"/>
	</g>
	<g>
		<path style="fill:#97ECE2;" d="M121.103,407.219c-6.081-3.56-12.014-7.342-17.749-11.396c7.589-5.735,21.086-15.129,24.646-12.063    C131.164,386.479,125.652,398.592,121.103,407.219z"/>
	</g>
	<g>
		<path style="fill:#97ECE2;" d="M88.003,330.142c0,0-17.971,15.351-29.392,25.017c-5.834-6.798-11.297-13.893-16.365-21.309    l36.042-11.297L88.003,330.142z"/>
	</g>
	<g>
		<path style="fill:#97ECE2;" d="M61.454,284.633c0,0.371-34.954,22.718-34.954,22.718s-0.025-0.05-0.074-0.124    c-6.254-12.31-11.52-25.19-15.648-38.588c17.477,1.681,44.817,4.623,44.817,4.623S61.355,284.336,61.454,284.633z"/>
	</g>
	<g>
		<path style="fill:#97ECE2;" d="M322.769,426.773c-10.728,3.708-21.803,6.699-33.174,8.874l4.82-37.129l18.318-10.432    L322.769,426.773z"/>
	</g>
	<g>
		<path style="fill:#97ECE2;" d="M362.469,408.875c-6.18,3.51-12.533,6.724-19.035,9.666c0.816-10.951,2.818-27.513,6.477-30.455    C353.372,385.293,358.959,398.864,362.469,408.875z"/>
	</g>
	<g>
		<path style="fill:#97ECE2;" d="M415.222,368.854c-8.825,8.8-18.293,16.958-28.379,24.3l-12.805-37.846l11.643-7.564    L415.222,368.854z"/>
	</g>
	<g>
		<path style="fill:#97ECE2;" d="M451.214,323.097c-4.079,6.674-8.43,13.126-13.101,19.331c-2.818-6.847-9.913-24.695-7.886-27.217    C432.254,312.69,445.924,320.106,451.214,323.097z"/>
	</g>
	<g>
		<path style="fill:#97ECE2;" d="M482.164,242.807c-3.411,18.021-8.85,35.325-16.068,51.69    c-7.268-10.234-21.506-29.862-21.531-29.862c0.222,0,8.726-19.578,8.726-19.578L482.164,242.807z"/>
	</g>
	<g>
		<g>
			<path style="fill:#FB5555;" d="M458.274,196.794c-4.049,115.265-98.758,207.483-215.014,207.483S32.294,312.059,28.245,196.794"/>
		</g>
		<g>
			<path style="fill:#FFFFFF;" d="M243.261,404.631c-56.224,0-109.435-21.527-149.832-60.616     c-40.297-38.994-63.572-91.273-65.536-147.208l0.708-0.025c4.078,116.154,98.369,207.141,214.661,207.141     c116.29,0,210.581-90.987,214.66-207.141l0.708,0.025c-1.966,55.935-25.24,108.214-65.538,147.208     C352.696,383.104,299.484,404.631,243.261,404.631z"/>
		</g>
	</g>
	<g>
		<path style="fill:#FFFFFF;" d="M243.261,406.999c-56.841,0-110.638-21.764-151.478-61.284    c-40.74-39.421-64.272-92.277-66.256-148.825l5.44-0.191C35,311.572,128.249,401.554,243.261,401.554    c115.009,0,208.258-89.982,212.294-204.855l5.44,0.191c-1.986,56.551-25.516,109.404-66.256,148.825    C353.898,385.234,300.102,406.999,243.261,406.999z"/>
	</g>
	<g>
		<path style="fill:#FF983D;" d="M466.287,150.699c0,0.028,0,0.028,0,0.057c0,0-0.028-0.085-0.085-0.255    C466.231,150.558,466.259,150.643,466.287,150.699z"/>
	</g>
	<g>
		<g>
			<g>
				<path style="fill:#FF983D;" d="M54.465,163.158c0,0-27.679,14.38-31.354,35.807c-3.675,21.427,16.776,27.96,28.397,26.735      c11.621-1.225,45.404-41.894,45.404-41.894L54.465,163.158z"/>
			</g>
			<g style="opacity:0.2;">
				<path style="fill:#A9312F;" d="M54.465,162.976c0,0-27.679,14.381-31.354,35.807c-3.675,21.427,16.776,27.96,28.397,26.735      s45.404-41.893,45.404-41.893L54.465,162.976z"/>
			</g>
		</g>
		<g>
			<path style="fill:#A9312F;" d="M40.207,224.488c-0.799-2.415-0.814-5.041-0.441-7.562c0.366-2.539,1.214-5,2.359-7.299     c1.246-2.241,2.679-4.394,4.513-6.168c1.763-1.83,3.833-3.331,6.061-4.494c-1.509,2.038-3.068,3.883-4.434,5.86     c-1.407,1.94-2.614,3.975-3.722,6.049c-1.094,2.085-1.967,4.271-2.714,6.525C41.11,219.665,40.538,221.996,40.207,224.488z"/>
		</g>
		<g>
			<path style="fill:#A9312F;" d="M25.274,214.135c-0.018-2.088,0.403-4.118,1.007-6.081c0.597-1.971,1.462-3.854,2.485-5.659     c1.089-1.767,2.356-3.448,3.885-4.884c1.547-1.414,3.355-2.587,5.345-3.194c-1.383,1.57-2.608,3.049-3.757,4.605     c-1.093,1.598-2.155,3.19-3.131,4.859C29.125,207.115,27.383,210.582,25.274,214.135z"/>
		</g>
	</g>
	<g>
		<g>
			<path style="fill:#FF983D;" d="M458.36,139.742c-0.68-4.36-1.586-8.636-2.775-12.77c-1.019-3.568-2.265-6.994-3.737-10.278     c-0.028-0.028-0.028-0.085-0.057-0.113c-1.048-2.01-2.124-3.992-3.256-5.946c-2.265-3.992-4.643-7.928-7.192-11.779     c-1.359-2.067-2.775-4.105-4.247-6.144c-6.059-8.551-12.883-16.705-20.499-24.293c-7.107-7.05-14.865-13.619-23.387-19.621     c-9.853-6.937-20.669-13.081-32.561-18.291c-6.994-3.058-14.355-5.804-22.113-8.183c-0.425-0.142-0.821-0.255-1.246-0.368     c-8.324-2.492-16.507-4.247-24.491-5.351c-9.74-1.387-19.168-1.84-28.257-1.557c-9.598,0.283-18.8,1.359-27.492,3.001     c-9.853,1.84-19.055,4.388-27.464,7.305c-20.019,6.914-38.927,16.94-56.938,28c-1.525,0.937-3.029,1.906-4.534,2.875     c-0.322,0.208-1.184,0.738-1.184,0.738s-1.011-0.343-1.562-0.554c-19.273-7.39-42.237-12.112-62.699-7.372     c-3.746-11.319-9.13-19.863-15.177-20.798c-0.115-0.022-0.24-0.039-0.352-0.047c-5.458-0.581-17.883,19.377-14.306,38.985     c0.135,0.741-4.059,4.686-4.715,5.525c-1.67,2.135-3.25,4.339-4.719,6.617c-2.935,4.55-5.447,9.372-7.507,14.379     c-4.575,11.12-6.355,22.67-6.917,34.607c-0.449,9.523-0.392,19.706,2.634,28.845c0.401,1.21,0.862,2.4,1.416,3.548     c4.995,10.344,15.887,21.462,38.799,28.68c0.58,0.194,1.192,0.387,1.805,0.58c0.032,0,0.032,0,0.033-0.004     c3.127,1.675,6.292,3.201,9.493,4.579c8.493,3.688,17.172,6.407,25.591,8.344c3.539,0.857,7.04,1.565,10.43,2.123     c8.903,1.564,17.284,2.309,24.399,2.682c1.954,0.102,3.805,0.169,5.562,0.211l37.117,16.871l93.69-10.08l119.654-12.854     l37.119-3.992c0.057-0.311,0.114-0.651,0.142-0.963c1.557-9.57,2.831-21.122,2.973-33.099     C459.945,155.796,459.549,147.641,458.36,139.742z"/>
		</g>
		<g>
			<g>
				<path style="fill:#A9312F;" d="M224.279,127.674L224.279,127.674l-8.324-9.913l12.05-3.821l6.016-21.865      c3.767-11.219,5.046-22.342,7.166-22.533c0.753-0.076,1.437,0.343,2.068,1.105C249.315,83.295,244.9,132.589,224.279,127.674z"/>
			</g>
			<g>
				<path style="fill:#FFFFFF;" d="M231.672,112.856c0,0,2.471,3.981,1.717,4.685c-0.753,0.705-3.223-2.457-3.223-2.457      s-0.456,8.933-5.887,12.59c-0.158-0.019-0.333-0.076-0.491-0.114c0,0-10.547-4.038-17.153-11.961      c1.121-0.114,2.418-0.172,3.872-0.172c13,0,19.605-11.733,23.512-23.352c1.139,3.352,3.855,13.295-1.91,18.323      c0,0,5.029,0.476,5.308,1.524C237.699,112.97,231.672,112.856,231.672,112.856z"/>
			</g>
		</g>
		<g>
			<g>
				<path style="fill:#A9312F;" d="M77.075,78.716c-13.08-22.357,3.515-51.225,10.061-50.521c0.111,0.008,0.237,0.025,0.352,0.047      c-0.932,1.862-1.985,4.799-2.325,9.004l-2.704,20.31L81.161,77.15C79.712,78.06,78.269,78.565,77.075,78.716z"/>
			</g>
			<g>
				<path style="fill:#FFFFFF;" d="M81.161,77.15c-10.246-11.046-0.747-21.793-0.747-21.793s-3.032,0.512-3.185-1.737      c-0.136-2.155,3.007-1.508,3.277-1.454c-0.111-0.124-2.457-2.602-2.366-4.038c0.09-1.477,2.96,0.641,2.96,0.641      c-0.526-5.81,2.425-9.796,4.063-11.523c-0.328,4.243,0.071,9.764,2.065,16.755C90.91,66.853,85.993,74.163,81.161,77.15z"/>
			</g>
		</g>
		<g>
			<path style="fill:#A9312F;" d="M239.151,153.445c-0.228,0.933-0.476,1.886-0.743,2.819c-1.181,4.266-2.724,8.495-4.61,12.666     c-0.152,0.324-0.305,0.666-0.476,1.028c-0.038,0.077-0.057,0.134-0.095,0.21c-0.858-0.343-1.734-0.724-2.572-1.104     c-4.286-1.943-9.009-4.439-11.257-8.8c-0.762-1.466-1.181-3.086-1.009-4.533c0.305-3.048,3.048-4.781,5.962-4.99     c2.933-0.228,6.057,0.743,9.123,1.543C235.342,152.797,237.247,153.217,239.151,153.445z"/>
		</g>
		<g>
			<path style="fill:#A9312F;" d="M241.38,136.379c-0.038,2.133-0.153,4.229-0.362,6.381c-0.057,0.552-0.133,1.085-0.191,1.619     c-0.076,0.552-0.171,1.142-0.248,1.733c-0.038,0.21-0.057,0.42-0.095,0.629c-3.867-2.172-8.323-5.219-7.981-8.895     c0.076-1.085,0.743-1.905,1.696-2.495c1.943-1.2,4.476-1.257,7.161-1.085C241.38,134.97,241.38,135.675,241.38,136.379z"/>
		</g>
		<g>
			<path style="fill:#A9312F;" d="M120.778,167.285c0,0-2.603-6.054-5.265-5.893c-2.663,0.161-0.228,6.982,4.035,9.704     c0,0,8.883-1.53,8.049-5.466C126.761,161.692,120.778,167.285,120.778,167.285z"/>
		</g>
		<g style="opacity:0.48;">
			<path style="fill:#A9312F;" d="M140.144,190.401c-1.341,4.731-4.47,8.977-8.158,11.138c-1.043,0.633-2.123,1.08-3.241,1.341     c-8.419-1.937-17.098-4.656-25.591-8.344c-1.714-1.564-3.166-3.538-4.06-5.997c-2.198-6.109,0.372-12.963,4.88-17.731     c3.091-3.315,7.115-4.88,10.84-4.842c3.39,0.037,6.891,1.229,10.206,2.235c0.149,0.037,0.335,0.074,0.522,0.149c0,0,0,0,0.037,0     c0.484,0.149,0.931,0.298,1.415,0.41c4.395,1.155,9.387,3.725,11.957,8.158C141.038,180.493,141.523,185.633,140.144,190.401z"/>
		</g>
		<g style="opacity:0.48;">
			<path style="fill:#E54949;" d="M186.083,207.492c-0.129,0.032-0.29,0.032-0.451,0.032c-2.739,0.226-10.924,0.709-22.042,0.161     c-7.122-0.355-15.5-1.128-24.426-2.675c1.096-3.577,4.125-6.542,8.25-7.766c4.447-1.321,9.571-1.225,12.954-1.063     c7.379,0.29,14.952,2.03,21.301,6.09C183.634,203.528,185.116,205.365,186.083,207.492z"/>
		</g>
		<g>
			<path style="fill:#A9312F;" d="M50.29,114.733c0,0,5.18,1.943,7.866,2.629c2.324,0.609,4.8,1.085,7.124,0.476     c2.323-0.628,4.419-2.666,4.305-5.085c-0.077-2.152-1.771-3.867-3.448-5.238c-3.867-3.276-8.343-5.954-11.886-9.611     C54.252,97.903,50.307,113.734,50.29,114.733z"/>
		</g>
		<g>
			<path style="fill:#A9312F;" d="M48.771,134.888c2.513-0.548,6.285-1.675,8.218-3.286c1.805-1.45,3.255-3.609,2.675-5.768     c-0.451-1.611-1.934-2.836-3.577-3.545c-1.643-0.709-3.448-0.967-5.22-1.321c-0.451-0.096-0.926-0.188-1.345-0.285     C49.521,120.683,48.576,126.766,48.771,134.888z"/>
		</g>
		<g>
			<path style="fill:#A9312F;" d="M64.841,91.744c-0.705,0.971-2.095,1.295-3.276,1.009c-1.181-0.305-2.171-1.085-3.067-1.943     c-0.381-0.381-0.743-0.781-1.085-1.181c0.191-0.419,0.381-0.819,0.59-1.257c1.619-3.314,3.428-6.514,5.41-9.542     c0.019-0.038,0.057-0.076,0.076-0.114c0.21,3.028,0.705,6.019,1.429,8.952C65.28,89.02,65.622,90.582,64.841,91.744z"/>
		</g>
		<g>
			<g>
				<path style="fill:#A9312F;" d="M172.057,198.435c3.166,2.522,6.084,5.291,8.94,8.122c2.833,2.856,5.602,5.773,8.122,8.942      c-3.168-2.52-6.086-5.29-8.941-8.122C177.348,204.519,174.578,201.601,172.057,198.435z"/>
			</g>
			<g>
				<path style="fill:#A9312F;" d="M196.039,209.933c-3.559-1.618-6.937-3.536-10.271-5.529c-3.315-2.022-6.585-4.12-9.672-6.521      c3.561,1.616,6.939,3.535,10.271,5.529C189.681,205.436,192.951,207.534,196.039,209.933z"/>
			</g>
			<g>
				<path style="fill:#A9312F;" d="M200.109,196.582c-3.908,0.111-7.786-0.126-11.656-0.449c-3.867-0.359-7.726-0.805-11.554-1.604      c3.908-0.115,7.786,0.123,11.656,0.45C192.422,195.339,196.281,195.786,200.109,196.582z"/>
			</g>
		</g>
		<g>
			<g style="opacity:0.1;">
				<path style="fill:#A9312F;" d="M144.282,159.382C143.932,159.547,144.282,159.382,144.282,159.382L144.282,159.382z"/>
			</g>
		</g>
		<g>
			<path style="fill:#A9312F;" d="M184.199,64.203c-3.151,9.065-7.825,17.64-12.216,26.059c-2.247,4.261-4.804,8.342-7.645,12.164     c-0.904,1.214-1.859,2.428-3.099,3.151c-2.273,1.317-5.062,0.646-7.103-0.852c-3.693-2.66-5.578-7.619-5.759-12.551     c-0.233-4.933,1.033-9.866,2.505-14.618c2.118-6.766,4.959-15.728,9.143-23.063h0.026c5.837,1.885,11.648,4.132,17.278,6.586     c0.542,0.232,1.059,0.465,1.601,0.723c1.188,0.517,2.376,1.033,3.513,1.575c0.284,0.129,0.568,0.259,0.852,0.413     C183.605,63.919,183.915,64.074,184.199,64.203z"/>
		</g>
		<g>
			<path style="fill:#A9312F;" d="M213.874,81.998c-0.413,0.491-0.827,0.956-1.213,1.446c-2.66,3.177-5.062,6.663-8.032,9.452     c-2.944,2.763-6.586,4.855-10.227,4.571c-2.17-0.181-4.365-1.395-5.139-3.693c-0.568-1.73-0.284-3.693,0.18-5.527     c1.524-5.992,4.7-11.544,8.109-16.994c0.724,0.414,1.421,0.827,2.092,1.24c1.033,0.568,2.04,1.188,3.021,1.808     c2.609,1.627,5.088,3.28,7.438,4.959c0.62,0.413,1.188,0.826,1.782,1.24c0.387,0.31,0.801,0.594,1.188,0.904     C213.331,81.585,213.615,81.791,213.874,81.998z"/>
		</g>
		<g>
			<path style="fill:#A9312F;" d="M145.267,50.056c-2.738,6.767-6.225,13.171-9.737,19.473c-1.085,1.989-2.763,4.261-4.726,3.796     c-1.627-0.387-2.324-2.583-2.583-4.494c-0.955-7.154,0.827-14.36,3.125-21.178C131.346,47.654,137.621,47.762,145.267,50.056z"/>
		</g>
		<g>
			<path style="fill:#A9312F;" d="M151.698,175.257c0,0,19.074-6.36,30.669,1.006l6.128-7.191     C188.494,169.071,167.615,162.129,151.698,175.257z"/>
		</g>
		<g>
			<path style="fill:#A9312F;" d="M91.729,160.613c0,0-9.391-17.778-22.861-20.468l0.541-9.433     C69.408,130.713,89.297,140.124,91.729,160.613z"/>
		</g>
		<g style="opacity:0.48;">
			<path style="fill:#E54949;" d="M91.857,188.962c0,0.161-0.032,0.29-0.032,0.419c-22.912-7.219-33.804-18.336-38.799-28.68     c1.515-0.967,3.255-1.966,5.188-2.868c6.477-3.029,14.856-4.93,22.074-0.065C92.083,165.696,92.147,183.323,91.857,188.962z"/>
		</g>
		<g>
			<g>
				<path style="fill:#A9312F;" d="M50.343,179.541c3.53-1.98,7.196-3.637,10.896-5.214c3.713-1.545,7.461-3.009,11.345-4.146      c-3.529,1.983-7.195,3.639-10.896,5.214C57.974,176.938,54.227,178.401,50.343,179.541z"/>
			</g>
			<g>
				<path style="fill:#A9312F;" d="M46.723,170.184c3.765-1.055,7.585-1.764,11.418-2.387c3.839-0.589,7.691-1.091,11.598-1.243      c-3.764,1.058-7.584,1.766-11.417,2.387C54.483,169.528,50.63,170.029,46.723,170.184z"/>
			</g>
			<g>
				<path style="fill:#A9312F;" d="M47.601,157.759c3.846,0.707,7.588,1.751,11.305,2.877c3.706,1.158,7.387,2.402,10.963,3.984      c-3.846-0.705-7.588-1.749-11.304-2.877C54.858,160.581,51.178,159.338,47.601,157.759z"/>
			</g>
		</g>
	</g>
	<g>
		<path style="fill:#A9312F;" d="M101.969,193.664c2.773-3.995,5.415-8.097,8.297-12.007c2.825-3.955,5.766-7.822,8.724-11.672    l2.337-3.041l0.095,3.838c0.303,12.196,0.391,24.398-0.357,36.623c-1.415-12.166-1.996-24.354-2.36-36.549l2.432,0.796    c-3.005,3.821-6.041,7.616-9.211,11.307c-1.572,1.856-3.188,3.677-4.822,5.483C105.403,190.19,103.837,192.069,101.969,193.664z"/>
	</g>
	<g>
		<path style="fill:#A9312F;" d="M122.479,252.417c0,0-10.7,24.457,0,24.457C133.18,276.875,122.479,252.417,122.479,252.417z"/>
	</g>
	<g>
		<path style="fill:#A9312F;" d="M307.893,251.967c0,0-10.897,24.908,0,24.908C318.79,276.875,307.893,251.967,307.893,251.967z"/>
	</g>
	<g>
		<path style="fill:#A9312F;" d="M338.212,302.694c0,0-10.954,25.038,0,25.038C349.165,327.732,338.212,302.694,338.212,302.694z"/>
	</g>
	<g>
		<path style="fill:#A9312F;" d="M218.352,264.478c0,0-11.458,26.19,0,26.19C229.81,290.669,218.352,264.478,218.352,264.478z"/>
	</g>
	<g>
		<path style="fill:#A9312F;" d="M280.663,345.102c0,0-10.359,23.677,0,23.677C291.021,368.779,280.663,345.102,280.663,345.102z"/>
	</g>
	<g>
		<path style="fill:#A9312F;" d="M181.61,322.56c0,0-12.153,27.777,0,27.777S181.61,322.56,181.61,322.56z"/>
	</g>
	<g>
		<path style="fill:#A9312F;" d="M384.136,242.663c0,0-8.141,18.609,0,18.609C392.277,261.271,384.136,242.663,384.136,242.663z"/>
	</g>
	<g>
		<path style="fill:#A9312F;" d="M266.647,48.345c-2.831,1.982-6.767,1.104-9.768-0.595c-6.116-3.454-10.108-9.598-15.091-14.553    c-2.831-2.803-7.928-5.125-12.203-7.843c8.378-3.371,17.621-5.73,27.464-7.305c3.596,4.559,6.427,9.684,9.23,14.78    c1.359,2.492,2.746,5.068,3.143,7.871C269.818,43.532,268.969,46.703,266.647,48.345z"/>
	</g>
	<g>
		<path style="fill:#A9312F;" d="M310.505,40.389c-0.538,1.869-1.189,3.822-2.662,5.097c-2.18,1.925-5.663,1.699-8.098,0.17    c-2.463-1.557-4.077-4.134-5.294-6.767c-2.548-5.465-3.766-11.439-6.088-17.017c-0.963-2.407-2.237-4.729-3.822-6.824    c8.914-0.634,18.371-0.08,28.257,1.557C314.214,24.477,312.77,32.659,310.505,40.389z"/>
	</g>
	<g>
		<path style="fill:#A9312F;" d="M360.649,30.507c-1.614,9.061-5.465,17.753-11.212,24.973c-1.246,1.557-2.633,3.115-4.417,4.049    c-1.812,0.906-4.106,1.076-5.776-0.028c-2.831-1.925-2.52-6.116-2.01-9.485c0.991-6.739,1.331-13.591,1.076-20.414    c-0.113-2.293-0.651-4.955-1.019-7.645C337.29,21.957,357.396,27.854,360.649,30.507z"/>
	</g>
	<g>
		<path style="fill:#A9312F;" d="M416.597,68.419c-6.937,4.559-14.752,8.041-22.453,11.099c-3.03,1.218-6.201,2.407-9.457,2.152    c-3.256-0.255-6.597-2.378-7.164-5.578c-0.481-2.803,1.161-5.493,2.718-7.843c4.332-6.484,8.636-12.996,12.968-19.451    C401.943,54.483,409.801,61.225,416.597,68.419z"/>
	</g>
	<g style="opacity:0.48;">
		<g>
			<path style="fill:#A9312F;" d="M382.28,108.729c-1.27-3.566-2.572-7.193-4.843-10.221c-0.605-0.807-1.896-1.64-2.917-1.09     c-1.336,0.719-1.031,3.237-0.908,4.437c0.262,2.24,0.931,4.512,1.738,6.635l2.815,7.398l-4.336-6.654     c-1.321-2.028-2.761-4.027-4.295-5.899c-1.539-1.836-3.181-3.723-5.038-4.912c-0.754-0.483-2.798-1.108-2.987,0.182     c-0.123,0.84,0.937,2.325,1.353,2.969c0.821,1.269,1.832,2.414,2.878,3.501l1.776,1.846l-2.584,0.271     c-7.601,0.797-15.213,3.14-22.266,6.306c-7.078,3.191-13.706,7.467-19.317,12.857c-10.075,9.68-16.992,21.34-21.409,34.565     c-0.624,1.87-1.194,3.757-1.708,5.66c0.794-2.939,1.254-5.958,2.116-8.891c0.877-2.987,1.915-5.928,3.117-8.801     c2.392-5.72,5.434-11.178,9.141-16.151c7.532-10.106,17.952-17.949,29.556-22.803c6.539-2.735,13.559-4.619,20.632-5.22     l-0.807,2.116c-1.768-1.935-3.435-3.818-4.448-6.557c-0.59-1.803-0.183-3.749,1.662-4.599c1.509-0.695,3.298-0.12,4.552,0.85     c2.248,1.595,3.787,3.596,5.343,5.581c1.52,2.012,2.893,4.082,4.186,6.246l-1.521,0.743c-0.778-2.32-1.37-4.644-1.567-7.109     c-0.134-1.677,0.269-3.932,1.347-5.268C377.434,91.888,381.75,106.668,382.28,108.729z"/>
		</g>
	</g>
	<g style="opacity:0.48;">
		<g>
			<path style="fill:#A9312F;" d="M269.507,180.06l-6.314-0.562l0.027,0.002l-0.056,0.002h-0.001l-0.027-0.002l-20.775-1.235     l-20.789-0.138c-13.853-0.184-27.701,0.681-41.504,1.794c-13.818,1.038-27.574,2.773-41.3,4.724     c-6.867,0.975-13.702,2.105-20.54,3.333c-6.841,1.137-13.639,2.513-20.444,3.946c13.333-3.939,26.971-6.85,40.66-9.292     c13.701-2.458,27.537-4.113,41.401-5.391c13.88-1.079,27.813-1.739,41.736-1.363l20.868,0.858     c6.933,0.623,13.839,1.544,20.742,2.3l-0.027-0.002l0.056,0.002l0.022,0.001l0.007,0.001L269.507,180.06z"/>
		</g>
	</g>
	<g>
		<path style="fill:#FF983D;" d="M310.279,182.722c0,0-8.126,20.697-29.588,37.771h-0.028c-6.144,4.87-13.336,9.485-21.802,13.194    c-14.865,6.54-33.524,10.391-56.599,8.466c-5.549-0.453-10.816-1.104-15.799-1.869c-8.494-1.302-16.252-3.03-23.302-5.04    c-50.342-14.327-65.377-43.32-65.377-43.32c0.057-0.028,0.113-0.028,0.17-0.057c0.68-0.17,1.359-0.34,2.067-0.51    c0.68-0.17,1.387-0.34,2.095-0.51c3.143-0.793,6.314-1.5,9.542-2.18c0.849-0.198,1.699-0.368,2.577-0.538    c0.51-0.113,1.019-0.227,1.529-0.311c33.269-6.682,69.34-9.032,101.25-9.372c9.089-0.085,17.838-0.028,26.105,0.17    c7.05,0.142,13.732,0.368,19.961,0.651h0.142C291.478,180.513,310.279,182.722,310.279,182.722z"/>
	</g>
	<g>
		<path style="fill:#A9312F;" d="M193.852,211.036c0.227,5.691-1.472,11.269-3.171,16.677c-1.331,4.219-2.69,8.438-4.219,12.571    c-8.494-1.302-16.252-3.03-23.302-5.04c0.623-1.189,1.246-2.322,1.812-3.398c4.757-9.145,10.674-17.923,19.083-24.095    c2.435-1.755,6.003-3.228,8.211-1.189C193.484,207.638,193.768,209.394,193.852,211.036z"/>
	</g>
	<g>
		<path style="fill:#A9312F;" d="M243.26,183.203c-0.227,4.983-1.557,9.825-2.888,14.582c-1.133,4.106-2.378,8.324-5.096,11.609    c-2.718,3.256-7.362,5.323-11.326,3.738c-3.058-1.218-5.04-4.36-5.804-7.56c-0.793-3.228-0.566-6.569-0.453-9.881    c0.17-5.748-0.028-11.524-0.68-17.243c0-0.51-0.057-1.048-0.142-1.557c8.522-0.085,17.243,0.113,26.049,0.623    c0.085,0.368,0.142,0.736,0.198,1.104C243.288,180.145,243.317,181.674,243.26,183.203z"/>
	</g>
	<g>
		<path style="fill:#A9312F;" d="M258.861,233.687c2.237-9.513,0.481-19.65,0.085-29.503c-0.113-2.775,0-5.832,1.84-7.899    c2.492-2.803,7.22-2.435,10.193-0.17c2.973,2.265,4.53,5.889,5.776,9.428c1.727,4.87,3.03,9.881,3.907,14.95    C274.518,225.363,267.327,229.978,258.861,233.687z"/>
	</g>
	<g>
		<path style="fill:#FF983D;" d="M460.285,163.78c0,0.764,0,1.529-0.028,2.265c-0.227,10.193-1.048,20.669-2.888,30.975    c-0.028,0.311-0.085,0.595-0.142,0.906c-1.359,7.361-3.228,14.667-5.719,21.66c-1.954,5.521-13.86,30.286-25.13,45.7    c0,0,9.048,3.594-1.541,17.808c-10.589,14.185-24.322,30.154-36.836,30.154c-12.458-8.777,17.696-34.599,17.696-34.599    c-75.258,2.69-98.9-34.175-105.752-63.961c-4.587-19.678-1.812-36.27-1.812-36.27l71.237,3.029l35.874-28.229l10.504-8.268    l36.043-28.37c0.028,0.028,0.028,0.085,0.057,0.113c3.2,5.861,5.776,18.517,6.002,19.65c0.227,1.133,0.425,2.265,0.623,3.398    c0.396,2.265,0.708,4.502,0.963,6.767C460.087,152.257,460.313,158.032,460.285,163.78z"/>
	</g>
	<g style="opacity:0.48;">
		<g>
			<path style="fill:#A9312F;" d="M296.133,137.809c2.335,9.1,3.417,18.509,3.655,27.939c0.238,9.431-0.623,18.956-3.02,28.176     c-2.365,9.194-6.579,18.102-12.976,25.259c-3.258,3.513-6.999,6.539-11.066,8.991c-4.129,2.369-8.595,4.018-13.132,5.185     c8.804-3.243,16.766-8.444,22.613-15.545c5.742-7.159,9.687-15.646,11.929-24.582c2.388-8.911,3.309-18.198,3.567-27.484     c0.132-4.65,0.021-9.312-0.268-13.969C297.222,147.111,296.753,142.458,296.133,137.809z"/>
		</g>
	</g>
	<g>
		<path style="fill:#FF983D;" d="M466.287,150.699c0,0.028,0,0.028,0,0.057c0,0-0.028-0.085-0.085-0.255    C466.231,150.558,466.259,150.643,466.287,150.699z"/>
	</g>
	<g>
		<path style="fill:#A9312F;" d="M394.497,311.93c-0.749-1.01-1.036-2.254-1.047-3.475c-0.025-1.233,0.272-2.473,0.806-3.599    c1.105-2.228,3.163-3.977,5.606-4.321c-0.581,1.117-1.202,1.986-1.726,2.886c-0.547,0.875-1.006,1.743-1.43,2.618    c-0.464,0.861-0.791,1.78-1.164,2.736C395.193,309.746,394.866,310.751,394.497,311.93z"/>
	</g>
	<g>
		<path style="fill:#A9312F;" d="M448.535,110.635c-4.926,1.869-9.995,3.483-15.034,5.097c-5.663,1.784-11.326,3.596-16.988,5.408    c-2.18,0.679-4.474,1.387-6.739,1.047c-2.265-0.34-4.502-2.123-4.559-4.417c-0.057-1.699,1.019-3.2,2.124-4.474    c6.88-8.126,16.054-13.761,25.511-18.319c1.161-0.566,2.633-1.387,4.247-2.265c1.472,2.039,2.888,4.077,4.247,6.144    C443.891,102.707,446.269,106.643,448.535,110.635z"/>
	</g>
	<g>
		<path style="fill:#A9312F;" d="M460.285,163.78c-0.142,0.028-0.311,0.028-0.453,0c-16.252-0.198-32.476-1.812-48.417-4.87    c-3.397-0.651-6.399-2.662-6.172-5.691c0.028-0.793,0.283-1.671,0.849-2.605c1.727-2.945,5.408-4.644,9.655-5.663    c0.934-0.255,1.897-0.453,2.888-0.651c4.983-0.934,10.221-1.189,13.591-1.727c8.664-1.331,17.384-2.265,26.133-2.831h0.113    C458.473,139.742,461.167,154.66,460.285,163.78z"/>
	</g>
	<g>
		<path style="fill:#A9312F;" d="M457.368,197.021c-0.028,0.311-0.085,0.595-0.142,0.906c-1.359,7.361-3.228,14.667-5.719,21.66    c-11.552-4.332-23.331-9.089-31.91-17.753c-0.481-0.481-0.963-0.963-1.416-1.472c-0.708-0.793-1.416-1.671-1.614-2.718    c-0.311-1.727,0.963-3.454,2.577-4.219c1.586-0.736,3.426-0.764,5.181-0.736c10.929,0.142,21.886,1.557,32.532,4.191    C457.029,196.907,457.199,196.964,457.368,197.021z"/>
	</g>
	<g style="opacity:0.48;">
		<g>
			<path style="fill:#A9312F;" d="M334.188,181.436c-1.134,1.374-2.207,2.801-3.033,4.319c-0.852,1.419-1.251,3.474-0.38,3.91     c0.318,0.175,1.086,0.017,1.789-0.325c0.717-0.337,1.434-0.763,2.125-1.257c1.373-0.982,2.717-2.127,3.953-3.274l3.082-2.862     l-1.111,4.128c-0.478,1.776-0.726,3.772-0.582,5.527c0.099,0.871,0.305,1.698,0.684,2.331c0.396,0.617,0.947,1.001,1.618,1.301     c0.71,0.187,1.624,0.372,2.361,0.237c0.747-0.099,1.286-0.38,1.663-0.919c0.798-1.087,0.885-3.193,0.586-4.904l-0.287-1.638     l1.587,0.209c1.494,0.196,3.129,0.321,4.71,0.319c1.594-0.008,3.192-0.081,4.781-0.274c1.59-0.192,3.17-0.487,4.726-0.917     c1.562-0.424,3.049-1.067,4.545-1.763c-1.301,1.001-2.721,1.896-4.254,2.557c-1.525,0.666-3.106,1.272-4.748,1.62     c-1.634,0.379-3.297,0.657-4.975,0.775c-1.689,0.114-3.338,0.176-5.097,0.01l1.3-1.429c0.262,1.154,0.36,2.212,0.319,3.38     c-0.063,1.14-0.268,2.395-1.042,3.543c-0.754,1.174-2.167,1.914-3.421,2.065c-1.281,0.212-2.417,0.013-3.659-0.315     c-1.226-0.448-2.341-1.347-3.018-2.477c-0.653-1.136-0.895-2.334-1.008-3.476c-0.164-2.305,0.243-4.396,0.909-6.512l1.971,1.266     c-1.413,1.218-2.855,2.298-4.463,3.25c-0.796,0.478-1.644,0.907-2.567,1.252c-0.895,0.277-2.078,0.682-3.347-0.079     c-1.164-0.904-1.149-2.288-0.864-3.229c0.301-0.975,0.801-1.778,1.351-2.513C331.495,183.804,332.775,182.536,334.188,181.436z"/>
		</g>
	</g>
</g>















</svg>
