<?xml version="1.0" encoding="UTF-8"?>
<!-- Generator: Adobe Illustrator 25.2.3, SVG Export Plug-In . SVG Version: 6.00 Build 0)  -->
<svg xmlns="http://www.w3.org/2000/svg" xmlns:xlink="http://www.w3.org/1999/xlink" version="1.1" id="Capa_1" x="0px" y="0px" viewBox="0 0 512 512" style="enable-background:new 0 0 512 512;" xml:space="preserve" width="512" height="512">
<g>
	<ellipse style="fill:#97ECE2;" cx="240.642" cy="376.574" rx="240.642" ry="105.069"/>
	<ellipse style="fill:#97ECE2;" cx="147.095" cy="481.643" rx="66.933" ry="29.225"/>
	<g>
		<g>
			<g>
				<path style="fill:#FF983D;" d="M306.244,230.418c0,0,86.614-42.148,119.785,60.231c8.467-5.726,17.686-10.594,27.048-14.663      c7.618-3.311,15.489-6.376,23.71-7.783c5.602-0.959,16.739-4.226,20.925,1.904c4.08,5.975-5.245,12.052-10.091,13.483      c-11.299,3.336-49.273,19.276-61.077,34.331c-11.804,15.055-22.542-5.82-22.542-5.82s-45.176,36.373-84.063,2.759      C281.052,281.245,306.244,230.418,306.244,230.418z"/>
			</g>
			<g style="opacity:0.3;">
				<path style="fill:#A9312F;" d="M306.244,230.418c0,0,86.614-42.148,119.785,60.231c8.467-5.726,17.686-10.594,27.048-14.663      c7.618-3.311,15.489-6.376,23.71-7.783c5.602-0.959,16.739-4.226,20.925,1.904c4.08,5.975-5.245,12.052-10.091,13.483      c-11.299,3.336-49.273,19.276-61.077,34.331c-11.804,15.055-22.542-5.82-22.542-5.82s-45.176,36.373-84.063,2.759      C281.052,281.245,306.244,230.418,306.244,230.418z"/>
			</g>
		</g>
		<g>
			<g>
				<g>
					<path style="fill:#FF983D;" d="M509.479,263.989c-3.175,2.621-8.995,4.714-15.08,7.913h-0.024       c-8.321,4.401-17.1,10.871-20.227,23.666c-1.539,6.301-2.381,16.258-3.656,27.755v0.024       c-0.866,7.648-1.924,15.946-3.511,24.267c-4.474,23.281-13.18,46.755-33.623,56.423c-13.012,6.157-25.085,8.466-36.197,7.961       c-11.689-0.529-22.271-4.161-31.771-9.669c-6.927-4.016-13.276-9.043-19-14.599v-29.896c0,0,21.069,33.984,55.726,33.311       c5.459-0.12,10.438-1.179,14.912-3.006c9.139-3.728,16.307-10.583,21.574-18.928c8.586-13.613,12.074-31.146,10.799-45.336       c-0.385-4.377-0.625-9.091-0.601-13.998c0.048-9.813,1.058-20.299,3.632-29.992c3.127-11.761,8.562-22.295,17.389-28.885       c2.886-2.189,6.133-3.92,9.765-5.147C508.108,236.21,516.935,257.784,509.479,263.989z"/>
				</g>
				<g style="opacity:0.2;">
					<path style="fill:#A9312F;" d="M509.479,263.989c-3.175,2.621-8.995,4.714-15.08,7.913h-0.024       c-8.321,4.401-17.1,10.871-20.227,23.666c-1.539,6.301-2.381,16.258-3.656,27.755v0.024       c-0.866,7.648-1.924,15.946-3.511,24.267c-4.474,23.281-13.18,46.755-33.623,56.423c-13.012,6.157-25.085,8.466-36.197,7.961       c-11.689-0.529-22.271-4.161-31.771-9.669c-6.927-4.016-13.276-9.043-19-14.599v-29.896c0,0,21.069,33.984,55.726,33.311       c5.459-0.12,10.438-1.179,14.912-3.006c9.139-3.728,16.307-10.583,21.574-18.928c8.586-13.613,12.074-31.146,10.799-45.336       c-0.385-4.377-0.625-9.091-0.601-13.998c0.048-9.813,1.058-20.299,3.632-29.992c3.127-11.761,8.562-22.295,17.389-28.885       c2.886-2.189,6.133-3.92,9.765-5.147C508.108,236.21,516.935,257.784,509.479,263.989z"/>
				</g>
			</g>
			<g>
				<path style="fill:#A9312F;" d="M509.479,263.989c-3.175,2.621-8.995,4.714-15.08,7.913c1.155-4.209,3.944-11.039,10.51-16.09      c0,0-25.855,8.538-35.09-4.81c2.886-2.189,6.133-3.92,9.765-5.147C508.108,236.21,516.935,257.784,509.479,263.989z"/>
			</g>
			<g>
				<path style="fill:#A9312F;" d="M461.979,295.231c0,6.879-7.071,11.737-13.18,14.647c0.048-9.813,1.058-20.299,3.632-29.992      C456.928,283.23,461.979,288.521,461.979,295.231z"/>
			</g>
			<g>
				<path style="fill:#A9312F;" d="M470.492,323.347c-0.866,7.648-1.924,15.946-3.511,24.267      C463.205,340.759,460.102,330.273,470.492,323.347z"/>
			</g>
			<g>
				<path style="fill:#A9312F;" d="M437.014,392.012c-7.504,3.512-15.345-0.529-19.986-3.872      c9.139-3.728,16.307-10.583,21.574-18.928C441.655,377.341,444.253,388.621,437.014,392.012z"/>
			</g>
			<g>
				<path style="fill:#A9312F;" d="M397.161,411.998c-11.689-0.529-22.271-4.161-31.771-9.669c5.002-2.429,12.675-4.978,20.491-2.91      C392.327,401.127,395.55,406.707,397.161,411.998z"/>
			</g>
		</g>
		<g>
			<path style="fill:#FF983D;" d="M362.961,324.549c-0.337,0.962-0.794,2.044-1.395,3.199c-7.985,15.296-14.166,27.947-9.332,48.511     c2.044,8.779,3.632,19.938,2.79,28.38c-1.13,11.352-6.638,17.846-21.189,7.359c0,0-26.336,33.768-88.652,31.507     c-7.985-0.289-16.547-1.154-25.734-2.766c-8.73-1.563-18.014-3.752-27.851-6.758c-10.847-3.295-22.416-7.576-34.682-12.988     c-0.89-0.385-1.78-0.794-2.694-1.203c-22.103-9.933-41.728-23.474-58.179-39.059c-8.803-8.322-16.715-17.22-23.618-26.48     c-9.139-12.29-16.547-25.181-21.91-38.145c-0.89-2.068-1.684-4.161-2.453-6.229c-2.14-5.82-3.944-11.761-5.435-17.798     c-4.377-17.461-6.109-35.595-5.411-53.682c0.337-8.706,1.25-17.365,2.694-25.951c1.179-7.047,2.718-14.046,4.642-20.9     c1.78-6.422,3.872-12.747,6.301-18.928c3.127-8.129,6.807-16.018,10.992-23.546c3.535-6.422,7.431-12.579,11.689-18.423     c3.776-5.243,7.817-10.222,12.146-14.936c65.755-71.84,155.489,60.344,177.255,95.145c3.175,5.075,4.907,8.081,4.907,8.081     l34.032,26.913c0,0,45.745,23.762,50.363,68.377c0,0,1.347-0.144,3.127,0C359.473,314.52,365.823,316.276,362.961,324.549z"/>
		</g>
		<g>
			<path style="fill:#FFC38E;" d="M327.293,386.456c-0.673-2.14-11.785-36.557-39.251-47.549     c-28.356-11.376-44.783,2.549-52.503,14.599c0,0-103.395-38.794-68.136-110.105c22.92-46.346,67.295-41.56,95.53-32.541     c3.175,5.075,4.907,8.081,4.907,8.081l34.032,26.913c0,0,45.745,23.762,50.363,68.377c0,0-0.158,0.527,0.661,0.684     C352.895,314.915,319.38,320.076,327.293,386.456z"/>
		</g>
		<g>
			<g>
				<path style="fill:#67DCBC;" d="M199.645,300.434c-0.529,0.072-1.058,0.144-1.588,0.216c0,0,7.48,31.723-3.511,48.559      c-10.991,16.812-55.967,37.712-60.536,34.994c-4.569-2.718,38.626-77.733,38.626-77.733s-72.465,21.021-76.241,16.884      c-3.752-4.161,8.514-32.781,26.239-40.069c17.124-7.023,45.649-6.398,47.597-6.35c0.072,0,0.096,0,0.096,0      s12.122-68.93,52.551-114.386c40.406-45.432,108.398-73.668,131.126-61.907C376.66,112.331,354.99,279.581,199.645,300.434z"/>
			</g>
			<g>
				<path style="fill:#FFFFFF;" d="M321.638,126.126c0,2.472-2.004,4.476-4.477,4.476s-4.477-2.004-4.477-4.476      c0-2.472,2.004-4.477,4.477-4.477S321.638,123.654,321.638,126.126z"/>
			</g>
			<g>
				<path style="fill:#FFFFFF;" d="M348.249,113.844c0.464-2.501,1.596-4.536,2.885-6.462c1.357-1.878,2.877-3.642,5.069-4.938      c-0.459,2.504-1.591,4.54-2.885,6.462C351.956,110.78,350.437,112.545,348.249,113.844z"/>
			</g>
			<g>
				<path style="fill:#FFFFFF;" d="M280.105,129.43c0.242,3.781,0.718,7.524,1.485,11.203c0.709,3.685,1.646,7.318,2.875,10.839      c2.455,7.025,5.828,13.742,10.547,19.414c4.654,5.723,10.62,10.271,17.275,13.547c6.708,3.185,14.044,5.079,21.538,6.178      c-3.789-0.039-7.592-0.365-11.355-1.046c-3.767-0.678-7.433-1.863-11.025-3.263c-3.55-1.505-6.948-3.41-10.079-5.707      c-3.094-2.343-5.916-5.043-8.41-8.017c-4.921-6.018-8.382-13.112-10.438-20.499C280.466,144.693,279.505,137.007,280.105,129.43      z"/>
			</g>
		</g>
		<g>
			<path style="fill:#A9312F;" d="M133.247,32.778c6.088-2.15,12.616-2.714,17.742-2.693c5.383,0.031,9.208,0.662,9.412,0.682     c2.512-12.831-4.221-27.709-9.195-29.41l-0.014-0.006c-1.832,2.457-4.002,5.407-4.903,13.325c-0.084,0.78-0.217,1.523-0.372,2.24     C143.672,27.562,134.711,32.319,133.247,32.778z"/>
		</g>
		<g>
			<path style="fill:#FF983D;" d="M278.165,112.132c-0.088-3.084-0.374-6.19-0.885-9.321c-0.144-0.747-0.258-1.541-0.427-2.29     c-2.302-11.091-7.843-22.062-18.728-32.111c0.114-0.114,0.227-0.227,0.343-0.365c5.139-5.909,9.742-17.219,9.995-24.298     c0.093-1.981-0.182-3.599-0.841-4.705c-0.255-0.431-0.57-0.768-0.971-1.015c-6.273-4.121-13.595-2.637-19.449,1.075     c-4.015,2.58-7.573,6.27-11.871,8.441c-0.318,0.141-3.097,1.573-5.188,2.476l-0.501,0.197c-0.385-0.169-0.794-0.34-1.201-0.536     c-6.147-2.962-12.794-5.186-19.245-7.386c-6.714-2.29-13.518-4.317-20.39-6.076c-9.399-2.294-18.793-4.364-28.41-5.453     c0.163-0.788,0.273-1.557,0.361-2.354c1.352-12.225-4.871-25.463-9.558-27.065c-5.489-1.867-12.233,8.98-19.158,16.682     c-3.42,3.806-9.646,9.292-15.069,13.884c-5.422,4.592-10.067,8.312-10.344,8.534C93.658,50.829,85.15,67.206,82.441,83.475     c-1.047,6.287-1.462,13.07,0.15,19.284c0.925,3.566,2.32,7.015,3.943,10.316c2.76,5.615,6.279,10.846,10.275,15.652     c5.664,6.812,12.305,12.778,19.473,17.968c9.733,7.047,20.442,12.683,31.535,17.263c14.939,6.168,30.615,10.458,46.463,13.538     c0.183,0.036,0.366,0.071,0.55,0.106c-14.786,10.998-32.936,28.516-6.327,33.194c33.012,5.804,47.333-20.038,51.192-28.818     c4.383-3.361,9.084-6.957,10.433-7.978c5.58-4.197,15.119-12.971,21.41-27.245c0.395-0.838,0.771-1.729,1.122-2.623     c0.771-1.956,1.5-3.992,2.116-6.142c0.011-0.1,0.044-0.172,0.08-0.268c0.489-1.685,0.964-3.472,1.319-5.323     c0.094-0.393,0.188-0.786,0.257-1.181c0.069-0.396,0.16-0.764,0.229-1.159c0.615-3.511,1.083-7.063,1.333-10.69     c0.077-0.697,0.104-1.4,0.134-2.127c0.046-1.557,0.067-3.118,0.039-4.683C278.181,112.437,278.173,112.284,278.165,112.132z"/>
		</g>
		<g>
			<path style="fill:#A9312F;" d="M246.315,57.568l7.656,7.209c1.587,1.296,3.066,2.641,4.154,3.633     c6.803-5.522,10.081-17.596,10.351-24.671c0.079-1.972-0.182-3.597-0.847-4.692c0,0-2.97,0.202-7.21,5.476     c-1.544,1.926-2.963,3.791-4.444,5.45C255.976,49.972,252.048,58.29,246.315,57.568z"/>
		</g>
		<g style="opacity:0.48;">
			<path style="fill:#E54949;" d="M168.945,80.587c3.155,5.542,0.85,14.138-5.954,16.674c-9.11,3.395-22.114-1.892-25.834-11.068     c-3.142-7.747,4.086-17.733,10.584-17.86c5.492-0.107,10.482,2.111,14.659,5.35C164.341,75.189,167.177,77.481,168.945,80.587z"/>
		</g>
		<g style="opacity:0.48;">
			<path style="fill:#E54949;" d="M228.74,94.921c-5.843,3.22-8.533,12.194-3.906,18.227c6.196,8.078,20.617,10.532,28.961,4.369     c7.044-5.202,6.141-18.143,0.458-21.85c-4.803-3.133-10.441-3.904-15.921-3.312C235.784,92.63,232.014,93.116,228.74,94.921z"/>
		</g>
		<g>
			<path style="fill:#A9312F;" d="M214.122,43.979c-0.082,1.228-0.201,2.517-0.411,3.732c-0.765,4.473-2.334,8.939-5.898,11.926     c-2.854,2.411-6.939,3.68-10.442,1.946c-2.794-1.358-4.159-4.581-4.542-7.474c-0.492-3.858-1.112-7.712-1.95-11.503     c-0.42-1.941-0.847-4.047-1.349-6.222C189.529,36.385,203.594,39.651,214.122,43.979z"/>
		</g>
		<g>
			<path style="fill:#A9312F;" d="M263.641,131.192c3.73,1.944,8.264,1.977,12.544,1.217c0.082-0.389,0.164-0.779,0.238-1.187     c0.076-0.375,0.159-0.765,0.227-1.16c0.625-3.502,1.098-7.069,1.346-10.681C268.128,123.739,256.654,127.536,263.641,131.192z"/>
		</g>
		<g>
			<path style="fill:#A9312F;" d="M261.73,141.896c2.09,2.395,5.981,3.917,9.821,4.864c0.375-0.853,0.742-1.725,1.101-2.618     c0.774-1.956,1.488-4.003,2.115-6.152c0.021-0.089,0.05-0.158,0.072-0.247C266.434,137.339,258.046,137.674,261.73,141.896z"/>
		</g>
		<g>
			<path style="fill:#A9312F;" d="M278.156,112.57c-2.696,0.985-5.427,1.548-7.717,1.139c-5.308-0.945,0.348-6.096,6.841-10.88     C277.281,102.829,278.559,107.829,278.156,112.57z"/>
		</g>
		<g>
			<path style="fill:#A9312F;" d="M167.406,31.716c1.839,4.649,3.813,9.049,5.758,10.629c3.293,2.674,9.61-1.22,8.481-7.908     c-3.782-0.864-7.449-1.604-11.001-2.202c-0.479-0.092-0.939-0.166-1.399-0.24C168.62,31.89,168.013,31.803,167.406,31.716z"/>
		</g>
		<g>
			<path style="fill:#A9312F;" d="M228.432,49.688c0.278,3.007-4.348,4.991-8.41,2.016c-1.504-1.096-2.555-3.834-3.473-6.872     C216.549,44.832,223.274,46.878,228.432,49.688z"/>
		</g>
		<g>
			<path style="fill:#A9312F;" d="M96.399,50.744c18.175,23.097,32.229,10.377,23.666,3.841c-5.736-4.384-10.26-10.33-13.215-14.311     C102.744,43.177,99.256,46.665,96.399,50.744z"/>
		</g>
		<g>
			<path style="fill:#A9312F;" d="M93.435,54.901c3.754,3.942,9,8.503,13.715,11.09c4.149,2.266,8.97,4.718,11.657,8.521     c0.912,1.28,1.495,2.764,1.433,4.188c-0.177,3.561-4.082,5.52-7.753,5.606c-9.73,0.227-19.822-5.631-27.107-12.493     C85.379,71.815,86.722,65.189,93.435,54.901z"/>
		</g>
		<g>
			<path style="fill:#A9312F;" d="M160.401,30.768c-1.414-0.41-7.232-0.599-9.412-0.682l-7.4-1.612     c5.464-1.879,2.327-11.556,2.327-11.556c0.597-2.142,0.81-4.882,1.346-7.291c1.48-6.603,3.497-8.403,3.497-8.403     s5.282,0.352,8.689,11.842S160.401,30.768,160.401,30.768z"/>
		</g>
		<g>
			<path style="fill:#A9312F;" d="M83.472,78.248c-1.816,6.306-2.481,12.339-1.869,18.554c5.498,3.437,12.538,4.615,18.883,3.713     c2.828-0.408,5.737-1.743,6.344-4.814c0.811-4.059-4.026-6.551-7.089-7.757C91.433,84.679,86.101,80.756,83.472,78.248z"/>
		</g>
		<g>
			<g>
				<path style="fill:#A9312F;" d="M270.488,122.997c-3.106-2.857-6.447-5.383-9.846-7.829c-3.422-2.412-6.903-4.742-10.622-6.739      c3.104,2.86,6.445,5.386,9.846,7.83C263.29,118.669,266.771,120.998,270.488,122.997z"/>
			</g>
			<g>
				<path style="fill:#A9312F;" d="M276.293,114.314c-3.566-1.977-7.281-3.577-11.033-5.084c-3.767-1.469-7.571-2.844-11.525-3.839      c3.564,1.979,7.279,3.579,11.032,5.083C268.536,111.942,272.34,113.317,276.293,114.314z"/>
			</g>
			<g>
				<path style="fill:#A9312F;" d="M278.227,101.491c-4.071-0.208-8.112-0.01-12.144,0.286c-4.029,0.336-8.05,0.774-12.04,1.62      c4.072,0.211,8.113,0.013,12.144-0.285C270.217,102.771,274.238,102.333,278.227,101.491z"/>
			</g>
		</g>
		<g>
			<path style="fill:#FFFFFF;" d="M149.007,25.536c0,0,2.763,0.95,3.744,0.629c0.996-0.314-3.104-2.153-3.104-2.153     c2.436-0.018,5.146-1.731,4.457-2.07c-0.697-0.358-3.864,0.428-3.864,0.428c4.05-2.616,4.594-8.907,1.659-9.718     c-1.255-0.349-3.656,1.755-5.983,4.265c-2.244,10.645-11.205,15.402-12.67,15.861c6.088-2.15,12.616-2.714,17.742-2.693     C151.135,27.8,149.007,25.536,149.007,25.536z"/>
		</g>
		<g>
			<path style="fill:#FFFFFF;" d="M253.971,64.777c0.55-2.393-0.492-6.466-0.589-6.816c0.151,0.145,1.719,1.766,2.815,1.64     c1.149-0.136-1.506-2.736-1.506-2.736s2.37,1.225,2.872,0.572c0.511-0.633-2.064-1.488-2.064-1.488     c2.208-0.326,7.403-3.765,5.745-5.946c-1.083-1.417-3.615-0.706-5.268-0.032c-3.507,3.921-7.381,6.66-14.339,6.227     C241.637,56.199,248.459,60.829,253.971,64.777z"/>
		</g>
		<g>
			<g>
				<path style="fill:#A9312F;" d="M204.392,75.677c0,0,5.262-3.36,6.894-1.877c1.632,1.483-6.297,6.583-8.659,6.519      c-2.362-0.065-4.609-9.047-2.978-10.086C201.281,69.193,204.392,75.677,204.392,75.677z"/>
			</g>
			<g style="opacity:0.48;">
				<path style="fill:#A9312F;" d="M213.81,83.988c3.309,2.022,6.012,5.382,6.92,9.523c1.316,6.001-0.202,12.479-5.529,15.764      c-3.306,2.039-7.149,2.47-10.808,2.29c-7.012-0.343-13.952-1.18-19.922-5.188c-2.165-1.454-4.175-3.264-5.545-5.632      c-2.099-3.628-2.505-8.485-1.065-12.732c1.441-4.247,4.695-7.784,8.53-9.272c4.718-1.831,10.573-0.969,15.083,0.585      C205.492,80.71,210.171,81.766,213.81,83.988z"/>
			</g>
		</g>
		<g>
			<g>
				<path style="fill:#A9312F;" d="M148.786,80.154c-4.028-1.259-8.128-2.118-12.245-2.879c-4.124-0.722-8.267-1.343-12.482-1.561      c4.027,1.261,8.128,2.12,12.245,2.879C140.43,79.311,144.572,79.932,148.786,80.154z"/>
			</g>
			<g>
				<path style="fill:#A9312F;" d="M126.205,65.491c3.478,2.128,7.121,3.885,10.804,5.553c3.7,1.63,7.442,3.167,11.35,4.33      c-3.476-2.131-7.119-3.888-10.804-5.552C133.854,68.194,130.112,66.657,126.205,65.491z"/>
			</g>
			<g>
				<path style="fill:#A9312F;" d="M134.018,55.14c2.188,3.441,4.687,6.621,7.263,9.738c2.606,3.091,5.29,6.116,8.289,8.88      c-2.185-3.443-4.685-6.623-7.262-9.738C139.699,60.931,137.014,57.906,134.018,55.14z"/>
			</g>
		</g>
		<g style="opacity:0.48;">
			<path style="fill:#A9312F;" d="M121.27,146.746c-1.399-1.532-2.816-3.04-4.172-4.601c-1.365-1.549-2.732-3.1-3.957-4.736     l-0.788-1.053l-0.08,1.349c-0.034,0.567-0.121,1.175-0.276,1.711c-0.14,0.531-0.441,1.051-0.671,1.117     c-0.084,0.043-0.288,0.019-0.411-0.051c-0.084-0.039-0.226-0.206-0.326-0.433c-0.208-0.457-0.327-1.039-0.408-1.616     c-0.148-1.171-0.187-2.39-0.152-3.604c0.038-1.203,0.119-2.461,0.327-3.578l0.411-2.206l-1.552,1.609     c-0.634,0.658-1.364,1.303-2.116,1.8c-0.747,0.497-1.624,0.839-2.013,0.499c-0.497-0.317-0.744-1.281-0.789-2.172     c-0.051-0.911,0.015-1.883,0.147-2.798l0.058-0.401l-0.335-0.166c-1.962-0.978-3.857-2.242-5.576-3.666     c-0.88-0.695-1.71-1.455-2.492-2.264c-0.792-0.802-1.494-1.685-2.187-2.586c1.105,1.986,2.589,3.763,4.24,5.35     c1.687,1.561,3.514,2.937,5.549,4.096l-0.277-0.567c-0.217,1.014-0.333,2.01-0.301,3.059c0.019,0.523,0.074,1.056,0.231,1.602     c0.156,0.534,0.435,1.133,1.006,1.551c0.274,0.2,0.626,0.344,0.989,0.376c0.352,0.03,0.671-0.024,0.959-0.103     c0.574-0.165,1.05-0.43,1.499-0.711c0.89-0.58,1.646-1.236,2.382-1.982l-1.14-0.597c-0.246,1.323-0.293,2.552-0.329,3.827     c-0.015,1.265,0.009,2.535,0.217,3.821c0.113,0.643,0.247,1.292,0.57,1.96c0.169,0.324,0.397,0.702,0.869,0.95     c0.428,0.205,0.893,0.262,1.39,0.067c0.934-0.482,1.091-1.289,1.269-1.913c0.15-0.666,0.205-1.298,0.208-1.97l-0.867,0.296     c1.356,1.602,2.79,3.107,4.28,4.556C118.166,143.994,119.678,145.415,121.27,146.746z"/>
		</g>
		<g>
			<path style="fill:#A9312F;" d="M175.933,79.317c0,0,0.454-18.25-17.055-25.769l0.818,8.802     C159.696,62.351,169.026,64.153,175.933,79.317z"/>
		</g>
		<g>
			<path style="fill:#A9312F;" d="M222.869,93.175c0,0,10.516-14.95,29.081-10.558l-5.906,6.592     C246.044,89.208,237.465,85.095,222.869,93.175z"/>
		</g>
		<g>
			<path style="fill:#A9312F;" d="M210.58,84.108c-0.622,1.398-0.982,2.768-1.408,4.112c-0.38,1.353-0.77,2.676-1.032,4.019     c-0.313,1.333-0.514,2.674-0.714,4.05c-0.151,1.382-0.221,2.778-0.347,4.348c-0.938-1.246-1.492-2.754-1.731-4.304     c-0.228-1.555-0.118-3.141,0.193-4.67c0.356-1.521,0.917-2.987,1.747-4.301C208.107,86.074,209.118,84.78,210.58,84.108z"/>
		</g>
		<g>
			<path style="fill:#A9312F;" d="M193.571,76.687c1.091,1.465,1.777,3.23,1.988,5.111c0.238,1.885-0.085,3.827-0.693,5.586     c-0.656,1.749-1.549,3.349-2.635,4.779c-1.073,1.438-2.287,2.75-3.727,3.876c1.079-3.481,2.778-6.481,3.856-9.555     c0.572-1.522,0.932-3.057,1.127-4.663C193.671,80.209,193.621,78.516,193.571,76.687z"/>
		</g>
		<g>
			<path style="fill:#A9312F;" d="M208.455,88.559c0.16,0.435-0.343,0.734-0.584,0.968c-0.304,0.246-0.637,0.43-0.971,0.613     c-0.679,0.331-1.391,0.59-2.122,0.748c-1.461,0.347-2.981,0.345-4.469,0.132c-1.479-0.267-2.931-0.762-4.198-1.576     c-1.27-0.791-2.369-1.86-3.077-3.178c2.802,0.97,5.155,1.739,7.706,2.126c1.258,0.228,2.539,0.339,3.848,0.434     c0.653,0.029,1.319,0.067,1.988,0.055c0.34,0.013,0.674-0.009,1.012-0.03C207.888,88.791,208.349,88.854,208.455,88.559z"/>
		</g>
		<g>
			<g>
				<path style="fill:#FF983D;" d="M206.389,261.199c-11.063,6.518-23.714-3.535-26.095-5.58c-0.072-0.072-0.12-0.12-0.168-0.144      c-0.096-0.096-0.168-0.144-0.193-0.168c-0.024-0.024-0.024-0.024-0.024-0.024c-0.096,0.048-0.168,0.096-0.265,0.144      c-0.361,0.192-1.082,0.577-2.092,1.082c-0.337,0.168-0.673,0.337-0.986,0.505c-1.996,0.938-4.81,2.237-8.298,3.608      c-6.301,2.477-14.767,5.219-24.267,6.758c-2.573,0.409-5.219,0.746-7.937,0.938c-3.824,0.289-7.768,0.361-11.737,0.096      c-6.855-0.457-13.829-1.876-20.612-4.69c-6.037-2.453-11.881-6.013-17.365-10.943c-0.024-0.024-0.048-0.024-0.048-0.048      c-37.568-33.936,50.988-41.175,50.988-41.175l12.29,9.332c0.024,0,0.048-0.024,0.048-0.024      c1.058-0.746,22.247-15.273,38.65-8.081c0.072,0.024,0.144,0.072,0.216,0.096C205.379,220.481,218.631,253.96,206.389,261.199z"/>
			</g>
			<g style="opacity:0.48;">
				<g>
					<path style="fill:#A9312F;" d="M141.788,226.036c2.439-1.94,5.019-3.705,7.677-5.344l0.115-0.031       c-0.038-0.01-0.092,0.01-0.113,0.042l0.047-0.036c4.587-2.769,9.428-5.156,14.519-6.932c5.073-1.812,10.452-2.904,15.91-2.943       c2.731,0.012,5.443,0.282,8.168,1.066c2.67,0.78,5.139,2.148,7.361,3.77c4.443,3.288,7.974,7.595,10.812,12.244       c2.804,4.683,4.935,9.767,6.174,15.122c0.601,2.679,0.994,5.435,0.904,8.254c-0.143,2.78-0.606,5.787-2.537,8.269       c-0.953,1.196-2.238,2.256-3.724,2.751c-1.399,0.448-2.746,0.678-4.125,1.018c-2.762,0.537-5.621,0.483-8.386,0.072       c-5.566-0.851-10.693-3.317-15.103-6.73l-0.107-0.095c0.04,0.048,0.102,0.085,0.168,0.097l-0.336-0.242l-0.215-0.193       l1.49,0.242c-3.596,1.961-7.524,3.557-11.309,5.311c-3.86,1.608-7.814,2.989-11.836,4.147       c-4.023,1.153-8.119,2.062-12.266,2.683c-4.173,0.408-8.342,0.967-12.536,0.884c-8.394-0.091-16.748-1.51-24.64-4.298       c-7.899-2.763-15.243-6.949-21.769-12.093l-0.037-0.032c0.019,0.021,0.052,0.04,0.036,0.029c0.014,0.032-0.21-0.155-0.19-0.333       l0.143,0.286c-4.301-3.419-8.316-7.23-11.637-11.593c3.552,4.169,7.706,7.771,12.077,11.014l0.144,0.287       c0.018-0.152-0.184-0.322-0.151-0.279c0,0,0.057,0.034,0.092,0.071l-0.036-0.031c6.654,4.855,14.053,8.646,21.822,11.218       c7.775,2.55,15.991,3.743,24.14,3.642c2.038-0.006,4.087-0.161,6.111-0.404c2.027-0.22,4.066-0.346,6.083-0.64       c4.033-0.635,8.024-1.553,11.946-2.709c3.92-1.16,7.781-2.543,11.546-4.145c3.705-1.757,7.451-3.296,11.112-5.325l0.747-0.414       l0.744,0.656l0.217,0.191l-0.335-0.241c0.178,0.108,0.351,0.241,0.504,0.385l-0.106-0.095c4.042,3.086,8.89,5.34,13.897,6.16       c2.506,0.39,5.076,0.461,7.559-0.009c1.212-0.298,2.518-0.516,3.659-0.863c1.075-0.339,1.933-1.068,2.643-1.926       c1.433-1.764,1.932-4.322,2.064-6.812c0.103-2.529-0.238-5.115-0.787-7.646c-1.131-5.071-3.14-9.987-5.793-14.489       c-2.639-4.499-5.911-8.7-10.014-11.874c-2.05-1.569-4.305-2.887-6.751-3.658c-2.409-0.756-5.034-1.099-7.651-1.165       c-10.532-0.098-20.895,3.613-30.183,8.737l0.046-0.035c-0.053,0.047-0.139,0.084-0.209,0.09l0.114-0.031       C146.986,222.607,144.318,224.218,141.788,226.036z"/>
				</g>
			</g>
			<g>
				<path style="fill:#A9312F;" d="M202.067,262.173c-0.486-3.392-0.788-6.491-1.411-9.555c-0.254-1.54-0.667-3.03-1.083-4.547      c-0.4-1.538-1.01-2.988-1.52-4.663c1.393,0.998,2.612,2.311,3.429,3.839c0.873,1.504,1.458,3.168,1.789,4.865      c0.3,1.703,0.414,3.435,0.22,5.142C203.307,258.953,202.904,260.646,202.067,262.173z"/>
			</g>
		</g>
		<g>
			<g>
				<path style="fill:#FF983D;" d="M317.021,235.807c6.328,2.844,14.225,4.004,21.123,3.868      c10.841-0.213,20.162-5.291,22.222-16.478c3.353-18.204-15.774-29.303-31.809-25.502c-14.159,3.357-32.109,26.065-14.063,36.809      C315.258,234.959,316.104,235.394,317.021,235.807z"/>
			</g>
			<g>
				<path style="fill:#A9312F;" d="M306.897,227.72c2.334-1.465,4.944-2.432,7.606-3.114c2.668-0.697,5.43-1.01,8.198-1.07      c2.768-0.033,5.552,0.252,8.234,0.953c2.698,0.612,5.259,1.78,7.571,3.23c-2.729-0.42-5.3-0.977-7.935-1.183      c-2.613-0.257-5.222-0.414-7.838-0.337C317.492,226.227,312.289,226.865,306.897,227.72z"/>
			</g>
			<g>
				<path style="fill:#A9312F;" d="M312.107,209.83c1.741-1.555,3.889-2.574,6.084-3.315c2.206-0.752,4.519-1.147,6.838-1.322      c4.638-0.214,9.355,0.531,13.477,2.643c-2.327,0.034-4.543-0.111-6.755-0.118c-2.206-0.047-4.389,0.022-6.562,0.133      C320.833,208.127,316.561,208.721,312.107,209.83z"/>
			</g>
		</g>
		<g style="opacity:0.48;">
			<g>
				<path style="fill:#A9312F;" d="M235.004,381.29c-1.985-5.998-2.838-12.427-2.249-18.794c0.585-6.328,2.98-12.746,7.6-17.401      c4.588-4.69,10.658-7.463,16.804-9.257c6.206-1.723,12.794-2.276,19.205-1.331c12.924,1.689,24.629,8.937,33.151,18.498      c8.742,9.518,14.567,21.211,18.967,33.129l-2.386,0.556c-0.675-8.245-0.464-16.347-0.184-24.497      c0.165-4.072,0.433-8.131,0.926-12.215c0.527-4.138,1.59-8.102,2.962-11.997c2.786-7.686,7.444-15.088,14.451-19.601      c3.454-2.208,7.278-4.033,11.433-4.391c2.033-0.149,4.286,0.163,5.886,1.574c1.608,1.4,2.177,3.55,2.269,5.545      c-0.193-1.993-0.889-4.07-2.473-5.3c-1.573-1.232-3.679-1.461-5.629-1.24c-3.96,0.492-7.638,2.42-10.885,4.683      c-6.533,4.651-10.892,11.77-13.402,19.305c-1.234,3.779-2.186,7.728-2.586,11.652c-0.4,3.981-0.515,8.035-0.677,12.067      c-0.217,8.058-0.35,16.222,0.365,24.151l0.82,9.097l-3.207-8.542c-4.394-11.703-10.271-22.977-18.559-32.255      c-8.16-9.287-19.268-16.254-31.563-17.959c-6.099-0.9-12.389-0.618-18.386,0.929c-5.947,1.586-11.848,4.139-16.248,8.441      c-4.42,4.299-7.004,10.271-7.817,16.455C232.785,368.796,233.367,375.197,235.004,381.29z"/>
			</g>
		</g>
		<g style="opacity:0.48;">
			<path style="fill:#A9312F;" d="M255.998,168.991c-1.691,1.41-3.377,2.817-5.124,4.137c-0.863,0.671-1.742,1.317-2.642,1.92     c-0.894,0.591-1.845,1.166-2.768,1.463l-0.27,0.087l-0.093,0.299c-0.273,0.876-0.608,1.782-1.043,2.574     c-0.403,0.78-1.082,1.538-1.525,1.458c-0.21-0.031-0.28-0.057-0.383-0.421c-0.075-0.342-0.06-0.788-0.01-1.225     c0.107-0.885,0.371-1.815,0.656-2.679l0.86-2.609l-1.955,1.91c-0.719,0.703-1.51,1.388-2.319,2.001     c-0.811,0.608-1.666,1.183-2.538,1.525c-0.431,0.177-0.881,0.269-1.197,0.192c-0.361-0.087-0.602-0.245-0.618-0.511     c-0.078-0.664,0.528-1.686,1.11-2.412l0.906-1.13l-1.366,0.357c-1.675,0.438-3.412,0.74-5.141,0.999     c-1.734,0.254-3.486,0.375-5.253,0.285c1.738,0.355,3.533,0.365,5.308,0.297c1.781-0.09,3.536-0.332,5.303-0.665l-0.46-0.772     c-0.388,0.427-0.714,0.858-1.01,1.354c-0.274,0.499-0.562,1.052-0.524,1.809c0.031,0.372,0.219,0.8,0.521,1.049     c0.146,0.14,0.299,0.246,0.456,0.311c0.154,0.085,0.315,0.152,0.496,0.18c0.715,0.169,1.344,0.005,1.887-0.185     c1.106-0.391,2.023-0.999,2.896-1.644c0.875-0.65,1.686-1.336,2.48-2.096l-1.095-0.7c-0.343,0.975-0.587,1.936-0.712,2.985     c-0.049,0.527-0.084,1.067,0.053,1.678c0.052,0.159,0.099,0.317,0.168,0.474c0.104,0.161,0.187,0.331,0.335,0.469     c0.303,0.297,0.711,0.448,1.083,0.458c0.776,0.038,1.377-0.423,1.754-0.83c0.389-0.428,0.654-0.888,0.898-1.349     c0.464-0.934,0.799-1.868,1.041-2.867l-0.362,0.387c1.148-0.454,2.05-1.109,2.949-1.776c0.887-0.677,1.738-1.386,2.568-2.116     C252.946,172.168,254.526,170.631,255.998,168.991z"/>
		</g>
		<g style="opacity:0.2;">
			<path style="fill:#A9312F;" d="M361.566,327.748c-7.985,15.296-14.166,27.947-9.332,48.511c2.044,8.779,3.632,19.938,2.79,28.38     c-2.261,0.818-5.123,0.313-8.634-3.03c-0.12-0.12-0.24-0.241-0.361-0.361c-2.718-3.006-3.632-7.624-4.329-11.448     c-1.082-5.989-1.395-12.122-1.419-18.207c-0.024-4.209-0.024-8.466,0.241-12.675c0.601-10.246,1.539-41.464,18.928-36.245     c0.721,0.217,2.213,0.938,3.511,1.876C362.624,325.511,362.167,326.593,361.566,327.748z"/>
		</g>
		<g style="opacity:0.48;">
			<g>
				<path style="fill:#A9312F;" d="M278.644,281.212c1.975-1.401,4.3-2.248,6.669-2.748c2.378-0.52,4.847-0.633,7.283-0.395      c2.426,0.281,4.845,0.816,7.06,1.843c2.248,0.926,4.277,2.322,6.024,3.958c-2.323-0.686-4.47-1.482-6.697-1.99      c-2.197-0.573-4.419-0.945-6.649-1.161C287.859,280.238,283.361,280.494,278.644,281.212z"/>
			</g>
		</g>
		<g style="opacity:0.48;">
			<g>
				<path style="fill:#A9312F;" d="M288.536,288.665c-0.055-1.742,0.541-3.355,1.191-4.878c0.662-1.537,1.561-2.956,2.603-4.28      c1.085-1.284,2.273-2.519,3.743-3.426c1.435-0.92,3.091-1.602,4.8-1.65c-2.596,2.143-4.527,4.313-6.47,6.747      c-0.992,1.178-1.916,2.428-2.895,3.666C290.561,286.108,289.513,287.317,288.536,288.665z"/>
			</g>
		</g>
		<g>
			<path style="fill:#A9312F;" d="M340.544,322.09c0.667-0.754,1.512-1.176,2.393-1.434c0.888-0.266,1.834-0.313,2.792-0.165     c0.945,0.196,1.906,0.589,2.649,1.288c0.746,0.693,1.206,1.671,1.175,2.657c-0.931-0.416-1.605-0.695-2.278-0.895     c-0.687-0.161-1.319-0.321-2.012-0.429C343.874,322.84,342.398,322.699,340.544,322.09z"/>
		</g>
		<g>
			<path style="fill:#A9312F;" d="M130.34,254.272c-0.866,1.996-2.116,3.776-3.079,5.7c-1.226,2.477-1.996,5.291-2.814,8.009     c-0.048,0.144-0.096,0.289-0.12,0.433c-6.855-0.457-13.829-1.876-20.612-4.69c0.12-0.264,0.241-0.529,0.385-0.794     c2.573-5.243,6.782-10.342,10.15-13.685c2.333-2.309,5.051-4.45,8.298-5.075c3.223-0.601,7.023,0.77,8.249,3.824     C131.615,249.991,131.182,252.3,130.34,254.272z"/>
		</g>
		<g>
			<path style="fill:#A9312F;" d="M168.388,260.742c-8.682,3.584-16.811,5.748-24.339,6.831c-0.024-0.072-0.024-0.12-0.048-0.193     c-0.553-3.463-0.866-6.974-0.601-10.534c0.241-3.367,0.914-6.854,2.934-9.572c1.996-2.742,5.58-4.521,8.827-3.584     c3.896,1.13,5.82,5.339,7.72,8.899c1.539,2.862,3.343,5.556,5.387,8.033C168.316,260.67,168.34,260.718,168.388,260.742z"/>
		</g>
		<g>
			<path style="fill:#A9312F;" d="M102.705,162.061c-2.525,4.738-10.102,2.838-14.046,1.443c-9.62-3.439-18.64-8.322-26.817-14.431     c3.535-6.422,7.431-12.579,11.689-18.423c4.426,4.522,8.322,9.572,13.06,13.709c3.295,2.862,6.975,5.243,10.414,7.937     C99.627,154.365,104.774,158.165,102.705,162.061z"/>
		</g>
		<g>
			<path style="fill:#A9312F;" d="M76.322,194.145c-2.068,1.323-4.642,1.515-7.095,1.515c-8.394,0.024-16.619-1.684-24.676-4.113     c1.78-6.422,3.872-12.747,6.301-18.928c8.033,4.137,16.09,8.225,24.099,12.362c1.371,0.698,2.814,1.491,3.535,2.838     C79.64,189.984,78.366,192.798,76.322,194.145z"/>
		</g>
		<g>
			<path style="fill:#A9312F;" d="M205.595,396.053c-1.371,10.15-4.401,20.107-8.971,29.294c-1.491,2.982-3.127,5.892-5.027,8.634     c-10.847-3.295-22.416-7.576-34.682-12.988c11.015-10.053,18.688-24.58,30.665-33.912c2.333-1.804,4.882-3.439,7.768-4.041     c2.862-0.625,6.133-0.048,8.177,2.069C206.197,387.875,206.1,392.229,205.595,396.053z"/>
		</g>
		<g>
			<path style="fill:#A9312F;" d="M245.712,428.93c-0.168,4.858-0.337,9.717-0.529,14.575c-7.985-0.289-16.547-1.154-25.734-2.766     c1.996-5.892,4.45-11.665,6.975-17.1c1.227-2.646,2.549-5.316,4.642-7.336c2.116-2.02,5.147-3.319,7.985-2.621     c2.91,0.722,5.051,3.391,5.965,6.277C245.929,422.822,245.832,425.924,245.712,428.93z"/>
		</g>
		<g>
			<path style="fill:#A9312F;" d="M37.215,238.399c-0.15-8.725,0.395-17.444,2.694-25.951c4.113,1.034,8.225,2.164,12.314,3.391     c4.906,1.467,10.366,3.367,12.29,8.658C68.697,236.114,48.446,238.134,37.215,238.399z"/>
		</g>
		<g>
			<path style="fill:#A9312F;" d="M78.366,300.017c-1.708,2.429-4.161,4.209-6.662,5.82c-6.614,4.257-13.757,7.721-21.189,10.27     c-0.89-2.068-1.684-4.161-2.453-6.229c-2.14-5.82-3.944-11.761-5.435-17.798c6.758-1.203,13.516-3.151,20.203-4.762     c3.103-0.746,6.301-1.419,9.452-0.962c3.151,0.457,6.302,2.261,7.48,5.243C80.867,294.341,80.049,297.588,78.366,300.017z"/>
		</g>
		<g>
			<path style="fill:#A9312F;" d="M116.294,354.493c-0.12,2.477-1.347,4.762-2.67,6.879c-4.618,7.456-10.607,14.046-17.581,19.361     c-8.803-8.322-16.715-17.22-23.618-26.48c7.672-4.041,15.417-7.888,23.859-9.741c4.233-0.938,8.755-1.323,12.795,0.217     C113.095,346.291,116.486,350.163,116.294,354.493z"/>
		</g>
		<g style="opacity:0.48;">
			<g>
				<path style="fill:#A9312F;" d="M144.088,171.07c-0.295,1.118-0.531,2.243-0.671,3.337c-0.156,1.022-0.027,2.373,0.376,2.451      c0.082-0.017-0.038-0.038-0.011-0.073c0.014-0.015,0.164-0.129,0.281-0.298c0.255-0.321,0.507-0.777,0.72-1.252      c0.436-0.94,0.837-1.998,1.136-3.006l2.116-7.128l0.3,7.561c0.041,1.028,0.086,2.139,0.261,3.155      c0.164,0.989,0.481,2.051,0.841,2.492c0.214,0.22,0.135,0.196,0.386,0.208c0.132-0.03,0.048,0.085,0.224-0.187      c0.279-0.545,0.276-1.736,0.152-2.658l-0.261-1.949l1.697,0.669c0.536,0.212,1.41,0.337,2.167,0.334      c0.787,0.008,1.596-0.067,2.398-0.24c1.609-0.347,3.191-1.023,4.744-1.864c-0.587,0.656-1.229,1.281-1.952,1.82      c-0.724,0.533-1.51,1.007-2.358,1.38c-0.854,0.349-1.757,0.637-2.705,0.766c-0.974,0.109-1.864,0.16-3.004-0.101l1.435-1.28      c0.262,1.288,0.497,2.457,0.001,4.065c-0.141,0.397-0.405,0.841-0.812,1.208c-0.441,0.353-0.984,0.561-1.471,0.604      c-0.887,0.171-2.135-0.367-2.616-1.047c-1.086-1.334-1.244-2.607-1.453-3.825c-0.154-1.23-0.234-2.391-0.153-3.631l2.416,0.433      c-0.457,1.145-0.917,2.213-1.578,3.276c-0.332,0.526-0.691,1.048-1.222,1.557c-0.265,0.245-0.568,0.521-1.096,0.686      c-0.213,0.107-0.582,0.085-0.869,0.052c-0.27-0.076-0.552-0.221-0.748-0.379c-0.767-0.702-0.788-1.589-0.756-2.219      c0.054-0.663,0.247-1.246,0.441-1.814C142.857,173.048,143.428,172.025,144.088,171.07z"/>
			</g>
		</g>
		<g>
			<path style="fill:#97ECE2;" d="M194.546,349.209c-10.991,16.812-55.967,37.712-60.536,34.994     c-4.569-2.718,38.626-77.733,38.626-77.733s-72.465,21.021-76.241,16.884c-3.752-4.161,8.514-32.781,26.239-40.069     c17.124-7.023,45.649-6.398,47.597-6.35c0.385,6.374-0.895,16.838,7.522,21.215c5.604,2.91,20.834,2.427,20.305,2.499     C198.058,300.65,205.538,332.373,194.546,349.209z"/>
		</g>
		<g>
			<path style="fill:#97ECE2;" d="M288.536,221.823c0,0-1.287-5.251-5.718-5.251c-4.43,0-22.644,25.352-18.46,32.243     C268.543,255.707,290.315,257.101,288.536,221.823z"/>
		</g>
		<g>
			<path style="fill:#FFFFFF;" d="M192.286,299.698c-0.373,6.274-1.253,12.52-2.468,18.696c-1.21,6.18-2.853,12.27-4.726,18.285     c-1.933,5.998-4.291,11.862-7.01,17.545c-2.691,5.705-6.054,11.064-9.694,16.178c1.553-2.735,3.297-5.344,4.639-8.184     c0.715-1.393,1.486-2.755,2.165-4.164l1.962-4.263c2.505-5.727,4.852-11.533,6.672-17.521c1.965-5.938,3.577-11.99,4.994-18.089     c0.702-3.052,1.352-6.117,1.916-9.2C191.351,305.906,191.88,302.813,192.286,299.698z"/>
		</g>
		<g>
			<path style="fill:#FFFFFF;" d="M185.896,300.101c-2.653,7.63-5.583,15.166-8.738,22.607c-3.151,7.444-6.589,14.764-10.17,22.017     c-3.698,7.192-7.629,14.281-12.06,21.063c-4.443,6.72-9.439,13.354-16.064,18.056c1.483-1.377,3.093-2.602,4.449-4.085     c1.296-1.545,2.69-2.996,3.896-4.604l3.58-4.853l3.278-5.068c4.223-6.851,8.141-13.894,11.734-21.109     c3.667-7.177,7.078-14.485,10.422-21.825C179.535,314.943,182.787,307.556,185.896,300.101z"/>
		</g>
		<g>
			<path style="fill:#FFFFFF;" d="M96.492,316.107c4.615-5.098,9.929-9.562,15.604-13.478c5.66-3.95,11.774-7.239,18.108-9.984     c3.144-1.44,6.463-2.441,9.717-3.586c3.345-0.86,6.63-1.968,10.059-2.449c6.764-1.448,13.708-1.639,20.563-1.534     c-6.858,0.389-13.703,0.93-20.357,2.538c-3.359,0.632-6.612,1.693-9.9,2.602c-3.204,1.171-6.467,2.199-9.559,3.653     c-6.305,2.612-12.337,5.876-18.064,9.608c-2.866,1.863-5.661,3.839-8.362,5.945C101.587,311.507,98.944,313.701,96.492,316.107z"/>
		</g>
		<g>
			<path style="fill:#FFFFFF;" d="M109.247,323.046c4.532-3.835,9.305-7.385,14.226-10.718c4.909-3.352,10.025-6.402,15.264-9.229     c5.276-2.746,10.688-5.301,16.376-7.124c5.654-1.832,11.588-3.173,17.55-2.845l-4.425,0.378c-1.459,0.211-2.898,0.584-4.34,0.866     c-1.456,0.222-2.843,0.78-4.265,1.153c-1.424,0.378-2.812,0.871-4.184,1.416c-5.544,1.998-10.901,4.514-16.089,7.332     c-5.25,2.707-10.324,5.754-15.329,8.907C119.036,316.353,114.077,319.599,109.247,323.046z"/>
		</g>
		<g>
			<path style="fill:#FFFFFF;" d="M277.997,251.485c1.683-5.508,3.46-10.941,5.008-16.441c1.562-5.496,2.973-11.007,3.643-16.726     c0.229,2.881-0.051,5.782-0.475,8.639c-0.407,2.867-1.127,5.669-1.887,8.451c-0.797,2.773-1.708,5.509-2.766,8.19     C280.469,246.28,279.347,248.935,277.997,251.485z"/>
		</g>
		<g>
			<path style="fill:#FFFFFF;" d="M265.454,250.137c2.865-5.642,5.913-11.148,8.858-16.709c2.971-5.551,5.893-11.097,8.506-16.855     c-0.781,3.072-1.944,6.033-3.187,8.943c-1.232,2.92-2.674,5.739-4.144,8.539C272.48,239.618,269.205,245.036,265.454,250.137z"/>
		</g>
		<g>
			<path style="fill:#FFFFFF;" d="M226.342,218.318c-1.318,1.042-2.551,2.2-3.57,3.503c-0.967,1.272-1.811,2.954-1.11,4.288     c0.688,1.376,2.613,0.67,3.94-0.058c1.421-0.771,2.75-1.802,3.991-2.845l3.033-2.55l-2.184,3.313     c-1.013,1.536-1.935,3.202-2.576,4.915c-0.639,1.656-1.04,3.67-0.151,4.837c0.985,1.175,2.92,1.238,4.576,0.649     c1.69-0.575,3.315-1.581,4.732-2.707l1.848-1.469l-0.933,2.155c-0.684,1.58-1.274,3.26-1.663,4.944     c-0.364,1.661-0.598,3.501,0.119,4.941c0.342,0.698,1.026,1.238,1.804,1.4c0.775,0.184,1.632-0.038,2.39-0.433     c1.527-0.819,2.797-2.131,3.903-3.517c-0.953,1.504-2.123,2.917-3.682,3.911c-0.775,0.479-1.729,0.832-2.729,0.679     c-0.987-0.144-1.875-0.79-2.365-1.658c-0.961-1.775-0.729-3.751-0.443-5.525c0.314-1.813,0.887-3.528,1.599-5.226l0.914,0.686     c-1.539,1.258-3.182,2.317-5.088,3.007c-1.811,0.656-4.403,0.869-6.016-1.017c-0.747-0.969-0.833-2.168-0.731-3.181     c0.098-1.042,0.404-2,0.763-2.917c0.725-1.841,1.686-3.514,2.79-5.136l0.849,0.764c-1.331,1.113-2.737,2.08-4.307,2.849     c-0.791,0.365-1.61,0.715-2.548,0.806c-0.91,0.155-2.119-0.321-2.501-1.281c-0.428-0.884-0.332-1.915,0.023-2.722     c0.348-0.823,0.859-1.534,1.425-2.175C223.59,220.282,224.915,219.213,226.342,218.318z"/>
		</g>
		<g>
			<path style="fill:#FFFFFF;" d="M280.093,183.63c-1.064,1.022-2.057,2.126-2.858,3.338c-0.78,1.138-1.407,2.791-0.559,3.67     c0.38,0.391,1.093,0.372,1.749,0.216c0.666-0.156,1.333-0.417,1.975-0.738c1.287-0.624,2.525-1.427,3.685-2.261l2.726-1.961     l-1.947,2.758c-0.941,1.333-1.769,2.828-2.284,4.359c-0.531,1.511-0.646,3.219,0.252,4.267c0.816,1.048,2.478,0.429,3.81-0.413     c1.356-0.874,2.62-2.024,3.732-3.227l1.888-2.043l-0.855,2.634c-0.572,1.76-0.998,3.623-1.187,5.462     c-0.181,1.776-0.2,3.867,0.985,5.006c0.549,0.516,1.445,0.331,2.221-0.114c0.784-0.439,1.519-1.043,2.195-1.699     c1.369-1.305,2.562-2.808,3.709-4.338c-0.963,1.656-2.058,3.242-3.347,4.688c-0.646,0.719-1.333,1.427-2.201,1.957     c-0.784,0.523-2.109,0.964-3.107,0.16c-0.893-0.72-1.249-1.786-1.436-2.769c-0.177-1.001-0.203-2.006-0.131-2.987     c0.163-1.97,0.573-3.863,1.149-5.75l1.032,0.59c-1.184,1.32-2.447,2.512-3.945,3.518c-0.76,0.481-1.575,0.936-2.559,1.137     c-0.959,0.237-2.269-0.102-2.93-0.973c-1.356-1.698-0.998-3.881-0.417-5.496c0.608-1.697,1.48-3.208,2.528-4.648l0.779,0.798     c-1.268,0.841-2.561,1.583-3.96,2.187c-0.694,0.305-1.424,0.556-2.201,0.7c-0.738,0.128-1.726,0.193-2.413-0.518     c-0.645-0.701-0.622-1.667-0.376-2.402c0.246-0.755,0.657-1.406,1.116-1.999C277.828,185.549,278.917,184.527,280.093,183.63z"/>
		</g>
		<g>
			<path style="fill:#FFFFFF;" d="M230.128,271.579c-1.298,0.766-2.578,1.547-3.768,2.429c-0.596,0.433-1.183,0.883-1.678,1.393     c-0.492,0.486-0.963,1.089-1.002,1.58c-0.082,0.395,0.356,0.853,0.884,1.055c0.529,0.189,1.196,0.163,1.859,0.025     c1.328-0.306,2.673-0.971,3.872-1.701l4.171-2.539l-3.344,3.535c-0.758,0.8-1.497,1.682-2.137,2.587     c-0.59,0.911-1.223,1.909-1.258,2.857c-0.064,0.906,0.911,1.643,1.975,1.565c1.088-0.026,2.184-0.505,3.202-1.046     c-0.884,0.757-1.918,1.384-3.148,1.62c-1.209,0.309-2.885-0.554-2.96-2.1c-0.054-1.409,0.589-2.514,1.193-3.547     c0.645-1.026,1.368-1.955,2.2-2.843l0.827,0.995c-1.336,0.859-2.728,1.541-4.336,1.885c-0.797,0.154-1.698,0.209-2.577-0.159     c-0.436-0.192-0.817-0.488-1.119-0.853c-0.148-0.199-0.261-0.465-0.368-0.702c-0.049-0.257-0.059-0.549-0.036-0.804     c0.245-1.021,0.905-1.559,1.488-2.078c0.603-0.515,1.255-0.923,1.91-1.314C227.315,272.682,228.695,272.056,230.128,271.579z"/>
		</g>
	</g>
</g>















</svg>
