<?xml version="1.0" encoding="UTF-8"?>
<!-- Generator: Adobe Illustrator 25.2.3, SVG Export Plug-In . SVG Version: 6.00 Build 0)  -->
<svg xmlns="http://www.w3.org/2000/svg" xmlns:xlink="http://www.w3.org/1999/xlink" version="1.1" id="Capa_1" x="0px" y="0px" viewBox="0 0 512.195 512.195" style="enable-background:new 0 0 512.195 512.195;" xml:space="preserve" width="512" height="512">
<g>
	<g>
		<g>
			<g>
				<path style="fill:#FF983D;" d="M490.782,250.083c-4.118,0.287-8.075,0.697-11.085,1.702c-0.797,0.256-1.54,0.565-2.194,0.926      c-3.835,2.114-6.934,4.949-10.546,10.027c-3.752,5.257-8.068,12.881-14.354,24.556c-2.479,4.623-5.272,9.871-8.467,15.869      l0,0.018c-1.257,2.392-2.601,4.909-3.997,7.533c-22.361,42.002-63.845,14.307-63.845,14.307l8.012-11.3      c0,0,9.986,6.07,20.376,6.009c4.564-0.025,9.207-1.24,13.118-4.651c0.599-0.503,1.162-1.077,1.725-1.686      c7.542-8.383,11.984-25.316,18.746-41.169c3.094-7.293,6.704-14.343,11.339-20.248c2.141-2.755,4.533-5.264,7.195-7.42      c10.242-8.319,22.332-12.766,32.592-13.501l0.018,0c10.508-0.791,19.098,2.309,21.897,9.139      C515.128,249.501,502.356,249.3,490.782,250.083z"/>
			</g>
			<g style="opacity:0.2;">
				<path style="fill:#A9312F;" d="M490.782,250.083c-4.118,0.287-8.075,0.697-11.085,1.702c-0.797,0.256-1.54,0.565-2.194,0.926      c-3.835,2.114-6.934,4.949-10.546,10.027c-3.752,5.257-8.068,12.881-14.354,24.556c-2.479,4.623-5.272,9.871-8.467,15.869      l0,0.018c-1.257,2.392-2.601,4.909-3.997,7.533c-22.361,42.002-63.845,14.307-63.845,14.307l8.012-11.3      c0,0,9.986,6.07,20.376,6.009c4.564-0.025,9.207-1.24,13.118-4.651c0.599-0.503,1.162-1.077,1.725-1.686      c7.542-8.383,11.984-25.316,18.746-41.169c3.094-7.293,6.704-14.343,11.339-20.248c2.141-2.755,4.533-5.264,7.195-7.42      c10.242-8.319,22.332-12.766,32.592-13.501l0.018,0c10.508-0.791,19.098,2.309,21.897,9.139      C515.128,249.501,502.356,249.3,490.782,250.083z"/>
			</g>
		</g>
		<g>
			<path style="fill:#A9312F;" d="M490.782,250.083c-0.38-2.625,0.186-8.652,11.114-13.834c0,0-6.803-1.908-12.482-5.195     c10.671-1.358,19.263,1.821,22.062,8.651C515.294,249.013,503.238,251.429,490.782,250.083z"/>
		</g>
		<g>
			<path style="fill:#A9312F;" d="M479.697,251.785c-0.797,0.256-1.54,0.565-2.194,0.926c-3.835,2.114-6.934,4.949-10.546,10.027     c-2.172-2.484-3.749-5.898-0.1-8.845C471.317,250.3,476.652,250.943,479.697,251.785z"/>
		</g>
		<g>
			<path style="fill:#A9312F;" d="M449.96,268.581c-3.542,2.981-8.243,3.647-11.689,3.643c3.094-7.293,6.704-14.343,11.339-20.248     C451.735,257.001,454.172,265.025,449.96,268.581z"/>
		</g>
		<g>
			<path style="fill:#A9312F;" d="M452.604,287.295c-2.479,4.623-5.272,9.871-8.467,15.869c-1.152-3.559-2.41-8.93-1.025-12.726     C444.584,286.393,449.436,286.649,452.604,287.295z"/>
		</g>
		<g>
			<path style="fill:#A9312F;" d="M417.801,315.079c0.002,4.068-0.903,7.895-4.203,8.316c-3.637,0.46-6.729-1.554-8.915-3.665     C409.247,319.706,413.889,318.49,417.801,315.079z"/>
		</g>
	</g>
	<g>
		<path style="fill:#FF983D;" d="M390.524,287.127c-0.25-3.994-0.644-8.111-1.163-12.351c-0.634-5.145-1.448-10.484-2.512-16.016    c-0.057-0.355-0.113-0.691-0.187-1.046c-0.653-3.351-1.323-6.595-2.045-9.75c-1.407-6.133-2.935-11.909-4.567-17.346    c-1.008-3.365-2.051-6.588-3.128-9.704c-2.483-7.171-5.118-13.665-7.856-19.571c-2.139-4.616-4.327-8.859-6.513-12.746    c-2.673-4.717-5.341-8.938-7.969-12.679c-3.042-4.323-5.99-8.044-8.772-11.197c-10.071-11.451-17.748-15.607-17.749-15.607    c0.513-1.162,0.99-2.335,1.388-3.532c3.398-10.216,2.854-21.374-0.015-31.646c-0.793-2.838-1.733-5.644-2.956-8.328    c-1.147-2.517-2.76-4.696-4.365-6.935c-0.324-0.451-10.905-14.722-14.471-21.772c-3.633-7.117-6.497-16.546-10.987-16.252    c-4.035,0.273-12.021,10.022-12.717,20.107c-17.743-2.567-35.868-2.103-53.59,0.404c-0.638,0.09-1.274,0.18-1.911,0.281    l-0.322-0.233c-1.373-1.098-3.172-2.713-3.392-2.896c-2.749-2.465-4.665-5.946-7.164-8.649c-3.621-3.954-8.776-6.514-14.278-4.696    c-0.352,0.121-0.653,0.309-0.937,0.581c-0.717,0.68-1.228,1.846-1.567,3.329c-1.212,5.328-0.031,14.689,2.627,20.115    c0.052,0.117,0.103,0.235,0.171,0.335c-10.096,5.327-16.424,12.402-20.355,20.212c-0.281,0.524-0.528,1.082-0.775,1.622    c-1.023,2.214-1.843,4.493-2.528,6.771c-0.032,0.118-0.065,0.219-0.081,0.32c-0.342,1.164-0.635,2.328-0.893,3.491    c-0.129,0.556-0.243,1.079-0.338,1.635c-0.53,2.731-0.891,5.493-1.135,8.221c-0.014,0.303-0.045,0.606-0.059,0.909    c-0.014,0.32-0.045,0.623-0.042,0.926c-0.104,1.448-0.108,2.878-0.078,4.241c0.018,0.084,0.001,0.135,0.019,0.219    c0.033,1.716,0.166,3.38,0.35,5.011c0.074,0.723,0.182,1.445,0.306,2.151c1.253,8.132,4.157,14.582,6.926,19.251l0,0    c1.215,2.648,4.25,8.097,12.551,12.668c-12.699,12.286-18.161,32.278-18.161,32.278l10.511,1.465l51.017,91.993l45.728,61.989    c0,0,41.815,44.193,62.783,29.912c9.054-6.177,20.249-17.098,28.757-34.211c2.319-4.675,4.438-9.81,6.251-15.422    c2.521-7.803,4.481-16.56,5.58-26.322c0.46-3.983,0.777-8.124,0.932-12.46C391.054,300.178,390.977,293.837,390.524,287.127z"/>
	</g>
	<g>
		<g>
			<g>
				<path style="fill:#FF983D;" d="M179.813,318.142c0,0-23.451,22.528-3.545,54.792c19.906,32.265,39.544,35.8,39.544,35.8      s-14.588,30.558-12.826,38.316c1.762,7.758,8.826,3.974,10.816-0.101c1.99-4.075,11.806-32.686,14.531-36.642      c4.785-6.944-3.168-13.491-3.168-13.491s36.999-19.612,34.723-46.295C257.611,323.839,194.647,313.948,179.813,318.142z"/>
			</g>
			<g style="opacity:0.4;">
				<path style="fill:#A9312F;" d="M179.813,318.142c0,0-23.451,22.528-3.545,54.792c19.906,32.265,39.544,35.8,39.544,35.8      s-14.588,30.558-12.826,38.316c1.762,7.758,8.826,3.974,10.816-0.101c1.99-4.075,11.806-32.686,14.531-36.642      c4.785-6.944-3.168-13.491-3.168-13.491s36.999-19.612,34.723-46.295C257.611,323.839,194.647,313.948,179.813,318.142z"/>
			</g>
		</g>
		<g>
			<path style="fill:#A9312F;" d="M210.67,450.399c-0.707-0.755-1.156-1.663-1.476-2.599c-0.33-0.939-0.475-1.93-0.521-2.927     c-0.044-1.977,0.479-4.086,1.894-5.58c0.068,1.038,0.01,1.94,0.034,2.853c0.02,0.904-0.002,1.786,0.047,2.677     C210.668,446.612,210.787,448.376,210.67,450.399z"/>
		</g>
	</g>
	<g>
		<g>
			<path style="fill:#FFC38E;" d="M273.66,331.227c-10.627,14.606-13.465,44.093-13.465,44.093c-0.041-0.02-0.082-0.06-0.123-0.08     c-5.735-4.036-12.559-7.126-19.29-8.895c-9.443-2.496-18.923-0.149-28.397,0.611c-9.881,0.784-19.973,0.735-29.6-1.799     c-17.439-4.578-32.131-15.754-45.284-27.655c-27.209-24.67-41.126-90.198,20.107-121.715c9.011-4.642,17.606-8.038,25.763-10.352     c0.02,0,0.02,0,0.02,0c47.28-13.523,80.044,9,95.016,37.06C295.471,274.502,282.84,318.608,273.66,331.227z"/>
		</g>
		<g style="opacity:0.48;">
			<path style="fill:#E54949;" d="M167.883,234.248c-0.301,0.127-0.601,0.272-0.902,0.417c-0.531,0.236-1.061,0.472-1.592,0.708     c-1.716,0.726-3.398,1.346-5.045,1.859c-0.62,0.201-1.24,0.384-1.842,0.55c-7.76,2.133-14.051,1.747-15.502-1.419     c-1.269-2.759,1.427-6.923,6.541-10.931c0.829-0.647,1.711-1.277,2.664-1.925c0.83-0.54,1.695-1.099,2.614-1.623     c1.289-0.758,2.668-1.499,4.118-2.188c0.318-0.163,0.637-0.308,0.955-0.453c11.284-5.185,22.023-5.942,23.98-1.698     C185.777,221.701,178.67,229.05,167.883,234.248z"/>
		</g>
		<g>
			<path style="fill:#67DCBC;" d="M173.425,231.259c0,0-18.99-56.161-15.166-75.782c4.198-21.542,21.423-34.651,6.062-37.516     c-15.361-2.866-16.838,30.163-14.876,49.18c1.962,19.017,22.374,65.034,22.374,65.034L173.425,231.259z"/>
		</g>
		<g>
			<path style="fill:#67DCBC;" d="M157.299,238.095c0,0-39.864-23.802-59.988-32.475c-20.123-8.673-63.231-16.077-81.205,2.234     c-17.973,18.312,0.616,43.455,15.584,42.261s6.87-32.461,37.673-32.478s82.912,21.342,82.912,21.342l1.151-0.111     c0.685-0.066,1.365-0.179,2.035-0.337L157.299,238.095z"/>
		</g>
		<g>
			<path style="fill:#67DCBC;" d="M167.883,234.248c-0.301,0.127-0.601,0.272-0.902,0.417c-0.531,0.236-1.061,0.472-1.592,0.708     c-3.717-4.37-7.241-8.884-10.57-13.489C106.096,154.86,94.787,67.772,112.38,70.628c19.532,3.157,17.052,26.768,20.504,73.094     c2.19,29.145,16.068,58.34,26.055,75.973C162.802,226.48,166.064,231.547,167.883,234.248z"/>
		</g>
		<g>
			<path style="fill:#67DCBC;" d="M160.345,237.231c-0.62,0.201-1.24,0.384-1.842,0.55c-2.881-4.183-5.868-8.293-8.961-12.35     c-11.473-15.133-24.306-29.365-38.402-41.951c-25.254-22.5-57.909-34.878-90.271-42.515     c-10.307-2.426-24.871-8.098-19.844-21.431c4.454-11.853,18.198-12.301,28.854-10.535c14.534,2.404,28.318,8.262,40.561,16.425     c13.101,8.776,23.906,20.789,34.069,32.542c10.361,12.017,19.964,24.698,29.108,37.668c6.426,9.141,12.623,18.444,18.59,27.873     c0.793,1.236,1.586,2.49,2.362,3.726C154.91,227.779,158.072,233.487,160.345,237.231z"/>
		</g>
	</g>
	<g>
		<path style="fill:#FF983D;" d="M363.766,383.344c-24.133,27.276-59.282,12.222-59.282,12.222s-1.973,16.179-16.413,16.213    c-7.326,0.017-9.258-3.434-10.63-7.755l0-0.018c-1.373-4.339-1.214-10.166-2.484-16.922c-2.319-12.518-8.192-38.449-8.031-47.882    c-0.007-0.746,0.041-1.386,0.142-1.902c1.265-7.17,9.462-8.152,13.461-2.15c5.188,7.785,9.099,25.279,9.099,25.279    c-2.333-57.793,17.306-71.759,47.256-65.698C366.851,300.812,387.917,356.068,363.766,383.344z"/>
	</g>
	<g>
		<path style="fill:#A9312F;" d="M295.82,80.957l-4.72,1.157c-4.019-1.05-6.997-1.342-7.153-1.367    c0-11.503,8.671-19.818,12.718-20.094l0.011-0.002c0.876,2.197,1.906,4.829,1,10.912c-0.093,0.598-0.142,1.178-0.169,1.744    L295.82,80.957z"/>
	</g>
	<g>
		<path style="fill:#A9312F;" d="M211.909,83.654l-4.504,3.798c-1.492,0.654-2.734,1.346-3.827,1.879    c-4.225-5.09-4.216-15.3-3.006-20.628c0.333-1.486,1.065-2.474,1.778-3.158c0,0,2.174,0.742,4.284,5.52    c0.767,1.744,1.454,3.417,2.227,4.949L211.909,83.654z"/>
	</g>
	<g style="opacity:0.48;">
		<path style="fill:#E54949;" d="M273.539,130.95c-2.403,2.435-2.4,7.209,0.775,9.467c4.251,3.022,11.723,2.083,14.922-2.157    c2.702-3.58,0.339-9.756-3.011-10.723c-2.832-0.816-5.725-0.358-8.338,0.742C276.673,128.79,274.886,129.585,273.539,130.95z"/>
	</g>
	<g style="opacity:0.48;">
		<path style="fill:#E54949;" d="M210.273,131.465c2.478,2.379,2.622,7.199-0.481,9.584c-4.155,3.194-11.654,2.496-14.984-1.678    c-2.812-3.524-0.642-9.839,2.677-10.927c2.805-0.92,5.712-0.554,8.358,0.47C207.074,129.39,208.885,130.132,210.273,131.465z"/>
	</g>
	<g>
		<path style="fill:#A9312F;" d="M261.11,79.051c-0.808,1.522-1.546,3.084-2.246,4.447c-1.38,2.66-2.61,5.409-3.746,8.188    c-0.862,2.081-2.522,4.212-4.876,4.667c-2.958,0.594-5.75-1.166-7.398-3.533c-2.062-2.938-2.342-6.58-2.02-10.067    c0.085-0.948,0.241-1.976,0.425-2.908C241.248,79.845,251.551,78.321,261.11,79.051z"/>
	</g>
	<g>
		<path style="fill:#A9312F;" d="M178.607,123.374c6.489,5.216,14.288,10.334,8.349,11.667c-3.169,0.706-6.556-0.174-9.595-1.593    C177.361,133.448,177.124,128.979,178.607,123.374z"/>
	</g>
	<g>
		<path style="fill:#A9312F;" d="M177.293,137.68c6.346,1.373,12.543,3.309,8.954,5.723c-2.035,1.369-5.24,1.728-8.292,1.669    C177.955,145.072,177.269,142.82,177.293,137.68z"/>
	</g>
	<g>
		<path style="fill:#A9312F;" d="M179.846,118.264c1.814,1.272,3.738,2.236,5.526,2.387c4.146,0.354,0.956-4.615-2.932-9.475    C182.44,111.176,180.122,115.277,179.846,118.264z"/>
	</g>
	<g>
		<path style="fill:#A9312F;" d="M278.535,80.057c-2.298,3.1-4.545,6.274-6.411,6.777c-4.642,1.271-6.928-2.857-4.753-7.618    C267.37,79.216,272.754,79.011,278.535,80.057z"/>
	</g>
	<g>
		<path style="fill:#A9312F;" d="M239.263,80.108c-1.29,2.082-2.602,3.847-3.942,4.365c-3.621,1.408-6.675-0.993-5.868-3.18    C229.453,81.292,237.422,80.03,239.263,80.108z"/>
	</g>
	<g style="opacity:0.48;">
		<path style="fill:#A9312F;" d="M192.023,173.348c1.398,0.966,2.792,1.931,4.226,2.823c0.71,0.456,1.431,0.891,2.164,1.292    c0.728,0.392,1.499,0.768,2.229,0.932l0.214,0.048l0.093,0.224c0.271,0.654,0.591,1.327,0.98,1.906    c0.364,0.572,0.938,1.107,1.274,1.015c0.159-0.039,0.211-0.063,0.265-0.35c0.034-0.268-0.009-0.61-0.078-0.943    c-0.143-0.673-0.411-1.369-0.69-2.013l-0.843-1.946l1.636,1.332c0.602,0.49,1.257,0.962,1.922,1.377    c0.666,0.411,1.363,0.793,2.057,0.995c0.343,0.106,0.696,0.145,0.933,0.065c0.271-0.092,0.446-0.23,0.439-0.435    c0.014-0.516-0.523-1.259-1.021-1.777l-0.775-0.805l1.075,0.179c1.318,0.22,2.674,0.332,4.02,0.411    c1.351,0.075,2.706,0.046,4.057-0.146c-1.311,0.394-2.69,0.526-4.059,0.597c-1.375,0.055-2.741-0.009-4.122-0.142l0.3-0.626    c0.328,0.301,0.609,0.61,0.871,0.971c0.246,0.365,0.505,0.77,0.529,1.354c0.002,0.288-0.113,0.63-0.328,0.842    c-0.102,0.117-0.213,0.21-0.329,0.27c-0.112,0.076-0.232,0.139-0.369,0.173c-0.538,0.179-1.033,0.097-1.463-0.011    c-0.877-0.224-1.625-0.628-2.34-1.062c-0.718-0.439-1.389-0.91-2.052-1.438l0.793-0.614c0.332,0.726,0.586,1.448,0.755,2.245    c0.074,0.402,0.139,0.814,0.076,1.293c-0.029,0.126-0.054,0.25-0.096,0.376c-0.069,0.131-0.121,0.267-0.225,0.384    c-0.212,0.249-0.515,0.394-0.801,0.427c-0.594,0.083-1.088-0.229-1.406-0.516c-0.329-0.302-0.565-0.637-0.785-0.975    c-0.421-0.686-0.743-1.38-0.999-2.131l0.305,0.272c-0.914-0.269-1.653-0.71-2.391-1.16c-0.729-0.458-1.432-0.945-2.121-1.448    C194.59,175.577,193.269,174.506,192.023,173.348z"/>
	</g>
	<g>
		<g>
			<g>
				<path style="fill:#FFFFFF;" d="M291.076,123.564c-5.09,3.92-13.323,5.593-19.462,3.594c-1.311-0.428-2.543-1.042-3.664-1.871      c-4.854-3.627-7.858-10.307-8.216-16.309c-0.019-0.138-0.026-0.277-0.034-0.417c-0.25-6.064,2.912-11.744,8.032-14.942      c5.993-3.74,15.139-5.41,21.136-0.875c2.366,1.793,4.3,4.359,5.664,7.296l0.011-0.002      C298.206,107.856,297.89,118.306,291.076,123.564z"/>
			</g>
			<g>
				<path style="fill:#A9312F;" d="M291.076,123.564c-2.876,2.36-6.362,3.526-9.918,4.194c-1.786,0.323-3.612,0.45-5.433,0.347      c-1.82-0.093-3.648-0.416-5.374-1.094c-1.731-0.672-3.29-1.777-4.607-3.07c-1.331-1.292-2.471-2.774-3.428-4.363      c-1.905-3.186-3.096-6.798-3.448-10.548l0.007,0.066c-0.396-4.489,1.014-8.917,3.809-12.352      c1.385-1.704,3.074-3.194,4.983-4.268c1.879-1.093,3.883-1.939,5.966-2.521c4.138-1.128,8.75-1.255,12.793,0.557      c2.022,0.884,3.752,2.316,5.134,3.94c1.401,1.628,2.499,3.476,3.346,5.414l-0.43-0.235l0.011-0.001l0.299-0.033l0.12,0.269      c0.87,1.99,1.48,4.083,1.811,6.212c0.322,2.13,0.389,4.296,0.155,6.428c-0.24,2.131-0.826,4.222-1.771,6.14      C294.15,120.561,292.779,122.272,291.076,123.564z M291.076,123.564c1.689-1.31,3.038-3.031,3.962-4.947      c0.94-1.915,1.429-4.023,1.607-6.133c0.357-4.237-0.626-8.519-2.476-12.271l0.429,0.233l-0.011,0.002l-0.271,0.07l-0.16-0.304      c-0.914-1.826-2.058-3.535-3.45-4.992c-1.39-1.466-3.015-2.664-4.856-3.355c-3.692-1.4-7.877-1.174-11.678-0.021      c-3.826,1.153-7.436,3.144-9.917,6.176c-0.62,0.758-1.166,1.573-1.651,2.423c-0.454,0.865-0.878,1.751-1.189,2.68      c-0.307,0.928-0.563,1.88-0.685,2.854c-0.09,0.484-0.098,0.976-0.146,1.465c0.003,0.469-0.029,1.023,0.007,1.414l0.007,0.067      c0.144,3.468,1.085,6.96,2.739,10.073c0.83,1.556,1.841,3.02,3.043,4.313c1.198,1.301,2.597,2.406,4.212,3.133      c3.244,1.457,6.99,1.684,10.538,1.151C284.693,127.065,288.171,125.725,291.076,123.564z"/>
			</g>
		</g>
		<g>
			<path style="fill:#A9312F;" d="M278.551,122.955c4.842,0.041,9.894-2.501,12.203-6.867c3.677-6.955,0.379-16.574-6.842-19.609     c-3.877-1.63-8.838-1.414-12.488,0.721c-9.754,5.706-6.764,21.368,3.226,25.068C275.88,122.724,277.204,122.944,278.551,122.955z     "/>
		</g>
		<g style="opacity:0.21;">
			<path style="fill:#A9312F;" d="M294.531,100.04c-22.26-7.023-33.459,7.103-34.798,8.937c-0.019-0.138-0.026-0.277-0.034-0.417     c-0.25-6.064,2.912-11.744,8.032-14.942c5.993-3.74,15.139-5.41,21.136-0.875C291.233,94.536,293.166,97.103,294.531,100.04z"/>
		</g>
	</g>
	<g>
		<g>
			<g>
				<path style="fill:#FFFFFF;" d="M220.602,116.585c-1.988,5.202-7.8,7.875-12.994,8.404c-0.717,0.063-1.43,0.068-2.13,0.001      c-8.466-0.789-14.821-11.232-12.85-19.44c0.188-0.845,0.484-1.67,0.867-2.46c3.38-6.903,13.93-10.791,20.885-7.208      c1.678,0.881,2.905,2.479,3.84,4.083c0.642,1.094,1.223,2.336,1.71,3.662C221.484,107.779,222.083,112.718,220.602,116.585z"/>
			</g>
			<g>
				<path style="fill:#A9312F;" d="M220.602,116.586c-0.702,1.836-1.918,3.456-3.438,4.705c-1.515,1.254-3.268,2.224-5.13,2.881      c-0.93,0.334-1.881,0.617-2.852,0.819c-0.966,0.208-1.961,0.368-2.973,0.367c-2.017-0.042-4.041-0.548-5.834-1.519      c-3.614-1.927-6.314-5.298-7.85-9.09c-0.745-1.913-1.216-3.96-1.25-6.059l0.076-1.574c0.059-0.521,0.165-1.038,0.248-1.558      c0.187-1.035,0.549-2.072,1.023-3.019c1.982-3.834,5.59-6.419,9.454-7.737c3.865-1.295,8.271-1.427,11.998,0.381      c1.946,0.855,3.27,2.595,4.239,4.301c0.989,1.736,1.682,3.605,2.229,5.497c0.543,1.896,0.875,3.852,0.931,5.818      C221.536,112.759,221.312,114.751,220.602,116.586z M220.602,116.586c1.347-3.727,0.876-7.846-0.337-11.519      c-0.621-1.85-1.455-3.627-2.51-5.243c-1.055-1.598-2.365-3.076-4.112-3.696c-3.492-1.431-7.504-1.013-10.953,0.348      c-3.454,1.358-6.607,3.775-8.22,6.984c-0.411,0.8-0.718,1.63-0.89,2.523c-0.074,0.448-0.175,0.893-0.233,1.343l-0.085,1.364      c-0.011,1.83,0.312,3.683,0.927,5.443c1.199,3.513,3.465,6.825,6.697,8.813c1.601,1.006,3.44,1.598,5.339,1.766      c0.951,0.063,1.914-0.026,2.875-0.169c0.96-0.138,1.916-0.339,2.841-0.644c1.854-0.582,3.642-1.449,5.172-2.669      C218.642,120.009,219.875,118.413,220.602,116.586z"/>
			</g>
		</g>
		<g>
			<path style="fill:#A9312F;" d="M202.036,118.499c0.367,0.242,3.932,3.724,10.589,0.821c6.658-2.902,4.894-11.701,3.518-14.489     c-1.377-2.788-5.674-8.371-13.306-5.335C195.205,102.533,195.728,114.331,202.036,118.499z"/>
		</g>
		<g style="opacity:0.21;">
			<path style="fill:#A9312F;" d="M219.929,103.627c-9.899-4.302-21.444-0.592-27.301,1.923c0.188-0.845,0.484-1.67,0.867-2.46     c3.38-6.903,13.93-10.791,20.885-7.208c1.678,0.881,2.905,2.479,3.84,4.083C218.862,101.058,219.442,102.301,219.929,103.627z"/>
		</g>
	</g>
	<g>
		<path style="fill:#A9312F;" d="M327.683,108.398c-18.154,13.598-26.097,1.313-18.41-1.853c5.15-2.125,9.709-5.657,12.705-8.036    C324.461,101.491,326.366,104.787,327.683,108.398z"/>
	</g>
	<g>
		<path style="fill:#A9312F;" d="M331.619,126.016c-6.799,3.664-15.411,6.309-22.62,4.2c-2.72-0.796-5.241-3.035-4.663-5.725    c0.238-1.075,0.968-2.065,1.903-2.837c2.762-2.3,6.845-3.167,10.39-4.03c4.031-0.989,8.663-3.394,12.247-5.585    C328.875,112.038,331.665,119.572,331.619,126.016z"/>
	</g>
	<g>
		<path style="fill:#A9312F;" d="M331.858,131.32c-0.043,4.957-0.8,9.743-2.337,14.309c-4.784,1.467-10.192,1.041-14.743-0.895    c-2.028-0.868-3.93-2.444-3.771-4.853c0.205-3.188,4.307-4.082,6.831-4.371C324.684,134.731,329.398,132.666,331.858,131.32z"/>
	</g>
	<g>
		<g>
			<path style="fill:#A9312F;" d="M179.983,143.28c2.885-1.511,5.88-2.729,8.901-3.875c3.032-1.117,6.092-2.16,9.262-2.907     c-2.884,1.513-5.879,2.731-8.901,3.875C186.212,141.488,183.152,142.531,179.983,143.28z"/>
		</g>
		<g>
			<path style="fill:#A9312F;" d="M177.385,135.649c3.052-0.763,6.141-1.215,9.239-1.591c3.101-0.345,6.211-0.612,9.358-0.565     c-3.052,0.765-6.141,1.217-9.239,1.591C183.641,135.427,180.531,135.694,177.385,135.649z"/>
		</g>
		<g>
			<path style="fill:#A9312F;" d="M178.499,125.703c3.077,0.657,6.05,1.609,8.997,2.634c2.937,1.054,5.848,2.182,8.653,3.607     c-3.078-0.655-6.051-1.607-8.997-2.633C184.216,128.255,181.305,127.127,178.499,125.703z"/>
		</g>
	</g>
	<g>
		<path style="fill:#FFFFFF;" d="M293.485,79.117c0,0-2.249,0.158-2.918-0.277c-0.68-0.433,2.743-0.987,2.743-0.987    c-1.813-0.499-3.491-2.316-2.91-2.432c0.591-0.128,2.795,1.09,2.795,1.09c-2.499-2.758-1.649-7.557,0.7-7.576    c1.005-0.009,2.376,2.037,3.611,4.372c-0.449,8.384,5.284,13.717,6.285,14.351c-4.11-2.817-8.865-4.538-12.691-5.544    C291.447,80.381,293.485,79.117,293.485,79.117z"/>
	</g>
	<g style="opacity:0.06;">
		<path style="fill:#A9312F;" d="M273.66,331.227c-10.627,14.606-13.465,44.093-13.465,44.093c-0.041-0.02-0.082-0.06-0.123-0.08    c0.182-15.363-9.506-32.212,6.577-64.824c16.084-32.615-2.609-66.264-25.135-77.166c-21.607-10.458-49.358-5.077-49.358-5.077    c11.323-21.852,0.753-21.037-8.765-22.739c47.28-13.523,80.044,9,95.016,37.06C295.471,274.502,282.84,318.608,273.66,331.227z"/>
	</g>
	<g>
		<path style="fill:#FFFFFF;" d="M207.405,87.451c0.067-1.894,1.655-4.723,1.798-4.965c-0.142,0.078-1.633,0.974-2.426,0.662    c-0.83-0.331,1.668-1.74,1.668-1.74s-2.011,0.441-2.256-0.146c-0.255-0.574,1.835-0.698,1.835-0.698    c-1.581-0.683-4.769-4.283-3.098-5.578c1.09-0.841,2.836,0.195,3.934,1.027c1.833,3.622,4.176,6.437,9.449,7.501    C218.31,83.515,212.301,85.606,207.405,87.451z"/>
	</g>
	<g>
		<g>
			<path style="fill:#A9312F;" d="M239.15,112.443c0,0-3.253-3.554-4.766-2.774c-1.513,0.78,3.383,6.164,5.156,6.586     c1.774,0.423,5.24-5.826,4.231-6.926C242.762,108.229,239.15,112.443,239.15,112.443z"/>
		</g>
		<g>
			<path style="fill:#A9312F;" d="M246.277,136.737c-0.695-1.711-1.319-3.447-1.971-5.173l-1.828-5.223     c-0.61-1.742-1.159-3.503-1.717-5.264c-0.531-1.773-1.067-3.53-1.475-5.376l1.011,0.002c-0.703,3.492-1.319,7.014-1.912,10.533     c-0.29,1.761-0.562,3.526-0.779,5.297c-0.249,1.769-0.427,3.545-0.559,5.333c-0.098-1.791-0.02-3.587,0.062-5.38     c0.112-1.792,0.302-3.576,0.497-5.359c0.407-3.567,0.997-7.102,1.68-10.63l0.478-2.466l0.533,2.468     c0.379,1.756,0.9,3.535,1.405,5.298l1.539,5.304l1.551,5.306C245.278,133.185,245.806,134.952,246.277,136.737z"/>
		</g>
		<g style="opacity:0.48;">
			<path style="fill:#A9312F;" d="M231.846,117.266c-2.87,0.848-5.555,2.815-7.058,5.72c-2.177,4.212-2.337,9.344,0.98,12.855     c2.058,2.179,4.838,3.266,7.601,3.862c5.297,1.142,10.638,1.902,15.887,0.103c1.904-0.653,3.764-1.601,5.257-3.094     c2.288-2.287,3.559-5.827,3.332-9.28c-0.228-3.454-1.949-6.74-4.512-8.614c-3.153-2.306-7.69-2.83-11.362-2.57     C238.701,116.48,235.002,116.334,231.846,117.266z"/>
		</g>
	</g>
	<g>
		<g>
			<path style="fill:#A9312F;" d="M290.574,138.296c3.254-0.136,6.482,0.041,9.704,0.294c3.219,0.284,6.431,0.647,9.617,1.324     c-3.254,0.138-6.482-0.039-9.703-0.294C296.973,139.333,293.76,138.971,290.574,138.296z"/>
		</g>
		<g>
			<path style="fill:#A9312F;" d="M310.333,131.865c-3.017,0.893-6.084,1.477-9.162,1.986c-3.083,0.478-6.179,0.878-9.325,0.966     c3.017-0.896,6.083-1.48,9.162-1.986C304.091,132.356,307.188,131.955,310.333,131.865z"/>
		</g>
		<g>
			<path style="fill:#A9312F;" d="M306.571,122.59c-2.317,2.129-4.814,4.002-7.355,5.813c-2.559,1.785-5.164,3.505-7.95,4.968     c2.316-2.131,4.813-4.004,7.355-5.813C301.181,125.775,303.786,124.055,306.571,122.59z"/>
		</g>
	</g>
	<g style="opacity:0.48;">
		<path style="fill:#A9312F;" d="M290.41,180.153c1.348-0.863,2.705-1.706,4.027-2.599c1.327-0.883,2.655-1.766,3.894-2.743    l0.797-0.628l-0.21,1.021c-0.088,0.43-0.144,0.9-0.135,1.331c-0.002,0.424,0.119,0.872,0.278,0.967    c0.054,0.048,0.211,0.071,0.316,0.043c0.071-0.012,0.209-0.109,0.329-0.258c0.246-0.299,0.451-0.709,0.626-1.123    c0.343-0.843,0.616-1.745,0.832-2.657c0.212-0.904,0.402-1.859,0.469-2.733l0.133-1.727l0.836,1.509    c0.341,0.617,0.757,1.243,1.219,1.764c0.458,0.52,1.044,0.949,1.402,0.774c0.433-0.138,0.81-0.807,1.021-1.462    c0.219-0.669,0.364-1.407,0.448-2.115l0.037-0.311l0.283-0.057c1.658-0.338,3.323-0.903,4.888-1.621    c0.795-0.342,1.564-0.744,2.309-1.191c0.751-0.44,1.45-0.959,2.146-1.493c-1.22,1.261-2.681,2.29-4.228,3.143    c-1.569,0.828-3.205,1.489-4.954,1.948l0.32-0.368c-0.04,0.8-0.152,1.565-0.386,2.341c-0.118,0.386-0.266,0.772-0.492,1.148    c-0.223,0.367-0.551,0.758-1.06,0.956c-0.244,0.094-0.535,0.131-0.812,0.083c-0.268-0.048-0.495-0.152-0.694-0.268    c-0.395-0.238-0.697-0.53-0.976-0.829c-0.548-0.609-0.981-1.249-1.381-1.952l0.969-0.217c-0.08,1.036-0.29,1.961-0.518,2.919    c-0.241,0.946-0.512,1.888-0.923,2.805c-0.213,0.457-0.441,0.914-0.816,1.348c-0.191,0.208-0.435,0.444-0.837,0.535    c-0.36,0.067-0.718,0.017-1.05-0.227c-0.6-0.546-0.556-1.178-0.565-1.68c0.021-0.526,0.106-1.009,0.237-1.51l0.588,0.393    c-1.33,0.925-2.699,1.761-4.099,2.543C293.272,178.72,291.862,179.478,290.41,180.153z"/>
	</g>
	<g style="opacity:0.48;">
		<g>
			<path style="fill:#A9312F;" d="M348.44,300.717c-3.753-3.005-8.252-4.863-12.883-5.787c-4.626-0.974-9.418-1.104-14.074-0.452     c-4.636,0.692-9.229,2.005-13.217,4.401c-1.939,1.255-3.822,2.631-5.304,4.378l-1.115,1.301c-0.348,0.461-0.654,0.968-0.982,1.45     c-0.657,0.968-1.307,1.94-1.835,2.991c-4.689,8.168-6.81,17.623-7.954,27.035c-0.589,4.724-0.893,9.493-1.024,14.27     c-0.197,4.779-0.136,9.568-0.098,14.364c-0.932-9.542-1.235-19.18-0.39-28.794c0.851-9.574,3.002-19.255,7.749-27.849     c0.565-1.086,1.258-2.098,1.959-3.105c0.353-0.503,0.675-1.02,1.053-1.509l1.238-1.415c1.652-1.891,3.697-3.35,5.79-4.662     c4.29-2.471,9.099-3.877,13.948-4.358c4.851-0.489,9.773-0.179,14.477,1.017C340.44,295.25,344.974,297.365,348.44,300.717z"/>
		</g>
	</g>
	<g style="opacity:0.2;">
		<path style="fill:#A9312F;" d="M277.441,404.025l0-0.018c-0.842-2.674-1.103-5.922-1.475-9.613    c-0.252-2.271-0.523-4.72-1.009-7.309c-1.795-9.664-5.69-27.336-7.311-39.221c-0.477-3.512-0.753-6.512-0.72-8.661    c0.963-1.537,2.99-3.207,7.131-2.944c7.429,0.464,13.088,30.251,14.763,40.36C290.456,386.461,293.03,416.81,277.441,404.025z"/>
	</g>
	<g>
		<g>
			<path style="fill:#FF983D;" d="M358.101,223.38c-0.124,5.809-1.351,11.291-3.059,14.877c0,0.018-0.018,0.018-0.018,0.018     c-1.742,3.711-4.077,8.51-7.335,13.354c-3.644,5.434-8.442,10.931-14.886,15.059c-0.177,0.126-0.353,0.234-0.53,0.325     c-3.814,2.38-8.184,4.268-13.218,5.381c-2.322,0.501-4.788,0.862-7.397,1.01c-3.053,0.188-5.914,0.109-8.581-0.186     c-12.108-1.255-20.329-6.702-25.076-11.063c-3.421-3.094-5.044-5.637-5.044-5.637s-17.081,19.662-32.696,13.697     c-2.21-0.832-3.502-2.188-4.068-3.887c-2.374-6.958,7.328-19.837,16.698-28.344c0.282-0.251,0.546-0.503,0.828-0.754     c6.552-5.976,12.766-11.931,20.097-14.397c0.035-0.018,0.071-0.036,0.106-0.036c3.205-1.06,6.629-1.465,10.383-0.878     c0.107,0.017,0.231,0.033,0.356,0.068c1.815,0.285,3.702,0.818,5.681,1.617c0.16,0.052,0.321,0.121,0.481,0.191     c0,0,0,0,0.018-0.018c0.597-0.787,19.703-26.169,44.844-27.221C353.279,195.823,358.424,210.447,358.101,223.38z"/>
		</g>
		<g style="opacity:0.48;">
			<g>
				<path style="fill:#A9312F;" d="M297.476,226.805c-2.86-1.284-5.773-2.435-8.774-3.236c-2.969-0.857-6.043-1.46-9.05-1.309      c-1.51,0.039-2.941,0.363-4.306,0.875c-1.366,0.565-2.712,1.312-4.026,2.107c-2.648,1.569-5.187,3.375-7.683,5.22      c-4.991,3.704-9.78,7.701-14.327,11.946c-2.241,2.151-4.479,4.329-6.456,6.724c-2.014,2.355-3.952,4.825-5.215,7.709      c1.963-6.056,6.363-10.921,10.6-15.512c4.362-4.566,9.181-8.658,14.222-12.455c2.563-1.846,5.14-3.674,7.917-5.244      c1.39-0.782,2.809-1.524,4.358-2.111c1.57-0.56,3.262-0.832,4.886-0.772C286.176,220.923,292.119,223.607,297.476,226.805z"/>
			</g>
		</g>
		<g style="opacity:0.48;">
			<g>
				<path style="fill:#A9312F;" d="M358.193,216.115c0.384,3.741,0.259,7.521-0.138,11.275c-0.4,3.759-1.252,7.468-2.421,11.072      l0.034-0.204c0.006,0.107-0.043,0.321-0.195,0.464c-0.158,0.139-0.271,0.168-0.421,0.181l0.566-0.423      c-0.957,2.949-2.133,5.834-3.546,8.607c-1.395,2.785-3.11,5.402-4.973,7.895c-1.88,2.488-3.979,4.818-6.285,6.931      c-2.297,2.129-4.827,3.981-7.519,5.633l0.081-0.052c-4.409,2.655-9.022,4.438-13.91,5.55c-4.864,1.066-9.896,1.446-14.838,0.903      c-4.945-0.518-9.785-1.802-14.317-3.771c-4.503-2.026-8.708-4.699-12.329-7.998l0.001,0.001l-0.538-0.48l0.572,0.433      l0.002,0.002c7.737,5.969,17.138,9.617,26.738,10.284c4.799,0.291,9.638-0.01,14.305-1.13c4.637-1.089,9.218-2.981,13.167-5.402      l0.082-0.053c2.555-1.529,5.022-3.282,7.252-5.302c2.243-2.006,4.296-4.229,6.143-6.614c1.857-2.386,3.484-4.939,4.963-7.576      c1.471-2.644,2.721-5.416,3.763-8.268l0.567-0.423c-0.141,0.012-0.245,0.038-0.396,0.171c-0.146,0.136-0.192,0.34-0.186,0.438      l0.034-0.205C356.983,231.078,358.295,223.622,358.193,216.115z"/>
			</g>
		</g>
		<g>
			<path style="fill:#A9312F;" d="M244.101,271.172c0.09-1.774,0.653-3.496,1.432-5.091c0.771-1.608,1.815-3.086,3.043-4.393     c1.248-1.283,2.638-2.448,4.221-3.282c1.539-0.898,3.254-1.462,4.985-1.754c-1.427,1.058-2.841,1.962-4.127,3.036     c-1.309,1.03-2.518,2.155-3.641,3.355C247.729,265.426,245.845,268.138,244.101,271.172z"/>
		</g>
		<g>
			<path style="fill:#A9312F;" d="M236.073,266.682c0.187-1.758,0.902-3.426,1.82-4.935c0.919-1.519,2.099-2.879,3.431-4.057     c1.375-1.122,2.834-2.164,4.469-2.848c1.596-0.748,3.313-1.208,5.05-1.403c-1.471,0.974-2.929,1.798-4.299,2.751     c-1.392,0.909-2.677,1.936-3.924,2.992c-1.251,1.057-2.384,2.239-3.485,3.47C238.051,263.902,237.026,265.216,236.073,266.682z"/>
		</g>
	</g>
	<g style="opacity:0.48;">
		<g>
			<path style="fill:#A9312F;" d="M289.278,358.951c-0.744-2.759-1.529-5.473-2.326-8.165c-0.825-2.684-1.684-5.344-2.748-7.903     c-1.048-2.555-2.264-5.051-3.9-7.209c-1.629-2.126-3.784-3.974-6.653-4.447c1.43-0.178,2.921,0.158,4.279,0.767     c1.346,0.648,2.536,1.596,3.548,2.678c2.052,2.166,3.425,4.802,4.555,7.461c1.076,2.692,1.879,5.466,2.412,8.284     C289.001,353.228,289.291,356.089,289.278,358.951z"/>
		</g>
	</g>
	<g>
		<path style="fill:#A9312F;" d="M279.973,342.774c-0.568-0.358-0.791-1.025-0.781-1.661c-0.005-0.657,0.305-1.307,0.745-1.787    c0.937-0.93,2.244-1.191,3.364-0.625c-0.402,0.515-0.775,0.844-1.1,1.157c-0.326,0.312-0.596,0.57-0.829,0.825    c-0.253,0.236-0.449,0.487-0.69,0.801C280.464,341.812,280.201,342.188,279.973,342.774z"/>
	</g>
	<g>
		<path style="fill:#FFC38E;" d="M280.325,349.539c1.897,0.441,1.664-3.676-0.147-3.844    C277.934,345.487,278.597,349.138,280.325,349.539z"/>
	</g>
	<g>
		<path style="fill:#FFC38E;" d="M269.932,341.689c0.035,0.21,0.136,0.402,0.239,0.589c0.47,0.858,1.091,1.771,2.05,1.964    c0.528,0.106,1.101-0.042,1.512-0.39c0.355-0.302,0.581-0.734,0.71-1.183C275.506,338.962,269.553,339.419,269.932,341.689z"/>
	</g>
	<g>
		<path style="fill:#FFC38E;" d="M273.865,346.898c-2.918-0.215-2.699,3.223-2.482,5.53c0.534,5.659,2.064,11.094,3.223,16.611    c0.908,4.322,1.297,8.762,2.274,13.066c0.358,1.577,1.79,2.394,3.087,1.68c1.879-1.033,1.961-3.946,1.716-5.976    c-0.612-5.063-1.362-10.105-2.216-15.123c-0.421-2.475-0.868-4.944-1.337-7.408c-0.408-2.147-0.688-4.625-1.714-6.535    C275.839,347.667,274.842,346.97,273.865,346.898z"/>
	</g>
	<g>
		<path style="fill:#A9312F;" d="M354.585,175.918c-2.197,2.489-4.824,4.628-7.541,6.536c-1.853,1.296-3.795,2.522-5.974,3.111    c-1.949,0.551-4.647,0.665-6.417-0.491c-3.288-2.136-0.271-6.179,1.433-8.237c1.651-1.969,3.5-3.762,5.205-5.679    c0.826-0.931,1.616-1.898,2.335-2.917c0.719-1.037,1.417-2.287,2.187-3.52C348.596,167.874,351.543,171.595,354.585,175.918z"/>
	</g>
	<g>
		<path style="fill:#A9312F;" d="M369.067,201.342c-4.518,3.115-9.377,5.842-14.767,6.851c-1.649,0.3-3.353,0.44-5.008,0.118    c-0.89-0.187-1.799-0.534-2.374-1.239c-0.737-0.899-0.749-2.213-0.332-3.283c0.434-1.088,1.243-1.965,2.07-2.755    c2.975-2.887,6.47-5.176,9.589-7.869c1.586-1.382,3.082-2.871,4.309-4.569C364.74,192.484,366.928,196.726,369.067,201.342z"/>
	</g>
	<g>
		<path style="fill:#A9312F;" d="M380.051,230.618c-1.4,0.386-2.818,0.719-4.254,0.981c-1.95,0.373-3.955,0.623-5.895,0.25    c-0.961-0.169-1.941-0.533-2.499-1.327c-0.72-1.006-0.52-2.464,0.163-3.501c0.683-1.037,1.76-1.757,2.802-2.406    c2.119-1.334,4.382-2.456,6.555-3.702C378,224.03,379.043,227.253,380.051,230.618z"/>
	</g>
	<g>
		<path style="fill:#A9312F;" d="M320.434,262.15c0.138,3.391-0.31,6.806-1.31,10.048c-0.017,0.071-0.052,0.125-0.069,0.196    c-2.322,0.501-4.788,0.862-7.397,1.01c-3.053,0.188-5.914,0.109-8.581-0.186c0.07-0.054,0.106-0.108,0.158-0.179    c1.37-1.629,2.472-3.451,3.235-5.465c1.577-4.153,1.659-8.701,1.476-13.14c-0.09-2.077-0.217-4.225,0.6-6.116    c1.061-2.443,4.031-3.91,6.198-2.012C318.845,249.892,320.243,256.966,320.434,262.15z"/>
	</g>
	<g>
		<path style="fill:#A9312F;" d="M347.839,252.481c-3.418,4.916-7.623,9.236-12.547,12.621c-0.812,0.558-1.642,1.099-2.49,1.586    c0.638-2.12,1.542-4.153,2.055-6.289c1.008-4.255,0.434-8.725-0.53-12.997c-0.259-1.134-0.537-2.34-0.121-3.427    c0.416-1.07,1.457-1.808,2.574-2.049c1.117-0.241,2.273-0.039,3.36,0.342c3.475,1.229,6.098,4.384,7.196,7.908    c0.146,0.478,0.275,0.957,0.351,1.453C347.763,251.913,347.819,252.197,347.839,252.481z"/>
	</g>
	<g>
		<path style="fill:#A9312F;" d="M386.849,258.761c-3.957,0.463-7.988,0.519-11.933,0.36c-2.061-0.07-4.714-0.72-4.928-2.778    c-0.177-1.81,1.748-3.036,3.41-3.797c3.661-1.668,7.467-3.089,11.218-4.58C384.617,247.964,386.396,254.33,386.849,258.761z"/>
	</g>
	<g>
		<path style="fill:#A9312F;" d="M390.524,287.127c-4.814-0.026-9.634-0.798-14.249-2.283c-1.96-0.639-5.273-1.709-5.951-3.941    c-0.66-2.161,1.686-3.941,3.42-4.65c1.77-0.709,3.705-0.816,5.604-0.923c3.337-0.191,6.693-0.364,10.013-0.555    C390.227,279.083,390.524,283.055,390.524,287.127z"/>
	</g>
	<g>
		<path style="fill:#A9312F;" d="M390.844,306.201c-0.155,4.335-0.471,8.477-0.932,12.46c-0.747-0.117-1.476-0.235-2.206-0.37    c-4.982-0.93-9.951-2.359-14.239-5.054c-0.965-0.595-1.913-1.279-2.578-2.214c-0.666-0.935-0.997-2.158-0.634-3.227    c0.449-1.319,1.792-2.13,3.12-2.551c3.844-1.172,7.958,0.068,11.942,0.688C387.185,306.235,389.015,306.253,390.844,306.201z"/>
	</g>
	<g>
		<path style="fill:#A9312F;" d="M384.332,344.983c-1.813,5.612-3.932,10.747-6.251,15.422c-5.065-2.244-9.468-5.773-13.447-9.697    c-2.958-2.903-9.686-10.105-3.302-13.184c1.927-0.924,4.22-0.785,6.303-0.29c5.483,1.334,10.117,4.968,15.306,7.175    C383.387,344.6,383.85,344.792,384.332,344.983z"/>
	</g>
	<g>
		<path style="fill:#FFFFFF;" d="M129.686,254.98c-1.333,2.19-1.233,5.186,0.914,6.845c1.019,0.787,2.326,1.129,3.611,1.189    c1.797,0.084,3.77-0.176,5.46-0.81c4.246-1.593,6.82-8.674,1.847-11.038C138.461,249.712,131.333,252.278,129.686,254.98z"/>
	</g>
	<g>
		<path style="fill:#FFFFFF;" d="M145.097,270.597c3.391,0.872,6.132-2.684,2.308-4.23c-0.935-0.378-2.353-0.616-3.223,0.058    C142.721,267.557,143.389,270.158,145.097,270.597z"/>
	</g>
	<g>
		<path style="fill:#97ECE2;" d="M25.675,249.279c-3.976-12.688,1.047-28.314,12.676-35.907c2.838-1.932,5.974-3.402,9.224-4.451    c3.231-1.065,6.633-1.77,10.044-2.026c6.824-0.408,13.619,0.345,20.239,1.664c13.233,2.787,25.983,7.279,38.36,12.503    c12.367,5.264,24.443,11.192,36.058,17.917c-5.997-3.005-12.037-5.912-18.16-8.635c-6.095-2.78-12.249-5.424-18.475-7.875    c-12.433-4.909-25.102-9.38-38.17-11.974c-6.505-1.359-13.152-2.143-19.729-1.809c-6.515,0.469-13.006,2.484-18.559,5.95    c-5.54,3.505-9.864,8.876-12.118,15.101c-1.175,3.09-1.9,6.364-2.199,9.68c-0.146,1.659-0.19,3.329-0.11,4.996    c0.027,0.835,0.11,1.666,0.215,2.495C25.133,247.711,25.168,248.612,25.675,249.279z"/>
	</g>
	<g>
		<path style="fill:#97ECE2;" d="M0.482,121.262c8.508-0.722,17.092,0.47,25.401,2.378c4.211,0.805,8.226,2.315,12.332,3.519    c4.028,1.428,7.975,3.092,11.951,4.673c15.697,6.913,29.944,16.715,43.091,27.595l4.894,4.145l2.446,2.073    c0.796,0.712,1.533,1.488,2.302,2.229l9.139,8.989c3.145,2.902,5.833,6.235,8.688,9.408l8.433,9.639    c5.172,6.79,10.372,13.559,15.415,20.429l13.928,21.443l-14.714-20.876c-5.189-6.738-10.507-13.379-15.798-20.023l-8.533-9.466    c-2.861-3.136-5.556-6.432-8.702-9.292l-9.14-8.864c-0.769-0.73-1.506-1.496-2.301-2.197l-2.442-2.039l-4.881-4.08    c-12.941-10.922-27.055-20.6-42.455-27.735c-3.899-1.645-7.777-3.378-11.738-4.878c-4.036-1.279-7.997-2.852-12.146-3.755    C17.477,122.367,9,120.987,0.482,121.262z"/>
	</g>
	<g>
		<path style="fill:#97ECE2;" d="M164.321,117.96c-2.832,4.114-4.898,8.683-6.452,13.385c-1.694,4.663-2.673,9.541-3.483,14.415    c-1.448,9.798-1.247,19.786,0.067,29.587c0.983,9.877,3.738,19.464,6.506,28.995c1.623,4.694,3.318,9.375,5.04,14.047    c1.934,4.587,3.932,9.153,5.82,13.785c-2.29-4.433-4.469-8.931-6.713-13.408c-1.912-4.618-3.778-9.268-5.589-13.94    c-3.096-9.52-5.868-19.225-7.024-29.233c-1.169-9.963-1.4-20.145,0.399-30.076c1.006-4.931,2.168-9.844,4.074-14.507    C158.843,126.366,161.124,121.816,164.321,117.96z"/>
	</g>
	<g>
		<path style="fill:#97ECE2;" d="M114.819,71.178c-0.351,7.309-0.236,14.621,0.194,21.91c0.225,3.642,0.509,7.283,0.828,10.916    c0.445,3.622,0.787,7.255,1.314,10.863l1.72,10.801l2.139,10.723c1.732,7.078,3.413,14.175,5.743,21.084l1.593,5.227    c0.532,1.742,1.241,3.424,1.853,5.139c1.287,3.407,2.499,6.846,3.848,10.229c3.034,6.622,5.767,13.393,9.337,19.757    c6.474,13.099,14.944,25.043,23.593,36.839l-6.852-8.577l-3.416-4.308c-1.178-1.41-2.085-3.01-3.141-4.507l-6.061-9.181    c-1.065-1.499-1.874-3.15-2.787-4.74l-2.678-4.808c-3.807-6.297-6.516-13.146-9.657-19.782c-1.387-3.397-2.637-6.852-3.962-10.276    c-0.631-1.724-1.359-3.414-1.91-5.165l-1.645-5.256c-4.348-14.021-7.539-28.422-9.218-43.003    C113.944,100.499,113.377,85.754,114.819,71.178z"/>
	</g>
	<g style="opacity:0.48;">
		<g>
			<path style="fill:#E54949;" d="M136.806,286.707c4.334-0.833,8.559-1.532,12.753-2.462c2.104-0.421,4.176-0.961,6.259-1.491     c2.091-0.527,4.13-1.196,6.275-1.778c-1.773,1.317-3.725,2.419-5.78,3.239c-2.047,0.85-4.176,1.493-6.337,1.961     c-2.166,0.445-4.357,0.768-6.563,0.867C141.21,287.149,138.99,287.1,136.806,286.707z"/>
		</g>
	</g>
	<g style="opacity:0.48;">
		<g>
			<path style="fill:#E54949;" d="M158.503,289.966c2.998-1.135,5.983-1.848,8.958-2.611c2.994-0.73,5.895-1.445,8.985-2.26     c-1.16,1.123-2.566,1.948-4.01,2.621c-1.448,0.682-2.97,1.15-4.5,1.557c-1.541,0.366-3.098,0.639-4.675,0.765     C161.688,290.169,160.099,290.198,158.503,289.966z"/>
		</g>
	</g>
	<g style="opacity:0.48;">
		<g>
			<path style="fill:#E54949;" d="M237.19,303.566c2.866-1.052,5.691-1.718,8.506-2.445c2.833-0.7,5.561-1.418,8.498-2.23     c-2.18,2.195-5.122,3.384-8.016,4.146c-1.469,0.346-2.955,0.607-4.459,0.704C240.22,303.846,238.704,303.842,237.19,303.566z"/>
		</g>
	</g>
	<g style="opacity:0.48;">
		<g>
			<path style="fill:#E54949;" d="M249.611,307.384c3.231-0.783,6.407-1.664,9.569-2.542c3.152-0.916,6.281-1.87,9.352-2.977     c3.071-1.105,6.072-2.365,9.021-3.759c2.901-1.481,5.733-3.096,8.453-5.026c-2.199,2.498-4.848,4.627-7.713,6.379     c-2.886,1.718-5.956,3.1-9.094,4.265C262.881,305.909,256.277,307.304,249.611,307.384z"/>
		</g>
	</g>
</g>















</svg>
