<?xml version="1.0" encoding="UTF-8"?>
<!-- Generator: Adobe Illustrator 25.2.3, SVG Export Plug-In . SVG Version: 6.00 Build 0)  -->
<svg xmlns="http://www.w3.org/2000/svg" xmlns:xlink="http://www.w3.org/1999/xlink" version="1.1" id="Capa_1" x="0px" y="0px" viewBox="0 0 512 512" style="enable-background:new 0 0 512 512;" xml:space="preserve" width="512" height="512">
<g>
	<g>
		<ellipse style="fill:#67DCBC;" cx="267.145" cy="389.424" rx="204.167" ry="68.1"/>
	</g>
	<g>
		<ellipse style="fill:#67DCBC;" cx="153.736" cy="455.949" rx="45.397" ry="19.821"/>
	</g>
	<g>
		<path style="fill:#FB5555;" d="M282.038,228.743c-0.572,16.646-2.267,33.268-5.129,49.685    c-3.549,20.424-9.685,42.221-26.445,55.913c-6.045,4.946-13.165,8.22-20.79,9.685c-1.328,0.275-2.656,0.458-4.007,0.618    c-5.381,0.572-10.83,0.32-16.188-0.458c-11.745-1.717-21.683-5.449-29.284,6.434c-2.954,4.648-4.9,9.937-8.38,14.173    c-13.898,16.943-43.526,6.594-60.653,1.007C57.997,348.492,7.121,304.393,0.687,246.099C0.229,241.863,0,237.604,0,233.345    c0-20.355,7.235-42.816,22.828-56.691c21.408-19.05,46.732-20.332,74.139-23.24c13.944-1.465,32.788-8.105,43.892-17.15    c0.641-0.504,1.259-1.03,1.832-1.557c10.441-9.502,25.278-18.844,38.947-22.507c25.713-6.869,49.021-4.259,70.59,12.25    c2.953,2.267,5.724,4.762,8.265,7.487c18.134,19.439,20.584,46.32,21.5,71.597C282.313,211.937,282.313,220.34,282.038,228.743z"/>
	</g>
	<g style="opacity:0.4;">
		<path style="fill:#A9312F;" d="M146.537,150.163c-0.984,3.549-4.327,6.983-7.922,9.662c-2.221,1.694-4.533,3.091-6.434,4.076    c-0.962,0.504-1.946,0.962-2.977,1.328c-6.136,2.519-12.982,3.251-19.507,2.129c-2.427-0.412-5.243-1.557-5.564-3.984    c-0.206-1.557,0.778-3.091,2.084-3.961c1.305-0.893,2.885-1.282,4.396-1.671c4.579-1.236,9.067-2.862,13.372-4.831    c2.404-1.099,4.739-2.29,7.006-3.618c0.137-0.069,0.298-0.137,0.435-0.229C134.494,147.278,149.171,140.775,146.537,150.163z"/>
	</g>
	<g>
		<g>
			<path style="fill:#67DCBC;" d="M118.878,134.524c0,0-12.227-68.369,46.892-98.294C165.771,36.23,169.228,93.013,118.878,134.524z     "/>
		</g>
		<g>
			<path style="fill:#67DCBC;" d="M138.615,159.825c-2.221,1.694-4.533,3.091-6.434,4.076c-0.962,0.504-1.946,0.962-2.977,1.328     c-1.488-2.999-3.389-7.212-5.22-12.318c-2.908-8.128-5.633-18.569-6.159-29.994l4.694,1.443c0,0,1.03,12.021,8.472,24.934     C133.005,152.819,135.524,156.413,138.615,159.825z"/>
		</g>
		<g>
			<path style="fill:#97ECE2;" d="M165.771,36.23c-34.368,29.284-46.892,98.294-46.892,98.294S106.652,66.156,165.771,36.23z"/>
		</g>
		<g>
			<path style="fill:#67DCBC;" d="M122.519,134.043c-0.366,0.16-0.755,0.321-1.122,0.458v0.023c0,0,0,0-0.023,0     c-54.081,22.393-92.25-46.343-92.25-46.343c52.547-1.809,82.427,31.322,90.876,42.358     C121.695,132.716,122.519,134.043,122.519,134.043z"/>
		</g>
		<g>
			<path style="fill:#97ECE2;" d="M123.33,134.044l-1.933,0.481c0,0,0,0-0.023,0c-1.351-1.168-49.846-42.198-92.25-46.343     c52.547-1.809,82.427,31.322,90.876,42.358L123.33,134.044z"/>
		</g>
	</g>
	<g>
		<path style="fill:#FFFFFF;" d="M35.831,185.629c-0.447,2.423,0.837,4.84,2.419,6.73c0.892,1.065,1.909,2.053,3.131,2.713    c2.567,1.387,5.741,1.165,8.5,0.216c2.641-0.909,5.112-2.496,6.706-4.789c3.419-4.918,0.873-13.161-5.602-13.815    C46.009,176.182,36.808,180.335,35.831,185.629z"/>
	</g>
	<g>
		<path style="fill:#FFFFFF;" d="M32.539,202.464c-0.786,0.761-0.869,1.973-0.901,3.067c-0.016,0.548-0.029,1.116,0.187,1.62    c0.269,0.625,0.857,1.061,1.478,1.339c1.425,0.639,3.149,0.567,4.516-0.188c1.886-1.043,3.849-4.551,1.795-6.36    C38.097,200.607,33.869,201.175,32.539,202.464z"/>
	</g>
	<g style="opacity:0.2;">
		<path style="fill:#A9312F;" d="M282.038,228.743c-0.572,16.646-2.267,33.268-5.129,49.685    c-3.549,20.424-9.685,42.221-26.445,55.913c-6.045,4.946-13.165,8.22-20.79,9.685c48.655-27.224,42.707-161.793-6.009-185.145    c-39.007-18.698-83.401,10.628-85.004,11.773c0.962-1.122,18.202-21.317,14.104-30.498c-2.129-4.808-7.121-5.037-11.906-3.892    c0.641-0.504,1.259-1.03,1.832-1.557c10.441-9.502,25.278-18.844,38.947-22.507c25.713-6.869,49.021-4.259,70.59,12.25    c2.953,2.267,5.724,4.762,8.265,7.487c18.134,19.439,20.584,46.32,21.5,71.597C282.313,211.937,282.313,220.34,282.038,228.743z"/>
	</g>
	<g>
		<path style="fill:#A9312F;" d="M280.931,396.213c-0.263-2.131,0.519-4.28,1.58-6.13c1.072-1.883,2.575-3.477,4.219-4.845    c1.687-1.323,3.539-2.395,5.49-3.195c0.966-0.418,1.989-0.693,2.982-1.007c1.029-0.223,2.054-0.431,3.096-0.544    c-0.875,0.606-1.774,1.098-2.656,1.61l-2.59,1.574c-1.683,1.083-3.338,2.156-4.853,3.393c-1.526,1.216-2.928,2.562-4.185,4.051    C282.787,392.627,281.637,394.252,280.931,396.213z"/>
	</g>
	<g>
		<path style="fill:#A9312F;" d="M267.144,392.309c-0.417-1.87-0.205-3.85,0.364-5.698c0.566-1.859,1.525-3.618,2.794-5.116    c1.313-1.448,2.8-2.771,4.548-3.615c1.694-0.924,3.563-1.453,5.442-1.654c-1.551,1.123-3.073,2.068-4.445,3.192    c-1.406,1.069-2.625,2.304-3.752,3.593c-1.147,1.284-2.055,2.753-2.895,4.287C268.384,388.851,267.702,390.499,267.144,392.309z"/>
	</g>
	<g>
		<g>
			<path style="fill:#FF983D;" d="M378.768,95.968c-0.122,6.994-1.535,13.865-3.266,19.762c-3.07,10.356-7.164,17.764-7.164,17.764     l-12.72-3.338c6.311-25.952,7.505-49.735-7.603-63.6c-4.264-3.923-9.82-7.042-16.96-9.187c-2.461-0.755-5.093-1.365-7.92-1.876     c-22.223-3.948-40.962,11.014-55.412,27.219c-9.601,10.722-17.326,22.004-22.93,28.681c-0.512,0.585-0.999,1.17-1.535,1.73     c-7.237,7.846-15.888,11.892-24.075,13.256c-7.578,1.267-14.791,0.219-20.201-2.242c-11.672-5.361-15.79-20.445,9.991-18.763     c1.511,0.097,2.973,0,4.386-0.244c20.493-3.802,33.896-42.985,65.915-58.459c3.972-1.925,8.212-3.485,12.817-4.557     c4.191-0.999,8.285-1.682,12.257-2.071c37.892-3.947,65.306,17.082,72.689,42.23C378.354,86.732,378.841,91.387,378.768,95.968z"/>
		</g>
		<g style="opacity:0.2;">
			<path style="fill:#A9312F;" d="M378.768,95.968c-0.122,6.994-1.535,13.865-3.266,19.762c-3.07,10.356-7.164,17.764-7.164,17.764     l-12.72-3.338c6.311-25.952,7.505-49.735-7.603-63.6c-4.264-3.923-9.82-7.042-16.96-9.187c-2.461-0.755-5.093-1.365-7.92-1.876     c-22.223-3.948-40.962,11.014-55.412,27.219c-9.601,10.722-17.326,22.004-22.93,28.681c-0.512,0.585-0.999,1.17-1.535,1.73     c-7.237,7.846-15.888,11.892-24.075,13.256c-7.578,1.267-14.791,0.219-20.201-2.242c-11.672-5.361-15.79-20.445,9.991-18.763     c1.511,0.097,2.973,0,4.386-0.244c20.493-3.802,33.896-42.985,65.915-58.459c3.972-1.925,8.212-3.485,12.817-4.557     c4.191-0.999,8.285-1.682,12.257-2.071c37.892-3.947,65.306,17.082,72.689,42.23C378.354,86.732,378.841,91.387,378.768,95.968z"/>
		</g>
	</g>
	<g>
		<path style="fill:#A9312F;" d="M219.183,126.379c-7.578,1.267-15.011,0.706-20.42-1.755c-11.672-5.361-16.637-21.801,9.825-19.494    c1.508,0.132,3.358,0.244,4.772,0C221.474,111.076,220.816,120.116,219.183,126.379z"/>
	</g>
	<g>
		<path style="fill:#A9312F;" d="M267.724,82.712c-9.601,10.722-17.326,22.004-22.93,28.681c-0.512,0.585-0.999,1.17-1.535,1.73    c-0.39-6.165,0.024-19.787,9.43-27.853C258.001,80.713,263.362,80.933,267.724,82.712z"/>
	</g>
	<g>
		<path style="fill:#A9312F;" d="M348.016,66.556c-4.264-3.923-9.82-7.042-16.96-9.187c3.68-1.901,8.626-3.436,13.719-2.023    C350.526,56.93,349.771,62.243,348.016,66.556z"/>
	</g>
	<g>
		<path style="fill:#A9312F;" d="M378.768,95.968c-0.122,6.994-1.16,13.838-3.266,19.762c-2.291-1.706-4.191-4.264-4.069-8.114    C371.58,102.035,375.552,98.185,378.768,95.968z"/>
	</g>
	<g>
		<path style="fill:#FF983D;" d="M147.27,342.107c-1.538-0.427-5.396,2.303-6.643,2.963c-4.345,2.3-8.56,4.909-12.459,7.909    c-3.733,2.873-7.737,6.311-9.822,10.638c-1.983,4.116-1.722,8.827,0.861,12.616c2.91,4.268,7.13,5.631,12.005,6.607    c9.78,1.958,19.949,0.14,29.057-3.669c4.41-1.844,8.487-4.23,12.52-6.772c1.4-0.882,12.331-9.426,13.118-8.992    C185.907,363.406,147.27,342.107,147.27,342.107z"/>
	</g>
	<g style="opacity:0.2;">
		<path style="fill:#A9312F;" d="M147.27,342.107c-1.538-0.427-5.396,2.303-6.643,2.963c-4.345,2.3-8.56,4.909-12.459,7.909    c-3.733,2.873-7.737,6.311-9.822,10.638c-1.983,4.116-1.722,8.827,0.861,12.616c2.91,4.268,7.13,5.631,12.005,6.607    c9.78,1.958,19.949,0.14,29.057-3.669c4.41-1.844,8.487-4.23,12.52-6.772c1.4-0.882,12.331-9.426,13.118-8.992    C185.907,363.406,147.27,342.107,147.27,342.107z"/>
	</g>
	<g>
		<path style="fill:#A9312F;" d="M133.092,383.169c-0.628-1.695-0.512-3.549-0.178-5.304c0.35-1.772,1.11-3.467,2.14-4.979    c0.517-0.759,1.155-1.422,1.783-2.083c0.724-0.563,1.378-1.205,2.198-1.613c1.53-0.969,3.297-1.473,5.04-1.656    c-1.406,1.101-2.783,2.002-3.955,3.133c-1.198,1.079-2.27,2.249-3.143,3.563c-0.922,1.278-1.666,2.688-2.32,4.173    C134.049,379.903,133.441,381.46,133.092,383.169z"/>
	</g>
	<g>
		<path style="fill:#A9312F;" d="M119.207,376.232c-1.127-3.042-0.237-6.69,1.873-9.286c1.103-1.256,2.402-2.356,3.907-3.011    c1.467-0.715,3.069-1.06,4.665-1.086c-0.639,0.518-1.3,0.899-1.922,1.33c-0.596,0.474-1.238,0.839-1.787,1.32    c-1.155,0.881-2.152,1.874-3.045,2.932c-0.912,1.052-1.599,2.267-2.224,3.552C120.07,373.286,119.595,374.681,119.207,376.232z"/>
	</g>
	<g>
		<path style="fill:#FF983D;" d="M213.696,367.93c15.057,0,17.536,0.012,24.597-0.52c-4.135,4.55-8.992,9.573-14.358,14.515    c-4.289,3.972-8.919,7.871-13.744,11.428c-0.975,0.731-1.949,1.438-2.948,2.12c-24.831,17.252-37.331,18.934-35.699,33.676    c0,0,5.166,10.941,33.481,6.726c28.315-4.216,55.364-18.934,72.568-30.289c1.048-0.682,2.144-1.462,3.265-2.291    c3.485-2.559,7.335-5.751,11.258-9.162c3.874-3.436,7.846-7.091,11.599-10.673c4.264-4.094,8.285-8.066,11.575-11.38    c5.41-5.483,8.992-9.284,8.992-9.284l7.213,26.634c0,0-3.899,5.215-17.788,11.94c-13.89,6.726-24.149,16.009-18.715,21.176    c5.41,5.117,30.509,1.974,59.969-16.96c27.926-17.984,70.301-56.436,77.465-109.777c0.414-2.9,0.707-5.873,0.877-8.87    c0.097-1.682,0.171-3.436,0.244-5.215c0.317-8.115,0.317-17.228-0.146-26.829c-0.292-6.384-0.78-12.988-1.486-19.713    c-0.804-7.603-1.876-15.328-3.314-23.003c-1.145-6.214-2.51-12.403-4.142-18.447c-1.949-7.359-4.264-14.523-6.994-21.346    c-2.534-6.311-5.41-12.33-8.675-17.886c-2.924-4.971-6.141-9.577-9.698-13.744c-13.329-15.62-32.531-27.926-54.17-29.412    c-3.875-0.268-7.603-0.39-11.185-0.39c-3.265,0-6.433,0.146-9.455,0.365c-11.526,0.877-21.468,3.265-30.021,6.726    c-0.731,0.292-1.462,0.609-2.193,0.926c-6.506,2.802-12.208,6.287-17.179,10.186c-0.39,0.317-0.78,0.609-1.17,0.926    c-3.655,2.948-6.896,6.14-9.772,9.503c-0.146,0.146-0.292,0.317-0.439,0.487c-4.606,5.385-8.31,11.136-11.307,16.911    c-2.9,5.604-5.166,11.234-6.896,16.57c-0.829,2.51-1.535,4.947-2.144,7.286c-0.755,2.9-1.633,6.19-2.632,9.772    c-1.681,6.263-3.68,13.402-5.751,20.786c-2.756,9.82-5.676,20.095-8.334,29.395c-7.185-0.904-14.838-1.573-23.019-1.979    c-0.299,0-0.599-0.02-0.879-0.02c-1.038-0.04-2.057-0.1-3.055-0.1c-2.716-0.06-5.332-0.06-7.868,0l-0.339-0.339    c-1.418-1.478-3.235-3.654-3.455-3.894c-2.816-3.315-4.493-7.649-6.97-11.203c-3.574-5.172-9.146-8.967-15.856-7.748    c-0.419,0.08-1.223,0.267-1.726,0.55c-0.939,0.679-1.169,1.906-1.788,3.584c-2.257,6.011-2.396,17.094-0.18,23.824    c0.04,0.14,0.1,0.28,0.14,0.42c-16.618,6.014-28.542,19.015-34.613,35.537c-3.957,10.77-4.922,22.351-3.171,33.663    C123.664,313.087,133.588,367.93,213.696,367.93z"/>
	</g>
	<g>
		<path style="fill:#A9312F;" d="M270.848,247.956l-6.987,1.556c-4.505-1.865-7.922-2.681-8.098-2.736    c2.409-11.596,13.257-21.655,18.007-21.328h0.014c0.667,2.695,1.443,5.92-0.585,12.848c-0.204,0.681-0.354,1.348-0.477,2.001    L270.848,247.956z"/>
	</g>
	<g>
		<path style="fill:#A9312F;" d="M170.839,237.177l-5.153,5.135c-1.829,0.546-3.174,1.129-4.569,1.696    c-2.219-6.738-2.413-18.356-0.154-24.358c0.626-1.674,1.416-2.94,2.355-3.62c0,0,2.409,1.212,4.097,7.105    c0.612,2.151,1.143,4.206,1.797,6.111L170.839,237.177z"/>
	</g>
	<g style="opacity:0.48;">
		<path style="fill:#E54949;" d="M225.887,347.134c-4.12,2.431-5.105,7.949-0.796,11.062c5.769,4.169,17.206,4.273,22.899-0.117    c4.807-3.706,2.532-11.219-2.308-12.869c-4.091-1.395-8.539-1.326-12.699-0.47C231.049,345.137,228.196,345.771,225.887,347.134z"/>
	</g>
	<g style="opacity:0.48;">
		<path style="fill:#E54949;" d="M155.611,331.014c2.816,2.758,2.516,7.366-1.545,9.006c-5.437,2.197-14.607,0.025-18.295-4.609    c-3.114-3.913,0.187-9.475,4.384-9.84c3.547-0.309,7.093,0.624,10.252,2.128C151.875,328.399,154.032,329.469,155.611,331.014z"/>
	</g>
	<g>
		<path style="fill:#A9312F;" d="M202.031,238.769c-3.961,4.342-6.973,9.614-8.307,15.276c-0.939,4.002-1.198,8.275,0.735,12.032    c1.538,3.008,4.492,5.499,8.03,5.295c2.818-0.163,5.077-2.368,6.411-4.655c1.77-3.049,3.648-6.043,5.676-8.929    c3.689-5.267,8.357-12.277,14.21-16.646C228.786,241.141,210.677,238.737,202.031,238.769z"/>
	</g>
	<g>
		<path style="fill:#A9312F;" d="M134.492,294.373c-3.798,0.313-7.595-1.252-10.902-3.389c0.068-0.353,0.136-0.708,0.217-1.075    c0.068-0.341,0.136-0.695,0.218-1.048c0.708-3.144,1.565-6.288,2.627-9.391C133.362,286.574,141.611,293.774,134.492,294.373z"/>
	</g>
	<g>
		<path style="fill:#A9312F;" d="M122.837,304.966c3.538,0.558,7.322,0.653,9.909-0.612c4.559-2.232-2.498-5.458-9.657-8.071    C123.088,296.283,122.052,301.12,122.837,304.966z"/>
	</g>
	<g>
		<path style="fill:#A9312F;" d="M134.748,278.371c-2.055-0.463-4.138-1.892-6.043-3.662c0.041-0.122,0.095-0.245,0.15-0.367    c1.157-2.545,2.477-5.05,4.002-7.459C136.6,273.157,139.512,279.446,134.748,278.371z"/>
	</g>
	<g>
		<path style="fill:#A9312F;" d="M246.698,244.408c-1.565,1.402-3.321,2.967-4.587,4.152c-4.002,3.756-8.316,9.106-11.188,9.473    c-6.002,0.776-7.867-5.185-3.512-10.711c1.987-2.518,4.587-4.233,6.833-5.363h0.014    C238.613,242.666,242.751,243.482,246.698,244.408z"/>
	</g>
	<g>
		<path style="fill:#A9312F;" d="M198.999,238.666c-3.403,3.648-7.303,9.962-10.502,10.724c-4.818,1.143-8.126-2.831-5.88-5.254    c2.178-2.355,4.614-4.124,6.71-5.377C192.404,238.637,195.637,238.584,198.999,238.666z"/>
	</g>
	<g style="opacity:0.48;">
		<path style="fill:#A9312F;" d="M133.958,334.562c1.232,1.567,2.469,3.126,3.775,4.62c0.643,0.754,1.306,1.489,1.995,2.19    c0.688,0.69,1.425,1.375,2.204,1.817l0.194,0.11c0,0,0.023,0.24,0.023,0.24c0.109,1.111,0.096,2.376,0.704,3.357    c0.198,0.319,0.667,0.841,1.099,0.724c0.509-0.138,0.519-1.019,0.555-1.428c0.065-0.815-0.002-1.69-0.102-2.516l-0.258-2.12    l1.199,1.756c0.517,0.757,1.098,1.508,1.71,2.2c0.615,0.689,1.275,1.355,2.002,1.821c0.402,0.258,1.268,0.642,1.678,0.194    c0.554-0.606-0.174-2.02-0.469-2.591l-0.512-0.991l0.981,0.473c1.417,0.683,2.906,1.259,4.4,1.789    c1.499,0.525,3.038,0.939,4.624,1.158c-1.605-0.014-3.196-0.334-4.755-0.724c-1.56-0.409-3.074-0.942-4.575-1.559l0.468-0.517    c0.262,0.444,0.473,0.884,0.643,1.372c0.151,0.487,0.3,1.022,0.136,1.658c-0.417,1.41-2.157,1.13-3.115,0.555    c-0.898-0.539-1.6-1.241-2.256-1.966c-0.656-0.73-1.252-1.485-1.817-2.297l0.94-0.365c0.128,0.92,0.174,1.815,0.099,2.758    c-0.057,0.713-0.261,1.757-0.925,2.166c-0.303,0.196-0.669,0.255-0.985,0.2c-0.66-0.099-1.095-0.591-1.352-1.011    c-0.264-0.439-0.417-0.89-0.551-1.339c-0.244-0.903-0.374-1.791-0.414-2.714l0.217,0.349c-0.926-0.595-1.614-1.334-2.294-2.082    c-0.668-0.756-1.299-1.534-1.908-2.328C136.124,337.912,134.988,336.271,133.958,334.562z"/>
	</g>
	<g>
		<g>
			<path style="fill:#FFFFFF;" d="M248.708,340.023c-6.507,3.62-16.39,4.412-23.208,1.105c-1.456-0.708-2.79-1.62-3.961-2.763     c-5.063-4.995-7.486-13.243-6.941-20.28c0-0.163,0.014-0.327,0.027-0.49c0.68-7.091,5.267-13.189,11.732-16.088     c7.568-3.389,18.47-3.866,24.717,2.368c2.463,2.464,4.301,5.757,5.417,9.391h0.014     C259.513,322.944,257.522,335.12,248.708,340.023z"/>
		</g>
		<g>
			<path style="fill:#A9312F;" d="M248.708,340.023c-3.19,1.784-7.966,3.122-12.207,3.317c-2.127,0.085-4.269-0.064-6.367-0.48     c-2.097-0.407-4.165-1.082-6.054-2.15c-1.895-1.062-3.516-2.594-4.832-4.308c-1.33-1.714-2.408-3.617-3.255-5.614     c-1.685-4-2.472-8.379-2.266-12.77l-0.003,0.067c0.268-5.225,2.608-10.116,6.378-13.629c1.87-1.744,4.055-3.191,6.427-4.131     c2.344-0.966,4.797-1.625,7.298-1.97c4.964-0.656,10.313-0.077,14.7,2.64c2.197,1.334,3.973,3.255,5.322,5.352     c1.37,2.103,2.356,4.417,3.037,6.798l-0.396-0.293h0.013l0.3,0.007l0.083,0.286c0.699,2.445,1.083,4.97,1.135,7.495     c0.043,2.525-0.217,5.052-0.827,7.493c-0.615,2.439-1.623,4.779-3.029,6.858C252.759,337.064,250.894,338.792,248.708,340.023z      M248.706,340.066c2.175-1.251,4.02-3.035,5.404-5.115c1.4-2.076,2.314-4.447,2.865-6.873c0.555-2.431,0.719-4.941,0.553-7.418     c-0.161-2.478-0.636-4.931-1.419-7.271l0.396,0.291l-0.013,0l-0.278,0.028l-0.105-0.32c-0.763-2.278-1.828-4.461-3.213-6.393     c-1.379-1.94-3.083-3.614-5.125-4.73c-2.03-1.144-4.313-1.791-6.632-2.091c-2.324-0.301-4.704-0.235-7.031,0.139     c-4.656,0.727-9.214,2.468-12.613,5.633c-0.85,0.789-1.621,1.657-2.327,2.577c-0.672,0.942-1.311,1.914-1.823,2.955     c-0.508,1.04-0.959,2.117-1.256,3.24c-0.181,0.553-0.269,1.129-0.404,1.695c-0.071,0.555-0.197,1.188-0.216,1.67l-0.003,0.068     c-0.374,4.081,0.181,8.305,1.625,12.2c0.726,1.946,1.678,3.813,2.878,5.511c1.195,1.705,2.657,3.216,4.43,4.317     c3.56,2.205,7.883,3.054,12.097,2.996C240.725,343.118,244.983,342.119,248.706,340.066z"/>
		</g>
	</g>
	<g>
		<path style="fill:#A9312F;" d="M234.24,337.352c5.624,0.823,11.906-1.324,15.289-6.03c5.39-7.498,3.095-19.211-4.815-23.898    c-4.247-2.516-10.05-3.06-14.636-1.162c-12.256,5.072-11.288,23.764-0.265,29.666C231.171,336.656,232.675,337.123,234.24,337.352    z"/>
	</g>
	<g style="opacity:0.21;">
		<path style="fill:#A9312F;" d="M256.492,313.266c-24.758-11.732-40.043,2.899-41.894,4.818c0-0.163,0.014-0.327,0.027-0.49    c0.68-7.091,5.267-13.189,11.732-16.088c7.568-3.389,18.47-3.866,24.717,2.368C253.538,306.338,255.376,309.632,256.492,313.266z"/>
	</g>
	<g>
		<g>
			<path style="fill:#FFFFFF;" d="M170.525,321.146c-3.144,5.73-10.33,7.908-16.455,7.69c-0.844-0.041-1.674-0.15-2.477-0.34     c-9.718-2.273-15.434-15.435-11.828-24.663c0.354-0.953,0.83-1.865,1.402-2.722c5.036-7.486,17.926-10.317,25.439-5.036     c1.81,1.293,2.981,3.348,3.811,5.363c0.571,1.375,1.048,2.913,1.402,4.532C172.962,311.047,172.866,316.886,170.525,321.146z"/>
		</g>
		<g>
			<path style="fill:#A9312F;" d="M170.525,321.146c-0.573,0.998-1.243,1.943-2.052,2.767c-0.82,0.808-1.713,1.551-2.702,2.148     c-1.963,1.212-4.158,2.051-6.428,2.51c-1.134,0.237-2.284,0.407-3.445,0.481c-1.156,0.082-2.334,0.103-3.505-0.065     c-2.327-0.38-4.583-1.298-6.497-2.715c-3.861-2.821-6.425-7.163-7.579-11.791c-0.551-2.329-0.761-4.768-0.464-7.19l0.339-1.801     c0.151-0.591,0.356-1.169,0.534-1.754c0.381-1.161,0.961-2.293,1.657-3.307c2.881-4.093,7.451-6.512,12.121-7.434     c2.35-0.467,4.775-0.531,7.14-0.188c2.361,0.349,4.679,1.146,6.672,2.481c1.036,0.605,1.911,1.536,2.589,2.502     c0.686,0.98,1.21,2.044,1.647,3.127c0.879,2.168,1.398,4.445,1.738,6.731c0.333,2.289,0.415,4.615,0.168,6.909     C172.219,316.844,171.643,319.125,170.525,321.146z M170.525,321.146c2.166-4.116,2.284-8.981,1.477-13.452     c-0.419-2.253-1.091-4.46-2.053-6.517c-0.962-2.036-2.247-3.985-4.193-5.009c-3.846-2.258-8.608-2.442-12.87-1.422     c-2.151,0.501-4.219,1.347-6.079,2.49c-1.86,1.135-3.513,2.607-4.708,4.363c-0.614,0.876-1.111,1.809-1.456,2.831     c-0.16,0.515-0.35,1.022-0.491,1.542l-0.319,1.59c-0.305,2.149-0.217,4.373,0.226,6.533c0.857,4.304,2.996,8.527,6.469,11.357     c1.717,1.426,3.777,2.403,5.969,2.893c1.102,0.221,2.239,0.266,3.381,0.249c1.14-0.012,2.284-0.099,3.41-0.307     c2.251-0.386,4.466-1.117,6.441-2.294c0.991-0.582,1.888-1.312,2.715-2.108C169.261,323.073,169.904,322.121,170.525,321.146z"/>
		</g>
	</g>
	<g>
		<path style="fill:#A9312F;" d="M148.631,320.397c0.388,0.341,3.975,4.96,12.182,2.652c8.206-2.308,7.565-12.822,6.411-16.284    c-1.154-3.462-5.257-10.643-14.618-8.335C143.245,300.737,141.963,314.539,148.631,320.397z"/>
	</g>
	<g style="opacity:0.21;">
		<path style="fill:#A9312F;" d="M171.818,305.97c-10.82-6.588-24.839-4.124-32.053-2.137c0.354-0.953,0.83-1.865,1.402-2.722    c5.036-7.486,17.926-10.317,25.439-5.036c1.81,1.293,2.981,3.348,3.811,5.363C170.988,302.812,171.465,304.35,171.818,305.97z"/>
	</g>
	<g>
		<path style="fill:#A9312F;" d="M302.717,285.814c-23.288,12.903-30.556-2.654-21.11-5.104c6.329-1.647,12.195-5.022,16.061-7.309    C300.077,277.267,301.764,281.404,302.717,285.814z"/>
	</g>
	<g>
		<path style="fill:#A9312F;" d="M304.5,305.523v0.095c-0.054,0.449-0.082,0.885-0.123,1.32c-8.493,3.172-18.837,4.859-26.882,1.252    c-3.035-1.361-5.608-4.369-4.505-7.404c0.449-1.212,1.456-2.246,2.668-2.995c3.58-2.232,8.466-2.586,12.726-3.022    c4.846-0.503,10.617-2.559,15.135-4.532C304.323,295.478,304.663,300.596,304.5,305.523z"/>
	</g>
	<g>
		<path style="fill:#A9312F;" d="M303.833,313.077c-0.844,5.757-2.491,11.202-5.009,16.265c-5.798,0.939-12.019-0.422-17-3.403    c-2.218-1.334-4.179-3.471-3.607-6.247c0.749-3.675,5.662-4.056,8.643-3.988C294.945,315.894,300.757,314.247,303.833,313.077z"/>
	</g>
	<g>
		<path style="fill:#A9312F;" d="M122.278,335.416c3.612-1.228,7.293-2.15,10.99-2.995c3.704-0.815,7.426-1.553,11.217-1.981    c-3.611,1.231-7.292,2.151-10.99,2.995C129.79,334.248,126.069,334.985,122.278,335.416z"/>
	</g>
	<g>
		<path style="fill:#A9312F;" d="M120.48,326.126c3.67-0.33,7.334-0.345,10.996-0.284c3.661,0.093,7.321,0.266,10.974,0.755    c-3.671,0.333-7.334,0.347-10.996,0.284C127.792,326.786,124.132,326.613,120.48,326.126z"/>
	</g>
	<g>
		<path style="fill:#A9312F;" d="M123.368,314.739c3.442,1.317,6.739,2.915,10.001,4.58c3.247,1.694,6.458,3.458,9.524,5.504    c-3.443-1.315-6.74-2.913-10-4.581C129.646,318.547,126.434,316.783,123.368,314.739z"/>
	</g>
	<g>
		<path style="fill:#FFFFFF;" d="M267.114,246.409c0,0-2.64-0.177-3.348-0.789c-0.721-0.613,3.348-0.708,3.348-0.708    c-2.028-0.871-3.688-3.253-2.994-3.294c0.708-0.054,3.076,1.715,3.076,1.715c-2.463-3.607-0.707-9.051,2.028-8.698    c1.17,0.15,2.436,2.749,3.498,5.662c-1.864,9.677,3.947,16.796,5.009,17.694c-4.328-3.934-9.582-6.697-13.869-8.48    C264.542,247.552,267.114,246.409,267.114,246.409z"/>
	</g>
	<g>
		<path style="fill:#FFFFFF;" d="M165.686,242.312c0.381-2.191,2.681-5.227,2.885-5.485c-0.177,0.068-2.055,0.871-2.926,0.381    c-0.912-0.517,2.219-1.756,2.219-1.756s-2.409,0.191-2.6-0.531c-0.204-0.708,2.246-0.517,2.246-0.517    c-1.728-1.048-4.859-5.744-2.708-6.982c1.402-0.803,3.266,0.68,4.41,1.824c1.552,4.505,3.825,8.153,9.786,10.236    C178.998,239.481,171.675,240.951,165.686,242.312z"/>
	</g>
	<g>
		<path style="fill:#A9312F;" d="M194.634,314.734c0,0-3.214-4.654-5.097-3.989c-1.884,0.665,2.946,7.708,4.941,8.484    s7.026-5.935,6.029-7.376C199.51,310.412,194.634,314.734,194.634,314.734z"/>
	</g>
	<g>
		<path style="fill:#A9312F;" d="M199.029,344.124c-0.515-2.104-0.954-4.224-1.422-6.338l-1.265-6.37    c-0.425-2.124-0.763-4.263-1.119-6.4c-0.334-2.145-0.687-4.274-0.868-6.477l1.005,0.14c-1.405,3.942-2.66,7.947-3.891,11.952    c-0.611,2.004-1.204,4.016-1.732,6.043c-0.559,2.021-1.042,4.06-1.464,6.12c0.191-2.095,0.578-4.168,0.974-6.236    c0.426-2.062,0.939-4.104,1.459-6.144c0.511-2.043,1.132-4.054,1.741-6.068c0.619-2.012,1.257-4.013,1.934-6.012l0.814-2.4    l0.191,2.541c0.159,2.111,0.467,4.263,0.772,6.395l0.975,6.409l0.977,6.415L199.029,344.124z"/>
	</g>
	<g style="opacity:0.48;">
		<path style="fill:#A9312F;" d="M185.369,319.172c-3.473,0.526-6.911,2.383-9.123,5.521c-3.207,4.549-4.214,10.491-0.92,15.105    c2.044,2.864,5.102,4.573,8.221,5.709c5.976,2.176,12.065,3.915,18.457,2.664c2.318-0.454,4.633-1.26,6.609-2.756    c3.027-2.292,5.072-6.206,5.361-10.258c0.288-4.052-1.186-8.149-3.866-10.738c-3.296-3.186-8.489-4.522-12.8-4.808    C193.465,319.355,189.187,318.594,185.369,319.172z"/>
	</g>
	<g>
		<path style="fill:#A9312F;" d="M272.714,341.022c-3.653,0.487-7.313,0.66-10.974,0.755c-3.662,0.064-7.325,0.049-10.996-0.283    c3.653-0.49,7.312-0.662,10.974-0.755C265.38,340.677,269.044,340.692,272.714,341.022z"/>
	</g>
	<g>
		<path style="fill:#A9312F;" d="M269.826,329.635c-3.066,2.044-6.277,3.808-9.524,5.504c-3.261,1.668-6.558,3.266-10,4.581    c3.065-2.046,6.276-3.81,9.524-5.504C263.087,332.55,266.384,330.953,269.826,329.635z"/>
	</g>
	<g>
		<path style="fill:#A9312F;" d="M219.348,292.063c-0.439,0.794-0.468,1.893,0.182,2.526c0.402,0.392,0.978,0.538,1.53,0.64    c1.988,0.37,4.044,0.372,6.033,0.008c1.185-0.217,2.433-0.622,3.147-1.592c1.624-2.206,0.713-7.462-2.657-7.153    C225.073,286.723,220.531,289.925,219.348,292.063z"/>
	</g>
	<g>
		<path style="fill:#A9312F;" d="M169.001,291.319c0.907,0.03,1.899-0.445,2.166-1.313c0.166-0.536,0.033-1.115-0.126-1.654    c-0.576-1.938-1.51-3.77-2.74-5.375c-0.733-0.956-1.661-1.883-2.851-2.077c-2.703-0.441-6.969,2.762-5.159,5.622    C161.639,288.654,166.558,291.239,169.001,291.319z"/>
	</g>
	<g style="opacity:0.48;">
		<g>
			<path style="fill:#A9312F;" d="M364.148,258.101c-0.323-1.514-0.786-2.999-1.418-4.399c-0.641-1.368-1.449-2.772-2.717-3.503     c-0.591-0.324-1.461-0.51-1.864-0.185c-0.385,0.341-0.326,1.184-0.176,1.876c0.321,1.444,0.949,2.873,1.626,4.213l0.361,0.714     l-0.839-0.017c-6.351-0.129-12.834,1.474-18.313,4.671c-5.517,3.18-9.891,8.075-12.853,13.651     c-2.902,5.63-4.413,11.979-5.518,18.299c-1.034,6.361-1.55,12.81-1.798,19.27c-0.469,12.935,0.549,25.902,2.308,38.746     c1.857,12.837,4.693,25.547,8.548,37.988c-4.673-12.163-8.006-24.851-10.21-37.727c-1.136-6.435-1.949-12.93-2.402-19.455     c-0.469-6.522-0.696-13.07-0.513-19.62c0.135-6.55,0.73-13.1,1.862-19.58c1.2-6.452,2.784-12.932,5.917-18.879     c3.14-5.902,7.994-10.917,13.869-14.093c5.874-3.15,12.548-4.721,19.194-4.232l-0.478,0.697     c-0.648-1.452-1.216-2.913-1.498-4.511c-0.079-0.76-0.294-1.74,0.516-2.51c0.946-0.562,1.819-0.141,2.528,0.229     c1.406,0.924,2.156,2.409,2.719,3.847C363.551,255.052,363.92,256.569,364.148,258.101z"/>
		</g>
	</g>
	<g style="opacity:0.48;">
		<g>
			<path style="fill:#A9312F;" d="M238.937,367.371c4.428-0.731,8.825-1.572,13.167-2.572c4.328-0.987,8.658-2.223,12.515-4.105     l1.154-0.563l0.313,1.281c0.177,0.726,0.463,1.539,0.82,2.134c0.174,0.296,0.387,0.554,0.534,0.643     c0.104,0.096,0.227,0.018,0.113,0.057c-0.148,0.117-0.02,0.034,0.011-0.283c0.035-0.289,0.044-0.653,0-1.037     c-0.07-0.756-0.256-1.599-0.471-2.344l-0.846-2.936l2.587,1.654c0.823,0.526,1.764,1.037,2.674,1.403     c0.901,0.375,1.891,0.611,2.517,0.517c0.276-0.055,0.428-0.175,0.53-0.314c0.066-0.095,0.101-0.265-0.007-0.617     c-0.215-0.68-0.884-1.545-1.524-2.167l-1.184-1.152l1.486-0.719c2.461-1.191,4.956-2.664,7.25-4.308     c2.305-1.653,4.527-3.439,6.56-5.433c2.074-1.958,3.883-4.171,5.582-6.472c1.755-2.279,3.06-4.845,4.385-7.426     c-0.924,2.739-2.051,5.455-3.585,7.949c-1.45,2.547-3.274,4.872-5.255,7.038c-1.986,2.162-4.121,4.212-6.477,5.984     c-2.366,1.777-4.787,3.401-7.53,4.735l0.302-1.87c0.897,0.892,1.668,1.747,2.179,3.126c0.237,0.662,0.326,1.682-0.193,2.522     c-0.468,0.789-1.315,1.277-2.106,1.421c-1.551,0.218-2.719-0.235-3.815-0.664c-1.1-0.462-2.073-1.001-3.074-1.655l1.74-1.281     c0.259,0.94,0.445,1.819,0.532,2.809c0.046,0.487,0.05,1.006-0.032,1.584c-0.09,0.522-0.263,1.396-1.232,1.918     c-0.917,0.43-1.779,0.165-2.376-0.257c-0.572-0.424-0.872-0.905-1.135-1.362c-0.503-0.935-0.768-1.807-0.98-2.786l1.467,0.717     c-2.122,1.007-4.326,1.643-6.527,2.205c-2.203,0.562-4.424,0.98-6.647,1.352C247.91,366.823,243.424,367.224,238.937,367.371z"/>
		</g>
	</g>
	<g>
		<path style="fill:#A9312F;" d="M236.046,398.86c-1.803,1.511-4.459,1.218-6.75,0.658c-4.606-1.17-8.943-3.168-13.427-4.679    c-1.876-0.634-3.752-1.121-5.678-1.487c4.825-3.558,9.455-7.457,13.744-11.428c4.289,1.438,8.31,3.85,11.234,7.31    c1.145,1.389,2.12,2.973,2.437,4.727C237.898,395.741,237.41,397.715,236.046,398.86z"/>
	</g>
	<g>
		<path style="fill:#A9312F;" d="M292.116,394.133c-3.923,3.412-7.773,6.604-11.258,9.162c-2.656-1.438-5.215-2.997-7.773-4.581    c-3.875-2.388-7.773-4.776-11.648-7.164c-1.511-0.926-3.022-1.852-4.435-2.924c-0.56-0.414-1.145-0.877-1.414-1.535    c-0.633-1.462,0.512-3.119,1.852-3.972c2.656-1.657,6.019-1.535,9.089-1.048c7.115,1.072,13.987,3.801,19.957,7.822    C287.9,390.843,290.142,392.33,292.116,394.133z"/>
	</g>
	<g>
		<path style="fill:#A9312F;" d="M315.29,372.08c-3.29,3.314-7.31,7.286-11.575,11.38c-6.652-3.29-18.982-10.478-15.279-16.448    c1.682-2.705,6.945-2.023,9.528-1.608C303.764,366.354,310.928,367.889,315.29,372.08z"/>
	</g>
	<g>
		<path style="fill:#A9312F;" d="M295.528,219.367c-11.307-4.8-37.137-11.38-60.749-7.968c2.071-7.383,4.07-14.523,5.751-20.786    c14.523-0.146,35.602,1.218,54.998,8.285C329.521,211.301,309.32,225.264,295.528,219.367z"/>
	</g>
	<g>
		<path style="fill:#A9312F;" d="M313.097,178.819c-9.016-1.706-46.591-7.115-67.791-5.264c1.73-5.336,3.996-10.965,6.896-16.57    c10.819-1.072,26.488-1.608,44.91,0.78C332.713,162.37,323.77,180.841,313.097,178.819z"/>
	</g>
	<g>
		<path style="fill:#A9312F;" d="M313.877,138.392c-0.78,1.145-2.047,1.876-3.363,2.412c-5.678,2.291-12.086,1.389-18.203,0.633    c-9.382-1.194-18.909-1.974-28.364-1.852c2.875-3.363,6.116-6.555,9.771-9.503c0.39-0.317,0.78-0.609,1.17-0.926    c12.281-0.609,24.587,0.585,36.406,3.947c0.975,0.268,1.998,0.585,2.632,1.365C314.827,135.541,314.656,137.223,313.877,138.392z"/>
	</g>
	<g>
		<path style="fill:#A9312F;" d="M328.863,117.241c-1.608,3.192-9.43,4.264-13.646,4.215c-0.707,0-1.414-0.024-2.12-0.049    c-7.189-0.244-14.109-1.364-21.03-2.437c0.731-0.317,1.462-0.634,2.193-0.926c8.553-3.46,18.495-5.848,30.021-6.726    C327.669,112.709,330.154,114.658,328.863,117.241z"/>
	</g>
	<g>
		<path style="fill:#A9312F;" d="M417.464,172.385c-7.359,7.262-17.374,11.599-27.95,12.525c-2.023,0.195-4.24,0-5.824-1.267    c-2.851-2.266-1.267-5.41,1.072-7.189c7.383-5.58,16.375-10.722,21.858-18.349c0.609-0.853,1.17-1.73,1.657-2.632    c0.171-0.317,0.341-0.633,0.512-0.975C412.055,160.055,414.93,166.074,417.464,172.385z"/>
	</g>
	<g>
		<path style="fill:#A9312F;" d="M428.6,212.178c-3.728,1.949-7.627,3.533-11.575,4.971c-8.382,3.046-17.618,5.337-26.098,2.607    c-2.802-0.901-5.775-2.875-5.824-5.8c-0.097-3.631,4.118-5.604,7.578-6.701c7.457-2.388,14.84-5.093,22.077-8.066    c3.704-1.511,6.726-3.387,9.698-5.458C426.327,199.804,427.72,205.531,428.6,212.178z"/>
	</g>
	<g>
		<path style="fill:#A9312F;" d="M433.401,254.895c-0.682,0.219-1.389,0.439-2.096,0.633c-10.039,2.875-20.591,4.411-30.972,3.265    c-2.437-0.268-4.947-0.731-6.896-2.242c-1.925-1.486-3.07-4.289-1.949-6.457c0.633-1.218,1.828-2.047,3.046-2.656    c3.314-1.681,7.067-2.242,10.746-2.9c9.528-1.682,18.446-4.386,26.634-9.357C432.952,242.075,433.401,248.529,433.401,254.895z"/>
	</g>
	<g>
		<path style="fill:#A9312F;" d="M433.547,281.724c-0.073,1.779-0.146,3.533-0.244,5.215c-0.171,2.997-0.463,5.97-0.877,8.87    c-0.755,0.097-1.535,0.17-2.291,0.219c-9.162,0.658-18.641-0.536-26.707-4.922c-1.95-1.072-4.07-2.827-3.704-5.02    c0.414-2.559,3.68-3.338,6.287-3.411c8.431-0.317,16.936,0.39,25.367-0.512C431.939,282.09,432.67,281.943,433.547,281.724z"/>
	</g>
	<g>
		<path style="fill:#A9312F;" d="M199.029,436.573c-0.411-1.822-0.263-3.746,0.225-5.565c0.47-1.836,1.355-3.575,2.531-5.091    c1.206-1.483,2.638-2.821,4.335-3.684c1.639-0.949,3.486-1.454,5.32-1.627c-1.515,1.099-2.994,2.013-4.291,3.145    c-1.333,1.07-2.486,2.296-3.51,3.608C201.542,429.975,200.152,433.078,199.029,436.573z"/>
	</g>
	<g>
		<path style="fill:#A9312F;" d="M178.169,434.309c-0.326-2.006-0.121-4.062,0.369-6.043c0.487-1.989,1.366-3.897,2.548-5.622    c1.188-1.722,2.801-3.175,4.626-4.184c1.792-1.088,3.899-1.499,5.889-1.559c-1.768,1.015-3.462,1.842-4.87,3.082    c-1.413,1.187-2.715,2.477-3.729,4.016C180.87,427.006,179.457,430.515,178.169,434.309z"/>
	</g>
	<g>
		<path style="fill:#A9312F;" d="M306.495,424.619c-0.549-3.341,1.068-6.843,3.584-9.181c1.312-1.118,2.78-2.071,4.401-2.582    c1.592-0.571,3.278-0.774,4.935-0.659c-0.719,0.461-1.447,0.783-2.143,1.16c-0.676,0.42-1.384,0.73-2.018,1.16    c-1.312,0.78-2.494,1.678-3.59,2.652c-1.104,0.972-2.035,2.112-2.905,3.337C307.906,421.75,307.159,423.095,306.495,424.619z"/>
	</g>
	<g style="opacity:0.48;">
		<g>
			<path style="fill:#A9312F;" d="M362.315,294.153c-0.484,0.819-0.911,1.667-1.203,2.517c-0.329,0.806-0.336,1.829-0.005,2.039     c-0.078,0.095,0.854-0.298,1.443-0.888c0.637-0.569,1.264-1.258,1.825-1.909l1.526-1.773l0.286,2.388     c0.108,0.905,0.326,1.863,0.552,2.742c0.236,0.85,0.598,1.77,1.002,2.136c0.206,0.168,0.224,0.185,0.377,0.192     c0.059,0,0.166-0.033,0.351-0.3c0.338-0.519,0.585-1.492,0.686-2.304l0.419-3.356l1.574,2.897     c0.34,0.626,0.989,1.356,1.643,1.914c0.677,0.577,1.461,1.03,2.3,1.409c0.855,0.328,1.763,0.6,2.717,0.73     c0.953,0.147,1.934,0.174,2.942,0.179c-0.946,0.323-1.937,0.584-2.966,0.659c-1.029,0.101-2.083,0.015-3.127-0.21     c-1.042-0.241-2.047-0.684-2.965-1.281c-0.936-0.615-1.709-1.314-2.408-2.377l1.992-0.459c-0.068,1.164-0.185,2.223-0.883,3.424     c-0.333,0.571-1.046,1.271-2,1.378c-0.85,0.135-1.83-0.295-2.309-0.842c-0.996-1.093-1.233-2.174-1.538-3.221     c-0.264-1.058-0.365-2.079-0.43-3.164l1.812,0.615c-0.711,0.735-1.437,1.367-2.291,1.95c-0.419,0.291-0.879,0.561-1.43,0.773     c-0.276,0.098-0.599,0.183-0.99,0.169c-0.373-0.004-0.915-0.206-1.132-0.56c-0.481-0.656-0.448-1.323-0.327-1.868     c0.132-0.548,0.368-1.007,0.632-1.43C360.925,295.48,361.586,294.772,362.315,294.153z"/>
		</g>
	</g>
	<g>
		<path style="fill:#FB5555;" d="M473.939,390.068c-7.35,13.875-20.126,24.568-35.627,27.934c-1.786,0.389-3.595,0.687-5.404,0.87    c-0.412,0.046-0.847,0.092-1.305,0.115c-8.174,0.366-24.934-2.679-38.329-8.311h-0.023c-4.556-1.9-8.701-4.121-12.021-6.571    c-14.288-10.624-30.178-29.079-30.178-49.434c0-31.734,25.804-59.37,57.631-61.294c1.259-0.069,2.518-0.114,3.755-0.114    c13.532,0,27.888,13.12,34.459,27.934c0.435,0.962,6.571,2.313,9.09,2.999h0.023c0.366,0.092,0.641,0.183,0.824,0.252    c3.137,1.214,6.251,2.587,9.158,4.305c5.198,3.045,9.639,7.212,12.318,12.685c2.038,4.19,3.183,8.723,3.618,13.371    C483.074,366.897,479.365,379.834,473.939,390.068z"/>
	</g>
	<g>
		<path style="fill:#67DCBC;" d="M512,298.131c0,0-12.868,3-19.966,10.441c-7.121,7.464-19.737,19.416-42.221,8.494    c0,0,0,0,0.023-0.023l0.023-0.046C451.05,315.601,473.58,289.431,512,298.131z"/>
	</g>
	<g>
		<path style="fill:#67DCBC;" d="M450.477,316.883v0.023c-0.343,0.435-0.549,0.664-0.549,0.664    c-21.683-24.614,4.121-52.868,4.121-52.868C471.931,288.286,453.98,312.579,450.477,316.883z"/>
	</g>
	<g style="opacity:0.4;">
		<path style="fill:#A9312F;" d="M453.156,329.568c-0.824,1.603-5.655,2.816-10.303,0.458c-0.275-0.137-0.572-0.298-0.847-0.458    c-0.687-0.412-1.305-0.939-1.877-1.557c-3.595-3.801-5.083-10.716-2.404-11.082c1.923-0.275,4.259,2.633,5.77,4.877    c0.916,1.374,1.534,2.519,1.534,2.519s0.092,0.046,0.252,0.115C446.722,325.012,453.958,328.034,453.156,329.568z"/>
	</g>
	<g>
		<path style="fill:#67DCBC;" d="M451.05,315.166v1.74c0,0-3.045,2.473-5.77,7.533c-0.87,1.603-1.717,3.457-2.427,5.587    c-0.275-0.137-0.572-0.298-0.847-0.458c-0.687-0.412-1.305-0.939-1.877-1.557c0.618-1.58,1.694-3.892,3.366-6.205    C445.28,319.288,447.753,316.792,451.05,315.166z"/>
	</g>
	<g>
		<path style="fill:#97ECE2;" d="M450.477,316.883c7.716-20.904,3.572-52.181,3.572-52.181    C471.931,288.286,453.98,312.579,450.477,316.883z"/>
	</g>
	<g>
		<path style="fill:#97ECE2;" d="M512,298.131c-28.277-0.092-61.156,18.34-62.164,18.913l0.023-0.046    C451.05,315.601,473.58,289.431,512,298.131z"/>
	</g>
	<g>
		<path style="fill:#FFFFFF;" d="M407.01,302.248c-0.246,0.395-0.439,0.829-0.516,1.288c-0.254,1.515,0.804,2.982,2.1,3.808    c2.091,1.332,4.92,1.406,7.079,0.185c0.661-0.374,1.28-0.883,1.598-1.574c0.247-0.536,0.296-1.141,0.314-1.731    c0.025-0.826-0.015-1.701-0.458-2.399C415.197,298.782,408.746,299.464,407.01,302.248z"/>
	</g>
	<g>
		<path style="fill:#FFFFFF;" d="M396.149,303.879c-0.184,0.258-0.28,0.578-0.267,0.895c0.022,0.552,0.379,1.065,0.865,1.33    c0.485,0.265,1.08,0.295,1.61,0.138c0.315-0.093,0.616-0.253,0.843-0.49c0.772-0.807,0.381-2.09-0.546-2.589    C397.918,302.766,396.608,303.237,396.149,303.879z"/>
	</g>
	<g style="opacity:0.2;">
		<path style="fill:#A9312F;" d="M473.939,390.068c-7.35,13.875-20.126,24.568-35.627,27.934c-1.786,0.389-3.595,0.687-5.404,0.87    c-0.412,0.046-0.847,0.092-1.305,0.115c-8.174,0.366-24.934-2.679-38.329-8.311c47.51,7.647,71.62-25.255,71.62-40.618    c0-21.912-26.789-36.566-28.46-37.459c0.893,0.389,8.449,3.48,18.18,1.465c6.823-1.42,4.076-6.525,1.397-9.868    c0.366,0.092,0.641,0.183,0.824,0.252c3.137,1.214,6.251,2.587,9.158,4.305c5.198,3.045,9.639,7.212,12.318,12.685    c2.038,4.19,3.183,8.723,3.618,13.371C483.074,366.897,479.365,379.834,473.939,390.068z"/>
	</g>
</g>















</svg>
