<?xml version="1.0" encoding="UTF-8"?>
<!-- Generator: Adobe Illustrator 25.2.3, SVG Export Plug-In . SVG Version: 6.00 Build 0)  -->
<svg xmlns="http://www.w3.org/2000/svg" xmlns:xlink="http://www.w3.org/1999/xlink" version="1.1" id="Capa_1" x="0px" y="0px" viewBox="0 0 512 512" style="enable-background:new 0 0 512 512;" xml:space="preserve" width="512" height="512">
<g>
	<g>
		<g>
			<g>
				<path style="fill:#FF983D;" d="M92.528,314.299c-1.987,0.497-65.072,30.405-33.281,113.059c0,0-32.784,9.066-40.732,30.213      c-2.445,6.506,0.932,7.256,2.935,8.132c4.508,1.969,18.618-9.301,27.56-12.888c12.915-5.18,30.837-5.014,27.126-22.287      c0,0,47.687,16.953,75.504-22.567C179.456,368.443,92.528,314.299,92.528,314.299z"/>
			</g>
			<g style="opacity:0.2;">
				<path style="fill:#A9312F;" d="M92.528,314.299c-1.987,0.497-65.072,30.405-33.281,113.059c0,0-32.784,9.066-40.732,30.213      c-2.445,6.506,0.932,7.256,2.935,8.132c4.508,1.969,18.618-9.301,27.56-12.888c12.915-5.18,30.837-5.014,27.126-22.287      c0,0,47.687,16.953,75.504-22.567C179.456,368.443,92.528,314.299,92.528,314.299z"/>
			</g>
		</g>
		<g>
			<path style="fill:#A9312F;" d="M32.364,462.029c-0.986-0.944-1.59-2.188-1.933-3.495c-0.356-1.314-0.36-2.733-0.078-4.108     c0.313-1.364,0.936-2.688,1.9-3.692c0.897-1.054,2.117-1.763,3.398-2.133c-0.633,1.218-1.295,2.195-1.745,3.255     c-0.482,1.028-0.847,2.053-1.054,3.124C32.345,457.116,32.355,459.366,32.364,462.029z"/>
		</g>
	</g>
	<g>
		<path style="fill:#FF983D;" d="M503.35,240.794c-0.215,10.579-1.884,20.324-4.549,29.234c-1.696,5.841-3.823,11.306-6.218,16.394    c-3.849,8.237-8.399,15.506-12.948,21.751c-5.734,7.833-11.522,14.079-16.125,18.601c-1.481,1.48-2.827,2.773-4.011,3.849    c-0.054,0.081-0.135,0.162-0.242,0.242c-17.363,16.232-34.457-29.558-34.457-29.558l-8.614-39.787c0,0-19.732-7.726-43.044-19.893    c-40.217-21.051-91.149-55.427-70.098-86.6c33.273-49.209,42.91-53.597,42.91-53.597s67.056-15.909,116.911,38.791    c5.895,6.461,11.575,13.944,16.851,22.558c0.835,1.373,1.669,2.746,2.477,4.173c3.203,5.572,6.003,11.037,8.399,16.367    c2.665,5.869,4.845,11.602,6.622,17.175c2.261,7.107,3.823,13.944,4.819,20.513C503.081,227.9,503.485,234.495,503.35,240.794z"/>
	</g>
	<g>
		<path style="fill:#FF983D;" d="M289.242,163.852c0,0-58.06-12.528-79.978-39.659c-21.918-27.131-45.711-76.444-113.916-47.029    C27.143,106.579,77.107,207.301,78.694,230.3c1.586,22.999-24.585,154.851,38.861,220.974    c63.447,66.123,118.959,74.054,199.063,43.917c80.104-30.138,133.241-96.757,125.31-186.375    C433.996,219.197,384.793,184.643,289.242,163.852z"/>
	</g>
	<g style="opacity:0.7;">
		<path style="fill:#67DCBC;" d="M289.242,163.852c0,0-58.06-12.528-79.978-39.659c-21.918-27.131-45.711-76.444-113.916-47.029    C27.143,106.579,77.107,207.301,78.694,230.3c1.586,22.999-24.585,154.851,38.861,220.974    c63.447,66.123,118.959,74.054,199.063,43.917c80.104-30.138,133.241-96.757,125.31-186.375    C433.996,219.197,384.793,184.643,289.242,163.852z"/>
	</g>
	<g>
		<g>
			<path style="fill:#FF983D;" d="M226.529,104.814c0,0-23.014-0.784-37.236,20.93c-14.222,21.714-6.464,59.966,7.434,59.91     c13.898-0.056,16.757-8.509,16.757-8.509s8.296-3.893,7.801-14.795c-0.346-7.611,12.645-33.962,12.645-33.962L226.529,104.814z"/>
		</g>
		<g style="opacity:0.2;">
			<path style="fill:#A9312F;" d="M226.529,104.814c0,0-23.014-0.784-37.236,20.93c-14.222,21.714-6.464,59.966,7.434,59.91     c13.898-0.056,16.757-8.509,16.757-8.509s8.296-3.893,7.801-14.795c-0.346-7.611,12.645-33.962,12.645-33.962L226.529,104.814z"/>
		</g>
		<g>
			<path style="fill:#A9312F;" d="M211.528,175.603c0.185,0.128,0.371,0.259,0.552,0.404c0.088,0.075,0.172,0.154,0.257,0.244     c0.045,0.052,0.081,0.081,0.136,0.185l0.037,0.118c0,0,0.015,0.01-0.016,0.129c-0.016,0.112-0.212,0.25-0.317,0.232     c-0.203-0.021-0.094-0.019-0.156-0.032c-0.104-0.049-0.158-0.1-0.172-0.108c-0.43-0.336-0.697-0.666-1.009-1.018     c-0.574-0.712-1.075-1.466-1.505-2.254c-0.886-1.565-1.512-3.238-2.032-4.927c-0.954-3.404-1.431-6.929-0.962-10.505     c1.538,3.263,2.433,6.541,3.418,9.786l1.408,4.867c0.251,0.803,0.479,1.623,0.761,2.416c0.12,0.396,0.289,0.821,0.426,1.141     c0.02,0.034,0.007,0.018-0.051-0.001c-0.051-0.01,0.07,0.017-0.124-0.02c-0.1-0.023-0.29,0.111-0.301,0.219     c-0.024,0.116-0.011,0.113-0.011,0.113l0.013,0.04c0.014,0.005-0.001-0.063-0.012-0.103l-0.1-0.299     C211.697,176.02,211.614,175.812,211.528,175.603z"/>
		</g>
		<g>
			<path style="fill:#A9312F;" d="M200.103,185.003c-1.334-0.921-2.378-2.151-3.249-3.472c-0.885-1.322-1.533-2.787-2.034-4.304     c-0.469-1.526-0.746-3.125-0.732-4.732c-0.039-1.599,0.301-3.216,0.936-4.683c0.428,1.572,0.656,3.023,1.049,4.451     c0.374,1.42,0.721,2.823,1.19,4.201C198.101,179.26,199.151,181.957,200.103,185.003z"/>
		</g>
	</g>
	<g>
		<g>
			<g>
				<path style="fill:#FF983D;" d="M459.26,411.332c-0.135,6.679-1.552,13.628-4.554,20.409c-1.653,3.846-3.812,7.624-6.511,11.267      c-13.055,17.71-34.476,15.821-54.041,13.19c-8.332-1.113-16.327-2.395-23.175-2.362c-1.214,0-2.361,0.068-3.508,0.169      c-12.347,1.046-22.77,9.884-31.035,17.272c-6.983,6.173-12.448,11.368-16.294,10.053c-8.467-2.901-16.192-9.682-5.33-29.011      c0.371-0.675,0.776-1.35,1.248-1.991c4.318-6.511,10.93-11.301,18.418-14.776c7.219-3.339,15.282-5.465,22.939-6.679      c5.937-0.945,11.672-1.384,16.563-1.451c7.59-0.101,16.732,1.147,25.672,1.72c9.243,0.54,18.25,0.337,24.963-2.969      c2.462-1.215,4.621-2.867,6.375-5.027c11.132-13.763-0.622-29.894-0.622-29.894l6.405-19.057      C451.178,378.641,459.53,394.094,459.26,411.332z"/>
			</g>
			<g style="opacity:0.2;">
				<path style="fill:#A9312F;" d="M459.26,411.332c-0.135,6.679-1.552,13.628-4.554,20.409c-1.653,3.846-3.812,7.624-6.511,11.267      c-13.055,17.71-34.476,15.821-54.041,13.19c-8.332-1.113-16.327-2.395-23.175-2.362c-1.214,0-2.361,0.068-3.508,0.169      c-12.347,1.046-22.77,9.884-31.035,17.272c-6.983,6.173-12.448,11.368-16.294,10.053c-8.467-2.901-16.192-9.682-5.33-29.011      c0.371-0.675,0.776-1.35,1.248-1.991c4.318-6.511,10.93-11.301,18.418-14.776c7.219-3.339,15.282-5.465,22.939-6.679      c5.937-0.945,11.672-1.384,16.563-1.451c7.59-0.101,16.732,1.147,25.672,1.72c9.243,0.54,18.25,0.337,24.963-2.969      c2.462-1.215,4.621-2.867,6.375-5.027c11.132-13.763-0.622-29.894-0.622-29.894l6.405-19.057      C451.178,378.641,459.53,394.094,459.26,411.332z"/>
			</g>
		</g>
		<g>
			<path style="fill:#A9312F;" d="M394.154,456.198c-8.332-1.113-16.327-2.395-23.175-2.362c1.754-3.171,5.296-7.927,11.031-8.939     C387.947,443.818,392.096,451.306,394.154,456.198z"/>
		</g>
		<g>
			<path style="fill:#A9312F;" d="M424.616,426.175c-0.27,4.891-1.889,12.077-8.805,13.089c-7.927,1.147-13.696-6.207-16.158-10.12     C408.895,429.683,414.86,429.271,424.616,426.175z"/>
		</g>
		<g>
			<path style="fill:#A9312F;" d="M459.26,411.332c-0.135,6.679-1.552,13.628-4.554,20.409c-2.159-3.103-4.655-7.624-4.318-11.537     C450.759,415.92,455.684,412.951,459.26,411.332z"/>
		</g>
		<g>
			<path style="fill:#A9312F;" d="M336.436,471.277c-6.983,6.173-12.448,11.368-16.294,10.053     c-8.467-2.901-16.192-9.682-5.33-29.011c0.371-0.675,0.776-1.35,1.248-1.991c3.812,4.487,8.872,12.684,7.489,23.479     C323.55,473.807,330.195,466.723,336.436,471.277z"/>
		</g>
		<g>
			<path style="fill:#A9312F;" d="M357.418,428.874c-0.709,4.486-2.766,11.132-8.805,12.515c-5.903,1.35-11.132-2.699-14.135-5.836     C341.698,432.214,349.761,430.088,357.418,428.874z"/>
		</g>
	</g>
	<g>
		<path style="fill:#FF983D;" d="M428.272,184.021c-3.634,17.552-11.414,48.724-37.902,67.918s-54.889,21.482-67.245,18.278    c-12.356-3.203-24.2-26.516,7.753-47.082c3.796-2.45,7.322-5.142,10.553-7.968c6.918-6.003,12.544-12.652,17.04-19.032    c11.091-15.721,15.425-29.988,15.425-29.988l15.317-14.294C389.212,151.853,431.933,166.443,428.272,184.021z"/>
	</g>
	<g>
		<path style="fill:#A9312F;" d="M310.416,252.011c1.972-0.638,3.886-1.194,5.783-1.751c1.884-0.589,3.767-1.11,5.57-1.806    c1.815-0.653,3.589-1.384,5.294-2.263c1.688-0.915,3.284-1.96,4.895-3.29c-0.733,1.95-2.151,3.636-3.799,4.96    c-1.658,1.336-3.577,2.254-5.523,3c-1.969,0.702-4.002,1.146-6.055,1.352C314.533,252.418,312.458,252.431,310.416,252.011z"/>
	</g>
	<g>
		<path style="fill:#A9312F;" d="M316.346,266.275c4.062-1.712,8.102-2.948,12.058-4.4c3.985-1.423,7.796-2.871,11.575-5.105    c-1.155,1.907-2.91,3.4-4.76,4.618c-1.855,1.25-3.897,2.122-5.953,2.898c-2.077,0.726-4.199,1.285-6.361,1.626    C320.747,266.259,318.559,266.456,316.346,266.275z"/>
	</g>
	<g>
		<path style="fill:#FF983D;" d="M428.504,233.246c0,0-9.512-19.831-55.967,8.743C310.599,280.085,351.21,355.26,351.21,355.26    s-13.953,0.67-32.081,10.447c-18.128,9.778-32.466,20.777-21.01,24.408c11.457,3.631,21.273-8.05,39.293-9.261    c18.019-1.211,33.607,11.042,38.357-13.678c0,0,88.271-4.143,106.427-78.586L428.504,233.246z"/>
	</g>
	<g>
		<g>
			<g>
				<path style="fill:#FF983D;" d="M395.881,112.892c0-0.81-0.135-1.619-0.202-2.462c-0.337-2.935-0.877-5.836-1.619-8.703      c0,0-0.034,0-0.034-0.001c6.556-12.665,7.189-35.54,3.477-43.276c-0.746-1.587-1.698-2.553-2.808-2.639      c-4.752-0.383-13.865,7.217-21.573,14.659c-0.231-0.227-0.49-0.425-0.752-0.621c-19.658-14.729-42.731-25.455-66.833-30.419      c-0.39-0.08-0.781-0.157-1.173-0.23c-11.081-2.046-23.114-3.07-34.176-0.318c-3.392-10.251-8.268-17.988-13.744-18.835      c-0.104-0.02-0.217-0.035-0.319-0.043c-4.942-0.527-16.195,17.548-12.955,35.306c-1.552,1.653-3.036,3.407-4.453,5.229      c-0.877,1.113-1.754,2.26-2.564,3.508c-0.506,0.641-0.944,1.349-1.417,2.058c0,0.034-0.034,0.034-0.034,0.067      c0,0,0,0.067-0.034,0.101c-1.788,2.733-3.441,5.6-4.891,8.636c-0.169,0.338-0.304,0.607-0.439,0.911      c-0.034,0.068-0.068,0.135-0.101,0.202c-0.067,0.135-0.135,0.27-0.169,0.405c-0.067,0.101-0.168,0.337-0.236,0.439      c-0.405,0.978-0.844,1.956-1.248,2.935c-0.236,0.506-0.405,1.046-0.641,1.586c-0.202,0.607-0.405,1.147-0.641,1.72      c0,0.068-0.034,0.169-0.067,0.236l-0.405,1.214c-1.518,4.52-2.597,9.142-3.238,13.864c-0.034,0.101-0.067,0.236-0.067,0.338      v0.034l-0.067,0.304c0,0.169-0.034,0.303-0.034,0.472c-0.067,0.404-0.101,0.843-0.135,1.282      c-0.101,0.877-0.168,1.754-0.168,2.631c-0.034,0.067-0.034,0.169-0.034,0.236c0,0,0,0.101-0.007,0.099      c0,0-2.802,23.843,3.152,36.187c4.523,9.368,14.387,19.436,35.137,25.973c0.525,0.175,1.08,0.35,1.634,0.525      c0.029,0,0.029,0,0.03-0.004c2.832,1.517,5.698,2.899,8.597,4.147c7.691,3.34,15.551,5.802,23.175,7.556      c3.205,0.776,6.376,1.417,9.445,1.923c8.062,1.417,15.652,2.091,22.096,2.429c6.443,0.337,11.773,0.27,15.45,0.135      c0.506-0.034,0.945-0.034,1.383-0.068c1.383-0.067,2.463-0.135,3.137-0.202c0.135,0,0.304,0,0.405-0.034      c0.371,0,0.54-0.034,0.54-0.034s1.45,0.202,3.913-0.068c0.405,0,0.809-0.068,1.248-0.101c6.207-0.877,17.17-4.352,27.594-17.508      c0.068-0.101,0.135-0.203,0.202-0.27c0.27-0.337,0.506-0.675,0.742-1.012c0.169-0.202,0.337-0.438,0.54-0.709      c1.316-1.821,2.699-3.846,4.014-6.038c0.101-0.27,0.27-0.472,0.371-0.675c0.034-0.067,0.034-0.101,0.101-0.135      c0.371-0.708,0.776-1.45,1.181-2.159c0.202-0.338,0.405-0.742,0.607-1.181c0.135-0.169,0.236-0.371,0.371-0.607      c0.54-1.046,1.046-2.125,1.518-3.171c0.068-0.034,0.068-0.101,0.101-0.169c0.169-0.304,0.303-0.641,0.405-0.945      c1.721-3.778,3.137-7.59,4.217-11.469c0.236-0.844,0.472-1.721,0.675-2.564c0.169-0.776,0.337-1.585,0.506-2.395      c0.101-0.439,0.203-0.844,0.236-1.214c0.203-0.81,0.304-1.619,0.439-2.429l0.101-0.607c0.067-0.506,0.169-1.046,0.236-1.552      c0.067-0.472,0.101-0.945,0.169-1.451c0.168-1.956,0.303-3.846,0.337-5.768c0-0.641,0-1.282-0.034-1.923      C396.05,115.119,395.983,114.006,395.881,112.892z"/>
			</g>
			<g>
				<path style="fill:#A9312F;" d="M380.319,110.094C380.176,110.076,380.462,110.128,380.319,110.094c0,0-2.605-0.939-8.586-8.115      c1.015-0.104-1.317,0,0,0c11.773,0,17.408-24.124,17.408-24.124c3.411-10.16,4.569-20.233,6.49-20.406      c0.682-0.069,1.301,0.311,1.872,1.001C404.096,72.823,398.994,114.544,380.319,110.094z"/>
			</g>
			<g>
				<path style="fill:#FFFFFF;" d="M387.014,96.674c0,0,2.237,3.605,1.555,4.243c-0.682,0.638-2.919-2.225-2.919-2.225      s-0.413,8.09-5.331,11.402c-0.143-0.017-0.301-0.069-0.445-0.104c0,0-9.552-3.656-15.533-10.832      c1.015-0.104,2.19-0.155,3.507-0.155c11.773,0,17.755-10.626,21.293-21.148c1.031,3.036,3.491,12.04-1.73,16.593      c0,0,4.554,0.431,4.808,1.38C392.473,96.777,387.014,96.674,387.014,96.674z"/>
			</g>
		</g>
		<g>
			<g>
				<path style="fill:#A9312F;" d="M247.01,65.757c-11.846-20.247-0.157-45.064,9.112-45.752c0.1-0.007,0.214,0.023,0.319,0.042      c-0.844,1.687-1.797,4.346-2.105,8.154l-3.568,25.292c0,0,4.318,8.141-0.058,10.846C249.398,65.162,248.091,65.62,247.01,65.757      z"/>
			</g>
			<g>
				<path style="fill:#FFFFFF;" d="M250.71,64.339c-9.279-10.004-0.676-19.736-0.676-19.736s-2.746,0.464-2.884-1.573      c-0.123-1.951,2.724-1.366,2.968-1.317c-0.1-0.112-2.225-2.356-2.143-3.656c0.081-1.338,2.681,0.58,2.681,0.58      c-0.476-5.261,2.196-8.871,3.679-10.435c-0.297,3.843,0.064,8.842,1.871,15.174C259.539,55.013,255.086,61.634,250.71,64.339z"/>
			</g>
		</g>
		<g>
			<path style="fill:#A9312F;" d="M393.788,133.432c-0.207,0.845-0.431,1.708-0.673,2.553c-1.069,3.864-2.467,7.693-4.174,11.471     c-0.138,0.293-0.277,0.603-0.431,0.931c-0.035,0.069-0.052,0.121-0.087,0.189c-0.776-0.31-1.57-0.655-2.329-1     c-3.881-1.76-8.159-4.019-10.194-7.969c-0.69-1.328-1.069-2.795-0.914-4.105c0.277-2.76,2.76-4.329,5.399-4.519     c2.656-0.207,5.486,0.672,8.262,1.397C390.338,132.845,392.063,133.225,393.788,133.432z"/>
		</g>
		<g>
			<path style="fill:#A9312F;" d="M395.806,117.977c-0.035,1.932-0.138,3.83-0.328,5.779c-0.052,0.5-0.121,0.983-0.173,1.466     c-0.069,0.5-0.155,1.035-0.225,1.569c-0.034,0.19-0.051,0.38-0.086,0.57c-3.502-1.966-7.538-4.726-7.228-8.055     c0.069-0.983,0.673-1.725,1.535-2.26c1.759-1.086,4.053-1.138,6.485-0.983C395.806,116.7,395.806,117.339,395.806,117.977z"/>
		</g>
		<g>
			<path style="fill:#A9312F;" d="M384.715,155.666c-0.035,0.051-0.052,0.086-0.086,0.138c-0.121,0.224-0.259,0.431-0.38,0.656     c-1.311,2.191-2.656,4.226-4.019,6.072c-0.173,0.241-0.345,0.482-0.518,0.707c-0.794-1.017-1.535-2.104-2.19-3.225     c-0.897-1.553-1.656-3.278-1.57-4.881c0.069-1.604,1.293-2.984,2.88-2.639c0.776,0.173,1.518,0.707,2.242,1.191     C382.248,154.459,383.472,155.132,384.715,155.666z"/>
		</g>
		<g>
			<path style="fill:#A9312F;" d="M291.818,143.548c0,0-2.357-5.482-4.768-5.337c-2.411,0.146-0.207,6.323,3.654,8.788     c0,0,8.044-1.385,7.289-4.951C297.237,138.483,291.818,143.548,291.818,143.548z"/>
		</g>
		<g style="opacity:0.48;">
			<path style="fill:#A9312F;" d="M304.126,166.9c-1.215,4.284-4.048,8.13-7.388,10.086c-0.944,0.574-1.923,0.978-2.935,1.214     c-7.624-1.754-15.484-4.217-23.175-7.556c-1.552-1.417-2.868-3.205-3.677-5.431c-1.99-5.533,0.337-11.739,4.419-16.058     c2.799-3.002,6.443-4.419,9.816-4.385c3.07,0.034,6.24,1.113,9.243,2.024c0.135,0.034,0.304,0.068,0.472,0.135c0,0,0,0,0.034,0     c0.439,0.135,0.843,0.27,1.282,0.371c3.98,1.046,8.501,3.374,10.828,7.388C304.936,157.927,305.374,162.582,304.126,166.9z"/>
		</g>
		<g style="opacity:0.48;">
			<path style="fill:#E54949;" d="M345.728,182.377c-0.117,0.029-0.263,0.029-0.408,0.029c-2.48,0.204-9.893,0.642-19.961,0.146     c-6.449-0.321-14.037-1.021-22.121-2.422c0.992-3.239,3.735-5.925,7.471-7.033c4.027-1.197,8.667-1.109,11.732-0.963     c6.683,0.262,13.541,1.839,19.29,5.516C343.51,178.788,344.853,180.451,345.728,182.377z"/>
		</g>
		<g>
			<path style="fill:#A9312F;" d="M239.968,96.58c0.103,2.191-1.794,4.036-3.899,4.605c-2.104,0.553-4.347,0.121-6.451-0.431     c-2.433-0.621-4.813-1.397-7.124-2.363v-0.017c0.621-4.847,1.742-9.608,3.294-14.213c0.138-0.397,0.277-0.794,0.414-1.173     c3.208,3.312,7.141,5.882,10.643,8.849C238.363,93.079,239.899,94.631,239.968,96.58z"/>
		</g>
		<g>
			<path style="fill:#A9312F;" d="M228.82,113.65c-1.751,1.459-5.124,2.393-7.4,2.889c-0.408-2.626,0.386-9.425,0.416-10.155     c0-0.905,0.184-1.665,0.243-2.569v-0.088c0.38,0.088,0.788,0.204,1.196,0.292c1.605,0.321,3.239,0.554,4.728,1.196     c1.488,0.642,2.831,1.751,3.239,3.21C231.768,110.382,230.455,112.337,228.82,113.65z"/>
		</g>
		<g>
			<path style="fill:#A9312F;" d="M235.931,77.555c-0.639,0.879-1.898,1.173-2.967,0.914c-1.069-0.276-1.966-0.983-2.777-1.76     c-0.345-0.345-0.673-0.707-0.983-1.069c0.172-0.379,0.345-0.741,0.535-1.139c1.466-3.001,3.105-5.899,4.899-8.642     c0.017-0.034,0.052-0.069,0.069-0.103c0.19,2.742,0.638,5.45,1.294,8.106C236.328,75.088,236.638,76.502,235.931,77.555z"/>
		</g>
		<g>
			<g>
				<path style="fill:#A9312F;" d="M333.027,174.175c2.867,2.284,5.509,4.792,8.096,7.355c2.565,2.586,5.073,5.228,7.355,8.098      c-2.869-2.282-5.511-4.79-8.097-7.355C337.818,179.685,335.31,177.043,333.027,174.175z"/>
			</g>
			<g>
				<path style="fill:#A9312F;" d="M354.745,184.588c-3.224-1.466-6.283-3.203-9.301-5.007c-3.002-1.831-5.964-3.731-8.759-5.905      c3.225,1.463,6.284,3.201,9.302,5.007C348.987,180.516,351.948,182.415,354.745,184.588z"/>
			</g>
			<g>
				<path style="fill:#A9312F;" d="M358.43,172.497c-3.54,0.101-7.051-0.114-10.556-0.407c-3.502-0.325-6.996-0.729-10.463-1.452      c3.54-0.104,7.051,0.111,10.556,0.407C351.469,171.371,354.964,171.776,358.43,172.497z"/>
			</g>
		</g>
		<g>
			<g style="opacity:0.1;">
				<path style="fill:#A9312F;" d="M307.873,138.809C307.556,138.958,307.873,138.809,307.873,138.809L307.873,138.809z"/>
			</g>
		</g>
		<g>
			<path style="fill:#A9312F;" d="M344.023,52.58c-2.854,8.209-7.087,16.008-11.063,23.633c-2.035,3.859-4.35,7.554-6.923,11.016     c-0.818,1.1-1.684,2.199-2.807,2.854c-2.058,1.193-4.584,0.585-6.432-0.772c-3.345-2.409-5.052-6.9-5.216-11.367     c-0.21-4.467,0.935-8.935,2.269-13.238c1.918-6.128,4.521-14.259,8.31-20.902l0,0C322.161,43.804,333.32,46.203,344.023,52.58z"/>
		</g>
		<g>
			<path style="fill:#A9312F;" d="M370.896,68.729c-0.374,0.444-0.748,0.866-1.099,1.31c-2.409,2.877-4.584,6.035-7.274,8.561     c-2.666,2.502-5.964,4.397-9.262,4.14c-1.964-0.164-3.953-1.263-4.654-3.344c-0.514-1.567-0.257-3.344,0.164-5.005     c1.38-5.426,4.257-10.455,7.344-15.39C356.115,58.999,364.341,62.705,370.896,68.729z"/>
		</g>
		<g>
			<path style="fill:#A9312F;" d="M308.846,40.124c-2.479,6.128-5.637,11.929-8.817,17.635c-0.982,1.801-2.503,3.859-4.28,3.438     c-1.474-0.351-2.105-2.339-2.339-4.07c-0.865-6.479,0.749-13.004,2.83-19.179C296.24,37.949,302.295,37.949,308.846,40.124z"/>
		</g>
		<g>
			<path style="fill:#A9312F;" d="M281.001,146.645c0.742,1.913,0.987,3.973,0.975,6.008c0.008,2.046-0.332,4.084-0.887,6.061     c-0.587,1.966-1.396,3.881-2.54,5.59c-1.072,1.745-2.511,3.256-4.13,4.478c0.792-1.897,1.678-3.601,2.358-5.402     c0.716-1.771,1.353-3.554,1.854-5.379C279.726,154.364,280.377,150.642,281.001,146.645z"/>
		</g>
		<g>
			<path style="fill:#A9312F;" d="M297.67,151.991l-1.836,6.263c-0.579,2.058-1.201,4.082-1.644,6.135     c-0.479,2.042-0.852,4.093-1.086,6.17c-0.182,2.082-0.203,4.16-0.013,6.399c-1.205-1.889-1.803-4.158-1.986-6.42     c-0.171-2.273,0.122-4.536,0.592-6.731c0.526-2.185,1.292-4.292,2.283-6.282C294.972,155.538,296.142,153.633,297.67,151.991z"/>
		</g>
		<g>
			<path style="fill:#A9312F;" d="M280.733,154.462c0.906-0.733,2.375-1.23,3.694-1.351c1.368-0.154,2.79,0.035,4.121,0.519     c2.663,0.994,4.775,3.348,5.196,6.04c-2.19-1.619-3.99-2.886-6.099-3.646c-1.03-0.423-2.133-0.676-3.287-0.924     C283.239,154.854,281.89,154.76,280.733,154.462z"/>
		</g>
		<g>
			<path style="fill:#A9312F;" d="M314.589,153.185c0,0,17.274-5.76,27.774,0.911l5.549-6.513     C347.912,147.583,329.004,141.296,314.589,153.185z"/>
		</g>
		<g>
			<path style="fill:#A9312F;" d="M260.28,139.924c0,0-8.504-16.1-20.704-18.536l0.49-8.543     C240.067,112.845,258.078,121.368,260.28,139.924z"/>
		</g>
		<g style="opacity:0.48;">
			<path style="fill:#E54949;" d="M260.397,165.597c0,0.146-0.029,0.263-0.029,0.38c-20.749-6.537-30.613-16.605-35.137-25.973     c1.372-0.876,2.948-1.78,4.699-2.597c5.866-2.743,13.453-4.465,19.99-0.058C260.601,144.526,260.659,160.49,260.397,165.597z"/>
		</g>
		<g>
			<g>
				<path style="fill:#A9312F;" d="M222.801,157.065c3.197-1.793,6.517-3.294,9.867-4.722c3.363-1.399,6.757-2.725,10.274-3.755      c-3.195,1.796-6.516,3.296-9.867,4.722C229.712,154.707,226.318,156.033,222.801,157.065z"/>
			</g>
			<g>
				<path style="fill:#A9312F;" d="M219.523,148.591c3.41-0.955,6.869-1.597,10.34-2.162c3.476-0.533,6.965-0.988,10.503-1.125      c-3.409,0.958-6.868,1.599-10.34,2.162C226.55,147.997,223.061,148.451,219.523,148.591z"/>
			</g>
			<g>
				<path style="fill:#A9312F;" d="M220.318,137.339c3.483,0.64,6.871,1.586,10.238,2.605c3.356,1.049,6.689,2.176,9.928,3.608      c-3.483-0.638-6.872-1.584-10.237-2.606C226.891,139.895,223.558,138.768,220.318,137.339z"/>
			</g>
		</g>
	</g>
	<g style="opacity:0.48;">
		<path style="fill:#E54949;" d="M128.901,95.753c-3.526,2.799-7.941,5.438-12.975,7.618c-1.992,0.861-3.984,1.615-5.922,2.207    c-12.06,3.903-22.612,3.176-24.9-2.127c-2.261-5.222,4.173-13.19,14.886-19.274c1.965-1.104,4.065-2.154,6.299-3.123    c3.742-1.615,7.457-2.799,10.956-3.58c9.852-2.207,17.874-1.023,19.84,3.526C138.807,85.012,135.415,90.638,128.901,95.753z"/>
	</g>
	<g>
		<path style="fill:#67DCBC;" d="M110.515,71.417c0,0-1.561,0.996-4.253,2.046c-8.533,3.284-28.454,7.026-46.705-18.79    C36.19,21.589,10.052,2.638,8.679,1.642C8.652,1.615,8.625,1.615,8.625,1.615c70.61-1.588,84.796,26.408,97.475,54.216    L110.515,71.417z"/>
	</g>
	<g>
		<path style="fill:#FFFFFF;" d="M109.53,339.075c-5.44,4.628-8.09,12.309-6.661,19.307c1.428,6.997,6.877,13.026,13.695,15.151    c3.215,1.003,6.707,1.176,9.969,0.34c3.957-1.014,7.406-3.432,10.51-6.087c4.156-3.554,8.072-8.027,8.649-13.464    C147.669,335.687,121.489,328.9,109.53,339.075z"/>
	</g>
	<g>
		<path style="fill:#FFFFFF;" d="M142.339,404.566c8.443,5.771,23.913-5.099,12.266-12.346    C146.128,386.946,132.281,397.691,142.339,404.566z"/>
	</g>
	<g style="opacity:0.48;">
		<g>
			<path style="fill:#A9312F;" d="M433.602,170.615c0.264,5.987-0.272,12.017-1.399,17.937c-1.173,5.915-3.024,11.692-5.323,17.276     c-4.649,11.173-11.404,21.365-19.169,30.593c-3.972,4.556-8.185,8.875-12.827,12.811c-4.506,3.97-9.57,7.507-14.948,10.245     c-10.74,5.565-22.353,9.234-34.197,11.036c5.821-1.397,11.542-3.142,17.103-5.283c5.574-2.093,11.01-4.542,16.151-7.481     c5.137-2.969,9.988-6.264,14.39-10.298c4.44-3.86,8.551-8.19,12.388-12.695c7.792-8.934,14.378-18.935,19.313-29.712     C430.024,194.279,433.073,182.587,433.602,170.615z"/>
		</g>
	</g>
	<g style="opacity:0.48;">
		<g>
			<path style="fill:#A9312F;" d="M310.35,389.267c-0.483-1.863-0.065-3.894,0.745-5.665c0.811-1.802,2.13-3.325,3.603-4.584     c1.491-1.265,3.218-2.151,4.983-2.841c0.897-0.308,1.815-0.547,2.725-0.763c0.94-0.13,1.868-0.263,2.813-0.28     c-0.783,0.562-1.581,1.008-2.369,1.457c-0.772,0.48-1.533,0.951-2.298,1.386c-1.457,0.993-2.95,1.874-4.216,3.009     C313.717,383.143,311.564,385.721,310.35,389.267z"/>
		</g>
	</g>
	<g>
		<path style="fill:#A9312F;" d="M371.714,217.697c-0.484,3.876-2.557,7.995-6.299,9.099c-4.092,1.212-8.184-1.615-11.575-4.199    c-3.85-2.907-7.941-5.788-12.41-7.43c6.918-6.003,12.544-12.652,17.04-19.032C366.922,199.392,372.845,208.652,371.714,217.697z"/>
	</g>
	<g>
		<path style="fill:#A9312F;" d="M423.103,211.506c-4.226,8.21-9.18,15.29-13.81,21.024c-0.108-0.108-0.162-0.215-0.242-0.323    c-2.638-4.038-2.746-9.206-4.603-13.648c-1.077-2.557-2.692-4.846-4.307-7.107c-1.642-2.342-3.365-5.411-1.965-7.914    c1.211-2.207,4.173-2.692,6.703-2.503c6.676,0.458,13.11,3.876,17.255,9.153C422.457,210.591,422.78,211.021,423.103,211.506z"/>
	</g>
	<g>
		<path style="fill:#A9312F;" d="M479.715,162.782c-2.611,5.034-5.545,10.095-9.987,13.621c-5.276,4.226-15.99,6.676-18.279-1.938    c-0.888-3.338-0.108-6.622,1.373-9.826c2.45-5.276,6.784-10.337,8.587-15.048c1.157-3.042,1.212-6.218,1.454-9.368    C468.759,146.684,474.439,154.168,479.715,162.782z"/>
	</g>
	<g>
		<path style="fill:#A9312F;" d="M497.212,200.496c-7.026,5.707-18.601,7.78-26.489,7.457c-6.514-0.269-7.403-5.922-4.415-10.875    c1.83-3.015,5.142-4.9,8.21-6.38c4.038-1.938,10.229-6.057,16.071-7.376C493.255,189.19,495.436,194.923,497.212,200.496z"/>
	</g>
	<g>
		<path style="fill:#A9312F;" d="M503.35,240.794c-0.646,0.027-1.292,0.054-1.938,0.081c-8.372,0.162-20.997,0.108-28.023-5.115    c-3.176-2.342-4.953-7.107-2.719-10.364c2.611-3.795,8.264-3.203,12.841-2.745c6.38,0.646,12.571,0.215,18.52-1.642    C503.081,227.9,503.485,234.495,503.35,240.794z"/>
	</g>
	<g>
		<path style="fill:#A9312F;" d="M498.801,270.029c-1.696,5.841-3.823,11.306-6.218,16.394c-4.469-0.727-8.802-2.288-13.002-4.065    c-3.15-1.319-6.326-2.827-8.587-5.384c-2.288-2.557-3.392-6.434-1.857-9.476c1.804-3.607,6.568-4.765,10.553-3.984    c3.957,0.754,7.483,2.988,11.225,4.55C493.444,269.113,496.109,269.625,498.801,270.029z"/>
	</g>
	<g>
		<path style="fill:#A9312F;" d="M479.634,308.174c-5.734,7.833-11.522,14.079-16.125,18.601c-0.135-0.081-0.242-0.135-0.377-0.215    c-7.645-4.576-13.191-12.787-13.837-21.697c-0.162-1.911-0.081-3.876,0.7-5.626c2.073-4.657,8.48-5.841,13.217-4.011    c5.303,2.019,8.937,6.568,13.002,10.283c0.054,0.054,0.081,0.081,0.134,0.108C477.454,306.612,478.53,307.447,479.634,308.174z"/>
	</g>
	<g>
		<path style="fill:#97ECE2;" d="M106.262,73.463c-8.533,3.284-28.454,7.026-46.705-18.79C36.19,21.589,10.052,2.638,8.679,1.642    c2.45,0.835,81.055,27.673,97.125,70.529C105.966,72.602,106.127,73.033,106.262,73.463z"/>
	</g>
	<g>
		<path style="fill:#FF983D;" d="M128.901,95.753c-3.526,2.799-7.941,5.438-12.975,7.618c-1.992,0.861-3.984,1.615-5.922,2.207    c-0.754-0.485-1.184-0.781-1.184-0.781s-4.899-8.21-8.83-20.62C92.936,61.969,88.925,26.327,121.31,0l6.595,7.161    c0,0-29.423,30.258-10.66,70.314c2.584,5.491,6.057,11.198,10.66,17.013C128.255,94.918,128.578,95.349,128.901,95.753z"/>
	</g>
</g>















</svg>
