<?xml version="1.0" encoding="UTF-8"?>
<!-- Generator: Adobe Illustrator 25.2.3, SVG Export Plug-In . SVG Version: 6.00 Build 0)  -->
<svg xmlns="http://www.w3.org/2000/svg" xmlns:xlink="http://www.w3.org/1999/xlink" version="1.1" id="Capa_1" x="0px" y="0px" viewBox="0 0 512 512" style="enable-background:new 0 0 512 512;" xml:space="preserve" width="512" height="512">
<g>
	<g>
		<g>
			<g>
				<path style="fill:#67DCBC;" d="M511.505,128.748c-3.027,12.397-17.275,17.01-27.318,22.2      c-15.929,8.217-31.955,16.482-47.211,25.9c-7.184,4.421-15.136,9.298-20.35,16.097c-4.133,5.07-4.709-0.577-4.781-2.403      c-0.024-0.336-0.024-0.529-0.024-0.529c0.048-4.613,2.426-9.875,4.084-14.055c3.916-9.875,9.418-19.101,16.049-27.39      c12.374-15.473,28.639-27.822,46.827-35.655c5.286-2.283,10.884-4.205,16.626-4.084c4.156,0.096,7.953,1.562,10.86,3.94      C510.736,116.446,513.091,122.309,511.505,128.748z"/>
			</g>
			<g>
				<path style="fill:#97ECE2;" d="M506.268,112.77c-56.918,19.533-83.13,55.428-94.423,77.772      c-0.024-0.336-0.024-0.529-0.024-0.529c0.048-4.613,2.426-9.875,4.084-14.055c3.916-9.875,9.418-19.101,16.049-27.39      c12.374-15.473,28.639-27.822,46.827-35.655c5.286-2.283,10.884-4.205,16.626-4.084      C499.564,108.926,503.361,110.392,506.268,112.77z"/>
			</g>
		</g>
		<g>
			<g>
				<path style="fill:#67DCBC;" d="M508.166,178.217c-0.288,5.358-3.604,10.884-8.914,14.151c-7.832,4.853-17.995,4.06-26.597,2.162      c-17.659-3.892-34.333,0.625-50.311,8.505c-0.048,0.024-0.096,0.048-0.144,0.072l-3.219-5.646l-0.817-1.442      c1.754-2.619,5.55-4.829,7.977-6.727c6.127-4.781,12.542-9.226,19.245-13.191c15.305-9.034,36.208-18.02,54.035-10.812      C505.907,167.91,508.478,172.98,508.166,178.217z"/>
			</g>
			<g>
				<path style="fill:#97ECE2;" d="M508.166,178.217c-35.943-14.512-78.806,12.181-89.185,19.245l-0.817-1.442      c1.754-2.619,5.55-4.829,7.977-6.727c6.127-4.781,12.542-9.226,19.245-13.191c15.305-9.034,36.208-18.02,54.035-10.812      C505.907,167.91,508.478,172.98,508.166,178.217z"/>
			</g>
		</g>
		<g>
			<g>
				<path style="fill:#67DCBC;" d="M408.169,186.819c-0.721,1.369-1.393,2.499-1.994,3.412c-1.057,1.586-1.946,2.547-2.715,3.027      c-1.682,1.033-2.691-0.216-3.292-1.898c-0.697-1.97-0.817-4.541-0.817-4.541c0-1.514-19.918-48.941-2.667-68.907      c1.778-2.066,3.508-3.316,5.117-3.844C415.953,109.334,423.498,157.675,408.169,186.819z"/>
			</g>
			<g>
				<path style="fill:#97ECE2;" d="M406.439,195.011l-2.979-1.754l-3.292-1.898c-0.697-1.97-0.817-4.541-0.817-4.541      c0-1.514-19.918-48.941-2.667-68.907c1.778-2.066,3.508-3.316,5.117-3.844c0.865,15.545,3.508,61.219,4.373,76.163      C406.343,193.258,406.439,195.011,406.439,195.011z"/>
			</g>
		</g>
		<g>
			<path style="fill:#FB5555;" d="M278.719,248.615c0,0,30.37-81.291,83.668-83.348c53.298-2.057,99.532,58.314,93.111,91.058     c-6.422,32.744-83.479,98.669-130.355,84.971C278.266,327.598,268.207,270.999,278.719,248.615z"/>
		</g>
		<g>
			<path style="fill:#A9312F;" d="M359.415,192.684c0,0-13.517,5.503-10.288,8.809C352.949,205.404,359.415,192.684,359.415,192.684     z"/>
		</g>
		<g>
			<path style="fill:#A9312F;" d="M385.686,207.432c0,0-13.517,5.503-10.288,8.809C379.219,220.152,385.686,207.432,385.686,207.432     z"/>
		</g>
		<g>
			<path style="fill:#A9312F;" d="M417.226,196.535c0,0-13.517,5.503-10.288,8.809C410.759,209.255,417.226,196.535,417.226,196.535     z"/>
		</g>
		<g>
			<path style="fill:#A9312F;" d="M414.624,255.172c0,0-13.517,5.503-10.288,8.808C408.157,267.892,414.624,255.172,414.624,255.172     z"/>
		</g>
		<g>
			<path style="fill:#A9312F;" d="M385.686,235.195c0,0-13.517,5.503-10.288,8.808C379.219,247.915,385.686,235.195,385.686,235.195     z"/>
		</g>
		<g>
			<path style="fill:#A9312F;" d="M367.018,275.955c0,0-13.517,5.503-10.288,8.809C360.551,288.675,367.018,275.955,367.018,275.955     z"/>
		</g>
		<g>
			<path style="fill:#A9312F;" d="M428.95,225.639c0,0-13.517,5.503-10.288,8.809C422.483,238.359,428.95,225.639,428.95,225.639z"/>
		</g>
		<g>
			<path style="fill:#FFFFFF;" d="M358.439,178.479c-0.15,1.34,0.562,2.649,2.651,3.433c1.257,0.472,2.654,0.43,3.972,0.177     c3.203-0.616,6.236-3.241,4.139-6.613C366.78,171.583,358.91,174.268,358.439,178.479z"/>
		</g>
		<g>
			<path style="fill:#FFFFFF;" d="M346.632,180.256c-0.052,0.468,0.196,0.925,0.925,1.199c0.439,0.165,0.927,0.15,1.387,0.062     c1.118-0.215,2.177-1.132,1.445-2.309C349.545,177.849,346.797,178.786,346.632,180.256z"/>
		</g>
	</g>
	<g>
		<path style="fill:#A9312F;" d="M330.649,191.012c0,0-13.517,5.503-10.288,8.808C324.183,203.732,330.649,191.012,330.649,191.012z    "/>
	</g>
	<g>
		<path style="fill:#A9312F;" d="M343.892,251.615c0,0-13.517,5.503-10.288,8.808C337.425,264.335,343.892,251.615,343.892,251.615z    "/>
	</g>
	<g>
		<path style="fill:#A9312F;" d="M341.802,223.702c0,0-13.517,5.503-10.288,8.808C335.335,236.422,341.802,223.702,341.802,223.702z    "/>
	</g>
	<g>
		<path style="fill:#A9312F;" d="M308.923,235.195c0,0-13.517,5.503-10.288,8.808C302.456,247.915,308.923,235.195,308.923,235.195z    "/>
	</g>
	<g>
		<path style="fill:#A9312F;" d="M357.609,307.358c0,0-13.517,5.503-10.288,8.808C351.143,320.078,357.609,307.358,357.609,307.358z    "/>
	</g>
	<g>
		<g>
			<g>
				<path style="fill:#FF983D;" d="M44.147,317.462c0,0-19.06,28.258-3.276,58.946c0,0-45.663,24.299-40.458,36.037      c5.205,11.739,37.192-18.331,58.757-22.239c21.565-3.908,13.172-15.487,13.172-15.487s36.996,10.037,40.71-32.747      C116.767,299.19,44.147,317.462,44.147,317.462z"/>
			</g>
			<g style="opacity:0.2;">
				<path style="fill:#A9312F;" d="M44.147,317.462c0,0-19.06,28.258-3.276,58.946c0,0-45.663,24.299-40.458,36.037      c5.205,11.739,37.192-18.331,58.757-22.239c21.565-3.908,13.172-15.487,13.172-15.487s36.996,10.037,40.71-32.747      C116.767,299.19,44.147,317.462,44.147,317.462z"/>
			</g>
		</g>
		<g>
			<path style="fill:#A9312F;" d="M16.87,411.023c0,0-1.639-5.75,5.477-10.602"/>
		</g>
	</g>
	<g>
		<g>
			<g>
				<path style="fill:#FF983D;" d="M461.729,279.509c-1.874,2.258-4.901,4.277-9.106,5.67c-16.073,5.358-25.804,0-33.949,31.811      c-0.504,2.018-0.913,4.229-1.225,6.583c-0.697,5.285-1.057,11.292-1.658,17.443c-0.673,6.583-1.61,13.286-3.58,19.389      c-1.922,5.982-4.805,11.365-9.346,15.497c-0.504,0.457-1.009,0.913-1.538,1.346c-10.571,8.986-26.333,15.401-57.23,10.283      l2.21-22.729c0,0,4.133,2.571,10.596,3.748c5.189,0.961,11.893,0.985,19.173-1.946c3.532-1.441,7.208-3.556,10.908-6.631      c19.605-16.242,7.184-41.709,15.569-65.495c0.505-1.49,1.129-2.979,1.826-4.445c4.181-8.794,9.25-15.329,14.776-19.942      c0.048-0.024,0.072-0.024,0.072-0.024c6.872-5.742,14.44-8.481,21.84-8.89c3.508-0.216,6.992,0.096,10.331,0.865      C463.267,264.78,467.015,273.141,461.729,279.509z"/>
			</g>
			<g style="opacity:0.2;">
				<path style="fill:#A9312F;" d="M461.729,279.509c-1.874,2.258-4.901,4.277-9.106,5.67c-16.073,5.358-25.804,0-33.949,31.811      c-0.504,2.018-0.913,4.229-1.225,6.583c-0.697,5.285-1.057,11.292-1.658,17.443c-0.673,6.583-1.61,13.286-3.58,19.389      c-1.922,5.982-4.805,11.365-9.346,15.497c-0.504,0.457-1.009,0.913-1.538,1.346c-10.571,8.986-26.333,15.401-57.23,10.283      l2.21-22.729c0,0,4.133,2.571,10.596,3.748c5.189,0.961,11.893,0.985,19.173-1.946c3.532-1.441,7.208-3.556,10.908-6.631      c19.605-16.242,7.184-41.709,15.569-65.495c0.505-1.49,1.129-2.979,1.826-4.445c4.181-8.794,9.25-15.329,14.776-19.942      c0.048-0.024,0.072-0.024,0.072-0.024c6.872-5.742,14.44-8.481,21.84-8.89c3.508-0.216,6.992,0.096,10.331,0.865      C463.267,264.78,467.015,273.141,461.729,279.509z"/>
			</g>
		</g>
		<g>
			<path style="fill:#A9312F;" d="M412.211,360.404c-1.922,5.982-4.805,11.365-9.346,15.497c-0.504,0.457-1.009,0.913-1.538,1.346     c0,0-1.682-9.034,2.763-13.983C406.469,360.645,409.713,360.212,412.211,360.404z"/>
		</g>
		<g>
			<path style="fill:#A9312F;" d="M376.076,366.603c-1.418,4.348-4.373,10.86-9.394,10.644c-4.685-0.192-7.953-5.07-9.779-8.698     C362.711,368.601,364.486,370.008,376.076,366.603z"/>
		</g>
		<g>
			<path style="fill:#A9312F;" d="M417.449,323.573c-0.697,5.285-1.057,11.292-1.658,17.443c-3.364-1.898-7.592-5.285-5.959-9.706     C411.323,327.296,414.758,324.894,417.449,323.573z"/>
		</g>
		<g>
			<path style="fill:#A9312F;" d="M461.729,279.509c-13.286-2.619-18.788-13.286-20.663-18.332     c3.508-0.216,6.992,0.096,10.331,0.865C463.267,264.78,467.015,273.141,461.729,279.509z"/>
		</g>
		<g>
			<path style="fill:#A9312F;" d="M402.553,294.477c0.505-1.49,1.129-2.979,1.826-4.445c4.181-8.794,9.25-15.329,14.776-19.942     c0.048-0.024,0.072-0.024,0.072-0.024S423.047,297.672,402.553,294.477z"/>
		</g>
	</g>
	<g>
		<g>
			<g>
				<path style="fill:#FF983D;" d="M327.041,255.678c1.42,1.01,50.029,54.204,36.307,110.42      c-13.452,55.112-51.927,61.941-51.927,61.941s17.514,40.569,16.567,55.312c-0.947,14.743-3.313,19.004-9.467,19.004      c-6.153,0-15.989-22.573-24.665-41.507c-8.676-18.934-14.809-43.03-21.909-51.55c-7.1-8.52-39.575,15.328-50.936-10.419      C209.651,373.131,327.041,255.678,327.041,255.678z"/>
			</g>
			<g style="opacity:0.2;">
				<path style="fill:#A9312F;" d="M327.041,255.678c1.42,1.01,50.029,54.204,36.307,110.42      c-13.452,55.112-51.927,61.941-51.927,61.941s17.514,40.569,16.567,55.312c-0.947,14.743-3.313,19.004-9.467,19.004      c-6.153,0-15.989-22.573-24.665-41.507c-8.676-18.934-14.809-43.03-21.909-51.55c-7.1-8.52-39.575,15.328-50.936-10.419      C209.651,373.131,327.041,255.678,327.041,255.678z"/>
			</g>
		</g>
		<g>
			<path style="fill:#A9312F;" d="M309.542,492.968c0,0,8.024-5.202,7.538-22.235"/>
		</g>
	</g>
	<g>
		<path style="fill:#FF983D;" d="M344.235,249.173c-0.096-9.298-0.865-17.899-2.187-25.443c-0.961-5.646-2.258-10.668-3.796-14.969    c-0.432-1.201-0.889-2.402-1.369-3.58c-2.691-6.992-5.839-13.503-9.25-19.533c-2.622-4.651-5.396-9.011-8.241-13.088    c6.799-5.742,14.007-18.266,17.611-25.546c3.051-6.078,4.997-12.638,6.031-19.557c0.312-1.994,0.504-3.988,0.672-6.031    c0.048-0.985,0.096-1.97,0.144-2.955v-0.096c0.192-5.958-0.216-12.109-1.201-18.404c-0.265-1.773-0.526-3.569-0.961-5.309    c-1.105-5.214-3.124-10.115-5.91-14.68c-0.361-0.697-12.421-22.729-16.074-33.253c-3.7-10.668-5.886-24.41-12.205-24.843    c-5.718-0.409-18.764,11.701-21.671,25.66c-3.027-0.889-6.127-1.73-9.395-2.499c-0.48-0.144-1.009-0.264-1.49-0.36    c-4.757-1.129-9.755-2.114-14.992-2.931c-2.139-0.36-4.364-0.721-6.574-1.01l-27.052,13.04l-5.142-15.872    c-1.225-0.024-2.484-0.098-3.686-0.098c-3.268-0.097-6.391-0.072-9.466,0l-0.385-0.409c-1.729-1.778-3.916-4.397-4.18-4.685    c-3.387-3.988-5.406-9.202-8.361-13.479c-4.325-6.222-11.028-10.788-19.077-9.322c-0.505,0.096-0.985,0.288-1.418,0.625    c-1.129,0.817-2.066,2.331-2.835,4.349c-2.715,7.232-2.883,20.567-0.216,28.663c0.048,0.168,0.12,0.336,0.168,0.505    c-15.136,5.478-25.371,14.175-32.363,24.338c-0.481,0.696-0.937,1.417-1.418,2.138l1.171,9.448l-6.144-0.03    c-0.697,1.561-1.345,3.123-1.946,4.709c-0.264,0.745-0.513,1.449-0.778,2.193l1.008,12.168l-3.067,1.175l-1.632,0.513    c-0.384,2.018-0.672,3.988-0.889,5.934l0.359,0.673l2.308,6.533l-3.171,3.245c0.265,13.863,4.205,24.963,7.736,32.147    c0.793,1.634,1.562,3.051,2.258,4.277c0.24,0.384,0.457,0.745,0.672,1.081c-0.192,0.261-0.364,0.531-0.54,0.801L91.072,200.28    l-11.221,65.327c0,0,74.845,97.395,113.62,145.983c29.888,4.133,54.443-0.024,74.409-9.707    C325.278,374.157,344.883,301.069,344.235,249.173z"/>
	</g>
	<g>
		<path style="fill:#A9312F;" d="M304.28,52.808c0,0-3.545,0.154-8.703-1.991c-5.421-2.244-9.531-3.226-9.744-3.291    c2.898-13.952,12.389-25.95,21.665-25.66h0.016c0.803,3.242,1.736,7.123-0.704,15.458c-0.246,0.819-0.426,1.621-0.573,2.407    L304.28,52.808z"/>
	</g>
	<g>
		<path style="fill:#A9312F;" d="M171.727,44.062c1.746-0.805,3.494-1.327,5.733-1.908l6.669-6.1l-2.428-9.62    c-0.786-2.293-1.425-4.765-2.161-7.352c-2.031-7.091-4.929-8.548-4.929-8.548S160.975,17.353,171.727,44.062z"/>
	</g>
	<g style="opacity:0.48;">
		<path style="fill:#E54949;" d="M165.913,166.475c-3.484,1.417-7.88,1.778-12.325,1.273l-0.024-0.024    c-13.142-6.295-16.987-12.325-16.987-12.325l-1.49,0.312c0.24-0.384,0.48-0.745,0.745-1.105c-0.216-0.336-0.432-0.697-0.673-1.081    c-0.697-1.226-1.465-2.643-2.259-4.277c1.346-3.989,4.949-7.256,9.082-7.617c6.103-0.528,12.205,1.057,17.635,3.652    c2.523,1.201,6.223,3.051,8.938,5.694C173.409,155.735,172.88,163.664,165.913,166.475z"/>
	</g>
	<g>
		<path style="fill:#A9312F;" d="M253.377,40.746c-7.042,5.257-12.659,13.69-17.096,20.028c-2.44,3.471-4.7,7.074-6.828,10.742    c-1.605,2.751-4.323,5.404-7.713,5.601c-4.257,0.246-7.811-2.751-9.661-6.37c-2.325-4.52-2.014-9.661-0.884-14.476    c1.605-6.812,5.224-13.133,9.989-18.357c0.344,0.016,0.704,0.032,1.064,0.049C233.382,38.486,243.764,39.419,253.377,40.746z"/>
	</g>
	<g>
		<path style="fill:#A9312F;" d="M139.681,104.791c-4.569,0.377-9.138-1.506-13.117-4.078c0.082-0.426,0.164-0.851,0.262-1.294    c0.082-0.409,0.165-0.835,0.262-1.261c0.875-3.859,1.947-7.773,3.161-11.299C138.322,95.407,148.246,104.07,139.681,104.791z"/>
	</g>
	<g>
		<path style="fill:#A9312F;" d="M137.078,116.352c-3.111,1.523-7.664,1.408-11.921,0.737c-0.017-1.015-0.017-2.047,0-3.095    c0.049-2.293,0.196-4.651,0.475-7.074c0.016-0.099,0.016-0.181,0.033-0.279C134.277,109.785,142.564,113.666,137.078,116.352z"/>
	</g>
	<g>
		<path style="fill:#A9312F;" d="M140.238,84.354c-2.473-0.557-4.978-2.276-7.271-4.405c0.049-0.147,0.115-0.294,0.18-0.442    c1.392-3.062,2.98-6.075,4.815-8.974C142.465,78.082,145.969,85.648,140.238,84.354z"/>
	</g>
	<g>
		<path style="fill:#A9312F;" d="M274.927,44.676c-1.883,1.687-3.995,3.57-5.518,4.995c-4.815,4.52-10.005,10.955-13.461,11.397    c-7.222,0.933-9.465-6.239-4.225-12.887c2.391-3.029,5.519-5.093,8.221-6.452h0.016C265.748,42.575,270.182,43.414,274.927,44.676    z"/>
	</g>
	<g>
		<path style="fill:#A9312F;" d="M217.515,37.798c-4.094,4.389-8.761,11.954-12.609,12.872c-5.797,1.376-9.776-3.406-7.074-6.321    c2.62-2.833,5.551-4.962,8.073-6.469C209.605,37.733,213.47,37.7,217.515,37.798z"/>
	</g>
	<g style="opacity:0.48;">
		<path style="fill:#A9312F;" d="M131.388,145.993c1.081,2.141,2.168,4.274,3.352,6.347c0.579,1.042,1.186,2.067,1.831,3.057    c0.647,0.977,1.353,1.961,2.167,2.667l0.202,0.176l-0.029,0.288c-0.102,1.003-0.149,2.056-0.049,3.048    c0.081,0.959,0.416,2.04,0.975,2.195c0.265,0.081,0.418,0.045,0.679-0.295c0.233-0.329,0.407-0.791,0.545-1.258    c0.271-0.946,0.4-1.994,0.478-2.992l0.2-2.562l0.996,2.356c0.43,1.016,0.935,2.04,1.493,3.002    c0.562,0.958,1.181,1.901,1.928,2.624c0.365,0.364,0.789,0.656,1.171,0.719c0.42,0.071,0.782,0.001,0.929-0.3    c0.376-0.696,0.179-1.969-0.104-2.959l-0.368-1.29l1.044,0.792c1.508,1.143,3.127,2.177,4.764,3.157    c1.643,0.976,3.36,1.83,5.178,2.466c-1.89-0.398-3.69-1.155-5.436-1.985c-1.743-0.853-3.401-1.842-5.025-2.928l0.675-0.499    c0.204,0.586,0.348,1.155,0.432,1.772c0.063,0.61,0.11,1.276-0.235,1.988c-0.182,0.344-0.53,0.675-0.92,0.791    c-0.196,0.075-0.386,0.115-0.566,0.113c-0.184,0.019-0.367,0.018-0.553-0.029c-0.758-0.127-1.31-0.547-1.767-0.963    c-0.931-0.849-1.591-1.844-2.193-2.856c-0.6-1.018-1.123-2.05-1.597-3.141l1.196-0.206c-0.069,1.115-0.227,2.182-0.54,3.276    c-0.171,0.544-0.362,1.093-0.745,1.633c-0.115,0.133-0.225,0.266-0.354,0.39c-0.164,0.111-0.311,0.24-0.506,0.312    c-0.404,0.159-0.85,0.142-1.209,0.001c-0.755-0.274-1.15-0.958-1.354-1.514c-0.207-0.581-0.28-1.149-0.331-1.71    c-0.072-1.123-0.016-2.201,0.157-3.299l0.173,0.464c-0.951-0.923-1.586-1.958-2.21-3.002c-0.608-1.05-1.167-2.119-1.696-3.2    C133.146,150.459,132.196,148.253,131.388,145.993z"/>
	</g>
	<g>
		<g>
			<g>
				<path style="fill:#FFFFFF;" d="M183.282,137.001c-3.782,6.894-12.429,9.514-19.798,9.252c-1.015-0.049-2.014-0.18-2.98-0.409      c-11.692-2.735-18.57-18.57-14.23-29.672c0.426-1.146,0.999-2.243,1.687-3.275c6.059-9.007,21.567-12.413,30.606-6.059      c2.178,1.555,3.586,4.028,4.585,6.452c0.688,1.654,1.261,3.504,1.686,5.453C186.213,124.85,186.099,131.875,183.282,137.001z"/>
			</g>
			<g>
				<path style="fill:#A9312F;" d="M183.282,137.001c-0.689,1.2-1.496,2.338-2.469,3.329c-0.986,0.972-2.061,1.866-3.251,2.584      c-2.362,1.459-5.003,2.468-7.734,3.02c-1.364,0.285-2.748,0.49-4.144,0.578c-1.39,0.099-2.808,0.124-4.217-0.078      c-2.8-0.458-5.514-1.561-7.816-3.267c-4.645-3.394-7.731-8.618-9.118-14.186c-0.663-2.802-0.915-5.736-0.558-8.65      c0.276-1.463,0.586-2.86,1.051-4.277c0.458-1.397,1.156-2.759,1.993-3.979c3.466-4.925,8.965-7.835,14.583-8.944      c2.827-0.562,5.745-0.639,8.59-0.226c2.841,0.42,5.63,1.378,8.027,2.985c1.247,0.728,2.299,1.848,3.115,3.01      c0.825,1.18,1.456,2.459,1.981,3.763c1.058,2.608,1.682,5.348,2.091,8.098c0.401,2.753,0.499,5.553,0.202,8.313      C185.32,131.826,184.626,134.57,183.282,137.001z M183.282,137.001c2.606-4.952,2.747-10.806,1.777-16.185      c-0.505-2.71-1.312-5.366-2.47-7.84c-1.157-2.449-2.704-4.795-5.044-6.026c-4.628-2.716-10.356-2.938-15.484-1.711      c-2.588,0.603-5.075,1.62-7.313,2.995c-2.239,1.366-4.227,3.137-5.665,5.249c-0.738,1.053-1.336,2.176-1.752,3.406      c-0.414,1.224-0.717,2.489-0.974,3.768c-0.367,2.586-0.261,5.261,0.272,7.86c1.031,5.178,3.605,10.259,7.783,13.664      c2.066,1.715,4.545,2.891,7.182,3.481c1.326,0.266,2.694,0.32,4.068,0.3c1.371-0.015,2.748-0.12,4.102-0.37      c2.708-0.465,5.374-1.344,7.75-2.759c1.193-0.701,2.272-1.578,3.267-2.537C181.761,139.32,182.579,138.194,183.282,137.001z"/>
			</g>
		</g>
		<g>
			<path style="fill:#A9312F;" d="M156.94,136.1c0.467,0.41,4.783,5.967,14.656,3.191c9.873-2.777,9.102-15.427,7.713-19.593     c-1.388-4.165-6.325-12.804-17.587-10.028C150.461,112.447,148.918,129.053,156.94,136.1z"/>
		</g>
		<g style="opacity:0.21;">
			<path style="fill:#A9312F;" d="M184.838,118.743c-13.019-7.926-29.885-4.962-38.564-2.571c0.426-1.146,0.999-2.243,1.687-3.275     c6.059-9.007,21.567-12.413,30.606-6.059c2.178,1.555,3.586,4.028,4.585,6.452C183.839,114.943,184.412,116.794,184.838,118.743z     "/>
		</g>
	</g>
	<g>
		<path style="fill:#A9312F;" d="M341.69,94.638c-28.018,15.524-36.763-3.193-25.398-6.141c7.615-1.981,14.672-6.043,19.323-8.794    C338.513,84.354,340.544,89.332,341.69,94.638z"/>
	</g>
	<g>
		<path style="fill:#A9312F;" d="M343.771,120.097c-10.218,3.816-22.747,5.802-32.425,1.462c-3.651-1.637-6.747-5.256-5.42-8.908    c0.541-1.458,1.752-2.702,3.21-3.603c4.306-2.685,10.185-3.111,15.311-3.635c5.83-0.606,12.773-3.078,18.21-5.453    C342.656,99.96,345.297,112.394,343.771,120.097z"/>
	</g>
	<g>
		<path style="fill:#A9312F;" d="M343.033,127.438c-0.709,7.31-2.997,13.477-6.026,19.569c-6.976,1.13-14.459-0.508-20.453-4.094    c-2.669-1.605-5.027-4.176-4.339-7.516c0.901-4.421,6.812-4.88,10.398-4.798C332.339,130.828,339.332,128.846,343.033,127.438z"/>
	</g>
	<g>
		<g>
			<path style="fill:#A9312F;" d="M125.235,154.169c4.345-1.478,8.774-2.586,13.222-3.604c4.457-0.98,8.934-1.869,13.496-2.383     c-4.345,1.481-8.773,2.588-13.222,3.603C134.273,152.764,129.795,153.651,125.235,154.169z"/>
		</g>
		<g>
			<path style="fill:#A9312F;" d="M123.071,142.993c4.416-0.397,8.824-0.416,13.23-0.341c4.405,0.112,8.808,0.32,13.203,0.909     c-4.416,0.4-8.824,0.418-13.23,0.341C131.869,143.787,127.466,143.579,123.071,142.993z"/>
		</g>
		<g>
			<path style="fill:#A9312F;" d="M126.546,129.293c4.141,1.585,8.108,3.507,12.032,5.511c3.907,2.038,7.77,4.16,11.458,6.622     c-4.142-1.582-8.109-3.505-12.032-5.511C134.099,133.875,130.236,131.752,126.546,129.293z"/>
		</g>
	</g>
	<g>
		<path style="fill:#FFFFFF;" d="M299.49,47.083c0,0-3.177-0.213-4.028-0.949c-0.868-0.737,4.028-0.851,4.028-0.851    c-2.44-1.048-4.438-3.914-3.602-3.963c0.852-0.066,3.701,2.064,3.701,2.064c-2.964-4.34-0.851-10.89,2.44-10.464    c1.408,0.18,2.931,3.308,4.208,6.812c-2.243,11.643,4.749,20.208,6.026,21.288c-5.207-4.733-11.529-8.057-16.686-10.202    C296.395,48.459,299.49,47.083,299.49,47.083z"/>
	</g>
	<g>
		<path style="fill:#FFFFFF;" d="M177.46,42.154c0.459-2.636,3.226-6.288,3.472-6.599c-0.213,0.081-2.473,1.048-3.521,0.459    c-1.097-0.622,2.669-2.113,2.669-2.113s-2.899,0.229-3.128-0.639c-0.245-0.851,2.702-0.622,2.702-0.622    c-2.08-1.26-5.846-6.91-3.259-8.4c1.687-0.966,3.93,0.819,5.305,2.194c1.867,5.42,4.601,9.809,11.774,12.315    C193.475,38.748,184.665,40.517,177.46,42.154z"/>
	</g>
	<g>
		<path style="fill:#A9312F;" d="M212.288,129.287c0,0-3.866-5.599-6.132-4.799c-2.266,0.8,3.545,9.274,5.945,10.207    c2.4,0.933,8.453-7.141,7.254-8.874C218.154,124.087,212.288,129.287,212.288,129.287z"/>
	</g>
	<g>
		<path style="fill:#FB5555;" d="M201.141,134.627c-4.178,0.632-8.315,2.866-10.976,6.642c-3.858,5.473-5.071,12.622-1.107,18.173    c2.46,3.445,6.138,5.502,9.89,6.868c7.189,2.618,14.515,4.71,22.206,3.205c2.789-0.546,5.574-1.516,7.951-3.315    c3.643-2.758,6.103-7.466,6.45-12.341c0.347-4.875-1.427-9.804-4.651-12.92c-3.966-3.833-10.213-5.441-15.4-5.785    C210.881,134.847,205.735,133.931,201.141,134.627z"/>
	</g>
	<g style="opacity:0.48;">
		<g>
			<path style="fill:#A9312F;" d="M207.826,181.433c6.188,0.058,12.223,0.414,18.27,0.532c3.02,0.072,6.031,0.062,9.052,0.018     c3.018-0.101,6.023-0.281,9.119-0.55c-5.692,2.571-12.072,3.172-18.226,3.09c-3.094-0.1-6.178-0.356-9.225-0.861     C213.77,183.166,210.745,182.496,207.826,181.433z"/>
		</g>
	</g>
	<g>
		<path style="fill:#A9312F;" d="M204.006,136.507c1.71,1.728,2.85,3.97,3.588,6.3c0.749,2.34,1.057,4.828,0.971,7.295    c-0.181,2.454-0.574,4.915-1.521,7.176c-0.846,2.288-2.123,4.385-3.66,6.231c0.598-2.351,1.301-4.55,1.745-6.801    c0.511-2.229,0.75-4.477,0.879-6.712c0.126-2.243-0.045-4.485-0.351-6.732C205.319,141.016,204.8,138.777,204.006,136.507z"/>
	</g>
	<g>
		<path style="fill:#A9312F;" d="M215.054,166.206c-1.017-2.382-1.62-4.895-2.024-7.435c-0.423-2.541-0.541-5.133-0.429-7.732    c0.152-2.59,0.528-5.216,1.492-7.695c0.916-2.456,2.374-4.856,4.54-6.323c-1.371,2.205-2.102,4.518-2.623,6.887    c-0.508,2.368-0.753,4.809-0.853,7.265C214.866,156.094,215.105,161.063,215.054,166.206z"/>
	</g>
	<g>
		<path style="fill:#A9312F;" d="M206.372,146.587c1.66-0.044,2.804,0.305,3.912,0.597l1.577,0.521    c0.535,0.159,1.084,0.336,1.939,0.478c-0.315,0.794-1.085,1.313-1.884,1.52c-0.813,0.233-1.624,0.124-2.367-0.067    c-0.732-0.24-1.397-0.594-1.941-1.108C207.062,148.027,206.595,147.415,206.372,146.587z"/>
	</g>
	<g>
		<path style="fill:#FFC38E;" d="M244.959,347.608c-9.466,40.099-35.342,57.375-51.295,64.006    C77.714,394.94,69.207,327.522,69.207,327.522l10.644-61.915c31.114-44.521,90.386-67.778,113.62-62.156    c39.523,9.562,43.367,68.642,43.704,76.715c-3.556,5.766-8.433,11.124-14.32,11.941c-5.574,0.769-14.944,0.241-24.579,0.481    c-13.551,0.36-27.582,2.259-32.267,11.556c-6.127,12.181,4.084,27.702,26.813,36.976c6.968,2.859,15.112,5.118,24.314,6.511    C226.218,349.001,235.637,349.001,244.959,347.608z"/>
	</g>
	<g>
		<path style="fill:#FB5555;" d="M192.563,128.932c-3.37,2.146,2.608,6.221,4.438,2.378    C198.43,128.309,194.862,127.468,192.563,128.932z"/>
	</g>
	<g style="opacity:0.48;">
		<g>
			<path style="fill:#A9312F;" d="M244.262,265.102c-2.277,7.324-5.392,14.488-10.186,20.677c-2.44,2.999-5.511,5.811-9.47,6.994     c-3.996,0.953-7.81,0.834-11.677,0.968c-7.693,0.155-15.35-0.076-22.904,0.698c-3.765,0.383-7.514,0.96-11.077,2.031     c-3.527,1.098-6.96,2.667-9.417,5.213c-2.498,2.451-3.824,6-4.019,9.516c-0.183,3.565,1.062,7.127,2.904,10.278     c3.764,6.394,9.985,11.092,16.43,14.938c6.564,3.774,13.723,6.556,21.086,8.545c7.357,2.043,14.925,3.429,22.592,3.872     c-15.341-0.047-30.86-3.436-44.639-10.697c-6.799-3.704-13.271-8.602-17.472-15.466c-2.039-3.407-3.506-7.39-3.347-11.545     c0.176-4.09,1.672-8.254,4.642-11.234c2.955-2.979,6.779-4.622,10.543-5.76c3.805-1.102,7.689-1.651,11.556-2.007     c7.744-0.675,15.469-0.494,23.119-0.343c3.782,0,7.738,0.177,11.247-0.559c3.511-0.917,6.487-3.428,8.947-6.246     C238.086,279.252,241.458,272.216,244.262,265.102z"/>
		</g>
	</g>
	<g style="opacity:0.48;">
		<g>
			<path style="fill:#A9312F;" d="M255.458,345.638c8.505-2.894,16.669-6.586,24.165-11.337c7.519-4.699,14.43-10.326,20.456-16.811     l-0.323,0.831l0-0.024l0.003-0.49l0.323-0.344c3.987-4.256,7.601-8.87,10.834-13.76c1.617-2.447,3.06-5.003,4.509-7.567     c1.431-2.576,2.708-5.237,3.968-7.92c-0.834,2.847-1.896,5.623-3.052,8.365c-1.138,2.753-2.53,5.394-3.99,7.996     c-2.921,5.209-6.441,10.099-10.455,14.552l0.325-0.833v0.024l0.003,0.47l-0.325,0.361c-6.086,6.754-13.256,12.547-21.143,17.042     C272.846,340.644,264.297,343.943,255.458,345.638z"/>
		</g>
	</g>
	<g>
		<path style="fill:#A9312F;" d="M171.747,327.532c5.573-3.778,12.377-5.671,19.186-5.849c3.413-0.088,6.854,0.346,10.119,1.335    c3.311,0.852,6.318,2.596,9.033,4.514c-3.2-1.045-6.283-2.083-9.494-2.569c-3.178-0.549-6.39-0.848-9.607-0.721    c-3.216,0.042-6.434,0.403-9.641,0.959C178.148,325.806,174.94,326.525,171.747,327.532z"/>
	</g>
	<g>
		<path style="fill:#A9312F;" d="M164.268,311.128c5.573-3.778,12.377-5.671,19.186-5.849c3.413-0.088,6.854,0.346,10.119,1.335    c3.311,0.851,6.317,2.595,9.033,4.514c-3.2-1.045-6.283-2.083-9.494-2.569c-3.178-0.549-6.39-0.848-9.607-0.721    c-3.216,0.042-6.434,0.403-9.641,0.959C170.668,309.403,167.461,310.121,164.268,311.128z"/>
	</g>
	<g>
		<path style="fill:#A9312F;" d="M255.458,345.638c-8.866,2.354-17.972,3.412-26.934,3.195c0.625-3.604,1.85-7.135,1.514-10.98    c-0.384-4.517-1.802-8.962-1.658-13.503c0.144-4.517,2.427-9.49,6.8-10.739c3.075-0.865,6.463,0.384,8.865,2.451    c2.427,2.09,4.06,4.925,5.55,7.761c2.571,4.901,4.901,10.043,5.718,15.521C255.602,341.409,255.674,343.548,255.458,345.638z"/>
	</g>
	<g>
		<path style="fill:#A9312F;" d="M265.765,306.716c-4.901,2.498-10.379,0.12-14.392-2.955c-3.82-2.931-6.968-6.487-10.475-9.755    c-2.715-2.523-5.55-4.853-8.866-6.896c1.922-1.97,3.652-4.301,5.142-6.727c2.042-3.291,3.676-6.655,4.853-9.418    c2.403,0.793,4.685,1.85,6.439,2.667c6.439,2.979,12.445,7.184,16.939,12.71C270.042,292.06,274.391,302.343,265.765,306.716z"/>
	</g>
	<g>
		<path style="fill:#A9312F;" d="M336.883,205.181c-10.379,5.213-22.681,6.607-33.877,3.436c-1.85-0.529-3.724-1.201-5.093-2.547    c-1.37-1.345-2.09-3.532-1.226-5.238c0.721-1.418,2.307-2.162,3.772-2.787c8.481-3.532,17.491-6.103,25.251-11.1    c0.625-0.409,1.273-0.841,1.922-1.297c0.024,0,0.024,0,0.024,0C331.044,191.679,334.192,198.19,336.883,205.181z"/>
	</g>
	<g>
		<path style="fill:#A9312F;" d="M344.235,249.173c-6.127,1.826-12.71,1.994-19.125,1.538c-6.199-0.432-12.397-1.418-18.308-3.34    c-2.691-0.889-5.43-2.042-7.376-4.109c-1.946-2.066-2.955-5.262-1.754-7.832c1.417-3.051,5.166-4.157,8.505-4.637    c7.184-1.009,14.488-0.793,21.648-1.922c4.613-0.721,9.082-2.114,13.118-4.469c0.36-0.216,0.745-0.457,1.105-0.673    C343.369,231.273,344.138,239.875,344.235,249.173z"/>
	</g>
	<g>
		<g>
			<path style="fill:#FB5555;" d="M192.822,341.121c-2.307,9.658-5.574,19.245-11.437,27.125     c-12.662,16.987-35.03,11.869-52.184,6.055c-20.206-6.848-38.586-18.164-56.149-30.081     c-20.11-13.671-43.319-30.057-54.299-52.545c-5.286-10.836-6.126-21.864-3.676-32.243c2.403-10.284,8.025-19.966,15.809-28.279     c16.866-18.02,70.325-59.513,107.397-49.422c1.898,0.505,3.748,1.153,5.526,1.898c33.132,13.863,47.115,65.183,47.115,65.183     c4.637,14.007,6.991,28.879,7.352,43.776c-13.551,0.36-27.582,2.259-32.267,11.556     C159.882,316.326,170.093,331.847,192.822,341.121z"/>
		</g>
		<g>
			<path style="fill:#67DCBC;" d="M106.136,196.34c2.138,0.697,40.772,13.31,30.153,21.119c-10.812,7.905-43.247-2.018-43.968-2.234     c0.361,1.009,8.626,23.545,1.586,26.621c-7.208,3.123-26.453-14.368-26.453-14.368s-7.616,32.459-16.026,30.969     c-8.145-1.466-3.94-19.317-3.652-20.494c-11.869,20.518-12.806,35.51-26.429,34.502c-3.316-0.24-5.214-6.511-6.271-13.022     c2.403-10.284,8.025-19.966,15.809-28.279c16.866-18.02,70.325-59.513,107.397-49.422c1.898,0.505,3.748,1.153,5.526,1.898     C146.355,199.823,108.418,196.532,106.136,196.34z"/>
		</g>
		<g>
			<path style="fill:#67DCBC;" d="M15.077,259.432c0,0,4.361-56.394,37.299-73.258c25.824-13.221,78.947-10.088,91.432-2.545     l-61.455,19.408L27.95,249.497L15.077,259.432z"/>
		</g>
		<g>
			<path style="fill:#A9312F;" d="M119.581,237.327c0,0,1.081,11.28,6.272,10.415C131.044,246.877,119.581,237.327,119.581,237.327z     "/>
		</g>
		<g>
			<path style="fill:#A9312F;" d="M93.586,281.277c0,0,1.081,11.28,6.272,10.415C105.049,290.827,93.586,281.277,93.586,281.277z"/>
		</g>
		<g>
			<path style="fill:#A9312F;" d="M121.336,264.102c0,0,1.081,11.28,6.272,10.415S121.336,264.102,121.336,264.102z"/>
		</g>
		<g>
			<path style="fill:#A9312F;" d="M132.901,317.693c0,0,1.082,11.28,6.272,10.415C144.364,327.243,132.901,317.693,132.901,317.693z     "/>
		</g>
		<g>
			<path style="fill:#A9312F;" d="M122.389,343.602c0,0,1.081,11.28,6.272,10.415C133.852,353.152,122.389,343.602,122.389,343.602z     "/>
		</g>
		<g>
			<path style="fill:#A9312F;" d="M47.558,261.519c0,0,1.081,11.28,6.272,10.415C59.02,271.069,47.558,261.519,47.558,261.519z"/>
		</g>
		<g>
			<path style="fill:#A9312F;" d="M69.207,302.529c0,0,1.082,11.281,6.272,10.415C80.67,312.08,69.207,302.529,69.207,302.529z"/>
		</g>
		<g>
			<path style="fill:#A9312F;" d="M158.768,237.327c0,0,1.081,11.28,6.272,10.415C170.231,246.877,158.768,237.327,158.768,237.327z     "/>
		</g>
		<g>
			<path style="fill:#A9312F;" d="M152.324,206.983c0,0,1.081,11.28,6.272,10.415C163.787,216.533,152.324,206.983,152.324,206.983z     "/>
		</g>
		<g>
			<path style="fill:#A9312F;" d="M143.809,280c0,0,1.081,11.28,6.272,10.415C155.271,289.55,143.809,280,143.809,280z"/>
		</g>
		<g>
			<path style="fill:#A9312F;" d="M175.816,264.102c0,0,1.081,11.28,6.272,10.415C187.278,273.652,175.816,264.102,175.816,264.102z     "/>
		</g>
		<g>
			<path style="fill:#97ECE2;" d="M56.913,191.886c0.993,1.409-0.685,4.3-3.748,6.456c-3.062,2.156-6.349,2.762-7.342,1.352     c-0.992-1.41,0.685-4.3,3.748-6.456C52.633,191.082,55.921,190.476,56.913,191.886z"/>
		</g>
		<g>
			<path style="fill:#FFFFFF;" d="M37.964,293.568c1.347,0.059,2.605-0.74,3.247-2.877c0.386-1.286,0.25-2.677-0.092-3.975     c-0.831-3.154-3.655-6.002-6.878-3.682C30.52,285.712,33.731,293.382,37.964,293.568z"/>
		</g>
		<g>
			<path style="fill:#FFFFFF;" d="M45.239,297.49c0.423,0.019,0.818-0.232,1.019-0.903c0.121-0.404,0.078-0.84-0.029-1.248     c-0.261-0.99-1.147-1.884-2.159-1.156C42.902,295.025,43.91,297.432,45.239,297.49z"/>
		</g>
	</g>
	<g style="opacity:0.48;">
		<g>
			<path style="fill:#A9312F;" d="M244.959,201.313c-1.139,0.972-2.299,1.896-3.315,2.94c-0.507,0.518-0.992,1.052-1.382,1.588     c-0.437,0.513-0.52,1.203-0.428,1.067c-0.103-0.028,0.349,0.033,0.95-0.208c0.572-0.213,1.188-0.539,1.787-0.889     c1.2-0.698,2.376-1.584,3.492-2.421l3.16-2.37l-1.23,3.763c-0.377,1.154-0.698,2.393-0.94,3.577     c-0.127,0.593-0.229,1.189-0.267,1.744c-0.051,0.53-0.005,1.141,0.08,1.28c0.107,0.124-0.182-0.272-0.576-0.147     c-0.125,0.017,0.045,0.004,0.213-0.176c0.347-0.305,0.73-0.787,1.07-1.28c0.682-0.995,1.368-2.086,1.956-3.178l0.426-0.79     l0.728,0.316c1.285,0.559,2.717,1.012,4.136,1.321c1.432,0.31,2.91,0.396,4.385-0.019c-1.283,0.881-2.939,1.085-4.493,1.103     c-1.586,0.001-3.113-0.256-4.675-0.698l1.153-0.473c-0.519,1.243-1.03,2.45-1.75,3.627c-0.359,0.591-0.729,1.173-1.306,1.772     c-0.282,0.283-0.655,0.647-1.4,0.856c-1.076,0.223-1.904-0.688-2.071-1.138c-0.471-1.043-0.384-1.782-0.378-2.527     c0.035-0.736,0.141-1.42,0.268-2.093c0.269-1.349,0.652-2.603,1.099-3.899l1.93,1.393c-1.255,0.936-2.538,1.721-3.945,2.432     c-0.702,0.352-1.426,0.681-2.279,0.881c-0.427,0.098-0.866,0.196-1.437,0.139c-0.527-0.003-1.31-0.345-1.652-1.014     c-0.386-0.706-0.151-1.423,0.065-1.836c0.235-0.442,0.515-0.771,0.803-1.063c0.575-0.587,1.188-1.059,1.836-1.466     C242.256,202.604,243.566,201.877,244.959,201.313z"/>
		</g>
	</g>
	<g style="opacity:0.48;">
		<path style="fill:#E54949;" d="M255.372,161.583c-2.143,1.138-4.226,2.501-5.719,4.414c-1.493,1.912-2.329,4.457-1.74,6.811    c0.848,3.388,4.274,5.451,7.575,6.591c7.952,2.747,16.987,2.203,24.553-1.478c7.165-3.487,14.359-15.583,4.255-20.398    C276.159,153.645,262.66,157.711,255.372,161.583z"/>
	</g>
	<g>
		<g>
			<g>
				<path style="fill:#FFFFFF;" d="M277.343,159.764c-7.876,4.503-19.716,5.256-27.92,1.277c-1.752-0.851-3.357-1.948-4.766-3.324      c-6.092-6.01-9.006-15.933-8.351-24.399c0-0.197,0.016-0.393,0.033-0.59c0.819-8.531,6.337-15.868,14.116-19.356      c9.105-4.077,22.222-4.651,29.738,2.849c2.964,2.964,5.175,6.927,6.518,11.299h0.016      C290.345,139.164,287.889,153.722,277.343,159.764z"/>
			</g>
			<g>
				<path style="fill:#A9312F;" d="M277.343,159.764c-4.456,2.537-9.582,3.704-14.684,3.939c-2.559,0.102-5.136-0.078-7.66-0.578      c-2.523-0.49-5.01-1.301-7.283-2.586c-2.28-1.278-4.231-3.122-5.813-5.184c-1.6-2.062-2.897-4.352-3.917-6.754      c-2.027-4.813-2.974-10.081-2.726-15.364l-0.003,0.081c0.322-6.286,3.138-12.171,7.674-16.397      c2.251-2.098,4.878-3.839,7.733-4.97c2.82-1.162,5.771-1.956,8.78-2.371c5.973-0.789,12.408-0.092,17.686,3.177      c2.643,1.604,4.779,3.917,6.403,6.439c1.648,2.53,2.834,5.315,3.654,8.179l-0.477-0.353l0.016,0l0.361,0.008l0.1,0.344      c0.842,2.941,1.303,5.979,1.366,9.017c0.051,3.037-0.261,6.078-0.995,9.015c-0.74,2.934-1.953,5.749-3.644,8.251      C282.219,156.153,279.973,158.284,277.343,159.764z M277.343,159.764c2.616-1.505,4.837-3.652,6.502-6.153      c1.685-2.497,2.784-5.35,3.447-8.269c0.668-2.925,0.865-5.945,0.665-8.925c-0.196-3.012-0.89-5.84-1.657-8.746      c0.134,0.117,0.268,0.233,0.401,0.35c-0.082,0.079-0.166,0.145-0.278,0.12c-0.898-2.897-2.282-5.691-4.039-8.164      c-5.173-7.279-14.171-9.392-22.604-8.04c-6.609,1.06-13.004,3.795-17.328,9.067c-2.761,3.366-4.917,7.901-5.097,12.313      l-0.003,0.081c-0.45,4.91,0.217,9.992,1.956,14.678c0.874,2.341,2.018,4.587,3.463,6.63c1.438,2.051,3.197,3.869,5.33,5.194      c4.282,2.653,9.485,3.675,14.554,3.605C267.741,163.436,272.864,162.234,277.343,159.764z"/>
			</g>
		</g>
		<g>
			<path style="fill:#A9312F;" d="M259.939,156.499c6.766,0.99,14.324-1.592,18.394-7.254c6.485-9.021,3.724-23.113-5.793-28.752     c-5.109-3.027-12.091-3.681-17.609-1.398c-14.745,6.102-13.581,28.59-0.319,35.692     C256.246,155.661,258.056,156.223,259.939,156.499z"/>
		</g>
		<g style="opacity:0.21;">
			<path style="fill:#A9312F;" d="M286.71,127.521c-29.787-14.116-48.177,3.488-50.404,5.797c0-0.197,0.016-0.393,0.033-0.59     c0.819-8.531,6.337-15.868,14.116-19.356c9.105-4.077,22.222-4.651,29.738,2.849C283.156,119.186,285.367,123.149,286.71,127.521     z"/>
		</g>
	</g>
	<g>
		<g>
			<path style="fill:#A9312F;" d="M306.228,160.915c-4.395,0.586-8.798,0.794-13.203,0.909c-4.406,0.077-8.813,0.059-13.23-0.341     c4.395-0.589,8.798-0.797,13.203-0.909C297.404,160.499,301.812,160.517,306.228,160.915z"/>
		</g>
		<g>
			<path style="fill:#A9312F;" d="M302.752,147.215c-3.689,2.459-7.552,4.582-11.458,6.622c-3.923,2.007-7.89,3.929-12.032,5.511     c3.688-2.462,7.551-4.584,11.458-6.622C294.645,150.722,298.612,148.8,302.752,147.215z"/>
		</g>
	</g>
</g>















</svg>
